%TF.GenerationSoftware,KiCad,Pcbnew,(6.0.1)*%
%TF.CreationDate,2022-01-19T11:33:42-06:00*%
%TF.ProjectId,Telemetry_KiCAD_Project,54656c65-6d65-4747-9279-5f4b69434144,rev?*%
%TF.SameCoordinates,Original*%
%TF.FileFunction,Profile,NP*%
%FSLAX46Y46*%
G04 Gerber Fmt 4.6, Leading zero omitted, Abs format (unit mm)*
G04 Created by KiCad (PCBNEW (6.0.1)) date 2022-01-19 11:33:42*
%MOMM*%
%LPD*%
G01*
G04 APERTURE LIST*
%TA.AperFunction,Profile*%
%ADD10C,0.100000*%
%TD*%
%TA.AperFunction,Profile*%
%ADD11C,0.050000*%
%TD*%
G04 APERTURE END LIST*
D10*
X80000000Y-134980061D02*
G75*
G03*
X89960000Y-144975000I9995000J0D01*
G01*
X89994939Y-51725000D02*
G75*
G03*
X80000000Y-61685000I0J-9995000D01*
G01*
X89994939Y-51725000D02*
X150040000Y-51725000D01*
X160000000Y-61719939D02*
G75*
G03*
X150040000Y-51725000I-9995000J0D01*
G01*
X150000000Y-144980000D02*
G75*
G03*
X160000000Y-134980000I0J10000000D01*
G01*
D11*
X158666666Y-54700000D02*
G75*
G03*
X158666666Y-54700000I-666666J0D01*
G01*
X157000000Y-54700000D02*
X159000000Y-54700000D01*
X158000000Y-53700000D02*
X158000000Y-55700000D01*
X82666666Y-54700000D02*
G75*
G03*
X82666666Y-54700000I-666666J0D01*
G01*
X81000000Y-54700000D02*
X83000000Y-54700000D01*
X82000000Y-53700000D02*
X82000000Y-55700000D01*
X122466666Y-144600000D02*
G75*
G03*
X122466666Y-144600000I-666666J0D01*
G01*
X120800000Y-144600000D02*
X122800000Y-144600000D01*
X121800000Y-143600000D02*
X121800000Y-145600000D01*
X82666666Y-141900000D02*
G75*
G03*
X82666666Y-141900000I-666666J0D01*
G01*
X81000000Y-141900000D02*
X83000000Y-141900000D01*
X82000000Y-140900000D02*
X82000000Y-142900000D01*
X118166666Y-98475000D02*
G75*
G03*
X118166666Y-98475000I-1666666J0D01*
G01*
X114000000Y-98475000D02*
X119000000Y-98475000D01*
X116500000Y-95975000D02*
X116500000Y-100975000D01*
D10*
X160000000Y-61719939D02*
X160000000Y-134980000D01*
X80000000Y-134980061D02*
X80000000Y-61685000D01*
X150000000Y-144980000D02*
X89960000Y-144975000D01*
D11*
X161666666Y-51725000D02*
G75*
G03*
X161666666Y-51725000I-1666666J0D01*
G01*
X157500000Y-51725000D02*
X162500000Y-51725000D01*
X160000000Y-49225000D02*
X160000000Y-54225000D01*
X81666666Y-51725000D02*
G75*
G03*
X81666666Y-51725000I-1666666J0D01*
G01*
X77500000Y-51725000D02*
X82500000Y-51725000D01*
X80000000Y-49225000D02*
X80000000Y-54225000D01*
X161666666Y-144975000D02*
G75*
G03*
X161666666Y-144975000I-1666666J0D01*
G01*
X157500000Y-144975000D02*
X162500000Y-144975000D01*
X160000000Y-142475000D02*
X160000000Y-147475000D01*
X81666666Y-144975000D02*
G75*
G03*
X81666666Y-144975000I-1666666J0D01*
G01*
X77500000Y-144975000D02*
X82500000Y-144975000D01*
X80000000Y-142475000D02*
X80000000Y-147475000D01*
X124500000Y-98475000D02*
G75*
G03*
X124500000Y-98475000I-8000000J0D01*
G01*
M02*
