%TF.GenerationSoftware,KiCad,Pcbnew,(6.0.1)*%
%TF.CreationDate,2022-01-19T11:33:42-06:00*%
%TF.ProjectId,Telemetry_KiCAD_Project,54656c65-6d65-4747-9279-5f4b69434144,rev?*%
%TF.SameCoordinates,Original*%
%TF.FileFunction,Soldermask,Bot*%
%TF.FilePolarity,Negative*%
%FSLAX46Y46*%
G04 Gerber Fmt 4.6, Leading zero omitted, Abs format (unit mm)*
G04 Created by KiCad (PCBNEW (6.0.1)) date 2022-01-19 11:33:42*
%MOMM*%
%LPD*%
G01*
G04 APERTURE LIST*
G04 Aperture macros list*
%AMRoundRect*
0 Rectangle with rounded corners*
0 $1 Rounding radius*
0 $2 $3 $4 $5 $6 $7 $8 $9 X,Y pos of 4 corners*
0 Add a 4 corners polygon primitive as box body*
4,1,4,$2,$3,$4,$5,$6,$7,$8,$9,$2,$3,0*
0 Add four circle primitives for the rounded corners*
1,1,$1+$1,$2,$3*
1,1,$1+$1,$4,$5*
1,1,$1+$1,$6,$7*
1,1,$1+$1,$8,$9*
0 Add four rect primitives between the rounded corners*
20,1,$1+$1,$2,$3,$4,$5,0*
20,1,$1+$1,$4,$5,$6,$7,0*
20,1,$1+$1,$6,$7,$8,$9,0*
20,1,$1+$1,$8,$9,$2,$3,0*%
G04 Aperture macros list end*
%ADD10RoundRect,0.051000X0.850000X-0.850000X0.850000X0.850000X-0.850000X0.850000X-0.850000X-0.850000X0*%
%ADD11O,1.802000X1.802000*%
%ADD12RoundRect,0.051000X0.850000X0.850000X-0.850000X0.850000X-0.850000X-0.850000X0.850000X-0.850000X0*%
%ADD13C,4.902000*%
%ADD14C,1.752000*%
%ADD15RoundRect,0.051000X-0.825000X0.825000X-0.825000X-0.825000X0.825000X-0.825000X0.825000X0.825000X0*%
%ADD16C,2.152000*%
%ADD17C,2.352000*%
%ADD18C,1.552000*%
%ADD19O,2.002000X1.302000*%
G04 APERTURE END LIST*
D10*
%TO.C,JP1*%
X127800000Y-59800000D03*
D11*
X130340000Y-59800000D03*
X132880000Y-59800000D03*
%TD*%
D12*
%TO.C,J2*%
X138190000Y-79000000D03*
D11*
X135650000Y-79000000D03*
X138190000Y-76460000D03*
X135650000Y-76460000D03*
X138190000Y-73920000D03*
X135650000Y-73920000D03*
X138190000Y-71380000D03*
X135650000Y-71380000D03*
%TD*%
D13*
%TO.C,J5*%
X91730000Y-130305000D03*
X91730000Y-66805000D03*
D14*
X90460000Y-122100000D03*
X90460000Y-119330000D03*
X90460000Y-116560000D03*
X90460000Y-113790000D03*
X90460000Y-111020000D03*
X90460000Y-108250000D03*
X90460000Y-105480000D03*
X90460000Y-102710000D03*
X90460000Y-99940000D03*
X90460000Y-97170000D03*
X90460000Y-94400000D03*
X90460000Y-91630000D03*
X90460000Y-88860000D03*
X90460000Y-86090000D03*
X90460000Y-83320000D03*
X90460000Y-80550000D03*
X90460000Y-77780000D03*
X90460000Y-75010000D03*
X93000000Y-123485000D03*
X93000000Y-120715000D03*
X93000000Y-117945000D03*
X93000000Y-115175000D03*
X93000000Y-112405000D03*
X93000000Y-109635000D03*
X93000000Y-106865000D03*
X93000000Y-104095000D03*
X93000000Y-101325000D03*
X93000000Y-98555000D03*
X93000000Y-95785000D03*
X93000000Y-93015000D03*
X93000000Y-90245000D03*
X93000000Y-87475000D03*
X93000000Y-84705000D03*
X93000000Y-81935000D03*
X93000000Y-79165000D03*
X93000000Y-76395000D03*
D15*
X93000000Y-73625000D03*
%TD*%
D11*
%TO.C,J1*%
X142350000Y-71360001D03*
X144890000Y-71360001D03*
X142350000Y-73900001D03*
X144890000Y-73900001D03*
X142350000Y-76440001D03*
X144890000Y-76440001D03*
X142350000Y-78980001D03*
D12*
X144890000Y-78980001D03*
%TD*%
D16*
%TO.C,J3*%
X141900000Y-130400000D03*
D17*
X144440000Y-132940000D03*
X144440000Y-127860000D03*
X139360000Y-127860000D03*
X139360000Y-132940000D03*
%TD*%
D18*
%TO.C,J4*%
X152757500Y-66720000D03*
X152757500Y-61720000D03*
D19*
X155457500Y-67720000D03*
X155457500Y-60720000D03*
%TD*%
M02*
