%TF.GenerationSoftware,KiCad,Pcbnew,(6.0.1)*%
%TF.CreationDate,2022-01-19T11:33:41-06:00*%
%TF.ProjectId,Telemetry_KiCAD_Project,54656c65-6d65-4747-9279-5f4b69434144,rev?*%
%TF.SameCoordinates,Original*%
%TF.FileFunction,Legend,Top*%
%TF.FilePolarity,Positive*%
%FSLAX46Y46*%
G04 Gerber Fmt 4.6, Leading zero omitted, Abs format (unit mm)*
G04 Created by KiCad (PCBNEW (6.0.1)) date 2022-01-19 11:33:41*
%MOMM*%
%LPD*%
G01*
G04 APERTURE LIST*
%ADD10C,0.100000*%
%ADD11C,0.120000*%
%ADD12C,1.000000*%
%ADD13C,0.150000*%
%ADD14C,0.254000*%
%ADD15C,0.127000*%
%ADD16C,0.060000*%
%ADD17C,0.200000*%
G04 APERTURE END LIST*
D10*
X89950000Y-144970000D02*
X89140000Y-144930000D01*
X89140000Y-144930000D02*
X87860000Y-144740000D01*
X87860000Y-144740000D02*
X86600000Y-144350000D01*
X86600000Y-144350000D02*
X86010000Y-144140000D01*
X86010000Y-144140000D02*
X84760000Y-143480000D01*
X84760000Y-143480000D02*
X83640000Y-142700000D01*
X83640000Y-142700000D02*
X82740000Y-141860000D01*
X82740000Y-141860000D02*
X82110000Y-141120000D01*
X82110000Y-141120000D02*
X81570000Y-140330000D01*
X81570000Y-140330000D02*
X81220000Y-139770000D01*
X81220000Y-139770000D02*
X80840000Y-138940000D01*
X80840000Y-138940000D02*
X80530000Y-138140000D01*
X80530000Y-138140000D02*
X80240001Y-137090000D01*
X80240001Y-137090000D02*
X80140000Y-136490000D01*
X80140000Y-136490000D02*
X80020000Y-135720000D01*
X80020000Y-135720000D02*
X80000000Y-134980061D01*
X80000000Y-134980061D02*
X83000000Y-134950000D01*
X83000000Y-134950000D02*
X83000001Y-135109286D01*
X83000001Y-135109286D02*
X83020000Y-135589999D01*
X83020000Y-135589999D02*
X83120000Y-136360000D01*
X83120000Y-136360000D02*
X83400000Y-137330000D01*
X83400000Y-137330000D02*
X83650000Y-137950000D01*
X83650000Y-137950000D02*
X83970000Y-138550000D01*
X83970000Y-138550000D02*
X84430000Y-139250000D01*
X84430000Y-139250000D02*
X84800000Y-139690000D01*
X84800000Y-139690000D02*
X85390000Y-140270000D01*
X85390000Y-140270000D02*
X86230000Y-140900000D01*
X86230000Y-140900000D02*
X87040000Y-141340000D01*
X87040000Y-141340000D02*
X87820000Y-141650000D01*
X87820000Y-141650000D02*
X88620000Y-141870000D01*
X88620000Y-141870000D02*
X89220000Y-141960001D01*
X89220000Y-141960001D02*
X89975000Y-142000000D01*
X89975000Y-142000000D02*
X89975000Y-144975000D01*
X89975000Y-144975000D02*
X89949999Y-144975000D01*
X89949999Y-144975000D02*
X89950000Y-144970000D01*
G36*
X83000001Y-135109286D02*
G01*
X83020000Y-135589999D01*
X83120000Y-136360000D01*
X83400000Y-137330000D01*
X83650000Y-137950000D01*
X83970000Y-138550000D01*
X84430000Y-139250000D01*
X84800000Y-139690000D01*
X85390000Y-140270000D01*
X86230000Y-140900000D01*
X87040000Y-141340000D01*
X87820000Y-141650000D01*
X88620000Y-141870000D01*
X89220000Y-141960001D01*
X89975000Y-142000000D01*
X89975000Y-144975000D01*
X89949999Y-144975000D01*
X89950000Y-144970000D01*
X89140000Y-144930000D01*
X87860000Y-144740000D01*
X86600000Y-144350000D01*
X86010000Y-144140000D01*
X84760000Y-143480000D01*
X83640000Y-142700000D01*
X82740000Y-141860000D01*
X82110000Y-141120000D01*
X81570000Y-140330000D01*
X81220000Y-139770000D01*
X80840000Y-138940000D01*
X80530000Y-138140000D01*
X80240001Y-137090000D01*
X80140000Y-136490000D01*
X80020000Y-135720000D01*
X80000000Y-134980061D01*
X83000000Y-134950000D01*
X83000001Y-135109286D01*
G37*
X83000001Y-135109286D02*
X83020000Y-135589999D01*
X83120000Y-136360000D01*
X83400000Y-137330000D01*
X83650000Y-137950000D01*
X83970000Y-138550000D01*
X84430000Y-139250000D01*
X84800000Y-139690000D01*
X85390000Y-140270000D01*
X86230000Y-140900000D01*
X87040000Y-141340000D01*
X87820000Y-141650000D01*
X88620000Y-141870000D01*
X89220000Y-141960001D01*
X89975000Y-142000000D01*
X89975000Y-144975000D01*
X89949999Y-144975000D01*
X89950000Y-144970000D01*
X89140000Y-144930000D01*
X87860000Y-144740000D01*
X86600000Y-144350000D01*
X86010000Y-144140000D01*
X84760000Y-143480000D01*
X83640000Y-142700000D01*
X82740000Y-141860000D01*
X82110000Y-141120000D01*
X81570000Y-140330000D01*
X81220000Y-139770000D01*
X80840000Y-138940000D01*
X80530000Y-138140000D01*
X80240001Y-137090000D01*
X80140000Y-136490000D01*
X80020000Y-135720000D01*
X80000000Y-134980061D01*
X83000000Y-134950000D01*
X83000001Y-135109286D01*
X80000000Y-134980061D02*
G75*
G03*
X89960111Y-144975000I9995000J0D01*
G01*
D11*
X83000001Y-135109286D02*
G75*
G03*
X90000000Y-142010000I6999999J99999D01*
G01*
D10*
X80005000Y-61675000D02*
X80045000Y-60865000D01*
X80045000Y-60865000D02*
X80235000Y-59585000D01*
X80235000Y-59585000D02*
X80625000Y-58325000D01*
X80625000Y-58325000D02*
X80835000Y-57735000D01*
X80835000Y-57735000D02*
X81495000Y-56485000D01*
X81495000Y-56485000D02*
X82275000Y-55365000D01*
X82275000Y-55365000D02*
X83115000Y-54465000D01*
X83115000Y-54465000D02*
X83855000Y-53835000D01*
X83855000Y-53835000D02*
X84645000Y-53295000D01*
X84645000Y-53295000D02*
X85205000Y-52945000D01*
X85205000Y-52945000D02*
X86035000Y-52565000D01*
X86035000Y-52565000D02*
X86835000Y-52255000D01*
X86835000Y-52255000D02*
X87885000Y-51965001D01*
X87885000Y-51965001D02*
X88485000Y-51865000D01*
X88485000Y-51865000D02*
X89255000Y-51745000D01*
X89255000Y-51745000D02*
X89994939Y-51725000D01*
X89994939Y-51725000D02*
X90025000Y-54725000D01*
X90025000Y-54725000D02*
X89865714Y-54725001D01*
X89865714Y-54725001D02*
X89385001Y-54745000D01*
X89385001Y-54745000D02*
X88615000Y-54845000D01*
X88615000Y-54845000D02*
X87645000Y-55125000D01*
X87645000Y-55125000D02*
X87025000Y-55375000D01*
X87025000Y-55375000D02*
X86425000Y-55695000D01*
X86425000Y-55695000D02*
X85725000Y-56155000D01*
X85725000Y-56155000D02*
X85285000Y-56525000D01*
X85285000Y-56525000D02*
X84705000Y-57115000D01*
X84705000Y-57115000D02*
X84075000Y-57955000D01*
X84075000Y-57955000D02*
X83635000Y-58765000D01*
X83635000Y-58765000D02*
X83325000Y-59545000D01*
X83325000Y-59545000D02*
X83105000Y-60345000D01*
X83105000Y-60345000D02*
X83014999Y-60945000D01*
X83014999Y-60945000D02*
X82975000Y-61700000D01*
X82975000Y-61700000D02*
X80000000Y-61700000D01*
X80000000Y-61700000D02*
X80000000Y-61674999D01*
X80000000Y-61674999D02*
X80005000Y-61675000D01*
G36*
X90025000Y-54725000D02*
G01*
X89865714Y-54725001D01*
X89385001Y-54745000D01*
X88615000Y-54845000D01*
X87645000Y-55125000D01*
X87025000Y-55375000D01*
X86425000Y-55695000D01*
X85725000Y-56155000D01*
X85285000Y-56525000D01*
X84705000Y-57115000D01*
X84075000Y-57955000D01*
X83635000Y-58765000D01*
X83325000Y-59545000D01*
X83105000Y-60345000D01*
X83014999Y-60945000D01*
X82975000Y-61700000D01*
X80000000Y-61700000D01*
X80000000Y-61674999D01*
X80005000Y-61675000D01*
X80045000Y-60865000D01*
X80235000Y-59585000D01*
X80625000Y-58325000D01*
X80835000Y-57735000D01*
X81495000Y-56485000D01*
X82275000Y-55365000D01*
X83115000Y-54465000D01*
X83855000Y-53835000D01*
X84645000Y-53295000D01*
X85205000Y-52945000D01*
X86035000Y-52565000D01*
X86835000Y-52255000D01*
X87885000Y-51965001D01*
X88485000Y-51865000D01*
X89255000Y-51745000D01*
X89994939Y-51725000D01*
X90025000Y-54725000D01*
G37*
X90025000Y-54725000D02*
X89865714Y-54725001D01*
X89385001Y-54745000D01*
X88615000Y-54845000D01*
X87645000Y-55125000D01*
X87025000Y-55375000D01*
X86425000Y-55695000D01*
X85725000Y-56155000D01*
X85285000Y-56525000D01*
X84705000Y-57115000D01*
X84075000Y-57955000D01*
X83635000Y-58765000D01*
X83325000Y-59545000D01*
X83105000Y-60345000D01*
X83014999Y-60945000D01*
X82975000Y-61700000D01*
X80000000Y-61700000D01*
X80000000Y-61674999D01*
X80005000Y-61675000D01*
X80045000Y-60865000D01*
X80235000Y-59585000D01*
X80625000Y-58325000D01*
X80835000Y-57735000D01*
X81495000Y-56485000D01*
X82275000Y-55365000D01*
X83115000Y-54465000D01*
X83855000Y-53835000D01*
X84645000Y-53295000D01*
X85205000Y-52945000D01*
X86035000Y-52565000D01*
X86835000Y-52255000D01*
X87885000Y-51965001D01*
X88485000Y-51865000D01*
X89255000Y-51745000D01*
X89994939Y-51725000D01*
X90025000Y-54725000D01*
X89994939Y-51725000D02*
G75*
G03*
X80000000Y-61685111I0J-9995000D01*
G01*
D11*
X89865714Y-54725001D02*
G75*
G03*
X82965000Y-61725000I99999J-6999999D01*
G01*
D10*
X150050000Y-51730000D02*
X150860000Y-51770000D01*
X150860000Y-51770000D02*
X152140000Y-51960000D01*
X152140000Y-51960000D02*
X153400000Y-52350000D01*
X153400000Y-52350000D02*
X153990000Y-52560000D01*
X153990000Y-52560000D02*
X155240000Y-53220000D01*
X155240000Y-53220000D02*
X156360000Y-54000000D01*
X156360000Y-54000000D02*
X157260000Y-54840000D01*
X157260000Y-54840000D02*
X157890000Y-55580000D01*
X157890000Y-55580000D02*
X158430000Y-56370000D01*
X158430000Y-56370000D02*
X158780000Y-56930000D01*
X158780000Y-56930000D02*
X159160000Y-57760000D01*
X159160000Y-57760000D02*
X159470000Y-58560000D01*
X159470000Y-58560000D02*
X159760000Y-59610000D01*
X159760000Y-59610000D02*
X159860000Y-60210000D01*
X159860000Y-60210000D02*
X159980000Y-60980000D01*
X159980000Y-60980000D02*
X160000000Y-61719939D01*
X160000000Y-61719939D02*
X157000000Y-61750000D01*
X157000000Y-61750000D02*
X156999999Y-61590714D01*
X156999999Y-61590714D02*
X156980000Y-61110000D01*
X156980000Y-61110000D02*
X156880000Y-60340000D01*
X156880000Y-60340000D02*
X156600000Y-59370000D01*
X156600000Y-59370000D02*
X156350000Y-58750000D01*
X156350000Y-58750000D02*
X156030000Y-58150000D01*
X156030000Y-58150000D02*
X155570000Y-57450000D01*
X155570000Y-57450000D02*
X155200000Y-57010000D01*
X155200000Y-57010000D02*
X154610000Y-56430000D01*
X154610000Y-56430000D02*
X153770000Y-55800000D01*
X153770000Y-55800000D02*
X152960000Y-55360000D01*
X152960000Y-55360000D02*
X152180000Y-55050000D01*
X152180000Y-55050000D02*
X151380000Y-54830000D01*
X151380000Y-54830000D02*
X150780000Y-54740000D01*
X150780000Y-54740000D02*
X150025000Y-54700000D01*
X150025000Y-54700000D02*
X150025000Y-51725000D01*
X150025000Y-51725000D02*
X150050000Y-51725000D01*
X150050000Y-51725000D02*
X150050000Y-51730000D01*
G36*
X150050000Y-51730000D02*
G01*
X150860000Y-51770000D01*
X152140000Y-51960000D01*
X153400000Y-52350000D01*
X153990000Y-52560000D01*
X155240000Y-53220000D01*
X156360000Y-54000000D01*
X157260000Y-54840000D01*
X157890000Y-55580000D01*
X158430000Y-56370000D01*
X158780000Y-56930000D01*
X159160000Y-57760000D01*
X159470000Y-58560000D01*
X159760000Y-59610000D01*
X159860000Y-60210000D01*
X159980000Y-60980000D01*
X160000000Y-61719939D01*
X157000000Y-61750000D01*
X156999999Y-61590714D01*
X156980000Y-61110000D01*
X156880000Y-60340000D01*
X156600000Y-59370000D01*
X156350000Y-58750000D01*
X156030000Y-58150000D01*
X155570000Y-57450000D01*
X155200000Y-57010000D01*
X154610000Y-56430000D01*
X153770000Y-55800000D01*
X152960000Y-55360000D01*
X152180000Y-55050000D01*
X151380000Y-54830000D01*
X150780000Y-54740000D01*
X150025000Y-54700000D01*
X150025000Y-51725000D01*
X150050000Y-51725000D01*
X150050000Y-51730000D01*
G37*
X150050000Y-51730000D02*
X150860000Y-51770000D01*
X152140000Y-51960000D01*
X153400000Y-52350000D01*
X153990000Y-52560000D01*
X155240000Y-53220000D01*
X156360000Y-54000000D01*
X157260000Y-54840000D01*
X157890000Y-55580000D01*
X158430000Y-56370000D01*
X158780000Y-56930000D01*
X159160000Y-57760000D01*
X159470000Y-58560000D01*
X159760000Y-59610000D01*
X159860000Y-60210000D01*
X159980000Y-60980000D01*
X160000000Y-61719939D01*
X157000000Y-61750000D01*
X156999999Y-61590714D01*
X156980000Y-61110000D01*
X156880000Y-60340000D01*
X156600000Y-59370000D01*
X156350000Y-58750000D01*
X156030000Y-58150000D01*
X155570000Y-57450000D01*
X155200000Y-57010000D01*
X154610000Y-56430000D01*
X153770000Y-55800000D01*
X152960000Y-55360000D01*
X152180000Y-55050000D01*
X151380000Y-54830000D01*
X150780000Y-54740000D01*
X150025000Y-54700000D01*
X150025000Y-51725000D01*
X150050000Y-51725000D01*
X150050000Y-51730000D01*
X160000000Y-134990000D02*
X159970000Y-135650000D01*
X159970000Y-135650000D02*
X159900000Y-136350000D01*
X159900000Y-136350000D02*
X159760000Y-137130000D01*
X159760000Y-137130000D02*
X159570000Y-137890000D01*
X159570000Y-137890000D02*
X159300000Y-138640000D01*
X159300000Y-138640000D02*
X159010000Y-139300000D01*
X159010000Y-139300000D02*
X158680000Y-139920000D01*
X158680000Y-139920000D02*
X158250000Y-140640000D01*
X158250000Y-140640000D02*
X157750000Y-141290000D01*
X157750000Y-141290000D02*
X157370000Y-141720000D01*
X157370000Y-141720000D02*
X156880000Y-142230000D01*
X156880000Y-142230000D02*
X156480000Y-142600000D01*
X156480000Y-142600000D02*
X156040000Y-142940000D01*
X156040000Y-142940000D02*
X155590000Y-143270000D01*
X155590000Y-143270000D02*
X154920000Y-143680000D01*
X154920000Y-143680000D02*
X154360000Y-143970000D01*
X154360000Y-143970000D02*
X153860000Y-144210000D01*
X153860000Y-144210000D02*
X153220000Y-144440000D01*
X153220000Y-144440000D02*
X152500000Y-144660000D01*
X152500000Y-144660000D02*
X152000000Y-144780000D01*
X152000000Y-144780000D02*
X151620000Y-144840000D01*
X151620000Y-144840000D02*
X151190000Y-144900000D01*
X151190000Y-144900000D02*
X150670000Y-144940000D01*
X150670000Y-144940000D02*
X150110000Y-144970000D01*
X150110000Y-144970000D02*
X149980000Y-144970000D01*
X149980000Y-144970000D02*
X150090000Y-141980000D01*
X150090000Y-141980000D02*
X150120000Y-141980000D01*
X150120000Y-141980000D02*
X151100000Y-141880000D01*
X151100000Y-141880000D02*
X151960000Y-141700000D01*
X151960000Y-141700000D02*
X152770000Y-141400000D01*
X152770000Y-141400000D02*
X153320000Y-141120000D01*
X153320000Y-141120000D02*
X153900000Y-140790000D01*
X153900000Y-140790000D02*
X154470000Y-140380000D01*
X154470000Y-140380000D02*
X155040000Y-139860000D01*
X155040000Y-139860000D02*
X155640000Y-139150000D01*
X155640000Y-139150000D02*
X155970000Y-138630000D01*
X155970000Y-138630000D02*
X156360000Y-137910000D01*
X156360000Y-137910000D02*
X156540000Y-137490000D01*
X156540000Y-137490000D02*
X156750000Y-136850000D01*
X156750000Y-136850000D02*
X156920000Y-136100000D01*
X156920000Y-136100000D02*
X156990000Y-135640000D01*
X156990000Y-135640000D02*
X157020000Y-134920000D01*
X157020000Y-134920000D02*
X160000000Y-134920000D01*
X160000000Y-134920000D02*
X160000000Y-134990000D01*
G36*
X160000000Y-134990000D02*
G01*
X159970000Y-135650000D01*
X159900000Y-136350000D01*
X159760000Y-137130000D01*
X159570000Y-137890000D01*
X159300000Y-138640000D01*
X159010000Y-139300000D01*
X158680000Y-139920000D01*
X158250000Y-140640000D01*
X157750000Y-141290000D01*
X157370000Y-141720000D01*
X156880000Y-142230000D01*
X156480000Y-142600000D01*
X156040000Y-142940000D01*
X155590000Y-143270000D01*
X154920000Y-143680000D01*
X154360000Y-143970000D01*
X153860000Y-144210000D01*
X153220000Y-144440000D01*
X152500000Y-144660000D01*
X152000000Y-144780000D01*
X151620000Y-144840000D01*
X151190000Y-144900000D01*
X150670000Y-144940000D01*
X150110000Y-144970000D01*
X149980000Y-144970000D01*
X150090000Y-141980000D01*
X150120000Y-141980000D01*
X151100000Y-141880000D01*
X151960000Y-141700000D01*
X152770000Y-141400000D01*
X153320000Y-141120000D01*
X153900000Y-140790000D01*
X154470000Y-140380000D01*
X155040000Y-139860000D01*
X155640000Y-139150000D01*
X155970000Y-138630000D01*
X156360000Y-137910000D01*
X156540000Y-137490000D01*
X156750000Y-136850000D01*
X156920000Y-136100000D01*
X156990000Y-135640000D01*
X157020000Y-134920000D01*
X160000000Y-134920000D01*
X160000000Y-134990000D01*
G37*
X160000000Y-134990000D02*
X159970000Y-135650000D01*
X159900000Y-136350000D01*
X159760000Y-137130000D01*
X159570000Y-137890000D01*
X159300000Y-138640000D01*
X159010000Y-139300000D01*
X158680000Y-139920000D01*
X158250000Y-140640000D01*
X157750000Y-141290000D01*
X157370000Y-141720000D01*
X156880000Y-142230000D01*
X156480000Y-142600000D01*
X156040000Y-142940000D01*
X155590000Y-143270000D01*
X154920000Y-143680000D01*
X154360000Y-143970000D01*
X153860000Y-144210000D01*
X153220000Y-144440000D01*
X152500000Y-144660000D01*
X152000000Y-144780000D01*
X151620000Y-144840000D01*
X151190000Y-144900000D01*
X150670000Y-144940000D01*
X150110000Y-144970000D01*
X149980000Y-144970000D01*
X150090000Y-141980000D01*
X150120000Y-141980000D01*
X151100000Y-141880000D01*
X151960000Y-141700000D01*
X152770000Y-141400000D01*
X153320000Y-141120000D01*
X153900000Y-140790000D01*
X154470000Y-140380000D01*
X155040000Y-139860000D01*
X155640000Y-139150000D01*
X155970000Y-138630000D01*
X156360000Y-137910000D01*
X156540000Y-137490000D01*
X156750000Y-136850000D01*
X156920000Y-136100000D01*
X156990000Y-135640000D01*
X157020000Y-134920000D01*
X160000000Y-134920000D01*
X160000000Y-134990000D01*
D11*
X150109286Y-141979999D02*
G75*
G03*
X157010000Y-134980000I-99999J6999999D01*
G01*
D10*
X150000000Y-144980000D02*
G75*
G03*
X160000000Y-134980000I0J10000000D01*
G01*
X160000000Y-61719939D02*
G75*
G03*
X150039889Y-51725000I-9995000J0D01*
G01*
D11*
X156999999Y-61590714D02*
G75*
G03*
X150000000Y-54690000I-6999999J-99999D01*
G01*
D10*
X160000000Y-134900000D02*
X157000000Y-134910000D01*
X157000000Y-134910000D02*
X157000000Y-61750000D01*
X157000000Y-61750000D02*
X160000000Y-61750000D01*
X160000000Y-61750000D02*
X160000000Y-134900000D01*
G36*
X160000000Y-134900000D02*
G01*
X157000000Y-134910000D01*
X157000000Y-61750000D01*
X160000000Y-61750000D01*
X160000000Y-134900000D01*
G37*
X160000000Y-134900000D02*
X157000000Y-134910000D01*
X157000000Y-61750000D01*
X160000000Y-61750000D01*
X160000000Y-134900000D01*
D12*
X125150000Y-98475000D02*
G75*
G03*
X125150000Y-98475000I-8650000J0D01*
G01*
D10*
X150025000Y-54700000D02*
X89780000Y-54740000D01*
X89780000Y-54740000D02*
X89994939Y-51725000D01*
X89994939Y-51725000D02*
X150025000Y-51725000D01*
X150025000Y-51725000D02*
X150025000Y-54700000D01*
G36*
X150025000Y-54700000D02*
G01*
X89780000Y-54740000D01*
X89994939Y-51725000D01*
X150025000Y-51725000D01*
X150025000Y-54700000D01*
G37*
X150025000Y-54700000D02*
X89780000Y-54740000D01*
X89994939Y-51725000D01*
X150025000Y-51725000D01*
X150025000Y-54700000D01*
X150000000Y-144980000D02*
X89975000Y-144975000D01*
X89975000Y-144975000D02*
X90000000Y-142010000D01*
X90000000Y-142010000D02*
X150109286Y-141970000D01*
X150109286Y-141970000D02*
X150000000Y-144980000D01*
G36*
X150000000Y-144980000D02*
G01*
X89975000Y-144975000D01*
X90000000Y-142010000D01*
X150109286Y-141970000D01*
X150000000Y-144980000D01*
G37*
X150000000Y-144980000D02*
X89975000Y-144975000D01*
X90000000Y-142010000D01*
X150109286Y-141970000D01*
X150000000Y-144980000D01*
D13*
%TO.C,D6*%
X99536904Y-103782380D02*
X99536904Y-102782380D01*
X99775000Y-102782380D01*
X99917857Y-102830000D01*
X100013095Y-102925238D01*
X100060714Y-103020476D01*
X100108333Y-103210952D01*
X100108333Y-103353809D01*
X100060714Y-103544285D01*
X100013095Y-103639523D01*
X99917857Y-103734761D01*
X99775000Y-103782380D01*
X99536904Y-103782380D01*
X100965476Y-102782380D02*
X100775000Y-102782380D01*
X100679761Y-102830000D01*
X100632142Y-102877619D01*
X100536904Y-103020476D01*
X100489285Y-103210952D01*
X100489285Y-103591904D01*
X100536904Y-103687142D01*
X100584523Y-103734761D01*
X100679761Y-103782380D01*
X100870238Y-103782380D01*
X100965476Y-103734761D01*
X101013095Y-103687142D01*
X101060714Y-103591904D01*
X101060714Y-103353809D01*
X101013095Y-103258571D01*
X100965476Y-103210952D01*
X100870238Y-103163333D01*
X100679761Y-103163333D01*
X100584523Y-103210952D01*
X100536904Y-103258571D01*
X100489285Y-103353809D01*
%TO.C,JP1*%
X129766666Y-56752380D02*
X129766666Y-57466666D01*
X129719047Y-57609523D01*
X129623809Y-57704761D01*
X129480952Y-57752380D01*
X129385714Y-57752380D01*
X130242857Y-57752380D02*
X130242857Y-56752380D01*
X130623809Y-56752380D01*
X130719047Y-56800000D01*
X130766666Y-56847619D01*
X130814285Y-56942857D01*
X130814285Y-57085714D01*
X130766666Y-57180952D01*
X130719047Y-57228571D01*
X130623809Y-57276190D01*
X130242857Y-57276190D01*
X131766666Y-57752380D02*
X131195238Y-57752380D01*
X131480952Y-57752380D02*
X131480952Y-56752380D01*
X131385714Y-56895238D01*
X131290476Y-56990476D01*
X131195238Y-57038095D01*
%TO.C,C34*%
X110497969Y-59307106D02*
X110497969Y-59374450D01*
X110430625Y-59509137D01*
X110363282Y-59576480D01*
X110228595Y-59643824D01*
X110093908Y-59643824D01*
X109992893Y-59610152D01*
X109824534Y-59509137D01*
X109723519Y-59408122D01*
X109622503Y-59239763D01*
X109588832Y-59138748D01*
X109588832Y-59004061D01*
X109656175Y-58869374D01*
X109723519Y-58802030D01*
X109858206Y-58734687D01*
X109925549Y-58734687D01*
X110093908Y-58431641D02*
X110531641Y-57993908D01*
X110565312Y-58498984D01*
X110666328Y-58397969D01*
X110767343Y-58364297D01*
X110834687Y-58364297D01*
X110935702Y-58397969D01*
X111104061Y-58566328D01*
X111137732Y-58667343D01*
X111137732Y-58734687D01*
X111104061Y-58835702D01*
X110902030Y-59037732D01*
X110801015Y-59071404D01*
X110733671Y-59071404D01*
X111373435Y-57623519D02*
X111844839Y-58094923D01*
X110935702Y-57522503D02*
X111272419Y-58195938D01*
X111710152Y-57758206D01*
%TO.C,J2*%
X136756666Y-68452380D02*
X136756666Y-69166666D01*
X136709047Y-69309523D01*
X136613809Y-69404761D01*
X136470952Y-69452380D01*
X136375714Y-69452380D01*
X137185238Y-68547619D02*
X137232857Y-68500000D01*
X137328095Y-68452380D01*
X137566190Y-68452380D01*
X137661428Y-68500000D01*
X137709047Y-68547619D01*
X137756666Y-68642857D01*
X137756666Y-68738095D01*
X137709047Y-68880952D01*
X137137619Y-69452380D01*
X137756666Y-69452380D01*
%TO.C,Y3*%
X108069749Y-63904354D02*
X108406697Y-64241302D01*
X107463242Y-63769575D02*
X108069749Y-63904354D01*
X107934970Y-63297848D01*
X108103444Y-63129373D02*
X108541476Y-62691341D01*
X108575171Y-63196763D01*
X108676256Y-63095679D01*
X108777340Y-63061984D01*
X108844730Y-63061984D01*
X108945814Y-63095679D01*
X109114288Y-63264153D01*
X109147983Y-63365237D01*
X109147983Y-63432627D01*
X109114288Y-63533711D01*
X108912119Y-63735880D01*
X108811035Y-63769575D01*
X108743645Y-63769575D01*
%TO.C,Y2*%
X144776174Y-88876516D02*
X145252690Y-88876516D01*
X144252005Y-89210078D02*
X144776174Y-88876516D01*
X144252005Y-88542955D01*
X144347309Y-88257045D02*
X144299657Y-88209393D01*
X144252005Y-88114090D01*
X144252005Y-87875831D01*
X144299657Y-87780528D01*
X144347309Y-87732876D01*
X144442612Y-87685225D01*
X144537915Y-87685225D01*
X144680870Y-87732876D01*
X145252690Y-88304696D01*
X145252690Y-87685225D01*
%TO.C,Y1*%
X129476174Y-88976516D02*
X129952690Y-88976516D01*
X128952005Y-89310078D02*
X129476174Y-88976516D01*
X128952005Y-88642955D01*
X129952690Y-87785225D02*
X129952690Y-88357045D01*
X129952690Y-88071135D02*
X128952005Y-88071135D01*
X129094960Y-88166438D01*
X129190264Y-88261741D01*
X129237915Y-88357045D01*
%TO.C,R10*%
X102977142Y-96982380D02*
X102643809Y-96506190D01*
X102405714Y-96982380D02*
X102405714Y-95982380D01*
X102786666Y-95982380D01*
X102881904Y-96030000D01*
X102929523Y-96077619D01*
X102977142Y-96172857D01*
X102977142Y-96315714D01*
X102929523Y-96410952D01*
X102881904Y-96458571D01*
X102786666Y-96506190D01*
X102405714Y-96506190D01*
X103929523Y-96982380D02*
X103358095Y-96982380D01*
X103643809Y-96982380D02*
X103643809Y-95982380D01*
X103548571Y-96125238D01*
X103453333Y-96220476D01*
X103358095Y-96268095D01*
X104548571Y-95982380D02*
X104643809Y-95982380D01*
X104739047Y-96030000D01*
X104786666Y-96077619D01*
X104834285Y-96172857D01*
X104881904Y-96363333D01*
X104881904Y-96601428D01*
X104834285Y-96791904D01*
X104786666Y-96887142D01*
X104739047Y-96934761D01*
X104643809Y-96982380D01*
X104548571Y-96982380D01*
X104453333Y-96934761D01*
X104405714Y-96887142D01*
X104358095Y-96791904D01*
X104310476Y-96601428D01*
X104310476Y-96363333D01*
X104358095Y-96172857D01*
X104405714Y-96077619D01*
X104453333Y-96030000D01*
X104548571Y-95982380D01*
%TO.C,R9*%
X103453333Y-98682380D02*
X103120000Y-98206190D01*
X102881904Y-98682380D02*
X102881904Y-97682380D01*
X103262857Y-97682380D01*
X103358095Y-97730000D01*
X103405714Y-97777619D01*
X103453333Y-97872857D01*
X103453333Y-98015714D01*
X103405714Y-98110952D01*
X103358095Y-98158571D01*
X103262857Y-98206190D01*
X102881904Y-98206190D01*
X103929523Y-98682380D02*
X104120000Y-98682380D01*
X104215238Y-98634761D01*
X104262857Y-98587142D01*
X104358095Y-98444285D01*
X104405714Y-98253809D01*
X104405714Y-97872857D01*
X104358095Y-97777619D01*
X104310476Y-97730000D01*
X104215238Y-97682380D01*
X104024761Y-97682380D01*
X103929523Y-97730000D01*
X103881904Y-97777619D01*
X103834285Y-97872857D01*
X103834285Y-98110952D01*
X103881904Y-98206190D01*
X103929523Y-98253809D01*
X104024761Y-98301428D01*
X104215238Y-98301428D01*
X104310476Y-98253809D01*
X104358095Y-98206190D01*
X104405714Y-98110952D01*
%TO.C,R8*%
X103453333Y-100382380D02*
X103120000Y-99906190D01*
X102881904Y-100382380D02*
X102881904Y-99382380D01*
X103262857Y-99382380D01*
X103358095Y-99430000D01*
X103405714Y-99477619D01*
X103453333Y-99572857D01*
X103453333Y-99715714D01*
X103405714Y-99810952D01*
X103358095Y-99858571D01*
X103262857Y-99906190D01*
X102881904Y-99906190D01*
X104024761Y-99810952D02*
X103929523Y-99763333D01*
X103881904Y-99715714D01*
X103834285Y-99620476D01*
X103834285Y-99572857D01*
X103881904Y-99477619D01*
X103929523Y-99430000D01*
X104024761Y-99382380D01*
X104215238Y-99382380D01*
X104310476Y-99430000D01*
X104358095Y-99477619D01*
X104405714Y-99572857D01*
X104405714Y-99620476D01*
X104358095Y-99715714D01*
X104310476Y-99763333D01*
X104215238Y-99810952D01*
X104024761Y-99810952D01*
X103929523Y-99858571D01*
X103881904Y-99906190D01*
X103834285Y-100001428D01*
X103834285Y-100191904D01*
X103881904Y-100287142D01*
X103929523Y-100334761D01*
X104024761Y-100382380D01*
X104215238Y-100382380D01*
X104310476Y-100334761D01*
X104358095Y-100287142D01*
X104405714Y-100191904D01*
X104405714Y-100001428D01*
X104358095Y-99906190D01*
X104310476Y-99858571D01*
X104215238Y-99810952D01*
%TO.C,R7*%
X103453333Y-102082380D02*
X103120000Y-101606190D01*
X102881904Y-102082380D02*
X102881904Y-101082380D01*
X103262857Y-101082380D01*
X103358095Y-101130000D01*
X103405714Y-101177619D01*
X103453333Y-101272857D01*
X103453333Y-101415714D01*
X103405714Y-101510952D01*
X103358095Y-101558571D01*
X103262857Y-101606190D01*
X102881904Y-101606190D01*
X103786666Y-101082380D02*
X104453333Y-101082380D01*
X104024761Y-102082380D01*
%TO.C,R6*%
X103453333Y-103782380D02*
X103120000Y-103306190D01*
X102881904Y-103782380D02*
X102881904Y-102782380D01*
X103262857Y-102782380D01*
X103358095Y-102830000D01*
X103405714Y-102877619D01*
X103453333Y-102972857D01*
X103453333Y-103115714D01*
X103405714Y-103210952D01*
X103358095Y-103258571D01*
X103262857Y-103306190D01*
X102881904Y-103306190D01*
X104310476Y-102782380D02*
X104120000Y-102782380D01*
X104024761Y-102830000D01*
X103977142Y-102877619D01*
X103881904Y-103020476D01*
X103834285Y-103210952D01*
X103834285Y-103591904D01*
X103881904Y-103687142D01*
X103929523Y-103734761D01*
X104024761Y-103782380D01*
X104215238Y-103782380D01*
X104310476Y-103734761D01*
X104358095Y-103687142D01*
X104405714Y-103591904D01*
X104405714Y-103353809D01*
X104358095Y-103258571D01*
X104310476Y-103210952D01*
X104215238Y-103163333D01*
X104024761Y-103163333D01*
X103929523Y-103210952D01*
X103881904Y-103258571D01*
X103834285Y-103353809D01*
%TO.C,D5*%
X99531904Y-102082380D02*
X99531904Y-101082380D01*
X99770000Y-101082380D01*
X99912857Y-101130000D01*
X100008095Y-101225238D01*
X100055714Y-101320476D01*
X100103333Y-101510952D01*
X100103333Y-101653809D01*
X100055714Y-101844285D01*
X100008095Y-101939523D01*
X99912857Y-102034761D01*
X99770000Y-102082380D01*
X99531904Y-102082380D01*
X101008095Y-101082380D02*
X100531904Y-101082380D01*
X100484285Y-101558571D01*
X100531904Y-101510952D01*
X100627142Y-101463333D01*
X100865238Y-101463333D01*
X100960476Y-101510952D01*
X101008095Y-101558571D01*
X101055714Y-101653809D01*
X101055714Y-101891904D01*
X101008095Y-101987142D01*
X100960476Y-102034761D01*
X100865238Y-102082380D01*
X100627142Y-102082380D01*
X100531904Y-102034761D01*
X100484285Y-101987142D01*
%TO.C,D4*%
X99531904Y-100382380D02*
X99531904Y-99382380D01*
X99770000Y-99382380D01*
X99912857Y-99430000D01*
X100008095Y-99525238D01*
X100055714Y-99620476D01*
X100103333Y-99810952D01*
X100103333Y-99953809D01*
X100055714Y-100144285D01*
X100008095Y-100239523D01*
X99912857Y-100334761D01*
X99770000Y-100382380D01*
X99531904Y-100382380D01*
X100960476Y-99715714D02*
X100960476Y-100382380D01*
X100722380Y-99334761D02*
X100484285Y-100049047D01*
X101103333Y-100049047D01*
%TO.C,D3*%
X99531904Y-98682380D02*
X99531904Y-97682380D01*
X99770000Y-97682380D01*
X99912857Y-97730000D01*
X100008095Y-97825238D01*
X100055714Y-97920476D01*
X100103333Y-98110952D01*
X100103333Y-98253809D01*
X100055714Y-98444285D01*
X100008095Y-98539523D01*
X99912857Y-98634761D01*
X99770000Y-98682380D01*
X99531904Y-98682380D01*
X100436666Y-97682380D02*
X101055714Y-97682380D01*
X100722380Y-98063333D01*
X100865238Y-98063333D01*
X100960476Y-98110952D01*
X101008095Y-98158571D01*
X101055714Y-98253809D01*
X101055714Y-98491904D01*
X101008095Y-98587142D01*
X100960476Y-98634761D01*
X100865238Y-98682380D01*
X100579523Y-98682380D01*
X100484285Y-98634761D01*
X100436666Y-98587142D01*
%TO.C,D2*%
X99531904Y-96982380D02*
X99531904Y-95982380D01*
X99770000Y-95982380D01*
X99912857Y-96030000D01*
X100008095Y-96125238D01*
X100055714Y-96220476D01*
X100103333Y-96410952D01*
X100103333Y-96553809D01*
X100055714Y-96744285D01*
X100008095Y-96839523D01*
X99912857Y-96934761D01*
X99770000Y-96982380D01*
X99531904Y-96982380D01*
X100484285Y-96077619D02*
X100531904Y-96030000D01*
X100627142Y-95982380D01*
X100865238Y-95982380D01*
X100960476Y-96030000D01*
X101008095Y-96077619D01*
X101055714Y-96172857D01*
X101055714Y-96268095D01*
X101008095Y-96410952D01*
X100436666Y-96982380D01*
X101055714Y-96982380D01*
%TO.C,C19*%
X156657142Y-93042857D02*
X156704761Y-93090476D01*
X156752380Y-93233333D01*
X156752380Y-93328571D01*
X156704761Y-93471428D01*
X156609523Y-93566666D01*
X156514285Y-93614285D01*
X156323809Y-93661904D01*
X156180952Y-93661904D01*
X155990476Y-93614285D01*
X155895238Y-93566666D01*
X155800000Y-93471428D01*
X155752380Y-93328571D01*
X155752380Y-93233333D01*
X155800000Y-93090476D01*
X155847619Y-93042857D01*
X156752380Y-92090476D02*
X156752380Y-92661904D01*
X156752380Y-92376190D02*
X155752380Y-92376190D01*
X155895238Y-92471428D01*
X155990476Y-92566666D01*
X156038095Y-92661904D01*
X156752380Y-91614285D02*
X156752380Y-91423809D01*
X156704761Y-91328571D01*
X156657142Y-91280952D01*
X156514285Y-91185714D01*
X156323809Y-91138095D01*
X155942857Y-91138095D01*
X155847619Y-91185714D01*
X155800000Y-91233333D01*
X155752380Y-91328571D01*
X155752380Y-91519047D01*
X155800000Y-91614285D01*
X155847619Y-91661904D01*
X155942857Y-91709523D01*
X156180952Y-91709523D01*
X156276190Y-91661904D01*
X156323809Y-91614285D01*
X156371428Y-91519047D01*
X156371428Y-91328571D01*
X156323809Y-91233333D01*
X156276190Y-91185714D01*
X156180952Y-91138095D01*
%TO.C,C17*%
X156657142Y-90342857D02*
X156704761Y-90390476D01*
X156752380Y-90533333D01*
X156752380Y-90628571D01*
X156704761Y-90771428D01*
X156609523Y-90866666D01*
X156514285Y-90914285D01*
X156323809Y-90961904D01*
X156180952Y-90961904D01*
X155990476Y-90914285D01*
X155895238Y-90866666D01*
X155800000Y-90771428D01*
X155752380Y-90628571D01*
X155752380Y-90533333D01*
X155800000Y-90390476D01*
X155847619Y-90342857D01*
X156752380Y-89390476D02*
X156752380Y-89961904D01*
X156752380Y-89676190D02*
X155752380Y-89676190D01*
X155895238Y-89771428D01*
X155990476Y-89866666D01*
X156038095Y-89961904D01*
X155752380Y-89057142D02*
X155752380Y-88390476D01*
X156752380Y-88819047D01*
%TO.C,C15*%
X156657142Y-87642857D02*
X156704761Y-87690476D01*
X156752380Y-87833333D01*
X156752380Y-87928571D01*
X156704761Y-88071428D01*
X156609523Y-88166666D01*
X156514285Y-88214285D01*
X156323809Y-88261904D01*
X156180952Y-88261904D01*
X155990476Y-88214285D01*
X155895238Y-88166666D01*
X155800000Y-88071428D01*
X155752380Y-87928571D01*
X155752380Y-87833333D01*
X155800000Y-87690476D01*
X155847619Y-87642857D01*
X156752380Y-86690476D02*
X156752380Y-87261904D01*
X156752380Y-86976190D02*
X155752380Y-86976190D01*
X155895238Y-87071428D01*
X155990476Y-87166666D01*
X156038095Y-87261904D01*
X155752380Y-85785714D02*
X155752380Y-86261904D01*
X156228571Y-86309523D01*
X156180952Y-86261904D01*
X156133333Y-86166666D01*
X156133333Y-85928571D01*
X156180952Y-85833333D01*
X156228571Y-85785714D01*
X156323809Y-85738095D01*
X156561904Y-85738095D01*
X156657142Y-85785714D01*
X156704761Y-85833333D01*
X156752380Y-85928571D01*
X156752380Y-86166666D01*
X156704761Y-86261904D01*
X156657142Y-86309523D01*
%TO.C,C5*%
X136657142Y-91966666D02*
X136704761Y-92014285D01*
X136752380Y-92157142D01*
X136752380Y-92252380D01*
X136704761Y-92395238D01*
X136609523Y-92490476D01*
X136514285Y-92538095D01*
X136323809Y-92585714D01*
X136180952Y-92585714D01*
X135990476Y-92538095D01*
X135895238Y-92490476D01*
X135800000Y-92395238D01*
X135752380Y-92252380D01*
X135752380Y-92157142D01*
X135800000Y-92014285D01*
X135847619Y-91966666D01*
X135752380Y-91061904D02*
X135752380Y-91538095D01*
X136228571Y-91585714D01*
X136180952Y-91538095D01*
X136133333Y-91442857D01*
X136133333Y-91204761D01*
X136180952Y-91109523D01*
X136228571Y-91061904D01*
X136323809Y-91014285D01*
X136561904Y-91014285D01*
X136657142Y-91061904D01*
X136704761Y-91109523D01*
X136752380Y-91204761D01*
X136752380Y-91442857D01*
X136704761Y-91538095D01*
X136657142Y-91585714D01*
%TO.C,C3*%
X137457142Y-84566666D02*
X137504761Y-84614285D01*
X137552380Y-84757142D01*
X137552380Y-84852380D01*
X137504761Y-84995238D01*
X137409523Y-85090476D01*
X137314285Y-85138095D01*
X137123809Y-85185714D01*
X136980952Y-85185714D01*
X136790476Y-85138095D01*
X136695238Y-85090476D01*
X136600000Y-84995238D01*
X136552380Y-84852380D01*
X136552380Y-84757142D01*
X136600000Y-84614285D01*
X136647619Y-84566666D01*
X136552380Y-84233333D02*
X136552380Y-83614285D01*
X136933333Y-83947619D01*
X136933333Y-83804761D01*
X136980952Y-83709523D01*
X137028571Y-83661904D01*
X137123809Y-83614285D01*
X137361904Y-83614285D01*
X137457142Y-83661904D01*
X137504761Y-83709523D01*
X137552380Y-83804761D01*
X137552380Y-84090476D01*
X137504761Y-84185714D01*
X137457142Y-84233333D01*
%TO.C,C1*%
X137857142Y-82766666D02*
X137904761Y-82814285D01*
X137952380Y-82957142D01*
X137952380Y-83052380D01*
X137904761Y-83195238D01*
X137809523Y-83290476D01*
X137714285Y-83338095D01*
X137523809Y-83385714D01*
X137380952Y-83385714D01*
X137190476Y-83338095D01*
X137095238Y-83290476D01*
X137000000Y-83195238D01*
X136952380Y-83052380D01*
X136952380Y-82957142D01*
X137000000Y-82814285D01*
X137047619Y-82766666D01*
X137952380Y-81814285D02*
X137952380Y-82385714D01*
X137952380Y-82100000D02*
X136952380Y-82100000D01*
X137095238Y-82195238D01*
X137190476Y-82290476D01*
X137238095Y-82385714D01*
%TO.C,R1*%
X156652380Y-110566666D02*
X156176190Y-110900000D01*
X156652380Y-111138095D02*
X155652380Y-111138095D01*
X155652380Y-110757142D01*
X155700000Y-110661904D01*
X155747619Y-110614285D01*
X155842857Y-110566666D01*
X155985714Y-110566666D01*
X156080952Y-110614285D01*
X156128571Y-110661904D01*
X156176190Y-110757142D01*
X156176190Y-111138095D01*
X156652380Y-109614285D02*
X156652380Y-110185714D01*
X156652380Y-109900000D02*
X155652380Y-109900000D01*
X155795238Y-109995238D01*
X155890476Y-110090476D01*
X155938095Y-110185714D01*
%TO.C,C12*%
X156257142Y-108457142D02*
X156209523Y-108504761D01*
X156066666Y-108552380D01*
X155971428Y-108552380D01*
X155828571Y-108504761D01*
X155733333Y-108409523D01*
X155685714Y-108314285D01*
X155638095Y-108123809D01*
X155638095Y-107980952D01*
X155685714Y-107790476D01*
X155733333Y-107695238D01*
X155828571Y-107600000D01*
X155971428Y-107552380D01*
X156066666Y-107552380D01*
X156209523Y-107600000D01*
X156257142Y-107647619D01*
X157209523Y-108552380D02*
X156638095Y-108552380D01*
X156923809Y-108552380D02*
X156923809Y-107552380D01*
X156828571Y-107695238D01*
X156733333Y-107790476D01*
X156638095Y-107838095D01*
X157590476Y-107647619D02*
X157638095Y-107600000D01*
X157733333Y-107552380D01*
X157971428Y-107552380D01*
X158066666Y-107600000D01*
X158114285Y-107647619D01*
X158161904Y-107742857D01*
X158161904Y-107838095D01*
X158114285Y-107980952D01*
X157542857Y-108552380D01*
X158161904Y-108552380D01*
%TO.C,C11*%
X142357142Y-107557142D02*
X142309523Y-107604761D01*
X142166666Y-107652380D01*
X142071428Y-107652380D01*
X141928571Y-107604761D01*
X141833333Y-107509523D01*
X141785714Y-107414285D01*
X141738095Y-107223809D01*
X141738095Y-107080952D01*
X141785714Y-106890476D01*
X141833333Y-106795238D01*
X141928571Y-106700000D01*
X142071428Y-106652380D01*
X142166666Y-106652380D01*
X142309523Y-106700000D01*
X142357142Y-106747619D01*
X143309523Y-107652380D02*
X142738095Y-107652380D01*
X143023809Y-107652380D02*
X143023809Y-106652380D01*
X142928571Y-106795238D01*
X142833333Y-106890476D01*
X142738095Y-106938095D01*
X144261904Y-107652380D02*
X143690476Y-107652380D01*
X143976190Y-107652380D02*
X143976190Y-106652380D01*
X143880952Y-106795238D01*
X143785714Y-106890476D01*
X143690476Y-106938095D01*
%TO.C,L11*%
X145552380Y-107042857D02*
X145552380Y-107519047D01*
X144552380Y-107519047D01*
X145552380Y-106185714D02*
X145552380Y-106757142D01*
X145552380Y-106471428D02*
X144552380Y-106471428D01*
X144695238Y-106566666D01*
X144790476Y-106661904D01*
X144838095Y-106757142D01*
X145552380Y-105233333D02*
X145552380Y-105804761D01*
X145552380Y-105519047D02*
X144552380Y-105519047D01*
X144695238Y-105614285D01*
X144790476Y-105709523D01*
X144838095Y-105804761D01*
%TO.C,L10*%
X145552380Y-104542857D02*
X145552380Y-105019047D01*
X144552380Y-105019047D01*
X145552380Y-103685714D02*
X145552380Y-104257142D01*
X145552380Y-103971428D02*
X144552380Y-103971428D01*
X144695238Y-104066666D01*
X144790476Y-104161904D01*
X144838095Y-104257142D01*
X144552380Y-103066666D02*
X144552380Y-102971428D01*
X144600000Y-102876190D01*
X144647619Y-102828571D01*
X144742857Y-102780952D01*
X144933333Y-102733333D01*
X145171428Y-102733333D01*
X145361904Y-102780952D01*
X145457142Y-102828571D01*
X145504761Y-102876190D01*
X145552380Y-102971428D01*
X145552380Y-103066666D01*
X145504761Y-103161904D01*
X145457142Y-103209523D01*
X145361904Y-103257142D01*
X145171428Y-103304761D01*
X144933333Y-103304761D01*
X144742857Y-103257142D01*
X144647619Y-103209523D01*
X144600000Y-103161904D01*
X144552380Y-103066666D01*
%TO.C,L9*%
X145552380Y-101966666D02*
X145552380Y-102442857D01*
X144552380Y-102442857D01*
X145552380Y-101585714D02*
X145552380Y-101395238D01*
X145504761Y-101300000D01*
X145457142Y-101252380D01*
X145314285Y-101157142D01*
X145123809Y-101109523D01*
X144742857Y-101109523D01*
X144647619Y-101157142D01*
X144600000Y-101204761D01*
X144552380Y-101300000D01*
X144552380Y-101490476D01*
X144600000Y-101585714D01*
X144647619Y-101633333D01*
X144742857Y-101680952D01*
X144980952Y-101680952D01*
X145076190Y-101633333D01*
X145123809Y-101585714D01*
X145171428Y-101490476D01*
X145171428Y-101300000D01*
X145123809Y-101204761D01*
X145076190Y-101157142D01*
X144980952Y-101109523D01*
%TO.C,L8*%
X144933333Y-98052380D02*
X144457142Y-98052380D01*
X144457142Y-97052380D01*
X145409523Y-97480952D02*
X145314285Y-97433333D01*
X145266666Y-97385714D01*
X145219047Y-97290476D01*
X145219047Y-97242857D01*
X145266666Y-97147619D01*
X145314285Y-97100000D01*
X145409523Y-97052380D01*
X145600000Y-97052380D01*
X145695238Y-97100000D01*
X145742857Y-97147619D01*
X145790476Y-97242857D01*
X145790476Y-97290476D01*
X145742857Y-97385714D01*
X145695238Y-97433333D01*
X145600000Y-97480952D01*
X145409523Y-97480952D01*
X145314285Y-97528571D01*
X145266666Y-97576190D01*
X145219047Y-97671428D01*
X145219047Y-97861904D01*
X145266666Y-97957142D01*
X145314285Y-98004761D01*
X145409523Y-98052380D01*
X145600000Y-98052380D01*
X145695238Y-98004761D01*
X145742857Y-97957142D01*
X145790476Y-97861904D01*
X145790476Y-97671428D01*
X145742857Y-97576190D01*
X145695238Y-97528571D01*
X145600000Y-97480952D01*
%TO.C,L7*%
X156752380Y-96866666D02*
X156752380Y-97342857D01*
X155752380Y-97342857D01*
X155752380Y-96628571D02*
X155752380Y-95961904D01*
X156752380Y-96390476D01*
%TO.C,L6*%
X156233333Y-94952380D02*
X155757142Y-94952380D01*
X155757142Y-93952380D01*
X156995238Y-93952380D02*
X156804761Y-93952380D01*
X156709523Y-94000000D01*
X156661904Y-94047619D01*
X156566666Y-94190476D01*
X156519047Y-94380952D01*
X156519047Y-94761904D01*
X156566666Y-94857142D01*
X156614285Y-94904761D01*
X156709523Y-94952380D01*
X156900000Y-94952380D01*
X156995238Y-94904761D01*
X157042857Y-94857142D01*
X157090476Y-94761904D01*
X157090476Y-94523809D01*
X157042857Y-94428571D01*
X156995238Y-94380952D01*
X156900000Y-94333333D01*
X156709523Y-94333333D01*
X156614285Y-94380952D01*
X156566666Y-94428571D01*
X156519047Y-94523809D01*
%TO.C,L5*%
X157852380Y-110566666D02*
X157852380Y-111042857D01*
X156852380Y-111042857D01*
X156852380Y-109757142D02*
X156852380Y-110233333D01*
X157328571Y-110280952D01*
X157280952Y-110233333D01*
X157233333Y-110138095D01*
X157233333Y-109900000D01*
X157280952Y-109804761D01*
X157328571Y-109757142D01*
X157423809Y-109709523D01*
X157661904Y-109709523D01*
X157757142Y-109757142D01*
X157804761Y-109804761D01*
X157852380Y-109900000D01*
X157852380Y-110138095D01*
X157804761Y-110233333D01*
X157757142Y-110280952D01*
%TO.C,L4*%
X156652380Y-106866666D02*
X156652380Y-107342857D01*
X155652380Y-107342857D01*
X155985714Y-106104761D02*
X156652380Y-106104761D01*
X155604761Y-106342857D02*
X156319047Y-106580952D01*
X156319047Y-105961904D01*
%TO.C,L3*%
X138952380Y-111366666D02*
X138952380Y-111842857D01*
X137952380Y-111842857D01*
X137952380Y-111128571D02*
X137952380Y-110509523D01*
X138333333Y-110842857D01*
X138333333Y-110700000D01*
X138380952Y-110604761D01*
X138428571Y-110557142D01*
X138523809Y-110509523D01*
X138761904Y-110509523D01*
X138857142Y-110557142D01*
X138904761Y-110604761D01*
X138952380Y-110700000D01*
X138952380Y-110985714D01*
X138904761Y-111080952D01*
X138857142Y-111128571D01*
%TO.C,L2*%
X138852380Y-96366666D02*
X138852380Y-96842857D01*
X137852380Y-96842857D01*
X137947619Y-96080952D02*
X137900000Y-96033333D01*
X137852380Y-95938095D01*
X137852380Y-95700000D01*
X137900000Y-95604761D01*
X137947619Y-95557142D01*
X138042857Y-95509523D01*
X138138095Y-95509523D01*
X138280952Y-95557142D01*
X138852380Y-96128571D01*
X138852380Y-95509523D01*
%TO.C,L1*%
X129033333Y-94952380D02*
X128557142Y-94952380D01*
X128557142Y-93952380D01*
X129890476Y-94952380D02*
X129319047Y-94952380D01*
X129604761Y-94952380D02*
X129604761Y-93952380D01*
X129509523Y-94095238D01*
X129414285Y-94190476D01*
X129319047Y-94238095D01*
%TO.C,C22*%
X142357142Y-104657142D02*
X142309523Y-104704761D01*
X142166666Y-104752380D01*
X142071428Y-104752380D01*
X141928571Y-104704761D01*
X141833333Y-104609523D01*
X141785714Y-104514285D01*
X141738095Y-104323809D01*
X141738095Y-104180952D01*
X141785714Y-103990476D01*
X141833333Y-103895238D01*
X141928571Y-103800000D01*
X142071428Y-103752380D01*
X142166666Y-103752380D01*
X142309523Y-103800000D01*
X142357142Y-103847619D01*
X142738095Y-103847619D02*
X142785714Y-103800000D01*
X142880952Y-103752380D01*
X143119047Y-103752380D01*
X143214285Y-103800000D01*
X143261904Y-103847619D01*
X143309523Y-103942857D01*
X143309523Y-104038095D01*
X143261904Y-104180952D01*
X142690476Y-104752380D01*
X143309523Y-104752380D01*
X143690476Y-103847619D02*
X143738095Y-103800000D01*
X143833333Y-103752380D01*
X144071428Y-103752380D01*
X144166666Y-103800000D01*
X144214285Y-103847619D01*
X144261904Y-103942857D01*
X144261904Y-104038095D01*
X144214285Y-104180952D01*
X143642857Y-104752380D01*
X144261904Y-104752380D01*
%TO.C,C21*%
X156257142Y-102757142D02*
X156209523Y-102804761D01*
X156066666Y-102852380D01*
X155971428Y-102852380D01*
X155828571Y-102804761D01*
X155733333Y-102709523D01*
X155685714Y-102614285D01*
X155638095Y-102423809D01*
X155638095Y-102280952D01*
X155685714Y-102090476D01*
X155733333Y-101995238D01*
X155828571Y-101900000D01*
X155971428Y-101852380D01*
X156066666Y-101852380D01*
X156209523Y-101900000D01*
X156257142Y-101947619D01*
X156638095Y-101947619D02*
X156685714Y-101900000D01*
X156780952Y-101852380D01*
X157019047Y-101852380D01*
X157114285Y-101900000D01*
X157161904Y-101947619D01*
X157209523Y-102042857D01*
X157209523Y-102138095D01*
X157161904Y-102280952D01*
X156590476Y-102852380D01*
X157209523Y-102852380D01*
X158161904Y-102852380D02*
X157590476Y-102852380D01*
X157876190Y-102852380D02*
X157876190Y-101852380D01*
X157780952Y-101995238D01*
X157685714Y-102090476D01*
X157590476Y-102138095D01*
%TO.C,C20*%
X144657142Y-96142857D02*
X144704761Y-96190476D01*
X144752380Y-96333333D01*
X144752380Y-96428571D01*
X144704761Y-96571428D01*
X144609523Y-96666666D01*
X144514285Y-96714285D01*
X144323809Y-96761904D01*
X144180952Y-96761904D01*
X143990476Y-96714285D01*
X143895238Y-96666666D01*
X143800000Y-96571428D01*
X143752380Y-96428571D01*
X143752380Y-96333333D01*
X143800000Y-96190476D01*
X143847619Y-96142857D01*
X143847619Y-95761904D02*
X143800000Y-95714285D01*
X143752380Y-95619047D01*
X143752380Y-95380952D01*
X143800000Y-95285714D01*
X143847619Y-95238095D01*
X143942857Y-95190476D01*
X144038095Y-95190476D01*
X144180952Y-95238095D01*
X144752380Y-95809523D01*
X144752380Y-95190476D01*
X143752380Y-94571428D02*
X143752380Y-94476190D01*
X143800000Y-94380952D01*
X143847619Y-94333333D01*
X143942857Y-94285714D01*
X144133333Y-94238095D01*
X144371428Y-94238095D01*
X144561904Y-94285714D01*
X144657142Y-94333333D01*
X144704761Y-94380952D01*
X144752380Y-94476190D01*
X144752380Y-94571428D01*
X144704761Y-94666666D01*
X144657142Y-94714285D01*
X144561904Y-94761904D01*
X144371428Y-94809523D01*
X144133333Y-94809523D01*
X143942857Y-94761904D01*
X143847619Y-94714285D01*
X143800000Y-94666666D01*
X143752380Y-94571428D01*
%TO.C,C10*%
X140057142Y-111342857D02*
X140104761Y-111390476D01*
X140152380Y-111533333D01*
X140152380Y-111628571D01*
X140104761Y-111771428D01*
X140009523Y-111866666D01*
X139914285Y-111914285D01*
X139723809Y-111961904D01*
X139580952Y-111961904D01*
X139390476Y-111914285D01*
X139295238Y-111866666D01*
X139200000Y-111771428D01*
X139152380Y-111628571D01*
X139152380Y-111533333D01*
X139200000Y-111390476D01*
X139247619Y-111342857D01*
X140152380Y-110390476D02*
X140152380Y-110961904D01*
X140152380Y-110676190D02*
X139152380Y-110676190D01*
X139295238Y-110771428D01*
X139390476Y-110866666D01*
X139438095Y-110961904D01*
X139152380Y-109771428D02*
X139152380Y-109676190D01*
X139200000Y-109580952D01*
X139247619Y-109533333D01*
X139342857Y-109485714D01*
X139533333Y-109438095D01*
X139771428Y-109438095D01*
X139961904Y-109485714D01*
X140057142Y-109533333D01*
X140104761Y-109580952D01*
X140152380Y-109676190D01*
X140152380Y-109771428D01*
X140104761Y-109866666D01*
X140057142Y-109914285D01*
X139961904Y-109961904D01*
X139771428Y-110009523D01*
X139533333Y-110009523D01*
X139342857Y-109961904D01*
X139247619Y-109914285D01*
X139200000Y-109866666D01*
X139152380Y-109771428D01*
%TO.C,C9*%
X129657142Y-110466666D02*
X129704761Y-110514285D01*
X129752380Y-110657142D01*
X129752380Y-110752380D01*
X129704761Y-110895238D01*
X129609523Y-110990476D01*
X129514285Y-111038095D01*
X129323809Y-111085714D01*
X129180952Y-111085714D01*
X128990476Y-111038095D01*
X128895238Y-110990476D01*
X128800000Y-110895238D01*
X128752380Y-110752380D01*
X128752380Y-110657142D01*
X128800000Y-110514285D01*
X128847619Y-110466666D01*
X129752380Y-109990476D02*
X129752380Y-109800000D01*
X129704761Y-109704761D01*
X129657142Y-109657142D01*
X129514285Y-109561904D01*
X129323809Y-109514285D01*
X128942857Y-109514285D01*
X128847619Y-109561904D01*
X128800000Y-109609523D01*
X128752380Y-109704761D01*
X128752380Y-109895238D01*
X128800000Y-109990476D01*
X128847619Y-110038095D01*
X128942857Y-110085714D01*
X129180952Y-110085714D01*
X129276190Y-110038095D01*
X129323809Y-109990476D01*
X129371428Y-109895238D01*
X129371428Y-109704761D01*
X129323809Y-109609523D01*
X129276190Y-109561904D01*
X129180952Y-109514285D01*
%TO.C,C8*%
X138757142Y-98266666D02*
X138804761Y-98314285D01*
X138852380Y-98457142D01*
X138852380Y-98552380D01*
X138804761Y-98695238D01*
X138709523Y-98790476D01*
X138614285Y-98838095D01*
X138423809Y-98885714D01*
X138280952Y-98885714D01*
X138090476Y-98838095D01*
X137995238Y-98790476D01*
X137900000Y-98695238D01*
X137852380Y-98552380D01*
X137852380Y-98457142D01*
X137900000Y-98314285D01*
X137947619Y-98266666D01*
X138280952Y-97695238D02*
X138233333Y-97790476D01*
X138185714Y-97838095D01*
X138090476Y-97885714D01*
X138042857Y-97885714D01*
X137947619Y-97838095D01*
X137900000Y-97790476D01*
X137852380Y-97695238D01*
X137852380Y-97504761D01*
X137900000Y-97409523D01*
X137947619Y-97361904D01*
X138042857Y-97314285D01*
X138090476Y-97314285D01*
X138185714Y-97361904D01*
X138233333Y-97409523D01*
X138280952Y-97504761D01*
X138280952Y-97695238D01*
X138328571Y-97790476D01*
X138376190Y-97838095D01*
X138471428Y-97885714D01*
X138661904Y-97885714D01*
X138757142Y-97838095D01*
X138804761Y-97790476D01*
X138852380Y-97695238D01*
X138852380Y-97504761D01*
X138804761Y-97409523D01*
X138757142Y-97361904D01*
X138661904Y-97314285D01*
X138471428Y-97314285D01*
X138376190Y-97361904D01*
X138328571Y-97409523D01*
X138280952Y-97504761D01*
%TO.C,C7*%
X129557142Y-96266666D02*
X129604761Y-96314285D01*
X129652380Y-96457142D01*
X129652380Y-96552380D01*
X129604761Y-96695238D01*
X129509523Y-96790476D01*
X129414285Y-96838095D01*
X129223809Y-96885714D01*
X129080952Y-96885714D01*
X128890476Y-96838095D01*
X128795238Y-96790476D01*
X128700000Y-96695238D01*
X128652380Y-96552380D01*
X128652380Y-96457142D01*
X128700000Y-96314285D01*
X128747619Y-96266666D01*
X128652380Y-95933333D02*
X128652380Y-95266666D01*
X129652380Y-95695238D01*
%TO.C,C6*%
X140057142Y-95066666D02*
X140104761Y-95114285D01*
X140152380Y-95257142D01*
X140152380Y-95352380D01*
X140104761Y-95495238D01*
X140009523Y-95590476D01*
X139914285Y-95638095D01*
X139723809Y-95685714D01*
X139580952Y-95685714D01*
X139390476Y-95638095D01*
X139295238Y-95590476D01*
X139200000Y-95495238D01*
X139152380Y-95352380D01*
X139152380Y-95257142D01*
X139200000Y-95114285D01*
X139247619Y-95066666D01*
X139152380Y-94209523D02*
X139152380Y-94400000D01*
X139200000Y-94495238D01*
X139247619Y-94542857D01*
X139390476Y-94638095D01*
X139580952Y-94685714D01*
X139961904Y-94685714D01*
X140057142Y-94638095D01*
X140104761Y-94590476D01*
X140152380Y-94495238D01*
X140152380Y-94304761D01*
X140104761Y-94209523D01*
X140057142Y-94161904D01*
X139961904Y-94114285D01*
X139723809Y-94114285D01*
X139628571Y-94161904D01*
X139580952Y-94209523D01*
X139533333Y-94304761D01*
X139533333Y-94495238D01*
X139580952Y-94590476D01*
X139628571Y-94638095D01*
X139723809Y-94685714D01*
%TO.C,U6*%
X148638095Y-85252380D02*
X148638095Y-86061904D01*
X148685714Y-86157142D01*
X148733333Y-86204761D01*
X148828571Y-86252380D01*
X149019047Y-86252380D01*
X149114285Y-86204761D01*
X149161904Y-86157142D01*
X149209523Y-86061904D01*
X149209523Y-85252380D01*
X150114285Y-85252380D02*
X149923809Y-85252380D01*
X149828571Y-85300000D01*
X149780952Y-85347619D01*
X149685714Y-85490476D01*
X149638095Y-85680952D01*
X149638095Y-86061904D01*
X149685714Y-86157142D01*
X149733333Y-86204761D01*
X149828571Y-86252380D01*
X150019047Y-86252380D01*
X150114285Y-86204761D01*
X150161904Y-86157142D01*
X150209523Y-86061904D01*
X150209523Y-85823809D01*
X150161904Y-85728571D01*
X150114285Y-85680952D01*
X150019047Y-85633333D01*
X149828571Y-85633333D01*
X149733333Y-85680952D01*
X149685714Y-85728571D01*
X149638095Y-85823809D01*
%TO.C,U4*%
X152002380Y-76721904D02*
X152811904Y-76721904D01*
X152907142Y-76674285D01*
X152954761Y-76626666D01*
X153002380Y-76531428D01*
X153002380Y-76340952D01*
X152954761Y-76245714D01*
X152907142Y-76198095D01*
X152811904Y-76150476D01*
X152002380Y-76150476D01*
X152335714Y-75245714D02*
X153002380Y-75245714D01*
X151954761Y-75483809D02*
X152669047Y-75721904D01*
X152669047Y-75102857D01*
%TO.C,U2*%
X144038095Y-109852380D02*
X144038095Y-110661904D01*
X144085714Y-110757142D01*
X144133333Y-110804761D01*
X144228571Y-110852380D01*
X144419047Y-110852380D01*
X144514285Y-110804761D01*
X144561904Y-110757142D01*
X144609523Y-110661904D01*
X144609523Y-109852380D01*
X145038095Y-109947619D02*
X145085714Y-109900000D01*
X145180952Y-109852380D01*
X145419047Y-109852380D01*
X145514285Y-109900000D01*
X145561904Y-109947619D01*
X145609523Y-110042857D01*
X145609523Y-110138095D01*
X145561904Y-110280952D01*
X144990476Y-110852380D01*
X145609523Y-110852380D01*
%TO.C,U1*%
X133438095Y-85252380D02*
X133438095Y-86061904D01*
X133485714Y-86157142D01*
X133533333Y-86204761D01*
X133628571Y-86252380D01*
X133819047Y-86252380D01*
X133914285Y-86204761D01*
X133961904Y-86157142D01*
X134009523Y-86061904D01*
X134009523Y-85252380D01*
X135009523Y-86252380D02*
X134438095Y-86252380D01*
X134723809Y-86252380D02*
X134723809Y-85252380D01*
X134628571Y-85395238D01*
X134533333Y-85490476D01*
X134438095Y-85538095D01*
%TO.C,R3*%
X151012380Y-80191665D02*
X150536190Y-80524999D01*
X151012380Y-80763094D02*
X150012380Y-80763094D01*
X150012380Y-80382141D01*
X150060000Y-80286903D01*
X150107619Y-80239284D01*
X150202857Y-80191665D01*
X150345714Y-80191665D01*
X150440952Y-80239284D01*
X150488571Y-80286903D01*
X150536190Y-80382141D01*
X150536190Y-80763094D01*
X150012380Y-79858332D02*
X150012380Y-79239284D01*
X150393333Y-79572618D01*
X150393333Y-79429760D01*
X150440952Y-79334522D01*
X150488571Y-79286903D01*
X150583809Y-79239284D01*
X150821904Y-79239284D01*
X150917142Y-79286903D01*
X150964761Y-79334522D01*
X151012380Y-79429760D01*
X151012380Y-79715475D01*
X150964761Y-79810713D01*
X150917142Y-79858332D01*
%TO.C,R2*%
X151012380Y-76561667D02*
X150536190Y-76895001D01*
X151012380Y-77133096D02*
X150012380Y-77133096D01*
X150012380Y-76752143D01*
X150060000Y-76656905D01*
X150107619Y-76609286D01*
X150202857Y-76561667D01*
X150345714Y-76561667D01*
X150440952Y-76609286D01*
X150488571Y-76656905D01*
X150536190Y-76752143D01*
X150536190Y-77133096D01*
X150107619Y-76180715D02*
X150060000Y-76133096D01*
X150012380Y-76037858D01*
X150012380Y-75799762D01*
X150060000Y-75704524D01*
X150107619Y-75656905D01*
X150202857Y-75609286D01*
X150298095Y-75609286D01*
X150440952Y-75656905D01*
X151012380Y-76228334D01*
X151012380Y-75609286D01*
%TO.C,FB1*%
X148898571Y-72303333D02*
X148898571Y-72636666D01*
X149422380Y-72636666D02*
X148422380Y-72636666D01*
X148422380Y-72160476D01*
X148898571Y-71446190D02*
X148946190Y-71303333D01*
X148993809Y-71255714D01*
X149089047Y-71208095D01*
X149231904Y-71208095D01*
X149327142Y-71255714D01*
X149374761Y-71303333D01*
X149422380Y-71398571D01*
X149422380Y-71779523D01*
X148422380Y-71779523D01*
X148422380Y-71446190D01*
X148470000Y-71350952D01*
X148517619Y-71303333D01*
X148612857Y-71255714D01*
X148708095Y-71255714D01*
X148803333Y-71303333D01*
X148850952Y-71350952D01*
X148898571Y-71446190D01*
X148898571Y-71779523D01*
X149422380Y-70255714D02*
X149422380Y-70827142D01*
X149422380Y-70541428D02*
X148422380Y-70541428D01*
X148565238Y-70636666D01*
X148660476Y-70731904D01*
X148708095Y-70827142D01*
%TO.C,D1*%
X150622380Y-72208095D02*
X149622380Y-72208095D01*
X149622380Y-71970000D01*
X149670000Y-71827142D01*
X149765238Y-71731904D01*
X149860476Y-71684285D01*
X150050952Y-71636666D01*
X150193809Y-71636666D01*
X150384285Y-71684285D01*
X150479523Y-71731904D01*
X150574761Y-71827142D01*
X150622380Y-71970000D01*
X150622380Y-72208095D01*
X150622380Y-70684285D02*
X150622380Y-71255714D01*
X150622380Y-70970000D02*
X149622380Y-70970000D01*
X149765238Y-71065238D01*
X149860476Y-71160476D01*
X149908095Y-71255714D01*
%TO.C,C18*%
X146627142Y-87462857D02*
X146674761Y-87510476D01*
X146722380Y-87653333D01*
X146722380Y-87748571D01*
X146674761Y-87891428D01*
X146579523Y-87986666D01*
X146484285Y-88034285D01*
X146293809Y-88081904D01*
X146150952Y-88081904D01*
X145960476Y-88034285D01*
X145865238Y-87986666D01*
X145770000Y-87891428D01*
X145722380Y-87748571D01*
X145722380Y-87653333D01*
X145770000Y-87510476D01*
X145817619Y-87462857D01*
X146722380Y-86510476D02*
X146722380Y-87081904D01*
X146722380Y-86796190D02*
X145722380Y-86796190D01*
X145865238Y-86891428D01*
X145960476Y-86986666D01*
X146008095Y-87081904D01*
X146150952Y-85939047D02*
X146103333Y-86034285D01*
X146055714Y-86081904D01*
X145960476Y-86129523D01*
X145912857Y-86129523D01*
X145817619Y-86081904D01*
X145770000Y-86034285D01*
X145722380Y-85939047D01*
X145722380Y-85748571D01*
X145770000Y-85653333D01*
X145817619Y-85605714D01*
X145912857Y-85558095D01*
X145960476Y-85558095D01*
X146055714Y-85605714D01*
X146103333Y-85653333D01*
X146150952Y-85748571D01*
X146150952Y-85939047D01*
X146198571Y-86034285D01*
X146246190Y-86081904D01*
X146341428Y-86129523D01*
X146531904Y-86129523D01*
X146627142Y-86081904D01*
X146674761Y-86034285D01*
X146722380Y-85939047D01*
X146722380Y-85748571D01*
X146674761Y-85653333D01*
X146627142Y-85605714D01*
X146531904Y-85558095D01*
X146341428Y-85558095D01*
X146246190Y-85605714D01*
X146198571Y-85653333D01*
X146150952Y-85748571D01*
%TO.C,C16*%
X140857142Y-90842857D02*
X140904761Y-90890476D01*
X140952380Y-91033333D01*
X140952380Y-91128571D01*
X140904761Y-91271428D01*
X140809523Y-91366666D01*
X140714285Y-91414285D01*
X140523809Y-91461904D01*
X140380952Y-91461904D01*
X140190476Y-91414285D01*
X140095238Y-91366666D01*
X140000000Y-91271428D01*
X139952380Y-91128571D01*
X139952380Y-91033333D01*
X140000000Y-90890476D01*
X140047619Y-90842857D01*
X140952380Y-89890476D02*
X140952380Y-90461904D01*
X140952380Y-90176190D02*
X139952380Y-90176190D01*
X140095238Y-90271428D01*
X140190476Y-90366666D01*
X140238095Y-90461904D01*
X139952380Y-89033333D02*
X139952380Y-89223809D01*
X140000000Y-89319047D01*
X140047619Y-89366666D01*
X140190476Y-89461904D01*
X140380952Y-89509523D01*
X140761904Y-89509523D01*
X140857142Y-89461904D01*
X140904761Y-89414285D01*
X140952380Y-89319047D01*
X140952380Y-89128571D01*
X140904761Y-89033333D01*
X140857142Y-88985714D01*
X140761904Y-88938095D01*
X140523809Y-88938095D01*
X140428571Y-88985714D01*
X140380952Y-89033333D01*
X140333333Y-89128571D01*
X140333333Y-89319047D01*
X140380952Y-89414285D01*
X140428571Y-89461904D01*
X140523809Y-89509523D01*
%TO.C,C14*%
X157757142Y-82075357D02*
X157804761Y-82122976D01*
X157852380Y-82265833D01*
X157852380Y-82361071D01*
X157804761Y-82503928D01*
X157709523Y-82599166D01*
X157614285Y-82646785D01*
X157423809Y-82694404D01*
X157280952Y-82694404D01*
X157090476Y-82646785D01*
X156995238Y-82599166D01*
X156900000Y-82503928D01*
X156852380Y-82361071D01*
X156852380Y-82265833D01*
X156900000Y-82122976D01*
X156947619Y-82075357D01*
X157852380Y-81122976D02*
X157852380Y-81694404D01*
X157852380Y-81408690D02*
X156852380Y-81408690D01*
X156995238Y-81503928D01*
X157090476Y-81599166D01*
X157138095Y-81694404D01*
X157185714Y-80265833D02*
X157852380Y-80265833D01*
X156804761Y-80503928D02*
X157519047Y-80742023D01*
X157519047Y-80122976D01*
%TO.C,C13*%
X151727142Y-72112857D02*
X151774761Y-72160476D01*
X151822380Y-72303333D01*
X151822380Y-72398571D01*
X151774761Y-72541428D01*
X151679523Y-72636666D01*
X151584285Y-72684285D01*
X151393809Y-72731904D01*
X151250952Y-72731904D01*
X151060476Y-72684285D01*
X150965238Y-72636666D01*
X150870000Y-72541428D01*
X150822380Y-72398571D01*
X150822380Y-72303333D01*
X150870000Y-72160476D01*
X150917619Y-72112857D01*
X151822380Y-71160476D02*
X151822380Y-71731904D01*
X151822380Y-71446190D02*
X150822380Y-71446190D01*
X150965238Y-71541428D01*
X151060476Y-71636666D01*
X151108095Y-71731904D01*
X150822380Y-70827142D02*
X150822380Y-70208095D01*
X151203333Y-70541428D01*
X151203333Y-70398571D01*
X151250952Y-70303333D01*
X151298571Y-70255714D01*
X151393809Y-70208095D01*
X151631904Y-70208095D01*
X151727142Y-70255714D01*
X151774761Y-70303333D01*
X151822380Y-70398571D01*
X151822380Y-70684285D01*
X151774761Y-70779523D01*
X151727142Y-70827142D01*
%TO.C,C4*%
X125657142Y-86566666D02*
X125704761Y-86614285D01*
X125752380Y-86757142D01*
X125752380Y-86852380D01*
X125704761Y-86995238D01*
X125609523Y-87090476D01*
X125514285Y-87138095D01*
X125323809Y-87185714D01*
X125180952Y-87185714D01*
X124990476Y-87138095D01*
X124895238Y-87090476D01*
X124800000Y-86995238D01*
X124752380Y-86852380D01*
X124752380Y-86757142D01*
X124800000Y-86614285D01*
X124847619Y-86566666D01*
X125085714Y-85709523D02*
X125752380Y-85709523D01*
X124704761Y-85947619D02*
X125419047Y-86185714D01*
X125419047Y-85566666D01*
%TO.C,C2*%
X125657142Y-90166666D02*
X125704761Y-90214285D01*
X125752380Y-90357142D01*
X125752380Y-90452380D01*
X125704761Y-90595238D01*
X125609523Y-90690476D01*
X125514285Y-90738095D01*
X125323809Y-90785714D01*
X125180952Y-90785714D01*
X124990476Y-90738095D01*
X124895238Y-90690476D01*
X124800000Y-90595238D01*
X124752380Y-90452380D01*
X124752380Y-90357142D01*
X124800000Y-90214285D01*
X124847619Y-90166666D01*
X124847619Y-89785714D02*
X124800000Y-89738095D01*
X124752380Y-89642857D01*
X124752380Y-89404761D01*
X124800000Y-89309523D01*
X124847619Y-89261904D01*
X124942857Y-89214285D01*
X125038095Y-89214285D01*
X125180952Y-89261904D01*
X125752380Y-89833333D01*
X125752380Y-89214285D01*
%TO.C,U3*%
X137388095Y-125102380D02*
X137388095Y-125911904D01*
X137435714Y-126007142D01*
X137483333Y-126054761D01*
X137578571Y-126102380D01*
X137769047Y-126102380D01*
X137864285Y-126054761D01*
X137911904Y-126007142D01*
X137959523Y-125911904D01*
X137959523Y-125102380D01*
X138340476Y-125102380D02*
X138959523Y-125102380D01*
X138626190Y-125483333D01*
X138769047Y-125483333D01*
X138864285Y-125530952D01*
X138911904Y-125578571D01*
X138959523Y-125673809D01*
X138959523Y-125911904D01*
X138911904Y-126007142D01*
X138864285Y-126054761D01*
X138769047Y-126102380D01*
X138483333Y-126102380D01*
X138388095Y-126054761D01*
X138340476Y-126007142D01*
%TO.C,U7*%
X116651522Y-72925973D02*
X117223942Y-72353553D01*
X117257614Y-72252538D01*
X117257614Y-72185194D01*
X117223942Y-72084179D01*
X117089255Y-71949492D01*
X116988240Y-71915820D01*
X116920896Y-71915820D01*
X116819881Y-71949492D01*
X116247461Y-72521912D01*
X115978087Y-72252538D02*
X115506683Y-71781133D01*
X116516835Y-71377072D01*
D14*
%TO.C,J5*%
X83764523Y-98978333D02*
X84671666Y-98978333D01*
X84853095Y-99038809D01*
X84974047Y-99159761D01*
X85034523Y-99341190D01*
X85034523Y-99462142D01*
X83764523Y-97768809D02*
X83764523Y-98373571D01*
X84369285Y-98434047D01*
X84308809Y-98373571D01*
X84248333Y-98252619D01*
X84248333Y-97950238D01*
X84308809Y-97829285D01*
X84369285Y-97768809D01*
X84490238Y-97708333D01*
X84792619Y-97708333D01*
X84913571Y-97768809D01*
X84974047Y-97829285D01*
X85034523Y-97950238D01*
X85034523Y-98252619D01*
X84974047Y-98373571D01*
X84913571Y-98434047D01*
D13*
%TO.C,C24*%
X104247969Y-58207106D02*
X104247969Y-58274450D01*
X104180625Y-58409137D01*
X104113282Y-58476480D01*
X103978595Y-58543824D01*
X103843908Y-58543824D01*
X103742893Y-58510152D01*
X103574534Y-58409137D01*
X103473519Y-58308122D01*
X103372503Y-58139763D01*
X103338832Y-58038748D01*
X103338832Y-57904061D01*
X103406175Y-57769374D01*
X103473519Y-57702030D01*
X103608206Y-57634687D01*
X103675549Y-57634687D01*
X103944923Y-57365312D02*
X103944923Y-57297969D01*
X103978595Y-57196954D01*
X104146954Y-57028595D01*
X104247969Y-56994923D01*
X104315312Y-56994923D01*
X104416328Y-57028595D01*
X104483671Y-57095938D01*
X104551015Y-57230625D01*
X104551015Y-58038748D01*
X104988748Y-57601015D01*
X105123435Y-56523519D02*
X105594839Y-56994923D01*
X104685702Y-56422503D02*
X105022419Y-57095938D01*
X105460152Y-56658206D01*
%TO.C,C25*%
X102022969Y-60632106D02*
X102022969Y-60699450D01*
X101955625Y-60834137D01*
X101888282Y-60901480D01*
X101753595Y-60968824D01*
X101618908Y-60968824D01*
X101517893Y-60935152D01*
X101349534Y-60834137D01*
X101248519Y-60733122D01*
X101147503Y-60564763D01*
X101113832Y-60463748D01*
X101113832Y-60329061D01*
X101181175Y-60194374D01*
X101248519Y-60127030D01*
X101383206Y-60059687D01*
X101450549Y-60059687D01*
X101719923Y-59790312D02*
X101719923Y-59722969D01*
X101753595Y-59621954D01*
X101921954Y-59453595D01*
X102022969Y-59419923D01*
X102090312Y-59419923D01*
X102191328Y-59453595D01*
X102258671Y-59520938D01*
X102326015Y-59655625D01*
X102326015Y-60463748D01*
X102763748Y-60026015D01*
X102696404Y-58679145D02*
X102359687Y-59015862D01*
X102662732Y-59386251D01*
X102662732Y-59318908D01*
X102696404Y-59217893D01*
X102864763Y-59049534D01*
X102965778Y-59015862D01*
X103033122Y-59015862D01*
X103134137Y-59049534D01*
X103302496Y-59217893D01*
X103336167Y-59318908D01*
X103336167Y-59386251D01*
X103302496Y-59487267D01*
X103134137Y-59655625D01*
X103033122Y-59689297D01*
X102965778Y-59689297D01*
%TO.C,C26*%
X115757142Y-58442857D02*
X115804761Y-58490476D01*
X115852380Y-58633333D01*
X115852380Y-58728571D01*
X115804761Y-58871428D01*
X115709523Y-58966666D01*
X115614285Y-59014285D01*
X115423809Y-59061904D01*
X115280952Y-59061904D01*
X115090476Y-59014285D01*
X114995238Y-58966666D01*
X114900000Y-58871428D01*
X114852380Y-58728571D01*
X114852380Y-58633333D01*
X114900000Y-58490476D01*
X114947619Y-58442857D01*
X114947619Y-58061904D02*
X114900000Y-58014285D01*
X114852380Y-57919047D01*
X114852380Y-57680952D01*
X114900000Y-57585714D01*
X114947619Y-57538095D01*
X115042857Y-57490476D01*
X115138095Y-57490476D01*
X115280952Y-57538095D01*
X115852380Y-58109523D01*
X115852380Y-57490476D01*
X114852380Y-56633333D02*
X114852380Y-56823809D01*
X114900000Y-56919047D01*
X114947619Y-56966666D01*
X115090476Y-57061904D01*
X115280952Y-57109523D01*
X115661904Y-57109523D01*
X115757142Y-57061904D01*
X115804761Y-57014285D01*
X115852380Y-56919047D01*
X115852380Y-56728571D01*
X115804761Y-56633333D01*
X115757142Y-56585714D01*
X115661904Y-56538095D01*
X115423809Y-56538095D01*
X115328571Y-56585714D01*
X115280952Y-56633333D01*
X115233333Y-56728571D01*
X115233333Y-56919047D01*
X115280952Y-57014285D01*
X115328571Y-57061904D01*
X115423809Y-57109523D01*
%TO.C,C27*%
X121197969Y-58307106D02*
X121197969Y-58374450D01*
X121130625Y-58509137D01*
X121063282Y-58576480D01*
X120928595Y-58643824D01*
X120793908Y-58643824D01*
X120692893Y-58610152D01*
X120524534Y-58509137D01*
X120423519Y-58408122D01*
X120322503Y-58239763D01*
X120288832Y-58138748D01*
X120288832Y-58004061D01*
X120356175Y-57869374D01*
X120423519Y-57802030D01*
X120558206Y-57734687D01*
X120625549Y-57734687D01*
X120894923Y-57465312D02*
X120894923Y-57397969D01*
X120928595Y-57296954D01*
X121096954Y-57128595D01*
X121197969Y-57094923D01*
X121265312Y-57094923D01*
X121366328Y-57128595D01*
X121433671Y-57195938D01*
X121501015Y-57330625D01*
X121501015Y-58138748D01*
X121938748Y-57701015D01*
X121467343Y-56758206D02*
X121938748Y-56286801D01*
X122342809Y-57296954D01*
%TO.C,C28*%
X127707106Y-77202031D02*
X127774450Y-77202031D01*
X127909137Y-77269375D01*
X127976480Y-77336718D01*
X128043824Y-77471405D01*
X128043824Y-77606092D01*
X128010152Y-77707107D01*
X127909137Y-77875466D01*
X127808122Y-77976481D01*
X127639763Y-78077497D01*
X127538748Y-78111168D01*
X127404061Y-78111168D01*
X127269374Y-78043825D01*
X127202030Y-77976481D01*
X127134687Y-77841794D01*
X127134687Y-77774451D01*
X126865312Y-77505077D02*
X126797969Y-77505077D01*
X126696954Y-77471405D01*
X126528595Y-77303046D01*
X126494923Y-77202031D01*
X126494923Y-77134688D01*
X126528595Y-77033672D01*
X126595938Y-76966329D01*
X126730625Y-76898985D01*
X127538748Y-76898985D01*
X127101015Y-76461252D01*
X126292893Y-76461252D02*
X126326564Y-76562268D01*
X126326564Y-76629611D01*
X126292893Y-76730626D01*
X126259221Y-76764298D01*
X126158206Y-76797970D01*
X126090862Y-76797970D01*
X125989847Y-76764298D01*
X125855160Y-76629611D01*
X125821488Y-76528596D01*
X125821488Y-76461252D01*
X125855160Y-76360237D01*
X125888832Y-76326565D01*
X125989847Y-76292894D01*
X126057190Y-76292894D01*
X126158206Y-76326565D01*
X126292893Y-76461252D01*
X126393908Y-76494924D01*
X126461251Y-76494924D01*
X126562267Y-76461252D01*
X126696954Y-76326565D01*
X126730625Y-76225550D01*
X126730625Y-76158207D01*
X126696954Y-76057191D01*
X126562267Y-75922504D01*
X126461251Y-75888833D01*
X126393908Y-75888833D01*
X126292893Y-75922504D01*
X126158206Y-76057191D01*
X126124534Y-76158207D01*
X126124534Y-76225550D01*
X126158206Y-76326565D01*
%TO.C,C29*%
X129957142Y-74357142D02*
X129909523Y-74404761D01*
X129766666Y-74452380D01*
X129671428Y-74452380D01*
X129528571Y-74404761D01*
X129433333Y-74309523D01*
X129385714Y-74214285D01*
X129338095Y-74023809D01*
X129338095Y-73880952D01*
X129385714Y-73690476D01*
X129433333Y-73595238D01*
X129528571Y-73500000D01*
X129671428Y-73452380D01*
X129766666Y-73452380D01*
X129909523Y-73500000D01*
X129957142Y-73547619D01*
X130338095Y-73547619D02*
X130385714Y-73500000D01*
X130480952Y-73452380D01*
X130719047Y-73452380D01*
X130814285Y-73500000D01*
X130861904Y-73547619D01*
X130909523Y-73642857D01*
X130909523Y-73738095D01*
X130861904Y-73880952D01*
X130290476Y-74452380D01*
X130909523Y-74452380D01*
X131385714Y-74452380D02*
X131576190Y-74452380D01*
X131671428Y-74404761D01*
X131719047Y-74357142D01*
X131814285Y-74214285D01*
X131861904Y-74023809D01*
X131861904Y-73642857D01*
X131814285Y-73547619D01*
X131766666Y-73500000D01*
X131671428Y-73452380D01*
X131480952Y-73452380D01*
X131385714Y-73500000D01*
X131338095Y-73547619D01*
X131290476Y-73642857D01*
X131290476Y-73880952D01*
X131338095Y-73976190D01*
X131385714Y-74023809D01*
X131480952Y-74071428D01*
X131671428Y-74071428D01*
X131766666Y-74023809D01*
X131814285Y-73976190D01*
X131861904Y-73880952D01*
%TO.C,C30*%
X115919642Y-86757142D02*
X115872023Y-86804761D01*
X115729166Y-86852380D01*
X115633928Y-86852380D01*
X115491071Y-86804761D01*
X115395833Y-86709523D01*
X115348214Y-86614285D01*
X115300595Y-86423809D01*
X115300595Y-86280952D01*
X115348214Y-86090476D01*
X115395833Y-85995238D01*
X115491071Y-85900000D01*
X115633928Y-85852380D01*
X115729166Y-85852380D01*
X115872023Y-85900000D01*
X115919642Y-85947619D01*
X116252976Y-85852380D02*
X116872023Y-85852380D01*
X116538690Y-86233333D01*
X116681547Y-86233333D01*
X116776785Y-86280952D01*
X116824404Y-86328571D01*
X116872023Y-86423809D01*
X116872023Y-86661904D01*
X116824404Y-86757142D01*
X116776785Y-86804761D01*
X116681547Y-86852380D01*
X116395833Y-86852380D01*
X116300595Y-86804761D01*
X116252976Y-86757142D01*
X117491071Y-85852380D02*
X117586309Y-85852380D01*
X117681547Y-85900000D01*
X117729166Y-85947619D01*
X117776785Y-86042857D01*
X117824404Y-86233333D01*
X117824404Y-86471428D01*
X117776785Y-86661904D01*
X117729166Y-86757142D01*
X117681547Y-86804761D01*
X117586309Y-86852380D01*
X117491071Y-86852380D01*
X117395833Y-86804761D01*
X117348214Y-86757142D01*
X117300595Y-86661904D01*
X117252976Y-86471428D01*
X117252976Y-86233333D01*
X117300595Y-86042857D01*
X117348214Y-85947619D01*
X117395833Y-85900000D01*
X117491071Y-85852380D01*
%TO.C,C31*%
X111807106Y-85002030D02*
X111874450Y-85002030D01*
X112009137Y-85069374D01*
X112076480Y-85136717D01*
X112143824Y-85271404D01*
X112143824Y-85406091D01*
X112110152Y-85507106D01*
X112009137Y-85675465D01*
X111908122Y-85776480D01*
X111739763Y-85877496D01*
X111638748Y-85911167D01*
X111504061Y-85911167D01*
X111369374Y-85843824D01*
X111302030Y-85776480D01*
X111234687Y-85641793D01*
X111234687Y-85574450D01*
X110931641Y-85406091D02*
X110493908Y-84968358D01*
X110998984Y-84934687D01*
X110897969Y-84833671D01*
X110864297Y-84732656D01*
X110864297Y-84665312D01*
X110897969Y-84564297D01*
X111066328Y-84395938D01*
X111167343Y-84362267D01*
X111234687Y-84362267D01*
X111335702Y-84395938D01*
X111537732Y-84597969D01*
X111571404Y-84698984D01*
X111571404Y-84766328D01*
X110527580Y-83587816D02*
X110931641Y-83991877D01*
X110729610Y-83789847D02*
X110022503Y-84496954D01*
X110190862Y-84463282D01*
X110325549Y-84463282D01*
X110426564Y-84496954D01*
%TO.C,C32*%
X104330258Y-75406086D02*
X104397602Y-75406086D01*
X104532289Y-75473430D01*
X104599632Y-75540773D01*
X104666976Y-75675460D01*
X104666976Y-75810147D01*
X104633304Y-75911162D01*
X104532289Y-76079521D01*
X104431274Y-76180536D01*
X104262915Y-76281552D01*
X104161900Y-76315223D01*
X104027213Y-76315223D01*
X103892526Y-76247880D01*
X103825182Y-76180536D01*
X103757839Y-76045849D01*
X103757839Y-75978506D01*
X103454793Y-75810147D02*
X103017060Y-75372414D01*
X103522136Y-75338743D01*
X103421121Y-75237727D01*
X103387449Y-75136712D01*
X103387449Y-75069368D01*
X103421121Y-74968353D01*
X103589480Y-74799994D01*
X103690495Y-74766323D01*
X103757839Y-74766323D01*
X103858854Y-74799994D01*
X104060884Y-75002025D01*
X104094556Y-75103040D01*
X104094556Y-75170384D01*
X102815029Y-75035697D02*
X102747686Y-75035697D01*
X102646671Y-75002025D01*
X102478312Y-74833666D01*
X102444640Y-74732651D01*
X102444640Y-74665307D01*
X102478312Y-74564292D01*
X102545655Y-74496949D01*
X102680342Y-74429605D01*
X103488464Y-74429605D01*
X103050732Y-73991872D01*
%TO.C,C33*%
X103697969Y-69307106D02*
X103697969Y-69374450D01*
X103630625Y-69509137D01*
X103563282Y-69576480D01*
X103428595Y-69643824D01*
X103293908Y-69643824D01*
X103192893Y-69610152D01*
X103024534Y-69509137D01*
X102923519Y-69408122D01*
X102822503Y-69239763D01*
X102788832Y-69138748D01*
X102788832Y-69004061D01*
X102856175Y-68869374D01*
X102923519Y-68802030D01*
X103058206Y-68734687D01*
X103125549Y-68734687D01*
X103293908Y-68431641D02*
X103731641Y-67993908D01*
X103765312Y-68498984D01*
X103866328Y-68397969D01*
X103967343Y-68364297D01*
X104034687Y-68364297D01*
X104135702Y-68397969D01*
X104304061Y-68566328D01*
X104337732Y-68667343D01*
X104337732Y-68734687D01*
X104304061Y-68835702D01*
X104102030Y-69037732D01*
X104001015Y-69071404D01*
X103933671Y-69071404D01*
X103967343Y-67758206D02*
X104405076Y-67320473D01*
X104438748Y-67825549D01*
X104539763Y-67724534D01*
X104640778Y-67690862D01*
X104708122Y-67690862D01*
X104809137Y-67724534D01*
X104977496Y-67892893D01*
X105011167Y-67993908D01*
X105011167Y-68061251D01*
X104977496Y-68162267D01*
X104775465Y-68364297D01*
X104674450Y-68397969D01*
X104607106Y-68397969D01*
%TO.C,C35*%
X111297969Y-60307106D02*
X111297969Y-60374450D01*
X111230625Y-60509137D01*
X111163282Y-60576480D01*
X111028595Y-60643824D01*
X110893908Y-60643824D01*
X110792893Y-60610152D01*
X110624534Y-60509137D01*
X110523519Y-60408122D01*
X110422503Y-60239763D01*
X110388832Y-60138748D01*
X110388832Y-60004061D01*
X110456175Y-59869374D01*
X110523519Y-59802030D01*
X110658206Y-59734687D01*
X110725549Y-59734687D01*
X110893908Y-59431641D02*
X111331641Y-58993908D01*
X111365312Y-59498984D01*
X111466328Y-59397969D01*
X111567343Y-59364297D01*
X111634687Y-59364297D01*
X111735702Y-59397969D01*
X111904061Y-59566328D01*
X111937732Y-59667343D01*
X111937732Y-59734687D01*
X111904061Y-59835702D01*
X111702030Y-60037732D01*
X111601015Y-60071404D01*
X111533671Y-60071404D01*
X111971404Y-58354145D02*
X111634687Y-58690862D01*
X111937732Y-59061251D01*
X111937732Y-58993908D01*
X111971404Y-58892893D01*
X112139763Y-58724534D01*
X112240778Y-58690862D01*
X112308122Y-58690862D01*
X112409137Y-58724534D01*
X112577496Y-58892893D01*
X112611167Y-58993908D01*
X112611167Y-59061251D01*
X112577496Y-59162267D01*
X112409137Y-59330625D01*
X112308122Y-59364297D01*
X112240778Y-59364297D01*
%TO.C,J1*%
X143056666Y-68452380D02*
X143056666Y-69166666D01*
X143009047Y-69309523D01*
X142913809Y-69404761D01*
X142770952Y-69452380D01*
X142675714Y-69452380D01*
X144056666Y-69452380D02*
X143485238Y-69452380D01*
X143770952Y-69452380D02*
X143770952Y-68452380D01*
X143675714Y-68595238D01*
X143580476Y-68690476D01*
X143485238Y-68738095D01*
%TO.C,J3*%
X141466666Y-134752380D02*
X141466666Y-135466666D01*
X141419047Y-135609523D01*
X141323809Y-135704761D01*
X141180952Y-135752380D01*
X141085714Y-135752380D01*
X141847619Y-134752380D02*
X142466666Y-134752380D01*
X142133333Y-135133333D01*
X142276190Y-135133333D01*
X142371428Y-135180952D01*
X142419047Y-135228571D01*
X142466666Y-135323809D01*
X142466666Y-135561904D01*
X142419047Y-135657142D01*
X142371428Y-135704761D01*
X142276190Y-135752380D01*
X141990476Y-135752380D01*
X141895238Y-135704761D01*
X141847619Y-135657142D01*
%TO.C,J4*%
X153886666Y-58672380D02*
X153886666Y-59386666D01*
X153839047Y-59529523D01*
X153743809Y-59624761D01*
X153600952Y-59672380D01*
X153505714Y-59672380D01*
X154791428Y-59005714D02*
X154791428Y-59672380D01*
X154553333Y-58624761D02*
X154315238Y-59339047D01*
X154934285Y-59339047D01*
%TO.C,R4*%
X125402030Y-60037732D02*
X124829610Y-59936717D01*
X124997969Y-60441793D02*
X124290862Y-59734687D01*
X124560236Y-59465312D01*
X124661251Y-59431641D01*
X124728595Y-59431641D01*
X124829610Y-59465312D01*
X124930625Y-59566328D01*
X124964297Y-59667343D01*
X124964297Y-59734687D01*
X124930625Y-59835702D01*
X124661251Y-60105076D01*
X125536717Y-58960236D02*
X126008122Y-59431641D01*
X125098984Y-58859221D02*
X125435702Y-59532656D01*
X125873435Y-59094923D01*
%TO.C,R5*%
X123802030Y-58537732D02*
X123229610Y-58436717D01*
X123397969Y-58941793D02*
X122690862Y-58234687D01*
X122960236Y-57965312D01*
X123061251Y-57931641D01*
X123128595Y-57931641D01*
X123229610Y-57965312D01*
X123330625Y-58066328D01*
X123364297Y-58167343D01*
X123364297Y-58234687D01*
X123330625Y-58335702D01*
X123061251Y-58605076D01*
X123734687Y-57190862D02*
X123397969Y-57527580D01*
X123701015Y-57897969D01*
X123701015Y-57830625D01*
X123734687Y-57729610D01*
X123903045Y-57561251D01*
X124004061Y-57527580D01*
X124071404Y-57527580D01*
X124172419Y-57561251D01*
X124340778Y-57729610D01*
X124374450Y-57830625D01*
X124374450Y-57897969D01*
X124340778Y-57998984D01*
X124172419Y-58167343D01*
X124071404Y-58201015D01*
X124004061Y-58201015D01*
%TO.C,U5*%
X140448095Y-58612380D02*
X140448095Y-59421904D01*
X140495714Y-59517142D01*
X140543333Y-59564761D01*
X140638571Y-59612380D01*
X140829047Y-59612380D01*
X140924285Y-59564761D01*
X140971904Y-59517142D01*
X141019523Y-59421904D01*
X141019523Y-58612380D01*
X141971904Y-58612380D02*
X141495714Y-58612380D01*
X141448095Y-59088571D01*
X141495714Y-59040952D01*
X141590952Y-58993333D01*
X141829047Y-58993333D01*
X141924285Y-59040952D01*
X141971904Y-59088571D01*
X142019523Y-59183809D01*
X142019523Y-59421904D01*
X141971904Y-59517142D01*
X141924285Y-59564761D01*
X141829047Y-59612380D01*
X141590952Y-59612380D01*
X141495714Y-59564761D01*
X141448095Y-59517142D01*
%TO.C,C23*%
X101886063Y-66583313D02*
X101953407Y-66583313D01*
X102088094Y-66650657D01*
X102155437Y-66718000D01*
X102222781Y-66852687D01*
X102222781Y-66987374D01*
X102189109Y-67088389D01*
X102088094Y-67256748D01*
X101987079Y-67357763D01*
X101818720Y-67458779D01*
X101717705Y-67492450D01*
X101583018Y-67492450D01*
X101448331Y-67425107D01*
X101380987Y-67357763D01*
X101313644Y-67223076D01*
X101313644Y-67155733D01*
X101044269Y-66886359D02*
X100976926Y-66886359D01*
X100875911Y-66852687D01*
X100707552Y-66684328D01*
X100673880Y-66583313D01*
X100673880Y-66515970D01*
X100707552Y-66414954D01*
X100774895Y-66347611D01*
X100909582Y-66280267D01*
X101717705Y-66280267D01*
X101279972Y-65842534D01*
X100337163Y-66313939D02*
X99899430Y-65876206D01*
X100404506Y-65842534D01*
X100303491Y-65741519D01*
X100269819Y-65640504D01*
X100269819Y-65573160D01*
X100303491Y-65472145D01*
X100471850Y-65303786D01*
X100572865Y-65270115D01*
X100640208Y-65270115D01*
X100741224Y-65303786D01*
X100943254Y-65505817D01*
X100976926Y-65606832D01*
X100976926Y-65674176D01*
%TO.C,SW1*%
X103079618Y-85965236D02*
X103214305Y-85897893D01*
X103382664Y-85729534D01*
X103416336Y-85628519D01*
X103416336Y-85561175D01*
X103382664Y-85460160D01*
X103315321Y-85392817D01*
X103214305Y-85359145D01*
X103146962Y-85359145D01*
X103045947Y-85392817D01*
X102877588Y-85493832D01*
X102776573Y-85527504D01*
X102709229Y-85527504D01*
X102608214Y-85493832D01*
X102540870Y-85426488D01*
X102507199Y-85325473D01*
X102507199Y-85258130D01*
X102540870Y-85157114D01*
X102709229Y-84988756D01*
X102843916Y-84921412D01*
X103045947Y-84652038D02*
X103921412Y-85190786D01*
X103551023Y-84551023D01*
X104190786Y-84921412D01*
X103652038Y-84045947D01*
X104998908Y-84113290D02*
X104594847Y-84517351D01*
X104796878Y-84315321D02*
X104089771Y-83608214D01*
X104123443Y-83776573D01*
X104123443Y-83911260D01*
X104089771Y-84012275D01*
D11*
%TO.C,D6*%
X101935000Y-101165000D02*
X99475000Y-101165000D01*
X101935000Y-102635000D02*
X101935000Y-101165000D01*
X99475000Y-102635000D02*
X101935000Y-102635000D01*
%TO.C,JP1*%
X126470000Y-61130000D02*
X126470000Y-59800000D01*
X127800000Y-61130000D02*
X126470000Y-61130000D01*
X129070000Y-61130000D02*
X129070000Y-58470000D01*
X129070000Y-58470000D02*
X134210000Y-58470000D01*
X129070000Y-61130000D02*
X134210000Y-61130000D01*
X134210000Y-61130000D02*
X134210000Y-58470000D01*
%TO.C,C34*%
X112287078Y-61414171D02*
X112493931Y-61207318D01*
X111565829Y-60692922D02*
X111772682Y-60486069D01*
%TO.C,J2*%
X139520000Y-80330000D02*
X138190000Y-80330000D01*
X139520000Y-79000000D02*
X139520000Y-80330000D01*
X136920000Y-80330000D02*
X134320000Y-80330000D01*
X136920000Y-77730000D02*
X136920000Y-80330000D01*
X139520000Y-77730000D02*
X136920000Y-77730000D01*
X134320000Y-80330000D02*
X134320000Y-70050000D01*
X139520000Y-77730000D02*
X139520000Y-70050000D01*
X139520000Y-70050000D02*
X134320000Y-70050000D01*
D15*
%TO.C,Y3*%
X102970317Y-62479809D02*
X107212957Y-58237169D01*
X109687831Y-60712043D02*
X105445191Y-64954683D01*
%TO.C,Y2*%
X146490000Y-85445000D02*
X146490000Y-91445000D01*
X142990000Y-91445000D02*
X142990000Y-85445000D01*
%TO.C,Y1*%
X131240000Y-85445000D02*
X131240000Y-91445000D01*
X127740000Y-91445000D02*
X127740000Y-85445000D01*
D11*
%TO.C,R10*%
X103791267Y-94590000D02*
X103448733Y-94590000D01*
X103791267Y-95610000D02*
X103448733Y-95610000D01*
%TO.C,R9*%
X103791267Y-96290000D02*
X103448733Y-96290000D01*
X103791267Y-97310000D02*
X103448733Y-97310000D01*
%TO.C,R8*%
X103791267Y-97990000D02*
X103448733Y-97990000D01*
X103791267Y-99010000D02*
X103448733Y-99010000D01*
%TO.C,R7*%
X103791267Y-99690000D02*
X103448733Y-99690000D01*
X103791267Y-100710000D02*
X103448733Y-100710000D01*
%TO.C,R6*%
X103791267Y-101390000D02*
X103448733Y-101390000D01*
X103791267Y-102410000D02*
X103448733Y-102410000D01*
%TO.C,D5*%
X101930000Y-99465000D02*
X99470000Y-99465000D01*
X101930000Y-100935000D02*
X101930000Y-99465000D01*
X99470000Y-100935000D02*
X101930000Y-100935000D01*
%TO.C,D4*%
X101930000Y-97765000D02*
X99470000Y-97765000D01*
X101930000Y-99235000D02*
X101930000Y-97765000D01*
X99470000Y-99235000D02*
X101930000Y-99235000D01*
%TO.C,D3*%
X101930000Y-96065000D02*
X99470000Y-96065000D01*
X101930000Y-97535000D02*
X101930000Y-96065000D01*
X99470000Y-97535000D02*
X101930000Y-97535000D01*
%TO.C,D2*%
X101930000Y-94365000D02*
X99470000Y-94365000D01*
X101930000Y-95835000D02*
X101930000Y-94365000D01*
X99470000Y-95835000D02*
X101930000Y-95835000D01*
%TO.C,C19*%
X152900000Y-91937836D02*
X152900000Y-91722164D01*
X152180000Y-91937836D02*
X152180000Y-91722164D01*
%TO.C,C17*%
X152180000Y-89812164D02*
X152180000Y-90027836D01*
X152900000Y-89812164D02*
X152900000Y-90027836D01*
%TO.C,C15*%
X152180000Y-87912164D02*
X152180000Y-88127836D01*
X152900000Y-87912164D02*
X152900000Y-88127836D01*
%TO.C,C5*%
X137660000Y-91907836D02*
X137660000Y-91692164D01*
X136940000Y-91907836D02*
X136940000Y-91692164D01*
%TO.C,C3*%
X136940000Y-89812164D02*
X136940000Y-90027836D01*
X137660000Y-89812164D02*
X137660000Y-90027836D01*
%TO.C,C1*%
X136940000Y-87912164D02*
X136940000Y-88127836D01*
X137660000Y-87912164D02*
X137660000Y-88127836D01*
%TO.C,R1*%
X152360000Y-110553641D02*
X152360000Y-110246359D01*
X151600000Y-110553641D02*
X151600000Y-110246359D01*
%TO.C,C12*%
X151502164Y-108100000D02*
X151717836Y-108100000D01*
X151502164Y-107380000D02*
X151717836Y-107380000D01*
%TO.C,C11*%
X148332164Y-107480000D02*
X148547836Y-107480000D01*
X148332164Y-106760000D02*
X148547836Y-106760000D01*
%TO.C,C22*%
X148547836Y-103860000D02*
X148332164Y-103860000D01*
X148547836Y-104580000D02*
X148332164Y-104580000D01*
%TO.C,C21*%
X151252164Y-102660000D02*
X151467836Y-102660000D01*
X151252164Y-101940000D02*
X151467836Y-101940000D01*
%TO.C,C20*%
X149540000Y-94679664D02*
X149540000Y-94895336D01*
X150260000Y-94679664D02*
X150260000Y-94895336D01*
%TO.C,C10*%
X135270000Y-111197836D02*
X135270000Y-110982164D01*
X134550000Y-111197836D02*
X134550000Y-110982164D01*
%TO.C,C9*%
X133250000Y-110337836D02*
X133250000Y-110122164D01*
X132530000Y-110337836D02*
X132530000Y-110122164D01*
%TO.C,C8*%
X133540000Y-97962164D02*
X133540000Y-98177836D01*
X134260000Y-97962164D02*
X134260000Y-98177836D01*
%TO.C,C7*%
X133040000Y-96012164D02*
X133040000Y-96227836D01*
X133760000Y-96012164D02*
X133760000Y-96227836D01*
%TO.C,C6*%
X135340000Y-93712164D02*
X135340000Y-93927836D01*
X136060000Y-93712164D02*
X136060000Y-93927836D01*
%TO.C,U6*%
X147290000Y-87815000D02*
X147290000Y-87090000D01*
X147290000Y-87090000D02*
X148015000Y-87090000D01*
X151510000Y-90585000D02*
X151510000Y-91310000D01*
X151510000Y-91310000D02*
X150785000Y-91310000D01*
X151510000Y-87815000D02*
X151510000Y-87090000D01*
X151510000Y-87090000D02*
X150785000Y-87090000D01*
X147290000Y-90585000D02*
X147290000Y-91310000D01*
%TO.C,U4*%
X153490000Y-75030000D02*
X153490000Y-77460000D01*
X153500000Y-75010000D02*
X154500000Y-75010000D01*
X156550000Y-75010000D02*
X156550000Y-76860000D01*
X155500000Y-75010000D02*
X156550000Y-75010000D01*
%TO.C,U2*%
X151260000Y-110420000D02*
X151260000Y-111920000D01*
X148040000Y-108920000D02*
X148040000Y-111920000D01*
%TO.C,U1*%
X132040000Y-90585000D02*
X132040000Y-91310000D01*
X136260000Y-87090000D02*
X135535000Y-87090000D01*
X136260000Y-87815000D02*
X136260000Y-87090000D01*
X136260000Y-91310000D02*
X135535000Y-91310000D01*
X136260000Y-90585000D02*
X136260000Y-91310000D01*
X132040000Y-87090000D02*
X132765000Y-87090000D01*
X132040000Y-87815000D02*
X132040000Y-87090000D01*
%TO.C,R3*%
X152500000Y-80196266D02*
X152500000Y-79853732D01*
X151480000Y-80196266D02*
X151480000Y-79853732D01*
%TO.C,R2*%
X152500000Y-76566268D02*
X152500000Y-76223734D01*
X151480000Y-76566268D02*
X151480000Y-76223734D01*
%TO.C,FB1*%
X152980000Y-71693766D02*
X152980000Y-71401232D01*
X151960000Y-71693766D02*
X151960000Y-71401232D01*
%TO.C,D1*%
X155505000Y-73230000D02*
X155505000Y-70770000D01*
X154035000Y-73230000D02*
X155505000Y-73230000D01*
X154035000Y-70770000D02*
X154035000Y-73230000D01*
%TO.C,C18*%
X142480000Y-86903767D02*
X142480000Y-86611233D01*
X141460000Y-86903767D02*
X141460000Y-86611233D01*
%TO.C,C16*%
X141460000Y-89996233D02*
X141460000Y-90288767D01*
X142480000Y-89996233D02*
X142480000Y-90288767D01*
%TO.C,C14*%
X156480000Y-81286233D02*
X156480000Y-81578767D01*
X155460000Y-81286233D02*
X155460000Y-81578767D01*
%TO.C,C13*%
X156880000Y-71716267D02*
X156880000Y-71423733D01*
X155860000Y-71716267D02*
X155860000Y-71423733D01*
%TO.C,C4*%
X127229999Y-86903767D02*
X127229999Y-86611233D01*
X126209999Y-86903767D02*
X126209999Y-86611233D01*
%TO.C,C2*%
X127230000Y-89986234D02*
X127230000Y-90278768D01*
X126210000Y-89986234D02*
X126210000Y-90278768D01*
D16*
%TO.C,U3*%
X141045000Y-124350000D02*
X142695000Y-124350000D01*
X141045000Y-125600000D02*
X141045000Y-124350000D01*
D11*
%TO.C,U7*%
X116005025Y-81560084D02*
X116500000Y-82055058D01*
X116500000Y-82055058D02*
X116994975Y-81560084D01*
X106939916Y-72494975D02*
X106444942Y-72000000D01*
X106444942Y-72000000D02*
X106939916Y-71505025D01*
X126060084Y-71505025D02*
X126555058Y-72000000D01*
X126555058Y-72000000D02*
X126060084Y-72494975D01*
X116994975Y-62439916D02*
X116500000Y-61944942D01*
X116500000Y-61944942D02*
X116005025Y-62439916D01*
X116005025Y-62439916D02*
X115039824Y-61474716D01*
D10*
%TO.C,J5*%
X95100000Y-73625000D02*
G75*
G03*
X95200000Y-73625000I50000J0D01*
G01*
X95200000Y-73625000D02*
G75*
G03*
X95100000Y-73625000I-50000J0D01*
G01*
D17*
X80060000Y-65535000D02*
X74260000Y-65535000D01*
X74260000Y-65535000D02*
X74260000Y-70615000D01*
X74260000Y-70615000D02*
X80060000Y-70615000D01*
X80060000Y-75695000D02*
X74260000Y-75695000D01*
X74260000Y-75695000D02*
X74260000Y-121415000D01*
X74260000Y-121415000D02*
X80060000Y-121415000D01*
X80060000Y-126495000D02*
X74260000Y-126495000D01*
X74260000Y-126495000D02*
X74260000Y-131575000D01*
X74260000Y-131575000D02*
X80060000Y-131575000D01*
X88860000Y-133215000D02*
X80060000Y-133215000D01*
X80060000Y-133215000D02*
X80060000Y-63895000D01*
X80060000Y-63895000D02*
X88860000Y-63895000D01*
X94660000Y-63895000D02*
X94660000Y-133215000D01*
D10*
X95200000Y-73625000D02*
X95200000Y-73625000D01*
X95100000Y-73625000D02*
X95100000Y-73625000D01*
D11*
%TO.C,C24*%
X105282922Y-57945829D02*
X105076069Y-58152682D01*
X106004171Y-58667078D02*
X105797318Y-58873931D01*
%TO.C,C25*%
X103392078Y-61279171D02*
X103598931Y-61072318D01*
X102670829Y-60557922D02*
X102877682Y-60351069D01*
%TO.C,C26*%
X117010000Y-59646267D02*
X117010000Y-59353733D01*
X115990000Y-59646267D02*
X115990000Y-59353733D01*
%TO.C,C27*%
X118745829Y-59532922D02*
X118952682Y-59326069D01*
X119467078Y-60254171D02*
X119673931Y-60047318D01*
%TO.C,C28*%
X127545829Y-76267078D02*
X127752682Y-76473931D01*
X128267078Y-75545829D02*
X128473931Y-75752682D01*
%TO.C,C29*%
X128816234Y-71990000D02*
X129108768Y-71990000D01*
X128816234Y-73010000D02*
X129108768Y-73010000D01*
%TO.C,C30*%
X116708767Y-84210000D02*
X116416233Y-84210000D01*
X116708767Y-83190000D02*
X116416233Y-83190000D01*
%TO.C,C31*%
X113267078Y-82445829D02*
X113473931Y-82652682D01*
X112545829Y-83167078D02*
X112752682Y-83373931D01*
%TO.C,C32*%
X105098366Y-73935695D02*
X104891513Y-73728842D01*
X104377117Y-74656944D02*
X104170264Y-74450091D01*
%TO.C,C33*%
X106154170Y-68967078D02*
X105947317Y-69173931D01*
X105432921Y-68245829D02*
X105226068Y-68452682D01*
%TO.C,C35*%
X112624738Y-61755079D02*
X112831591Y-61548226D01*
X113345987Y-62476328D02*
X113552840Y-62269475D01*
%TO.C,J1*%
X146220000Y-70030001D02*
X141020000Y-70030001D01*
X146220000Y-77710001D02*
X146220000Y-70030001D01*
X141020000Y-80310001D02*
X141020000Y-70030001D01*
X146220000Y-77710001D02*
X143620000Y-77710001D01*
X143620000Y-77710001D02*
X143620000Y-80310001D01*
X143620000Y-80310001D02*
X141020000Y-80310001D01*
X146220000Y-78980001D02*
X146220000Y-80310001D01*
X146220000Y-80310001D02*
X144890000Y-80310001D01*
%TO.C,J3*%
X140450000Y-127045000D02*
X143350000Y-127045000D01*
X140450000Y-133755000D02*
X143350000Y-133755000D01*
X145255000Y-128950000D02*
X145255000Y-131850000D01*
X138545000Y-128950000D02*
X138545000Y-131850000D01*
%TO.C,J4*%
X151907500Y-65920000D02*
X152357500Y-65920000D01*
X151907500Y-65920000D02*
X151907500Y-65470000D01*
X152457500Y-60320000D02*
X152457500Y-60770000D01*
X154307500Y-60320000D02*
X152457500Y-60320000D01*
X156857500Y-68120000D02*
X156607500Y-68120000D01*
X156857500Y-60320000D02*
X156607500Y-60320000D01*
X154307500Y-68120000D02*
X152457500Y-68120000D01*
X152457500Y-68120000D02*
X152457500Y-67670000D01*
%TO.C,R4*%
X122558238Y-62763011D02*
X122800447Y-62520802D01*
X121836989Y-62041762D02*
X122079198Y-61799553D01*
%TO.C,R5*%
X120436989Y-60641762D02*
X120679198Y-60399553D01*
X121158238Y-61363011D02*
X121400447Y-61120802D01*
%TO.C,U5*%
X140310000Y-63670000D02*
X142110000Y-63670000D01*
X142110000Y-60450000D02*
X139660000Y-60450000D01*
%TO.C,C23*%
X102654171Y-65112922D02*
X102447318Y-64906069D01*
X101932922Y-65834171D02*
X101726069Y-65627318D01*
%TO.C,SW1*%
X106600000Y-92167910D02*
X111167910Y-87600000D01*
X103396806Y-88964716D02*
X105235284Y-90803194D01*
X102032090Y-87600000D02*
X106600000Y-83032090D01*
X107964716Y-84396806D02*
X109803194Y-86235284D01*
X102053303Y-87621213D02*
X102032090Y-87600000D01*
X106600000Y-92167910D02*
X106578787Y-92146697D01*
X111167910Y-87600000D02*
X111146697Y-87578787D01*
X106600000Y-83032090D02*
X106621213Y-83053303D01*
%TD*%
M02*
