%TF.GenerationSoftware,KiCad,Pcbnew,(6.0.1)*%
%TF.CreationDate,2022-01-21T22:27:40-06:00*%
%TF.ProjectId,Telemetry_KiCAD_Project,54656c65-6d65-4747-9279-5f4b69434144,rev?*%
%TF.SameCoordinates,Original*%
%TF.FileFunction,Paste,Top*%
%TF.FilePolarity,Positive*%
%FSLAX46Y46*%
G04 Gerber Fmt 4.6, Leading zero omitted, Abs format (unit mm)*
G04 Created by KiCad (PCBNEW (6.0.1)) date 2022-01-21 22:27:40*
%MOMM*%
%LPD*%
G01*
G04 APERTURE LIST*
G04 Aperture macros list*
%AMRoundRect*
0 Rectangle with rounded corners*
0 $1 Rounding radius*
0 $2 $3 $4 $5 $6 $7 $8 $9 X,Y pos of 4 corners*
0 Add a 4 corners polygon primitive as box body*
4,1,4,$2,$3,$4,$5,$6,$7,$8,$9,$2,$3,0*
0 Add four circle primitives for the rounded corners*
1,1,$1+$1,$2,$3*
1,1,$1+$1,$4,$5*
1,1,$1+$1,$6,$7*
1,1,$1+$1,$8,$9*
0 Add four rect primitives between the rounded corners*
20,1,$1+$1,$2,$3,$4,$5,0*
20,1,$1+$1,$4,$5,$6,$7,0*
20,1,$1+$1,$6,$7,$8,$9,0*
20,1,$1+$1,$8,$9,$2,$3,0*%
%AMRotRect*
0 Rectangle, with rotation*
0 The origin of the aperture is its center*
0 $1 length*
0 $2 width*
0 $3 Rotation angle, in degrees counterclockwise*
0 Add horizontal line*
21,1,$1,$2,0,0,$3*%
G04 Aperture macros list end*
%ADD10RoundRect,0.237500X-0.044194X-0.380070X0.380070X0.044194X0.044194X0.380070X-0.380070X-0.044194X0*%
%ADD11RoundRect,0.237500X-0.380070X0.044194X0.044194X-0.380070X0.380070X-0.044194X-0.044194X0.380070X0*%
%ADD12RoundRect,0.237500X0.300000X0.237500X-0.300000X0.237500X-0.300000X-0.237500X0.300000X-0.237500X0*%
%ADD13RoundRect,0.237500X0.380070X-0.044194X-0.044194X0.380070X-0.380070X0.044194X0.044194X-0.380070X0*%
%ADD14RoundRect,0.237500X-0.035355X-0.371231X0.371231X0.035355X0.035355X0.371231X-0.371231X-0.035355X0*%
%ADD15RoundRect,0.075000X-0.565685X0.459619X0.459619X-0.565685X0.565685X-0.459619X-0.459619X0.565685X0*%
%ADD16RoundRect,0.075000X-0.565685X-0.459619X-0.459619X-0.565685X0.565685X0.459619X0.459619X0.565685X0*%
%ADD17R,0.340000X0.230000*%
%ADD18R,0.310000X0.695000*%
%ADD19R,0.340000X0.190000*%
%ADD20R,0.310000X0.230000*%
%ADD21RoundRect,0.237500X0.237500X-0.300000X0.237500X0.300000X-0.237500X0.300000X-0.237500X-0.300000X0*%
%ADD22RoundRect,0.237500X-0.300000X-0.237500X0.300000X-0.237500X0.300000X0.237500X-0.300000X0.237500X0*%
%ADD23R,1.060000X0.650000*%
%ADD24RoundRect,0.237500X-0.237500X0.300000X-0.237500X-0.300000X0.237500X-0.300000X0.237500X0.300000X0*%
%ADD25RoundRect,0.140000X-0.170000X0.140000X-0.170000X-0.140000X0.170000X-0.140000X0.170000X0.140000X0*%
%ADD26RoundRect,0.140000X-0.140000X-0.170000X0.140000X-0.170000X0.140000X0.170000X-0.140000X0.170000X0*%
%ADD27RoundRect,0.237500X-0.237500X0.287500X-0.237500X-0.287500X0.237500X-0.287500X0.237500X0.287500X0*%
%ADD28RoundRect,0.250000X0.315000X-0.315000X0.315000X0.315000X-0.315000X0.315000X-0.315000X-0.315000X0*%
%ADD29RoundRect,0.062500X0.062500X-0.362500X0.062500X0.362500X-0.062500X0.362500X-0.062500X-0.362500X0*%
%ADD30RoundRect,0.062500X0.362500X-0.062500X0.362500X0.062500X-0.362500X0.062500X-0.362500X-0.062500X0*%
%ADD31RoundRect,0.147500X-0.147500X-0.172500X0.147500X-0.172500X0.147500X0.172500X-0.147500X0.172500X0*%
%ADD32R,2.600000X1.900000*%
%ADD33RoundRect,0.237500X0.237500X-0.287500X0.237500X0.287500X-0.237500X0.287500X-0.237500X-0.287500X0*%
%ADD34RoundRect,0.237500X0.287500X0.237500X-0.287500X0.237500X-0.287500X-0.237500X0.287500X-0.237500X0*%
%ADD35RoundRect,0.147500X-0.172500X0.147500X-0.172500X-0.147500X0.172500X-0.147500X0.172500X0.147500X0*%
%ADD36R,0.400000X1.350000*%
%ADD37R,1.500000X1.900000*%
%ADD38RoundRect,0.140000X0.140000X0.170000X-0.140000X0.170000X-0.140000X-0.170000X0.140000X-0.170000X0*%
%ADD39RoundRect,0.135000X0.185000X-0.135000X0.185000X0.135000X-0.185000X0.135000X-0.185000X-0.135000X0*%
%ADD40RoundRect,0.145000X-0.205000X0.145000X-0.205000X-0.145000X0.205000X-0.145000X0.205000X0.145000X0*%
%ADD41RoundRect,0.087500X-0.087500X0.200000X-0.087500X-0.200000X0.087500X-0.200000X0.087500X0.200000X0*%
%ADD42RoundRect,0.140000X0.170000X-0.140000X0.170000X0.140000X-0.170000X0.140000X-0.170000X-0.140000X0*%
%ADD43RoundRect,0.147500X0.147500X0.172500X-0.147500X0.172500X-0.147500X-0.172500X0.147500X-0.172500X0*%
%ADD44RoundRect,0.147500X0.172500X-0.147500X0.172500X0.147500X-0.172500X0.147500X-0.172500X-0.147500X0*%
%ADD45RotRect,1.900000X2.600000X225.000000*%
%ADD46RoundRect,0.237500X0.044194X0.380070X-0.380070X-0.044194X-0.044194X-0.380070X0.380070X0.044194X0*%
%ADD47RotRect,1.550000X1.300000X45.000000*%
%ADD48R,2.200000X1.000000*%
%ADD49R,1.800000X3.400000*%
G04 APERTURE END LIST*
D10*
%TO.C,C25*%
X102525000Y-61425000D03*
X103744760Y-60205240D03*
%TD*%
%TO.C,C27*%
X118600000Y-60400000D03*
X119819760Y-59180240D03*
%TD*%
D11*
%TO.C,C28*%
X127400000Y-75400000D03*
X128619760Y-76619760D03*
%TD*%
D12*
%TO.C,C30*%
X117425000Y-83700000D03*
X115700000Y-83700000D03*
%TD*%
D11*
%TO.C,C31*%
X112400000Y-82300000D03*
X113619760Y-83519760D03*
%TD*%
D13*
%TO.C,C32*%
X105244195Y-74802773D03*
X104024435Y-73583013D03*
%TD*%
D10*
%TO.C,C35*%
X112478909Y-62622157D03*
X113698669Y-61402397D03*
%TD*%
D14*
%TO.C,R4*%
X121700000Y-62900000D03*
X122937436Y-61662564D03*
%TD*%
%TO.C,R5*%
X120300000Y-61500000D03*
X121537436Y-60262564D03*
%TD*%
D15*
%TO.C,U7*%
X115315596Y-62330315D03*
X114962043Y-62683868D03*
X114608489Y-63037422D03*
X114254936Y-63390975D03*
X113901383Y-63744528D03*
X113547829Y-64098082D03*
X113194276Y-64451635D03*
X112840722Y-64805189D03*
X112487169Y-65158742D03*
X112133616Y-65512295D03*
X111780062Y-65865849D03*
X111426509Y-66219402D03*
X111072955Y-66572955D03*
X110719402Y-66926509D03*
X110365849Y-67280062D03*
X110012295Y-67633616D03*
X109658742Y-67987169D03*
X109305189Y-68340722D03*
X108951635Y-68694276D03*
X108598082Y-69047829D03*
X108244528Y-69401383D03*
X107890975Y-69754936D03*
X107537422Y-70108489D03*
X107183868Y-70462043D03*
X106830315Y-70815596D03*
D16*
X106830315Y-73184404D03*
X107183868Y-73537957D03*
X107537422Y-73891511D03*
X107890975Y-74245064D03*
X108244528Y-74598617D03*
X108598082Y-74952171D03*
X108951635Y-75305724D03*
X109305189Y-75659278D03*
X109658742Y-76012831D03*
X110012295Y-76366384D03*
X110365849Y-76719938D03*
X110719402Y-77073491D03*
X111072955Y-77427045D03*
X111426509Y-77780598D03*
X111780062Y-78134151D03*
X112133616Y-78487705D03*
X112487169Y-78841258D03*
X112840722Y-79194811D03*
X113194276Y-79548365D03*
X113547829Y-79901918D03*
X113901383Y-80255472D03*
X114254936Y-80609025D03*
X114608489Y-80962578D03*
X114962043Y-81316132D03*
X115315596Y-81669685D03*
D15*
X117684404Y-81669685D03*
X118037957Y-81316132D03*
X118391511Y-80962578D03*
X118745064Y-80609025D03*
X119098617Y-80255472D03*
X119452171Y-79901918D03*
X119805724Y-79548365D03*
X120159278Y-79194811D03*
X120512831Y-78841258D03*
X120866384Y-78487705D03*
X121219938Y-78134151D03*
X121573491Y-77780598D03*
X121927045Y-77427045D03*
X122280598Y-77073491D03*
X122634151Y-76719938D03*
X122987705Y-76366384D03*
X123341258Y-76012831D03*
X123694811Y-75659278D03*
X124048365Y-75305724D03*
X124401918Y-74952171D03*
X124755472Y-74598617D03*
X125109025Y-74245064D03*
X125462578Y-73891511D03*
X125816132Y-73537957D03*
X126169685Y-73184404D03*
D16*
X126169685Y-70815596D03*
X125816132Y-70462043D03*
X125462578Y-70108489D03*
X125109025Y-69754936D03*
X124755472Y-69401383D03*
X124401918Y-69047829D03*
X124048365Y-68694276D03*
X123694811Y-68340722D03*
X123341258Y-67987169D03*
X122987705Y-67633616D03*
X122634151Y-67280062D03*
X122280598Y-66926509D03*
X121927045Y-66572955D03*
X121573491Y-66219402D03*
X121219938Y-65865849D03*
X120866384Y-65512295D03*
X120512831Y-65158742D03*
X120159278Y-64805189D03*
X119805724Y-64451635D03*
X119452171Y-64098082D03*
X119098617Y-63744528D03*
X118745064Y-63390975D03*
X118391511Y-63037422D03*
X118037957Y-62683868D03*
X117684404Y-62330315D03*
%TD*%
D17*
%TO.C,U3*%
X141340000Y-124590000D03*
D18*
X141895000Y-124822500D03*
D17*
X142450000Y-124590000D03*
D19*
X142450000Y-125000000D03*
D17*
X142450000Y-125410000D03*
D20*
X141895000Y-125410000D03*
D17*
X141340000Y-125410000D03*
D19*
X141340000Y-125000000D03*
%TD*%
D10*
%TO.C,C34*%
X111420000Y-61560000D03*
X112639760Y-60340240D03*
%TD*%
D21*
%TO.C,C26*%
X116500000Y-60362500D03*
X116500000Y-58637500D03*
%TD*%
D22*
%TO.C,C29*%
X128100001Y-72500000D03*
X129825001Y-72500000D03*
%TD*%
D23*
%TO.C,U5*%
X129600000Y-60250000D03*
X129600000Y-61200000D03*
X129600000Y-62150000D03*
X131800000Y-62150000D03*
X131800000Y-61200000D03*
X131800000Y-60250000D03*
%TD*%
D24*
%TO.C,C2*%
X126720000Y-89270001D03*
X126720000Y-90995001D03*
%TD*%
D25*
%TO.C,C3*%
X137300000Y-89440000D03*
X137300000Y-90400000D03*
%TD*%
D26*
%TO.C,C12*%
X151130000Y-107740000D03*
X152090000Y-107740000D03*
%TD*%
D21*
%TO.C,C13*%
X143250000Y-58000000D03*
X143250000Y-56275000D03*
%TD*%
D25*
%TO.C,C15*%
X152540000Y-87540000D03*
X152540000Y-88500000D03*
%TD*%
%TO.C,C17*%
X152540000Y-89440000D03*
X152540000Y-90400000D03*
%TD*%
D27*
%TO.C,D1*%
X143250000Y-59850000D03*
X143250000Y-61600000D03*
%TD*%
D28*
%TO.C,U1*%
X134800000Y-88550000D03*
X133500000Y-89850000D03*
X134800000Y-89850000D03*
X133500000Y-88550000D03*
D29*
X133150000Y-91125000D03*
X133650000Y-91125000D03*
X134150000Y-91125000D03*
X134650000Y-91125000D03*
X135150000Y-91125000D03*
D30*
X136075000Y-90200000D03*
X136075000Y-89700000D03*
X136075000Y-89200000D03*
X136075000Y-88700000D03*
X136075000Y-88200000D03*
D29*
X135150000Y-87275000D03*
X134650000Y-87275000D03*
X134150000Y-87275000D03*
X133650000Y-87275000D03*
X133150000Y-87275000D03*
D30*
X132225000Y-88200000D03*
X132225000Y-88700000D03*
X132225000Y-89200000D03*
X132225000Y-89700000D03*
X132225000Y-90200000D03*
%TD*%
D31*
%TO.C,L1*%
X133437500Y-94350000D03*
X134407500Y-94350000D03*
%TD*%
D25*
%TO.C,C7*%
X133400000Y-95640000D03*
X133400000Y-96600000D03*
%TD*%
%TO.C,C8*%
X133900000Y-97590000D03*
X133900000Y-98550000D03*
%TD*%
%TO.C,C6*%
X135700000Y-93340000D03*
X135700000Y-94300000D03*
%TD*%
D32*
%TO.C,Y1*%
X129490000Y-90595000D03*
X129490000Y-86295000D03*
%TD*%
D12*
%TO.C,FB1*%
X141225000Y-61600000D03*
X139500000Y-61600000D03*
%TD*%
D33*
%TO.C,R2*%
X154200000Y-61200000D03*
X154200000Y-59450000D03*
%TD*%
D34*
%TO.C,R3*%
X147300000Y-62800000D03*
X145550000Y-62800000D03*
%TD*%
D35*
%TO.C,L2*%
X134420000Y-95635000D03*
X134420000Y-96605000D03*
%TD*%
D36*
%TO.C,J4*%
X139200000Y-59662500D03*
X138550000Y-59662500D03*
X137900000Y-59662500D03*
X137250000Y-59662500D03*
X136600000Y-59662500D03*
D37*
X136900000Y-56962500D03*
X138900000Y-56962500D03*
%TD*%
D21*
%TO.C,C18*%
X141970000Y-87620000D03*
X141970000Y-85895000D03*
%TD*%
%TO.C,C4*%
X126719999Y-87620000D03*
X126719999Y-85895000D03*
%TD*%
D26*
%TO.C,C11*%
X147960000Y-107120000D03*
X148920000Y-107120000D03*
%TD*%
D35*
%TO.C,L9*%
X149900000Y-101317501D03*
X149900000Y-102287501D03*
%TD*%
%TO.C,L4*%
X149900000Y-107110000D03*
X149900000Y-108080000D03*
%TD*%
D26*
%TO.C,C21*%
X150880000Y-102300000D03*
X151840000Y-102300000D03*
%TD*%
D35*
%TO.C,L11*%
X149900000Y-105170000D03*
X149900000Y-106140000D03*
%TD*%
D38*
%TO.C,C22*%
X148920000Y-104220000D03*
X147960000Y-104220000D03*
%TD*%
D39*
%TO.C,R1*%
X151980000Y-110910000D03*
X151980000Y-109890000D03*
%TD*%
D40*
%TO.C,U2*%
X149215000Y-110785000D03*
X150085000Y-110055000D03*
X150085000Y-110785000D03*
X149215000Y-110055000D03*
D41*
X150400000Y-109132500D03*
X149900000Y-109132500D03*
X149400000Y-109132500D03*
X148900000Y-109132500D03*
X148900000Y-111707500D03*
X149400000Y-111707500D03*
X149900000Y-111707500D03*
X150400000Y-111707500D03*
%TD*%
D42*
%TO.C,C9*%
X132890000Y-110710000D03*
X132890000Y-109750000D03*
%TD*%
D35*
%TO.C,L3*%
X133900000Y-110730000D03*
X133900000Y-111700000D03*
%TD*%
D42*
%TO.C,C10*%
X134910000Y-111570000D03*
X134910000Y-110610000D03*
%TD*%
D43*
%TO.C,L8*%
X148910000Y-97220000D03*
X147940000Y-97220000D03*
%TD*%
D31*
%TO.C,L6*%
X150880000Y-94350000D03*
X151850000Y-94350000D03*
%TD*%
D25*
%TO.C,C20*%
X149900000Y-94307500D03*
X149900000Y-95267500D03*
%TD*%
D35*
%TO.C,L7*%
X149900000Y-96220000D03*
X149900000Y-97190000D03*
%TD*%
D32*
%TO.C,Y2*%
X144740000Y-90595000D03*
X144740000Y-86295000D03*
%TD*%
D28*
%TO.C,U6*%
X150050000Y-89850000D03*
X148750000Y-89850000D03*
X150050000Y-88550000D03*
X148750000Y-88550000D03*
D29*
X148400000Y-91125000D03*
X148900000Y-91125000D03*
X149400000Y-91125000D03*
X149900000Y-91125000D03*
X150400000Y-91125000D03*
D30*
X151325000Y-90200000D03*
X151325000Y-89700000D03*
X151325000Y-89200000D03*
X151325000Y-88700000D03*
X151325000Y-88200000D03*
D29*
X150400000Y-87275000D03*
X149900000Y-87275000D03*
X149400000Y-87275000D03*
X148900000Y-87275000D03*
X148400000Y-87275000D03*
D30*
X147475000Y-88200000D03*
X147475000Y-88700000D03*
X147475000Y-89200000D03*
X147475000Y-89700000D03*
X147475000Y-90200000D03*
%TD*%
D24*
%TO.C,C16*%
X141970000Y-89280000D03*
X141970000Y-91005000D03*
%TD*%
D34*
%TO.C,D4*%
X101145000Y-98500000D03*
X99395000Y-98500000D03*
%TD*%
%TO.C,D6*%
X101150000Y-101900000D03*
X99400000Y-101900000D03*
%TD*%
%TO.C,R6*%
X104495000Y-101900000D03*
X102745000Y-101900000D03*
%TD*%
%TO.C,R8*%
X104495000Y-98500000D03*
X102745000Y-98500000D03*
%TD*%
%TO.C,R10*%
X104495000Y-95100000D03*
X102745000Y-95100000D03*
%TD*%
%TO.C,D3*%
X101145000Y-96800000D03*
X99395000Y-96800000D03*
%TD*%
%TO.C,R7*%
X104495000Y-100200000D03*
X102745000Y-100200000D03*
%TD*%
%TO.C,R9*%
X104495000Y-96800000D03*
X102745000Y-96800000D03*
%TD*%
%TO.C,D5*%
X101145000Y-100200000D03*
X99395000Y-100200000D03*
%TD*%
D44*
%TO.C,L5*%
X153030000Y-110900000D03*
X153030000Y-109930000D03*
%TD*%
D25*
%TO.C,C1*%
X137300000Y-87540000D03*
X137300000Y-88500000D03*
%TD*%
D45*
%TO.C,Y3*%
X107849354Y-60075646D03*
X104808794Y-63116206D03*
%TD*%
D22*
%TO.C,C14*%
X148950001Y-62800000D03*
X150675001Y-62800000D03*
%TD*%
D46*
%TO.C,C24*%
X106150000Y-57800000D03*
X104930240Y-59019760D03*
%TD*%
D13*
%TO.C,C23*%
X102800000Y-65980000D03*
X101580240Y-64760240D03*
%TD*%
D47*
%TO.C,SW1*%
X107823295Y-83194725D03*
X102194725Y-88823295D03*
X111005275Y-86376705D03*
X105376705Y-92005275D03*
%TD*%
D34*
%TO.C,D2*%
X101145000Y-95100000D03*
X99395000Y-95100000D03*
%TD*%
D46*
%TO.C,C33*%
X106299999Y-68100000D03*
X105080239Y-69319760D03*
%TD*%
D42*
%TO.C,C5*%
X137300000Y-92280000D03*
X137300000Y-91320000D03*
%TD*%
D35*
%TO.C,L10*%
X149900000Y-103230000D03*
X149900000Y-104200000D03*
%TD*%
D42*
%TO.C,C19*%
X152540000Y-92310000D03*
X152540000Y-91350000D03*
%TD*%
D48*
%TO.C,U4*%
X145550000Y-56150000D03*
X145550000Y-57650000D03*
X145550000Y-59150000D03*
X145550000Y-60650000D03*
D49*
X151850000Y-58400000D03*
%TD*%
M02*
