%TF.GenerationSoftware,KiCad,Pcbnew,(6.0.1)*%
%TF.CreationDate,2022-01-25T11:54:46-06:00*%
%TF.ProjectId,Telemetry_KiCAD_Project,54656c65-6d65-4747-9279-5f4b69434144,rev?*%
%TF.SameCoordinates,Original*%
%TF.FileFunction,Soldermask,Top*%
%TF.FilePolarity,Negative*%
%FSLAX46Y46*%
G04 Gerber Fmt 4.6, Leading zero omitted, Abs format (unit mm)*
G04 Created by KiCad (PCBNEW (6.0.1)) date 2022-01-25 11:54:46*
%MOMM*%
%LPD*%
G01*
G04 APERTURE LIST*
G04 Aperture macros list*
%AMRoundRect*
0 Rectangle with rounded corners*
0 $1 Rounding radius*
0 $2 $3 $4 $5 $6 $7 $8 $9 X,Y pos of 4 corners*
0 Add a 4 corners polygon primitive as box body*
4,1,4,$2,$3,$4,$5,$6,$7,$8,$9,$2,$3,0*
0 Add four circle primitives for the rounded corners*
1,1,$1+$1,$2,$3*
1,1,$1+$1,$4,$5*
1,1,$1+$1,$6,$7*
1,1,$1+$1,$8,$9*
0 Add four rect primitives between the rounded corners*
20,1,$1+$1,$2,$3,$4,$5,0*
20,1,$1+$1,$4,$5,$6,$7,0*
20,1,$1+$1,$6,$7,$8,$9,0*
20,1,$1+$1,$8,$9,$2,$3,0*%
G04 Aperture macros list end*
%ADD10C,1.600000*%
%ADD11C,0.693370*%
%ADD12C,0.450000*%
%ADD13C,0.740000*%
%ADD14C,2.000000*%
%ADD15C,3.200000*%
%ADD16C,1.093370*%
%ADD17RoundRect,0.288500X-0.044194X-0.380070X0.380070X0.044194X0.044194X0.380070X-0.380070X-0.044194X0*%
%ADD18RoundRect,0.288500X-0.380070X0.044194X0.044194X-0.380070X0.380070X-0.044194X-0.044194X0.380070X0*%
%ADD19RoundRect,0.288500X0.300000X0.237500X-0.300000X0.237500X-0.300000X-0.237500X0.300000X-0.237500X0*%
%ADD20RoundRect,0.288500X0.380070X-0.044194X-0.044194X0.380070X-0.380070X0.044194X0.044194X-0.380070X0*%
%ADD21C,2.152000*%
%ADD22C,2.352000*%
%ADD23RoundRect,0.288500X-0.035355X-0.371231X0.371231X0.035355X0.035355X0.371231X-0.371231X-0.035355X0*%
%ADD24RoundRect,0.126000X-0.565685X0.459619X0.459619X-0.565685X0.565685X-0.459619X-0.459619X0.565685X0*%
%ADD25RoundRect,0.126000X-0.565685X-0.459619X-0.459619X-0.565685X0.565685X0.459619X0.459619X0.565685X0*%
%ADD26RoundRect,0.051000X-0.825000X0.825000X-0.825000X-0.825000X0.825000X-0.825000X0.825000X0.825000X0*%
%ADD27C,1.752000*%
%ADD28C,4.902000*%
%ADD29RoundRect,0.051000X0.170000X-0.115000X0.170000X0.115000X-0.170000X0.115000X-0.170000X-0.115000X0*%
%ADD30RoundRect,0.051000X0.155000X-0.347500X0.155000X0.347500X-0.155000X0.347500X-0.155000X-0.347500X0*%
%ADD31RoundRect,0.051000X0.170000X-0.095000X0.170000X0.095000X-0.170000X0.095000X-0.170000X-0.095000X0*%
%ADD32RoundRect,0.051000X0.155000X-0.115000X0.155000X0.115000X-0.155000X0.115000X-0.155000X-0.115000X0*%
%ADD33RoundRect,0.288500X0.237500X-0.300000X0.237500X0.300000X-0.237500X0.300000X-0.237500X-0.300000X0*%
%ADD34RoundRect,0.288500X-0.300000X-0.237500X0.300000X-0.237500X0.300000X0.237500X-0.300000X0.237500X0*%
%ADD35RoundRect,0.051000X-0.530000X-0.325000X0.530000X-0.325000X0.530000X0.325000X-0.530000X0.325000X0*%
%ADD36RoundRect,0.288500X-0.237500X0.300000X-0.237500X-0.300000X0.237500X-0.300000X0.237500X0.300000X0*%
%ADD37RoundRect,0.191000X-0.170000X0.140000X-0.170000X-0.140000X0.170000X-0.140000X0.170000X0.140000X0*%
%ADD38RoundRect,0.191000X-0.140000X-0.170000X0.140000X-0.170000X0.140000X0.170000X-0.140000X0.170000X0*%
%ADD39RoundRect,0.288500X-0.237500X0.287500X-0.237500X-0.287500X0.237500X-0.287500X0.237500X0.287500X0*%
%ADD40RoundRect,0.113500X0.062500X-0.362500X0.062500X0.362500X-0.062500X0.362500X-0.062500X-0.362500X0*%
%ADD41RoundRect,0.113500X0.362500X-0.062500X0.362500X0.062500X-0.362500X0.062500X-0.362500X-0.062500X0*%
%ADD42RoundRect,0.051000X1.300000X-1.300000X1.300000X1.300000X-1.300000X1.300000X-1.300000X-1.300000X0*%
%ADD43RoundRect,0.198500X-0.147500X-0.172500X0.147500X-0.172500X0.147500X0.172500X-0.147500X0.172500X0*%
%ADD44RoundRect,0.051000X1.300000X-0.950000X1.300000X0.950000X-1.300000X0.950000X-1.300000X-0.950000X0*%
%ADD45RoundRect,0.288500X0.237500X-0.287500X0.237500X0.287500X-0.237500X0.287500X-0.237500X-0.287500X0*%
%ADD46RoundRect,0.288500X0.287500X0.237500X-0.287500X0.237500X-0.287500X-0.237500X0.287500X-0.237500X0*%
%ADD47RoundRect,0.198500X-0.172500X0.147500X-0.172500X-0.147500X0.172500X-0.147500X0.172500X0.147500X0*%
%ADD48RoundRect,0.051000X0.200000X0.675000X-0.200000X0.675000X-0.200000X-0.675000X0.200000X-0.675000X0*%
%ADD49O,1.302000X2.002000*%
%ADD50C,1.552000*%
%ADD51RoundRect,0.051000X0.600000X0.950000X-0.600000X0.950000X-0.600000X-0.950000X0.600000X-0.950000X0*%
%ADD52RoundRect,0.051000X0.750000X0.950000X-0.750000X0.950000X-0.750000X-0.950000X0.750000X-0.950000X0*%
%ADD53RoundRect,0.191000X0.140000X0.170000X-0.140000X0.170000X-0.140000X-0.170000X0.140000X-0.170000X0*%
%ADD54RoundRect,0.186000X0.185000X-0.135000X0.185000X0.135000X-0.185000X0.135000X-0.185000X-0.135000X0*%
%ADD55RoundRect,0.138500X-0.087500X0.200000X-0.087500X-0.200000X0.087500X-0.200000X0.087500X0.200000X0*%
%ADD56RoundRect,0.301000X-0.620000X0.475000X-0.620000X-0.475000X0.620000X-0.475000X0.620000X0.475000X0*%
%ADD57RoundRect,0.191000X0.170000X-0.140000X0.170000X0.140000X-0.170000X0.140000X-0.170000X-0.140000X0*%
%ADD58RoundRect,0.198500X0.147500X0.172500X-0.147500X0.172500X-0.147500X-0.172500X0.147500X-0.172500X0*%
%ADD59RoundRect,0.198500X0.172500X-0.147500X0.172500X0.147500X-0.172500X0.147500X-0.172500X-0.147500X0*%
%ADD60RoundRect,0.051000X0.850000X0.850000X-0.850000X0.850000X-0.850000X-0.850000X0.850000X-0.850000X0*%
%ADD61O,1.802000X1.802000*%
%ADD62RoundRect,0.051000X-0.247487X1.590990X-1.590990X0.247487X0.247487X-1.590990X1.590990X-0.247487X0*%
%ADD63RoundRect,0.288500X0.044194X0.380070X-0.380070X-0.044194X-0.044194X-0.380070X0.380070X0.044194X0*%
%ADD64RoundRect,0.051000X-0.088388X-1.007627X1.007627X0.088388X0.088388X1.007627X-1.007627X-0.088388X0*%
%ADD65RoundRect,0.051000X0.850000X-0.850000X0.850000X0.850000X-0.850000X0.850000X-0.850000X-0.850000X0*%
%ADD66RoundRect,0.051000X-1.100000X-0.500000X1.100000X-0.500000X1.100000X0.500000X-1.100000X0.500000X0*%
%ADD67RoundRect,0.051000X-0.900000X-1.700000X0.900000X-1.700000X0.900000X1.700000X-0.900000X1.700000X0*%
G04 APERTURE END LIST*
D10*
X142131945Y-133724515D02*
X141899999Y-133731193D01*
X142592766Y-133671228D02*
X142363122Y-133704505D01*
X142820114Y-133624795D02*
X142592766Y-133671228D01*
X143044415Y-133565360D02*
X142820114Y-133624795D01*
X142363122Y-133704505D02*
X142131945Y-133724515D01*
X141668053Y-133724515D02*
X141436876Y-133704505D01*
X143264925Y-133493119D02*
X143044415Y-133565360D01*
X143691667Y-133311220D02*
X143480914Y-133408312D01*
X143691667Y-133311220D02*
X144440000Y-132940000D01*
X144849056Y-128730056D02*
X144440000Y-127860000D01*
X145143939Y-129607775D02*
X145089343Y-129382327D01*
X145185447Y-129835996D02*
X145143939Y-129607775D01*
X144941656Y-128942736D02*
X144849056Y-128730056D01*
X145213728Y-130066230D02*
X145185447Y-129835996D01*
X145228689Y-130297712D02*
X145213728Y-130066230D01*
X145230281Y-130529672D02*
X145228689Y-130297712D01*
X143480914Y-133408312D02*
X143264925Y-133493119D01*
X145218496Y-130761337D02*
X145230281Y-130529672D01*
X145089343Y-129382327D02*
X145021840Y-129160401D01*
X141899999Y-133731193D02*
X141668053Y-133724515D01*
X145193376Y-130991938D02*
X145218496Y-130761337D01*
X145155003Y-131220707D02*
X145193376Y-130991938D01*
X145021840Y-129160401D02*
X144941656Y-128942736D01*
X144872189Y-132102389D02*
X144961862Y-131888458D01*
X144770332Y-132310795D02*
X144440000Y-132940000D01*
X144770332Y-132310795D02*
X144872189Y-132102389D01*
X138628769Y-129707232D02*
X138675201Y-129479883D01*
X138575482Y-130168053D02*
X138595492Y-129936875D01*
X138575482Y-130631945D02*
X138568805Y-130399999D01*
X138734637Y-129255582D02*
X138806877Y-129035072D01*
X138988779Y-128608332D02*
X139360000Y-127860000D01*
X138806877Y-129035072D02*
X138891685Y-128819083D01*
X138595492Y-129936875D02*
X138628769Y-129707232D01*
X138734637Y-131544415D02*
X138675202Y-131320114D01*
X138595492Y-130863122D02*
X138575482Y-130631945D01*
X138675202Y-131320114D02*
X138628769Y-131092766D01*
X138568805Y-130399999D02*
X138575482Y-130168053D01*
X138628769Y-131092766D02*
X138595492Y-130863122D01*
X138806878Y-131764926D02*
X138734637Y-131544415D01*
X145039053Y-131669714D02*
X145103505Y-131446883D01*
X145103505Y-131446883D02*
X145155003Y-131220707D01*
X138891685Y-128819083D02*
X138988779Y-128608332D01*
X144961862Y-131888458D02*
X145039053Y-131669714D01*
X138675201Y-129479883D02*
X138734637Y-129255582D01*
X138891686Y-131980914D02*
X138806878Y-131764926D01*
X138988779Y-132191667D02*
X138891686Y-131980914D01*
X140150000Y-124768315D02*
X139566640Y-124184955D01*
X143650000Y-127900000D02*
X144440000Y-127860000D01*
X149288349Y-118737727D02*
X149449224Y-118445785D01*
X149288349Y-118737727D02*
X149107400Y-119065500D01*
X150479575Y-116089876D02*
X150570584Y-115776819D01*
X143650000Y-124762698D02*
X144360121Y-124052577D01*
X149769621Y-117861158D02*
X149976483Y-117482312D01*
X140150000Y-125650000D02*
X140150000Y-124768315D01*
X150863720Y-113994776D02*
X150880000Y-113650000D01*
X139570000Y-124180000D02*
X144230000Y-124180000D01*
X140150000Y-125650000D02*
X140150000Y-127900000D01*
X140150000Y-127900000D02*
X139360000Y-127860000D01*
X148927610Y-119308219D02*
X149107399Y-119065501D01*
X148519962Y-119835400D02*
X148726511Y-119573916D01*
X148308052Y-120092557D02*
X148519962Y-119835400D01*
X143650000Y-125650000D02*
X143650000Y-127900000D01*
X143380000Y-122710000D02*
X140923665Y-122710000D01*
X148308052Y-120092557D02*
X148036958Y-120414689D01*
X143650000Y-125650000D02*
X143650000Y-124762698D01*
X148726511Y-119573916D02*
X148927610Y-119308219D01*
X149609648Y-118153595D02*
X149769621Y-117861158D01*
X149449224Y-118445785D02*
X149609648Y-118153595D01*
X138988779Y-132191667D02*
X139360000Y-132940000D01*
X146816934Y-121632815D02*
X146798408Y-121632815D01*
X150794545Y-114732235D02*
X150830584Y-114401649D01*
X146710589Y-118871384D02*
X146927467Y-118618377D01*
X147139532Y-118361323D02*
X147279474Y-118188394D01*
X148035060Y-120414689D02*
X146816934Y-121632815D01*
X150740504Y-115060360D02*
X150794545Y-114732235D01*
X150381481Y-116408164D02*
X150479575Y-116089876D01*
X150154922Y-117034485D02*
X150273226Y-116723142D01*
X150154922Y-117034485D02*
X149976483Y-117482312D01*
X150668622Y-115385043D02*
X150740504Y-115060360D01*
X150668622Y-115385043D02*
X150570584Y-115776819D01*
X148036958Y-120414689D02*
X148035060Y-120414689D01*
X150273226Y-116723142D02*
X150381481Y-116408164D01*
X151790000Y-113650000D02*
X148270000Y-113650000D01*
X145588527Y-122842696D02*
X145570002Y-122842696D01*
X146488975Y-119120253D02*
X146710589Y-118871384D01*
X146488975Y-119120253D02*
X146246201Y-119387759D01*
X148001605Y-116979298D02*
X148080930Y-116823278D01*
X147845491Y-117273445D02*
X148001605Y-116979298D01*
X146798408Y-121632815D02*
X145588527Y-122842696D01*
X146927467Y-118618377D02*
X147139532Y-118361323D01*
X145570002Y-122842696D02*
X144360121Y-124052577D01*
X150830584Y-114401649D02*
X150863720Y-113994776D01*
X148530780Y-115599886D02*
X148617940Y-115334061D01*
X148423920Y-115915523D02*
X148530780Y-115599886D01*
X148701032Y-115009388D02*
X148617940Y-115334061D01*
X135154039Y-115228042D02*
X135097106Y-114940479D01*
X135097106Y-114940479D02*
X135036274Y-114612894D01*
X148192117Y-116540353D02*
X148311018Y-116229051D01*
X135036274Y-114612894D02*
X134983223Y-114283960D01*
X148701032Y-115009388D02*
X148774587Y-114685090D01*
X132470000Y-113750000D02*
X134910000Y-113750000D01*
X147502768Y-117844392D02*
X147279474Y-118188394D01*
X148192117Y-116540353D02*
X148080930Y-116823278D01*
X143987243Y-121612650D02*
X143970210Y-121612650D01*
X148311018Y-116229051D02*
X148423920Y-115915523D01*
X148867700Y-114026826D02*
X148900000Y-113650000D01*
X147502768Y-117844392D02*
X147679144Y-117561928D01*
X148774587Y-114685090D02*
X148830199Y-114357239D01*
X148830199Y-114357239D02*
X148867700Y-114026826D01*
X143970210Y-121612650D02*
X142857764Y-122725096D01*
X145116722Y-120500205D02*
X145099688Y-120500205D01*
X145099688Y-120500205D02*
X143987243Y-121612650D01*
X146246201Y-119387759D02*
X146229168Y-119387759D01*
X146229168Y-119387759D02*
X145116722Y-120500205D01*
X147679144Y-117561928D02*
X147845491Y-117273445D01*
X136309791Y-117852210D02*
X136474418Y-118122929D01*
X135439238Y-116104042D02*
X135556089Y-116416054D01*
X135330076Y-115789258D02*
X135439238Y-116104042D01*
X135228671Y-115471891D02*
X135330076Y-115789258D01*
X137521969Y-119342044D02*
X138646032Y-120466107D01*
X139784849Y-121590171D02*
X139799602Y-121590171D01*
X136139206Y-117565931D02*
X135973794Y-117276633D01*
X135660000Y-113750000D02*
X134910000Y-113750000D01*
X135813608Y-116984410D02*
X135680618Y-116736541D01*
X136309791Y-117852210D02*
X136139206Y-117565931D01*
X136647857Y-118351615D02*
X136474418Y-118122929D01*
X134983223Y-114283960D02*
X134937982Y-113953861D01*
X138660785Y-120466107D02*
X139784849Y-121590171D01*
X137292681Y-119114100D02*
X137068782Y-118867604D01*
X137507216Y-119342044D02*
X137521969Y-119342044D01*
X135556089Y-116416054D02*
X135680618Y-116736541D01*
X135973794Y-117276633D02*
X135813608Y-116984410D01*
X135228671Y-115471891D02*
X135154039Y-115228042D01*
X137292681Y-119114100D02*
X137507216Y-119342044D01*
X136853751Y-118613336D02*
X136647857Y-118351615D01*
X139799602Y-121590171D02*
X140923665Y-122714234D01*
X138646032Y-120466107D02*
X138660785Y-120466107D01*
X137068782Y-118867604D02*
X136853751Y-118613336D01*
X136092145Y-120739604D02*
X135864745Y-120495893D01*
X134876245Y-119307569D02*
X134686912Y-119033344D01*
X135070807Y-119578110D02*
X134876245Y-119307569D01*
X133471791Y-116626509D02*
X133368241Y-116310377D01*
X134686912Y-119033344D02*
X134502876Y-118755537D01*
X133961022Y-117770765D02*
X133820481Y-117468741D01*
X133368241Y-116310377D02*
X133280793Y-115989418D01*
X135414121Y-120004614D02*
X135255101Y-119829256D01*
X134110042Y-118068697D02*
X133961022Y-117770765D01*
X133280793Y-115989418D02*
X133220806Y-115745061D01*
X133820481Y-117468741D02*
X133699912Y-117199764D01*
X134267421Y-118362300D02*
X134110042Y-118068697D01*
X133591181Y-116937006D02*
X133471791Y-116626509D01*
X134267421Y-118362300D02*
X134382863Y-118570544D01*
X133591181Y-116937006D02*
X133699912Y-117199764D01*
X138475762Y-123108209D02*
X138489894Y-123108209D01*
X138489894Y-123108209D02*
X139566640Y-124184955D01*
X135070807Y-119578110D02*
X135255101Y-119829256D01*
X135638735Y-120250894D02*
X135414121Y-120004614D01*
X132956190Y-114236542D02*
X132960000Y-113750000D01*
X135864745Y-120495893D02*
X135638735Y-120250894D01*
X134502876Y-118755537D02*
X134382863Y-118570544D01*
X136092145Y-120739604D02*
X136294006Y-120954717D01*
D11*
X149164914Y-116845518D02*
X148972837Y-117278837D01*
D10*
X133152087Y-115483579D02*
X133076558Y-115159756D01*
D11*
X148526105Y-118114615D02*
X148272525Y-118515060D01*
X149853498Y-114096537D02*
X149795478Y-114566954D01*
X149484178Y-115953236D02*
X149335498Y-116403296D01*
D10*
X133152087Y-115483579D02*
X133220806Y-115745061D01*
X136294006Y-120954717D02*
X136308138Y-120954717D01*
D11*
X149795478Y-114566954D02*
X149714445Y-115033958D01*
X148759730Y-117702209D02*
X148526105Y-118114615D01*
D10*
X133019175Y-114832230D02*
X132980117Y-114502018D01*
X137384884Y-122031463D02*
X137399016Y-122031463D01*
X132980117Y-114502018D02*
X132956190Y-114236542D01*
X136308138Y-120954717D02*
X137384884Y-122031463D01*
D11*
X148972837Y-117278837D02*
X148759730Y-117702209D01*
X149335498Y-116403296D02*
X149164914Y-116845518D01*
D10*
X137399016Y-122031463D02*
X138475762Y-123108209D01*
X133076558Y-115159756D02*
X133019175Y-114832230D01*
D11*
X149610595Y-115496424D02*
X149484178Y-115953236D01*
X149714445Y-115033958D02*
X149610595Y-115496424D01*
X149888367Y-113623839D02*
X149853498Y-114096537D01*
X147707994Y-119276243D02*
X147398401Y-119635146D01*
D12*
X149900000Y-111970000D02*
X149900000Y-112890000D01*
D11*
X136728427Y-119978427D02*
X141360000Y-124550000D01*
X133911632Y-113623839D02*
X133946500Y-114096537D01*
X136401597Y-119635146D02*
X136728427Y-119978427D01*
D13*
X133900000Y-111890000D02*
X133900000Y-112970000D01*
D11*
X147398401Y-119635146D02*
X147071572Y-119978427D01*
X134827161Y-117278837D02*
X135040269Y-117702209D01*
X135273893Y-118114615D02*
X135527473Y-118515060D01*
X135800396Y-118902581D02*
X136092004Y-119276243D01*
X136092004Y-119276243D02*
X136401597Y-119635146D01*
X148272525Y-118515060D02*
X147999602Y-118902581D01*
X147071572Y-119978427D02*
X142430000Y-124550000D01*
X134004520Y-114566954D02*
X134085553Y-115033958D01*
X134315820Y-115953236D02*
X134464500Y-116403296D01*
X134464500Y-116403296D02*
X134635084Y-116845518D01*
X134189403Y-115496424D02*
X134315820Y-115953236D01*
X135527473Y-118515060D02*
X135800396Y-118902581D01*
X133946500Y-114096537D02*
X134004520Y-114566954D01*
X134085553Y-115033958D02*
X134189403Y-115496424D01*
X135040269Y-117702209D02*
X135273893Y-118114615D01*
X147999602Y-118902581D02*
X147707994Y-119276243D01*
X134635084Y-116845518D02*
X134827161Y-117278837D01*
D10*
X140319084Y-133408312D02*
X140108332Y-133311220D01*
D14*
X143711077Y-130400000D02*
G75*
G03*
X143711077Y-130400000I-1811077J0D01*
G01*
D10*
X140108332Y-133311220D02*
X139360000Y-132940000D01*
X141436876Y-133704505D02*
X141207232Y-133671228D01*
X140979883Y-133624796D02*
X140755583Y-133565360D01*
D15*
X141900000Y-124800000D02*
X141983360Y-132800000D01*
D16*
X141900000Y-130400000D02*
X141900000Y-125440000D01*
D10*
X140535072Y-133493119D02*
X140319084Y-133408312D01*
X140755583Y-133565360D02*
X140535072Y-133493119D01*
X141207232Y-133671228D02*
X140979883Y-133624796D01*
X129333187Y-93563187D02*
X129207078Y-93487600D01*
X130556526Y-94718846D02*
X130614932Y-94821947D01*
X130614932Y-94821947D02*
X130668209Y-94927790D01*
X130424900Y-94521854D02*
X130493131Y-94618734D01*
X130192893Y-94252893D02*
X130274600Y-94338713D01*
X127854951Y-93077437D02*
X127500000Y-93060000D01*
X128206484Y-93129582D02*
X127854951Y-93077437D01*
X130888374Y-95723365D02*
X130897091Y-95841540D01*
X128885819Y-93335656D02*
X128551213Y-93215932D01*
X129207078Y-93487600D02*
X128885819Y-93335656D01*
X128551213Y-93215932D02*
X128206484Y-93129582D01*
X129511897Y-93670302D02*
X129333187Y-93563187D01*
X130060660Y-94120660D02*
X129797341Y-93882001D01*
X130853611Y-95489010D02*
X130873869Y-95605761D01*
X130758874Y-95146675D02*
X130796044Y-95259190D01*
X130827648Y-95373393D02*
X130853611Y-95489010D01*
X130873869Y-95605761D02*
X130888374Y-95723365D01*
X130796044Y-95259190D02*
X130827648Y-95373393D01*
X130493131Y-94618734D02*
X130556526Y-94718846D01*
X130351998Y-94428438D02*
X130424900Y-94521854D01*
X130274600Y-94338713D02*
X130351998Y-94428438D01*
X130897091Y-95841540D02*
X130900000Y-95960000D01*
X130192893Y-94252893D02*
X130060660Y-94120660D01*
X129797341Y-93882001D02*
X129511897Y-93670302D01*
X130716228Y-95036120D02*
X130758874Y-95146675D01*
X130668209Y-94927790D02*
X130716228Y-95036120D01*
X130902907Y-96980000D02*
X130900000Y-95950000D01*
X141340000Y-93060000D02*
X141024881Y-93039346D01*
X140715155Y-92977737D02*
X140416120Y-92876228D01*
X139419111Y-92115743D02*
X139585685Y-92305685D01*
X140132893Y-92736556D02*
X139870319Y-92561110D01*
X141024881Y-93039346D02*
X140715155Y-92977737D01*
X139870319Y-92561110D02*
X139632893Y-92352893D01*
X139036523Y-91192094D02*
X139085809Y-91439875D01*
X139167016Y-91679103D02*
X139278754Y-91905685D01*
X139278754Y-91905685D02*
X139419111Y-92115743D01*
X139585685Y-92305685D02*
X139632893Y-92352893D01*
X139020000Y-90940000D02*
X139036523Y-91192094D01*
X139085809Y-91439875D02*
X139167016Y-91679103D01*
X141340000Y-93060000D02*
X142740000Y-93060000D01*
X147152842Y-84082842D02*
X147057871Y-83999555D01*
X146719937Y-83832904D02*
X146596047Y-83808261D01*
X146596047Y-83808261D02*
X146470000Y-83800000D01*
X146470000Y-83800000D02*
X144745940Y-83800000D01*
X142740000Y-93060000D02*
X147300000Y-93060000D01*
X147460000Y-84790000D02*
X147460000Y-85210000D01*
X146839551Y-83873507D02*
X146719937Y-83832904D01*
X146952842Y-83929376D02*
X146839551Y-83873507D01*
X147177157Y-84107157D02*
X147260444Y-84202127D01*
X147260444Y-84202127D02*
X147330622Y-84307157D01*
X147330622Y-84307157D02*
X147386491Y-84420448D01*
X147386491Y-84420448D02*
X147427094Y-84540062D01*
X147427094Y-84540062D02*
X147451738Y-84663952D01*
X147460000Y-85210000D02*
X147460000Y-85210000D01*
X147451738Y-84663952D02*
X147460000Y-84790000D01*
X147152842Y-84082842D02*
X147177157Y-84107157D01*
X147057871Y-83999555D02*
X146952842Y-83929376D01*
X139036523Y-91192094D02*
X139020000Y-90940000D01*
X139278754Y-84864314D02*
X139167016Y-85090896D01*
X141050000Y-83800000D02*
X140797905Y-83816522D01*
X139167016Y-85090896D02*
X139085809Y-85330124D01*
X140797905Y-83816522D02*
X140550124Y-83865808D01*
X139585685Y-84464314D02*
X139419110Y-84654255D01*
X139036522Y-85577905D02*
X139036522Y-85577905D01*
X141050000Y-83800000D02*
X142820000Y-83800000D01*
X140310896Y-83947015D02*
X140084314Y-84058753D01*
X140084314Y-84058753D02*
X139874255Y-84199109D01*
X139085809Y-85330124D02*
X139036522Y-85577905D01*
X140550124Y-83865808D02*
X140310896Y-83947015D01*
X139020000Y-89440000D02*
X139020000Y-90940000D01*
X140550124Y-83865808D02*
X140550124Y-83865808D01*
X139020000Y-85830000D02*
X139020000Y-87680000D01*
X139036523Y-91192094D02*
X139036523Y-91192094D01*
X139874255Y-84199109D02*
X139684314Y-84365684D01*
X139036522Y-85577905D02*
X139020000Y-85830000D01*
X139020000Y-87680000D02*
X139020000Y-89440000D01*
X139684314Y-84365684D02*
X139585685Y-84464314D01*
X142820000Y-83800000D02*
X145090000Y-83800000D01*
X148542643Y-114280422D02*
X148452901Y-114067660D01*
X137083770Y-95006119D02*
X137131789Y-94897789D01*
X153782684Y-112658998D02*
X153912983Y-112562983D01*
X127570000Y-83800000D02*
X129840000Y-83800000D01*
X125060896Y-83947015D02*
X124834314Y-84058753D01*
X146779117Y-111349309D02*
X146840239Y-111589930D01*
X137041124Y-95116675D02*
X137083770Y-95006119D01*
X153583187Y-112770517D02*
X153782684Y-112658998D01*
X124169111Y-92115743D02*
X124335685Y-92305685D01*
X136796043Y-112400808D02*
X136716227Y-112623879D01*
X136888374Y-111936634D02*
X136853610Y-112170989D01*
X123786522Y-85577905D02*
X123786522Y-85577905D01*
X138288101Y-93640302D02*
X138514565Y-93504565D01*
X138002657Y-93852001D02*
X138288101Y-93640302D01*
X130900000Y-111425000D02*
X130911625Y-111661634D01*
X151820506Y-113797689D02*
X152009121Y-113641780D01*
X146151998Y-94398438D02*
X146224900Y-94491854D01*
X154132283Y-112365903D02*
X154276901Y-112188925D01*
X153966678Y-112523417D02*
X154132283Y-112365903D01*
X147869307Y-113344691D02*
X147699149Y-113169351D01*
X133023022Y-114749595D02*
X132983114Y-114638059D01*
X125547905Y-83816522D02*
X125300124Y-83865808D01*
X145992893Y-94222893D02*
X146074600Y-94308713D01*
X137185066Y-94791946D02*
X137243472Y-94688845D01*
X148201549Y-113681187D02*
X148088823Y-113561177D01*
X131346047Y-83808261D02*
X131220000Y-83800000D01*
X135296572Y-114376934D02*
X135357472Y-114275327D01*
X131185067Y-112563051D02*
X131306868Y-112766264D01*
X132312500Y-113837500D02*
X132721446Y-114246446D01*
X130911625Y-111661634D02*
X130946388Y-111895989D01*
X139945048Y-93047437D02*
X140300000Y-93030000D01*
X123770000Y-87680000D02*
X123770000Y-89440000D01*
X143300000Y-93030000D02*
X140400000Y-93030000D01*
X146697091Y-95811540D02*
X146700000Y-95930000D01*
X125166120Y-92876228D02*
X124882893Y-92736556D01*
X145992893Y-94222893D02*
X145860660Y-94090660D01*
X145597341Y-93852001D02*
X145311897Y-93640302D01*
X125300124Y-83865808D02*
X125060896Y-83947015D01*
X146700000Y-110610000D02*
X146708820Y-110858104D01*
X150730000Y-115330000D02*
X150924395Y-114950182D01*
X124028754Y-91905685D02*
X124169111Y-92115743D01*
X146414932Y-94791947D02*
X146468209Y-94897790D01*
X138592920Y-93457600D02*
X138914180Y-93305656D01*
X135784999Y-113814999D02*
X135507592Y-114092407D01*
X137525398Y-94308711D02*
X137607106Y-94222892D01*
X132136491Y-84420448D02*
X132177094Y-84540062D01*
X151642016Y-113965094D02*
X151820506Y-113797689D01*
X138914180Y-93305656D02*
X139248785Y-93185932D01*
X131702842Y-83929376D02*
X131589551Y-83873507D01*
X146708820Y-110858104D02*
X146735237Y-111104957D01*
X137739339Y-94090660D02*
X138002657Y-93852001D01*
X131220000Y-83800000D02*
X129495940Y-83800000D01*
X125465155Y-92977737D02*
X125166120Y-92876228D01*
X130900000Y-111425000D02*
X130900000Y-111350000D01*
X123786523Y-91192094D02*
X123835809Y-91439875D01*
X125800000Y-83800000D02*
X127570000Y-83800000D01*
X145311897Y-93640302D02*
X145133187Y-93533187D01*
X146708820Y-110858104D02*
X146735237Y-111104957D01*
X147261570Y-112582580D02*
X147220553Y-112509447D01*
X136972350Y-95343393D02*
X137003954Y-95229190D01*
X144006484Y-93099582D02*
X143654951Y-93047437D01*
X145860660Y-94090660D02*
X145597341Y-93852001D01*
X136900000Y-95930000D02*
X136902907Y-95811540D01*
X152207123Y-113497980D02*
X152970000Y-113070000D01*
X123786523Y-91192094D02*
X123770000Y-90940000D01*
X124624255Y-84199109D02*
X124434314Y-84365684D01*
X146627648Y-95343393D02*
X146653611Y-95459010D01*
X140300000Y-93030000D02*
X140400000Y-93030000D01*
X131469937Y-83832904D02*
X131346047Y-83808261D01*
X145133187Y-93533187D02*
X145007078Y-93457600D01*
X154710000Y-108380000D02*
X154710000Y-110990000D01*
X123770000Y-89440000D02*
X123770000Y-90940000D01*
X153490000Y-112820000D02*
X153583187Y-112770517D01*
X146074600Y-94308713D02*
X146151998Y-94398438D01*
X132871565Y-114429366D02*
X132800999Y-114334218D01*
X124028754Y-84864314D02*
X123917016Y-85090896D01*
X135428039Y-114180179D02*
X135507592Y-114092407D01*
X123917016Y-91679103D02*
X124028754Y-91905685D01*
X137448000Y-94398437D02*
X137525398Y-94308711D01*
X132983114Y-114638059D02*
X132932466Y-114530973D01*
X123786523Y-91192094D02*
X123786523Y-91192094D01*
X136946387Y-95459009D02*
X136972350Y-95343393D01*
X148644004Y-114730161D02*
X148606642Y-114502290D01*
X154710000Y-108510000D02*
X154720000Y-86000000D01*
X139248785Y-93185932D02*
X139593515Y-93099582D01*
X133069187Y-114981682D02*
X133051805Y-114864504D01*
X131902842Y-84082842D02*
X131807871Y-83999555D01*
X124434314Y-84365684D02*
X124335685Y-84464314D01*
X137003954Y-95229190D02*
X137041124Y-95116675D01*
X146653611Y-95459010D02*
X146673869Y-95575761D01*
X133051805Y-114864504D02*
X133023022Y-114749595D01*
X131589551Y-83873507D02*
X131469937Y-83832904D01*
X146293131Y-94588734D02*
X146356526Y-94688846D01*
X146700000Y-96970000D02*
X146700000Y-110610000D01*
X146516228Y-95006120D02*
X146558874Y-95116675D01*
X143654951Y-93047437D02*
X143300000Y-93030000D01*
X136900000Y-111700000D02*
X136900000Y-111350000D01*
X138514565Y-93504565D02*
X138592920Y-93457600D01*
X123786522Y-85577905D02*
X123770000Y-85830000D01*
X124335685Y-84464314D02*
X124169110Y-84654255D01*
X148338670Y-113866980D02*
X148201549Y-113681187D01*
X136716227Y-112623879D02*
X136631987Y-112801987D01*
X137131789Y-94897789D02*
X137185066Y-94791946D01*
X146688374Y-95693365D02*
X146697091Y-95811540D01*
X131326825Y-112793175D02*
X131448000Y-112956559D01*
X146700000Y-95930000D02*
X146700000Y-96950000D01*
X123835809Y-85330124D02*
X123786522Y-85577905D01*
X126090000Y-93060000D02*
X127490000Y-93060000D01*
X146945612Y-111922319D02*
X146869521Y-111690139D01*
X133075000Y-115100000D02*
X133069187Y-114981682D01*
X135245924Y-114484020D02*
X135296572Y-114376934D01*
X131607106Y-113132106D02*
X132312500Y-113837500D01*
X125774881Y-93039346D02*
X125465155Y-92977737D01*
X124882893Y-92736556D02*
X124620319Y-92561110D01*
X152970000Y-113070000D02*
X153490000Y-112820000D01*
X131083770Y-112348878D02*
X131185067Y-112563051D01*
X154494469Y-111787941D02*
X154564007Y-111570226D01*
X136900000Y-97000000D02*
X136900000Y-111350000D01*
X137375097Y-94491853D02*
X137448000Y-94398437D01*
X136900000Y-95930000D02*
X136900000Y-96980000D01*
X139593515Y-93099582D02*
X139945048Y-93047437D01*
X132010444Y-84202127D02*
X132080622Y-84307157D01*
X136902907Y-95811540D02*
X136911624Y-95693365D01*
X146558874Y-95116675D02*
X146596044Y-95229190D01*
X124620319Y-92561110D02*
X124382893Y-92352893D01*
X135177232Y-114710465D02*
X135206016Y-114595556D01*
X148088823Y-113561177D02*
X148043455Y-113512880D01*
X132800999Y-114334218D02*
X132721446Y-114246446D01*
X147869307Y-113344691D02*
X148043455Y-113512880D01*
X123770000Y-90940000D02*
X123786523Y-91192094D01*
X131003955Y-112125808D02*
X131083770Y-112348878D01*
X124834314Y-84058753D02*
X124624255Y-84199109D01*
X153912983Y-112562983D02*
X153966678Y-112523417D01*
X146356526Y-94688846D02*
X146414932Y-94791947D01*
X137243472Y-94688845D02*
X137306867Y-94588733D01*
X151318168Y-114331728D02*
X151474351Y-114143340D01*
X123770000Y-85830000D02*
X123770000Y-87680000D01*
X146700000Y-110610000D02*
X146708820Y-110858104D01*
X136911624Y-95693365D02*
X136926129Y-95575761D01*
X136351997Y-113231559D02*
X136192892Y-113407106D01*
X135357472Y-114275327D02*
X135428039Y-114180179D01*
X148606642Y-114502290D02*
X148542643Y-114280422D01*
X123835809Y-91439875D02*
X123917016Y-91679103D01*
X151474351Y-114143340D02*
X151642016Y-113965094D01*
X132932466Y-114530973D02*
X132871565Y-114429366D01*
X131448000Y-112956559D02*
X131607106Y-113132106D01*
X136926129Y-95575761D02*
X136946387Y-95459009D01*
X137607106Y-94222892D02*
X137739339Y-94090660D01*
X147142050Y-112369478D02*
X147036583Y-112149083D01*
X125800000Y-83800000D02*
X125547905Y-83816522D01*
X131927157Y-84107157D02*
X132010444Y-84202127D01*
X148654205Y-114960850D02*
X148644004Y-114730161D01*
X136900000Y-111700000D02*
X136888374Y-111936634D01*
X123917016Y-85090896D02*
X123835809Y-85330124D01*
X132210000Y-85210000D02*
X132210000Y-85210000D01*
X146596044Y-95229190D02*
X146627648Y-95343393D01*
X151174079Y-114529520D02*
X151318168Y-114331728D01*
X147394642Y-112787494D02*
X147261570Y-112582580D01*
X154710000Y-86000000D02*
X152630000Y-86000000D01*
X132177094Y-84540062D02*
X132201738Y-84663952D01*
X146673869Y-95575761D02*
X146688374Y-95693365D01*
X130946388Y-111895989D02*
X131003955Y-112125808D01*
X146224900Y-94491854D02*
X146293131Y-94588734D01*
X146468209Y-94897790D02*
X146516228Y-95006120D01*
X136631987Y-112801987D02*
X136614931Y-112838051D01*
X144351213Y-93185932D02*
X144006484Y-93099582D01*
X125300124Y-83865808D02*
X125300124Y-83865808D01*
X126090000Y-93060000D02*
X125774881Y-93039346D01*
X132201738Y-84663952D02*
X132210000Y-84790000D01*
X136493130Y-113041264D02*
X136351997Y-113231559D01*
X152009121Y-113641780D02*
X152109140Y-113569140D01*
X132080622Y-84307157D02*
X132136491Y-84420448D01*
X147220553Y-112509447D02*
X147142050Y-112369478D01*
X146840239Y-111589930D02*
X146869521Y-111690139D01*
X145007078Y-93457600D02*
X144685819Y-93305656D01*
X154398264Y-111995258D02*
X154494469Y-111787941D01*
X151042650Y-114735941D02*
X151174079Y-114529520D01*
X147540706Y-112983358D02*
X147394642Y-112787494D01*
X137306867Y-94588733D02*
X137375097Y-94491853D01*
X131807871Y-83999555D02*
X131702842Y-83929376D01*
X131902842Y-84082842D02*
X131927157Y-84107157D01*
X136192892Y-113407106D02*
X135784999Y-113814999D01*
X132210000Y-84790000D02*
X132210000Y-85210000D01*
X127490000Y-93060000D02*
X132050000Y-93060000D01*
X130900000Y-97000000D02*
X130900000Y-111330000D01*
X154564007Y-111570226D02*
X154630000Y-111370000D01*
X154276901Y-112188925D02*
X154398264Y-111995258D01*
X150924395Y-114950182D02*
X151042650Y-114735941D01*
X124335685Y-92305685D02*
X124382893Y-92352893D01*
X152109140Y-113569140D02*
X152207123Y-113497980D01*
X135206016Y-114595556D02*
X135245924Y-114484020D01*
X144685819Y-93305656D02*
X144351213Y-93185932D01*
X136853610Y-112170989D02*
X136796043Y-112400808D01*
X146735237Y-111104957D02*
X146779117Y-111349309D01*
X142131945Y-133724515D02*
X141899999Y-133731193D01*
X142592766Y-133671228D02*
X142363122Y-133704505D01*
X142820114Y-133624795D02*
X142592766Y-133671228D01*
X143044415Y-133565360D02*
X142820114Y-133624795D01*
X142363122Y-133704505D02*
X142131945Y-133724515D01*
X141668053Y-133724515D02*
X141436876Y-133704505D01*
X143264925Y-133493119D02*
X143044415Y-133565360D01*
X143691667Y-133311220D02*
X143480914Y-133408312D01*
X143691667Y-133311220D02*
X144440000Y-132940000D01*
X144849056Y-128730056D02*
X144440000Y-127860000D01*
X145143939Y-129607775D02*
X145089343Y-129382327D01*
X145185447Y-129835996D02*
X145143939Y-129607775D01*
X144941656Y-128942736D02*
X144849056Y-128730056D01*
X145213728Y-130066230D02*
X145185447Y-129835996D01*
X145228689Y-130297712D02*
X145213728Y-130066230D01*
X145230281Y-130529672D02*
X145228689Y-130297712D01*
X143480914Y-133408312D02*
X143264925Y-133493119D01*
X145218496Y-130761337D02*
X145230281Y-130529672D01*
X145089343Y-129382327D02*
X145021840Y-129160401D01*
X141899999Y-133731193D02*
X141668053Y-133724515D01*
X145193376Y-130991938D02*
X145218496Y-130761337D01*
X145155003Y-131220707D02*
X145193376Y-130991938D01*
X145021840Y-129160401D02*
X144941656Y-128942736D01*
X144872189Y-132102389D02*
X144961862Y-131888458D01*
X144770332Y-132310795D02*
X144440000Y-132940000D01*
X144770332Y-132310795D02*
X144872189Y-132102389D01*
X138628769Y-129707232D02*
X138675201Y-129479883D01*
X138575482Y-130168053D02*
X138595492Y-129936875D01*
X138575482Y-130631945D02*
X138568805Y-130399999D01*
X138734637Y-129255582D02*
X138806877Y-129035072D01*
X138988779Y-128608332D02*
X139360000Y-127860000D01*
X138806877Y-129035072D02*
X138891685Y-128819083D01*
X138595492Y-129936875D02*
X138628769Y-129707232D01*
X138734637Y-131544415D02*
X138675202Y-131320114D01*
X138595492Y-130863122D02*
X138575482Y-130631945D01*
X138675202Y-131320114D02*
X138628769Y-131092766D01*
X138568805Y-130399999D02*
X138575482Y-130168053D01*
X138628769Y-131092766D02*
X138595492Y-130863122D01*
X138806878Y-131764926D02*
X138734637Y-131544415D01*
X145039053Y-131669714D02*
X145103505Y-131446883D01*
X145103505Y-131446883D02*
X145155003Y-131220707D01*
X138891685Y-128819083D02*
X138988779Y-128608332D01*
X144961862Y-131888458D02*
X145039053Y-131669714D01*
X138675201Y-129479883D02*
X138734637Y-129255582D01*
X138891686Y-131980914D02*
X138806878Y-131764926D01*
X138988779Y-132191667D02*
X138891686Y-131980914D01*
X140150000Y-124768315D02*
X139566640Y-124184955D01*
X143650000Y-127900000D02*
X144440000Y-127860000D01*
X149288349Y-118737727D02*
X149449224Y-118445785D01*
X149288349Y-118737727D02*
X149107400Y-119065500D01*
X150479575Y-116089876D02*
X150570584Y-115776819D01*
X143650000Y-124762698D02*
X144360121Y-124052577D01*
X149769621Y-117861158D02*
X149976483Y-117482312D01*
X140150000Y-125650000D02*
X140150000Y-124768315D01*
X150863720Y-113994776D02*
X150880000Y-113650000D01*
X139570000Y-124180000D02*
X144230000Y-124180000D01*
X140150000Y-125650000D02*
X140150000Y-127900000D01*
X140150000Y-127900000D02*
X139360000Y-127860000D01*
X148927610Y-119308219D02*
X149107399Y-119065501D01*
X148519962Y-119835400D02*
X148726511Y-119573916D01*
X148308052Y-120092557D02*
X148519962Y-119835400D01*
X143650000Y-125650000D02*
X143650000Y-127900000D01*
X143380000Y-122710000D02*
X140923665Y-122710000D01*
X148308052Y-120092557D02*
X148036958Y-120414689D01*
X143650000Y-125650000D02*
X143650000Y-124762698D01*
X148726511Y-119573916D02*
X148927610Y-119308219D01*
X149609648Y-118153595D02*
X149769621Y-117861158D01*
X149449224Y-118445785D02*
X149609648Y-118153595D01*
X138988779Y-132191667D02*
X139360000Y-132940000D01*
X146816934Y-121632815D02*
X146798408Y-121632815D01*
X150794545Y-114732235D02*
X150830584Y-114401649D01*
X146710589Y-118871384D02*
X146927467Y-118618377D01*
X147139532Y-118361323D02*
X147279474Y-118188394D01*
X148035060Y-120414689D02*
X146816934Y-121632815D01*
X150740504Y-115060360D02*
X150794545Y-114732235D01*
X150381481Y-116408164D02*
X150479575Y-116089876D01*
X150154922Y-117034485D02*
X150273226Y-116723142D01*
X150154922Y-117034485D02*
X149976483Y-117482312D01*
X150668622Y-115385043D02*
X150740504Y-115060360D01*
X150668622Y-115385043D02*
X150570584Y-115776819D01*
X148036958Y-120414689D02*
X148035060Y-120414689D01*
X150273226Y-116723142D02*
X150381481Y-116408164D01*
X151790000Y-113650000D02*
X148270000Y-113650000D01*
X145588527Y-122842696D02*
X145570002Y-122842696D01*
X146488975Y-119120253D02*
X146710589Y-118871384D01*
X146488975Y-119120253D02*
X146246201Y-119387759D01*
X148001605Y-116979298D02*
X148080930Y-116823278D01*
X147845491Y-117273445D02*
X148001605Y-116979298D01*
X146798408Y-121632815D02*
X145588527Y-122842696D01*
X146927467Y-118618377D02*
X147139532Y-118361323D01*
X145570002Y-122842696D02*
X144360121Y-124052577D01*
X150830584Y-114401649D02*
X150863720Y-113994776D01*
X148530780Y-115599886D02*
X148617940Y-115334061D01*
X148423920Y-115915523D02*
X148530780Y-115599886D01*
X148701032Y-115009388D02*
X148617940Y-115334061D01*
X135154039Y-115228042D02*
X135097106Y-114940479D01*
X135097106Y-114940479D02*
X135036274Y-114612894D01*
X148192117Y-116540353D02*
X148311018Y-116229051D01*
X135036274Y-114612894D02*
X134983223Y-114283960D01*
X148701032Y-115009388D02*
X148774587Y-114685090D01*
X132470000Y-113750000D02*
X134910000Y-113750000D01*
X147502768Y-117844392D02*
X147279474Y-118188394D01*
X148192117Y-116540353D02*
X148080930Y-116823278D01*
X143987243Y-121612650D02*
X143970210Y-121612650D01*
X148311018Y-116229051D02*
X148423920Y-115915523D01*
X148867700Y-114026826D02*
X148900000Y-113650000D01*
X147502768Y-117844392D02*
X147679144Y-117561928D01*
X148774587Y-114685090D02*
X148830199Y-114357239D01*
X148830199Y-114357239D02*
X148867700Y-114026826D01*
X143970210Y-121612650D02*
X142857764Y-122725096D01*
X145116722Y-120500205D02*
X145099688Y-120500205D01*
X145099688Y-120500205D02*
X143987243Y-121612650D01*
X146246201Y-119387759D02*
X146229168Y-119387759D01*
X146229168Y-119387759D02*
X145116722Y-120500205D01*
X147679144Y-117561928D02*
X147845491Y-117273445D01*
X136309791Y-117852210D02*
X136474418Y-118122929D01*
X135439238Y-116104042D02*
X135556089Y-116416054D01*
X135330076Y-115789258D02*
X135439238Y-116104042D01*
X135228671Y-115471891D02*
X135330076Y-115789258D01*
X137521969Y-119342044D02*
X138646032Y-120466107D01*
X139784849Y-121590171D02*
X139799602Y-121590171D01*
X136139206Y-117565931D02*
X135973794Y-117276633D01*
X135660000Y-113750000D02*
X134910000Y-113750000D01*
X135813608Y-116984410D02*
X135680618Y-116736541D01*
X136309791Y-117852210D02*
X136139206Y-117565931D01*
X136647857Y-118351615D02*
X136474418Y-118122929D01*
X134983223Y-114283960D02*
X134937982Y-113953861D01*
X138660785Y-120466107D02*
X139784849Y-121590171D01*
X137292681Y-119114100D02*
X137068782Y-118867604D01*
X137507216Y-119342044D02*
X137521969Y-119342044D01*
X135556089Y-116416054D02*
X135680618Y-116736541D01*
X135973794Y-117276633D02*
X135813608Y-116984410D01*
X135228671Y-115471891D02*
X135154039Y-115228042D01*
X137292681Y-119114100D02*
X137507216Y-119342044D01*
X136853751Y-118613336D02*
X136647857Y-118351615D01*
X139799602Y-121590171D02*
X140923665Y-122714234D01*
X138646032Y-120466107D02*
X138660785Y-120466107D01*
X137068782Y-118867604D02*
X136853751Y-118613336D01*
X136092145Y-120739604D02*
X135864745Y-120495893D01*
X134876245Y-119307569D02*
X134686912Y-119033344D01*
X135070807Y-119578110D02*
X134876245Y-119307569D01*
X133471791Y-116626509D02*
X133368241Y-116310377D01*
X134686912Y-119033344D02*
X134502876Y-118755537D01*
X133961022Y-117770765D02*
X133820481Y-117468741D01*
X133368241Y-116310377D02*
X133280793Y-115989418D01*
X135414121Y-120004614D02*
X135255101Y-119829256D01*
X134110042Y-118068697D02*
X133961022Y-117770765D01*
X133280793Y-115989418D02*
X133220806Y-115745061D01*
X133820481Y-117468741D02*
X133699912Y-117199764D01*
X134267421Y-118362300D02*
X134110042Y-118068697D01*
X133591181Y-116937006D02*
X133471791Y-116626509D01*
X134267421Y-118362300D02*
X134382863Y-118570544D01*
X133591181Y-116937006D02*
X133699912Y-117199764D01*
X138475762Y-123108209D02*
X138489894Y-123108209D01*
X138489894Y-123108209D02*
X139566640Y-124184955D01*
X135070807Y-119578110D02*
X135255101Y-119829256D01*
X135638735Y-120250894D02*
X135414121Y-120004614D01*
X132956190Y-114236542D02*
X132960000Y-113750000D01*
X135864745Y-120495893D02*
X135638735Y-120250894D01*
X134502876Y-118755537D02*
X134382863Y-118570544D01*
X136092145Y-120739604D02*
X136294006Y-120954717D01*
D11*
X149164914Y-116845518D02*
X148972837Y-117278837D01*
D10*
X133152087Y-115483579D02*
X133076558Y-115159756D01*
D11*
X148526105Y-118114615D02*
X148272525Y-118515060D01*
X149853498Y-114096537D02*
X149795478Y-114566954D01*
X149484178Y-115953236D02*
X149335498Y-116403296D01*
D10*
X133152087Y-115483579D02*
X133220806Y-115745061D01*
X136294006Y-120954717D02*
X136308138Y-120954717D01*
D11*
X149795478Y-114566954D02*
X149714445Y-115033958D01*
X148759730Y-117702209D02*
X148526105Y-118114615D01*
D10*
X133019175Y-114832230D02*
X132980117Y-114502018D01*
X137384884Y-122031463D02*
X137399016Y-122031463D01*
X132980117Y-114502018D02*
X132956190Y-114236542D01*
X136308138Y-120954717D02*
X137384884Y-122031463D01*
D11*
X148972837Y-117278837D02*
X148759730Y-117702209D01*
X149335498Y-116403296D02*
X149164914Y-116845518D01*
D10*
X137399016Y-122031463D02*
X138475762Y-123108209D01*
X133076558Y-115159756D02*
X133019175Y-114832230D01*
D11*
X149610595Y-115496424D02*
X149484178Y-115953236D01*
X149714445Y-115033958D02*
X149610595Y-115496424D01*
X149888367Y-113623839D02*
X149853498Y-114096537D01*
X147707994Y-119276243D02*
X147398401Y-119635146D01*
D12*
X149900000Y-111970000D02*
X149900000Y-112890000D01*
D11*
X136728427Y-119978427D02*
X141360000Y-124550000D01*
X133911632Y-113623839D02*
X133946500Y-114096537D01*
X136401597Y-119635146D02*
X136728427Y-119978427D01*
D13*
X133900000Y-111890000D02*
X133900000Y-112970000D01*
D11*
X147398401Y-119635146D02*
X147071572Y-119978427D01*
X134827161Y-117278837D02*
X135040269Y-117702209D01*
X135273893Y-118114615D02*
X135527473Y-118515060D01*
X135800396Y-118902581D02*
X136092004Y-119276243D01*
X136092004Y-119276243D02*
X136401597Y-119635146D01*
X148272525Y-118515060D02*
X147999602Y-118902581D01*
X147071572Y-119978427D02*
X142430000Y-124550000D01*
X134004520Y-114566954D02*
X134085553Y-115033958D01*
X134315820Y-115953236D02*
X134464500Y-116403296D01*
X134464500Y-116403296D02*
X134635084Y-116845518D01*
X134189403Y-115496424D02*
X134315820Y-115953236D01*
X135527473Y-118515060D02*
X135800396Y-118902581D01*
X133946500Y-114096537D02*
X134004520Y-114566954D01*
X134085553Y-115033958D02*
X134189403Y-115496424D01*
X135040269Y-117702209D02*
X135273893Y-118114615D01*
X147999602Y-118902581D02*
X147707994Y-119276243D01*
X134635084Y-116845518D02*
X134827161Y-117278837D01*
D10*
X140319084Y-133408312D02*
X140108332Y-133311220D01*
D14*
X143711077Y-130400000D02*
G75*
G03*
X143711077Y-130400000I-1811077J0D01*
G01*
D10*
X140108332Y-133311220D02*
X139360000Y-132940000D01*
X141436876Y-133704505D02*
X141207232Y-133671228D01*
X140979883Y-133624796D02*
X140755583Y-133565360D01*
D15*
X141900000Y-124800000D02*
X141983360Y-132800000D01*
D16*
X141900000Y-130400000D02*
X141900000Y-125440000D01*
D10*
X140535072Y-133493119D02*
X140319084Y-133408312D01*
X140755583Y-133565360D02*
X140535072Y-133493119D01*
X141207232Y-133671228D02*
X140979883Y-133624796D01*
X129333187Y-93563187D02*
X129207078Y-93487600D01*
X130556526Y-94718846D02*
X130614932Y-94821947D01*
X130614932Y-94821947D02*
X130668209Y-94927790D01*
X130424900Y-94521854D02*
X130493131Y-94618734D01*
X130192893Y-94252893D02*
X130274600Y-94338713D01*
X127854951Y-93077437D02*
X127500000Y-93060000D01*
X128206484Y-93129582D02*
X127854951Y-93077437D01*
X130888374Y-95723365D02*
X130897091Y-95841540D01*
X128885819Y-93335656D02*
X128551213Y-93215932D01*
X129207078Y-93487600D02*
X128885819Y-93335656D01*
X128551213Y-93215932D02*
X128206484Y-93129582D01*
X129511897Y-93670302D02*
X129333187Y-93563187D01*
X130060660Y-94120660D02*
X129797341Y-93882001D01*
X130853611Y-95489010D02*
X130873869Y-95605761D01*
X130758874Y-95146675D02*
X130796044Y-95259190D01*
X130827648Y-95373393D02*
X130853611Y-95489010D01*
X130873869Y-95605761D02*
X130888374Y-95723365D01*
X130796044Y-95259190D02*
X130827648Y-95373393D01*
X130493131Y-94618734D02*
X130556526Y-94718846D01*
X130351998Y-94428438D02*
X130424900Y-94521854D01*
X130274600Y-94338713D02*
X130351998Y-94428438D01*
X130897091Y-95841540D02*
X130900000Y-95960000D01*
X130192893Y-94252893D02*
X130060660Y-94120660D01*
X129797341Y-93882001D02*
X129511897Y-93670302D01*
X130716228Y-95036120D02*
X130758874Y-95146675D01*
X130668209Y-94927790D02*
X130716228Y-95036120D01*
X130902907Y-96980000D02*
X130900000Y-95950000D01*
X141340000Y-93060000D02*
X141024881Y-93039346D01*
X140715155Y-92977737D02*
X140416120Y-92876228D01*
X139419111Y-92115743D02*
X139585685Y-92305685D01*
X140132893Y-92736556D02*
X139870319Y-92561110D01*
X141024881Y-93039346D02*
X140715155Y-92977737D01*
X139870319Y-92561110D02*
X139632893Y-92352893D01*
X139036523Y-91192094D02*
X139085809Y-91439875D01*
X139167016Y-91679103D02*
X139278754Y-91905685D01*
X139278754Y-91905685D02*
X139419111Y-92115743D01*
X139585685Y-92305685D02*
X139632893Y-92352893D01*
X139020000Y-90940000D02*
X139036523Y-91192094D01*
X139085809Y-91439875D02*
X139167016Y-91679103D01*
X141340000Y-93060000D02*
X142740000Y-93060000D01*
X147152842Y-84082842D02*
X147057871Y-83999555D01*
X146719937Y-83832904D02*
X146596047Y-83808261D01*
X146596047Y-83808261D02*
X146470000Y-83800000D01*
X146470000Y-83800000D02*
X144745940Y-83800000D01*
X142740000Y-93060000D02*
X147300000Y-93060000D01*
X147460000Y-84790000D02*
X147460000Y-85210000D01*
X146839551Y-83873507D02*
X146719937Y-83832904D01*
X146952842Y-83929376D02*
X146839551Y-83873507D01*
X147177157Y-84107157D02*
X147260444Y-84202127D01*
X147260444Y-84202127D02*
X147330622Y-84307157D01*
X147330622Y-84307157D02*
X147386491Y-84420448D01*
X147386491Y-84420448D02*
X147427094Y-84540062D01*
X147427094Y-84540062D02*
X147451738Y-84663952D01*
X147460000Y-85210000D02*
X147460000Y-85210000D01*
X147451738Y-84663952D02*
X147460000Y-84790000D01*
X147152842Y-84082842D02*
X147177157Y-84107157D01*
X147057871Y-83999555D02*
X146952842Y-83929376D01*
X139036523Y-91192094D02*
X139020000Y-90940000D01*
X139278754Y-84864314D02*
X139167016Y-85090896D01*
X141050000Y-83800000D02*
X140797905Y-83816522D01*
X139167016Y-85090896D02*
X139085809Y-85330124D01*
X140797905Y-83816522D02*
X140550124Y-83865808D01*
X139585685Y-84464314D02*
X139419110Y-84654255D01*
X139036522Y-85577905D02*
X139036522Y-85577905D01*
X141050000Y-83800000D02*
X142820000Y-83800000D01*
X140310896Y-83947015D02*
X140084314Y-84058753D01*
X140084314Y-84058753D02*
X139874255Y-84199109D01*
X139085809Y-85330124D02*
X139036522Y-85577905D01*
X140550124Y-83865808D02*
X140310896Y-83947015D01*
X139020000Y-89440000D02*
X139020000Y-90940000D01*
X140550124Y-83865808D02*
X140550124Y-83865808D01*
X139020000Y-85830000D02*
X139020000Y-87680000D01*
X139036523Y-91192094D02*
X139036523Y-91192094D01*
X139874255Y-84199109D02*
X139684314Y-84365684D01*
X139036522Y-85577905D02*
X139020000Y-85830000D01*
X139020000Y-87680000D02*
X139020000Y-89440000D01*
X139684314Y-84365684D02*
X139585685Y-84464314D01*
X142820000Y-83800000D02*
X145090000Y-83800000D01*
X148542643Y-114280422D02*
X148452901Y-114067660D01*
X137083770Y-95006119D02*
X137131789Y-94897789D01*
X153782684Y-112658998D02*
X153912983Y-112562983D01*
X127570000Y-83800000D02*
X129840000Y-83800000D01*
X125060896Y-83947015D02*
X124834314Y-84058753D01*
X146779117Y-111349309D02*
X146840239Y-111589930D01*
X137041124Y-95116675D02*
X137083770Y-95006119D01*
X153583187Y-112770517D02*
X153782684Y-112658998D01*
X124169111Y-92115743D02*
X124335685Y-92305685D01*
X136796043Y-112400808D02*
X136716227Y-112623879D01*
X136888374Y-111936634D02*
X136853610Y-112170989D01*
X123786522Y-85577905D02*
X123786522Y-85577905D01*
X138288101Y-93640302D02*
X138514565Y-93504565D01*
X138002657Y-93852001D02*
X138288101Y-93640302D01*
X130900000Y-111425000D02*
X130911625Y-111661634D01*
X151820506Y-113797689D02*
X152009121Y-113641780D01*
X146151998Y-94398438D02*
X146224900Y-94491854D01*
X154132283Y-112365903D02*
X154276901Y-112188925D01*
X153966678Y-112523417D02*
X154132283Y-112365903D01*
X147869307Y-113344691D02*
X147699149Y-113169351D01*
X133023022Y-114749595D02*
X132983114Y-114638059D01*
X125547905Y-83816522D02*
X125300124Y-83865808D01*
X145992893Y-94222893D02*
X146074600Y-94308713D01*
X137185066Y-94791946D02*
X137243472Y-94688845D01*
X148201549Y-113681187D02*
X148088823Y-113561177D01*
X131346047Y-83808261D02*
X131220000Y-83800000D01*
X135296572Y-114376934D02*
X135357472Y-114275327D01*
X131185067Y-112563051D02*
X131306868Y-112766264D01*
X132312500Y-113837500D02*
X132721446Y-114246446D01*
X130911625Y-111661634D02*
X130946388Y-111895989D01*
X139945048Y-93047437D02*
X140300000Y-93030000D01*
X123770000Y-87680000D02*
X123770000Y-89440000D01*
X143300000Y-93030000D02*
X140400000Y-93030000D01*
X146697091Y-95811540D02*
X146700000Y-95930000D01*
X125166120Y-92876228D02*
X124882893Y-92736556D01*
X145992893Y-94222893D02*
X145860660Y-94090660D01*
X145597341Y-93852001D02*
X145311897Y-93640302D01*
X125300124Y-83865808D02*
X125060896Y-83947015D01*
X146700000Y-110610000D02*
X146708820Y-110858104D01*
X150730000Y-115330000D02*
X150924395Y-114950182D01*
X124028754Y-91905685D02*
X124169111Y-92115743D01*
X146414932Y-94791947D02*
X146468209Y-94897790D01*
X138592920Y-93457600D02*
X138914180Y-93305656D01*
X135784999Y-113814999D02*
X135507592Y-114092407D01*
X137525398Y-94308711D02*
X137607106Y-94222892D01*
X132136491Y-84420448D02*
X132177094Y-84540062D01*
X151642016Y-113965094D02*
X151820506Y-113797689D01*
X138914180Y-93305656D02*
X139248785Y-93185932D01*
X131702842Y-83929376D02*
X131589551Y-83873507D01*
X146708820Y-110858104D02*
X146735237Y-111104957D01*
X137739339Y-94090660D02*
X138002657Y-93852001D01*
X131220000Y-83800000D02*
X129495940Y-83800000D01*
X125465155Y-92977737D02*
X125166120Y-92876228D01*
X130900000Y-111425000D02*
X130900000Y-111350000D01*
X123786523Y-91192094D02*
X123835809Y-91439875D01*
X125800000Y-83800000D02*
X127570000Y-83800000D01*
X145311897Y-93640302D02*
X145133187Y-93533187D01*
X146708820Y-110858104D02*
X146735237Y-111104957D01*
X147261570Y-112582580D02*
X147220553Y-112509447D01*
X136972350Y-95343393D02*
X137003954Y-95229190D01*
X144006484Y-93099582D02*
X143654951Y-93047437D01*
X145860660Y-94090660D02*
X145597341Y-93852001D01*
X136900000Y-95930000D02*
X136902907Y-95811540D01*
X152207123Y-113497980D02*
X152970000Y-113070000D01*
X123786523Y-91192094D02*
X123770000Y-90940000D01*
X124624255Y-84199109D02*
X124434314Y-84365684D01*
X146627648Y-95343393D02*
X146653611Y-95459010D01*
X140300000Y-93030000D02*
X140400000Y-93030000D01*
X131469937Y-83832904D02*
X131346047Y-83808261D01*
X145133187Y-93533187D02*
X145007078Y-93457600D01*
X154710000Y-108380000D02*
X154710000Y-110990000D01*
X123770000Y-89440000D02*
X123770000Y-90940000D01*
X153490000Y-112820000D02*
X153583187Y-112770517D01*
X146074600Y-94308713D02*
X146151998Y-94398438D01*
X132871565Y-114429366D02*
X132800999Y-114334218D01*
X124028754Y-84864314D02*
X123917016Y-85090896D01*
X135428039Y-114180179D02*
X135507592Y-114092407D01*
X123917016Y-91679103D02*
X124028754Y-91905685D01*
X137448000Y-94398437D02*
X137525398Y-94308711D01*
X132983114Y-114638059D02*
X132932466Y-114530973D01*
X123786523Y-91192094D02*
X123786523Y-91192094D01*
X136946387Y-95459009D02*
X136972350Y-95343393D01*
X148644004Y-114730161D02*
X148606642Y-114502290D01*
X154710000Y-108510000D02*
X154720000Y-86000000D01*
X139248785Y-93185932D02*
X139593515Y-93099582D01*
X133069187Y-114981682D02*
X133051805Y-114864504D01*
X131902842Y-84082842D02*
X131807871Y-83999555D01*
X124434314Y-84365684D02*
X124335685Y-84464314D01*
X137003954Y-95229190D02*
X137041124Y-95116675D01*
X146653611Y-95459010D02*
X146673869Y-95575761D01*
X133051805Y-114864504D02*
X133023022Y-114749595D01*
X131589551Y-83873507D02*
X131469937Y-83832904D01*
X146293131Y-94588734D02*
X146356526Y-94688846D01*
X146700000Y-96970000D02*
X146700000Y-110610000D01*
X146516228Y-95006120D02*
X146558874Y-95116675D01*
X143654951Y-93047437D02*
X143300000Y-93030000D01*
X136900000Y-111700000D02*
X136900000Y-111350000D01*
X138514565Y-93504565D02*
X138592920Y-93457600D01*
X123786522Y-85577905D02*
X123770000Y-85830000D01*
X124335685Y-84464314D02*
X124169110Y-84654255D01*
X148338670Y-113866980D02*
X148201549Y-113681187D01*
X136716227Y-112623879D02*
X136631987Y-112801987D01*
X137131789Y-94897789D02*
X137185066Y-94791946D01*
X146688374Y-95693365D02*
X146697091Y-95811540D01*
X131326825Y-112793175D02*
X131448000Y-112956559D01*
X146700000Y-95930000D02*
X146700000Y-96950000D01*
X123835809Y-85330124D02*
X123786522Y-85577905D01*
X126090000Y-93060000D02*
X127490000Y-93060000D01*
X146945612Y-111922319D02*
X146869521Y-111690139D01*
X133075000Y-115100000D02*
X133069187Y-114981682D01*
X135245924Y-114484020D02*
X135296572Y-114376934D01*
X131607106Y-113132106D02*
X132312500Y-113837500D01*
X125774881Y-93039346D02*
X125465155Y-92977737D01*
X124882893Y-92736556D02*
X124620319Y-92561110D01*
X152970000Y-113070000D02*
X153490000Y-112820000D01*
X131083770Y-112348878D02*
X131185067Y-112563051D01*
X154494469Y-111787941D02*
X154564007Y-111570226D01*
X136900000Y-97000000D02*
X136900000Y-111350000D01*
X137375097Y-94491853D02*
X137448000Y-94398437D01*
X136900000Y-95930000D02*
X136900000Y-96980000D01*
X139593515Y-93099582D02*
X139945048Y-93047437D01*
X132010444Y-84202127D02*
X132080622Y-84307157D01*
X136902907Y-95811540D02*
X136911624Y-95693365D01*
X146558874Y-95116675D02*
X146596044Y-95229190D01*
X124620319Y-92561110D02*
X124382893Y-92352893D01*
X135177232Y-114710465D02*
X135206016Y-114595556D01*
X148088823Y-113561177D02*
X148043455Y-113512880D01*
X132800999Y-114334218D02*
X132721446Y-114246446D01*
X147869307Y-113344691D02*
X148043455Y-113512880D01*
X123770000Y-90940000D02*
X123786523Y-91192094D01*
X131003955Y-112125808D02*
X131083770Y-112348878D01*
X124834314Y-84058753D02*
X124624255Y-84199109D01*
X153912983Y-112562983D02*
X153966678Y-112523417D01*
X146356526Y-94688846D02*
X146414932Y-94791947D01*
X137243472Y-94688845D02*
X137306867Y-94588733D01*
X151318168Y-114331728D02*
X151474351Y-114143340D01*
X123770000Y-85830000D02*
X123770000Y-87680000D01*
X146700000Y-110610000D02*
X146708820Y-110858104D01*
X136911624Y-95693365D02*
X136926129Y-95575761D01*
X136351997Y-113231559D02*
X136192892Y-113407106D01*
X135357472Y-114275327D02*
X135428039Y-114180179D01*
X148606642Y-114502290D02*
X148542643Y-114280422D01*
X123835809Y-91439875D02*
X123917016Y-91679103D01*
X151474351Y-114143340D02*
X151642016Y-113965094D01*
X132932466Y-114530973D02*
X132871565Y-114429366D01*
X131448000Y-112956559D02*
X131607106Y-113132106D01*
X136926129Y-95575761D02*
X136946387Y-95459009D01*
X137607106Y-94222892D02*
X137739339Y-94090660D01*
X147142050Y-112369478D02*
X147036583Y-112149083D01*
X125800000Y-83800000D02*
X125547905Y-83816522D01*
X131927157Y-84107157D02*
X132010444Y-84202127D01*
X148654205Y-114960850D02*
X148644004Y-114730161D01*
X136900000Y-111700000D02*
X136888374Y-111936634D01*
X123917016Y-85090896D02*
X123835809Y-85330124D01*
X132210000Y-85210000D02*
X132210000Y-85210000D01*
X146596044Y-95229190D02*
X146627648Y-95343393D01*
X151174079Y-114529520D02*
X151318168Y-114331728D01*
X147394642Y-112787494D02*
X147261570Y-112582580D01*
X154710000Y-86000000D02*
X152630000Y-86000000D01*
X132177094Y-84540062D02*
X132201738Y-84663952D01*
X146673869Y-95575761D02*
X146688374Y-95693365D01*
X130946388Y-111895989D02*
X131003955Y-112125808D01*
X146224900Y-94491854D02*
X146293131Y-94588734D01*
X146468209Y-94897790D02*
X146516228Y-95006120D01*
X136631987Y-112801987D02*
X136614931Y-112838051D01*
X144351213Y-93185932D02*
X144006484Y-93099582D01*
X125300124Y-83865808D02*
X125300124Y-83865808D01*
X126090000Y-93060000D02*
X125774881Y-93039346D01*
X132201738Y-84663952D02*
X132210000Y-84790000D01*
X136493130Y-113041264D02*
X136351997Y-113231559D01*
X152009121Y-113641780D02*
X152109140Y-113569140D01*
X132080622Y-84307157D02*
X132136491Y-84420448D01*
X147220553Y-112509447D02*
X147142050Y-112369478D01*
X146840239Y-111589930D02*
X146869521Y-111690139D01*
X145007078Y-93457600D02*
X144685819Y-93305656D01*
X154398264Y-111995258D02*
X154494469Y-111787941D01*
X151042650Y-114735941D02*
X151174079Y-114529520D01*
X147540706Y-112983358D02*
X147394642Y-112787494D01*
X137306867Y-94588733D02*
X137375097Y-94491853D01*
X131807871Y-83999555D02*
X131702842Y-83929376D01*
X131902842Y-84082842D02*
X131927157Y-84107157D01*
X136192892Y-113407106D02*
X135784999Y-113814999D01*
X132210000Y-84790000D02*
X132210000Y-85210000D01*
X127490000Y-93060000D02*
X132050000Y-93060000D01*
X130900000Y-97000000D02*
X130900000Y-111330000D01*
X154564007Y-111570226D02*
X154630000Y-111370000D01*
X154276901Y-112188925D02*
X154398264Y-111995258D01*
X150924395Y-114950182D02*
X151042650Y-114735941D01*
X124335685Y-92305685D02*
X124382893Y-92352893D01*
X152109140Y-113569140D02*
X152207123Y-113497980D01*
X135206016Y-114595556D02*
X135245924Y-114484020D01*
X144685819Y-93305656D02*
X144351213Y-93185932D01*
X136853610Y-112170989D02*
X136796043Y-112400808D01*
X146735237Y-111104957D02*
X146779117Y-111349309D01*
D17*
%TO.C,C25*%
X102525000Y-61425000D03*
X103744760Y-60205240D03*
%TD*%
%TO.C,C27*%
X118600000Y-60400000D03*
X119819760Y-59180240D03*
%TD*%
D18*
%TO.C,C28*%
X127400000Y-75400000D03*
X128619760Y-76619760D03*
%TD*%
D19*
%TO.C,C30*%
X117425000Y-83700000D03*
X115700000Y-83700000D03*
%TD*%
D18*
%TO.C,C31*%
X112400000Y-82300000D03*
X113619760Y-83519760D03*
%TD*%
D20*
%TO.C,C32*%
X105244195Y-74802773D03*
X104024435Y-73583013D03*
%TD*%
D17*
%TO.C,C35*%
X112478909Y-62622157D03*
X113698669Y-61402397D03*
%TD*%
D21*
%TO.C,J3*%
X141900000Y-130400000D03*
D22*
X139360000Y-127860000D03*
X139360000Y-132940000D03*
X144440000Y-132940000D03*
X144440000Y-127860000D03*
%TD*%
D23*
%TO.C,R4*%
X121700000Y-62900000D03*
X122937436Y-61662564D03*
%TD*%
%TO.C,R5*%
X120300000Y-61500000D03*
X121537436Y-60262564D03*
%TD*%
D24*
%TO.C,U7*%
X115315596Y-62330315D03*
X114962043Y-62683868D03*
X114608489Y-63037422D03*
X114254936Y-63390975D03*
X113901383Y-63744528D03*
X113547829Y-64098082D03*
X113194276Y-64451635D03*
X112840722Y-64805189D03*
X112487169Y-65158742D03*
X112133616Y-65512295D03*
X111780062Y-65865849D03*
X111426509Y-66219402D03*
X111072955Y-66572955D03*
X110719402Y-66926509D03*
X110365849Y-67280062D03*
X110012295Y-67633616D03*
X109658742Y-67987169D03*
X109305189Y-68340722D03*
X108951635Y-68694276D03*
X108598082Y-69047829D03*
X108244528Y-69401383D03*
X107890975Y-69754936D03*
X107537422Y-70108489D03*
X107183868Y-70462043D03*
X106830315Y-70815596D03*
D25*
X106830315Y-73184404D03*
X107183868Y-73537957D03*
X107537422Y-73891511D03*
X107890975Y-74245064D03*
X108244528Y-74598617D03*
X108598082Y-74952171D03*
X108951635Y-75305724D03*
X109305189Y-75659278D03*
X109658742Y-76012831D03*
X110012295Y-76366384D03*
X110365849Y-76719938D03*
X110719402Y-77073491D03*
X111072955Y-77427045D03*
X111426509Y-77780598D03*
X111780062Y-78134151D03*
X112133616Y-78487705D03*
X112487169Y-78841258D03*
X112840722Y-79194811D03*
X113194276Y-79548365D03*
X113547829Y-79901918D03*
X113901383Y-80255472D03*
X114254936Y-80609025D03*
X114608489Y-80962578D03*
X114962043Y-81316132D03*
X115315596Y-81669685D03*
D24*
X117684404Y-81669685D03*
X118037957Y-81316132D03*
X118391511Y-80962578D03*
X118745064Y-80609025D03*
X119098617Y-80255472D03*
X119452171Y-79901918D03*
X119805724Y-79548365D03*
X120159278Y-79194811D03*
X120512831Y-78841258D03*
X120866384Y-78487705D03*
X121219938Y-78134151D03*
X121573491Y-77780598D03*
X121927045Y-77427045D03*
X122280598Y-77073491D03*
X122634151Y-76719938D03*
X122987705Y-76366384D03*
X123341258Y-76012831D03*
X123694811Y-75659278D03*
X124048365Y-75305724D03*
X124401918Y-74952171D03*
X124755472Y-74598617D03*
X125109025Y-74245064D03*
X125462578Y-73891511D03*
X125816132Y-73537957D03*
X126169685Y-73184404D03*
D25*
X126169685Y-70815596D03*
X125816132Y-70462043D03*
X125462578Y-70108489D03*
X125109025Y-69754936D03*
X124755472Y-69401383D03*
X124401918Y-69047829D03*
X124048365Y-68694276D03*
X123694811Y-68340722D03*
X123341258Y-67987169D03*
X122987705Y-67633616D03*
X122634151Y-67280062D03*
X122280598Y-66926509D03*
X121927045Y-66572955D03*
X121573491Y-66219402D03*
X121219938Y-65865849D03*
X120866384Y-65512295D03*
X120512831Y-65158742D03*
X120159278Y-64805189D03*
X119805724Y-64451635D03*
X119452171Y-64098082D03*
X119098617Y-63744528D03*
X118745064Y-63390975D03*
X118391511Y-63037422D03*
X118037957Y-62683868D03*
X117684404Y-62330315D03*
%TD*%
D26*
%TO.C,J5*%
X93000000Y-73625000D03*
D27*
X93000000Y-76395000D03*
X93000000Y-79165000D03*
X93000000Y-81935000D03*
X93000000Y-84705000D03*
X93000000Y-87475000D03*
X93000000Y-90245000D03*
X93000000Y-93015000D03*
X93000000Y-95785000D03*
X93000000Y-98555000D03*
X93000000Y-101325000D03*
X93000000Y-104095000D03*
X93000000Y-106865000D03*
X93000000Y-109635000D03*
X93000000Y-112405000D03*
X93000000Y-115175000D03*
X93000000Y-117945000D03*
X93000000Y-120715000D03*
X93000000Y-123485000D03*
X90460000Y-75010000D03*
X90460000Y-77780000D03*
X90460000Y-80550000D03*
X90460000Y-83320000D03*
X90460000Y-86090000D03*
X90460000Y-88860000D03*
X90460000Y-91630000D03*
X90460000Y-94400000D03*
X90460000Y-97170000D03*
X90460000Y-99940000D03*
X90460000Y-102710000D03*
X90460000Y-105480000D03*
X90460000Y-108250000D03*
X90460000Y-111020000D03*
X90460000Y-113790000D03*
X90460000Y-116560000D03*
X90460000Y-119330000D03*
X90460000Y-122100000D03*
D28*
X91730000Y-66805000D03*
X91730000Y-130305000D03*
%TD*%
D29*
%TO.C,U3*%
X141340000Y-124590000D03*
D30*
X141895000Y-124822500D03*
D29*
X142450000Y-124590000D03*
D31*
X142450000Y-125000000D03*
D29*
X142450000Y-125410000D03*
D32*
X141895000Y-125410000D03*
D29*
X141340000Y-125410000D03*
D31*
X141340000Y-125000000D03*
%TD*%
D17*
%TO.C,C34*%
X111420000Y-61560000D03*
X112639760Y-60340240D03*
%TD*%
D33*
%TO.C,C26*%
X116500000Y-60362500D03*
X116500000Y-58637500D03*
%TD*%
D34*
%TO.C,C29*%
X128100001Y-72500000D03*
X129825001Y-72500000D03*
%TD*%
D35*
%TO.C,U5*%
X129600000Y-60250000D03*
X129600000Y-61200000D03*
X129600000Y-62150000D03*
X131800000Y-62150000D03*
X131800000Y-61200000D03*
X131800000Y-60250000D03*
%TD*%
D36*
%TO.C,C2*%
X126720000Y-89270001D03*
X126720000Y-90995001D03*
%TD*%
D37*
%TO.C,C3*%
X137300000Y-89440000D03*
X137300000Y-90400000D03*
%TD*%
D38*
%TO.C,C12*%
X151130000Y-107740000D03*
X152090000Y-107740000D03*
%TD*%
D33*
%TO.C,C13*%
X143250000Y-58000000D03*
X143250000Y-56275000D03*
%TD*%
D37*
%TO.C,C15*%
X152540000Y-87540000D03*
X152540000Y-88500000D03*
%TD*%
%TO.C,C17*%
X152540000Y-89440000D03*
X152540000Y-90400000D03*
%TD*%
D39*
%TO.C,D1*%
X143250000Y-59850000D03*
X143250000Y-61600000D03*
%TD*%
D40*
%TO.C,U1*%
X133150000Y-91125000D03*
X133650000Y-91125000D03*
X134150000Y-91125000D03*
X134650000Y-91125000D03*
X135150000Y-91125000D03*
D41*
X136075000Y-90200000D03*
X136075000Y-89700000D03*
X136075000Y-89200000D03*
X136075000Y-88700000D03*
X136075000Y-88200000D03*
D40*
X135150000Y-87275000D03*
X134650000Y-87275000D03*
X134150000Y-87275000D03*
X133650000Y-87275000D03*
X133150000Y-87275000D03*
D41*
X132225000Y-88200000D03*
X132225000Y-88700000D03*
X132225000Y-89200000D03*
X132225000Y-89700000D03*
X132225000Y-90200000D03*
D42*
X134150000Y-89200000D03*
%TD*%
D43*
%TO.C,L1*%
X133437500Y-94350000D03*
X134407500Y-94350000D03*
%TD*%
D37*
%TO.C,C7*%
X133400000Y-95640000D03*
X133400000Y-96600000D03*
%TD*%
%TO.C,C8*%
X133900000Y-97590000D03*
X133900000Y-98550000D03*
%TD*%
%TO.C,C6*%
X135700000Y-93340000D03*
X135700000Y-94300000D03*
%TD*%
D44*
%TO.C,Y1*%
X129490000Y-90595000D03*
X129490000Y-86295000D03*
%TD*%
D19*
%TO.C,FB1*%
X141225000Y-61600000D03*
X139500000Y-61600000D03*
%TD*%
D45*
%TO.C,R2*%
X154200000Y-61200000D03*
X154200000Y-59450000D03*
%TD*%
D46*
%TO.C,R3*%
X147300000Y-62800000D03*
X145550000Y-62800000D03*
%TD*%
D47*
%TO.C,L2*%
X134420000Y-95635000D03*
X134420000Y-96605000D03*
%TD*%
D48*
%TO.C,J4*%
X139200000Y-59662500D03*
X138550000Y-59662500D03*
X137900000Y-59662500D03*
X137250000Y-59662500D03*
X136600000Y-59662500D03*
D49*
X141400000Y-56962500D03*
D50*
X135400000Y-59662500D03*
D51*
X140800000Y-56962500D03*
D49*
X134400000Y-56962500D03*
D52*
X136900000Y-56962500D03*
D50*
X140400000Y-59662500D03*
D51*
X135000000Y-56962500D03*
D52*
X138900000Y-56962500D03*
%TD*%
D33*
%TO.C,C18*%
X141970000Y-87620000D03*
X141970000Y-85895000D03*
%TD*%
%TO.C,C4*%
X126719999Y-87620000D03*
X126719999Y-85895000D03*
%TD*%
D38*
%TO.C,C11*%
X147960000Y-107120000D03*
X148920000Y-107120000D03*
%TD*%
D47*
%TO.C,L9*%
X149900000Y-101317501D03*
X149900000Y-102287501D03*
%TD*%
%TO.C,L4*%
X149900000Y-107110000D03*
X149900000Y-108080000D03*
%TD*%
D38*
%TO.C,C21*%
X150880000Y-102300000D03*
X151840000Y-102300000D03*
%TD*%
D47*
%TO.C,L11*%
X149900000Y-105170000D03*
X149900000Y-106140000D03*
%TD*%
D53*
%TO.C,C22*%
X148920000Y-104220000D03*
X147960000Y-104220000D03*
%TD*%
D54*
%TO.C,R1*%
X151980000Y-110910000D03*
X151980000Y-109890000D03*
%TD*%
D55*
%TO.C,U2*%
X150400000Y-109132500D03*
X149900000Y-109132500D03*
X149400000Y-109132500D03*
X148900000Y-109132500D03*
X148900000Y-111707500D03*
X149400000Y-111707500D03*
X149900000Y-111707500D03*
X150400000Y-111707500D03*
D56*
X149650000Y-110420000D03*
%TD*%
D57*
%TO.C,C9*%
X132890000Y-110710000D03*
X132890000Y-109750000D03*
%TD*%
D47*
%TO.C,L3*%
X133900000Y-110730000D03*
X133900000Y-111700000D03*
%TD*%
D57*
%TO.C,C10*%
X134910000Y-111570000D03*
X134910000Y-110610000D03*
%TD*%
D58*
%TO.C,L8*%
X148910000Y-97220000D03*
X147940000Y-97220000D03*
%TD*%
D43*
%TO.C,L6*%
X150880000Y-94350000D03*
X151850000Y-94350000D03*
%TD*%
D37*
%TO.C,C20*%
X149900000Y-94307500D03*
X149900000Y-95267500D03*
%TD*%
D47*
%TO.C,L7*%
X149900000Y-96220000D03*
X149900000Y-97190000D03*
%TD*%
D44*
%TO.C,Y2*%
X144740000Y-90595000D03*
X144740000Y-86295000D03*
%TD*%
D40*
%TO.C,U6*%
X148400000Y-91125000D03*
X148900000Y-91125000D03*
X149400000Y-91125000D03*
X149900000Y-91125000D03*
X150400000Y-91125000D03*
D41*
X151325000Y-90200000D03*
X151325000Y-89700000D03*
X151325000Y-89200000D03*
X151325000Y-88700000D03*
X151325000Y-88200000D03*
D40*
X150400000Y-87275000D03*
X149900000Y-87275000D03*
X149400000Y-87275000D03*
X148900000Y-87275000D03*
X148400000Y-87275000D03*
D41*
X147475000Y-88200000D03*
X147475000Y-88700000D03*
X147475000Y-89200000D03*
X147475000Y-89700000D03*
X147475000Y-90200000D03*
D42*
X149400000Y-89200000D03*
%TD*%
D36*
%TO.C,C16*%
X141970000Y-89280000D03*
X141970000Y-91005000D03*
%TD*%
D46*
%TO.C,D4*%
X101145000Y-98500000D03*
X99395000Y-98500000D03*
%TD*%
%TO.C,D6*%
X101150000Y-101900000D03*
X99400000Y-101900000D03*
%TD*%
%TO.C,R6*%
X104495000Y-101900000D03*
X102745000Y-101900000D03*
%TD*%
%TO.C,R8*%
X104495000Y-98500000D03*
X102745000Y-98500000D03*
%TD*%
%TO.C,R10*%
X104495000Y-95100000D03*
X102745000Y-95100000D03*
%TD*%
%TO.C,D3*%
X101145000Y-96800000D03*
X99395000Y-96800000D03*
%TD*%
%TO.C,R7*%
X104495000Y-100200000D03*
X102745000Y-100200000D03*
%TD*%
%TO.C,R9*%
X104495000Y-96800000D03*
X102745000Y-96800000D03*
%TD*%
%TO.C,D5*%
X101145000Y-100200000D03*
X99395000Y-100200000D03*
%TD*%
D59*
%TO.C,L5*%
X153030000Y-110900000D03*
X153030000Y-109930000D03*
%TD*%
D60*
%TO.C,J2*%
X138190000Y-79000000D03*
D61*
X135650000Y-79000000D03*
X138190000Y-76460000D03*
X135650000Y-76460000D03*
X138190000Y-73920000D03*
X135650000Y-73920000D03*
X138190000Y-71380000D03*
X135650000Y-71380000D03*
%TD*%
D60*
%TO.C,J1*%
X144890000Y-78980001D03*
D61*
X142350000Y-78980001D03*
X144890000Y-76440001D03*
X142350000Y-76440001D03*
X144890000Y-73900001D03*
X142350000Y-73900001D03*
X144890000Y-71360001D03*
X142350000Y-71360001D03*
%TD*%
D37*
%TO.C,C1*%
X137300000Y-87540000D03*
X137300000Y-88500000D03*
%TD*%
D62*
%TO.C,Y3*%
X107849354Y-60075646D03*
X104808794Y-63116206D03*
%TD*%
D34*
%TO.C,C14*%
X148950001Y-62800000D03*
X150675001Y-62800000D03*
%TD*%
D63*
%TO.C,C24*%
X106150000Y-57800000D03*
X104930240Y-59019760D03*
%TD*%
D20*
%TO.C,C23*%
X102800000Y-65980000D03*
X101580240Y-64760240D03*
%TD*%
D64*
%TO.C,SW1*%
X107823295Y-83194725D03*
X102194725Y-88823295D03*
X111005275Y-86376705D03*
X105376705Y-92005275D03*
%TD*%
D65*
%TO.C,JP1*%
X126500000Y-56900000D03*
D61*
X129040000Y-56900000D03*
X131580000Y-56900000D03*
%TD*%
D46*
%TO.C,D2*%
X101145000Y-95100000D03*
X99395000Y-95100000D03*
%TD*%
D63*
%TO.C,C33*%
X106299999Y-68100000D03*
X105080239Y-69319760D03*
%TD*%
D57*
%TO.C,C5*%
X137300000Y-92280000D03*
X137300000Y-91320000D03*
%TD*%
D47*
%TO.C,L10*%
X149900000Y-103230000D03*
X149900000Y-104200000D03*
%TD*%
D57*
%TO.C,C19*%
X152540000Y-92310000D03*
X152540000Y-91350000D03*
%TD*%
D66*
%TO.C,U4*%
X145550000Y-56150000D03*
X145550000Y-57650000D03*
X145550000Y-59150000D03*
X145550000Y-60650000D03*
D67*
X151850000Y-58400000D03*
%TD*%
G36*
X142090660Y-124442493D02*
G01*
X142096424Y-124446344D01*
X142162788Y-124467125D01*
X142233590Y-124446335D01*
X142239340Y-124442493D01*
X142241336Y-124442362D01*
X142242447Y-124444025D01*
X142242114Y-124445267D01*
X142234767Y-124456262D01*
X142231000Y-124475199D01*
X142231000Y-124704801D01*
X142234767Y-124723738D01*
X142245380Y-124739620D01*
X142261262Y-124750233D01*
X142280199Y-124754000D01*
X142619801Y-124754000D01*
X142638738Y-124750233D01*
X142653773Y-124740186D01*
X142655768Y-124740055D01*
X142656880Y-124741718D01*
X142656793Y-124742447D01*
X142637898Y-124802788D01*
X142656955Y-124867690D01*
X142656483Y-124869633D01*
X142654564Y-124870197D01*
X142653925Y-124869916D01*
X142638737Y-124859767D01*
X142619801Y-124856000D01*
X142280199Y-124856000D01*
X142261262Y-124859767D01*
X142245380Y-124870380D01*
X142234767Y-124886262D01*
X142231000Y-124905199D01*
X142231000Y-125094801D01*
X142234767Y-125113738D01*
X142245380Y-125129620D01*
X142261262Y-125140233D01*
X142280199Y-125144000D01*
X142619801Y-125144000D01*
X142638738Y-125140233D01*
X142653773Y-125130186D01*
X142655768Y-125130055D01*
X142656880Y-125131718D01*
X142656793Y-125132447D01*
X142637898Y-125192788D01*
X142656955Y-125257690D01*
X142656483Y-125259633D01*
X142654564Y-125260197D01*
X142653925Y-125259916D01*
X142638737Y-125249767D01*
X142619801Y-125246000D01*
X142280199Y-125246000D01*
X142261262Y-125249767D01*
X142245380Y-125260380D01*
X142234767Y-125276262D01*
X142231000Y-125295199D01*
X142231000Y-125524801D01*
X142234767Y-125543738D01*
X142242114Y-125554733D01*
X142242245Y-125556729D01*
X142240582Y-125557840D01*
X142239340Y-125557507D01*
X142233576Y-125553656D01*
X142167212Y-125532875D01*
X142096410Y-125553665D01*
X142090660Y-125557507D01*
X142088664Y-125557638D01*
X142087553Y-125555975D01*
X142087886Y-125554733D01*
X142095233Y-125543738D01*
X142099000Y-125524801D01*
X142099000Y-125295199D01*
X142095233Y-125276262D01*
X142084620Y-125260380D01*
X142068738Y-125249767D01*
X142049801Y-125246000D01*
X141740199Y-125246000D01*
X141721262Y-125249767D01*
X141705380Y-125260380D01*
X141694767Y-125276262D01*
X141691000Y-125295199D01*
X141691000Y-125524801D01*
X141694767Y-125543738D01*
X141702114Y-125554733D01*
X141702245Y-125556729D01*
X141700582Y-125557840D01*
X141699340Y-125557507D01*
X141693576Y-125553656D01*
X141627212Y-125532875D01*
X141556410Y-125553665D01*
X141550660Y-125557507D01*
X141548664Y-125557638D01*
X141547553Y-125555975D01*
X141547886Y-125554733D01*
X141555233Y-125543738D01*
X141559000Y-125524801D01*
X141559000Y-125295199D01*
X141555233Y-125276262D01*
X141544620Y-125260380D01*
X141528738Y-125249767D01*
X141509801Y-125246000D01*
X141170199Y-125246000D01*
X141151262Y-125249767D01*
X141136227Y-125259814D01*
X141134232Y-125259945D01*
X141133120Y-125258282D01*
X141133207Y-125257553D01*
X141152102Y-125197212D01*
X141133045Y-125132310D01*
X141133517Y-125130367D01*
X141135436Y-125129803D01*
X141136075Y-125130084D01*
X141151263Y-125140233D01*
X141170199Y-125144000D01*
X141509801Y-125144000D01*
X141528738Y-125140233D01*
X141544620Y-125129620D01*
X141555233Y-125113738D01*
X141559000Y-125094801D01*
X141559000Y-124905199D01*
X141555233Y-124886262D01*
X141544620Y-124870380D01*
X141528738Y-124859767D01*
X141509801Y-124856000D01*
X141170199Y-124856000D01*
X141151262Y-124859767D01*
X141136227Y-124869814D01*
X141134232Y-124869945D01*
X141133120Y-124868282D01*
X141133207Y-124867553D01*
X141152102Y-124807212D01*
X141133045Y-124742310D01*
X141133517Y-124740367D01*
X141135436Y-124739803D01*
X141136075Y-124740084D01*
X141151263Y-124750233D01*
X141170199Y-124754000D01*
X141509801Y-124754000D01*
X141528738Y-124750233D01*
X141544620Y-124739620D01*
X141555233Y-124723738D01*
X141559000Y-124704801D01*
X141559000Y-124475199D01*
X141555233Y-124456262D01*
X141547886Y-124445267D01*
X141547755Y-124443271D01*
X141549418Y-124442160D01*
X141550660Y-124442493D01*
X141556424Y-124446344D01*
X141622788Y-124467125D01*
X141693590Y-124446335D01*
X141699340Y-124442493D01*
X141701336Y-124442362D01*
X141702447Y-124444025D01*
X141702114Y-124445267D01*
X141694767Y-124456262D01*
X141691000Y-124475199D01*
X141691000Y-125169801D01*
X141694767Y-125188738D01*
X141705380Y-125204620D01*
X141721262Y-125215233D01*
X141740199Y-125219000D01*
X142049801Y-125219000D01*
X142068738Y-125215233D01*
X142084620Y-125204620D01*
X142095233Y-125188738D01*
X142099000Y-125169801D01*
X142099000Y-124475199D01*
X142095233Y-124456262D01*
X142087886Y-124445267D01*
X142087755Y-124443271D01*
X142089418Y-124442160D01*
X142090660Y-124442493D01*
G37*
G36*
X150441143Y-111141677D02*
G01*
X150441955Y-111143505D01*
X150441380Y-111144708D01*
X150433788Y-111152300D01*
X150433484Y-111152809D01*
X150398849Y-111185522D01*
X150382202Y-111252749D01*
X150404543Y-111318305D01*
X150458939Y-111361501D01*
X150477585Y-111367084D01*
X150478957Y-111368539D01*
X150478383Y-111370455D01*
X150477011Y-111371000D01*
X150312699Y-111371000D01*
X150260277Y-111381428D01*
X150216008Y-111411008D01*
X150186428Y-111455277D01*
X150176000Y-111507699D01*
X150176000Y-111907301D01*
X150186428Y-111959723D01*
X150215252Y-112002861D01*
X150215383Y-112004857D01*
X150213720Y-112005968D01*
X150212991Y-112005881D01*
X150152211Y-111986850D01*
X150086879Y-112006033D01*
X150084936Y-112005561D01*
X150084372Y-112003642D01*
X150084653Y-112003003D01*
X150113572Y-111959723D01*
X150124000Y-111907301D01*
X150124000Y-111507699D01*
X150113572Y-111455277D01*
X150083992Y-111411008D01*
X150039723Y-111381428D01*
X149987301Y-111371000D01*
X149812699Y-111371000D01*
X149760277Y-111381428D01*
X149716008Y-111411008D01*
X149686428Y-111455277D01*
X149676000Y-111507699D01*
X149676000Y-111907301D01*
X149686428Y-111959723D01*
X149715252Y-112002861D01*
X149715383Y-112004857D01*
X149713720Y-112005968D01*
X149712991Y-112005881D01*
X149652211Y-111986850D01*
X149586879Y-112006033D01*
X149584936Y-112005561D01*
X149584372Y-112003642D01*
X149584653Y-112003003D01*
X149613572Y-111959723D01*
X149624000Y-111907301D01*
X149624000Y-111507699D01*
X149613572Y-111455277D01*
X149583992Y-111411008D01*
X149539723Y-111381428D01*
X149487301Y-111371000D01*
X149312699Y-111371000D01*
X149260277Y-111381428D01*
X149216008Y-111411008D01*
X149186428Y-111455277D01*
X149176000Y-111507699D01*
X149176000Y-111907301D01*
X149186428Y-111959723D01*
X149215252Y-112002861D01*
X149215383Y-112004857D01*
X149213720Y-112005968D01*
X149212991Y-112005881D01*
X149152211Y-111986850D01*
X149086879Y-112006033D01*
X149084936Y-112005561D01*
X149084372Y-112003642D01*
X149084653Y-112003003D01*
X149113572Y-111959723D01*
X149124000Y-111907301D01*
X149124000Y-111507699D01*
X149113572Y-111455277D01*
X149083992Y-111411008D01*
X149039723Y-111381428D01*
X148987301Y-111371000D01*
X148821449Y-111371000D01*
X148819717Y-111370000D01*
X148819717Y-111368000D01*
X148820522Y-111367228D01*
X148880346Y-111335935D01*
X148914619Y-111275750D01*
X148910911Y-111206592D01*
X148870284Y-111150250D01*
X148869464Y-111149729D01*
X148868538Y-111147956D01*
X148869610Y-111146268D01*
X148871345Y-111146212D01*
X148961285Y-111185975D01*
X149030120Y-111194000D01*
X150269886Y-111194000D01*
X150339219Y-111185856D01*
X150439154Y-111141466D01*
X150441143Y-111141677D01*
G37*
G36*
X150215064Y-108834439D02*
G01*
X150215628Y-108836358D01*
X150215347Y-108836997D01*
X150186428Y-108880277D01*
X150176000Y-108932699D01*
X150176000Y-109332301D01*
X150186428Y-109384723D01*
X150216008Y-109428992D01*
X150260277Y-109458572D01*
X150312699Y-109469000D01*
X150478551Y-109469000D01*
X150480283Y-109470000D01*
X150480283Y-109472000D01*
X150479478Y-109472772D01*
X150419654Y-109504065D01*
X150385381Y-109564250D01*
X150389089Y-109633408D01*
X150429716Y-109689750D01*
X150430536Y-109690271D01*
X150431462Y-109692044D01*
X150430390Y-109693732D01*
X150428655Y-109693788D01*
X150338715Y-109654025D01*
X150269880Y-109646000D01*
X149030114Y-109646000D01*
X148960781Y-109654144D01*
X148860846Y-109698534D01*
X148858857Y-109698323D01*
X148858045Y-109696495D01*
X148858620Y-109695292D01*
X148866212Y-109687700D01*
X148866516Y-109687191D01*
X148901151Y-109654478D01*
X148917798Y-109587251D01*
X148895457Y-109521695D01*
X148841061Y-109478499D01*
X148822415Y-109472916D01*
X148821043Y-109471461D01*
X148821617Y-109469545D01*
X148822989Y-109469000D01*
X148987301Y-109469000D01*
X149039723Y-109458572D01*
X149083992Y-109428992D01*
X149113572Y-109384723D01*
X149124000Y-109332301D01*
X149124000Y-108932699D01*
X149113572Y-108880277D01*
X149084748Y-108837139D01*
X149084617Y-108835143D01*
X149086280Y-108834032D01*
X149087009Y-108834119D01*
X149147789Y-108853150D01*
X149213121Y-108833967D01*
X149215064Y-108834439D01*
X149215628Y-108836358D01*
X149215347Y-108836997D01*
X149186428Y-108880277D01*
X149176000Y-108932699D01*
X149176000Y-109332301D01*
X149186428Y-109384723D01*
X149216008Y-109428992D01*
X149260277Y-109458572D01*
X149312699Y-109469000D01*
X149487301Y-109469000D01*
X149539723Y-109458572D01*
X149583992Y-109428992D01*
X149613572Y-109384723D01*
X149624000Y-109332301D01*
X149624000Y-108932699D01*
X149613572Y-108880277D01*
X149584748Y-108837139D01*
X149584617Y-108835143D01*
X149586280Y-108834032D01*
X149587009Y-108834119D01*
X149647789Y-108853150D01*
X149713121Y-108833967D01*
X149715064Y-108834439D01*
X149715628Y-108836358D01*
X149715347Y-108836997D01*
X149686428Y-108880277D01*
X149676000Y-108932699D01*
X149676000Y-109332301D01*
X149686428Y-109384723D01*
X149716008Y-109428992D01*
X149760277Y-109458572D01*
X149812699Y-109469000D01*
X149987301Y-109469000D01*
X150039723Y-109458572D01*
X150083992Y-109428992D01*
X150113572Y-109384723D01*
X150124000Y-109332301D01*
X150124000Y-108932699D01*
X150113572Y-108880277D01*
X150084748Y-108837139D01*
X150084617Y-108835143D01*
X150086280Y-108834032D01*
X150087009Y-108834119D01*
X150147789Y-108853150D01*
X150213121Y-108833967D01*
X150215064Y-108834439D01*
G37*
G36*
X150685521Y-90550000D02*
G01*
X150685521Y-90552000D01*
X150684352Y-90552919D01*
X150617340Y-90572595D01*
X150572005Y-90624916D01*
X150563218Y-90700302D01*
X150565835Y-90713456D01*
X150565192Y-90715350D01*
X150563230Y-90715740D01*
X150562210Y-90714957D01*
X150541315Y-90683685D01*
X150505156Y-90659525D01*
X150462301Y-90651000D01*
X150337699Y-90651000D01*
X150294844Y-90659525D01*
X150258685Y-90683685D01*
X150234525Y-90719844D01*
X150226000Y-90762699D01*
X150226000Y-91487301D01*
X150234525Y-91530156D01*
X150249052Y-91551898D01*
X150249183Y-91553894D01*
X150247520Y-91555005D01*
X150246106Y-91554544D01*
X150199055Y-91515223D01*
X150130339Y-91506592D01*
X150067709Y-91536556D01*
X150060202Y-91545219D01*
X150058312Y-91545873D01*
X150056801Y-91544563D01*
X150057028Y-91542798D01*
X150065475Y-91530156D01*
X150074000Y-91487301D01*
X150074000Y-90762699D01*
X150065475Y-90719844D01*
X150041315Y-90683685D01*
X150005156Y-90659525D01*
X149962301Y-90651000D01*
X149837699Y-90651000D01*
X149794844Y-90659525D01*
X149758685Y-90683685D01*
X149734525Y-90719844D01*
X149726000Y-90762699D01*
X149726000Y-91487301D01*
X149734525Y-91530156D01*
X149749052Y-91551898D01*
X149749183Y-91553894D01*
X149747520Y-91555005D01*
X149746106Y-91554544D01*
X149699055Y-91515223D01*
X149630339Y-91506592D01*
X149567709Y-91536556D01*
X149560202Y-91545219D01*
X149558312Y-91545873D01*
X149556801Y-91544563D01*
X149557028Y-91542798D01*
X149565475Y-91530156D01*
X149574000Y-91487301D01*
X149574000Y-90762699D01*
X149565475Y-90719844D01*
X149541315Y-90683685D01*
X149505156Y-90659525D01*
X149462301Y-90651000D01*
X149337699Y-90651000D01*
X149294844Y-90659525D01*
X149258685Y-90683685D01*
X149234525Y-90719844D01*
X149226000Y-90762699D01*
X149226000Y-91487301D01*
X149234525Y-91530156D01*
X149249052Y-91551898D01*
X149249183Y-91553894D01*
X149247520Y-91555005D01*
X149246106Y-91554544D01*
X149199055Y-91515223D01*
X149130339Y-91506592D01*
X149067709Y-91536556D01*
X149060202Y-91545219D01*
X149058312Y-91545873D01*
X149056801Y-91544563D01*
X149057028Y-91542798D01*
X149065475Y-91530156D01*
X149074000Y-91487301D01*
X149074000Y-90762699D01*
X149065475Y-90719844D01*
X149041315Y-90683685D01*
X149005156Y-90659525D01*
X148962301Y-90651000D01*
X148837699Y-90651000D01*
X148794844Y-90659525D01*
X148758685Y-90683685D01*
X148734525Y-90719844D01*
X148726000Y-90762699D01*
X148726000Y-91487301D01*
X148734525Y-91530156D01*
X148749052Y-91551898D01*
X148749183Y-91553894D01*
X148747520Y-91555005D01*
X148746106Y-91554544D01*
X148699055Y-91515223D01*
X148630339Y-91506592D01*
X148567709Y-91536556D01*
X148560202Y-91545219D01*
X148558312Y-91545873D01*
X148556801Y-91544563D01*
X148557028Y-91542798D01*
X148565475Y-91530156D01*
X148574000Y-91487301D01*
X148574000Y-90762699D01*
X148565475Y-90719844D01*
X148541315Y-90683685D01*
X148505156Y-90659525D01*
X148462301Y-90651000D01*
X148337699Y-90651000D01*
X148294844Y-90659525D01*
X148258685Y-90683685D01*
X148237789Y-90714958D01*
X148235995Y-90715843D01*
X148234332Y-90714732D01*
X148234164Y-90713457D01*
X148236786Y-90700275D01*
X148230586Y-90630996D01*
X148188117Y-90576325D01*
X148123726Y-90555530D01*
X148123484Y-90555262D01*
X148122066Y-90554980D01*
X148121841Y-90554921D01*
X148115592Y-90552903D01*
X148114251Y-90551419D01*
X148114866Y-90549516D01*
X148116207Y-90549000D01*
X150683789Y-90549000D01*
X150685521Y-90550000D01*
G37*
G36*
X135435521Y-90550000D02*
G01*
X135435521Y-90552000D01*
X135434352Y-90552919D01*
X135367340Y-90572595D01*
X135322005Y-90624916D01*
X135313218Y-90700302D01*
X135315835Y-90713456D01*
X135315192Y-90715350D01*
X135313230Y-90715740D01*
X135312210Y-90714957D01*
X135291315Y-90683685D01*
X135255156Y-90659525D01*
X135212301Y-90651000D01*
X135087699Y-90651000D01*
X135044844Y-90659525D01*
X135008685Y-90683685D01*
X134984525Y-90719844D01*
X134976000Y-90762699D01*
X134976000Y-91487301D01*
X134984525Y-91530156D01*
X134999052Y-91551898D01*
X134999183Y-91553894D01*
X134997520Y-91555005D01*
X134996106Y-91554544D01*
X134949055Y-91515223D01*
X134880339Y-91506592D01*
X134817709Y-91536556D01*
X134810202Y-91545219D01*
X134808312Y-91545873D01*
X134806801Y-91544563D01*
X134807028Y-91542798D01*
X134815475Y-91530156D01*
X134824000Y-91487301D01*
X134824000Y-90762699D01*
X134815475Y-90719844D01*
X134791315Y-90683685D01*
X134755156Y-90659525D01*
X134712301Y-90651000D01*
X134587699Y-90651000D01*
X134544844Y-90659525D01*
X134508685Y-90683685D01*
X134484525Y-90719844D01*
X134476000Y-90762699D01*
X134476000Y-91487301D01*
X134484525Y-91530156D01*
X134499052Y-91551898D01*
X134499183Y-91553894D01*
X134497520Y-91555005D01*
X134496106Y-91554544D01*
X134449055Y-91515223D01*
X134380339Y-91506592D01*
X134317709Y-91536556D01*
X134310202Y-91545219D01*
X134308312Y-91545873D01*
X134306801Y-91544563D01*
X134307028Y-91542798D01*
X134315475Y-91530156D01*
X134324000Y-91487301D01*
X134324000Y-90762699D01*
X134315475Y-90719844D01*
X134291315Y-90683685D01*
X134255156Y-90659525D01*
X134212301Y-90651000D01*
X134087699Y-90651000D01*
X134044844Y-90659525D01*
X134008685Y-90683685D01*
X133984525Y-90719844D01*
X133976000Y-90762699D01*
X133976000Y-91487301D01*
X133984525Y-91530156D01*
X133999052Y-91551898D01*
X133999183Y-91553894D01*
X133997520Y-91555005D01*
X133996106Y-91554544D01*
X133949055Y-91515223D01*
X133880339Y-91506592D01*
X133817709Y-91536556D01*
X133810202Y-91545219D01*
X133808312Y-91545873D01*
X133806801Y-91544563D01*
X133807028Y-91542798D01*
X133815475Y-91530156D01*
X133824000Y-91487301D01*
X133824000Y-90762699D01*
X133815475Y-90719844D01*
X133791315Y-90683685D01*
X133755156Y-90659525D01*
X133712301Y-90651000D01*
X133587699Y-90651000D01*
X133544844Y-90659525D01*
X133508685Y-90683685D01*
X133484525Y-90719844D01*
X133476000Y-90762699D01*
X133476000Y-91487301D01*
X133484525Y-91530156D01*
X133499052Y-91551898D01*
X133499183Y-91553894D01*
X133497520Y-91555005D01*
X133496106Y-91554544D01*
X133449055Y-91515223D01*
X133380339Y-91506592D01*
X133317709Y-91536556D01*
X133310202Y-91545219D01*
X133308312Y-91545873D01*
X133306801Y-91544563D01*
X133307028Y-91542798D01*
X133315475Y-91530156D01*
X133324000Y-91487301D01*
X133324000Y-90762699D01*
X133315475Y-90719844D01*
X133291315Y-90683685D01*
X133255156Y-90659525D01*
X133212301Y-90651000D01*
X133087699Y-90651000D01*
X133044844Y-90659525D01*
X133008685Y-90683685D01*
X132987789Y-90714958D01*
X132985995Y-90715843D01*
X132984332Y-90714732D01*
X132984164Y-90713457D01*
X132986786Y-90700275D01*
X132980586Y-90630996D01*
X132938117Y-90576325D01*
X132873726Y-90555530D01*
X132873484Y-90555262D01*
X132872066Y-90554980D01*
X132871841Y-90554921D01*
X132865592Y-90552903D01*
X132864251Y-90551419D01*
X132864866Y-90549516D01*
X132866207Y-90549000D01*
X135433789Y-90549000D01*
X135435521Y-90550000D01*
G37*
G36*
X135502919Y-87915648D02*
G01*
X135522595Y-87982660D01*
X135574916Y-88027995D01*
X135650302Y-88036782D01*
X135663456Y-88034165D01*
X135665350Y-88034808D01*
X135665740Y-88036770D01*
X135664957Y-88037790D01*
X135633685Y-88058685D01*
X135609525Y-88094844D01*
X135601000Y-88137699D01*
X135601000Y-88262301D01*
X135609525Y-88305156D01*
X135633685Y-88341315D01*
X135669844Y-88365475D01*
X135712699Y-88374000D01*
X136437301Y-88374000D01*
X136480156Y-88365475D01*
X136501898Y-88350948D01*
X136503894Y-88350817D01*
X136505005Y-88352480D01*
X136504544Y-88353894D01*
X136465223Y-88400945D01*
X136456592Y-88469661D01*
X136486556Y-88532291D01*
X136495219Y-88539798D01*
X136495873Y-88541688D01*
X136494563Y-88543199D01*
X136492798Y-88542972D01*
X136480156Y-88534525D01*
X136437301Y-88526000D01*
X135712699Y-88526000D01*
X135669844Y-88534525D01*
X135633685Y-88558685D01*
X135609525Y-88594844D01*
X135601000Y-88637699D01*
X135601000Y-88762301D01*
X135609525Y-88805156D01*
X135633685Y-88841315D01*
X135669844Y-88865475D01*
X135712699Y-88874000D01*
X136437301Y-88874000D01*
X136480156Y-88865475D01*
X136501898Y-88850948D01*
X136503894Y-88850817D01*
X136505005Y-88852480D01*
X136504544Y-88853894D01*
X136465223Y-88900945D01*
X136456592Y-88969661D01*
X136486556Y-89032291D01*
X136495219Y-89039798D01*
X136495873Y-89041688D01*
X136494563Y-89043199D01*
X136492798Y-89042972D01*
X136480156Y-89034525D01*
X136437301Y-89026000D01*
X135712699Y-89026000D01*
X135669844Y-89034525D01*
X135633685Y-89058685D01*
X135609525Y-89094844D01*
X135601000Y-89137699D01*
X135601000Y-89262301D01*
X135609525Y-89305156D01*
X135633685Y-89341315D01*
X135669844Y-89365475D01*
X135712699Y-89374000D01*
X136437301Y-89374000D01*
X136480156Y-89365475D01*
X136501898Y-89350948D01*
X136503894Y-89350817D01*
X136505005Y-89352480D01*
X136504544Y-89353894D01*
X136465223Y-89400945D01*
X136456592Y-89469661D01*
X136486556Y-89532291D01*
X136495219Y-89539798D01*
X136495873Y-89541688D01*
X136494563Y-89543199D01*
X136492798Y-89542972D01*
X136480156Y-89534525D01*
X136437301Y-89526000D01*
X135712699Y-89526000D01*
X135669844Y-89534525D01*
X135633685Y-89558685D01*
X135609525Y-89594844D01*
X135601000Y-89637699D01*
X135601000Y-89762301D01*
X135609525Y-89805156D01*
X135633685Y-89841315D01*
X135669844Y-89865475D01*
X135712699Y-89874000D01*
X136437301Y-89874000D01*
X136480156Y-89865475D01*
X136501898Y-89850948D01*
X136503894Y-89850817D01*
X136505005Y-89852480D01*
X136504544Y-89853894D01*
X136465223Y-89900945D01*
X136456592Y-89969661D01*
X136486556Y-90032291D01*
X136495219Y-90039798D01*
X136495873Y-90041688D01*
X136494563Y-90043199D01*
X136492798Y-90042972D01*
X136480156Y-90034525D01*
X136437301Y-90026000D01*
X135712699Y-90026000D01*
X135669844Y-90034525D01*
X135633685Y-90058685D01*
X135609525Y-90094844D01*
X135601000Y-90137699D01*
X135601000Y-90262301D01*
X135609525Y-90305156D01*
X135633685Y-90341315D01*
X135664958Y-90362211D01*
X135665843Y-90364005D01*
X135664732Y-90365668D01*
X135663457Y-90365836D01*
X135650275Y-90363214D01*
X135580996Y-90369414D01*
X135526325Y-90411883D01*
X135505530Y-90476274D01*
X135505262Y-90476516D01*
X135504980Y-90477934D01*
X135504921Y-90478159D01*
X135502903Y-90484407D01*
X135501419Y-90485748D01*
X135499516Y-90485133D01*
X135499000Y-90483792D01*
X135499000Y-87916211D01*
X135500000Y-87914479D01*
X135502000Y-87914479D01*
X135502919Y-87915648D01*
G37*
G36*
X150752919Y-87915648D02*
G01*
X150772595Y-87982660D01*
X150824916Y-88027995D01*
X150900302Y-88036782D01*
X150913456Y-88034165D01*
X150915350Y-88034808D01*
X150915740Y-88036770D01*
X150914957Y-88037790D01*
X150883685Y-88058685D01*
X150859525Y-88094844D01*
X150851000Y-88137699D01*
X150851000Y-88262301D01*
X150859525Y-88305156D01*
X150883685Y-88341315D01*
X150919844Y-88365475D01*
X150962699Y-88374000D01*
X151687301Y-88374000D01*
X151730156Y-88365475D01*
X151751898Y-88350948D01*
X151753894Y-88350817D01*
X151755005Y-88352480D01*
X151754544Y-88353894D01*
X151715223Y-88400945D01*
X151706592Y-88469661D01*
X151736556Y-88532291D01*
X151745219Y-88539798D01*
X151745873Y-88541688D01*
X151744563Y-88543199D01*
X151742798Y-88542972D01*
X151730156Y-88534525D01*
X151687301Y-88526000D01*
X150962699Y-88526000D01*
X150919844Y-88534525D01*
X150883685Y-88558685D01*
X150859525Y-88594844D01*
X150851000Y-88637699D01*
X150851000Y-88762301D01*
X150859525Y-88805156D01*
X150883685Y-88841315D01*
X150919844Y-88865475D01*
X150962699Y-88874000D01*
X151687301Y-88874000D01*
X151730156Y-88865475D01*
X151751898Y-88850948D01*
X151753894Y-88850817D01*
X151755005Y-88852480D01*
X151754544Y-88853894D01*
X151715223Y-88900945D01*
X151706592Y-88969661D01*
X151736556Y-89032291D01*
X151745219Y-89039798D01*
X151745873Y-89041688D01*
X151744563Y-89043199D01*
X151742798Y-89042972D01*
X151730156Y-89034525D01*
X151687301Y-89026000D01*
X150962699Y-89026000D01*
X150919844Y-89034525D01*
X150883685Y-89058685D01*
X150859525Y-89094844D01*
X150851000Y-89137699D01*
X150851000Y-89262301D01*
X150859525Y-89305156D01*
X150883685Y-89341315D01*
X150919844Y-89365475D01*
X150962699Y-89374000D01*
X151687301Y-89374000D01*
X151730156Y-89365475D01*
X151751898Y-89350948D01*
X151753894Y-89350817D01*
X151755005Y-89352480D01*
X151754544Y-89353894D01*
X151715223Y-89400945D01*
X151706592Y-89469661D01*
X151736556Y-89532291D01*
X151745219Y-89539798D01*
X151745873Y-89541688D01*
X151744563Y-89543199D01*
X151742798Y-89542972D01*
X151730156Y-89534525D01*
X151687301Y-89526000D01*
X150962699Y-89526000D01*
X150919844Y-89534525D01*
X150883685Y-89558685D01*
X150859525Y-89594844D01*
X150851000Y-89637699D01*
X150851000Y-89762301D01*
X150859525Y-89805156D01*
X150883685Y-89841315D01*
X150919844Y-89865475D01*
X150962699Y-89874000D01*
X151687301Y-89874000D01*
X151730156Y-89865475D01*
X151751898Y-89850948D01*
X151753894Y-89850817D01*
X151755005Y-89852480D01*
X151754544Y-89853894D01*
X151715223Y-89900945D01*
X151706592Y-89969661D01*
X151736556Y-90032291D01*
X151745219Y-90039798D01*
X151745873Y-90041688D01*
X151744563Y-90043199D01*
X151742798Y-90042972D01*
X151730156Y-90034525D01*
X151687301Y-90026000D01*
X150962699Y-90026000D01*
X150919844Y-90034525D01*
X150883685Y-90058685D01*
X150859525Y-90094844D01*
X150851000Y-90137699D01*
X150851000Y-90262301D01*
X150859525Y-90305156D01*
X150883685Y-90341315D01*
X150914958Y-90362211D01*
X150915843Y-90364005D01*
X150914732Y-90365668D01*
X150913457Y-90365836D01*
X150900275Y-90363214D01*
X150830996Y-90369414D01*
X150776325Y-90411883D01*
X150755530Y-90476274D01*
X150755262Y-90476516D01*
X150754980Y-90477934D01*
X150754921Y-90478159D01*
X150752903Y-90484407D01*
X150751419Y-90485748D01*
X150749516Y-90485133D01*
X150749000Y-90483792D01*
X150749000Y-87916211D01*
X150750000Y-87914479D01*
X150752000Y-87914479D01*
X150752919Y-87915648D01*
G37*
G36*
X148050484Y-87914867D02*
G01*
X148051000Y-87916208D01*
X148051000Y-90483789D01*
X148050000Y-90485521D01*
X148048000Y-90485521D01*
X148047081Y-90484352D01*
X148027405Y-90417340D01*
X147975084Y-90372005D01*
X147899698Y-90363218D01*
X147886544Y-90365835D01*
X147884650Y-90365192D01*
X147884260Y-90363230D01*
X147885043Y-90362210D01*
X147916315Y-90341315D01*
X147940475Y-90305156D01*
X147949000Y-90262301D01*
X147949000Y-90137699D01*
X147940475Y-90094844D01*
X147916315Y-90058685D01*
X147880156Y-90034525D01*
X147837301Y-90026000D01*
X147112699Y-90026000D01*
X147069844Y-90034525D01*
X147048102Y-90049052D01*
X147046106Y-90049183D01*
X147044995Y-90047520D01*
X147045456Y-90046106D01*
X147084777Y-89999055D01*
X147093408Y-89930339D01*
X147063444Y-89867709D01*
X147054781Y-89860202D01*
X147054127Y-89858312D01*
X147055437Y-89856801D01*
X147057202Y-89857028D01*
X147069844Y-89865475D01*
X147112699Y-89874000D01*
X147837301Y-89874000D01*
X147880156Y-89865475D01*
X147916315Y-89841315D01*
X147940475Y-89805156D01*
X147949000Y-89762301D01*
X147949000Y-89637699D01*
X147940475Y-89594844D01*
X147916315Y-89558685D01*
X147880156Y-89534525D01*
X147837301Y-89526000D01*
X147112699Y-89526000D01*
X147069844Y-89534525D01*
X147048102Y-89549052D01*
X147046106Y-89549183D01*
X147044995Y-89547520D01*
X147045456Y-89546106D01*
X147084777Y-89499055D01*
X147093408Y-89430339D01*
X147063444Y-89367709D01*
X147054781Y-89360202D01*
X147054127Y-89358312D01*
X147055437Y-89356801D01*
X147057202Y-89357028D01*
X147069844Y-89365475D01*
X147112699Y-89374000D01*
X147837301Y-89374000D01*
X147880156Y-89365475D01*
X147916315Y-89341315D01*
X147940475Y-89305156D01*
X147949000Y-89262301D01*
X147949000Y-89137699D01*
X147940475Y-89094844D01*
X147916315Y-89058685D01*
X147880156Y-89034525D01*
X147837301Y-89026000D01*
X147112699Y-89026000D01*
X147069844Y-89034525D01*
X147048102Y-89049052D01*
X147046106Y-89049183D01*
X147044995Y-89047520D01*
X147045456Y-89046106D01*
X147084777Y-88999055D01*
X147093408Y-88930339D01*
X147063444Y-88867709D01*
X147054781Y-88860202D01*
X147054127Y-88858312D01*
X147055437Y-88856801D01*
X147057202Y-88857028D01*
X147069844Y-88865475D01*
X147112699Y-88874000D01*
X147837301Y-88874000D01*
X147880156Y-88865475D01*
X147916315Y-88841315D01*
X147940475Y-88805156D01*
X147949000Y-88762301D01*
X147949000Y-88637699D01*
X147940475Y-88594844D01*
X147916315Y-88558685D01*
X147880156Y-88534525D01*
X147837301Y-88526000D01*
X147112699Y-88526000D01*
X147069844Y-88534525D01*
X147048102Y-88549052D01*
X147046106Y-88549183D01*
X147044995Y-88547520D01*
X147045456Y-88546106D01*
X147084777Y-88499055D01*
X147093408Y-88430339D01*
X147063444Y-88367709D01*
X147054781Y-88360202D01*
X147054127Y-88358312D01*
X147055437Y-88356801D01*
X147057202Y-88357028D01*
X147069844Y-88365475D01*
X147112699Y-88374000D01*
X147837301Y-88374000D01*
X147880156Y-88365475D01*
X147916315Y-88341315D01*
X147940475Y-88305156D01*
X147949000Y-88262301D01*
X147949000Y-88137699D01*
X147940475Y-88094844D01*
X147916315Y-88058685D01*
X147885042Y-88037789D01*
X147884157Y-88035995D01*
X147885268Y-88034332D01*
X147886543Y-88034164D01*
X147899725Y-88036786D01*
X147969004Y-88030586D01*
X148023675Y-87988117D01*
X148044470Y-87923726D01*
X148044738Y-87923484D01*
X148045020Y-87922066D01*
X148045079Y-87921841D01*
X148047097Y-87915593D01*
X148048581Y-87914252D01*
X148050484Y-87914867D01*
G37*
G36*
X132800484Y-87914867D02*
G01*
X132801000Y-87916208D01*
X132801000Y-90483789D01*
X132800000Y-90485521D01*
X132798000Y-90485521D01*
X132797081Y-90484352D01*
X132777405Y-90417340D01*
X132725084Y-90372005D01*
X132649698Y-90363218D01*
X132636544Y-90365835D01*
X132634650Y-90365192D01*
X132634260Y-90363230D01*
X132635043Y-90362210D01*
X132666315Y-90341315D01*
X132690475Y-90305156D01*
X132699000Y-90262301D01*
X132699000Y-90137699D01*
X132690475Y-90094844D01*
X132666315Y-90058685D01*
X132630156Y-90034525D01*
X132587301Y-90026000D01*
X131862699Y-90026000D01*
X131819844Y-90034525D01*
X131798102Y-90049052D01*
X131796106Y-90049183D01*
X131794995Y-90047520D01*
X131795456Y-90046106D01*
X131834777Y-89999055D01*
X131843408Y-89930339D01*
X131813444Y-89867709D01*
X131804781Y-89860202D01*
X131804127Y-89858312D01*
X131805437Y-89856801D01*
X131807202Y-89857028D01*
X131819844Y-89865475D01*
X131862699Y-89874000D01*
X132587301Y-89874000D01*
X132630156Y-89865475D01*
X132666315Y-89841315D01*
X132690475Y-89805156D01*
X132699000Y-89762301D01*
X132699000Y-89637699D01*
X132690475Y-89594844D01*
X132666315Y-89558685D01*
X132630156Y-89534525D01*
X132587301Y-89526000D01*
X131862699Y-89526000D01*
X131819844Y-89534525D01*
X131798102Y-89549052D01*
X131796106Y-89549183D01*
X131794995Y-89547520D01*
X131795456Y-89546106D01*
X131834777Y-89499055D01*
X131843408Y-89430339D01*
X131813444Y-89367709D01*
X131804781Y-89360202D01*
X131804127Y-89358312D01*
X131805437Y-89356801D01*
X131807202Y-89357028D01*
X131819844Y-89365475D01*
X131862699Y-89374000D01*
X132587301Y-89374000D01*
X132630156Y-89365475D01*
X132666315Y-89341315D01*
X132690475Y-89305156D01*
X132699000Y-89262301D01*
X132699000Y-89137699D01*
X132690475Y-89094844D01*
X132666315Y-89058685D01*
X132630156Y-89034525D01*
X132587301Y-89026000D01*
X131862699Y-89026000D01*
X131819844Y-89034525D01*
X131798102Y-89049052D01*
X131796106Y-89049183D01*
X131794995Y-89047520D01*
X131795456Y-89046106D01*
X131834777Y-88999055D01*
X131843408Y-88930339D01*
X131813444Y-88867709D01*
X131804781Y-88860202D01*
X131804127Y-88858312D01*
X131805437Y-88856801D01*
X131807202Y-88857028D01*
X131819844Y-88865475D01*
X131862699Y-88874000D01*
X132587301Y-88874000D01*
X132630156Y-88865475D01*
X132666315Y-88841315D01*
X132690475Y-88805156D01*
X132699000Y-88762301D01*
X132699000Y-88637699D01*
X132690475Y-88594844D01*
X132666315Y-88558685D01*
X132630156Y-88534525D01*
X132587301Y-88526000D01*
X131862699Y-88526000D01*
X131819844Y-88534525D01*
X131798102Y-88549052D01*
X131796106Y-88549183D01*
X131794995Y-88547520D01*
X131795456Y-88546106D01*
X131834777Y-88499055D01*
X131843408Y-88430339D01*
X131813444Y-88367709D01*
X131804781Y-88360202D01*
X131804127Y-88358312D01*
X131805437Y-88356801D01*
X131807202Y-88357028D01*
X131819844Y-88365475D01*
X131862699Y-88374000D01*
X132587301Y-88374000D01*
X132630156Y-88365475D01*
X132666315Y-88341315D01*
X132690475Y-88305156D01*
X132699000Y-88262301D01*
X132699000Y-88137699D01*
X132690475Y-88094844D01*
X132666315Y-88058685D01*
X132635042Y-88037789D01*
X132634157Y-88035995D01*
X132635268Y-88034332D01*
X132636543Y-88034164D01*
X132649725Y-88036786D01*
X132719004Y-88030586D01*
X132773675Y-87988117D01*
X132794470Y-87923726D01*
X132794738Y-87923484D01*
X132795020Y-87922066D01*
X132795079Y-87921841D01*
X132797097Y-87915593D01*
X132798581Y-87914252D01*
X132800484Y-87914867D01*
G37*
G36*
X134803894Y-86845456D02*
G01*
X134850945Y-86884777D01*
X134919661Y-86893408D01*
X134982291Y-86863444D01*
X134989798Y-86854781D01*
X134991688Y-86854127D01*
X134993199Y-86855437D01*
X134992972Y-86857202D01*
X134984525Y-86869844D01*
X134976000Y-86912699D01*
X134976000Y-87637301D01*
X134984525Y-87680156D01*
X135008685Y-87716315D01*
X135044844Y-87740475D01*
X135087699Y-87749000D01*
X135212301Y-87749000D01*
X135255156Y-87740475D01*
X135291315Y-87716315D01*
X135312211Y-87685042D01*
X135314005Y-87684157D01*
X135315668Y-87685268D01*
X135315836Y-87686543D01*
X135313214Y-87699725D01*
X135319414Y-87769004D01*
X135361883Y-87823675D01*
X135426274Y-87844470D01*
X135426516Y-87844738D01*
X135427934Y-87845020D01*
X135428159Y-87845079D01*
X135434408Y-87847097D01*
X135435749Y-87848581D01*
X135435134Y-87850484D01*
X135433793Y-87851000D01*
X132866211Y-87851000D01*
X132864479Y-87850000D01*
X132864479Y-87848000D01*
X132865648Y-87847081D01*
X132932660Y-87827405D01*
X132977995Y-87775084D01*
X132986782Y-87699698D01*
X132984165Y-87686544D01*
X132984808Y-87684650D01*
X132986770Y-87684260D01*
X132987790Y-87685043D01*
X133008685Y-87716315D01*
X133044844Y-87740475D01*
X133087699Y-87749000D01*
X133212301Y-87749000D01*
X133255156Y-87740475D01*
X133291315Y-87716315D01*
X133315475Y-87680156D01*
X133324000Y-87637301D01*
X133324000Y-86912699D01*
X133315475Y-86869844D01*
X133300948Y-86848102D01*
X133300817Y-86846106D01*
X133302480Y-86844995D01*
X133303894Y-86845456D01*
X133350945Y-86884777D01*
X133419661Y-86893408D01*
X133482291Y-86863444D01*
X133489798Y-86854781D01*
X133491688Y-86854127D01*
X133493199Y-86855437D01*
X133492972Y-86857202D01*
X133484525Y-86869844D01*
X133476000Y-86912699D01*
X133476000Y-87637301D01*
X133484525Y-87680156D01*
X133508685Y-87716315D01*
X133544844Y-87740475D01*
X133587699Y-87749000D01*
X133712301Y-87749000D01*
X133755156Y-87740475D01*
X133791315Y-87716315D01*
X133815475Y-87680156D01*
X133824000Y-87637301D01*
X133824000Y-86912699D01*
X133815475Y-86869844D01*
X133800948Y-86848102D01*
X133800817Y-86846106D01*
X133802480Y-86844995D01*
X133803894Y-86845456D01*
X133850945Y-86884777D01*
X133919661Y-86893408D01*
X133982291Y-86863444D01*
X133989798Y-86854781D01*
X133991688Y-86854127D01*
X133993199Y-86855437D01*
X133992972Y-86857202D01*
X133984525Y-86869844D01*
X133976000Y-86912699D01*
X133976000Y-87637301D01*
X133984525Y-87680156D01*
X134008685Y-87716315D01*
X134044844Y-87740475D01*
X134087699Y-87749000D01*
X134212301Y-87749000D01*
X134255156Y-87740475D01*
X134291315Y-87716315D01*
X134315475Y-87680156D01*
X134324000Y-87637301D01*
X134324000Y-86912699D01*
X134315475Y-86869844D01*
X134300948Y-86848102D01*
X134300817Y-86846106D01*
X134302480Y-86844995D01*
X134303894Y-86845456D01*
X134350945Y-86884777D01*
X134419661Y-86893408D01*
X134482291Y-86863444D01*
X134489798Y-86854781D01*
X134491688Y-86854127D01*
X134493199Y-86855437D01*
X134492972Y-86857202D01*
X134484525Y-86869844D01*
X134476000Y-86912699D01*
X134476000Y-87637301D01*
X134484525Y-87680156D01*
X134508685Y-87716315D01*
X134544844Y-87740475D01*
X134587699Y-87749000D01*
X134712301Y-87749000D01*
X134755156Y-87740475D01*
X134791315Y-87716315D01*
X134815475Y-87680156D01*
X134824000Y-87637301D01*
X134824000Y-86912699D01*
X134815475Y-86869844D01*
X134800948Y-86848102D01*
X134800817Y-86846106D01*
X134802480Y-86844995D01*
X134803894Y-86845456D01*
G37*
G36*
X150053894Y-86845456D02*
G01*
X150100945Y-86884777D01*
X150169661Y-86893408D01*
X150232291Y-86863444D01*
X150239798Y-86854781D01*
X150241688Y-86854127D01*
X150243199Y-86855437D01*
X150242972Y-86857202D01*
X150234525Y-86869844D01*
X150226000Y-86912699D01*
X150226000Y-87637301D01*
X150234525Y-87680156D01*
X150258685Y-87716315D01*
X150294844Y-87740475D01*
X150337699Y-87749000D01*
X150462301Y-87749000D01*
X150505156Y-87740475D01*
X150541315Y-87716315D01*
X150562211Y-87685042D01*
X150564005Y-87684157D01*
X150565668Y-87685268D01*
X150565836Y-87686543D01*
X150563214Y-87699725D01*
X150569414Y-87769004D01*
X150611883Y-87823675D01*
X150676274Y-87844470D01*
X150676516Y-87844738D01*
X150677934Y-87845020D01*
X150678159Y-87845079D01*
X150684408Y-87847097D01*
X150685749Y-87848581D01*
X150685134Y-87850484D01*
X150683793Y-87851000D01*
X148116211Y-87851000D01*
X148114479Y-87850000D01*
X148114479Y-87848000D01*
X148115648Y-87847081D01*
X148182660Y-87827405D01*
X148227995Y-87775084D01*
X148236782Y-87699698D01*
X148234165Y-87686544D01*
X148234808Y-87684650D01*
X148236770Y-87684260D01*
X148237790Y-87685043D01*
X148258685Y-87716315D01*
X148294844Y-87740475D01*
X148337699Y-87749000D01*
X148462301Y-87749000D01*
X148505156Y-87740475D01*
X148541315Y-87716315D01*
X148565475Y-87680156D01*
X148574000Y-87637301D01*
X148574000Y-86912699D01*
X148565475Y-86869844D01*
X148550948Y-86848102D01*
X148550817Y-86846106D01*
X148552480Y-86844995D01*
X148553894Y-86845456D01*
X148600945Y-86884777D01*
X148669661Y-86893408D01*
X148732291Y-86863444D01*
X148739798Y-86854781D01*
X148741688Y-86854127D01*
X148743199Y-86855437D01*
X148742972Y-86857202D01*
X148734525Y-86869844D01*
X148726000Y-86912699D01*
X148726000Y-87637301D01*
X148734525Y-87680156D01*
X148758685Y-87716315D01*
X148794844Y-87740475D01*
X148837699Y-87749000D01*
X148962301Y-87749000D01*
X149005156Y-87740475D01*
X149041315Y-87716315D01*
X149065475Y-87680156D01*
X149074000Y-87637301D01*
X149074000Y-86912699D01*
X149065475Y-86869844D01*
X149050948Y-86848102D01*
X149050817Y-86846106D01*
X149052480Y-86844995D01*
X149053894Y-86845456D01*
X149100945Y-86884777D01*
X149169661Y-86893408D01*
X149232291Y-86863444D01*
X149239798Y-86854781D01*
X149241688Y-86854127D01*
X149243199Y-86855437D01*
X149242972Y-86857202D01*
X149234525Y-86869844D01*
X149226000Y-86912699D01*
X149226000Y-87637301D01*
X149234525Y-87680156D01*
X149258685Y-87716315D01*
X149294844Y-87740475D01*
X149337699Y-87749000D01*
X149462301Y-87749000D01*
X149505156Y-87740475D01*
X149541315Y-87716315D01*
X149565475Y-87680156D01*
X149574000Y-87637301D01*
X149574000Y-86912699D01*
X149565475Y-86869844D01*
X149550948Y-86848102D01*
X149550817Y-86846106D01*
X149552480Y-86844995D01*
X149553894Y-86845456D01*
X149600945Y-86884777D01*
X149669661Y-86893408D01*
X149732291Y-86863444D01*
X149739798Y-86854781D01*
X149741688Y-86854127D01*
X149743199Y-86855437D01*
X149742972Y-86857202D01*
X149734525Y-86869844D01*
X149726000Y-86912699D01*
X149726000Y-87637301D01*
X149734525Y-87680156D01*
X149758685Y-87716315D01*
X149794844Y-87740475D01*
X149837699Y-87749000D01*
X149962301Y-87749000D01*
X150005156Y-87740475D01*
X150041315Y-87716315D01*
X150065475Y-87680156D01*
X150074000Y-87637301D01*
X150074000Y-86912699D01*
X150065475Y-86869844D01*
X150050948Y-86848102D01*
X150050817Y-86846106D01*
X150052480Y-86844995D01*
X150053894Y-86845456D01*
G37*
G36*
X115653823Y-80861164D02*
G01*
X115654466Y-80862278D01*
X115657453Y-80877299D01*
X115689683Y-80938915D01*
X115754446Y-80974278D01*
X115769450Y-80977262D01*
X115770954Y-80978581D01*
X115770564Y-80980543D01*
X115769450Y-80981186D01*
X115727776Y-80989476D01*
X115687394Y-81016458D01*
X114662369Y-82041483D01*
X114635387Y-82081865D01*
X114627097Y-82123539D01*
X114625778Y-82125043D01*
X114623816Y-82124653D01*
X114623173Y-82123539D01*
X114620186Y-82108518D01*
X114587956Y-82046902D01*
X114523193Y-82011539D01*
X114508189Y-82008555D01*
X114506685Y-82007236D01*
X114507075Y-82005274D01*
X114508189Y-82004631D01*
X114549863Y-81996341D01*
X114590245Y-81969359D01*
X115615270Y-80944334D01*
X115642252Y-80903952D01*
X115650542Y-80862278D01*
X115651861Y-80860774D01*
X115653823Y-80861164D01*
G37*
G36*
X117348815Y-80861164D02*
G01*
X117349458Y-80862278D01*
X117357748Y-80903952D01*
X117384730Y-80944334D01*
X118409755Y-81969359D01*
X118450137Y-81996341D01*
X118491811Y-82004631D01*
X118493315Y-82005950D01*
X118492925Y-82007912D01*
X118491811Y-82008555D01*
X118476790Y-82011542D01*
X118415174Y-82043772D01*
X118379811Y-82108535D01*
X118376827Y-82123539D01*
X118375508Y-82125043D01*
X118373546Y-82124653D01*
X118372903Y-82123539D01*
X118364613Y-82081865D01*
X118337631Y-82041483D01*
X117312606Y-81016458D01*
X117272224Y-80989476D01*
X117230550Y-80981186D01*
X117229046Y-80979867D01*
X117229436Y-80977905D01*
X117230550Y-80977262D01*
X117245571Y-80974275D01*
X117307187Y-80942045D01*
X117342550Y-80877282D01*
X117345534Y-80862278D01*
X117346853Y-80860774D01*
X117348815Y-80861164D01*
G37*
G36*
X115300269Y-80507610D02*
G01*
X115300912Y-80508724D01*
X115303899Y-80523746D01*
X115336129Y-80585362D01*
X115400892Y-80620725D01*
X115415896Y-80623709D01*
X115417400Y-80625028D01*
X115417010Y-80626990D01*
X115415896Y-80627633D01*
X115374223Y-80635923D01*
X115333841Y-80662905D01*
X114308816Y-81687930D01*
X114281834Y-81728312D01*
X114273544Y-81769986D01*
X114272225Y-81771490D01*
X114270263Y-81771100D01*
X114269620Y-81769986D01*
X114266633Y-81754964D01*
X114234403Y-81693348D01*
X114169640Y-81657985D01*
X114154636Y-81655001D01*
X114153132Y-81653682D01*
X114153522Y-81651720D01*
X114154636Y-81651077D01*
X114196309Y-81642787D01*
X114236691Y-81615805D01*
X115261716Y-80590780D01*
X115288698Y-80550398D01*
X115296988Y-80508724D01*
X115298307Y-80507220D01*
X115300269Y-80507610D01*
G37*
G36*
X117702369Y-80507611D02*
G01*
X117703012Y-80508725D01*
X117711302Y-80550398D01*
X117738284Y-80590780D01*
X118763309Y-81615805D01*
X118803691Y-81642787D01*
X118845365Y-81651077D01*
X118846869Y-81652396D01*
X118846479Y-81654358D01*
X118845365Y-81655001D01*
X118830343Y-81657988D01*
X118768727Y-81690218D01*
X118733364Y-81754981D01*
X118730380Y-81769985D01*
X118729061Y-81771489D01*
X118727099Y-81771099D01*
X118726456Y-81769985D01*
X118718166Y-81728312D01*
X118691184Y-81687930D01*
X117666159Y-80662905D01*
X117625777Y-80635923D01*
X117584103Y-80627633D01*
X117582599Y-80626314D01*
X117582989Y-80624352D01*
X117584103Y-80623709D01*
X117599125Y-80620722D01*
X117660741Y-80588492D01*
X117696104Y-80523729D01*
X117699088Y-80508725D01*
X117700407Y-80507221D01*
X117702369Y-80507611D01*
G37*
G36*
X118055922Y-80154057D02*
G01*
X118056565Y-80155171D01*
X118064855Y-80196845D01*
X118091837Y-80237227D01*
X119116862Y-81262252D01*
X119157244Y-81289234D01*
X119198918Y-81297524D01*
X119200422Y-81298843D01*
X119200032Y-81300805D01*
X119198918Y-81301448D01*
X119183897Y-81304435D01*
X119122281Y-81336665D01*
X119086918Y-81401428D01*
X119083934Y-81416432D01*
X119082615Y-81417936D01*
X119080653Y-81417546D01*
X119080010Y-81416432D01*
X119071720Y-81374758D01*
X119044738Y-81334376D01*
X118019713Y-80309351D01*
X117979331Y-80282369D01*
X117937657Y-80274079D01*
X117936153Y-80272760D01*
X117936543Y-80270798D01*
X117937657Y-80270155D01*
X117952678Y-80267168D01*
X118014294Y-80234938D01*
X118049657Y-80170175D01*
X118052641Y-80155171D01*
X118053960Y-80153667D01*
X118055922Y-80154057D01*
G37*
G36*
X114946716Y-80154057D02*
G01*
X114947359Y-80155171D01*
X114950346Y-80170192D01*
X114982576Y-80231808D01*
X115047339Y-80267171D01*
X115062343Y-80270155D01*
X115063847Y-80271474D01*
X115063457Y-80273436D01*
X115062343Y-80274079D01*
X115020669Y-80282369D01*
X114980287Y-80309351D01*
X113955262Y-81334376D01*
X113928280Y-81374758D01*
X113919990Y-81416432D01*
X113918671Y-81417936D01*
X113916709Y-81417546D01*
X113916066Y-81416432D01*
X113913079Y-81401411D01*
X113880849Y-81339795D01*
X113816086Y-81304432D01*
X113801082Y-81301448D01*
X113799578Y-81300129D01*
X113799968Y-81298167D01*
X113801082Y-81297524D01*
X113842756Y-81289234D01*
X113883138Y-81262252D01*
X114908163Y-80237227D01*
X114935145Y-80196845D01*
X114943435Y-80155171D01*
X114944754Y-80153667D01*
X114946716Y-80154057D01*
G37*
G36*
X114593163Y-79800504D02*
G01*
X114593806Y-79801618D01*
X114596793Y-79816639D01*
X114629023Y-79878255D01*
X114693786Y-79913618D01*
X114708790Y-79916602D01*
X114710294Y-79917921D01*
X114709904Y-79919883D01*
X114708790Y-79920526D01*
X114667116Y-79928816D01*
X114626734Y-79955798D01*
X113601709Y-80980823D01*
X113574727Y-81021205D01*
X113566437Y-81062879D01*
X113565118Y-81064383D01*
X113563156Y-81063993D01*
X113562513Y-81062879D01*
X113559526Y-81047858D01*
X113527296Y-80986242D01*
X113462533Y-80950879D01*
X113447529Y-80947895D01*
X113446025Y-80946576D01*
X113446415Y-80944614D01*
X113447529Y-80943971D01*
X113489203Y-80935681D01*
X113529585Y-80908699D01*
X114554610Y-79883674D01*
X114581592Y-79843292D01*
X114589882Y-79801618D01*
X114591201Y-79800114D01*
X114593163Y-79800504D01*
G37*
G36*
X118409475Y-79800504D02*
G01*
X118410118Y-79801618D01*
X118418408Y-79843292D01*
X118445390Y-79883674D01*
X119470415Y-80908699D01*
X119510797Y-80935681D01*
X119552471Y-80943971D01*
X119553975Y-80945290D01*
X119553585Y-80947252D01*
X119552471Y-80947895D01*
X119537450Y-80950882D01*
X119475834Y-80983112D01*
X119440471Y-81047875D01*
X119437487Y-81062879D01*
X119436168Y-81064383D01*
X119434206Y-81063993D01*
X119433563Y-81062879D01*
X119425273Y-81021205D01*
X119398291Y-80980823D01*
X118373266Y-79955798D01*
X118332884Y-79928816D01*
X118291210Y-79920526D01*
X118289706Y-79919207D01*
X118290096Y-79917245D01*
X118291210Y-79916602D01*
X118306231Y-79913615D01*
X118367847Y-79881385D01*
X118403210Y-79816622D01*
X118406194Y-79801618D01*
X118407513Y-79800114D01*
X118409475Y-79800504D01*
G37*
G36*
X114239609Y-79446950D02*
G01*
X114240252Y-79448064D01*
X114243239Y-79463086D01*
X114275469Y-79524702D01*
X114340232Y-79560065D01*
X114355236Y-79563049D01*
X114356740Y-79564368D01*
X114356350Y-79566330D01*
X114355236Y-79566973D01*
X114313563Y-79575263D01*
X114273181Y-79602245D01*
X113248156Y-80627270D01*
X113221174Y-80667652D01*
X113212884Y-80709326D01*
X113211565Y-80710830D01*
X113209603Y-80710440D01*
X113208960Y-80709326D01*
X113205973Y-80694304D01*
X113173743Y-80632688D01*
X113108980Y-80597325D01*
X113093976Y-80594341D01*
X113092472Y-80593022D01*
X113092862Y-80591060D01*
X113093976Y-80590417D01*
X113135649Y-80582127D01*
X113176031Y-80555145D01*
X114201056Y-79530120D01*
X114228038Y-79489738D01*
X114236328Y-79448064D01*
X114237647Y-79446560D01*
X114239609Y-79446950D01*
G37*
G36*
X118763029Y-79446951D02*
G01*
X118763672Y-79448065D01*
X118771962Y-79489738D01*
X118798944Y-79530120D01*
X119823969Y-80555145D01*
X119864351Y-80582127D01*
X119906025Y-80590417D01*
X119907529Y-80591736D01*
X119907139Y-80593698D01*
X119906025Y-80594341D01*
X119891003Y-80597328D01*
X119829387Y-80629558D01*
X119794024Y-80694321D01*
X119791040Y-80709325D01*
X119789721Y-80710829D01*
X119787759Y-80710439D01*
X119787116Y-80709325D01*
X119778826Y-80667652D01*
X119751844Y-80627270D01*
X118726819Y-79602245D01*
X118686437Y-79575263D01*
X118644763Y-79566973D01*
X118643259Y-79565654D01*
X118643649Y-79563692D01*
X118644763Y-79563049D01*
X118659785Y-79560062D01*
X118721401Y-79527832D01*
X118756764Y-79463069D01*
X118759748Y-79448065D01*
X118761067Y-79446561D01*
X118763029Y-79446951D01*
G37*
G36*
X113886056Y-79093397D02*
G01*
X113886699Y-79094511D01*
X113889686Y-79109532D01*
X113921916Y-79171148D01*
X113986679Y-79206511D01*
X114001683Y-79209495D01*
X114003187Y-79210814D01*
X114002797Y-79212776D01*
X114001683Y-79213419D01*
X113960009Y-79221709D01*
X113919627Y-79248691D01*
X112894602Y-80273716D01*
X112867620Y-80314098D01*
X112859330Y-80355772D01*
X112858011Y-80357276D01*
X112856049Y-80356886D01*
X112855406Y-80355772D01*
X112852419Y-80340751D01*
X112820189Y-80279135D01*
X112755426Y-80243772D01*
X112740422Y-80240788D01*
X112738918Y-80239469D01*
X112739308Y-80237507D01*
X112740422Y-80236864D01*
X112782096Y-80228574D01*
X112822478Y-80201592D01*
X113847503Y-79176567D01*
X113874485Y-79136185D01*
X113882775Y-79094511D01*
X113884094Y-79093007D01*
X113886056Y-79093397D01*
G37*
G36*
X119116582Y-79093397D02*
G01*
X119117225Y-79094511D01*
X119125515Y-79136185D01*
X119152497Y-79176567D01*
X120177522Y-80201592D01*
X120217904Y-80228574D01*
X120259578Y-80236864D01*
X120261082Y-80238183D01*
X120260692Y-80240145D01*
X120259578Y-80240788D01*
X120244557Y-80243775D01*
X120182941Y-80276005D01*
X120147578Y-80340768D01*
X120144594Y-80355772D01*
X120143275Y-80357276D01*
X120141313Y-80356886D01*
X120140670Y-80355772D01*
X120132380Y-80314098D01*
X120105398Y-80273716D01*
X119080373Y-79248691D01*
X119039991Y-79221709D01*
X118998317Y-79213419D01*
X118996813Y-79212100D01*
X118997203Y-79210138D01*
X118998317Y-79209495D01*
X119013338Y-79206508D01*
X119074954Y-79174278D01*
X119110317Y-79109515D01*
X119113301Y-79094511D01*
X119114620Y-79093007D01*
X119116582Y-79093397D01*
G37*
G36*
X113532502Y-78739843D02*
G01*
X113533145Y-78740957D01*
X113536132Y-78755979D01*
X113568362Y-78817595D01*
X113633125Y-78852958D01*
X113648129Y-78855942D01*
X113649633Y-78857261D01*
X113649243Y-78859223D01*
X113648129Y-78859866D01*
X113606456Y-78868156D01*
X113566074Y-78895138D01*
X112541049Y-79920163D01*
X112514067Y-79960545D01*
X112505777Y-80002219D01*
X112504458Y-80003723D01*
X112502496Y-80003333D01*
X112501853Y-80002219D01*
X112498866Y-79987197D01*
X112466636Y-79925581D01*
X112401873Y-79890218D01*
X112386869Y-79887234D01*
X112385365Y-79885915D01*
X112385755Y-79883953D01*
X112386869Y-79883310D01*
X112428542Y-79875020D01*
X112468924Y-79848038D01*
X113493949Y-78823013D01*
X113520931Y-78782631D01*
X113529221Y-78740957D01*
X113530540Y-78739453D01*
X113532502Y-78739843D01*
G37*
G36*
X119470136Y-78739844D02*
G01*
X119470779Y-78740958D01*
X119479069Y-78782631D01*
X119506051Y-78823013D01*
X120531076Y-79848038D01*
X120571458Y-79875020D01*
X120613132Y-79883310D01*
X120614636Y-79884629D01*
X120614246Y-79886591D01*
X120613132Y-79887234D01*
X120598110Y-79890221D01*
X120536494Y-79922451D01*
X120501131Y-79987214D01*
X120498147Y-80002218D01*
X120496828Y-80003722D01*
X120494866Y-80003332D01*
X120494223Y-80002218D01*
X120485933Y-79960545D01*
X120458951Y-79920163D01*
X119433926Y-78895138D01*
X119393544Y-78868156D01*
X119351870Y-78859866D01*
X119350366Y-78858547D01*
X119350756Y-78856585D01*
X119351870Y-78855942D01*
X119366892Y-78852955D01*
X119428508Y-78820725D01*
X119463871Y-78755962D01*
X119466855Y-78740958D01*
X119468174Y-78739454D01*
X119470136Y-78739844D01*
G37*
G36*
X119823689Y-78386290D02*
G01*
X119824332Y-78387404D01*
X119832622Y-78429078D01*
X119859604Y-78469460D01*
X120884629Y-79494485D01*
X120925011Y-79521467D01*
X120966685Y-79529757D01*
X120968189Y-79531076D01*
X120967799Y-79533038D01*
X120966685Y-79533681D01*
X120951664Y-79536668D01*
X120890048Y-79568898D01*
X120854685Y-79633661D01*
X120851701Y-79648665D01*
X120850382Y-79650169D01*
X120848420Y-79649779D01*
X120847777Y-79648665D01*
X120839487Y-79606991D01*
X120812505Y-79566609D01*
X119787480Y-78541584D01*
X119747098Y-78514602D01*
X119705424Y-78506312D01*
X119703920Y-78504993D01*
X119704310Y-78503031D01*
X119705424Y-78502388D01*
X119720445Y-78499401D01*
X119782061Y-78467171D01*
X119817424Y-78402408D01*
X119820408Y-78387404D01*
X119821727Y-78385900D01*
X119823689Y-78386290D01*
G37*
G36*
X113178949Y-78386290D02*
G01*
X113179592Y-78387404D01*
X113182579Y-78402425D01*
X113214809Y-78464041D01*
X113279572Y-78499404D01*
X113294576Y-78502388D01*
X113296080Y-78503707D01*
X113295690Y-78505669D01*
X113294576Y-78506312D01*
X113252902Y-78514602D01*
X113212520Y-78541584D01*
X112187495Y-79566609D01*
X112160513Y-79606991D01*
X112152223Y-79648665D01*
X112150904Y-79650169D01*
X112148942Y-79649779D01*
X112148299Y-79648665D01*
X112145312Y-79633644D01*
X112113082Y-79572028D01*
X112048319Y-79536665D01*
X112033315Y-79533681D01*
X112031811Y-79532362D01*
X112032201Y-79530400D01*
X112033315Y-79529757D01*
X112074989Y-79521467D01*
X112115371Y-79494485D01*
X113140396Y-78469460D01*
X113167378Y-78429078D01*
X113175668Y-78387404D01*
X113176987Y-78385900D01*
X113178949Y-78386290D01*
G37*
G36*
X120177242Y-78032737D02*
G01*
X120177885Y-78033851D01*
X120186175Y-78075525D01*
X120213157Y-78115907D01*
X121238182Y-79140932D01*
X121278564Y-79167914D01*
X121320238Y-79176204D01*
X121321742Y-79177523D01*
X121321352Y-79179485D01*
X121320238Y-79180128D01*
X121305217Y-79183115D01*
X121243601Y-79215345D01*
X121208238Y-79280108D01*
X121205254Y-79295112D01*
X121203935Y-79296616D01*
X121201973Y-79296226D01*
X121201330Y-79295112D01*
X121193040Y-79253438D01*
X121166058Y-79213056D01*
X120141033Y-78188031D01*
X120100651Y-78161049D01*
X120058977Y-78152759D01*
X120057473Y-78151440D01*
X120057863Y-78149478D01*
X120058977Y-78148835D01*
X120073998Y-78145848D01*
X120135614Y-78113618D01*
X120170977Y-78048855D01*
X120173961Y-78033851D01*
X120175280Y-78032347D01*
X120177242Y-78032737D01*
G37*
G36*
X112825396Y-78032737D02*
G01*
X112826039Y-78033851D01*
X112829026Y-78048872D01*
X112861256Y-78110488D01*
X112926019Y-78145851D01*
X112941023Y-78148835D01*
X112942527Y-78150154D01*
X112942137Y-78152116D01*
X112941023Y-78152759D01*
X112899349Y-78161049D01*
X112858967Y-78188031D01*
X111833942Y-79213056D01*
X111806960Y-79253438D01*
X111798670Y-79295112D01*
X111797351Y-79296616D01*
X111795389Y-79296226D01*
X111794746Y-79295112D01*
X111791759Y-79280091D01*
X111759529Y-79218475D01*
X111694766Y-79183112D01*
X111679762Y-79180128D01*
X111678258Y-79178809D01*
X111678648Y-79176847D01*
X111679762Y-79176204D01*
X111721436Y-79167914D01*
X111761818Y-79140932D01*
X112786843Y-78115907D01*
X112813825Y-78075525D01*
X112822115Y-78033851D01*
X112823434Y-78032347D01*
X112825396Y-78032737D01*
G37*
G36*
X112471842Y-77679183D02*
G01*
X112472485Y-77680297D01*
X112475472Y-77695319D01*
X112507702Y-77756935D01*
X112572465Y-77792298D01*
X112587469Y-77795282D01*
X112588973Y-77796601D01*
X112588583Y-77798563D01*
X112587469Y-77799206D01*
X112545796Y-77807496D01*
X112505414Y-77834478D01*
X111480389Y-78859503D01*
X111453407Y-78899885D01*
X111445117Y-78941559D01*
X111443798Y-78943063D01*
X111441836Y-78942673D01*
X111441193Y-78941559D01*
X111438206Y-78926537D01*
X111405976Y-78864921D01*
X111341213Y-78829558D01*
X111326209Y-78826574D01*
X111324705Y-78825255D01*
X111325095Y-78823293D01*
X111326209Y-78822650D01*
X111367882Y-78814360D01*
X111408264Y-78787378D01*
X112433289Y-77762353D01*
X112460271Y-77721971D01*
X112468561Y-77680297D01*
X112469880Y-77678793D01*
X112471842Y-77679183D01*
G37*
G36*
X120530796Y-77679184D02*
G01*
X120531439Y-77680298D01*
X120539729Y-77721971D01*
X120566711Y-77762353D01*
X121591736Y-78787378D01*
X121632118Y-78814360D01*
X121673792Y-78822650D01*
X121675296Y-78823969D01*
X121674906Y-78825931D01*
X121673792Y-78826574D01*
X121658770Y-78829561D01*
X121597154Y-78861791D01*
X121561791Y-78926554D01*
X121558807Y-78941558D01*
X121557488Y-78943062D01*
X121555526Y-78942672D01*
X121554883Y-78941558D01*
X121546593Y-78899885D01*
X121519611Y-78859503D01*
X120494586Y-77834478D01*
X120454204Y-77807496D01*
X120412530Y-77799206D01*
X120411026Y-77797887D01*
X120411416Y-77795925D01*
X120412530Y-77795282D01*
X120427552Y-77792295D01*
X120489168Y-77760065D01*
X120524531Y-77695302D01*
X120527515Y-77680298D01*
X120528834Y-77678794D01*
X120530796Y-77679184D01*
G37*
G36*
X120884349Y-77325630D02*
G01*
X120884992Y-77326744D01*
X120893282Y-77368418D01*
X120920264Y-77408800D01*
X121945289Y-78433825D01*
X121985671Y-78460807D01*
X122027345Y-78469097D01*
X122028849Y-78470416D01*
X122028459Y-78472378D01*
X122027345Y-78473021D01*
X122012324Y-78476008D01*
X121950708Y-78508238D01*
X121915345Y-78573001D01*
X121912361Y-78588005D01*
X121911042Y-78589509D01*
X121909080Y-78589119D01*
X121908437Y-78588005D01*
X121900147Y-78546331D01*
X121873165Y-78505949D01*
X120848140Y-77480924D01*
X120807758Y-77453942D01*
X120766084Y-77445652D01*
X120764580Y-77444333D01*
X120764970Y-77442371D01*
X120766084Y-77441728D01*
X120781105Y-77438741D01*
X120842721Y-77406511D01*
X120878084Y-77341748D01*
X120881068Y-77326744D01*
X120882387Y-77325240D01*
X120884349Y-77325630D01*
G37*
G36*
X112118289Y-77325630D02*
G01*
X112118932Y-77326744D01*
X112121919Y-77341765D01*
X112154149Y-77403381D01*
X112218912Y-77438744D01*
X112233916Y-77441728D01*
X112235420Y-77443047D01*
X112235030Y-77445009D01*
X112233916Y-77445652D01*
X112192242Y-77453942D01*
X112151860Y-77480924D01*
X111126835Y-78505949D01*
X111099853Y-78546331D01*
X111091563Y-78588005D01*
X111090244Y-78589509D01*
X111088282Y-78589119D01*
X111087639Y-78588005D01*
X111084652Y-78572984D01*
X111052422Y-78511368D01*
X110987659Y-78476005D01*
X110972655Y-78473021D01*
X110971151Y-78471702D01*
X110971541Y-78469740D01*
X110972655Y-78469097D01*
X111014329Y-78460807D01*
X111054711Y-78433825D01*
X112079736Y-77408800D01*
X112106718Y-77368418D01*
X112115008Y-77326744D01*
X112116327Y-77325240D01*
X112118289Y-77325630D01*
G37*
G36*
X111764735Y-76972077D02*
G01*
X111765378Y-76973191D01*
X111768365Y-76988211D01*
X111800595Y-77049826D01*
X111865359Y-77085190D01*
X111880364Y-77088175D01*
X111881868Y-77089494D01*
X111881478Y-77091456D01*
X111880364Y-77092099D01*
X111838689Y-77100389D01*
X111798307Y-77127371D01*
X110773282Y-78152396D01*
X110746300Y-78192778D01*
X110738010Y-78234452D01*
X110736691Y-78235956D01*
X110734729Y-78235566D01*
X110734086Y-78234452D01*
X110731099Y-78219432D01*
X110698869Y-78157817D01*
X110634105Y-78122453D01*
X110619100Y-78119468D01*
X110617596Y-78118149D01*
X110617986Y-78116187D01*
X110619100Y-78115544D01*
X110660775Y-78107254D01*
X110701157Y-78080272D01*
X111726182Y-77055247D01*
X111753164Y-77014865D01*
X111761454Y-76973191D01*
X111762773Y-76971687D01*
X111764735Y-76972077D01*
G37*
G36*
X121237903Y-76972077D02*
G01*
X121238546Y-76973191D01*
X121246836Y-77014865D01*
X121273818Y-77055247D01*
X122298843Y-78080272D01*
X122339225Y-78107254D01*
X122380900Y-78115544D01*
X122382404Y-78116863D01*
X122382014Y-78118825D01*
X122380900Y-78119468D01*
X122365876Y-78122456D01*
X122304260Y-78154687D01*
X122268898Y-78219449D01*
X122265914Y-78234452D01*
X122264595Y-78235956D01*
X122262633Y-78235566D01*
X122261990Y-78234452D01*
X122253700Y-78192778D01*
X122226718Y-78152396D01*
X121201693Y-77127371D01*
X121161311Y-77100389D01*
X121119636Y-77092099D01*
X121118132Y-77090780D01*
X121118522Y-77088818D01*
X121119636Y-77088175D01*
X121134660Y-77085187D01*
X121196276Y-77052956D01*
X121231638Y-76988194D01*
X121234622Y-76973191D01*
X121235941Y-76971687D01*
X121237903Y-76972077D01*
G37*
G36*
X111411182Y-76618522D02*
G01*
X111411825Y-76619636D01*
X111414813Y-76634660D01*
X111447044Y-76696276D01*
X111511806Y-76731638D01*
X111526809Y-76734622D01*
X111528313Y-76735941D01*
X111527923Y-76737903D01*
X111526809Y-76738546D01*
X111485135Y-76746836D01*
X111444753Y-76773818D01*
X110419728Y-77798843D01*
X110392746Y-77839225D01*
X110384456Y-77880900D01*
X110383137Y-77882404D01*
X110381175Y-77882014D01*
X110380532Y-77880900D01*
X110377544Y-77865876D01*
X110345313Y-77804260D01*
X110280551Y-77768898D01*
X110265548Y-77765914D01*
X110264044Y-77764595D01*
X110264434Y-77762633D01*
X110265548Y-77761990D01*
X110307222Y-77753700D01*
X110347604Y-77726718D01*
X111372629Y-76701693D01*
X111399611Y-76661311D01*
X111407901Y-76619636D01*
X111409220Y-76618132D01*
X111411182Y-76618522D01*
G37*
G36*
X121591456Y-76618522D02*
G01*
X121592099Y-76619636D01*
X121600389Y-76661311D01*
X121627371Y-76701693D01*
X122652396Y-77726718D01*
X122692778Y-77753700D01*
X122734452Y-77761990D01*
X122735956Y-77763309D01*
X122735566Y-77765271D01*
X122734452Y-77765914D01*
X122719432Y-77768901D01*
X122657817Y-77801131D01*
X122622453Y-77865895D01*
X122619468Y-77880900D01*
X122618149Y-77882404D01*
X122616187Y-77882014D01*
X122615544Y-77880900D01*
X122607254Y-77839225D01*
X122580272Y-77798843D01*
X121555247Y-76773818D01*
X121514865Y-76746836D01*
X121473191Y-76738546D01*
X121471687Y-76737227D01*
X121472077Y-76735265D01*
X121473191Y-76734622D01*
X121488211Y-76731635D01*
X121549826Y-76699405D01*
X121585190Y-76634641D01*
X121588175Y-76619636D01*
X121589494Y-76618132D01*
X121591456Y-76618522D01*
G37*
G36*
X121945009Y-76264970D02*
G01*
X121945652Y-76266084D01*
X121953942Y-76307758D01*
X121980924Y-76348140D01*
X123005949Y-77373165D01*
X123046331Y-77400147D01*
X123088005Y-77408437D01*
X123089509Y-77409756D01*
X123089119Y-77411718D01*
X123088005Y-77412361D01*
X123072984Y-77415348D01*
X123011368Y-77447578D01*
X122976005Y-77512341D01*
X122973021Y-77527345D01*
X122971702Y-77528849D01*
X122969740Y-77528459D01*
X122969097Y-77527345D01*
X122960807Y-77485671D01*
X122933825Y-77445289D01*
X121908800Y-76420264D01*
X121868418Y-76393282D01*
X121826744Y-76384992D01*
X121825240Y-76383673D01*
X121825630Y-76381711D01*
X121826744Y-76381068D01*
X121841765Y-76378081D01*
X121903381Y-76345851D01*
X121938744Y-76281088D01*
X121941728Y-76266084D01*
X121943047Y-76264580D01*
X121945009Y-76264970D01*
G37*
G36*
X111057629Y-76264970D02*
G01*
X111058272Y-76266084D01*
X111061259Y-76281105D01*
X111093489Y-76342721D01*
X111158252Y-76378084D01*
X111173256Y-76381068D01*
X111174760Y-76382387D01*
X111174370Y-76384349D01*
X111173256Y-76384992D01*
X111131582Y-76393282D01*
X111091200Y-76420264D01*
X110066175Y-77445289D01*
X110039193Y-77485671D01*
X110030903Y-77527345D01*
X110029584Y-77528849D01*
X110027622Y-77528459D01*
X110026979Y-77527345D01*
X110023992Y-77512324D01*
X109991762Y-77450708D01*
X109926999Y-77415345D01*
X109911995Y-77412361D01*
X109910491Y-77411042D01*
X109910881Y-77409080D01*
X109911995Y-77408437D01*
X109953669Y-77400147D01*
X109994051Y-77373165D01*
X111019076Y-76348140D01*
X111046058Y-76307758D01*
X111054348Y-76266084D01*
X111055667Y-76264580D01*
X111057629Y-76264970D01*
G37*
G36*
X110704075Y-75911416D02*
G01*
X110704718Y-75912530D01*
X110707705Y-75927552D01*
X110739935Y-75989168D01*
X110804698Y-76024531D01*
X110819702Y-76027515D01*
X110821206Y-76028834D01*
X110820816Y-76030796D01*
X110819702Y-76031439D01*
X110778029Y-76039729D01*
X110737647Y-76066711D01*
X109712622Y-77091736D01*
X109685640Y-77132118D01*
X109677350Y-77173792D01*
X109676031Y-77175296D01*
X109674069Y-77174906D01*
X109673426Y-77173792D01*
X109670439Y-77158770D01*
X109638209Y-77097154D01*
X109573446Y-77061791D01*
X109558442Y-77058807D01*
X109556938Y-77057488D01*
X109557328Y-77055526D01*
X109558442Y-77054883D01*
X109600115Y-77046593D01*
X109640497Y-77019611D01*
X110665522Y-75994586D01*
X110692504Y-75954204D01*
X110700794Y-75912530D01*
X110702113Y-75911026D01*
X110704075Y-75911416D01*
G37*
G36*
X122298563Y-75911417D02*
G01*
X122299206Y-75912531D01*
X122307496Y-75954204D01*
X122334478Y-75994586D01*
X123359503Y-77019611D01*
X123399885Y-77046593D01*
X123441559Y-77054883D01*
X123443063Y-77056202D01*
X123442673Y-77058164D01*
X123441559Y-77058807D01*
X123426537Y-77061794D01*
X123364921Y-77094024D01*
X123329558Y-77158787D01*
X123326574Y-77173791D01*
X123325255Y-77175295D01*
X123323293Y-77174905D01*
X123322650Y-77173791D01*
X123314360Y-77132118D01*
X123287378Y-77091736D01*
X122262353Y-76066711D01*
X122221971Y-76039729D01*
X122180297Y-76031439D01*
X122178793Y-76030120D01*
X122179183Y-76028158D01*
X122180297Y-76027515D01*
X122195319Y-76024528D01*
X122256935Y-75992298D01*
X122292298Y-75927535D01*
X122295282Y-75912531D01*
X122296601Y-75911027D01*
X122298563Y-75911417D01*
G37*
G36*
X122652116Y-75557863D02*
G01*
X122652759Y-75558977D01*
X122661049Y-75600651D01*
X122688031Y-75641033D01*
X123713056Y-76666058D01*
X123753438Y-76693040D01*
X123795112Y-76701330D01*
X123796616Y-76702649D01*
X123796226Y-76704611D01*
X123795112Y-76705254D01*
X123780091Y-76708241D01*
X123718475Y-76740471D01*
X123683112Y-76805234D01*
X123680128Y-76820238D01*
X123678809Y-76821742D01*
X123676847Y-76821352D01*
X123676204Y-76820238D01*
X123667914Y-76778564D01*
X123640932Y-76738182D01*
X122615907Y-75713157D01*
X122575525Y-75686175D01*
X122533851Y-75677885D01*
X122532347Y-75676566D01*
X122532737Y-75674604D01*
X122533851Y-75673961D01*
X122548872Y-75670974D01*
X122610488Y-75638744D01*
X122645851Y-75573981D01*
X122648835Y-75558977D01*
X122650154Y-75557473D01*
X122652116Y-75557863D01*
G37*
G36*
X110350522Y-75557863D02*
G01*
X110351165Y-75558977D01*
X110354152Y-75573998D01*
X110386382Y-75635614D01*
X110451145Y-75670977D01*
X110466149Y-75673961D01*
X110467653Y-75675280D01*
X110467263Y-75677242D01*
X110466149Y-75677885D01*
X110424475Y-75686175D01*
X110384093Y-75713157D01*
X109359068Y-76738182D01*
X109332086Y-76778564D01*
X109323796Y-76820238D01*
X109322477Y-76821742D01*
X109320515Y-76821352D01*
X109319872Y-76820238D01*
X109316885Y-76805217D01*
X109284655Y-76743601D01*
X109219892Y-76708238D01*
X109204888Y-76705254D01*
X109203384Y-76703935D01*
X109203774Y-76701973D01*
X109204888Y-76701330D01*
X109246562Y-76693040D01*
X109286944Y-76666058D01*
X110311969Y-75641033D01*
X110338951Y-75600651D01*
X110347241Y-75558977D01*
X110348560Y-75557473D01*
X110350522Y-75557863D01*
G37*
G36*
X123005669Y-75204310D02*
G01*
X123006312Y-75205424D01*
X123014602Y-75247098D01*
X123041584Y-75287480D01*
X124066609Y-76312505D01*
X124106991Y-76339487D01*
X124148665Y-76347777D01*
X124150169Y-76349096D01*
X124149779Y-76351058D01*
X124148665Y-76351701D01*
X124133644Y-76354688D01*
X124072028Y-76386918D01*
X124036665Y-76451681D01*
X124033681Y-76466685D01*
X124032362Y-76468189D01*
X124030400Y-76467799D01*
X124029757Y-76466685D01*
X124021467Y-76425011D01*
X123994485Y-76384629D01*
X122969460Y-75359604D01*
X122929078Y-75332622D01*
X122887404Y-75324332D01*
X122885900Y-75323013D01*
X122886290Y-75321051D01*
X122887404Y-75320408D01*
X122902425Y-75317421D01*
X122964041Y-75285191D01*
X122999404Y-75220428D01*
X123002388Y-75205424D01*
X123003707Y-75203920D01*
X123005669Y-75204310D01*
G37*
G36*
X109996969Y-75204310D02*
G01*
X109997612Y-75205424D01*
X110000599Y-75220445D01*
X110032829Y-75282061D01*
X110097592Y-75317424D01*
X110112596Y-75320408D01*
X110114100Y-75321727D01*
X110113710Y-75323689D01*
X110112596Y-75324332D01*
X110070922Y-75332622D01*
X110030540Y-75359604D01*
X109005515Y-76384629D01*
X108978533Y-76425011D01*
X108970243Y-76466685D01*
X108968924Y-76468189D01*
X108966962Y-76467799D01*
X108966319Y-76466685D01*
X108963332Y-76451664D01*
X108931102Y-76390048D01*
X108866339Y-76354685D01*
X108851335Y-76351701D01*
X108849831Y-76350382D01*
X108850221Y-76348420D01*
X108851335Y-76347777D01*
X108893009Y-76339487D01*
X108933391Y-76312505D01*
X109958416Y-75287480D01*
X109985398Y-75247098D01*
X109993688Y-75205424D01*
X109995007Y-75203920D01*
X109996969Y-75204310D01*
G37*
G36*
X109643415Y-74850756D02*
G01*
X109644058Y-74851870D01*
X109647045Y-74866892D01*
X109679275Y-74928508D01*
X109744038Y-74963871D01*
X109759042Y-74966855D01*
X109760546Y-74968174D01*
X109760156Y-74970136D01*
X109759042Y-74970779D01*
X109717369Y-74979069D01*
X109676987Y-75006051D01*
X108651962Y-76031076D01*
X108624980Y-76071458D01*
X108616690Y-76113132D01*
X108615371Y-76114636D01*
X108613409Y-76114246D01*
X108612766Y-76113132D01*
X108609779Y-76098110D01*
X108577549Y-76036494D01*
X108512786Y-76001131D01*
X108497782Y-75998147D01*
X108496278Y-75996828D01*
X108496668Y-75994866D01*
X108497782Y-75994223D01*
X108539455Y-75985933D01*
X108579837Y-75958951D01*
X109604862Y-74933926D01*
X109631844Y-74893544D01*
X109640134Y-74851870D01*
X109641453Y-74850366D01*
X109643415Y-74850756D01*
G37*
G36*
X123359223Y-74850757D02*
G01*
X123359866Y-74851871D01*
X123368156Y-74893544D01*
X123395138Y-74933926D01*
X124420163Y-75958951D01*
X124460545Y-75985933D01*
X124502219Y-75994223D01*
X124503723Y-75995542D01*
X124503333Y-75997504D01*
X124502219Y-75998147D01*
X124487197Y-76001134D01*
X124425581Y-76033364D01*
X124390218Y-76098127D01*
X124387234Y-76113131D01*
X124385915Y-76114635D01*
X124383953Y-76114245D01*
X124383310Y-76113131D01*
X124375020Y-76071458D01*
X124348038Y-76031076D01*
X123323013Y-75006051D01*
X123282631Y-74979069D01*
X123240957Y-74970779D01*
X123239453Y-74969460D01*
X123239843Y-74967498D01*
X123240957Y-74966855D01*
X123255979Y-74963868D01*
X123317595Y-74931638D01*
X123352958Y-74866875D01*
X123355942Y-74851871D01*
X123357261Y-74850367D01*
X123359223Y-74850757D01*
G37*
G36*
X123712776Y-74497203D02*
G01*
X123713419Y-74498317D01*
X123721709Y-74539991D01*
X123748691Y-74580373D01*
X124773716Y-75605398D01*
X124814098Y-75632380D01*
X124855772Y-75640670D01*
X124857276Y-75641989D01*
X124856886Y-75643951D01*
X124855772Y-75644594D01*
X124840751Y-75647581D01*
X124779135Y-75679811D01*
X124743772Y-75744574D01*
X124740788Y-75759578D01*
X124739469Y-75761082D01*
X124737507Y-75760692D01*
X124736864Y-75759578D01*
X124728574Y-75717904D01*
X124701592Y-75677522D01*
X123676567Y-74652497D01*
X123636185Y-74625515D01*
X123594511Y-74617225D01*
X123593007Y-74615906D01*
X123593397Y-74613944D01*
X123594511Y-74613301D01*
X123609532Y-74610314D01*
X123671148Y-74578084D01*
X123706511Y-74513321D01*
X123709495Y-74498317D01*
X123710814Y-74496813D01*
X123712776Y-74497203D01*
G37*
G36*
X109289862Y-74497203D02*
G01*
X109290505Y-74498317D01*
X109293492Y-74513338D01*
X109325722Y-74574954D01*
X109390485Y-74610317D01*
X109405489Y-74613301D01*
X109406993Y-74614620D01*
X109406603Y-74616582D01*
X109405489Y-74617225D01*
X109363815Y-74625515D01*
X109323433Y-74652497D01*
X108298408Y-75677522D01*
X108271426Y-75717904D01*
X108263136Y-75759578D01*
X108261817Y-75761082D01*
X108259855Y-75760692D01*
X108259212Y-75759578D01*
X108256225Y-75744557D01*
X108223995Y-75682941D01*
X108159232Y-75647578D01*
X108144228Y-75644594D01*
X108142724Y-75643275D01*
X108143114Y-75641313D01*
X108144228Y-75640670D01*
X108185902Y-75632380D01*
X108226284Y-75605398D01*
X109251309Y-74580373D01*
X109278291Y-74539991D01*
X109286581Y-74498317D01*
X109287900Y-74496813D01*
X109289862Y-74497203D01*
G37*
G36*
X108936308Y-74143649D02*
G01*
X108936951Y-74144763D01*
X108939938Y-74159785D01*
X108972168Y-74221401D01*
X109036931Y-74256764D01*
X109051935Y-74259748D01*
X109053439Y-74261067D01*
X109053049Y-74263029D01*
X109051935Y-74263672D01*
X109010262Y-74271962D01*
X108969880Y-74298944D01*
X107944855Y-75323969D01*
X107917873Y-75364351D01*
X107909583Y-75406025D01*
X107908264Y-75407529D01*
X107906302Y-75407139D01*
X107905659Y-75406025D01*
X107902672Y-75391003D01*
X107870442Y-75329387D01*
X107805679Y-75294024D01*
X107790675Y-75291040D01*
X107789171Y-75289721D01*
X107789561Y-75287759D01*
X107790675Y-75287116D01*
X107832348Y-75278826D01*
X107872730Y-75251844D01*
X108897755Y-74226819D01*
X108924737Y-74186437D01*
X108933027Y-74144763D01*
X108934346Y-74143259D01*
X108936308Y-74143649D01*
G37*
G36*
X124066330Y-74143650D02*
G01*
X124066973Y-74144764D01*
X124075263Y-74186437D01*
X124102245Y-74226819D01*
X125127270Y-75251844D01*
X125167652Y-75278826D01*
X125209326Y-75287116D01*
X125210830Y-75288435D01*
X125210440Y-75290397D01*
X125209326Y-75291040D01*
X125194304Y-75294027D01*
X125132688Y-75326257D01*
X125097325Y-75391020D01*
X125094341Y-75406024D01*
X125093022Y-75407528D01*
X125091060Y-75407138D01*
X125090417Y-75406024D01*
X125082127Y-75364351D01*
X125055145Y-75323969D01*
X124030120Y-74298944D01*
X123989738Y-74271962D01*
X123948064Y-74263672D01*
X123946560Y-74262353D01*
X123946950Y-74260391D01*
X123948064Y-74259748D01*
X123963086Y-74256761D01*
X124024702Y-74224531D01*
X124060065Y-74159768D01*
X124063049Y-74144764D01*
X124064368Y-74143260D01*
X124066330Y-74143650D01*
G37*
G36*
X108582755Y-73790096D02*
G01*
X108583398Y-73791210D01*
X108586385Y-73806231D01*
X108618615Y-73867847D01*
X108683378Y-73903210D01*
X108698382Y-73906194D01*
X108699886Y-73907513D01*
X108699496Y-73909475D01*
X108698382Y-73910118D01*
X108656708Y-73918408D01*
X108616326Y-73945390D01*
X107591301Y-74970415D01*
X107564319Y-75010797D01*
X107556029Y-75052471D01*
X107554710Y-75053975D01*
X107552748Y-75053585D01*
X107552105Y-75052471D01*
X107549118Y-75037450D01*
X107516888Y-74975834D01*
X107452125Y-74940471D01*
X107437121Y-74937487D01*
X107435617Y-74936168D01*
X107436007Y-74934206D01*
X107437121Y-74933563D01*
X107478795Y-74925273D01*
X107519177Y-74898291D01*
X108544202Y-73873266D01*
X108571184Y-73832884D01*
X108579474Y-73791210D01*
X108580793Y-73789706D01*
X108582755Y-73790096D01*
G37*
G36*
X124419883Y-73790096D02*
G01*
X124420526Y-73791210D01*
X124428816Y-73832884D01*
X124455798Y-73873266D01*
X125480823Y-74898291D01*
X125521205Y-74925273D01*
X125562879Y-74933563D01*
X125564383Y-74934882D01*
X125563993Y-74936844D01*
X125562879Y-74937487D01*
X125547858Y-74940474D01*
X125486242Y-74972704D01*
X125450879Y-75037467D01*
X125447895Y-75052471D01*
X125446576Y-75053975D01*
X125444614Y-75053585D01*
X125443971Y-75052471D01*
X125435681Y-75010797D01*
X125408699Y-74970415D01*
X124383674Y-73945390D01*
X124343292Y-73918408D01*
X124301618Y-73910118D01*
X124300114Y-73908799D01*
X124300504Y-73906837D01*
X124301618Y-73906194D01*
X124316639Y-73903207D01*
X124378255Y-73870977D01*
X124413618Y-73806214D01*
X124416602Y-73791210D01*
X124417921Y-73789706D01*
X124419883Y-73790096D01*
G37*
G36*
X108229202Y-73436543D02*
G01*
X108229845Y-73437657D01*
X108232832Y-73452678D01*
X108265062Y-73514294D01*
X108329825Y-73549657D01*
X108344829Y-73552641D01*
X108346333Y-73553960D01*
X108345943Y-73555922D01*
X108344829Y-73556565D01*
X108303155Y-73564855D01*
X108262773Y-73591837D01*
X107237748Y-74616862D01*
X107210766Y-74657244D01*
X107202476Y-74698918D01*
X107201157Y-74700422D01*
X107199195Y-74700032D01*
X107198552Y-74698918D01*
X107195565Y-74683897D01*
X107163335Y-74622281D01*
X107098572Y-74586918D01*
X107083568Y-74583934D01*
X107082064Y-74582615D01*
X107082454Y-74580653D01*
X107083568Y-74580010D01*
X107125242Y-74571720D01*
X107165624Y-74544738D01*
X108190649Y-73519713D01*
X108217631Y-73479331D01*
X108225921Y-73437657D01*
X108227240Y-73436153D01*
X108229202Y-73436543D01*
G37*
G36*
X124773436Y-73436543D02*
G01*
X124774079Y-73437657D01*
X124782369Y-73479331D01*
X124809351Y-73519713D01*
X125834376Y-74544738D01*
X125874758Y-74571720D01*
X125916432Y-74580010D01*
X125917936Y-74581329D01*
X125917546Y-74583291D01*
X125916432Y-74583934D01*
X125901411Y-74586921D01*
X125839795Y-74619151D01*
X125804432Y-74683914D01*
X125801448Y-74698918D01*
X125800129Y-74700422D01*
X125798167Y-74700032D01*
X125797524Y-74698918D01*
X125789234Y-74657244D01*
X125762252Y-74616862D01*
X124737227Y-73591837D01*
X124696845Y-73564855D01*
X124655171Y-73556565D01*
X124653667Y-73555246D01*
X124654057Y-73553284D01*
X124655171Y-73552641D01*
X124670192Y-73549654D01*
X124731808Y-73517424D01*
X124767171Y-73452661D01*
X124770155Y-73437657D01*
X124771474Y-73436153D01*
X124773436Y-73436543D01*
G37*
G36*
X107875648Y-73082989D02*
G01*
X107876291Y-73084103D01*
X107879278Y-73099125D01*
X107911508Y-73160741D01*
X107976271Y-73196104D01*
X107991275Y-73199088D01*
X107992779Y-73200407D01*
X107992389Y-73202369D01*
X107991275Y-73203012D01*
X107949602Y-73211302D01*
X107909220Y-73238284D01*
X106884195Y-74263309D01*
X106857213Y-74303691D01*
X106848923Y-74345365D01*
X106847604Y-74346869D01*
X106845642Y-74346479D01*
X106844999Y-74345365D01*
X106842012Y-74330343D01*
X106809782Y-74268727D01*
X106745019Y-74233364D01*
X106730015Y-74230380D01*
X106728511Y-74229061D01*
X106728901Y-74227099D01*
X106730015Y-74226456D01*
X106771688Y-74218166D01*
X106812070Y-74191184D01*
X107837095Y-73166159D01*
X107864077Y-73125777D01*
X107872367Y-73084103D01*
X107873686Y-73082599D01*
X107875648Y-73082989D01*
G37*
G36*
X125126990Y-73082990D02*
G01*
X125127633Y-73084104D01*
X125135923Y-73125777D01*
X125162905Y-73166159D01*
X126187930Y-74191184D01*
X126228312Y-74218166D01*
X126269986Y-74226456D01*
X126271490Y-74227775D01*
X126271100Y-74229737D01*
X126269986Y-74230380D01*
X126254964Y-74233367D01*
X126193348Y-74265597D01*
X126157985Y-74330360D01*
X126155001Y-74345364D01*
X126153682Y-74346868D01*
X126151720Y-74346478D01*
X126151077Y-74345364D01*
X126142787Y-74303691D01*
X126115805Y-74263309D01*
X125090780Y-73238284D01*
X125050398Y-73211302D01*
X125008724Y-73203012D01*
X125007220Y-73201693D01*
X125007610Y-73199731D01*
X125008724Y-73199088D01*
X125023746Y-73196101D01*
X125085362Y-73163871D01*
X125120725Y-73099108D01*
X125123709Y-73084104D01*
X125125028Y-73082600D01*
X125126990Y-73082990D01*
G37*
G36*
X125480543Y-72729436D02*
G01*
X125481186Y-72730550D01*
X125489476Y-72772224D01*
X125516458Y-72812606D01*
X126541483Y-73837631D01*
X126581865Y-73864613D01*
X126623539Y-73872903D01*
X126625043Y-73874222D01*
X126624653Y-73876184D01*
X126623539Y-73876827D01*
X126608518Y-73879814D01*
X126546902Y-73912044D01*
X126511539Y-73976807D01*
X126508555Y-73991811D01*
X126507236Y-73993315D01*
X126505274Y-73992925D01*
X126504631Y-73991811D01*
X126496341Y-73950137D01*
X126469359Y-73909755D01*
X125444334Y-72884730D01*
X125403952Y-72857748D01*
X125362278Y-72849458D01*
X125360774Y-72848139D01*
X125361164Y-72846177D01*
X125362278Y-72845534D01*
X125377299Y-72842547D01*
X125438915Y-72810317D01*
X125474278Y-72745554D01*
X125477262Y-72730550D01*
X125478581Y-72729046D01*
X125480543Y-72729436D01*
G37*
G36*
X107522095Y-72729436D02*
G01*
X107522738Y-72730550D01*
X107525725Y-72745571D01*
X107557955Y-72807187D01*
X107622718Y-72842550D01*
X107637722Y-72845534D01*
X107639226Y-72846853D01*
X107638836Y-72848815D01*
X107637722Y-72849458D01*
X107596048Y-72857748D01*
X107555666Y-72884730D01*
X106530641Y-73909755D01*
X106503659Y-73950137D01*
X106495369Y-73991811D01*
X106494050Y-73993315D01*
X106492088Y-73992925D01*
X106491445Y-73991811D01*
X106488458Y-73976790D01*
X106456228Y-73915174D01*
X106391465Y-73879811D01*
X106376461Y-73876827D01*
X106374957Y-73875508D01*
X106375347Y-73873546D01*
X106376461Y-73872903D01*
X106418135Y-73864613D01*
X106458517Y-73837631D01*
X107483542Y-72812606D01*
X107510524Y-72772224D01*
X107518814Y-72730550D01*
X107520133Y-72729046D01*
X107522095Y-72729436D01*
G37*
G36*
X106494726Y-70007075D02*
G01*
X106495369Y-70008189D01*
X106503659Y-70049863D01*
X106530641Y-70090245D01*
X107555666Y-71115270D01*
X107596048Y-71142252D01*
X107637722Y-71150542D01*
X107639226Y-71151861D01*
X107638836Y-71153823D01*
X107637722Y-71154466D01*
X107622701Y-71157453D01*
X107561085Y-71189683D01*
X107525722Y-71254446D01*
X107522738Y-71269450D01*
X107521419Y-71270954D01*
X107519457Y-71270564D01*
X107518814Y-71269450D01*
X107510524Y-71227776D01*
X107483542Y-71187394D01*
X106458517Y-70162369D01*
X106418135Y-70135387D01*
X106376461Y-70127097D01*
X106374957Y-70125778D01*
X106375347Y-70123816D01*
X106376461Y-70123173D01*
X106391482Y-70120186D01*
X106453098Y-70087956D01*
X106488461Y-70023193D01*
X106491445Y-70008189D01*
X106492764Y-70006685D01*
X106494726Y-70007075D01*
G37*
G36*
X126507912Y-70007075D02*
G01*
X126508555Y-70008189D01*
X126511542Y-70023210D01*
X126543772Y-70084826D01*
X126608535Y-70120189D01*
X126623539Y-70123173D01*
X126625043Y-70124492D01*
X126624653Y-70126454D01*
X126623539Y-70127097D01*
X126581865Y-70135387D01*
X126541483Y-70162369D01*
X125516458Y-71187394D01*
X125489476Y-71227776D01*
X125481186Y-71269450D01*
X125479867Y-71270954D01*
X125477905Y-71270564D01*
X125477262Y-71269450D01*
X125474275Y-71254429D01*
X125442045Y-71192813D01*
X125377282Y-71157450D01*
X125362278Y-71154466D01*
X125360774Y-71153147D01*
X125361164Y-71151185D01*
X125362278Y-71150542D01*
X125403952Y-71142252D01*
X125444334Y-71115270D01*
X126469359Y-70090245D01*
X126496341Y-70049863D01*
X126504631Y-70008189D01*
X126505950Y-70006685D01*
X126507912Y-70007075D01*
G37*
G36*
X126154358Y-69653521D02*
G01*
X126155001Y-69654635D01*
X126157988Y-69669657D01*
X126190218Y-69731273D01*
X126254981Y-69766636D01*
X126269985Y-69769620D01*
X126271489Y-69770939D01*
X126271099Y-69772901D01*
X126269985Y-69773544D01*
X126228312Y-69781834D01*
X126187930Y-69808816D01*
X125162905Y-70833841D01*
X125135923Y-70874223D01*
X125127633Y-70915897D01*
X125126314Y-70917401D01*
X125124352Y-70917011D01*
X125123709Y-70915897D01*
X125120722Y-70900875D01*
X125088492Y-70839259D01*
X125023729Y-70803896D01*
X125008725Y-70800912D01*
X125007221Y-70799593D01*
X125007611Y-70797631D01*
X125008725Y-70796988D01*
X125050398Y-70788698D01*
X125090780Y-70761716D01*
X126115805Y-69736691D01*
X126142787Y-69696309D01*
X126151077Y-69654635D01*
X126152396Y-69653131D01*
X126154358Y-69653521D01*
G37*
G36*
X106848280Y-69653522D02*
G01*
X106848923Y-69654636D01*
X106857213Y-69696309D01*
X106884195Y-69736691D01*
X107909220Y-70761716D01*
X107949602Y-70788698D01*
X107991276Y-70796988D01*
X107992780Y-70798307D01*
X107992390Y-70800269D01*
X107991276Y-70800912D01*
X107976254Y-70803899D01*
X107914638Y-70836129D01*
X107879275Y-70900892D01*
X107876291Y-70915896D01*
X107874972Y-70917400D01*
X107873010Y-70917010D01*
X107872367Y-70915896D01*
X107864077Y-70874223D01*
X107837095Y-70833841D01*
X106812070Y-69808816D01*
X106771688Y-69781834D01*
X106730014Y-69773544D01*
X106728510Y-69772225D01*
X106728900Y-69770263D01*
X106730014Y-69769620D01*
X106745036Y-69766633D01*
X106806652Y-69734403D01*
X106842015Y-69669640D01*
X106844999Y-69654636D01*
X106846318Y-69653132D01*
X106848280Y-69653522D01*
G37*
G36*
X107201833Y-69299968D02*
G01*
X107202476Y-69301082D01*
X107210766Y-69342756D01*
X107237748Y-69383138D01*
X108262773Y-70408163D01*
X108303155Y-70435145D01*
X108344829Y-70443435D01*
X108346333Y-70444754D01*
X108345943Y-70446716D01*
X108344829Y-70447359D01*
X108329808Y-70450346D01*
X108268192Y-70482576D01*
X108232829Y-70547339D01*
X108229845Y-70562343D01*
X108228526Y-70563847D01*
X108226564Y-70563457D01*
X108225921Y-70562343D01*
X108217631Y-70520669D01*
X108190649Y-70480287D01*
X107165624Y-69455262D01*
X107125242Y-69428280D01*
X107083568Y-69419990D01*
X107082064Y-69418671D01*
X107082454Y-69416709D01*
X107083568Y-69416066D01*
X107098589Y-69413079D01*
X107160205Y-69380849D01*
X107195568Y-69316086D01*
X107198552Y-69301082D01*
X107199871Y-69299578D01*
X107201833Y-69299968D01*
G37*
G36*
X125800805Y-69299968D02*
G01*
X125801448Y-69301082D01*
X125804435Y-69316103D01*
X125836665Y-69377719D01*
X125901428Y-69413082D01*
X125916432Y-69416066D01*
X125917936Y-69417385D01*
X125917546Y-69419347D01*
X125916432Y-69419990D01*
X125874758Y-69428280D01*
X125834376Y-69455262D01*
X124809351Y-70480287D01*
X124782369Y-70520669D01*
X124774079Y-70562343D01*
X124772760Y-70563847D01*
X124770798Y-70563457D01*
X124770155Y-70562343D01*
X124767168Y-70547322D01*
X124734938Y-70485706D01*
X124670175Y-70450343D01*
X124655171Y-70447359D01*
X124653667Y-70446040D01*
X124654057Y-70444078D01*
X124655171Y-70443435D01*
X124696845Y-70435145D01*
X124737227Y-70408163D01*
X125762252Y-69383138D01*
X125789234Y-69342756D01*
X125797524Y-69301082D01*
X125798843Y-69299578D01*
X125800805Y-69299968D01*
G37*
G36*
X107555386Y-68946415D02*
G01*
X107556029Y-68947529D01*
X107564319Y-68989203D01*
X107591301Y-69029585D01*
X108616326Y-70054610D01*
X108656708Y-70081592D01*
X108698382Y-70089882D01*
X108699886Y-70091201D01*
X108699496Y-70093163D01*
X108698382Y-70093806D01*
X108683361Y-70096793D01*
X108621745Y-70129023D01*
X108586382Y-70193786D01*
X108583398Y-70208790D01*
X108582079Y-70210294D01*
X108580117Y-70209904D01*
X108579474Y-70208790D01*
X108571184Y-70167116D01*
X108544202Y-70126734D01*
X107519177Y-69101709D01*
X107478795Y-69074727D01*
X107437121Y-69066437D01*
X107435617Y-69065118D01*
X107436007Y-69063156D01*
X107437121Y-69062513D01*
X107452142Y-69059526D01*
X107513758Y-69027296D01*
X107549121Y-68962533D01*
X107552105Y-68947529D01*
X107553424Y-68946025D01*
X107555386Y-68946415D01*
G37*
G36*
X125447252Y-68946415D02*
G01*
X125447895Y-68947529D01*
X125450882Y-68962550D01*
X125483112Y-69024166D01*
X125547875Y-69059529D01*
X125562879Y-69062513D01*
X125564383Y-69063832D01*
X125563993Y-69065794D01*
X125562879Y-69066437D01*
X125521205Y-69074727D01*
X125480823Y-69101709D01*
X124455798Y-70126734D01*
X124428816Y-70167116D01*
X124420526Y-70208790D01*
X124419207Y-70210294D01*
X124417245Y-70209904D01*
X124416602Y-70208790D01*
X124413615Y-70193769D01*
X124381385Y-70132153D01*
X124316622Y-70096790D01*
X124301618Y-70093806D01*
X124300114Y-70092487D01*
X124300504Y-70090525D01*
X124301618Y-70089882D01*
X124343292Y-70081592D01*
X124383674Y-70054610D01*
X125408699Y-69029585D01*
X125435681Y-68989203D01*
X125443971Y-68947529D01*
X125445290Y-68946025D01*
X125447252Y-68946415D01*
G37*
G36*
X125093698Y-68592861D02*
G01*
X125094341Y-68593975D01*
X125097328Y-68608997D01*
X125129558Y-68670613D01*
X125194321Y-68705976D01*
X125209325Y-68708960D01*
X125210829Y-68710279D01*
X125210439Y-68712241D01*
X125209325Y-68712884D01*
X125167652Y-68721174D01*
X125127270Y-68748156D01*
X124102245Y-69773181D01*
X124075263Y-69813563D01*
X124066973Y-69855237D01*
X124065654Y-69856741D01*
X124063692Y-69856351D01*
X124063049Y-69855237D01*
X124060062Y-69840215D01*
X124027832Y-69778599D01*
X123963069Y-69743236D01*
X123948065Y-69740252D01*
X123946561Y-69738933D01*
X123946951Y-69736971D01*
X123948065Y-69736328D01*
X123989738Y-69728038D01*
X124030120Y-69701056D01*
X125055145Y-68676031D01*
X125082127Y-68635649D01*
X125090417Y-68593975D01*
X125091736Y-68592471D01*
X125093698Y-68592861D01*
G37*
G36*
X107908940Y-68592862D02*
G01*
X107909583Y-68593976D01*
X107917873Y-68635649D01*
X107944855Y-68676031D01*
X108969880Y-69701056D01*
X109010262Y-69728038D01*
X109051936Y-69736328D01*
X109053440Y-69737647D01*
X109053050Y-69739609D01*
X109051936Y-69740252D01*
X109036914Y-69743239D01*
X108975298Y-69775469D01*
X108939935Y-69840232D01*
X108936951Y-69855236D01*
X108935632Y-69856740D01*
X108933670Y-69856350D01*
X108933027Y-69855236D01*
X108924737Y-69813563D01*
X108897755Y-69773181D01*
X107872730Y-68748156D01*
X107832348Y-68721174D01*
X107790674Y-68712884D01*
X107789170Y-68711565D01*
X107789560Y-68709603D01*
X107790674Y-68708960D01*
X107805696Y-68705973D01*
X107867312Y-68673743D01*
X107902675Y-68608980D01*
X107905659Y-68593976D01*
X107906978Y-68592472D01*
X107908940Y-68592862D01*
G37*
G36*
X108262493Y-68239308D02*
G01*
X108263136Y-68240422D01*
X108271426Y-68282096D01*
X108298408Y-68322478D01*
X109323433Y-69347503D01*
X109363815Y-69374485D01*
X109405489Y-69382775D01*
X109406993Y-69384094D01*
X109406603Y-69386056D01*
X109405489Y-69386699D01*
X109390468Y-69389686D01*
X109328852Y-69421916D01*
X109293489Y-69486679D01*
X109290505Y-69501683D01*
X109289186Y-69503187D01*
X109287224Y-69502797D01*
X109286581Y-69501683D01*
X109278291Y-69460009D01*
X109251309Y-69419627D01*
X108226284Y-68394602D01*
X108185902Y-68367620D01*
X108144228Y-68359330D01*
X108142724Y-68358011D01*
X108143114Y-68356049D01*
X108144228Y-68355406D01*
X108159249Y-68352419D01*
X108220865Y-68320189D01*
X108256228Y-68255426D01*
X108259212Y-68240422D01*
X108260531Y-68238918D01*
X108262493Y-68239308D01*
G37*
G36*
X124740145Y-68239308D02*
G01*
X124740788Y-68240422D01*
X124743775Y-68255443D01*
X124776005Y-68317059D01*
X124840768Y-68352422D01*
X124855772Y-68355406D01*
X124857276Y-68356725D01*
X124856886Y-68358687D01*
X124855772Y-68359330D01*
X124814098Y-68367620D01*
X124773716Y-68394602D01*
X123748691Y-69419627D01*
X123721709Y-69460009D01*
X123713419Y-69501683D01*
X123712100Y-69503187D01*
X123710138Y-69502797D01*
X123709495Y-69501683D01*
X123706508Y-69486662D01*
X123674278Y-69425046D01*
X123609515Y-69389683D01*
X123594511Y-69386699D01*
X123593007Y-69385380D01*
X123593397Y-69383418D01*
X123594511Y-69382775D01*
X123636185Y-69374485D01*
X123676567Y-69347503D01*
X124701592Y-68322478D01*
X124728574Y-68282096D01*
X124736864Y-68240422D01*
X124738183Y-68238918D01*
X124740145Y-68239308D01*
G37*
G36*
X124386591Y-67885754D02*
G01*
X124387234Y-67886868D01*
X124390221Y-67901890D01*
X124422451Y-67963506D01*
X124487214Y-67998869D01*
X124502218Y-68001853D01*
X124503722Y-68003172D01*
X124503332Y-68005134D01*
X124502218Y-68005777D01*
X124460545Y-68014067D01*
X124420163Y-68041049D01*
X123395138Y-69066074D01*
X123368156Y-69106456D01*
X123359866Y-69148130D01*
X123358547Y-69149634D01*
X123356585Y-69149244D01*
X123355942Y-69148130D01*
X123352955Y-69133108D01*
X123320725Y-69071492D01*
X123255962Y-69036129D01*
X123240958Y-69033145D01*
X123239454Y-69031826D01*
X123239844Y-69029864D01*
X123240958Y-69029221D01*
X123282631Y-69020931D01*
X123323013Y-68993949D01*
X124348038Y-67968924D01*
X124375020Y-67928542D01*
X124383310Y-67886868D01*
X124384629Y-67885364D01*
X124386591Y-67885754D01*
G37*
G36*
X108616047Y-67885755D02*
G01*
X108616690Y-67886869D01*
X108624980Y-67928542D01*
X108651962Y-67968924D01*
X109676987Y-68993949D01*
X109717369Y-69020931D01*
X109759043Y-69029221D01*
X109760547Y-69030540D01*
X109760157Y-69032502D01*
X109759043Y-69033145D01*
X109744021Y-69036132D01*
X109682405Y-69068362D01*
X109647042Y-69133125D01*
X109644058Y-69148129D01*
X109642739Y-69149633D01*
X109640777Y-69149243D01*
X109640134Y-69148129D01*
X109631844Y-69106456D01*
X109604862Y-69066074D01*
X108579837Y-68041049D01*
X108539455Y-68014067D01*
X108497781Y-68005777D01*
X108496277Y-68004458D01*
X108496667Y-68002496D01*
X108497781Y-68001853D01*
X108512803Y-67998866D01*
X108574419Y-67966636D01*
X108609782Y-67901873D01*
X108612766Y-67886869D01*
X108614085Y-67885365D01*
X108616047Y-67885755D01*
G37*
G36*
X124033038Y-67532201D02*
G01*
X124033681Y-67533315D01*
X124036668Y-67548336D01*
X124068898Y-67609952D01*
X124133661Y-67645315D01*
X124148665Y-67648299D01*
X124150169Y-67649618D01*
X124149779Y-67651580D01*
X124148665Y-67652223D01*
X124106991Y-67660513D01*
X124066609Y-67687495D01*
X123041584Y-68712520D01*
X123014602Y-68752902D01*
X123006312Y-68794576D01*
X123004993Y-68796080D01*
X123003031Y-68795690D01*
X123002388Y-68794576D01*
X122999401Y-68779555D01*
X122967171Y-68717939D01*
X122902408Y-68682576D01*
X122887404Y-68679592D01*
X122885900Y-68678273D01*
X122886290Y-68676311D01*
X122887404Y-68675668D01*
X122929078Y-68667378D01*
X122969460Y-68640396D01*
X123994485Y-67615371D01*
X124021467Y-67574989D01*
X124029757Y-67533315D01*
X124031076Y-67531811D01*
X124033038Y-67532201D01*
G37*
G36*
X108969600Y-67532201D02*
G01*
X108970243Y-67533315D01*
X108978533Y-67574989D01*
X109005515Y-67615371D01*
X110030540Y-68640396D01*
X110070922Y-68667378D01*
X110112596Y-68675668D01*
X110114100Y-68676987D01*
X110113710Y-68678949D01*
X110112596Y-68679592D01*
X110097575Y-68682579D01*
X110035959Y-68714809D01*
X110000596Y-68779572D01*
X109997612Y-68794576D01*
X109996293Y-68796080D01*
X109994331Y-68795690D01*
X109993688Y-68794576D01*
X109985398Y-68752902D01*
X109958416Y-68712520D01*
X108933391Y-67687495D01*
X108893009Y-67660513D01*
X108851335Y-67652223D01*
X108849831Y-67650904D01*
X108850221Y-67648942D01*
X108851335Y-67648299D01*
X108866356Y-67645312D01*
X108927972Y-67613082D01*
X108963335Y-67548319D01*
X108966319Y-67533315D01*
X108967638Y-67531811D01*
X108969600Y-67532201D01*
G37*
G36*
X109323153Y-67178648D02*
G01*
X109323796Y-67179762D01*
X109332086Y-67221436D01*
X109359068Y-67261818D01*
X110384093Y-68286843D01*
X110424475Y-68313825D01*
X110466149Y-68322115D01*
X110467653Y-68323434D01*
X110467263Y-68325396D01*
X110466149Y-68326039D01*
X110451128Y-68329026D01*
X110389512Y-68361256D01*
X110354149Y-68426019D01*
X110351165Y-68441023D01*
X110349846Y-68442527D01*
X110347884Y-68442137D01*
X110347241Y-68441023D01*
X110338951Y-68399349D01*
X110311969Y-68358967D01*
X109286944Y-67333942D01*
X109246562Y-67306960D01*
X109204888Y-67298670D01*
X109203384Y-67297351D01*
X109203774Y-67295389D01*
X109204888Y-67294746D01*
X109219909Y-67291759D01*
X109281525Y-67259529D01*
X109316888Y-67194766D01*
X109319872Y-67179762D01*
X109321191Y-67178258D01*
X109323153Y-67178648D01*
G37*
G36*
X123679485Y-67178648D02*
G01*
X123680128Y-67179762D01*
X123683115Y-67194783D01*
X123715345Y-67256399D01*
X123780108Y-67291762D01*
X123795112Y-67294746D01*
X123796616Y-67296065D01*
X123796226Y-67298027D01*
X123795112Y-67298670D01*
X123753438Y-67306960D01*
X123713056Y-67333942D01*
X122688031Y-68358967D01*
X122661049Y-68399349D01*
X122652759Y-68441023D01*
X122651440Y-68442527D01*
X122649478Y-68442137D01*
X122648835Y-68441023D01*
X122645848Y-68426002D01*
X122613618Y-68364386D01*
X122548855Y-68329023D01*
X122533851Y-68326039D01*
X122532347Y-68324720D01*
X122532737Y-68322758D01*
X122533851Y-68322115D01*
X122575525Y-68313825D01*
X122615907Y-68286843D01*
X123640932Y-67261818D01*
X123667914Y-67221436D01*
X123676204Y-67179762D01*
X123677523Y-67178258D01*
X123679485Y-67178648D01*
G37*
G36*
X123325931Y-66825094D02*
G01*
X123326574Y-66826208D01*
X123329561Y-66841230D01*
X123361791Y-66902846D01*
X123426554Y-66938209D01*
X123441558Y-66941193D01*
X123443062Y-66942512D01*
X123442672Y-66944474D01*
X123441558Y-66945117D01*
X123399885Y-66953407D01*
X123359503Y-66980389D01*
X122334478Y-68005414D01*
X122307496Y-68045796D01*
X122299206Y-68087470D01*
X122297887Y-68088974D01*
X122295925Y-68088584D01*
X122295282Y-68087470D01*
X122292295Y-68072448D01*
X122260065Y-68010832D01*
X122195302Y-67975469D01*
X122180298Y-67972485D01*
X122178794Y-67971166D01*
X122179184Y-67969204D01*
X122180298Y-67968561D01*
X122221971Y-67960271D01*
X122262353Y-67933289D01*
X123287378Y-66908264D01*
X123314360Y-66867882D01*
X123322650Y-66826208D01*
X123323969Y-66824704D01*
X123325931Y-66825094D01*
G37*
G36*
X109676707Y-66825095D02*
G01*
X109677350Y-66826209D01*
X109685640Y-66867882D01*
X109712622Y-66908264D01*
X110737647Y-67933289D01*
X110778029Y-67960271D01*
X110819703Y-67968561D01*
X110821207Y-67969880D01*
X110820817Y-67971842D01*
X110819703Y-67972485D01*
X110804681Y-67975472D01*
X110743065Y-68007702D01*
X110707702Y-68072465D01*
X110704718Y-68087469D01*
X110703399Y-68088973D01*
X110701437Y-68088583D01*
X110700794Y-68087469D01*
X110692504Y-68045796D01*
X110665522Y-68005414D01*
X109640497Y-66980389D01*
X109600115Y-66953407D01*
X109558441Y-66945117D01*
X109556937Y-66943798D01*
X109557327Y-66941836D01*
X109558441Y-66941193D01*
X109573463Y-66938206D01*
X109635079Y-66905976D01*
X109670442Y-66841213D01*
X109673426Y-66826209D01*
X109674745Y-66824705D01*
X109676707Y-66825095D01*
G37*
G36*
X122972378Y-66471541D02*
G01*
X122973021Y-66472655D01*
X122976008Y-66487676D01*
X123008238Y-66549292D01*
X123073001Y-66584655D01*
X123088005Y-66587639D01*
X123089509Y-66588958D01*
X123089119Y-66590920D01*
X123088005Y-66591563D01*
X123046331Y-66599853D01*
X123005949Y-66626835D01*
X121980924Y-67651860D01*
X121953942Y-67692242D01*
X121945652Y-67733916D01*
X121944333Y-67735420D01*
X121942371Y-67735030D01*
X121941728Y-67733916D01*
X121938741Y-67718895D01*
X121906511Y-67657279D01*
X121841748Y-67621916D01*
X121826744Y-67618932D01*
X121825240Y-67617613D01*
X121825630Y-67615651D01*
X121826744Y-67615008D01*
X121868418Y-67606718D01*
X121908800Y-67579736D01*
X122933825Y-66554711D01*
X122960807Y-66514329D01*
X122969097Y-66472655D01*
X122970416Y-66471151D01*
X122972378Y-66471541D01*
G37*
G36*
X110030260Y-66471541D02*
G01*
X110030903Y-66472655D01*
X110039193Y-66514329D01*
X110066175Y-66554711D01*
X111091200Y-67579736D01*
X111131582Y-67606718D01*
X111173256Y-67615008D01*
X111174760Y-67616327D01*
X111174370Y-67618289D01*
X111173256Y-67618932D01*
X111158235Y-67621919D01*
X111096619Y-67654149D01*
X111061256Y-67718912D01*
X111058272Y-67733916D01*
X111056953Y-67735420D01*
X111054991Y-67735030D01*
X111054348Y-67733916D01*
X111046058Y-67692242D01*
X111019076Y-67651860D01*
X109994051Y-66626835D01*
X109953669Y-66599853D01*
X109911995Y-66591563D01*
X109910491Y-66590244D01*
X109910881Y-66588282D01*
X109911995Y-66587639D01*
X109927016Y-66584652D01*
X109988632Y-66552422D01*
X110023995Y-66487659D01*
X110026979Y-66472655D01*
X110028298Y-66471151D01*
X110030260Y-66471541D01*
G37*
G36*
X110383813Y-66117986D02*
G01*
X110384456Y-66119100D01*
X110392746Y-66160775D01*
X110419728Y-66201157D01*
X111444753Y-67226182D01*
X111485135Y-67253164D01*
X111526809Y-67261454D01*
X111528313Y-67262773D01*
X111527923Y-67264735D01*
X111526809Y-67265378D01*
X111511789Y-67268365D01*
X111450174Y-67300595D01*
X111414810Y-67365359D01*
X111411825Y-67380364D01*
X111410506Y-67381868D01*
X111408544Y-67381478D01*
X111407901Y-67380364D01*
X111399611Y-67338689D01*
X111372629Y-67298307D01*
X110347604Y-66273282D01*
X110307222Y-66246300D01*
X110265548Y-66238010D01*
X110264044Y-66236691D01*
X110264434Y-66234729D01*
X110265548Y-66234086D01*
X110280568Y-66231099D01*
X110342183Y-66198869D01*
X110377547Y-66134105D01*
X110380532Y-66119100D01*
X110381851Y-66117596D01*
X110383813Y-66117986D01*
G37*
G36*
X122618825Y-66117986D02*
G01*
X122619468Y-66119100D01*
X122622456Y-66134124D01*
X122654687Y-66195740D01*
X122719449Y-66231102D01*
X122734452Y-66234086D01*
X122735956Y-66235405D01*
X122735566Y-66237367D01*
X122734452Y-66238010D01*
X122692778Y-66246300D01*
X122652396Y-66273282D01*
X121627371Y-67298307D01*
X121600389Y-67338689D01*
X121592099Y-67380364D01*
X121590780Y-67381868D01*
X121588818Y-67381478D01*
X121588175Y-67380364D01*
X121585187Y-67365340D01*
X121552956Y-67303724D01*
X121488194Y-67268362D01*
X121473191Y-67265378D01*
X121471687Y-67264059D01*
X121472077Y-67262097D01*
X121473191Y-67261454D01*
X121514865Y-67253164D01*
X121555247Y-67226182D01*
X122580272Y-66201157D01*
X122607254Y-66160775D01*
X122615544Y-66119100D01*
X122616863Y-66117596D01*
X122618825Y-66117986D01*
G37*
G36*
X122265271Y-65764434D02*
G01*
X122265914Y-65765548D01*
X122268901Y-65780568D01*
X122301131Y-65842183D01*
X122365895Y-65877547D01*
X122380900Y-65880532D01*
X122382404Y-65881851D01*
X122382014Y-65883813D01*
X122380900Y-65884456D01*
X122339225Y-65892746D01*
X122298843Y-65919728D01*
X121273818Y-66944753D01*
X121246836Y-66985135D01*
X121238546Y-67026809D01*
X121237227Y-67028313D01*
X121235265Y-67027923D01*
X121234622Y-67026809D01*
X121231635Y-67011789D01*
X121199405Y-66950174D01*
X121134641Y-66914810D01*
X121119636Y-66911825D01*
X121118132Y-66910506D01*
X121118522Y-66908544D01*
X121119636Y-66907901D01*
X121161311Y-66899611D01*
X121201693Y-66872629D01*
X122226718Y-65847604D01*
X122253700Y-65807222D01*
X122261990Y-65765548D01*
X122263309Y-65764044D01*
X122265271Y-65764434D01*
G37*
G36*
X110737367Y-65764434D02*
G01*
X110738010Y-65765548D01*
X110746300Y-65807222D01*
X110773282Y-65847604D01*
X111798307Y-66872629D01*
X111838689Y-66899611D01*
X111880364Y-66907901D01*
X111881868Y-66909220D01*
X111881478Y-66911182D01*
X111880364Y-66911825D01*
X111865340Y-66914813D01*
X111803724Y-66947044D01*
X111768362Y-67011806D01*
X111765378Y-67026809D01*
X111764059Y-67028313D01*
X111762097Y-67027923D01*
X111761454Y-67026809D01*
X111753164Y-66985135D01*
X111726182Y-66944753D01*
X110701157Y-65919728D01*
X110660775Y-65892746D01*
X110619100Y-65884456D01*
X110617596Y-65883137D01*
X110617986Y-65881175D01*
X110619100Y-65880532D01*
X110634124Y-65877544D01*
X110695740Y-65845313D01*
X110731102Y-65780551D01*
X110734086Y-65765548D01*
X110735405Y-65764044D01*
X110737367Y-65764434D01*
G37*
G36*
X111090920Y-65410881D02*
G01*
X111091563Y-65411995D01*
X111099853Y-65453669D01*
X111126835Y-65494051D01*
X112151860Y-66519076D01*
X112192242Y-66546058D01*
X112233916Y-66554348D01*
X112235420Y-66555667D01*
X112235030Y-66557629D01*
X112233916Y-66558272D01*
X112218895Y-66561259D01*
X112157279Y-66593489D01*
X112121916Y-66658252D01*
X112118932Y-66673256D01*
X112117613Y-66674760D01*
X112115651Y-66674370D01*
X112115008Y-66673256D01*
X112106718Y-66631582D01*
X112079736Y-66591200D01*
X111054711Y-65566175D01*
X111014329Y-65539193D01*
X110972655Y-65530903D01*
X110971151Y-65529584D01*
X110971541Y-65527622D01*
X110972655Y-65526979D01*
X110987676Y-65523992D01*
X111049292Y-65491762D01*
X111084655Y-65426999D01*
X111087639Y-65411995D01*
X111088958Y-65410491D01*
X111090920Y-65410881D01*
G37*
G36*
X121911718Y-65410881D02*
G01*
X121912361Y-65411995D01*
X121915348Y-65427016D01*
X121947578Y-65488632D01*
X122012341Y-65523995D01*
X122027345Y-65526979D01*
X122028849Y-65528298D01*
X122028459Y-65530260D01*
X122027345Y-65530903D01*
X121985671Y-65539193D01*
X121945289Y-65566175D01*
X120920264Y-66591200D01*
X120893282Y-66631582D01*
X120884992Y-66673256D01*
X120883673Y-66674760D01*
X120881711Y-66674370D01*
X120881068Y-66673256D01*
X120878081Y-66658235D01*
X120845851Y-66596619D01*
X120781088Y-66561256D01*
X120766084Y-66558272D01*
X120764580Y-66556953D01*
X120764970Y-66554991D01*
X120766084Y-66554348D01*
X120807758Y-66546058D01*
X120848140Y-66519076D01*
X121873165Y-65494051D01*
X121900147Y-65453669D01*
X121908437Y-65411995D01*
X121909756Y-65410491D01*
X121911718Y-65410881D01*
G37*
G36*
X121558164Y-65057327D02*
G01*
X121558807Y-65058441D01*
X121561794Y-65073463D01*
X121594024Y-65135079D01*
X121658787Y-65170442D01*
X121673791Y-65173426D01*
X121675295Y-65174745D01*
X121674905Y-65176707D01*
X121673791Y-65177350D01*
X121632118Y-65185640D01*
X121591736Y-65212622D01*
X120566711Y-66237647D01*
X120539729Y-66278029D01*
X120531439Y-66319703D01*
X120530120Y-66321207D01*
X120528158Y-66320817D01*
X120527515Y-66319703D01*
X120524528Y-66304681D01*
X120492298Y-66243065D01*
X120427535Y-66207702D01*
X120412531Y-66204718D01*
X120411027Y-66203399D01*
X120411417Y-66201437D01*
X120412531Y-66200794D01*
X120454204Y-66192504D01*
X120494586Y-66165522D01*
X121519611Y-65140497D01*
X121546593Y-65100115D01*
X121554883Y-65058441D01*
X121556202Y-65056937D01*
X121558164Y-65057327D01*
G37*
G36*
X111444474Y-65057328D02*
G01*
X111445117Y-65058442D01*
X111453407Y-65100115D01*
X111480389Y-65140497D01*
X112505414Y-66165522D01*
X112545796Y-66192504D01*
X112587470Y-66200794D01*
X112588974Y-66202113D01*
X112588584Y-66204075D01*
X112587470Y-66204718D01*
X112572448Y-66207705D01*
X112510832Y-66239935D01*
X112475469Y-66304698D01*
X112472485Y-66319702D01*
X112471166Y-66321206D01*
X112469204Y-66320816D01*
X112468561Y-66319702D01*
X112460271Y-66278029D01*
X112433289Y-66237647D01*
X111408264Y-65212622D01*
X111367882Y-65185640D01*
X111326208Y-65177350D01*
X111324704Y-65176031D01*
X111325094Y-65174069D01*
X111326208Y-65173426D01*
X111341230Y-65170439D01*
X111402846Y-65138209D01*
X111438209Y-65073446D01*
X111441193Y-65058442D01*
X111442512Y-65056938D01*
X111444474Y-65057328D01*
G37*
G36*
X121204611Y-64703774D02*
G01*
X121205254Y-64704888D01*
X121208241Y-64719909D01*
X121240471Y-64781525D01*
X121305234Y-64816888D01*
X121320238Y-64819872D01*
X121321742Y-64821191D01*
X121321352Y-64823153D01*
X121320238Y-64823796D01*
X121278564Y-64832086D01*
X121238182Y-64859068D01*
X120213157Y-65884093D01*
X120186175Y-65924475D01*
X120177885Y-65966149D01*
X120176566Y-65967653D01*
X120174604Y-65967263D01*
X120173961Y-65966149D01*
X120170974Y-65951128D01*
X120138744Y-65889512D01*
X120073981Y-65854149D01*
X120058977Y-65851165D01*
X120057473Y-65849846D01*
X120057863Y-65847884D01*
X120058977Y-65847241D01*
X120100651Y-65838951D01*
X120141033Y-65811969D01*
X121166058Y-64786944D01*
X121193040Y-64746562D01*
X121201330Y-64704888D01*
X121202649Y-64703384D01*
X121204611Y-64703774D01*
G37*
G36*
X111798027Y-64703774D02*
G01*
X111798670Y-64704888D01*
X111806960Y-64746562D01*
X111833942Y-64786944D01*
X112858967Y-65811969D01*
X112899349Y-65838951D01*
X112941023Y-65847241D01*
X112942527Y-65848560D01*
X112942137Y-65850522D01*
X112941023Y-65851165D01*
X112926002Y-65854152D01*
X112864386Y-65886382D01*
X112829023Y-65951145D01*
X112826039Y-65966149D01*
X112824720Y-65967653D01*
X112822758Y-65967263D01*
X112822115Y-65966149D01*
X112813825Y-65924475D01*
X112786843Y-65884093D01*
X111761818Y-64859068D01*
X111721436Y-64832086D01*
X111679762Y-64823796D01*
X111678258Y-64822477D01*
X111678648Y-64820515D01*
X111679762Y-64819872D01*
X111694783Y-64816885D01*
X111756399Y-64784655D01*
X111791762Y-64719892D01*
X111794746Y-64704888D01*
X111796065Y-64703384D01*
X111798027Y-64703774D01*
G37*
G36*
X120851058Y-64350221D02*
G01*
X120851701Y-64351335D01*
X120854688Y-64366356D01*
X120886918Y-64427972D01*
X120951681Y-64463335D01*
X120966685Y-64466319D01*
X120968189Y-64467638D01*
X120967799Y-64469600D01*
X120966685Y-64470243D01*
X120925011Y-64478533D01*
X120884629Y-64505515D01*
X119859604Y-65530540D01*
X119832622Y-65570922D01*
X119824332Y-65612596D01*
X119823013Y-65614100D01*
X119821051Y-65613710D01*
X119820408Y-65612596D01*
X119817421Y-65597575D01*
X119785191Y-65535959D01*
X119720428Y-65500596D01*
X119705424Y-65497612D01*
X119703920Y-65496293D01*
X119704310Y-65494331D01*
X119705424Y-65493688D01*
X119747098Y-65485398D01*
X119787480Y-65458416D01*
X120812505Y-64433391D01*
X120839487Y-64393009D01*
X120847777Y-64351335D01*
X120849096Y-64349831D01*
X120851058Y-64350221D01*
G37*
G36*
X112151580Y-64350221D02*
G01*
X112152223Y-64351335D01*
X112160513Y-64393009D01*
X112187495Y-64433391D01*
X113212520Y-65458416D01*
X113252902Y-65485398D01*
X113294576Y-65493688D01*
X113296080Y-65495007D01*
X113295690Y-65496969D01*
X113294576Y-65497612D01*
X113279555Y-65500599D01*
X113217939Y-65532829D01*
X113182576Y-65597592D01*
X113179592Y-65612596D01*
X113178273Y-65614100D01*
X113176311Y-65613710D01*
X113175668Y-65612596D01*
X113167378Y-65570922D01*
X113140396Y-65530540D01*
X112115371Y-64505515D01*
X112074989Y-64478533D01*
X112033315Y-64470243D01*
X112031811Y-64468924D01*
X112032201Y-64466962D01*
X112033315Y-64466319D01*
X112048336Y-64463332D01*
X112109952Y-64431102D01*
X112145315Y-64366339D01*
X112148299Y-64351335D01*
X112149618Y-64349831D01*
X112151580Y-64350221D01*
G37*
G36*
X120497504Y-63996667D02*
G01*
X120498147Y-63997781D01*
X120501134Y-64012803D01*
X120533364Y-64074419D01*
X120598127Y-64109782D01*
X120613131Y-64112766D01*
X120614635Y-64114085D01*
X120614245Y-64116047D01*
X120613131Y-64116690D01*
X120571458Y-64124980D01*
X120531076Y-64151962D01*
X119506051Y-65176987D01*
X119479069Y-65217369D01*
X119470779Y-65259043D01*
X119469460Y-65260547D01*
X119467498Y-65260157D01*
X119466855Y-65259043D01*
X119463868Y-65244021D01*
X119431638Y-65182405D01*
X119366875Y-65147042D01*
X119351871Y-65144058D01*
X119350367Y-65142739D01*
X119350757Y-65140777D01*
X119351871Y-65140134D01*
X119393544Y-65131844D01*
X119433926Y-65104862D01*
X120458951Y-64079837D01*
X120485933Y-64039455D01*
X120494223Y-63997781D01*
X120495542Y-63996277D01*
X120497504Y-63996667D01*
G37*
G36*
X112505134Y-63996668D02*
G01*
X112505777Y-63997782D01*
X112514067Y-64039455D01*
X112541049Y-64079837D01*
X113566074Y-65104862D01*
X113606456Y-65131844D01*
X113648130Y-65140134D01*
X113649634Y-65141453D01*
X113649244Y-65143415D01*
X113648130Y-65144058D01*
X113633108Y-65147045D01*
X113571492Y-65179275D01*
X113536129Y-65244038D01*
X113533145Y-65259042D01*
X113531826Y-65260546D01*
X113529864Y-65260156D01*
X113529221Y-65259042D01*
X113520931Y-65217369D01*
X113493949Y-65176987D01*
X112468924Y-64151962D01*
X112428542Y-64124980D01*
X112386868Y-64116690D01*
X112385364Y-64115371D01*
X112385754Y-64113409D01*
X112386868Y-64112766D01*
X112401890Y-64109779D01*
X112463506Y-64077549D01*
X112498869Y-64012786D01*
X112501853Y-63997782D01*
X112503172Y-63996278D01*
X112505134Y-63996668D01*
G37*
G36*
X120143951Y-63643114D02*
G01*
X120144594Y-63644228D01*
X120147581Y-63659249D01*
X120179811Y-63720865D01*
X120244574Y-63756228D01*
X120259578Y-63759212D01*
X120261082Y-63760531D01*
X120260692Y-63762493D01*
X120259578Y-63763136D01*
X120217904Y-63771426D01*
X120177522Y-63798408D01*
X119152497Y-64823433D01*
X119125515Y-64863815D01*
X119117225Y-64905489D01*
X119115906Y-64906993D01*
X119113944Y-64906603D01*
X119113301Y-64905489D01*
X119110314Y-64890468D01*
X119078084Y-64828852D01*
X119013321Y-64793489D01*
X118998317Y-64790505D01*
X118996813Y-64789186D01*
X118997203Y-64787224D01*
X118998317Y-64786581D01*
X119039991Y-64778291D01*
X119080373Y-64751309D01*
X120105398Y-63726284D01*
X120132380Y-63685902D01*
X120140670Y-63644228D01*
X120141989Y-63642724D01*
X120143951Y-63643114D01*
G37*
G36*
X112858687Y-63643114D02*
G01*
X112859330Y-63644228D01*
X112867620Y-63685902D01*
X112894602Y-63726284D01*
X113919627Y-64751309D01*
X113960009Y-64778291D01*
X114001683Y-64786581D01*
X114003187Y-64787900D01*
X114002797Y-64789862D01*
X114001683Y-64790505D01*
X113986662Y-64793492D01*
X113925046Y-64825722D01*
X113889683Y-64890485D01*
X113886699Y-64905489D01*
X113885380Y-64906993D01*
X113883418Y-64906603D01*
X113882775Y-64905489D01*
X113874485Y-64863815D01*
X113847503Y-64823433D01*
X112822478Y-63798408D01*
X112782096Y-63771426D01*
X112740422Y-63763136D01*
X112738918Y-63761817D01*
X112739308Y-63759855D01*
X112740422Y-63759212D01*
X112755443Y-63756225D01*
X112817059Y-63723995D01*
X112852422Y-63659232D01*
X112855406Y-63644228D01*
X112856725Y-63642724D01*
X112858687Y-63643114D01*
G37*
G36*
X119790397Y-63289560D02*
G01*
X119791040Y-63290674D01*
X119794027Y-63305696D01*
X119826257Y-63367312D01*
X119891020Y-63402675D01*
X119906024Y-63405659D01*
X119907528Y-63406978D01*
X119907138Y-63408940D01*
X119906024Y-63409583D01*
X119864351Y-63417873D01*
X119823969Y-63444855D01*
X118798944Y-64469880D01*
X118771962Y-64510262D01*
X118763672Y-64551936D01*
X118762353Y-64553440D01*
X118760391Y-64553050D01*
X118759748Y-64551936D01*
X118756761Y-64536914D01*
X118724531Y-64475298D01*
X118659768Y-64439935D01*
X118644764Y-64436951D01*
X118643260Y-64435632D01*
X118643650Y-64433670D01*
X118644764Y-64433027D01*
X118686437Y-64424737D01*
X118726819Y-64397755D01*
X119751844Y-63372730D01*
X119778826Y-63332348D01*
X119787116Y-63290674D01*
X119788435Y-63289170D01*
X119790397Y-63289560D01*
G37*
G36*
X113212241Y-63289561D02*
G01*
X113212884Y-63290675D01*
X113221174Y-63332348D01*
X113248156Y-63372730D01*
X114273181Y-64397755D01*
X114313563Y-64424737D01*
X114355237Y-64433027D01*
X114356741Y-64434346D01*
X114356351Y-64436308D01*
X114355237Y-64436951D01*
X114340215Y-64439938D01*
X114278599Y-64472168D01*
X114243236Y-64536931D01*
X114240252Y-64551935D01*
X114238933Y-64553439D01*
X114236971Y-64553049D01*
X114236328Y-64551935D01*
X114228038Y-64510262D01*
X114201056Y-64469880D01*
X113176031Y-63444855D01*
X113135649Y-63417873D01*
X113093975Y-63409583D01*
X113092471Y-63408264D01*
X113092861Y-63406302D01*
X113093975Y-63405659D01*
X113108997Y-63402672D01*
X113170613Y-63370442D01*
X113205976Y-63305679D01*
X113208960Y-63290675D01*
X113210279Y-63289171D01*
X113212241Y-63289561D01*
G37*
G36*
X113565794Y-62936007D02*
G01*
X113566437Y-62937121D01*
X113574727Y-62978795D01*
X113601709Y-63019177D01*
X114626734Y-64044202D01*
X114667116Y-64071184D01*
X114708790Y-64079474D01*
X114710294Y-64080793D01*
X114709904Y-64082755D01*
X114708790Y-64083398D01*
X114693769Y-64086385D01*
X114632153Y-64118615D01*
X114596790Y-64183378D01*
X114593806Y-64198382D01*
X114592487Y-64199886D01*
X114590525Y-64199496D01*
X114589882Y-64198382D01*
X114581592Y-64156708D01*
X114554610Y-64116326D01*
X113529585Y-63091301D01*
X113489203Y-63064319D01*
X113447529Y-63056029D01*
X113446025Y-63054710D01*
X113446415Y-63052748D01*
X113447529Y-63052105D01*
X113462550Y-63049118D01*
X113524166Y-63016888D01*
X113559529Y-62952125D01*
X113562513Y-62937121D01*
X113563832Y-62935617D01*
X113565794Y-62936007D01*
G37*
G36*
X119436844Y-62936007D02*
G01*
X119437487Y-62937121D01*
X119440474Y-62952142D01*
X119472704Y-63013758D01*
X119537467Y-63049121D01*
X119552471Y-63052105D01*
X119553975Y-63053424D01*
X119553585Y-63055386D01*
X119552471Y-63056029D01*
X119510797Y-63064319D01*
X119470415Y-63091301D01*
X118445390Y-64116326D01*
X118418408Y-64156708D01*
X118410118Y-64198382D01*
X118408799Y-64199886D01*
X118406837Y-64199496D01*
X118406194Y-64198382D01*
X118403207Y-64183361D01*
X118370977Y-64121745D01*
X118306214Y-64086382D01*
X118291210Y-64083398D01*
X118289706Y-64082079D01*
X118290096Y-64080117D01*
X118291210Y-64079474D01*
X118332884Y-64071184D01*
X118373266Y-64044202D01*
X119398291Y-63019177D01*
X119425273Y-62978795D01*
X119433563Y-62937121D01*
X119434882Y-62935617D01*
X119436844Y-62936007D01*
G37*
G36*
X113919347Y-62582454D02*
G01*
X113919990Y-62583568D01*
X113928280Y-62625242D01*
X113955262Y-62665624D01*
X114980287Y-63690649D01*
X115020669Y-63717631D01*
X115062343Y-63725921D01*
X115063847Y-63727240D01*
X115063457Y-63729202D01*
X115062343Y-63729845D01*
X115047322Y-63732832D01*
X114985706Y-63765062D01*
X114950343Y-63829825D01*
X114947359Y-63844829D01*
X114946040Y-63846333D01*
X114944078Y-63845943D01*
X114943435Y-63844829D01*
X114935145Y-63803155D01*
X114908163Y-63762773D01*
X113883138Y-62737748D01*
X113842756Y-62710766D01*
X113801082Y-62702476D01*
X113799578Y-62701157D01*
X113799968Y-62699195D01*
X113801082Y-62698552D01*
X113816103Y-62695565D01*
X113877719Y-62663335D01*
X113913082Y-62598572D01*
X113916066Y-62583568D01*
X113917385Y-62582064D01*
X113919347Y-62582454D01*
G37*
G36*
X119083291Y-62582454D02*
G01*
X119083934Y-62583568D01*
X119086921Y-62598589D01*
X119119151Y-62660205D01*
X119183914Y-62695568D01*
X119198918Y-62698552D01*
X119200422Y-62699871D01*
X119200032Y-62701833D01*
X119198918Y-62702476D01*
X119157244Y-62710766D01*
X119116862Y-62737748D01*
X118091837Y-63762773D01*
X118064855Y-63803155D01*
X118056565Y-63844829D01*
X118055246Y-63846333D01*
X118053284Y-63845943D01*
X118052641Y-63844829D01*
X118049654Y-63829808D01*
X118017424Y-63768192D01*
X117952661Y-63732829D01*
X117937657Y-63729845D01*
X117936153Y-63728526D01*
X117936543Y-63726564D01*
X117937657Y-63725921D01*
X117979331Y-63717631D01*
X118019713Y-63690649D01*
X119044738Y-62665624D01*
X119071720Y-62625242D01*
X119080010Y-62583568D01*
X119081329Y-62582064D01*
X119083291Y-62582454D01*
G37*
G36*
X118729737Y-62228900D02*
G01*
X118730380Y-62230014D01*
X118733367Y-62245036D01*
X118765597Y-62306652D01*
X118830360Y-62342015D01*
X118845364Y-62344999D01*
X118846868Y-62346318D01*
X118846478Y-62348280D01*
X118845364Y-62348923D01*
X118803691Y-62357213D01*
X118763309Y-62384195D01*
X117738284Y-63409220D01*
X117711302Y-63449602D01*
X117703012Y-63491276D01*
X117701693Y-63492780D01*
X117699731Y-63492390D01*
X117699088Y-63491276D01*
X117696101Y-63476254D01*
X117663871Y-63414638D01*
X117599108Y-63379275D01*
X117584104Y-63376291D01*
X117582600Y-63374972D01*
X117582990Y-63373010D01*
X117584104Y-63372367D01*
X117625777Y-63364077D01*
X117666159Y-63337095D01*
X118691184Y-62312070D01*
X118718166Y-62271688D01*
X118726456Y-62230014D01*
X118727775Y-62228510D01*
X118729737Y-62228900D01*
G37*
G36*
X114272901Y-62228901D02*
G01*
X114273544Y-62230015D01*
X114281834Y-62271688D01*
X114308816Y-62312070D01*
X115333841Y-63337095D01*
X115374223Y-63364077D01*
X115415897Y-63372367D01*
X115417401Y-63373686D01*
X115417011Y-63375648D01*
X115415897Y-63376291D01*
X115400875Y-63379278D01*
X115339259Y-63411508D01*
X115303896Y-63476271D01*
X115300912Y-63491275D01*
X115299593Y-63492779D01*
X115297631Y-63492389D01*
X115296988Y-63491275D01*
X115288698Y-63449602D01*
X115261716Y-63409220D01*
X114236691Y-62384195D01*
X114196309Y-62357213D01*
X114154635Y-62348923D01*
X114153131Y-62347604D01*
X114153521Y-62345642D01*
X114154635Y-62344999D01*
X114169657Y-62342012D01*
X114231273Y-62309782D01*
X114266636Y-62245019D01*
X114269620Y-62230015D01*
X114270939Y-62228511D01*
X114272901Y-62228901D01*
G37*
G36*
X118376184Y-61875347D02*
G01*
X118376827Y-61876461D01*
X118379814Y-61891482D01*
X118412044Y-61953098D01*
X118476807Y-61988461D01*
X118491811Y-61991445D01*
X118493315Y-61992764D01*
X118492925Y-61994726D01*
X118491811Y-61995369D01*
X118450137Y-62003659D01*
X118409755Y-62030641D01*
X117384730Y-63055666D01*
X117357748Y-63096048D01*
X117349458Y-63137722D01*
X117348139Y-63139226D01*
X117346177Y-63138836D01*
X117345534Y-63137722D01*
X117342547Y-63122701D01*
X117310317Y-63061085D01*
X117245554Y-63025722D01*
X117230550Y-63022738D01*
X117229046Y-63021419D01*
X117229436Y-63019457D01*
X117230550Y-63018814D01*
X117272224Y-63010524D01*
X117312606Y-62983542D01*
X118337631Y-61958517D01*
X118364613Y-61918135D01*
X118372903Y-61876461D01*
X118374222Y-61874957D01*
X118376184Y-61875347D01*
G37*
G36*
X114626454Y-61875347D02*
G01*
X114627097Y-61876461D01*
X114635387Y-61918135D01*
X114662369Y-61958517D01*
X115687394Y-62983542D01*
X115727776Y-63010524D01*
X115769450Y-63018814D01*
X115770954Y-63020133D01*
X115770564Y-63022095D01*
X115769450Y-63022738D01*
X115754429Y-63025725D01*
X115692813Y-63057955D01*
X115657450Y-63122718D01*
X115654466Y-63137722D01*
X115653147Y-63139226D01*
X115651185Y-63138836D01*
X115650542Y-63137722D01*
X115642252Y-63096048D01*
X115615270Y-63055666D01*
X114590245Y-62030641D01*
X114549863Y-62003659D01*
X114508189Y-61995369D01*
X114506685Y-61994050D01*
X114507075Y-61992088D01*
X114508189Y-61991445D01*
X114523210Y-61988458D01*
X114584826Y-61956228D01*
X114620189Y-61891465D01*
X114623173Y-61876461D01*
X114624492Y-61874957D01*
X114626454Y-61875347D01*
G37*
G36*
X132346668Y-61571665D02*
G01*
X132347058Y-61573627D01*
X132346699Y-61574267D01*
X132303511Y-61625946D01*
X132294880Y-61694661D01*
X132324844Y-61757291D01*
X132345682Y-61775348D01*
X132346336Y-61777238D01*
X132345026Y-61778749D01*
X132343982Y-61778821D01*
X132329801Y-61776000D01*
X131270199Y-61776000D01*
X131255226Y-61778978D01*
X131253332Y-61778335D01*
X131252942Y-61776373D01*
X131253301Y-61775733D01*
X131296489Y-61724054D01*
X131305120Y-61655339D01*
X131275156Y-61592709D01*
X131254318Y-61574652D01*
X131253664Y-61572762D01*
X131254974Y-61571251D01*
X131256018Y-61571179D01*
X131270199Y-61574000D01*
X132329801Y-61574000D01*
X132344774Y-61571022D01*
X132346668Y-61571665D01*
G37*
G36*
X130146668Y-61571665D02*
G01*
X130147058Y-61573627D01*
X130146699Y-61574267D01*
X130103511Y-61625946D01*
X130094880Y-61694661D01*
X130124844Y-61757291D01*
X130145682Y-61775348D01*
X130146336Y-61777238D01*
X130145026Y-61778749D01*
X130143982Y-61778821D01*
X130129801Y-61776000D01*
X129070199Y-61776000D01*
X129055226Y-61778978D01*
X129053332Y-61778335D01*
X129052942Y-61776373D01*
X129053301Y-61775733D01*
X129096489Y-61724054D01*
X129105120Y-61655339D01*
X129075156Y-61592709D01*
X129054318Y-61574652D01*
X129053664Y-61572762D01*
X129054974Y-61571251D01*
X129056018Y-61571179D01*
X129070199Y-61574000D01*
X130129801Y-61574000D01*
X130144774Y-61571022D01*
X130146668Y-61571665D01*
G37*
G36*
X132346668Y-60621665D02*
G01*
X132347058Y-60623627D01*
X132346699Y-60624267D01*
X132303511Y-60675946D01*
X132294880Y-60744661D01*
X132324844Y-60807291D01*
X132345682Y-60825348D01*
X132346336Y-60827238D01*
X132345026Y-60828749D01*
X132343982Y-60828821D01*
X132329801Y-60826000D01*
X131270199Y-60826000D01*
X131255226Y-60828978D01*
X131253332Y-60828335D01*
X131252942Y-60826373D01*
X131253301Y-60825733D01*
X131296489Y-60774054D01*
X131305120Y-60705339D01*
X131275156Y-60642709D01*
X131254318Y-60624652D01*
X131253664Y-60622762D01*
X131254974Y-60621251D01*
X131256018Y-60621179D01*
X131270199Y-60624000D01*
X132329801Y-60624000D01*
X132344774Y-60621022D01*
X132346668Y-60621665D01*
G37*
G36*
X130146668Y-60621665D02*
G01*
X130147058Y-60623627D01*
X130146699Y-60624267D01*
X130103511Y-60675946D01*
X130094880Y-60744661D01*
X130124844Y-60807291D01*
X130145682Y-60825348D01*
X130146336Y-60827238D01*
X130145026Y-60828749D01*
X130143982Y-60828821D01*
X130129801Y-60826000D01*
X129070199Y-60826000D01*
X129055226Y-60828978D01*
X129053332Y-60828335D01*
X129052942Y-60826373D01*
X129053301Y-60825733D01*
X129096489Y-60774054D01*
X129105120Y-60705339D01*
X129075156Y-60642709D01*
X129054318Y-60624652D01*
X129053664Y-60622762D01*
X129054974Y-60621251D01*
X129056018Y-60621179D01*
X129070199Y-60624000D01*
X130129801Y-60624000D01*
X130144774Y-60621022D01*
X130146668Y-60621665D01*
G37*
G36*
X137490660Y-58954993D02*
G01*
X137504452Y-58964209D01*
X137505615Y-58962469D01*
X137507409Y-58961584D01*
X137508560Y-58962045D01*
X137525952Y-58976578D01*
X137594670Y-58985204D01*
X137642288Y-58962418D01*
X137644282Y-58962572D01*
X137644814Y-58963111D01*
X137645548Y-58964209D01*
X137659340Y-58954993D01*
X137661336Y-58954862D01*
X137662447Y-58956525D01*
X137662114Y-58957767D01*
X137654767Y-58968762D01*
X137651000Y-58987699D01*
X137651000Y-60337301D01*
X137654767Y-60356238D01*
X137662114Y-60367233D01*
X137662245Y-60369229D01*
X137660582Y-60370340D01*
X137659340Y-60370007D01*
X137645548Y-60360791D01*
X137644385Y-60362531D01*
X137642591Y-60363416D01*
X137641440Y-60362955D01*
X137624048Y-60348422D01*
X137555330Y-60339796D01*
X137507712Y-60362582D01*
X137505718Y-60362428D01*
X137505186Y-60361889D01*
X137504452Y-60360791D01*
X137490660Y-60370007D01*
X137488664Y-60370138D01*
X137487553Y-60368475D01*
X137487886Y-60367233D01*
X137495233Y-60356238D01*
X137499000Y-60337301D01*
X137499000Y-58987699D01*
X137495233Y-58968762D01*
X137487886Y-58957767D01*
X137487755Y-58955771D01*
X137489418Y-58954660D01*
X137490660Y-58954993D01*
G37*
G36*
X138140660Y-58954993D02*
G01*
X138154452Y-58964209D01*
X138155615Y-58962469D01*
X138157409Y-58961584D01*
X138158560Y-58962045D01*
X138175952Y-58976578D01*
X138244670Y-58985204D01*
X138292288Y-58962418D01*
X138294282Y-58962572D01*
X138294814Y-58963111D01*
X138295548Y-58964209D01*
X138309340Y-58954993D01*
X138311336Y-58954862D01*
X138312447Y-58956525D01*
X138312114Y-58957767D01*
X138304767Y-58968762D01*
X138301000Y-58987699D01*
X138301000Y-60337301D01*
X138304767Y-60356238D01*
X138312114Y-60367233D01*
X138312245Y-60369229D01*
X138310582Y-60370340D01*
X138309340Y-60370007D01*
X138295548Y-60360791D01*
X138294385Y-60362531D01*
X138292591Y-60363416D01*
X138291440Y-60362955D01*
X138274048Y-60348422D01*
X138205330Y-60339796D01*
X138157712Y-60362582D01*
X138155718Y-60362428D01*
X138155186Y-60361889D01*
X138154452Y-60360791D01*
X138140660Y-60370007D01*
X138138664Y-60370138D01*
X138137553Y-60368475D01*
X138137886Y-60367233D01*
X138145233Y-60356238D01*
X138149000Y-60337301D01*
X138149000Y-58987699D01*
X138145233Y-58968762D01*
X138137886Y-58957767D01*
X138137755Y-58955771D01*
X138139418Y-58954660D01*
X138140660Y-58954993D01*
G37*
G36*
X138790660Y-58954993D02*
G01*
X138804452Y-58964209D01*
X138805615Y-58962469D01*
X138807409Y-58961584D01*
X138808560Y-58962045D01*
X138825952Y-58976578D01*
X138894670Y-58985204D01*
X138942288Y-58962418D01*
X138944282Y-58962572D01*
X138944814Y-58963111D01*
X138945548Y-58964209D01*
X138959340Y-58954993D01*
X138961336Y-58954862D01*
X138962447Y-58956525D01*
X138962114Y-58957767D01*
X138954767Y-58968762D01*
X138951000Y-58987699D01*
X138951000Y-60337301D01*
X138954767Y-60356238D01*
X138962114Y-60367233D01*
X138962245Y-60369229D01*
X138960582Y-60370340D01*
X138959340Y-60370007D01*
X138945548Y-60360791D01*
X138944385Y-60362531D01*
X138942591Y-60363416D01*
X138941440Y-60362955D01*
X138924048Y-60348422D01*
X138855330Y-60339796D01*
X138807712Y-60362582D01*
X138805718Y-60362428D01*
X138805186Y-60361889D01*
X138804452Y-60360791D01*
X138790660Y-60370007D01*
X138788664Y-60370138D01*
X138787553Y-60368475D01*
X138787886Y-60367233D01*
X138795233Y-60356238D01*
X138799000Y-60337301D01*
X138799000Y-58987699D01*
X138795233Y-58968762D01*
X138787886Y-58957767D01*
X138787755Y-58955771D01*
X138789418Y-58954660D01*
X138790660Y-58954993D01*
G37*
G36*
X136840660Y-58954993D02*
G01*
X136854452Y-58964209D01*
X136855615Y-58962469D01*
X136857409Y-58961584D01*
X136858560Y-58962045D01*
X136875952Y-58976578D01*
X136944670Y-58985204D01*
X136992288Y-58962418D01*
X136994282Y-58962572D01*
X136994814Y-58963111D01*
X136995548Y-58964209D01*
X137009340Y-58954993D01*
X137011336Y-58954862D01*
X137012447Y-58956525D01*
X137012114Y-58957767D01*
X137004767Y-58968762D01*
X137001000Y-58987699D01*
X137001000Y-60337301D01*
X137004767Y-60356238D01*
X137012114Y-60367233D01*
X137012245Y-60369229D01*
X137010582Y-60370340D01*
X137009340Y-60370007D01*
X136995548Y-60360791D01*
X136994385Y-60362531D01*
X136992591Y-60363416D01*
X136991440Y-60362955D01*
X136974048Y-60348422D01*
X136905330Y-60339796D01*
X136857712Y-60362582D01*
X136855718Y-60362428D01*
X136855186Y-60361889D01*
X136854452Y-60360791D01*
X136840660Y-60370007D01*
X136838664Y-60370138D01*
X136837553Y-60368475D01*
X136837886Y-60367233D01*
X136845233Y-60356238D01*
X136849000Y-60337301D01*
X136849000Y-58987699D01*
X136845233Y-58968762D01*
X136837886Y-58957767D01*
X136837755Y-58955771D01*
X136839418Y-58954660D01*
X136840660Y-58954993D01*
G37*
G36*
X139452919Y-59298234D02*
G01*
X139472595Y-59365246D01*
X139524938Y-59410601D01*
X139593491Y-59420458D01*
X139656504Y-59391680D01*
X139680398Y-59355645D01*
X139682189Y-59354754D01*
X139683065Y-59355018D01*
X139684416Y-59355798D01*
X139696492Y-59334881D01*
X139698224Y-59333881D01*
X139699956Y-59334881D01*
X139700103Y-59336565D01*
X139647714Y-59480502D01*
X139626088Y-59651694D01*
X139642925Y-59823418D01*
X139694730Y-59979148D01*
X139694328Y-59981107D01*
X139692430Y-59981738D01*
X139691100Y-59980779D01*
X139684416Y-59969202D01*
X139682775Y-59970149D01*
X139680775Y-59970149D01*
X139680124Y-59969546D01*
X139653808Y-59931057D01*
X139590015Y-59904095D01*
X139521771Y-59915903D01*
X139470732Y-59962742D01*
X139452927Y-60026744D01*
X139451499Y-60028145D01*
X139449572Y-60027609D01*
X139449000Y-60026208D01*
X139449000Y-59298797D01*
X139450000Y-59297065D01*
X139452000Y-59297065D01*
X139452919Y-59298234D01*
G37*
G36*
X136350428Y-59297391D02*
G01*
X136351000Y-59298792D01*
X136351000Y-60026203D01*
X136350000Y-60027935D01*
X136348000Y-60027935D01*
X136347081Y-60026766D01*
X136327405Y-59959754D01*
X136275062Y-59914399D01*
X136206509Y-59904542D01*
X136143496Y-59933320D01*
X136119602Y-59969355D01*
X136117811Y-59970246D01*
X136116935Y-59969982D01*
X136115584Y-59969202D01*
X136100822Y-59994770D01*
X136099090Y-59995770D01*
X136097358Y-59994770D01*
X136097220Y-59993060D01*
X136149671Y-59854983D01*
X136173699Y-59684012D01*
X136173998Y-59662600D01*
X136154753Y-59491023D01*
X136102581Y-59341205D01*
X136102956Y-59339240D01*
X136104845Y-59338582D01*
X136106202Y-59339547D01*
X136115584Y-59355798D01*
X136117225Y-59354851D01*
X136119225Y-59354851D01*
X136119876Y-59355454D01*
X136146192Y-59393943D01*
X136209985Y-59420905D01*
X136278229Y-59409097D01*
X136329268Y-59362258D01*
X136347073Y-59298256D01*
X136348501Y-59296855D01*
X136350428Y-59297391D01*
G37*
M02*
