M48
; DRILL file {KiCad (6.0.1)} date Tue Jan 25 11:54:43 2022
; FORMAT={-:-/ absolute / metric / decimal}
; #@! TF.CreationDate,2022-01-25T11:54:43-06:00
; #@! TF.GenerationSoftware,Kicad,Pcbnew,(6.0.1)
; #@! TF.FileFunction,Plated,1,4,PTH
FMAT,2
METRIC
; #@! TA.AperFunction,Plated,PTH,ViaDrill
T1C0.200
; #@! TA.AperFunction,Plated,PTH,ComponentDrill
T2C0.200
; #@! TA.AperFunction,Plated,PTH,ViaDrill
T3C0.400
; #@! TA.AperFunction,Plated,PTH,ViaDrill
T4C0.500
; #@! TA.AperFunction,Plated,PTH,ComponentDrill
T5C0.600
; #@! TA.AperFunction,Plated,PTH,ComponentDrill
T6C0.850
; #@! TA.AperFunction,Plated,PTH,ComponentDrill
T7C1.000
; #@! TA.AperFunction,Plated,PTH,ComponentDrill
T8C1.100
; #@! TA.AperFunction,Plated,PTH,ComponentDrill
T9C1.500
; #@! TA.AperFunction,Plated,PTH,ComponentDrill
T10C1.700
; #@! TA.AperFunction,Plated,PTH,ComponentDrill
T11C3.200
%
G90
G05
T1
X85.21Y-58.825
X85.21Y-63.625
X85.21Y-68.425
X85.21Y-73.225
X85.21Y-78.025
X85.21Y-82.825
X85.21Y-87.625
X85.21Y-92.425
X85.21Y-97.225
X85.21Y-102.025
X85.21Y-106.825
X85.21Y-111.625
X85.21Y-116.425
X85.21Y-121.225
X85.21Y-126.025
X85.21Y-130.825
X85.21Y-135.625
X87.61Y-138.025
X90.01Y-135.625
X92.41Y-138.025
X94.81Y-135.625
X95.41Y-62.525
X95.64Y-88.86
X96.0Y-80.63
X97.2Y-78.1
X97.21Y-106.825
X97.21Y-111.625
X97.21Y-116.425
X97.21Y-121.225
X97.21Y-126.025
X97.21Y-130.825
X97.21Y-138.025
X97.81Y-60.125
X97.81Y-64.925
X97.81Y-69.725
X97.91Y-72.725
X98.2Y-80.63
X99.2Y-77.1
X99.2Y-80.2
X99.61Y-104.425
X99.61Y-109.225
X99.61Y-114.025
X99.61Y-118.825
X99.61Y-123.625
X99.61Y-128.425
X99.61Y-133.225
X100.21Y-57.725
X100.21Y-62.525
X100.21Y-67.325
X100.237Y-80.63
X100.237Y-92.63
X100.31Y-75.125
X100.6Y-63.8
X100.73Y-89.62
X102.01Y-106.825
X102.01Y-111.625
X102.01Y-116.425
X102.01Y-121.225
X102.01Y-126.025
X102.01Y-130.825
X102.01Y-135.625
X102.4Y-80.628
X102.521Y-92.628
X102.61Y-69.725
X102.875Y-59.325
X103.45Y-80.1
X103.545Y-91.319
X104.05Y-58.15
X104.41Y-104.425
X104.41Y-109.225
X104.41Y-114.025
X104.41Y-118.825
X104.41Y-123.625
X104.41Y-128.425
X104.41Y-133.225
X104.41Y-138.025
X105.075Y-89.789
X105.8Y-95.1
X105.8Y-96.8
X105.8Y-98.5
X105.8Y-100.2
X105.8Y-101.9
X105.83Y-85.79
X106.4Y-90.9
X106.605Y-88.259
X106.81Y-111.625
X106.81Y-116.425
X106.81Y-121.225
X106.81Y-126.025
X106.81Y-130.825
X106.81Y-135.625
X107.29Y-87.14
X107.71Y-65.625
X109.21Y-109.225
X109.21Y-114.025
X109.21Y-118.825
X109.21Y-123.625
X109.21Y-128.425
X109.21Y-133.225
X109.21Y-138.025
X109.515Y-81.814
X109.665Y-85.199
X109.9Y-87.5
X110.193Y-72.001
X110.6Y-62.4
X111.001Y-80.328
X111.2Y-69.61
X111.6Y-63.4
X111.61Y-111.625
X111.61Y-116.425
X111.61Y-121.225
X111.61Y-126.025
X111.61Y-130.825
X111.61Y-135.625
X111.7Y-73.2
X111.8Y-74.6
X112.607Y-69.607
X113.5Y-59.4
X113.587Y-72.001
X114.01Y-114.025
X114.01Y-118.825
X114.01Y-123.625
X114.01Y-128.425
X114.01Y-133.225
X114.01Y-138.025
X114.6Y-60.5
X116.001Y-66.213
X116.001Y-69.607
X116.2Y-76.91
X116.41Y-111.625
X116.41Y-116.425
X116.41Y-121.225
X116.41Y-126.025
X116.41Y-130.825
X116.41Y-135.625
X117.9Y-71.0
X118.6Y-74.51
X118.6Y-78.6
X118.7Y-69.0
X118.81Y-114.025
X118.81Y-118.825
X118.81Y-123.625
X118.81Y-128.425
X118.81Y-133.225
X118.81Y-138.025
X119.5Y-67.9
X120.6Y-74.4
X121.21Y-111.625
X121.21Y-116.425
X121.21Y-121.225
X121.21Y-126.025
X121.21Y-130.825
X121.21Y-135.625
X122.4Y-72.6
X123.0Y-70.5
X123.25Y-80.25
X123.61Y-109.225
X123.61Y-114.025
X123.61Y-118.825
X123.61Y-123.625
X123.61Y-128.425
X123.61Y-133.225
X123.61Y-138.025
X124.78Y-66.549
X125.0Y-55.4
X125.45Y-85.94
X125.46Y-90.985
X126.01Y-111.625
X126.01Y-116.425
X126.01Y-121.225
X126.01Y-126.025
X126.01Y-130.825
X126.01Y-135.625
X126.218Y-65.11
X127.942Y-69.75
X128.022Y-64.45
X128.41Y-118.825
X128.41Y-123.625
X128.41Y-128.425
X128.41Y-133.225
X128.41Y-138.025
X128.6Y-68.75
X129.05Y-67.95
X129.5Y-67.15
X129.95Y-66.3
X129.988Y-69.75
X130.057Y-64.45
X130.4Y-55.3
X130.4Y-65.45
X130.81Y-121.225
X130.81Y-126.025
X130.81Y-130.825
X130.81Y-135.625
X130.941Y-72.103
X130.941Y-74.309
X131.0Y-78.4
X131.32Y-82.155
X131.325Y-79.975
X131.77Y-81.355
X132.2Y-91.15
X132.22Y-80.505
X132.725Y-78.925
X133.141Y-72.29
X133.141Y-74.312
X133.21Y-123.625
X133.21Y-128.425
X133.21Y-133.225
X133.21Y-138.025
X133.22Y-80.505
X133.72Y-81.355
X133.725Y-64.45
X134.08Y-69.75
X134.22Y-82.155
X135.61Y-126.025
X135.61Y-130.825
X135.61Y-135.625
X135.76Y-64.45
X136.1Y-90.9
X136.125Y-69.75
X136.4Y-87.6
X137.794Y-64.45
X138.01Y-138.025
X138.171Y-69.75
X138.7Y-81.0
X139.828Y-64.45
X140.217Y-69.75
X140.41Y-97.225
X140.41Y-102.025
X140.41Y-106.825
X140.41Y-111.625
X140.41Y-116.425
X140.71Y-91.01
X140.72Y-85.88
X141.5Y-81.0
X141.863Y-64.45
X142.263Y-69.75
X142.81Y-99.625
X142.81Y-104.425
X142.81Y-109.225
X142.81Y-114.025
X142.81Y-138.025
X143.08Y-81.0
X143.897Y-64.45
X144.308Y-69.75
X145.5Y-81.771
X145.931Y-64.45
X146.354Y-69.75
X147.4Y-78.314
X147.45Y-91.1
X147.5Y-71.129
X147.5Y-73.407
X147.5Y-75.686
X147.5Y-80.243
X147.5Y-82.521
X147.61Y-123.625
X147.61Y-128.425
X147.61Y-133.225
X147.61Y-138.025
X147.966Y-64.45
X148.4Y-68.75
X148.4Y-81.0
X148.85Y-66.3
X149.35Y-67.15
X149.85Y-67.95
X150.01Y-126.025
X150.01Y-130.825
X150.01Y-135.625
X150.4Y-65.45
X151.1Y-78.316
X151.1Y-80.244
X151.1Y-82.521
X151.1Y-84.8
X151.2Y-71.13
X151.2Y-73.409
X151.2Y-75.687
X151.3Y-91.1
X151.4Y-65.85
X151.7Y-87.6
X152.41Y-121.225
X152.41Y-128.425
X152.41Y-133.225
X152.41Y-138.025
X152.9Y-67.4
X152.9Y-69.679
X154.81Y-118.825
X154.81Y-123.625
X154.81Y-130.825
X154.81Y-135.625
T2
X133.1Y-88.15
X133.1Y-90.25
X135.2Y-88.15
X135.2Y-90.25
X148.35Y-88.15
X148.35Y-90.25
X150.45Y-88.15
X150.45Y-90.25
T3
X123.77Y-87.53
X123.77Y-89.36
X123.775Y-85.7
X123.79Y-91.19
X125.09Y-92.83
X125.3Y-83.866
X127.237Y-83.8
X127.41Y-93.06
X128.1Y-71.1
X128.15Y-61.2
X129.173Y-83.8
X129.73Y-93.06
X129.85Y-71.1
X130.68Y-94.96
X130.9Y-97.0
X130.9Y-97.0
X130.9Y-99.05
X130.9Y-101.1
X130.9Y-103.15
X130.9Y-105.2
X130.9Y-107.25
X130.9Y-109.3
X130.9Y-111.35
X131.11Y-83.8
X131.327Y-112.793
X132.05Y-93.06
X132.21Y-85.21
X132.312Y-113.837
X132.73Y-108.49
X133.1Y-115.22
X133.25Y-61.2
X133.7Y-117.2
X134.383Y-118.571
X135.09Y-109.35
X135.154Y-115.228
X135.255Y-119.829
X135.681Y-116.737
X135.785Y-113.815
X135.88Y-92.08
X136.01Y-61.06
X136.294Y-120.955
X136.474Y-118.123
X136.632Y-112.802
X136.9Y-97.0
X136.9Y-99.05
X136.9Y-101.1
X136.9Y-103.15
X136.9Y-105.2
X136.9Y-107.25
X136.9Y-109.3
X136.9Y-111.35
X137.11Y-94.93
X137.385Y-122.031
X137.507Y-119.342
X138.476Y-123.108
X138.515Y-93.505
X138.569Y-130.4
X138.646Y-120.466
X139.02Y-87.53
X139.02Y-89.36
X139.025Y-85.7
X139.04Y-91.19
X139.567Y-124.185
X139.785Y-121.59
X140.15Y-125.65
X140.55Y-83.866
X140.58Y-93.02
X140.924Y-122.714
X141.89Y-123.68
X141.9Y-133.731
X142.487Y-83.8
X142.858Y-122.725
X143.65Y-125.65
X143.987Y-121.613
X144.36Y-124.053
X144.423Y-83.8
X145.117Y-120.5
X145.133Y-93.533
X145.23Y-130.52
X145.589Y-122.843
X146.246Y-119.388
X146.36Y-83.8
X146.48Y-94.93
X146.7Y-96.97
X146.7Y-98.99
X146.7Y-101.01
X146.7Y-103.03
X146.7Y-105.05
X146.7Y-107.07
X146.7Y-109.09
X146.74Y-111.11
X146.817Y-121.633
X147.221Y-112.509
X147.279Y-118.188
X147.3Y-93.06
X147.46Y-85.21
X147.95Y-59.15
X148.0Y-110.4
X148.037Y-120.415
X148.081Y-116.823
X148.089Y-113.561
X148.105Y-96.0
X148.11Y-102.99
X148.11Y-105.89
X148.618Y-115.334
X149.107Y-119.066
X149.976Y-117.482
X150.7Y-64.2
X150.73Y-115.33
X151.13Y-106.52
X151.99Y-103.54
X152.015Y-95.59
X152.109Y-113.569
X152.63Y-86.03
X152.8Y-62.8
X153.03Y-107.74
X153.913Y-112.563
X154.71Y-86.03
X154.71Y-88.11
X154.71Y-90.19
X154.71Y-92.27
X154.71Y-94.35
X154.71Y-96.43
X154.71Y-98.51
X154.71Y-100.59
X154.71Y-102.67
X154.71Y-104.75
X154.71Y-106.83
X154.71Y-108.91
X154.71Y-110.99
X156.0Y-107.75
T4
X103.9Y-75.6
X105.1Y-70.8
X105.2Y-67.0
X105.412Y-72.849
X108.2Y-72.0
X111.3Y-83.4
X112.5Y-84.6
X113.5Y-66.9
X115.7Y-85.2
X116.5Y-57.1
X116.5Y-63.8
X116.5Y-80.2
X117.4Y-85.2
X118.0Y-59.0
X119.1Y-57.8
X122.7Y-59.1
X124.0Y-72.7
X124.1Y-60.5
X128.5Y-74.3
X129.7Y-75.6
X147.95Y-55.5
X147.95Y-57.5
X149.8Y-57.2
X149.8Y-59.6
T6
X135.4Y-59.662
X140.4Y-59.662
T7
X126.5Y-56.9
X129.04Y-56.9
X131.58Y-56.9
X135.65Y-71.38
X135.65Y-73.92
X135.65Y-76.46
X135.65Y-79.0
X138.19Y-71.38
X138.19Y-73.92
X138.19Y-76.46
X138.19Y-79.0
X142.35Y-71.36
X142.35Y-73.9
X142.35Y-76.44
X142.35Y-78.98
X144.89Y-71.36
X144.89Y-73.9
X144.89Y-76.44
X144.89Y-78.98
T8
X90.46Y-75.01
X90.46Y-77.78
X90.46Y-80.55
X90.46Y-83.32
X90.46Y-86.09
X90.46Y-88.86
X90.46Y-91.63
X90.46Y-94.4
X90.46Y-97.17
X90.46Y-99.94
X90.46Y-102.71
X90.46Y-105.48
X90.46Y-108.25
X90.46Y-111.02
X90.46Y-113.79
X90.46Y-116.56
X90.46Y-119.33
X90.46Y-122.1
X93.0Y-73.625
X93.0Y-76.395
X93.0Y-79.165
X93.0Y-81.935
X93.0Y-84.705
X93.0Y-87.475
X93.0Y-90.245
X93.0Y-93.015
X93.0Y-95.785
X93.0Y-98.555
X93.0Y-101.325
X93.0Y-104.095
X93.0Y-106.865
X93.0Y-109.635
X93.0Y-112.405
X93.0Y-115.175
X93.0Y-117.945
X93.0Y-120.715
X93.0Y-123.485
T9
X141.9Y-130.4
T10
X139.36Y-127.86
X139.36Y-132.94
X144.44Y-127.86
X144.44Y-132.94
T11
X91.73Y-66.805
X91.73Y-130.305
T5
G00X134.4Y-57.312
M15
G01X134.4Y-56.612
M16
G05
G00X141.4Y-56.612
M15
G01X141.4Y-57.312
M16
G05
T0
M30
