%TF.GenerationSoftware,KiCad,Pcbnew,(6.0.1)*%
%TF.CreationDate,2022-03-24T12:13:35-05:00*%
%TF.ProjectId,Telemetry_KiCAD_Project,54656c65-6d65-4747-9279-5f4b69434144,rev?*%
%TF.SameCoordinates,Original*%
%TF.FileFunction,Profile,NP*%
%FSLAX46Y46*%
G04 Gerber Fmt 4.6, Leading zero omitted, Abs format (unit mm)*
G04 Created by KiCad (PCBNEW (6.0.1)) date 2022-03-24 12:13:35*
%MOMM*%
%LPD*%
G01*
G04 APERTURE LIST*
%TA.AperFunction,Profile*%
%ADD10C,0.050000*%
%TD*%
G04 APERTURE END LIST*
D10*
X130950000Y-52000000D02*
G75*
G03*
X128950000Y-50000000I-1999999J1D01*
G01*
X150000000Y-143600000D02*
G75*
G03*
X160000000Y-133600000I1J9999999D01*
G01*
X80000000Y-133600000D02*
G75*
G03*
X90000000Y-143600000I9999999J-1D01*
G01*
X130950000Y-52000000D02*
G75*
G03*
X132950000Y-54000000I1999999J-1D01*
G01*
X160000000Y-60000000D02*
X160000000Y-133600000D01*
X160000000Y-60000000D02*
G75*
G03*
X150000000Y-50000000I-9999999J1D01*
G01*
X80000000Y-133600000D02*
X80000000Y-60000000D01*
X150000000Y-143600000D02*
X90000000Y-143600000D01*
X90000000Y-50000000D02*
G75*
G03*
X80000000Y-60000000I-1J-9999999D01*
G01*
X132950000Y-54000000D02*
X142850000Y-54000000D01*
X146850000Y-50000000D02*
G75*
G03*
X144850000Y-52000000I-1J-1999999D01*
G01*
X142850000Y-54000000D02*
G75*
G03*
X144850000Y-52000000I1J1999999D01*
G01*
X90000000Y-50000000D02*
X128950000Y-50000000D01*
X146850000Y-50000000D02*
X150000000Y-50000000D01*
X121180000Y-96800000D02*
G75*
G03*
X121180000Y-96800000I-8000000J0D01*
G01*
X114846666Y-96800000D02*
G75*
G03*
X114846666Y-96800000I-1666666J0D01*
G01*
X110680000Y-96800000D02*
X115680000Y-96800000D01*
X113180000Y-94300000D02*
X113180000Y-99300000D01*
X81666666Y-50000000D02*
G75*
G03*
X81666666Y-50000000I-1666666J0D01*
G01*
X77500000Y-50000000D02*
X82500000Y-50000000D01*
X80000000Y-47500000D02*
X80000000Y-52500000D01*
X161666666Y-143600000D02*
G75*
G03*
X161666666Y-143600000I-1666666J0D01*
G01*
X157500000Y-143600000D02*
X162500000Y-143600000D01*
X160000000Y-141100000D02*
X160000000Y-146100000D01*
X81666666Y-143600000D02*
G75*
G03*
X81666666Y-143600000I-1666666J0D01*
G01*
X77500000Y-143600000D02*
X82500000Y-143600000D01*
X80000000Y-141100000D02*
X80000000Y-146100000D01*
X161666666Y-50000000D02*
G75*
G03*
X161666666Y-50000000I-1666666J0D01*
G01*
X157500000Y-50000000D02*
X162500000Y-50000000D01*
X160000000Y-47500000D02*
X160000000Y-52500000D01*
M02*
