%TF.GenerationSoftware,KiCad,Pcbnew,(6.0.7)*%
%TF.CreationDate,2022-11-16T18:44:32-05:00*%
%TF.ProjectId,Telemetry_KiCAD_Project,54656c65-6d65-4747-9279-5f4b69434144,rev?*%
%TF.SameCoordinates,Original*%
%TF.FileFunction,Legend,Top*%
%TF.FilePolarity,Positive*%
%FSLAX46Y46*%
G04 Gerber Fmt 4.6, Leading zero omitted, Abs format (unit mm)*
G04 Created by KiCad (PCBNEW (6.0.7)) date 2022-11-16 18:44:32*
%MOMM*%
%LPD*%
G01*
G04 APERTURE LIST*
%ADD10C,1.000000*%
%ADD11C,0.100000*%
%ADD12C,0.150000*%
%ADD13C,0.300000*%
%ADD14C,0.450000*%
%ADD15C,0.125000*%
%ADD16C,0.254000*%
%ADD17C,0.062500*%
%ADD18C,0.120000*%
%ADD19C,0.200000*%
%ADD20C,0.127000*%
%ADD21C,0.250000*%
G04 APERTURE END LIST*
D10*
X121680000Y-96800000D02*
G75*
G03*
X121680000Y-96800000I-8500000J0D01*
G01*
D11*
G36*
X90024838Y-53006725D02*
G01*
X89865552Y-53006726D01*
X89384839Y-53026725D01*
X88614838Y-53126725D01*
X87644838Y-53406725D01*
X87024838Y-53656725D01*
X86424838Y-53976725D01*
X85724838Y-54436725D01*
X85284838Y-54806725D01*
X84704838Y-55396725D01*
X84074838Y-56236725D01*
X83634838Y-57046725D01*
X83324838Y-57826725D01*
X83104838Y-58626725D01*
X83014837Y-59226725D01*
X82974838Y-59981725D01*
X79999838Y-59981725D01*
X79999838Y-59956724D01*
X80004838Y-59956725D01*
X80044838Y-59146725D01*
X80234838Y-57866725D01*
X80624838Y-56606725D01*
X80834838Y-56016725D01*
X81494838Y-54766725D01*
X82274838Y-53646725D01*
X83114838Y-52746725D01*
X83854838Y-52116725D01*
X84644838Y-51576725D01*
X85204838Y-51226725D01*
X86034838Y-50846725D01*
X86834838Y-50536725D01*
X87884838Y-50246726D01*
X88484838Y-50146725D01*
X89254838Y-50026725D01*
X89994777Y-50006725D01*
X90024838Y-53006725D01*
G37*
X90024838Y-53006725D02*
X89865552Y-53006726D01*
X89384839Y-53026725D01*
X88614838Y-53126725D01*
X87644838Y-53406725D01*
X87024838Y-53656725D01*
X86424838Y-53976725D01*
X85724838Y-54436725D01*
X85284838Y-54806725D01*
X84704838Y-55396725D01*
X84074838Y-56236725D01*
X83634838Y-57046725D01*
X83324838Y-57826725D01*
X83104838Y-58626725D01*
X83014837Y-59226725D01*
X82974838Y-59981725D01*
X79999838Y-59981725D01*
X79999838Y-59956724D01*
X80004838Y-59956725D01*
X80044838Y-59146725D01*
X80234838Y-57866725D01*
X80624838Y-56606725D01*
X80834838Y-56016725D01*
X81494838Y-54766725D01*
X82274838Y-53646725D01*
X83114838Y-52746725D01*
X83854838Y-52116725D01*
X84644838Y-51576725D01*
X85204838Y-51226725D01*
X86034838Y-50846725D01*
X86834838Y-50536725D01*
X87884838Y-50246726D01*
X88484838Y-50146725D01*
X89254838Y-50026725D01*
X89994777Y-50006725D01*
X90024838Y-53006725D01*
G36*
X149999838Y-143590677D02*
G01*
X89974838Y-143585677D01*
X89999838Y-140620677D01*
X150109124Y-140580677D01*
X149999838Y-143590677D01*
G37*
X149999838Y-143590677D02*
X89974838Y-143585677D01*
X89999838Y-140620677D01*
X150109124Y-140580677D01*
X149999838Y-143590677D01*
G36*
X150049838Y-50011725D02*
G01*
X150859838Y-50051725D01*
X152139838Y-50241725D01*
X153399838Y-50631725D01*
X153989838Y-50841725D01*
X155239838Y-51501725D01*
X156359838Y-52281725D01*
X157259838Y-53121725D01*
X157889838Y-53861725D01*
X158429838Y-54651725D01*
X158779838Y-55211725D01*
X159159838Y-56041725D01*
X159469838Y-56841725D01*
X159759838Y-57891725D01*
X159859838Y-58491725D01*
X159979838Y-59261725D01*
X159999838Y-60001664D01*
X156999838Y-60031725D01*
X156999837Y-59872439D01*
X156979838Y-59391725D01*
X156879838Y-58621725D01*
X156599838Y-57651725D01*
X156349838Y-57031725D01*
X156029838Y-56431725D01*
X155569838Y-55731725D01*
X155199838Y-55291725D01*
X154609838Y-54711725D01*
X153769838Y-54081725D01*
X152959838Y-53641725D01*
X152179838Y-53331725D01*
X151379838Y-53111725D01*
X150779838Y-53021725D01*
X150024838Y-52981725D01*
X150024838Y-50006725D01*
X150049838Y-50006725D01*
X150049838Y-50011725D01*
G37*
X150049838Y-50011725D02*
X150859838Y-50051725D01*
X152139838Y-50241725D01*
X153399838Y-50631725D01*
X153989838Y-50841725D01*
X155239838Y-51501725D01*
X156359838Y-52281725D01*
X157259838Y-53121725D01*
X157889838Y-53861725D01*
X158429838Y-54651725D01*
X158779838Y-55211725D01*
X159159838Y-56041725D01*
X159469838Y-56841725D01*
X159759838Y-57891725D01*
X159859838Y-58491725D01*
X159979838Y-59261725D01*
X159999838Y-60001664D01*
X156999838Y-60031725D01*
X156999837Y-59872439D01*
X156979838Y-59391725D01*
X156879838Y-58621725D01*
X156599838Y-57651725D01*
X156349838Y-57031725D01*
X156029838Y-56431725D01*
X155569838Y-55731725D01*
X155199838Y-55291725D01*
X154609838Y-54711725D01*
X153769838Y-54081725D01*
X152959838Y-53641725D01*
X152179838Y-53331725D01*
X151379838Y-53111725D01*
X150779838Y-53021725D01*
X150024838Y-52981725D01*
X150024838Y-50006725D01*
X150049838Y-50006725D01*
X150049838Y-50011725D01*
G36*
X159999838Y-133530677D02*
G01*
X157019838Y-133530677D01*
X156999838Y-60031725D01*
X159999838Y-60031725D01*
X159999838Y-133530677D01*
G37*
X159999838Y-133530677D02*
X157019838Y-133530677D01*
X156999838Y-60031725D01*
X159999838Y-60031725D01*
X159999838Y-133530677D01*
G36*
X82999839Y-133719963D02*
G01*
X83019838Y-134200676D01*
X83119838Y-134970677D01*
X83399838Y-135940677D01*
X83649838Y-136560677D01*
X83969838Y-137160677D01*
X84429838Y-137860677D01*
X84799838Y-138300677D01*
X85389838Y-138880677D01*
X86229838Y-139510677D01*
X87039838Y-139950677D01*
X87819838Y-140260677D01*
X88619838Y-140480677D01*
X89219838Y-140570678D01*
X89974838Y-140610677D01*
X89974838Y-143585677D01*
X89949837Y-143585677D01*
X89949838Y-143580677D01*
X89139838Y-143540677D01*
X87859838Y-143350677D01*
X86599838Y-142960677D01*
X86009838Y-142750677D01*
X84759838Y-142090677D01*
X83639838Y-141310677D01*
X82739838Y-140470677D01*
X82109838Y-139730677D01*
X81569838Y-138940677D01*
X81219838Y-138380677D01*
X80839838Y-137550677D01*
X80529838Y-136750677D01*
X80239839Y-135700677D01*
X80139838Y-135100677D01*
X80019838Y-134330677D01*
X79999838Y-133590738D01*
X82999838Y-133560677D01*
X82999839Y-133719963D01*
G37*
X82999839Y-133719963D02*
X83019838Y-134200676D01*
X83119838Y-134970677D01*
X83399838Y-135940677D01*
X83649838Y-136560677D01*
X83969838Y-137160677D01*
X84429838Y-137860677D01*
X84799838Y-138300677D01*
X85389838Y-138880677D01*
X86229838Y-139510677D01*
X87039838Y-139950677D01*
X87819838Y-140260677D01*
X88619838Y-140480677D01*
X89219838Y-140570678D01*
X89974838Y-140610677D01*
X89974838Y-143585677D01*
X89949837Y-143585677D01*
X89949838Y-143580677D01*
X89139838Y-143540677D01*
X87859838Y-143350677D01*
X86599838Y-142960677D01*
X86009838Y-142750677D01*
X84759838Y-142090677D01*
X83639838Y-141310677D01*
X82739838Y-140470677D01*
X82109838Y-139730677D01*
X81569838Y-138940677D01*
X81219838Y-138380677D01*
X80839838Y-137550677D01*
X80529838Y-136750677D01*
X80239839Y-135700677D01*
X80139838Y-135100677D01*
X80019838Y-134330677D01*
X79999838Y-133590738D01*
X82999838Y-133560677D01*
X82999839Y-133719963D01*
G36*
X159999838Y-133600677D02*
G01*
X159969838Y-134260677D01*
X159899838Y-134960677D01*
X159759838Y-135740677D01*
X159569838Y-136500677D01*
X159299838Y-137250677D01*
X159009838Y-137910677D01*
X158679838Y-138530677D01*
X158249838Y-139250677D01*
X157749838Y-139900677D01*
X157369838Y-140330677D01*
X156879838Y-140840677D01*
X156479838Y-141210677D01*
X156039838Y-141550677D01*
X155589838Y-141880677D01*
X154919838Y-142290677D01*
X154359838Y-142580677D01*
X153859838Y-142820677D01*
X153219838Y-143050677D01*
X152499838Y-143270677D01*
X151999838Y-143390677D01*
X151619838Y-143450677D01*
X151189838Y-143510677D01*
X150669838Y-143550677D01*
X150109838Y-143580677D01*
X149979838Y-143580677D01*
X150089838Y-140590677D01*
X150119838Y-140590677D01*
X151099838Y-140490677D01*
X151959838Y-140310677D01*
X152769838Y-140010677D01*
X153319838Y-139730677D01*
X153899838Y-139400677D01*
X154469838Y-138990677D01*
X155039838Y-138470677D01*
X155639838Y-137760677D01*
X155969838Y-137240677D01*
X156359838Y-136520677D01*
X156539838Y-136100677D01*
X156749838Y-135460677D01*
X156919838Y-134710677D01*
X156989838Y-134250677D01*
X157019838Y-133530677D01*
X159999838Y-133530677D01*
X159999838Y-133600677D01*
G37*
X159999838Y-133600677D02*
X159969838Y-134260677D01*
X159899838Y-134960677D01*
X159759838Y-135740677D01*
X159569838Y-136500677D01*
X159299838Y-137250677D01*
X159009838Y-137910677D01*
X158679838Y-138530677D01*
X158249838Y-139250677D01*
X157749838Y-139900677D01*
X157369838Y-140330677D01*
X156879838Y-140840677D01*
X156479838Y-141210677D01*
X156039838Y-141550677D01*
X155589838Y-141880677D01*
X154919838Y-142290677D01*
X154359838Y-142580677D01*
X153859838Y-142820677D01*
X153219838Y-143050677D01*
X152499838Y-143270677D01*
X151999838Y-143390677D01*
X151619838Y-143450677D01*
X151189838Y-143510677D01*
X150669838Y-143550677D01*
X150109838Y-143580677D01*
X149979838Y-143580677D01*
X150089838Y-140590677D01*
X150119838Y-140590677D01*
X151099838Y-140490677D01*
X151959838Y-140310677D01*
X152769838Y-140010677D01*
X153319838Y-139730677D01*
X153899838Y-139400677D01*
X154469838Y-138990677D01*
X155039838Y-138470677D01*
X155639838Y-137760677D01*
X155969838Y-137240677D01*
X156359838Y-136520677D01*
X156539838Y-136100677D01*
X156749838Y-135460677D01*
X156919838Y-134710677D01*
X156989838Y-134250677D01*
X157019838Y-133530677D01*
X159999838Y-133530677D01*
X159999838Y-133600677D01*
G36*
X150024838Y-52981725D02*
G01*
X89779838Y-53021725D01*
X89994777Y-50006725D01*
X150024838Y-50006725D01*
X150024838Y-52981725D01*
G37*
X150024838Y-52981725D02*
X89779838Y-53021725D01*
X89994777Y-50006725D01*
X150024838Y-50006725D01*
X150024838Y-52981725D01*
D12*
X140569644Y-117906599D02*
X138953400Y-116290355D01*
X139761522Y-116290355D02*
X138953400Y-116290355D01*
X138953400Y-117098477D01*
D13*
X152545714Y-114541071D02*
X152831428Y-114541071D01*
X152974285Y-114469642D01*
X153045714Y-114398214D01*
X153188571Y-114183928D01*
X153260000Y-113898214D01*
X153260000Y-113326785D01*
X153188571Y-113183928D01*
X153117142Y-113112500D01*
X152974285Y-113041071D01*
X152688571Y-113041071D01*
X152545714Y-113112500D01*
X152474285Y-113183928D01*
X152402857Y-113326785D01*
X152402857Y-113683928D01*
X152474285Y-113826785D01*
X152545714Y-113898214D01*
X152688571Y-113969642D01*
X152974285Y-113969642D01*
X153117142Y-113898214D01*
X153188571Y-113826785D01*
X153260000Y-113683928D01*
X154188571Y-113041071D02*
X154331428Y-113041071D01*
X154474285Y-113112500D01*
X154545714Y-113183928D01*
X154617142Y-113326785D01*
X154688571Y-113612500D01*
X154688571Y-113969642D01*
X154617142Y-114255357D01*
X154545714Y-114398214D01*
X154474285Y-114469642D01*
X154331428Y-114541071D01*
X154188571Y-114541071D01*
X154045714Y-114469642D01*
X153974285Y-114398214D01*
X153902857Y-114255357D01*
X153831428Y-113969642D01*
X153831428Y-113612500D01*
X153902857Y-113326785D01*
X153974285Y-113183928D01*
X154045714Y-113112500D01*
X154188571Y-113041071D01*
X156045714Y-113041071D02*
X155331428Y-113041071D01*
X155260000Y-113755357D01*
X155331428Y-113683928D01*
X155474285Y-113612500D01*
X155831428Y-113612500D01*
X155974285Y-113683928D01*
X156045714Y-113755357D01*
X156117142Y-113898214D01*
X156117142Y-114255357D01*
X156045714Y-114398214D01*
X155974285Y-114469642D01*
X155831428Y-114541071D01*
X155474285Y-114541071D01*
X155331428Y-114469642D01*
X155260000Y-114398214D01*
X152367142Y-116956071D02*
X152367142Y-115456071D01*
X152867142Y-116527500D01*
X153367142Y-115456071D01*
X153367142Y-116956071D01*
X154081428Y-116956071D02*
X154081428Y-115456071D01*
X154081428Y-116170357D02*
X154938571Y-116170357D01*
X154938571Y-116956071D02*
X154938571Y-115456071D01*
X155510000Y-115956071D02*
X156295714Y-115956071D01*
X155510000Y-116956071D01*
X156295714Y-116956071D01*
D14*
X138956666Y-115174761D02*
X138290000Y-114222380D01*
X137813809Y-115174761D02*
X137813809Y-113174761D01*
X138575714Y-113174761D01*
X138766190Y-113270000D01*
X138861428Y-113365238D01*
X138956666Y-113555714D01*
X138956666Y-113841428D01*
X138861428Y-114031904D01*
X138766190Y-114127142D01*
X138575714Y-114222380D01*
X137813809Y-114222380D01*
X139623333Y-113174761D02*
X140956666Y-115174761D01*
X140956666Y-113174761D02*
X139623333Y-115174761D01*
D15*
X148195714Y-84772380D02*
X148267142Y-84796190D01*
X148386190Y-84796190D01*
X148433809Y-84772380D01*
X148457619Y-84748571D01*
X148481428Y-84700952D01*
X148481428Y-84653333D01*
X148457619Y-84605714D01*
X148433809Y-84581904D01*
X148386190Y-84558095D01*
X148290952Y-84534285D01*
X148243333Y-84510476D01*
X148219523Y-84486666D01*
X148195714Y-84439047D01*
X148195714Y-84391428D01*
X148219523Y-84343809D01*
X148243333Y-84320000D01*
X148290952Y-84296190D01*
X148410000Y-84296190D01*
X148481428Y-84320000D01*
X148695714Y-84796190D02*
X148695714Y-84462857D01*
X148695714Y-84296190D02*
X148671904Y-84320000D01*
X148695714Y-84343809D01*
X148719523Y-84320000D01*
X148695714Y-84296190D01*
X148695714Y-84343809D01*
X149148095Y-84462857D02*
X149148095Y-84796190D01*
X149029047Y-84272380D02*
X148910000Y-84629523D01*
X149219523Y-84629523D01*
X149624285Y-84462857D02*
X149624285Y-84796190D01*
X149505238Y-84272380D02*
X149386190Y-84629523D01*
X149695714Y-84629523D01*
X150100476Y-84296190D02*
X150005238Y-84296190D01*
X149957619Y-84320000D01*
X149933809Y-84343809D01*
X149886190Y-84415238D01*
X149862380Y-84510476D01*
X149862380Y-84700952D01*
X149886190Y-84748571D01*
X149910000Y-84772380D01*
X149957619Y-84796190D01*
X150052857Y-84796190D01*
X150100476Y-84772380D01*
X150124285Y-84748571D01*
X150148095Y-84700952D01*
X150148095Y-84581904D01*
X150124285Y-84534285D01*
X150100476Y-84510476D01*
X150052857Y-84486666D01*
X149957619Y-84486666D01*
X149910000Y-84510476D01*
X149886190Y-84534285D01*
X149862380Y-84581904D01*
X150314761Y-84296190D02*
X150624285Y-84296190D01*
X150457619Y-84486666D01*
X150529047Y-84486666D01*
X150576666Y-84510476D01*
X150600476Y-84534285D01*
X150624285Y-84581904D01*
X150624285Y-84700952D01*
X150600476Y-84748571D01*
X150576666Y-84772380D01*
X150529047Y-84796190D01*
X150386190Y-84796190D01*
X150338571Y-84772380D01*
X150314761Y-84748571D01*
D13*
X136725714Y-134631071D02*
X137582857Y-134631071D01*
X137154285Y-136131071D02*
X137154285Y-134631071D01*
X138654285Y-136059642D02*
X138511428Y-136131071D01*
X138225714Y-136131071D01*
X138082857Y-136059642D01*
X138011428Y-135916785D01*
X138011428Y-135345357D01*
X138082857Y-135202500D01*
X138225714Y-135131071D01*
X138511428Y-135131071D01*
X138654285Y-135202500D01*
X138725714Y-135345357D01*
X138725714Y-135488214D01*
X138011428Y-135631071D01*
X139582857Y-136131071D02*
X139440000Y-136059642D01*
X139368571Y-135916785D01*
X139368571Y-134631071D01*
X140725714Y-136059642D02*
X140582857Y-136131071D01*
X140297142Y-136131071D01*
X140154285Y-136059642D01*
X140082857Y-135916785D01*
X140082857Y-135345357D01*
X140154285Y-135202500D01*
X140297142Y-135131071D01*
X140582857Y-135131071D01*
X140725714Y-135202500D01*
X140797142Y-135345357D01*
X140797142Y-135488214D01*
X140082857Y-135631071D01*
X141440000Y-136131071D02*
X141440000Y-135131071D01*
X141440000Y-135273928D02*
X141511428Y-135202500D01*
X141654285Y-135131071D01*
X141868571Y-135131071D01*
X142011428Y-135202500D01*
X142082857Y-135345357D01*
X142082857Y-136131071D01*
X142082857Y-135345357D02*
X142154285Y-135202500D01*
X142297142Y-135131071D01*
X142511428Y-135131071D01*
X142654285Y-135202500D01*
X142725714Y-135345357D01*
X142725714Y-136131071D01*
X144011428Y-136059642D02*
X143868571Y-136131071D01*
X143582857Y-136131071D01*
X143440000Y-136059642D01*
X143368571Y-135916785D01*
X143368571Y-135345357D01*
X143440000Y-135202500D01*
X143582857Y-135131071D01*
X143868571Y-135131071D01*
X144011428Y-135202500D01*
X144082857Y-135345357D01*
X144082857Y-135488214D01*
X143368571Y-135631071D01*
X144511428Y-135131071D02*
X145082857Y-135131071D01*
X144725714Y-134631071D02*
X144725714Y-135916785D01*
X144797142Y-136059642D01*
X144940000Y-136131071D01*
X145082857Y-136131071D01*
X145582857Y-136131071D02*
X145582857Y-135131071D01*
X145582857Y-135416785D02*
X145654285Y-135273928D01*
X145725714Y-135202500D01*
X145868571Y-135131071D01*
X146011428Y-135131071D01*
X146368571Y-135131071D02*
X146725714Y-136131071D01*
X147082857Y-135131071D02*
X146725714Y-136131071D01*
X146582857Y-136488214D01*
X146511428Y-136559642D01*
X146368571Y-136631071D01*
X137797142Y-138117500D02*
X138511428Y-138117500D01*
X137654285Y-138546071D02*
X138154285Y-137046071D01*
X138654285Y-138546071D01*
X139154285Y-137546071D02*
X139154285Y-138546071D01*
X139154285Y-137688928D02*
X139225714Y-137617500D01*
X139368571Y-137546071D01*
X139582857Y-137546071D01*
X139725714Y-137617500D01*
X139797142Y-137760357D01*
X139797142Y-138546071D01*
X140297142Y-137546071D02*
X140868571Y-137546071D01*
X140511428Y-137046071D02*
X140511428Y-138331785D01*
X140582857Y-138474642D01*
X140725714Y-138546071D01*
X140868571Y-138546071D01*
X141940000Y-138474642D02*
X141797142Y-138546071D01*
X141511428Y-138546071D01*
X141368571Y-138474642D01*
X141297142Y-138331785D01*
X141297142Y-137760357D01*
X141368571Y-137617500D01*
X141511428Y-137546071D01*
X141797142Y-137546071D01*
X141940000Y-137617500D01*
X142011428Y-137760357D01*
X142011428Y-137903214D01*
X141297142Y-138046071D01*
X142654285Y-137546071D02*
X142654285Y-138546071D01*
X142654285Y-137688928D02*
X142725714Y-137617500D01*
X142868571Y-137546071D01*
X143082857Y-137546071D01*
X143225714Y-137617500D01*
X143297142Y-137760357D01*
X143297142Y-138546071D01*
X144011428Y-137546071D02*
X144011428Y-138546071D01*
X144011428Y-137688928D02*
X144082857Y-137617500D01*
X144225714Y-137546071D01*
X144440000Y-137546071D01*
X144582857Y-137617500D01*
X144654285Y-137760357D01*
X144654285Y-138546071D01*
X146011428Y-138546071D02*
X146011428Y-137760357D01*
X145940000Y-137617500D01*
X145797142Y-137546071D01*
X145511428Y-137546071D01*
X145368571Y-137617500D01*
X146011428Y-138474642D02*
X145868571Y-138546071D01*
X145511428Y-138546071D01*
X145368571Y-138474642D01*
X145297142Y-138331785D01*
X145297142Y-138188928D01*
X145368571Y-138046071D01*
X145511428Y-137974642D01*
X145868571Y-137974642D01*
X146011428Y-137903214D01*
X126645714Y-136021071D02*
X126931428Y-136021071D01*
X127074285Y-135949642D01*
X127145714Y-135878214D01*
X127288571Y-135663928D01*
X127360000Y-135378214D01*
X127360000Y-134806785D01*
X127288571Y-134663928D01*
X127217142Y-134592500D01*
X127074285Y-134521071D01*
X126788571Y-134521071D01*
X126645714Y-134592500D01*
X126574285Y-134663928D01*
X126502857Y-134806785D01*
X126502857Y-135163928D01*
X126574285Y-135306785D01*
X126645714Y-135378214D01*
X126788571Y-135449642D01*
X127074285Y-135449642D01*
X127217142Y-135378214D01*
X127288571Y-135306785D01*
X127360000Y-135163928D01*
X128288571Y-134521071D02*
X128431428Y-134521071D01*
X128574285Y-134592500D01*
X128645714Y-134663928D01*
X128717142Y-134806785D01*
X128788571Y-135092500D01*
X128788571Y-135449642D01*
X128717142Y-135735357D01*
X128645714Y-135878214D01*
X128574285Y-135949642D01*
X128431428Y-136021071D01*
X128288571Y-136021071D01*
X128145714Y-135949642D01*
X128074285Y-135878214D01*
X128002857Y-135735357D01*
X127931428Y-135449642D01*
X127931428Y-135092500D01*
X128002857Y-134806785D01*
X128074285Y-134663928D01*
X128145714Y-134592500D01*
X128288571Y-134521071D01*
X129717142Y-134521071D02*
X129860000Y-134521071D01*
X130002857Y-134592500D01*
X130074285Y-134663928D01*
X130145714Y-134806785D01*
X130217142Y-135092500D01*
X130217142Y-135449642D01*
X130145714Y-135735357D01*
X130074285Y-135878214D01*
X130002857Y-135949642D01*
X129860000Y-136021071D01*
X129717142Y-136021071D01*
X129574285Y-135949642D01*
X129502857Y-135878214D01*
X129431428Y-135735357D01*
X129360000Y-135449642D01*
X129360000Y-135092500D01*
X129431428Y-134806785D01*
X129502857Y-134663928D01*
X129574285Y-134592500D01*
X129717142Y-134521071D01*
X130860000Y-136021071D02*
X130860000Y-134521071D01*
X131360000Y-135592500D01*
X131860000Y-134521071D01*
X131860000Y-136021071D01*
X132574285Y-136021071D02*
X132574285Y-134521071D01*
X132574285Y-135235357D02*
X133431428Y-135235357D01*
X133431428Y-136021071D02*
X133431428Y-134521071D01*
X134002857Y-135021071D02*
X134788571Y-135021071D01*
X134002857Y-136021071D01*
X134788571Y-136021071D01*
X129395714Y-136936071D02*
X128681428Y-136936071D01*
X128610000Y-137650357D01*
X128681428Y-137578928D01*
X128824285Y-137507500D01*
X129181428Y-137507500D01*
X129324285Y-137578928D01*
X129395714Y-137650357D01*
X129467142Y-137793214D01*
X129467142Y-138150357D01*
X129395714Y-138293214D01*
X129324285Y-138364642D01*
X129181428Y-138436071D01*
X128824285Y-138436071D01*
X128681428Y-138364642D01*
X128610000Y-138293214D01*
X130395714Y-136936071D02*
X130538571Y-136936071D01*
X130681428Y-137007500D01*
X130752857Y-137078928D01*
X130824285Y-137221785D01*
X130895714Y-137507500D01*
X130895714Y-137864642D01*
X130824285Y-138150357D01*
X130752857Y-138293214D01*
X130681428Y-138364642D01*
X130538571Y-138436071D01*
X130395714Y-138436071D01*
X130252857Y-138364642D01*
X130181428Y-138293214D01*
X130110000Y-138150357D01*
X130038571Y-137864642D01*
X130038571Y-137507500D01*
X130110000Y-137221785D01*
X130181428Y-137078928D01*
X130252857Y-137007500D01*
X130395714Y-136936071D01*
X131467142Y-138436071D02*
X131824285Y-138436071D01*
X131824285Y-138150357D01*
X131681428Y-138078928D01*
X131538571Y-137936071D01*
X131467142Y-137721785D01*
X131467142Y-137364642D01*
X131538571Y-137150357D01*
X131681428Y-137007500D01*
X131895714Y-136936071D01*
X132181428Y-136936071D01*
X132395714Y-137007500D01*
X132538571Y-137150357D01*
X132610000Y-137364642D01*
X132610000Y-137721785D01*
X132538571Y-137936071D01*
X132395714Y-138078928D01*
X132252857Y-138150357D01*
X132252857Y-138436071D01*
X132610000Y-138436071D01*
D15*
X132925714Y-84742380D02*
X132997142Y-84766190D01*
X133116190Y-84766190D01*
X133163809Y-84742380D01*
X133187619Y-84718571D01*
X133211428Y-84670952D01*
X133211428Y-84623333D01*
X133187619Y-84575714D01*
X133163809Y-84551904D01*
X133116190Y-84528095D01*
X133020952Y-84504285D01*
X132973333Y-84480476D01*
X132949523Y-84456666D01*
X132925714Y-84409047D01*
X132925714Y-84361428D01*
X132949523Y-84313809D01*
X132973333Y-84290000D01*
X133020952Y-84266190D01*
X133140000Y-84266190D01*
X133211428Y-84290000D01*
X133425714Y-84766190D02*
X133425714Y-84432857D01*
X133425714Y-84266190D02*
X133401904Y-84290000D01*
X133425714Y-84313809D01*
X133449523Y-84290000D01*
X133425714Y-84266190D01*
X133425714Y-84313809D01*
X133878095Y-84432857D02*
X133878095Y-84766190D01*
X133759047Y-84242380D02*
X133640000Y-84599523D01*
X133949523Y-84599523D01*
X134354285Y-84432857D02*
X134354285Y-84766190D01*
X134235238Y-84242380D02*
X134116190Y-84599523D01*
X134425714Y-84599523D01*
X134830476Y-84266190D02*
X134735238Y-84266190D01*
X134687619Y-84290000D01*
X134663809Y-84313809D01*
X134616190Y-84385238D01*
X134592380Y-84480476D01*
X134592380Y-84670952D01*
X134616190Y-84718571D01*
X134640000Y-84742380D01*
X134687619Y-84766190D01*
X134782857Y-84766190D01*
X134830476Y-84742380D01*
X134854285Y-84718571D01*
X134878095Y-84670952D01*
X134878095Y-84551904D01*
X134854285Y-84504285D01*
X134830476Y-84480476D01*
X134782857Y-84456666D01*
X134687619Y-84456666D01*
X134640000Y-84480476D01*
X134616190Y-84504285D01*
X134592380Y-84551904D01*
X135044761Y-84266190D02*
X135354285Y-84266190D01*
X135187619Y-84456666D01*
X135259047Y-84456666D01*
X135306666Y-84480476D01*
X135330476Y-84504285D01*
X135354285Y-84551904D01*
X135354285Y-84670952D01*
X135330476Y-84718571D01*
X135306666Y-84742380D01*
X135259047Y-84766190D01*
X135116190Y-84766190D01*
X135068571Y-84742380D01*
X135044761Y-84718571D01*
D12*
X144836599Y-116300355D02*
X143220355Y-117916599D01*
X143220355Y-117108477D02*
X143220355Y-117916599D01*
X144028477Y-117916599D01*
D14*
X143166190Y-113174761D02*
X144309047Y-113174761D01*
X143737619Y-115174761D02*
X143737619Y-113174761D01*
X144785238Y-113174761D02*
X146118571Y-115174761D01*
X146118571Y-113174761D02*
X144785238Y-115174761D01*
D13*
X128175714Y-114961071D02*
X128461428Y-114961071D01*
X128604285Y-114889642D01*
X128675714Y-114818214D01*
X128818571Y-114603928D01*
X128890000Y-114318214D01*
X128890000Y-113746785D01*
X128818571Y-113603928D01*
X128747142Y-113532500D01*
X128604285Y-113461071D01*
X128318571Y-113461071D01*
X128175714Y-113532500D01*
X128104285Y-113603928D01*
X128032857Y-113746785D01*
X128032857Y-114103928D01*
X128104285Y-114246785D01*
X128175714Y-114318214D01*
X128318571Y-114389642D01*
X128604285Y-114389642D01*
X128747142Y-114318214D01*
X128818571Y-114246785D01*
X128890000Y-114103928D01*
X129461428Y-113603928D02*
X129532857Y-113532500D01*
X129675714Y-113461071D01*
X130032857Y-113461071D01*
X130175714Y-113532500D01*
X130247142Y-113603928D01*
X130318571Y-113746785D01*
X130318571Y-113889642D01*
X130247142Y-114103928D01*
X129390000Y-114961071D01*
X130318571Y-114961071D01*
X131604285Y-113461071D02*
X131318571Y-113461071D01*
X131175714Y-113532500D01*
X131104285Y-113603928D01*
X130961428Y-113818214D01*
X130890000Y-114103928D01*
X130890000Y-114675357D01*
X130961428Y-114818214D01*
X131032857Y-114889642D01*
X131175714Y-114961071D01*
X131461428Y-114961071D01*
X131604285Y-114889642D01*
X131675714Y-114818214D01*
X131747142Y-114675357D01*
X131747142Y-114318214D01*
X131675714Y-114175357D01*
X131604285Y-114103928D01*
X131461428Y-114032500D01*
X131175714Y-114032500D01*
X131032857Y-114103928D01*
X130961428Y-114175357D01*
X130890000Y-114318214D01*
X127997142Y-117376071D02*
X127997142Y-115876071D01*
X128497142Y-116947500D01*
X128997142Y-115876071D01*
X128997142Y-117376071D01*
X129711428Y-117376071D02*
X129711428Y-115876071D01*
X129711428Y-116590357D02*
X130568571Y-116590357D01*
X130568571Y-117376071D02*
X130568571Y-115876071D01*
X131140000Y-116376071D02*
X131925714Y-116376071D01*
X131140000Y-117376071D01*
X131925714Y-117376071D01*
D12*
X144095535Y-109394285D02*
X144095535Y-109822857D01*
X144095535Y-109608571D02*
X143345535Y-109608571D01*
X143452678Y-109680000D01*
X143524107Y-109751428D01*
X143559821Y-109822857D01*
X143345535Y-109144285D02*
X144095535Y-108965714D01*
X143559821Y-108822857D01*
X144095535Y-108680000D01*
X143345535Y-108501428D01*
X145088750Y-111519285D02*
X145088750Y-111162142D01*
X145303035Y-111590714D02*
X144553035Y-111340714D01*
X145303035Y-111090714D01*
X145303035Y-110840714D02*
X144803035Y-110840714D01*
X144874464Y-110840714D02*
X144838750Y-110805000D01*
X144803035Y-110733571D01*
X144803035Y-110626428D01*
X144838750Y-110555000D01*
X144910178Y-110519285D01*
X145303035Y-110519285D01*
X144910178Y-110519285D02*
X144838750Y-110483571D01*
X144803035Y-110412142D01*
X144803035Y-110305000D01*
X144838750Y-110233571D01*
X144910178Y-110197857D01*
X145303035Y-110197857D01*
X144803035Y-109840714D02*
X145553035Y-109840714D01*
X144838750Y-109840714D02*
X144803035Y-109769285D01*
X144803035Y-109626428D01*
X144838750Y-109555000D01*
X144874464Y-109519285D01*
X144945892Y-109483571D01*
X145160178Y-109483571D01*
X145231607Y-109519285D01*
X145267321Y-109555000D01*
X145303035Y-109626428D01*
X145303035Y-109769285D01*
X145267321Y-109840714D01*
X145303035Y-109055000D02*
X145267321Y-109126428D01*
X145195892Y-109162142D01*
X144553035Y-109162142D01*
X145303035Y-108769285D02*
X144803035Y-108769285D01*
X144553035Y-108769285D02*
X144588750Y-108805000D01*
X144624464Y-108769285D01*
X144588750Y-108733571D01*
X144553035Y-108769285D01*
X144624464Y-108769285D01*
X144803035Y-108519285D02*
X144803035Y-108233571D01*
X145303035Y-108412142D02*
X144660178Y-108412142D01*
X144588750Y-108376428D01*
X144553035Y-108305000D01*
X144553035Y-108233571D01*
X145303035Y-107983571D02*
X144803035Y-107983571D01*
X144553035Y-107983571D02*
X144588750Y-108019285D01*
X144624464Y-107983571D01*
X144588750Y-107947857D01*
X144553035Y-107983571D01*
X144624464Y-107983571D01*
X145267321Y-107340714D02*
X145303035Y-107412142D01*
X145303035Y-107555000D01*
X145267321Y-107626428D01*
X145195892Y-107662142D01*
X144910178Y-107662142D01*
X144838750Y-107626428D01*
X144803035Y-107555000D01*
X144803035Y-107412142D01*
X144838750Y-107340714D01*
X144910178Y-107305000D01*
X144981607Y-107305000D01*
X145053035Y-107662142D01*
X145303035Y-106983571D02*
X144803035Y-106983571D01*
X144945892Y-106983571D02*
X144874464Y-106947857D01*
X144838750Y-106912142D01*
X144803035Y-106840714D01*
X144803035Y-106769285D01*
X144820000Y-124422380D02*
X144820000Y-123422380D01*
X145058095Y-123422380D01*
X145200952Y-123470000D01*
X145296190Y-123565238D01*
X145343809Y-123660476D01*
X145391428Y-123850952D01*
X145391428Y-123993809D01*
X145343809Y-124184285D01*
X145296190Y-124279523D01*
X145200952Y-124374761D01*
X145058095Y-124422380D01*
X144820000Y-124422380D01*
X146248571Y-123755714D02*
X146248571Y-124422380D01*
X145820000Y-123755714D02*
X145820000Y-124279523D01*
X145867619Y-124374761D01*
X145962857Y-124422380D01*
X146105714Y-124422380D01*
X146200952Y-124374761D01*
X146248571Y-124327142D01*
X146724761Y-123755714D02*
X146724761Y-124755714D01*
X146724761Y-123803333D02*
X146820000Y-123755714D01*
X147010476Y-123755714D01*
X147105714Y-123803333D01*
X147153333Y-123850952D01*
X147200952Y-123946190D01*
X147200952Y-124231904D01*
X147153333Y-124327142D01*
X147105714Y-124374761D01*
X147010476Y-124422380D01*
X146820000Y-124422380D01*
X146724761Y-124374761D01*
X147772380Y-124422380D02*
X147677142Y-124374761D01*
X147629523Y-124279523D01*
X147629523Y-123422380D01*
X148534285Y-124374761D02*
X148439047Y-124422380D01*
X148248571Y-124422380D01*
X148153333Y-124374761D01*
X148105714Y-124279523D01*
X148105714Y-123898571D01*
X148153333Y-123803333D01*
X148248571Y-123755714D01*
X148439047Y-123755714D01*
X148534285Y-123803333D01*
X148581904Y-123898571D01*
X148581904Y-123993809D01*
X148105714Y-124089047D01*
X148915238Y-124422380D02*
X149439047Y-123755714D01*
X148915238Y-123755714D02*
X149439047Y-124422380D01*
X150200952Y-124374761D02*
X150105714Y-124422380D01*
X149915238Y-124422380D01*
X149820000Y-124374761D01*
X149772380Y-124279523D01*
X149772380Y-123898571D01*
X149820000Y-123803333D01*
X149915238Y-123755714D01*
X150105714Y-123755714D01*
X150200952Y-123803333D01*
X150248571Y-123898571D01*
X150248571Y-123993809D01*
X149772380Y-124089047D01*
X150677142Y-124422380D02*
X150677142Y-123755714D01*
X150677142Y-123946190D02*
X150724761Y-123850952D01*
X150772380Y-123803333D01*
X150867619Y-123755714D01*
X150962857Y-123755714D01*
%TO.C,C25*%
X94673190Y-60777180D02*
X94673190Y-60844524D01*
X94605846Y-60979211D01*
X94538503Y-61046554D01*
X94403816Y-61113898D01*
X94269129Y-61113898D01*
X94168114Y-61080226D01*
X93999755Y-60979211D01*
X93898740Y-60878196D01*
X93797724Y-60709837D01*
X93764053Y-60608822D01*
X93764053Y-60474135D01*
X93831396Y-60339448D01*
X93898740Y-60272104D01*
X94033427Y-60204761D01*
X94100770Y-60204761D01*
X94370144Y-59935386D02*
X94370144Y-59868043D01*
X94403816Y-59767028D01*
X94572175Y-59598669D01*
X94673190Y-59564997D01*
X94740533Y-59564997D01*
X94841549Y-59598669D01*
X94908892Y-59666012D01*
X94976236Y-59800699D01*
X94976236Y-60608822D01*
X95413969Y-60171089D01*
X95346625Y-58824219D02*
X95009908Y-59160936D01*
X95312953Y-59531325D01*
X95312953Y-59463982D01*
X95346625Y-59362967D01*
X95514984Y-59194608D01*
X95615999Y-59160936D01*
X95683343Y-59160936D01*
X95784358Y-59194608D01*
X95952717Y-59362967D01*
X95986388Y-59463982D01*
X95986388Y-59531325D01*
X95952717Y-59632341D01*
X95784358Y-59800699D01*
X95683343Y-59834371D01*
X95615999Y-59834371D01*
D15*
%TO.C,C27*%
X120323570Y-56296429D02*
X120347379Y-56320239D01*
X120371189Y-56391667D01*
X120371189Y-56439286D01*
X120347379Y-56510715D01*
X120299760Y-56558334D01*
X120252141Y-56582143D01*
X120156903Y-56605953D01*
X120085475Y-56605953D01*
X119990237Y-56582143D01*
X119942618Y-56558334D01*
X119894999Y-56510715D01*
X119871189Y-56439286D01*
X119871189Y-56391667D01*
X119894999Y-56320239D01*
X119918808Y-56296429D01*
X119918808Y-56105953D02*
X119894999Y-56082143D01*
X119871189Y-56034524D01*
X119871189Y-55915477D01*
X119894999Y-55867858D01*
X119918808Y-55844048D01*
X119966427Y-55820239D01*
X120014046Y-55820239D01*
X120085475Y-55844048D01*
X120371189Y-56129762D01*
X120371189Y-55820239D01*
X119871189Y-55653572D02*
X119871189Y-55320239D01*
X120371189Y-55534524D01*
D12*
%TO.C,C28*%
X130488090Y-75916986D02*
X130488090Y-75984330D01*
X130420746Y-76119017D01*
X130353403Y-76186360D01*
X130218716Y-76253704D01*
X130084029Y-76253704D01*
X129983014Y-76220032D01*
X129814655Y-76119017D01*
X129713640Y-76018002D01*
X129612624Y-75849643D01*
X129578953Y-75748628D01*
X129578953Y-75613941D01*
X129646296Y-75479254D01*
X129713640Y-75411910D01*
X129848327Y-75344567D01*
X129915670Y-75344567D01*
X130185044Y-75075192D02*
X130185044Y-75007849D01*
X130218716Y-74906834D01*
X130387075Y-74738475D01*
X130488090Y-74704803D01*
X130555433Y-74704803D01*
X130656449Y-74738475D01*
X130723792Y-74805818D01*
X130791136Y-74940505D01*
X130791136Y-75748628D01*
X131228869Y-75310895D01*
X131228869Y-74502773D02*
X131127853Y-74536444D01*
X131060510Y-74536444D01*
X130959495Y-74502773D01*
X130925823Y-74469101D01*
X130892151Y-74368086D01*
X130892151Y-74300742D01*
X130925823Y-74199727D01*
X131060510Y-74065040D01*
X131161525Y-74031368D01*
X131228869Y-74031368D01*
X131329884Y-74065040D01*
X131363556Y-74098712D01*
X131397227Y-74199727D01*
X131397227Y-74267070D01*
X131363556Y-74368086D01*
X131228869Y-74502773D01*
X131195197Y-74603788D01*
X131195197Y-74671131D01*
X131228869Y-74772147D01*
X131363556Y-74906834D01*
X131464571Y-74940505D01*
X131531914Y-74940505D01*
X131632930Y-74906834D01*
X131767617Y-74772147D01*
X131801288Y-74671131D01*
X131801288Y-74603788D01*
X131767617Y-74502773D01*
X131632930Y-74368086D01*
X131531914Y-74334414D01*
X131464571Y-74334414D01*
X131363556Y-74368086D01*
%TO.C,C30*%
X122467106Y-85132031D02*
X122534450Y-85132031D01*
X122669137Y-85199375D01*
X122736480Y-85266718D01*
X122803824Y-85401405D01*
X122803824Y-85536092D01*
X122770152Y-85637107D01*
X122669137Y-85805466D01*
X122568122Y-85906481D01*
X122399763Y-86007497D01*
X122298748Y-86041168D01*
X122164061Y-86041168D01*
X122029374Y-85973825D01*
X121962030Y-85906481D01*
X121894687Y-85771794D01*
X121894687Y-85704451D01*
X121591641Y-85536092D02*
X121153908Y-85098359D01*
X121658984Y-85064688D01*
X121557969Y-84963672D01*
X121524297Y-84862657D01*
X121524297Y-84795313D01*
X121557969Y-84694298D01*
X121726328Y-84525939D01*
X121827343Y-84492268D01*
X121894687Y-84492268D01*
X121995702Y-84525939D01*
X122197732Y-84727970D01*
X122231404Y-84828985D01*
X122231404Y-84896329D01*
X120716175Y-84660626D02*
X120648832Y-84593283D01*
X120615160Y-84492268D01*
X120615160Y-84424924D01*
X120648832Y-84323909D01*
X120749847Y-84155550D01*
X120918206Y-83987191D01*
X121086564Y-83886176D01*
X121187580Y-83852504D01*
X121254923Y-83852504D01*
X121355938Y-83886176D01*
X121423282Y-83953520D01*
X121456954Y-84054535D01*
X121456954Y-84121878D01*
X121423282Y-84222894D01*
X121322267Y-84391252D01*
X121153908Y-84559611D01*
X120985549Y-84660626D01*
X120884534Y-84694298D01*
X120817190Y-84694298D01*
X120716175Y-84660626D01*
%TO.C,C31*%
X121327969Y-89487106D02*
X121327969Y-89554450D01*
X121260625Y-89689137D01*
X121193282Y-89756480D01*
X121058595Y-89823824D01*
X120923908Y-89823824D01*
X120822893Y-89790152D01*
X120654534Y-89689137D01*
X120553519Y-89588122D01*
X120452503Y-89419763D01*
X120418832Y-89318748D01*
X120418832Y-89184061D01*
X120486175Y-89049374D01*
X120553519Y-88982030D01*
X120688206Y-88914687D01*
X120755549Y-88914687D01*
X120923908Y-88611641D02*
X121361641Y-88173908D01*
X121395312Y-88678984D01*
X121496328Y-88577969D01*
X121597343Y-88544297D01*
X121664687Y-88544297D01*
X121765702Y-88577969D01*
X121934061Y-88746328D01*
X121967732Y-88847343D01*
X121967732Y-88914687D01*
X121934061Y-89015702D01*
X121732030Y-89217732D01*
X121631015Y-89251404D01*
X121563671Y-89251404D01*
X122742183Y-88207580D02*
X122338122Y-88611641D01*
X122540152Y-88409610D02*
X121833045Y-87702503D01*
X121866717Y-87870862D01*
X121866717Y-88005549D01*
X121833045Y-88106564D01*
%TO.C,C32*%
X98529132Y-77688269D02*
X98529132Y-77755613D01*
X98461788Y-77890300D01*
X98394445Y-77957643D01*
X98259758Y-78024987D01*
X98125071Y-78024987D01*
X98024056Y-77991315D01*
X97855697Y-77890300D01*
X97754682Y-77789285D01*
X97653666Y-77620926D01*
X97619995Y-77519911D01*
X97619995Y-77385224D01*
X97687338Y-77250537D01*
X97754682Y-77183193D01*
X97889369Y-77115850D01*
X97956712Y-77115850D01*
X98125071Y-76812804D02*
X98562804Y-76375071D01*
X98596475Y-76880147D01*
X98697491Y-76779132D01*
X98798506Y-76745460D01*
X98865850Y-76745460D01*
X98966865Y-76779132D01*
X99135224Y-76947491D01*
X99168895Y-77048506D01*
X99168895Y-77115850D01*
X99135224Y-77216865D01*
X98933193Y-77418895D01*
X98832178Y-77452567D01*
X98764834Y-77452567D01*
X98899521Y-76173040D02*
X98899521Y-76105697D01*
X98933193Y-76004682D01*
X99101552Y-75836323D01*
X99202567Y-75802651D01*
X99269911Y-75802651D01*
X99370926Y-75836323D01*
X99438269Y-75903666D01*
X99505613Y-76038353D01*
X99505613Y-76846475D01*
X99943346Y-76408743D01*
D15*
%TO.C,C35*%
X110008571Y-56551428D02*
X110032380Y-56575238D01*
X110056190Y-56646666D01*
X110056190Y-56694285D01*
X110032380Y-56765714D01*
X109984761Y-56813333D01*
X109937142Y-56837142D01*
X109841904Y-56860952D01*
X109770476Y-56860952D01*
X109675238Y-56837142D01*
X109627619Y-56813333D01*
X109580000Y-56765714D01*
X109556190Y-56694285D01*
X109556190Y-56646666D01*
X109580000Y-56575238D01*
X109603809Y-56551428D01*
X109556190Y-56384761D02*
X109556190Y-56075238D01*
X109746666Y-56241904D01*
X109746666Y-56170476D01*
X109770476Y-56122857D01*
X109794285Y-56099047D01*
X109841904Y-56075238D01*
X109960952Y-56075238D01*
X110008571Y-56099047D01*
X110032380Y-56122857D01*
X110056190Y-56170476D01*
X110056190Y-56313333D01*
X110032380Y-56360952D01*
X110008571Y-56384761D01*
X109556190Y-55622857D02*
X109556190Y-55860952D01*
X109794285Y-55884761D01*
X109770476Y-55860952D01*
X109746666Y-55813333D01*
X109746666Y-55694285D01*
X109770476Y-55646666D01*
X109794285Y-55622857D01*
X109841904Y-55599047D01*
X109960952Y-55599047D01*
X110008571Y-55622857D01*
X110032380Y-55646666D01*
X110056190Y-55694285D01*
X110056190Y-55813333D01*
X110032380Y-55860952D01*
X110008571Y-55884761D01*
D12*
%TO.C,J3*%
X141566666Y-132927380D02*
X141566666Y-133641666D01*
X141519047Y-133784523D01*
X141423809Y-133879761D01*
X141280952Y-133927380D01*
X141185714Y-133927380D01*
X141947619Y-132927380D02*
X142566666Y-132927380D01*
X142233333Y-133308333D01*
X142376190Y-133308333D01*
X142471428Y-133355952D01*
X142519047Y-133403571D01*
X142566666Y-133498809D01*
X142566666Y-133736904D01*
X142519047Y-133832142D01*
X142471428Y-133879761D01*
X142376190Y-133927380D01*
X142090476Y-133927380D01*
X141995238Y-133879761D01*
X141947619Y-133832142D01*
D15*
%TO.C,R4*%
X125126190Y-58443333D02*
X124888095Y-58610000D01*
X125126190Y-58729047D02*
X124626190Y-58729047D01*
X124626190Y-58538571D01*
X124650000Y-58490952D01*
X124673809Y-58467142D01*
X124721428Y-58443333D01*
X124792857Y-58443333D01*
X124840476Y-58467142D01*
X124864285Y-58490952D01*
X124888095Y-58538571D01*
X124888095Y-58729047D01*
X124792857Y-58014761D02*
X125126190Y-58014761D01*
X124602380Y-58133809D02*
X124959523Y-58252857D01*
X124959523Y-57943333D01*
%TO.C,R5*%
X120396666Y-57896190D02*
X120230000Y-57658095D01*
X120110952Y-57896190D02*
X120110952Y-57396190D01*
X120301428Y-57396190D01*
X120349047Y-57420000D01*
X120372857Y-57443809D01*
X120396666Y-57491428D01*
X120396666Y-57562857D01*
X120372857Y-57610476D01*
X120349047Y-57634285D01*
X120301428Y-57658095D01*
X120110952Y-57658095D01*
X120849047Y-57396190D02*
X120610952Y-57396190D01*
X120587142Y-57634285D01*
X120610952Y-57610476D01*
X120658571Y-57586666D01*
X120777619Y-57586666D01*
X120825238Y-57610476D01*
X120849047Y-57634285D01*
X120872857Y-57681904D01*
X120872857Y-57800952D01*
X120849047Y-57848571D01*
X120825238Y-57872380D01*
X120777619Y-57896190D01*
X120658571Y-57896190D01*
X120610952Y-57872380D01*
X120587142Y-57848571D01*
D16*
%TO.C,J5*%
X83764523Y-97153333D02*
X84671666Y-97153333D01*
X84853095Y-97213809D01*
X84974047Y-97334761D01*
X85034523Y-97516190D01*
X85034523Y-97637142D01*
X83764523Y-95943809D02*
X83764523Y-96548571D01*
X84369285Y-96609047D01*
X84308809Y-96548571D01*
X84248333Y-96427619D01*
X84248333Y-96125238D01*
X84308809Y-96004285D01*
X84369285Y-95943809D01*
X84490238Y-95883333D01*
X84792619Y-95883333D01*
X84913571Y-95943809D01*
X84974047Y-96004285D01*
X85034523Y-96125238D01*
X85034523Y-96427619D01*
X84974047Y-96548571D01*
X84913571Y-96609047D01*
D12*
%TO.C,U3*%
X137388095Y-123277380D02*
X137388095Y-124086904D01*
X137435714Y-124182142D01*
X137483333Y-124229761D01*
X137578571Y-124277380D01*
X137769047Y-124277380D01*
X137864285Y-124229761D01*
X137911904Y-124182142D01*
X137959523Y-124086904D01*
X137959523Y-123277380D01*
X138340476Y-123277380D02*
X138959523Y-123277380D01*
X138626190Y-123658333D01*
X138769047Y-123658333D01*
X138864285Y-123705952D01*
X138911904Y-123753571D01*
X138959523Y-123848809D01*
X138959523Y-124086904D01*
X138911904Y-124182142D01*
X138864285Y-124229761D01*
X138769047Y-124277380D01*
X138483333Y-124277380D01*
X138388095Y-124229761D01*
X138340476Y-124182142D01*
D15*
%TO.C,C34*%
X106103571Y-58533571D02*
X106079761Y-58557380D01*
X106008333Y-58581190D01*
X105960714Y-58581190D01*
X105889285Y-58557380D01*
X105841666Y-58509761D01*
X105817857Y-58462142D01*
X105794047Y-58366904D01*
X105794047Y-58295476D01*
X105817857Y-58200238D01*
X105841666Y-58152619D01*
X105889285Y-58105000D01*
X105960714Y-58081190D01*
X106008333Y-58081190D01*
X106079761Y-58105000D01*
X106103571Y-58128809D01*
X106270238Y-58081190D02*
X106579761Y-58081190D01*
X106413095Y-58271666D01*
X106484523Y-58271666D01*
X106532142Y-58295476D01*
X106555952Y-58319285D01*
X106579761Y-58366904D01*
X106579761Y-58485952D01*
X106555952Y-58533571D01*
X106532142Y-58557380D01*
X106484523Y-58581190D01*
X106341666Y-58581190D01*
X106294047Y-58557380D01*
X106270238Y-58533571D01*
X107008333Y-58247857D02*
X107008333Y-58581190D01*
X106889285Y-58057380D02*
X106770238Y-58414523D01*
X107079761Y-58414523D01*
%TO.C,C26*%
X115748571Y-56323928D02*
X115772380Y-56347738D01*
X115796190Y-56419166D01*
X115796190Y-56466785D01*
X115772380Y-56538214D01*
X115724761Y-56585833D01*
X115677142Y-56609642D01*
X115581904Y-56633452D01*
X115510476Y-56633452D01*
X115415238Y-56609642D01*
X115367619Y-56585833D01*
X115320000Y-56538214D01*
X115296190Y-56466785D01*
X115296190Y-56419166D01*
X115320000Y-56347738D01*
X115343809Y-56323928D01*
X115343809Y-56133452D02*
X115320000Y-56109642D01*
X115296190Y-56062023D01*
X115296190Y-55942976D01*
X115320000Y-55895357D01*
X115343809Y-55871547D01*
X115391428Y-55847738D01*
X115439047Y-55847738D01*
X115510476Y-55871547D01*
X115796190Y-56157261D01*
X115796190Y-55847738D01*
X115296190Y-55419166D02*
X115296190Y-55514404D01*
X115320000Y-55562023D01*
X115343809Y-55585833D01*
X115415238Y-55633452D01*
X115510476Y-55657261D01*
X115700952Y-55657261D01*
X115748571Y-55633452D01*
X115772380Y-55609642D01*
X115796190Y-55562023D01*
X115796190Y-55466785D01*
X115772380Y-55419166D01*
X115748571Y-55395357D01*
X115700952Y-55371547D01*
X115581904Y-55371547D01*
X115534285Y-55395357D01*
X115510476Y-55419166D01*
X115486666Y-55466785D01*
X115486666Y-55562023D01*
X115510476Y-55609642D01*
X115534285Y-55633452D01*
X115581904Y-55657261D01*
D12*
%TO.C,C29*%
X130837141Y-71967142D02*
X130789522Y-72014761D01*
X130646665Y-72062380D01*
X130551427Y-72062380D01*
X130408570Y-72014761D01*
X130313332Y-71919523D01*
X130265713Y-71824285D01*
X130218094Y-71633809D01*
X130218094Y-71490952D01*
X130265713Y-71300476D01*
X130313332Y-71205238D01*
X130408570Y-71110000D01*
X130551427Y-71062380D01*
X130646665Y-71062380D01*
X130789522Y-71110000D01*
X130837141Y-71157619D01*
X131218094Y-71157619D02*
X131265713Y-71110000D01*
X131360951Y-71062380D01*
X131599046Y-71062380D01*
X131694284Y-71110000D01*
X131741903Y-71157619D01*
X131789522Y-71252857D01*
X131789522Y-71348095D01*
X131741903Y-71490952D01*
X131170475Y-72062380D01*
X131789522Y-72062380D01*
X132265713Y-72062380D02*
X132456189Y-72062380D01*
X132551427Y-72014761D01*
X132599046Y-71967142D01*
X132694284Y-71824285D01*
X132741903Y-71633809D01*
X132741903Y-71252857D01*
X132694284Y-71157619D01*
X132646665Y-71110000D01*
X132551427Y-71062380D01*
X132360951Y-71062380D01*
X132265713Y-71110000D01*
X132218094Y-71157619D01*
X132170475Y-71252857D01*
X132170475Y-71490952D01*
X132218094Y-71586190D01*
X132265713Y-71633809D01*
X132360951Y-71681428D01*
X132551427Y-71681428D01*
X132646665Y-71633809D01*
X132694284Y-71586190D01*
X132741903Y-71490952D01*
%TO.C,U5*%
X129918095Y-61342380D02*
X129918095Y-62151904D01*
X129965714Y-62247142D01*
X130013333Y-62294761D01*
X130108571Y-62342380D01*
X130299047Y-62342380D01*
X130394285Y-62294761D01*
X130441904Y-62247142D01*
X130489523Y-62151904D01*
X130489523Y-61342380D01*
X131441904Y-61342380D02*
X130965714Y-61342380D01*
X130918095Y-61818571D01*
X130965714Y-61770952D01*
X131060952Y-61723333D01*
X131299047Y-61723333D01*
X131394285Y-61770952D01*
X131441904Y-61818571D01*
X131489523Y-61913809D01*
X131489523Y-62151904D01*
X131441904Y-62247142D01*
X131394285Y-62294761D01*
X131299047Y-62342380D01*
X131060952Y-62342380D01*
X130965714Y-62294761D01*
X130918095Y-62247142D01*
D15*
%TO.C,C2*%
X125768571Y-88383333D02*
X125792380Y-88407142D01*
X125816190Y-88478571D01*
X125816190Y-88526190D01*
X125792380Y-88597619D01*
X125744761Y-88645238D01*
X125697142Y-88669047D01*
X125601904Y-88692857D01*
X125530476Y-88692857D01*
X125435238Y-88669047D01*
X125387619Y-88645238D01*
X125340000Y-88597619D01*
X125316190Y-88526190D01*
X125316190Y-88478571D01*
X125340000Y-88407142D01*
X125363809Y-88383333D01*
X125363809Y-88192857D02*
X125340000Y-88169047D01*
X125316190Y-88121428D01*
X125316190Y-88002380D01*
X125340000Y-87954761D01*
X125363809Y-87930952D01*
X125411428Y-87907142D01*
X125459047Y-87907142D01*
X125530476Y-87930952D01*
X125816190Y-88216666D01*
X125816190Y-87907142D01*
%TO.C,C3*%
X140398571Y-88183333D02*
X140422380Y-88207142D01*
X140446190Y-88278571D01*
X140446190Y-88326190D01*
X140422380Y-88397619D01*
X140374761Y-88445238D01*
X140327142Y-88469047D01*
X140231904Y-88492857D01*
X140160476Y-88492857D01*
X140065238Y-88469047D01*
X140017619Y-88445238D01*
X139970000Y-88397619D01*
X139946190Y-88326190D01*
X139946190Y-88278571D01*
X139970000Y-88207142D01*
X139993809Y-88183333D01*
X139946190Y-88016666D02*
X139946190Y-87707142D01*
X140136666Y-87873809D01*
X140136666Y-87802380D01*
X140160476Y-87754761D01*
X140184285Y-87730952D01*
X140231904Y-87707142D01*
X140350952Y-87707142D01*
X140398571Y-87730952D01*
X140422380Y-87754761D01*
X140446190Y-87802380D01*
X140446190Y-87945238D01*
X140422380Y-87992857D01*
X140398571Y-88016666D01*
%TO.C,C12*%
X151958571Y-105268571D02*
X151934761Y-105292380D01*
X151863333Y-105316190D01*
X151815714Y-105316190D01*
X151744285Y-105292380D01*
X151696666Y-105244761D01*
X151672857Y-105197142D01*
X151649047Y-105101904D01*
X151649047Y-105030476D01*
X151672857Y-104935238D01*
X151696666Y-104887619D01*
X151744285Y-104840000D01*
X151815714Y-104816190D01*
X151863333Y-104816190D01*
X151934761Y-104840000D01*
X151958571Y-104863809D01*
X152434761Y-105316190D02*
X152149047Y-105316190D01*
X152291904Y-105316190D02*
X152291904Y-104816190D01*
X152244285Y-104887619D01*
X152196666Y-104935238D01*
X152149047Y-104959047D01*
X152625238Y-104863809D02*
X152649047Y-104840000D01*
X152696666Y-104816190D01*
X152815714Y-104816190D01*
X152863333Y-104840000D01*
X152887142Y-104863809D01*
X152910952Y-104911428D01*
X152910952Y-104959047D01*
X152887142Y-105030476D01*
X152601428Y-105316190D01*
X152910952Y-105316190D01*
%TO.C,C15*%
X153798571Y-87001428D02*
X153822380Y-87025238D01*
X153846190Y-87096666D01*
X153846190Y-87144285D01*
X153822380Y-87215714D01*
X153774761Y-87263333D01*
X153727142Y-87287142D01*
X153631904Y-87310952D01*
X153560476Y-87310952D01*
X153465238Y-87287142D01*
X153417619Y-87263333D01*
X153370000Y-87215714D01*
X153346190Y-87144285D01*
X153346190Y-87096666D01*
X153370000Y-87025238D01*
X153393809Y-87001428D01*
X153846190Y-86525238D02*
X153846190Y-86810952D01*
X153846190Y-86668095D02*
X153346190Y-86668095D01*
X153417619Y-86715714D01*
X153465238Y-86763333D01*
X153489047Y-86810952D01*
X153346190Y-86072857D02*
X153346190Y-86310952D01*
X153584285Y-86334761D01*
X153560476Y-86310952D01*
X153536666Y-86263333D01*
X153536666Y-86144285D01*
X153560476Y-86096666D01*
X153584285Y-86072857D01*
X153631904Y-86049047D01*
X153750952Y-86049047D01*
X153798571Y-86072857D01*
X153822380Y-86096666D01*
X153846190Y-86144285D01*
X153846190Y-86263333D01*
X153822380Y-86310952D01*
X153798571Y-86334761D01*
%TO.C,C17*%
X153868571Y-88921428D02*
X153892380Y-88945238D01*
X153916190Y-89016666D01*
X153916190Y-89064285D01*
X153892380Y-89135714D01*
X153844761Y-89183333D01*
X153797142Y-89207142D01*
X153701904Y-89230952D01*
X153630476Y-89230952D01*
X153535238Y-89207142D01*
X153487619Y-89183333D01*
X153440000Y-89135714D01*
X153416190Y-89064285D01*
X153416190Y-89016666D01*
X153440000Y-88945238D01*
X153463809Y-88921428D01*
X153916190Y-88445238D02*
X153916190Y-88730952D01*
X153916190Y-88588095D02*
X153416190Y-88588095D01*
X153487619Y-88635714D01*
X153535238Y-88683333D01*
X153559047Y-88730952D01*
X153416190Y-88278571D02*
X153416190Y-87945238D01*
X153916190Y-88159523D01*
D12*
%TO.C,U1*%
X133428095Y-82322380D02*
X133428095Y-83131904D01*
X133475714Y-83227142D01*
X133523333Y-83274761D01*
X133618571Y-83322380D01*
X133809047Y-83322380D01*
X133904285Y-83274761D01*
X133951904Y-83227142D01*
X133999523Y-83131904D01*
X133999523Y-82322380D01*
X134999523Y-83322380D02*
X134428095Y-83322380D01*
X134713809Y-83322380D02*
X134713809Y-82322380D01*
X134618571Y-82465238D01*
X134523333Y-82560476D01*
X134428095Y-82608095D01*
D15*
%TO.C,L1*%
X131996666Y-92846190D02*
X131758571Y-92846190D01*
X131758571Y-92346190D01*
X132425238Y-92846190D02*
X132139523Y-92846190D01*
X132282380Y-92846190D02*
X132282380Y-92346190D01*
X132234761Y-92417619D01*
X132187142Y-92465238D01*
X132139523Y-92489047D01*
%TO.C,C7*%
X132328571Y-94373333D02*
X132352380Y-94397142D01*
X132376190Y-94468571D01*
X132376190Y-94516190D01*
X132352380Y-94587619D01*
X132304761Y-94635238D01*
X132257142Y-94659047D01*
X132161904Y-94682857D01*
X132090476Y-94682857D01*
X131995238Y-94659047D01*
X131947619Y-94635238D01*
X131900000Y-94587619D01*
X131876190Y-94516190D01*
X131876190Y-94468571D01*
X131900000Y-94397142D01*
X131923809Y-94373333D01*
X131876190Y-94206666D02*
X131876190Y-93873333D01*
X132376190Y-94087619D01*
%TO.C,C8*%
X138578571Y-96343333D02*
X138602380Y-96367142D01*
X138626190Y-96438571D01*
X138626190Y-96486190D01*
X138602380Y-96557619D01*
X138554761Y-96605238D01*
X138507142Y-96629047D01*
X138411904Y-96652857D01*
X138340476Y-96652857D01*
X138245238Y-96629047D01*
X138197619Y-96605238D01*
X138150000Y-96557619D01*
X138126190Y-96486190D01*
X138126190Y-96438571D01*
X138150000Y-96367142D01*
X138173809Y-96343333D01*
X138340476Y-96057619D02*
X138316666Y-96105238D01*
X138292857Y-96129047D01*
X138245238Y-96152857D01*
X138221428Y-96152857D01*
X138173809Y-96129047D01*
X138150000Y-96105238D01*
X138126190Y-96057619D01*
X138126190Y-95962380D01*
X138150000Y-95914761D01*
X138173809Y-95890952D01*
X138221428Y-95867142D01*
X138245238Y-95867142D01*
X138292857Y-95890952D01*
X138316666Y-95914761D01*
X138340476Y-95962380D01*
X138340476Y-96057619D01*
X138364285Y-96105238D01*
X138388095Y-96129047D01*
X138435714Y-96152857D01*
X138530952Y-96152857D01*
X138578571Y-96129047D01*
X138602380Y-96105238D01*
X138626190Y-96057619D01*
X138626190Y-95962380D01*
X138602380Y-95914761D01*
X138578571Y-95890952D01*
X138530952Y-95867142D01*
X138435714Y-95867142D01*
X138388095Y-95890952D01*
X138364285Y-95914761D01*
X138340476Y-95962380D01*
%TO.C,C6*%
X140158571Y-92653333D02*
X140182380Y-92677142D01*
X140206190Y-92748571D01*
X140206190Y-92796190D01*
X140182380Y-92867619D01*
X140134761Y-92915238D01*
X140087142Y-92939047D01*
X139991904Y-92962857D01*
X139920476Y-92962857D01*
X139825238Y-92939047D01*
X139777619Y-92915238D01*
X139730000Y-92867619D01*
X139706190Y-92796190D01*
X139706190Y-92748571D01*
X139730000Y-92677142D01*
X139753809Y-92653333D01*
X139706190Y-92224761D02*
X139706190Y-92320000D01*
X139730000Y-92367619D01*
X139753809Y-92391428D01*
X139825238Y-92439047D01*
X139920476Y-92462857D01*
X140110952Y-92462857D01*
X140158571Y-92439047D01*
X140182380Y-92415238D01*
X140206190Y-92367619D01*
X140206190Y-92272380D01*
X140182380Y-92224761D01*
X140158571Y-92200952D01*
X140110952Y-92177142D01*
X139991904Y-92177142D01*
X139944285Y-92200952D01*
X139920476Y-92224761D01*
X139896666Y-92272380D01*
X139896666Y-92367619D01*
X139920476Y-92415238D01*
X139944285Y-92439047D01*
X139991904Y-92462857D01*
D12*
%TO.C,Y1*%
X129476174Y-87151516D02*
X129952690Y-87151516D01*
X128952005Y-87485078D02*
X129476174Y-87151516D01*
X128952005Y-86817955D01*
X129952690Y-85960225D02*
X129952690Y-86532045D01*
X129952690Y-86246135D02*
X128952005Y-86246135D01*
X129094960Y-86341438D01*
X129190264Y-86436741D01*
X129237915Y-86532045D01*
D15*
%TO.C,L2*%
X138436190Y-94383333D02*
X138436190Y-94621428D01*
X137936190Y-94621428D01*
X137983809Y-94240476D02*
X137960000Y-94216666D01*
X137936190Y-94169047D01*
X137936190Y-94050000D01*
X137960000Y-94002380D01*
X137983809Y-93978571D01*
X138031428Y-93954761D01*
X138079047Y-93954761D01*
X138150476Y-93978571D01*
X138436190Y-94264285D01*
X138436190Y-93954761D01*
D12*
%TO.C,J4*%
X132352380Y-56708333D02*
X133066666Y-56708333D01*
X133209523Y-56755952D01*
X133304761Y-56851190D01*
X133352380Y-56994047D01*
X133352380Y-57089285D01*
X132685714Y-55803571D02*
X133352380Y-55803571D01*
X132304761Y-56041666D02*
X133019047Y-56279761D01*
X133019047Y-55660714D01*
D15*
%TO.C,C18*%
X141038571Y-85231428D02*
X141062380Y-85255238D01*
X141086190Y-85326666D01*
X141086190Y-85374285D01*
X141062380Y-85445714D01*
X141014761Y-85493333D01*
X140967142Y-85517142D01*
X140871904Y-85540952D01*
X140800476Y-85540952D01*
X140705238Y-85517142D01*
X140657619Y-85493333D01*
X140610000Y-85445714D01*
X140586190Y-85374285D01*
X140586190Y-85326666D01*
X140610000Y-85255238D01*
X140633809Y-85231428D01*
X141086190Y-84755238D02*
X141086190Y-85040952D01*
X141086190Y-84898095D02*
X140586190Y-84898095D01*
X140657619Y-84945714D01*
X140705238Y-84993333D01*
X140729047Y-85040952D01*
X140800476Y-84469523D02*
X140776666Y-84517142D01*
X140752857Y-84540952D01*
X140705238Y-84564761D01*
X140681428Y-84564761D01*
X140633809Y-84540952D01*
X140610000Y-84517142D01*
X140586190Y-84469523D01*
X140586190Y-84374285D01*
X140610000Y-84326666D01*
X140633809Y-84302857D01*
X140681428Y-84279047D01*
X140705238Y-84279047D01*
X140752857Y-84302857D01*
X140776666Y-84326666D01*
X140800476Y-84374285D01*
X140800476Y-84469523D01*
X140824285Y-84517142D01*
X140848095Y-84540952D01*
X140895714Y-84564761D01*
X140990952Y-84564761D01*
X141038571Y-84540952D01*
X141062380Y-84517142D01*
X141086190Y-84469523D01*
X141086190Y-84374285D01*
X141062380Y-84326666D01*
X141038571Y-84302857D01*
X140990952Y-84279047D01*
X140895714Y-84279047D01*
X140848095Y-84302857D01*
X140824285Y-84326666D01*
X140800476Y-84374285D01*
%TO.C,C4*%
X125828571Y-85003333D02*
X125852380Y-85027142D01*
X125876190Y-85098571D01*
X125876190Y-85146190D01*
X125852380Y-85217619D01*
X125804761Y-85265238D01*
X125757142Y-85289047D01*
X125661904Y-85312857D01*
X125590476Y-85312857D01*
X125495238Y-85289047D01*
X125447619Y-85265238D01*
X125400000Y-85217619D01*
X125376190Y-85146190D01*
X125376190Y-85098571D01*
X125400000Y-85027142D01*
X125423809Y-85003333D01*
X125542857Y-84574761D02*
X125876190Y-84574761D01*
X125352380Y-84693809D02*
X125709523Y-84812857D01*
X125709523Y-84503333D01*
%TO.C,C11*%
X145578571Y-104851428D02*
X145602380Y-104875238D01*
X145626190Y-104946666D01*
X145626190Y-104994285D01*
X145602380Y-105065714D01*
X145554761Y-105113333D01*
X145507142Y-105137142D01*
X145411904Y-105160952D01*
X145340476Y-105160952D01*
X145245238Y-105137142D01*
X145197619Y-105113333D01*
X145150000Y-105065714D01*
X145126190Y-104994285D01*
X145126190Y-104946666D01*
X145150000Y-104875238D01*
X145173809Y-104851428D01*
X145626190Y-104375238D02*
X145626190Y-104660952D01*
X145626190Y-104518095D02*
X145126190Y-104518095D01*
X145197619Y-104565714D01*
X145245238Y-104613333D01*
X145269047Y-104660952D01*
X145626190Y-103899047D02*
X145626190Y-104184761D01*
X145626190Y-104041904D02*
X145126190Y-104041904D01*
X145197619Y-104089523D01*
X145245238Y-104137142D01*
X145269047Y-104184761D01*
%TO.C,L9*%
X149316190Y-100023333D02*
X149316190Y-100261428D01*
X148816190Y-100261428D01*
X149316190Y-99832857D02*
X149316190Y-99737619D01*
X149292380Y-99690000D01*
X149268571Y-99666190D01*
X149197142Y-99618571D01*
X149101904Y-99594761D01*
X148911428Y-99594761D01*
X148863809Y-99618571D01*
X148840000Y-99642380D01*
X148816190Y-99690000D01*
X148816190Y-99785238D01*
X148840000Y-99832857D01*
X148863809Y-99856666D01*
X148911428Y-99880476D01*
X149030476Y-99880476D01*
X149078095Y-99856666D01*
X149101904Y-99832857D01*
X149125714Y-99785238D01*
X149125714Y-99690000D01*
X149101904Y-99642380D01*
X149078095Y-99618571D01*
X149030476Y-99594761D01*
%TO.C,L4*%
X145636190Y-105923333D02*
X145636190Y-106161428D01*
X145136190Y-106161428D01*
X145302857Y-105542380D02*
X145636190Y-105542380D01*
X145112380Y-105661428D02*
X145469523Y-105780476D01*
X145469523Y-105470952D01*
%TO.C,C21*%
X151028571Y-99748571D02*
X151004761Y-99772380D01*
X150933333Y-99796190D01*
X150885714Y-99796190D01*
X150814285Y-99772380D01*
X150766666Y-99724761D01*
X150742857Y-99677142D01*
X150719047Y-99581904D01*
X150719047Y-99510476D01*
X150742857Y-99415238D01*
X150766666Y-99367619D01*
X150814285Y-99320000D01*
X150885714Y-99296190D01*
X150933333Y-99296190D01*
X151004761Y-99320000D01*
X151028571Y-99343809D01*
X151219047Y-99343809D02*
X151242857Y-99320000D01*
X151290476Y-99296190D01*
X151409523Y-99296190D01*
X151457142Y-99320000D01*
X151480952Y-99343809D01*
X151504761Y-99391428D01*
X151504761Y-99439047D01*
X151480952Y-99510476D01*
X151195238Y-99796190D01*
X151504761Y-99796190D01*
X151980952Y-99796190D02*
X151695238Y-99796190D01*
X151838095Y-99796190D02*
X151838095Y-99296190D01*
X151790476Y-99367619D01*
X151742857Y-99415238D01*
X151695238Y-99439047D01*
%TO.C,L11*%
X150956190Y-103821428D02*
X150956190Y-104059523D01*
X150456190Y-104059523D01*
X150956190Y-103392857D02*
X150956190Y-103678571D01*
X150956190Y-103535714D02*
X150456190Y-103535714D01*
X150527619Y-103583333D01*
X150575238Y-103630952D01*
X150599047Y-103678571D01*
X150956190Y-102916666D02*
X150956190Y-103202380D01*
X150956190Y-103059523D02*
X150456190Y-103059523D01*
X150527619Y-103107142D01*
X150575238Y-103154761D01*
X150599047Y-103202380D01*
%TO.C,C22*%
X148128571Y-103398571D02*
X148104761Y-103422380D01*
X148033333Y-103446190D01*
X147985714Y-103446190D01*
X147914285Y-103422380D01*
X147866666Y-103374761D01*
X147842857Y-103327142D01*
X147819047Y-103231904D01*
X147819047Y-103160476D01*
X147842857Y-103065238D01*
X147866666Y-103017619D01*
X147914285Y-102970000D01*
X147985714Y-102946190D01*
X148033333Y-102946190D01*
X148104761Y-102970000D01*
X148128571Y-102993809D01*
X148319047Y-102993809D02*
X148342857Y-102970000D01*
X148390476Y-102946190D01*
X148509523Y-102946190D01*
X148557142Y-102970000D01*
X148580952Y-102993809D01*
X148604761Y-103041428D01*
X148604761Y-103089047D01*
X148580952Y-103160476D01*
X148295238Y-103446190D01*
X148604761Y-103446190D01*
X148795238Y-102993809D02*
X148819047Y-102970000D01*
X148866666Y-102946190D01*
X148985714Y-102946190D01*
X149033333Y-102970000D01*
X149057142Y-102993809D01*
X149080952Y-103041428D01*
X149080952Y-103089047D01*
X149057142Y-103160476D01*
X148771428Y-103446190D01*
X149080952Y-103446190D01*
%TO.C,R1*%
X152416190Y-109993333D02*
X152178095Y-110160000D01*
X152416190Y-110279047D02*
X151916190Y-110279047D01*
X151916190Y-110088571D01*
X151940000Y-110040952D01*
X151963809Y-110017142D01*
X152011428Y-109993333D01*
X152082857Y-109993333D01*
X152130476Y-110017142D01*
X152154285Y-110040952D01*
X152178095Y-110088571D01*
X152178095Y-110279047D01*
X152416190Y-109517142D02*
X152416190Y-109802857D01*
X152416190Y-109660000D02*
X151916190Y-109660000D01*
X151987619Y-109707619D01*
X152035238Y-109755238D01*
X152059047Y-109802857D01*
%TO.C,U2*%
X148149047Y-106266190D02*
X148149047Y-106670952D01*
X148172857Y-106718571D01*
X148196666Y-106742380D01*
X148244285Y-106766190D01*
X148339523Y-106766190D01*
X148387142Y-106742380D01*
X148410952Y-106718571D01*
X148434761Y-106670952D01*
X148434761Y-106266190D01*
X148649047Y-106313809D02*
X148672857Y-106290000D01*
X148720476Y-106266190D01*
X148839523Y-106266190D01*
X148887142Y-106290000D01*
X148910952Y-106313809D01*
X148934761Y-106361428D01*
X148934761Y-106409047D01*
X148910952Y-106480476D01*
X148625238Y-106766190D01*
X148934761Y-106766190D01*
D17*
%TO.C,C9*%
X132278571Y-108493333D02*
X132302380Y-108517142D01*
X132326190Y-108588571D01*
X132326190Y-108636190D01*
X132302380Y-108707619D01*
X132254761Y-108755238D01*
X132207142Y-108779047D01*
X132111904Y-108802857D01*
X132040476Y-108802857D01*
X131945238Y-108779047D01*
X131897619Y-108755238D01*
X131850000Y-108707619D01*
X131826190Y-108636190D01*
X131826190Y-108588571D01*
X131850000Y-108517142D01*
X131873809Y-108493333D01*
X132326190Y-108255238D02*
X132326190Y-108160000D01*
X132302380Y-108112380D01*
X132278571Y-108088571D01*
X132207142Y-108040952D01*
X132111904Y-108017142D01*
X131921428Y-108017142D01*
X131873809Y-108040952D01*
X131850000Y-108064761D01*
X131826190Y-108112380D01*
X131826190Y-108207619D01*
X131850000Y-108255238D01*
X131873809Y-108279047D01*
X131921428Y-108302857D01*
X132040476Y-108302857D01*
X132088095Y-108279047D01*
X132111904Y-108255238D01*
X132135714Y-108207619D01*
X132135714Y-108112380D01*
X132111904Y-108064761D01*
X132088095Y-108040952D01*
X132040476Y-108017142D01*
%TO.C,L3*%
X133116190Y-109933333D02*
X133116190Y-110171428D01*
X132616190Y-110171428D01*
X132616190Y-109814285D02*
X132616190Y-109504761D01*
X132806666Y-109671428D01*
X132806666Y-109600000D01*
X132830476Y-109552380D01*
X132854285Y-109528571D01*
X132901904Y-109504761D01*
X133020952Y-109504761D01*
X133068571Y-109528571D01*
X133092380Y-109552380D01*
X133116190Y-109600000D01*
X133116190Y-109742857D01*
X133092380Y-109790476D01*
X133068571Y-109814285D01*
%TO.C,C10*%
X135938571Y-109601428D02*
X135962380Y-109625238D01*
X135986190Y-109696666D01*
X135986190Y-109744285D01*
X135962380Y-109815714D01*
X135914761Y-109863333D01*
X135867142Y-109887142D01*
X135771904Y-109910952D01*
X135700476Y-109910952D01*
X135605238Y-109887142D01*
X135557619Y-109863333D01*
X135510000Y-109815714D01*
X135486190Y-109744285D01*
X135486190Y-109696666D01*
X135510000Y-109625238D01*
X135533809Y-109601428D01*
X135986190Y-109125238D02*
X135986190Y-109410952D01*
X135986190Y-109268095D02*
X135486190Y-109268095D01*
X135557619Y-109315714D01*
X135605238Y-109363333D01*
X135629047Y-109410952D01*
X135486190Y-108815714D02*
X135486190Y-108768095D01*
X135510000Y-108720476D01*
X135533809Y-108696666D01*
X135581428Y-108672857D01*
X135676666Y-108649047D01*
X135795714Y-108649047D01*
X135890952Y-108672857D01*
X135938571Y-108696666D01*
X135962380Y-108720476D01*
X135986190Y-108768095D01*
X135986190Y-108815714D01*
X135962380Y-108863333D01*
X135938571Y-108887142D01*
X135890952Y-108910952D01*
X135795714Y-108934761D01*
X135676666Y-108934761D01*
X135581428Y-108910952D01*
X135533809Y-108887142D01*
X135510000Y-108863333D01*
X135486190Y-108815714D01*
D15*
%TO.C,L8*%
X145086666Y-95626190D02*
X144848571Y-95626190D01*
X144848571Y-95126190D01*
X145324761Y-95340476D02*
X145277142Y-95316666D01*
X145253333Y-95292857D01*
X145229523Y-95245238D01*
X145229523Y-95221428D01*
X145253333Y-95173809D01*
X145277142Y-95150000D01*
X145324761Y-95126190D01*
X145420000Y-95126190D01*
X145467619Y-95150000D01*
X145491428Y-95173809D01*
X145515238Y-95221428D01*
X145515238Y-95245238D01*
X145491428Y-95292857D01*
X145467619Y-95316666D01*
X145420000Y-95340476D01*
X145324761Y-95340476D01*
X145277142Y-95364285D01*
X145253333Y-95388095D01*
X145229523Y-95435714D01*
X145229523Y-95530952D01*
X145253333Y-95578571D01*
X145277142Y-95602380D01*
X145324761Y-95626190D01*
X145420000Y-95626190D01*
X145467619Y-95602380D01*
X145491428Y-95578571D01*
X145515238Y-95530952D01*
X145515238Y-95435714D01*
X145491428Y-95388095D01*
X145467619Y-95364285D01*
X145420000Y-95340476D01*
%TO.C,L6*%
X151256666Y-91886190D02*
X151018571Y-91886190D01*
X151018571Y-91386190D01*
X151637619Y-91386190D02*
X151542380Y-91386190D01*
X151494761Y-91410000D01*
X151470952Y-91433809D01*
X151423333Y-91505238D01*
X151399523Y-91600476D01*
X151399523Y-91790952D01*
X151423333Y-91838571D01*
X151447142Y-91862380D01*
X151494761Y-91886190D01*
X151590000Y-91886190D01*
X151637619Y-91862380D01*
X151661428Y-91838571D01*
X151685238Y-91790952D01*
X151685238Y-91671904D01*
X151661428Y-91624285D01*
X151637619Y-91600476D01*
X151590000Y-91576666D01*
X151494761Y-91576666D01*
X151447142Y-91600476D01*
X151423333Y-91624285D01*
X151399523Y-91671904D01*
%TO.C,C20*%
X144468571Y-93301428D02*
X144492380Y-93325238D01*
X144516190Y-93396666D01*
X144516190Y-93444285D01*
X144492380Y-93515714D01*
X144444761Y-93563333D01*
X144397142Y-93587142D01*
X144301904Y-93610952D01*
X144230476Y-93610952D01*
X144135238Y-93587142D01*
X144087619Y-93563333D01*
X144040000Y-93515714D01*
X144016190Y-93444285D01*
X144016190Y-93396666D01*
X144040000Y-93325238D01*
X144063809Y-93301428D01*
X144063809Y-93110952D02*
X144040000Y-93087142D01*
X144016190Y-93039523D01*
X144016190Y-92920476D01*
X144040000Y-92872857D01*
X144063809Y-92849047D01*
X144111428Y-92825238D01*
X144159047Y-92825238D01*
X144230476Y-92849047D01*
X144516190Y-93134761D01*
X144516190Y-92825238D01*
X144016190Y-92515714D02*
X144016190Y-92468095D01*
X144040000Y-92420476D01*
X144063809Y-92396666D01*
X144111428Y-92372857D01*
X144206666Y-92349047D01*
X144325714Y-92349047D01*
X144420952Y-92372857D01*
X144468571Y-92396666D01*
X144492380Y-92420476D01*
X144516190Y-92468095D01*
X144516190Y-92515714D01*
X144492380Y-92563333D01*
X144468571Y-92587142D01*
X144420952Y-92610952D01*
X144325714Y-92634761D01*
X144206666Y-92634761D01*
X144111428Y-92610952D01*
X144063809Y-92587142D01*
X144040000Y-92563333D01*
X144016190Y-92515714D01*
%TO.C,L7*%
X151126190Y-94953333D02*
X151126190Y-95191428D01*
X150626190Y-95191428D01*
X150626190Y-94834285D02*
X150626190Y-94500952D01*
X151126190Y-94715238D01*
D12*
%TO.C,Y2*%
X144776174Y-87051516D02*
X145252690Y-87051516D01*
X144252005Y-87385078D02*
X144776174Y-87051516D01*
X144252005Y-86717955D01*
X144347309Y-86432045D02*
X144299657Y-86384393D01*
X144252005Y-86289090D01*
X144252005Y-86050831D01*
X144299657Y-85955528D01*
X144347309Y-85907876D01*
X144442612Y-85860225D01*
X144537915Y-85860225D01*
X144680870Y-85907876D01*
X145252690Y-86479696D01*
X145252690Y-85860225D01*
%TO.C,U6*%
X148658095Y-82422380D02*
X148658095Y-83231904D01*
X148705714Y-83327142D01*
X148753333Y-83374761D01*
X148848571Y-83422380D01*
X149039047Y-83422380D01*
X149134285Y-83374761D01*
X149181904Y-83327142D01*
X149229523Y-83231904D01*
X149229523Y-82422380D01*
X150134285Y-82422380D02*
X149943809Y-82422380D01*
X149848571Y-82470000D01*
X149800952Y-82517619D01*
X149705714Y-82660476D01*
X149658095Y-82850952D01*
X149658095Y-83231904D01*
X149705714Y-83327142D01*
X149753333Y-83374761D01*
X149848571Y-83422380D01*
X150039047Y-83422380D01*
X150134285Y-83374761D01*
X150181904Y-83327142D01*
X150229523Y-83231904D01*
X150229523Y-82993809D01*
X150181904Y-82898571D01*
X150134285Y-82850952D01*
X150039047Y-82803333D01*
X149848571Y-82803333D01*
X149753333Y-82850952D01*
X149705714Y-82898571D01*
X149658095Y-82993809D01*
D15*
%TO.C,C16*%
X141038571Y-88621428D02*
X141062380Y-88645238D01*
X141086190Y-88716666D01*
X141086190Y-88764285D01*
X141062380Y-88835714D01*
X141014761Y-88883333D01*
X140967142Y-88907142D01*
X140871904Y-88930952D01*
X140800476Y-88930952D01*
X140705238Y-88907142D01*
X140657619Y-88883333D01*
X140610000Y-88835714D01*
X140586190Y-88764285D01*
X140586190Y-88716666D01*
X140610000Y-88645238D01*
X140633809Y-88621428D01*
X141086190Y-88145238D02*
X141086190Y-88430952D01*
X141086190Y-88288095D02*
X140586190Y-88288095D01*
X140657619Y-88335714D01*
X140705238Y-88383333D01*
X140729047Y-88430952D01*
X140586190Y-87716666D02*
X140586190Y-87811904D01*
X140610000Y-87859523D01*
X140633809Y-87883333D01*
X140705238Y-87930952D01*
X140800476Y-87954761D01*
X140990952Y-87954761D01*
X141038571Y-87930952D01*
X141062380Y-87907142D01*
X141086190Y-87859523D01*
X141086190Y-87764285D01*
X141062380Y-87716666D01*
X141038571Y-87692857D01*
X140990952Y-87669047D01*
X140871904Y-87669047D01*
X140824285Y-87692857D01*
X140800476Y-87716666D01*
X140776666Y-87764285D01*
X140776666Y-87859523D01*
X140800476Y-87907142D01*
X140824285Y-87930952D01*
X140871904Y-87954761D01*
D12*
%TO.C,D4*%
X98211904Y-102867380D02*
X98211904Y-101867380D01*
X98450000Y-101867380D01*
X98592857Y-101915000D01*
X98688095Y-102010238D01*
X98735714Y-102105476D01*
X98783333Y-102295952D01*
X98783333Y-102438809D01*
X98735714Y-102629285D01*
X98688095Y-102724523D01*
X98592857Y-102819761D01*
X98450000Y-102867380D01*
X98211904Y-102867380D01*
X99640476Y-102200714D02*
X99640476Y-102867380D01*
X99402380Y-101819761D02*
X99164285Y-102534047D01*
X99783333Y-102534047D01*
%TO.C,D6*%
X98211904Y-108852380D02*
X98211904Y-107852380D01*
X98450000Y-107852380D01*
X98592857Y-107900000D01*
X98688095Y-107995238D01*
X98735714Y-108090476D01*
X98783333Y-108280952D01*
X98783333Y-108423809D01*
X98735714Y-108614285D01*
X98688095Y-108709523D01*
X98592857Y-108804761D01*
X98450000Y-108852380D01*
X98211904Y-108852380D01*
X99640476Y-107852380D02*
X99450000Y-107852380D01*
X99354761Y-107900000D01*
X99307142Y-107947619D01*
X99211904Y-108090476D01*
X99164285Y-108280952D01*
X99164285Y-108661904D01*
X99211904Y-108757142D01*
X99259523Y-108804761D01*
X99354761Y-108852380D01*
X99545238Y-108852380D01*
X99640476Y-108804761D01*
X99688095Y-108757142D01*
X99735714Y-108661904D01*
X99735714Y-108423809D01*
X99688095Y-108328571D01*
X99640476Y-108280952D01*
X99545238Y-108233333D01*
X99354761Y-108233333D01*
X99259523Y-108280952D01*
X99211904Y-108328571D01*
X99164285Y-108423809D01*
%TO.C,R6*%
X102128333Y-108852380D02*
X101795000Y-108376190D01*
X101556904Y-108852380D02*
X101556904Y-107852380D01*
X101937857Y-107852380D01*
X102033095Y-107900000D01*
X102080714Y-107947619D01*
X102128333Y-108042857D01*
X102128333Y-108185714D01*
X102080714Y-108280952D01*
X102033095Y-108328571D01*
X101937857Y-108376190D01*
X101556904Y-108376190D01*
X102985476Y-107852380D02*
X102795000Y-107852380D01*
X102699761Y-107900000D01*
X102652142Y-107947619D01*
X102556904Y-108090476D01*
X102509285Y-108280952D01*
X102509285Y-108661904D01*
X102556904Y-108757142D01*
X102604523Y-108804761D01*
X102699761Y-108852380D01*
X102890238Y-108852380D01*
X102985476Y-108804761D01*
X103033095Y-108757142D01*
X103080714Y-108661904D01*
X103080714Y-108423809D01*
X103033095Y-108328571D01*
X102985476Y-108280952D01*
X102890238Y-108233333D01*
X102699761Y-108233333D01*
X102604523Y-108280952D01*
X102556904Y-108328571D01*
X102509285Y-108423809D01*
%TO.C,R8*%
X102128333Y-102867380D02*
X101795000Y-102391190D01*
X101556904Y-102867380D02*
X101556904Y-101867380D01*
X101937857Y-101867380D01*
X102033095Y-101915000D01*
X102080714Y-101962619D01*
X102128333Y-102057857D01*
X102128333Y-102200714D01*
X102080714Y-102295952D01*
X102033095Y-102343571D01*
X101937857Y-102391190D01*
X101556904Y-102391190D01*
X102699761Y-102295952D02*
X102604523Y-102248333D01*
X102556904Y-102200714D01*
X102509285Y-102105476D01*
X102509285Y-102057857D01*
X102556904Y-101962619D01*
X102604523Y-101915000D01*
X102699761Y-101867380D01*
X102890238Y-101867380D01*
X102985476Y-101915000D01*
X103033095Y-101962619D01*
X103080714Y-102057857D01*
X103080714Y-102105476D01*
X103033095Y-102200714D01*
X102985476Y-102248333D01*
X102890238Y-102295952D01*
X102699761Y-102295952D01*
X102604523Y-102343571D01*
X102556904Y-102391190D01*
X102509285Y-102486428D01*
X102509285Y-102676904D01*
X102556904Y-102772142D01*
X102604523Y-102819761D01*
X102699761Y-102867380D01*
X102890238Y-102867380D01*
X102985476Y-102819761D01*
X103033095Y-102772142D01*
X103080714Y-102676904D01*
X103080714Y-102486428D01*
X103033095Y-102391190D01*
X102985476Y-102343571D01*
X102890238Y-102295952D01*
%TO.C,R10*%
X101652142Y-96882380D02*
X101318809Y-96406190D01*
X101080714Y-96882380D02*
X101080714Y-95882380D01*
X101461666Y-95882380D01*
X101556904Y-95930000D01*
X101604523Y-95977619D01*
X101652142Y-96072857D01*
X101652142Y-96215714D01*
X101604523Y-96310952D01*
X101556904Y-96358571D01*
X101461666Y-96406190D01*
X101080714Y-96406190D01*
X102604523Y-96882380D02*
X102033095Y-96882380D01*
X102318809Y-96882380D02*
X102318809Y-95882380D01*
X102223571Y-96025238D01*
X102128333Y-96120476D01*
X102033095Y-96168095D01*
X103223571Y-95882380D02*
X103318809Y-95882380D01*
X103414047Y-95930000D01*
X103461666Y-95977619D01*
X103509285Y-96072857D01*
X103556904Y-96263333D01*
X103556904Y-96501428D01*
X103509285Y-96691904D01*
X103461666Y-96787142D01*
X103414047Y-96834761D01*
X103318809Y-96882380D01*
X103223571Y-96882380D01*
X103128333Y-96834761D01*
X103080714Y-96787142D01*
X103033095Y-96691904D01*
X102985476Y-96501428D01*
X102985476Y-96263333D01*
X103033095Y-96072857D01*
X103080714Y-95977619D01*
X103128333Y-95930000D01*
X103223571Y-95882380D01*
%TO.C,D3*%
X98211904Y-99874880D02*
X98211904Y-98874880D01*
X98450000Y-98874880D01*
X98592857Y-98922500D01*
X98688095Y-99017738D01*
X98735714Y-99112976D01*
X98783333Y-99303452D01*
X98783333Y-99446309D01*
X98735714Y-99636785D01*
X98688095Y-99732023D01*
X98592857Y-99827261D01*
X98450000Y-99874880D01*
X98211904Y-99874880D01*
X99116666Y-98874880D02*
X99735714Y-98874880D01*
X99402380Y-99255833D01*
X99545238Y-99255833D01*
X99640476Y-99303452D01*
X99688095Y-99351071D01*
X99735714Y-99446309D01*
X99735714Y-99684404D01*
X99688095Y-99779642D01*
X99640476Y-99827261D01*
X99545238Y-99874880D01*
X99259523Y-99874880D01*
X99164285Y-99827261D01*
X99116666Y-99779642D01*
%TO.C,R7*%
X102123333Y-105952380D02*
X101790000Y-105476190D01*
X101551904Y-105952380D02*
X101551904Y-104952380D01*
X101932857Y-104952380D01*
X102028095Y-105000000D01*
X102075714Y-105047619D01*
X102123333Y-105142857D01*
X102123333Y-105285714D01*
X102075714Y-105380952D01*
X102028095Y-105428571D01*
X101932857Y-105476190D01*
X101551904Y-105476190D01*
X102456666Y-104952380D02*
X103123333Y-104952380D01*
X102694761Y-105952380D01*
%TO.C,R9*%
X102128333Y-99874880D02*
X101795000Y-99398690D01*
X101556904Y-99874880D02*
X101556904Y-98874880D01*
X101937857Y-98874880D01*
X102033095Y-98922500D01*
X102080714Y-98970119D01*
X102128333Y-99065357D01*
X102128333Y-99208214D01*
X102080714Y-99303452D01*
X102033095Y-99351071D01*
X101937857Y-99398690D01*
X101556904Y-99398690D01*
X102604523Y-99874880D02*
X102795000Y-99874880D01*
X102890238Y-99827261D01*
X102937857Y-99779642D01*
X103033095Y-99636785D01*
X103080714Y-99446309D01*
X103080714Y-99065357D01*
X103033095Y-98970119D01*
X102985476Y-98922500D01*
X102890238Y-98874880D01*
X102699761Y-98874880D01*
X102604523Y-98922500D01*
X102556904Y-98970119D01*
X102509285Y-99065357D01*
X102509285Y-99303452D01*
X102556904Y-99398690D01*
X102604523Y-99446309D01*
X102699761Y-99493928D01*
X102890238Y-99493928D01*
X102985476Y-99446309D01*
X103033095Y-99398690D01*
X103080714Y-99303452D01*
%TO.C,D5*%
X98206904Y-105952380D02*
X98206904Y-104952380D01*
X98445000Y-104952380D01*
X98587857Y-105000000D01*
X98683095Y-105095238D01*
X98730714Y-105190476D01*
X98778333Y-105380952D01*
X98778333Y-105523809D01*
X98730714Y-105714285D01*
X98683095Y-105809523D01*
X98587857Y-105904761D01*
X98445000Y-105952380D01*
X98206904Y-105952380D01*
X99683095Y-104952380D02*
X99206904Y-104952380D01*
X99159285Y-105428571D01*
X99206904Y-105380952D01*
X99302142Y-105333333D01*
X99540238Y-105333333D01*
X99635476Y-105380952D01*
X99683095Y-105428571D01*
X99730714Y-105523809D01*
X99730714Y-105761904D01*
X99683095Y-105857142D01*
X99635476Y-105904761D01*
X99540238Y-105952380D01*
X99302142Y-105952380D01*
X99206904Y-105904761D01*
X99159285Y-105857142D01*
D15*
%TO.C,L5*%
X152926666Y-107566190D02*
X152688571Y-107566190D01*
X152688571Y-107066190D01*
X153331428Y-107066190D02*
X153093333Y-107066190D01*
X153069523Y-107304285D01*
X153093333Y-107280476D01*
X153140952Y-107256666D01*
X153260000Y-107256666D01*
X153307619Y-107280476D01*
X153331428Y-107304285D01*
X153355238Y-107351904D01*
X153355238Y-107470952D01*
X153331428Y-107518571D01*
X153307619Y-107542380D01*
X153260000Y-107566190D01*
X153140952Y-107566190D01*
X153093333Y-107542380D01*
X153069523Y-107518571D01*
D12*
%TO.C,J2*%
X136756666Y-66627380D02*
X136756666Y-67341666D01*
X136709047Y-67484523D01*
X136613809Y-67579761D01*
X136470952Y-67627380D01*
X136375714Y-67627380D01*
X137185238Y-66722619D02*
X137232857Y-66675000D01*
X137328095Y-66627380D01*
X137566190Y-66627380D01*
X137661428Y-66675000D01*
X137709047Y-66722619D01*
X137756666Y-66817857D01*
X137756666Y-66913095D01*
X137709047Y-67055952D01*
X137137619Y-67627380D01*
X137756666Y-67627380D01*
%TO.C,J1*%
X143056666Y-66627380D02*
X143056666Y-67341666D01*
X143009047Y-67484523D01*
X142913809Y-67579761D01*
X142770952Y-67627380D01*
X142675714Y-67627380D01*
X144056666Y-67627380D02*
X143485238Y-67627380D01*
X143770952Y-67627380D02*
X143770952Y-66627380D01*
X143675714Y-66770238D01*
X143580476Y-66865476D01*
X143485238Y-66913095D01*
D15*
%TO.C,C1*%
X140368571Y-86273333D02*
X140392380Y-86297142D01*
X140416190Y-86368571D01*
X140416190Y-86416190D01*
X140392380Y-86487619D01*
X140344761Y-86535238D01*
X140297142Y-86559047D01*
X140201904Y-86582857D01*
X140130476Y-86582857D01*
X140035238Y-86559047D01*
X139987619Y-86535238D01*
X139940000Y-86487619D01*
X139916190Y-86416190D01*
X139916190Y-86368571D01*
X139940000Y-86297142D01*
X139963809Y-86273333D01*
X140416190Y-85797142D02*
X140416190Y-86082857D01*
X140416190Y-85940000D02*
X139916190Y-85940000D01*
X139987619Y-85987619D01*
X140035238Y-86035238D01*
X140059047Y-86082857D01*
D12*
%TO.C,Y3*%
X102326204Y-62150100D02*
X102663152Y-62487048D01*
X101719697Y-62015321D02*
X102326204Y-62150100D01*
X102191425Y-61543594D01*
X102359899Y-61375119D02*
X102797931Y-60937087D01*
X102831626Y-61442509D01*
X102932711Y-61341425D01*
X103033795Y-61307730D01*
X103101185Y-61307730D01*
X103202269Y-61341425D01*
X103370743Y-61509899D01*
X103404438Y-61610983D01*
X103404438Y-61678373D01*
X103370743Y-61779457D01*
X103168574Y-61981626D01*
X103067490Y-62015321D01*
X103000100Y-62015321D01*
%TO.C,C24*%
X98217969Y-57157105D02*
X98217969Y-57224449D01*
X98150625Y-57359136D01*
X98083282Y-57426479D01*
X97948595Y-57493823D01*
X97813908Y-57493823D01*
X97712893Y-57460151D01*
X97544534Y-57359136D01*
X97443519Y-57258121D01*
X97342503Y-57089762D01*
X97308832Y-56988747D01*
X97308832Y-56854060D01*
X97376175Y-56719373D01*
X97443519Y-56652029D01*
X97578206Y-56584686D01*
X97645549Y-56584686D01*
X97914923Y-56315311D02*
X97914923Y-56247968D01*
X97948595Y-56146953D01*
X98116954Y-55978594D01*
X98217969Y-55944922D01*
X98285312Y-55944922D01*
X98386328Y-55978594D01*
X98453671Y-56045937D01*
X98521015Y-56180624D01*
X98521015Y-56988747D01*
X98958748Y-56551014D01*
X99093435Y-55473518D02*
X99564839Y-55944922D01*
X98655702Y-55372502D02*
X98992419Y-56045937D01*
X99430152Y-55608205D01*
%TO.C,C23*%
X97117142Y-69157142D02*
X97069523Y-69204761D01*
X96926666Y-69252380D01*
X96831428Y-69252380D01*
X96688571Y-69204761D01*
X96593333Y-69109523D01*
X96545714Y-69014285D01*
X96498095Y-68823809D01*
X96498095Y-68680952D01*
X96545714Y-68490476D01*
X96593333Y-68395238D01*
X96688571Y-68300000D01*
X96831428Y-68252380D01*
X96926666Y-68252380D01*
X97069523Y-68300000D01*
X97117142Y-68347619D01*
X97498095Y-68347619D02*
X97545714Y-68300000D01*
X97640952Y-68252380D01*
X97879047Y-68252380D01*
X97974285Y-68300000D01*
X98021904Y-68347619D01*
X98069523Y-68442857D01*
X98069523Y-68538095D01*
X98021904Y-68680952D01*
X97450476Y-69252380D01*
X98069523Y-69252380D01*
X98402857Y-68252380D02*
X99021904Y-68252380D01*
X98688571Y-68633333D01*
X98831428Y-68633333D01*
X98926666Y-68680952D01*
X98974285Y-68728571D01*
X99021904Y-68823809D01*
X99021904Y-69061904D01*
X98974285Y-69157142D01*
X98926666Y-69204761D01*
X98831428Y-69252380D01*
X98545714Y-69252380D01*
X98450476Y-69204761D01*
X98402857Y-69157142D01*
%TO.C,SW1*%
X98484893Y-82921941D02*
X98619580Y-82854598D01*
X98787939Y-82686239D01*
X98821611Y-82585224D01*
X98821611Y-82517880D01*
X98787939Y-82416865D01*
X98720596Y-82349522D01*
X98619580Y-82315850D01*
X98552237Y-82315850D01*
X98451222Y-82349522D01*
X98282863Y-82450537D01*
X98181848Y-82484209D01*
X98114504Y-82484209D01*
X98013489Y-82450537D01*
X97946145Y-82383193D01*
X97912474Y-82282178D01*
X97912474Y-82214835D01*
X97946145Y-82113819D01*
X98114504Y-81945461D01*
X98249191Y-81878117D01*
X98451222Y-81608743D02*
X99326687Y-82147491D01*
X98956298Y-81507728D01*
X99596061Y-81878117D01*
X99057313Y-81002652D01*
X100404183Y-81069995D02*
X100000122Y-81474056D01*
X100202153Y-81272026D02*
X99495046Y-80564919D01*
X99528718Y-80733278D01*
X99528718Y-80867965D01*
X99495046Y-80968980D01*
%TO.C,JP1*%
X121216666Y-53642380D02*
X121216666Y-54356666D01*
X121169047Y-54499523D01*
X121073809Y-54594761D01*
X120930952Y-54642380D01*
X120835714Y-54642380D01*
X121692857Y-54642380D02*
X121692857Y-53642380D01*
X122073809Y-53642380D01*
X122169047Y-53690000D01*
X122216666Y-53737619D01*
X122264285Y-53832857D01*
X122264285Y-53975714D01*
X122216666Y-54070952D01*
X122169047Y-54118571D01*
X122073809Y-54166190D01*
X121692857Y-54166190D01*
X123216666Y-54642380D02*
X122645238Y-54642380D01*
X122930952Y-54642380D02*
X122930952Y-53642380D01*
X122835714Y-53785238D01*
X122740476Y-53880476D01*
X122645238Y-53928095D01*
%TO.C,D2*%
X98211904Y-96882380D02*
X98211904Y-95882380D01*
X98450000Y-95882380D01*
X98592857Y-95930000D01*
X98688095Y-96025238D01*
X98735714Y-96120476D01*
X98783333Y-96310952D01*
X98783333Y-96453809D01*
X98735714Y-96644285D01*
X98688095Y-96739523D01*
X98592857Y-96834761D01*
X98450000Y-96882380D01*
X98211904Y-96882380D01*
X99164285Y-95977619D02*
X99211904Y-95930000D01*
X99307142Y-95882380D01*
X99545238Y-95882380D01*
X99640476Y-95930000D01*
X99688095Y-95977619D01*
X99735714Y-96072857D01*
X99735714Y-96168095D01*
X99688095Y-96310952D01*
X99116666Y-96882380D01*
X99735714Y-96882380D01*
%TO.C,C33*%
X97133270Y-81220800D02*
X97133270Y-81288144D01*
X97065926Y-81422831D01*
X96998583Y-81490174D01*
X96863896Y-81557518D01*
X96729209Y-81557518D01*
X96628194Y-81523846D01*
X96459835Y-81422831D01*
X96358820Y-81321816D01*
X96257804Y-81153457D01*
X96224133Y-81052442D01*
X96224133Y-80917755D01*
X96291476Y-80783068D01*
X96358820Y-80715724D01*
X96493507Y-80648381D01*
X96560850Y-80648381D01*
X96729209Y-80345335D02*
X97166942Y-79907602D01*
X97200613Y-80412678D01*
X97301629Y-80311663D01*
X97402644Y-80277991D01*
X97469988Y-80277991D01*
X97571003Y-80311663D01*
X97739362Y-80480022D01*
X97773033Y-80581037D01*
X97773033Y-80648381D01*
X97739362Y-80749396D01*
X97537331Y-80951426D01*
X97436316Y-80985098D01*
X97368972Y-80985098D01*
X97402644Y-79671900D02*
X97840377Y-79234167D01*
X97874049Y-79739243D01*
X97975064Y-79638228D01*
X98076079Y-79604556D01*
X98143423Y-79604556D01*
X98244438Y-79638228D01*
X98412797Y-79806587D01*
X98446468Y-79907602D01*
X98446468Y-79974945D01*
X98412797Y-80075961D01*
X98210766Y-80277991D01*
X98109751Y-80311663D01*
X98042407Y-80311663D01*
D15*
%TO.C,C5*%
X136618571Y-90093333D02*
X136642380Y-90117142D01*
X136666190Y-90188571D01*
X136666190Y-90236190D01*
X136642380Y-90307619D01*
X136594761Y-90355238D01*
X136547142Y-90379047D01*
X136451904Y-90402857D01*
X136380476Y-90402857D01*
X136285238Y-90379047D01*
X136237619Y-90355238D01*
X136190000Y-90307619D01*
X136166190Y-90236190D01*
X136166190Y-90188571D01*
X136190000Y-90117142D01*
X136213809Y-90093333D01*
X136166190Y-89640952D02*
X136166190Y-89879047D01*
X136404285Y-89902857D01*
X136380476Y-89879047D01*
X136356666Y-89831428D01*
X136356666Y-89712380D01*
X136380476Y-89664761D01*
X136404285Y-89640952D01*
X136451904Y-89617142D01*
X136570952Y-89617142D01*
X136618571Y-89640952D01*
X136642380Y-89664761D01*
X136666190Y-89712380D01*
X136666190Y-89831428D01*
X136642380Y-89879047D01*
X136618571Y-89902857D01*
%TO.C,L10*%
X150956190Y-102101428D02*
X150956190Y-102339523D01*
X150456190Y-102339523D01*
X150956190Y-101672857D02*
X150956190Y-101958571D01*
X150956190Y-101815714D02*
X150456190Y-101815714D01*
X150527619Y-101863333D01*
X150575238Y-101910952D01*
X150599047Y-101958571D01*
X150456190Y-101363333D02*
X150456190Y-101315714D01*
X150480000Y-101268095D01*
X150503809Y-101244285D01*
X150551428Y-101220476D01*
X150646666Y-101196666D01*
X150765714Y-101196666D01*
X150860952Y-101220476D01*
X150908571Y-101244285D01*
X150932380Y-101268095D01*
X150956190Y-101315714D01*
X150956190Y-101363333D01*
X150932380Y-101410952D01*
X150908571Y-101434761D01*
X150860952Y-101458571D01*
X150765714Y-101482380D01*
X150646666Y-101482380D01*
X150551428Y-101458571D01*
X150503809Y-101434761D01*
X150480000Y-101410952D01*
X150456190Y-101363333D01*
%TO.C,C19*%
X151778571Y-90781428D02*
X151802380Y-90805238D01*
X151826190Y-90876666D01*
X151826190Y-90924285D01*
X151802380Y-90995714D01*
X151754761Y-91043333D01*
X151707142Y-91067142D01*
X151611904Y-91090952D01*
X151540476Y-91090952D01*
X151445238Y-91067142D01*
X151397619Y-91043333D01*
X151350000Y-90995714D01*
X151326190Y-90924285D01*
X151326190Y-90876666D01*
X151350000Y-90805238D01*
X151373809Y-90781428D01*
X151826190Y-90305238D02*
X151826190Y-90590952D01*
X151826190Y-90448095D02*
X151326190Y-90448095D01*
X151397619Y-90495714D01*
X151445238Y-90543333D01*
X151469047Y-90590952D01*
X151826190Y-90067142D02*
X151826190Y-89971904D01*
X151802380Y-89924285D01*
X151778571Y-89900476D01*
X151707142Y-89852857D01*
X151611904Y-89829047D01*
X151421428Y-89829047D01*
X151373809Y-89852857D01*
X151350000Y-89876666D01*
X151326190Y-89924285D01*
X151326190Y-90019523D01*
X151350000Y-90067142D01*
X151373809Y-90090952D01*
X151421428Y-90114761D01*
X151540476Y-90114761D01*
X151588095Y-90090952D01*
X151611904Y-90067142D01*
X151635714Y-90019523D01*
X151635714Y-89924285D01*
X151611904Y-89876666D01*
X151588095Y-89852857D01*
X151540476Y-89829047D01*
D12*
%TO.C,R3*%
X146032380Y-56129166D02*
X145556190Y-56462500D01*
X146032380Y-56700595D02*
X145032380Y-56700595D01*
X145032380Y-56319642D01*
X145080000Y-56224404D01*
X145127619Y-56176785D01*
X145222857Y-56129166D01*
X145365714Y-56129166D01*
X145460952Y-56176785D01*
X145508571Y-56224404D01*
X145556190Y-56319642D01*
X145556190Y-56700595D01*
X145032380Y-55795833D02*
X145032380Y-55176785D01*
X145413333Y-55510119D01*
X145413333Y-55367261D01*
X145460952Y-55272023D01*
X145508571Y-55224404D01*
X145603809Y-55176785D01*
X145841904Y-55176785D01*
X145937142Y-55224404D01*
X145984761Y-55272023D01*
X146032380Y-55367261D01*
X146032380Y-55652976D01*
X145984761Y-55748214D01*
X145937142Y-55795833D01*
%TO.C,R12*%
X125161988Y-62227149D02*
X125060973Y-62799568D01*
X125566049Y-62631210D02*
X124858942Y-63338316D01*
X124589568Y-63068942D01*
X124555896Y-62967927D01*
X124555896Y-62900584D01*
X124589568Y-62799568D01*
X124690583Y-62698553D01*
X124791599Y-62664881D01*
X124858942Y-62664881D01*
X124959957Y-62698553D01*
X125229331Y-62967927D01*
X124488553Y-61553713D02*
X124892614Y-61957774D01*
X124690583Y-61755744D02*
X123983476Y-62462851D01*
X124151835Y-62429179D01*
X124286522Y-62429179D01*
X124387538Y-62462851D01*
X123579415Y-61924103D02*
X123512072Y-61924103D01*
X123411057Y-61890431D01*
X123242698Y-61722072D01*
X123209026Y-61621057D01*
X123209026Y-61553713D01*
X123242698Y-61452698D01*
X123310041Y-61385355D01*
X123444728Y-61318011D01*
X124252850Y-61318011D01*
X123815118Y-60880278D01*
%TO.C,C14*%
X145717142Y-64857142D02*
X145669523Y-64904761D01*
X145526666Y-64952380D01*
X145431428Y-64952380D01*
X145288571Y-64904761D01*
X145193333Y-64809523D01*
X145145714Y-64714285D01*
X145098095Y-64523809D01*
X145098095Y-64380952D01*
X145145714Y-64190476D01*
X145193333Y-64095238D01*
X145288571Y-64000000D01*
X145431428Y-63952380D01*
X145526666Y-63952380D01*
X145669523Y-64000000D01*
X145717142Y-64047619D01*
X146669523Y-64952380D02*
X146098095Y-64952380D01*
X146383809Y-64952380D02*
X146383809Y-63952380D01*
X146288571Y-64095238D01*
X146193333Y-64190476D01*
X146098095Y-64238095D01*
X147526666Y-64285714D02*
X147526666Y-64952380D01*
X147288571Y-63904761D02*
X147050476Y-64619047D01*
X147669523Y-64619047D01*
%TO.C,D1*%
X142352380Y-64938095D02*
X141352380Y-64938095D01*
X141352380Y-64700000D01*
X141400000Y-64557142D01*
X141495238Y-64461904D01*
X141590476Y-64414285D01*
X141780952Y-64366666D01*
X141923809Y-64366666D01*
X142114285Y-64414285D01*
X142209523Y-64461904D01*
X142304761Y-64557142D01*
X142352380Y-64700000D01*
X142352380Y-64938095D01*
X142352380Y-63414285D02*
X142352380Y-63985714D01*
X142352380Y-63700000D02*
X141352380Y-63700000D01*
X141495238Y-63795238D01*
X141590476Y-63890476D01*
X141638095Y-63985714D01*
%TO.C,R11*%
X98632380Y-71852857D02*
X98156190Y-72186190D01*
X98632380Y-72424285D02*
X97632380Y-72424285D01*
X97632380Y-72043333D01*
X97680000Y-71948095D01*
X97727619Y-71900476D01*
X97822857Y-71852857D01*
X97965714Y-71852857D01*
X98060952Y-71900476D01*
X98108571Y-71948095D01*
X98156190Y-72043333D01*
X98156190Y-72424285D01*
X98632380Y-70900476D02*
X98632380Y-71471904D01*
X98632380Y-71186190D02*
X97632380Y-71186190D01*
X97775238Y-71281428D01*
X97870476Y-71376666D01*
X97918095Y-71471904D01*
X98632380Y-69948095D02*
X98632380Y-70519523D01*
X98632380Y-70233809D02*
X97632380Y-70233809D01*
X97775238Y-70329047D01*
X97870476Y-70424285D01*
X97918095Y-70519523D01*
%TO.C,R2*%
X144542380Y-58581666D02*
X144066190Y-58915000D01*
X144542380Y-59153095D02*
X143542380Y-59153095D01*
X143542380Y-58772142D01*
X143590000Y-58676904D01*
X143637619Y-58629285D01*
X143732857Y-58581666D01*
X143875714Y-58581666D01*
X143970952Y-58629285D01*
X144018571Y-58676904D01*
X144066190Y-58772142D01*
X144066190Y-59153095D01*
X143637619Y-58200714D02*
X143590000Y-58153095D01*
X143542380Y-58057857D01*
X143542380Y-57819761D01*
X143590000Y-57724523D01*
X143637619Y-57676904D01*
X143732857Y-57629285D01*
X143828095Y-57629285D01*
X143970952Y-57676904D01*
X144542380Y-58248333D01*
X144542380Y-57629285D01*
%TO.C,C13*%
X150719642Y-64062142D02*
X150672023Y-64109761D01*
X150529166Y-64157380D01*
X150433928Y-64157380D01*
X150291071Y-64109761D01*
X150195833Y-64014523D01*
X150148214Y-63919285D01*
X150100595Y-63728809D01*
X150100595Y-63585952D01*
X150148214Y-63395476D01*
X150195833Y-63300238D01*
X150291071Y-63205000D01*
X150433928Y-63157380D01*
X150529166Y-63157380D01*
X150672023Y-63205000D01*
X150719642Y-63252619D01*
X151672023Y-64157380D02*
X151100595Y-64157380D01*
X151386309Y-64157380D02*
X151386309Y-63157380D01*
X151291071Y-63300238D01*
X151195833Y-63395476D01*
X151100595Y-63443095D01*
X152005357Y-63157380D02*
X152624404Y-63157380D01*
X152291071Y-63538333D01*
X152433928Y-63538333D01*
X152529166Y-63585952D01*
X152576785Y-63633571D01*
X152624404Y-63728809D01*
X152624404Y-63966904D01*
X152576785Y-64062142D01*
X152529166Y-64109761D01*
X152433928Y-64157380D01*
X152148214Y-64157380D01*
X152052976Y-64109761D01*
X152005357Y-64062142D01*
%TO.C,C38*%
X108075943Y-87983193D02*
X108143287Y-87983193D01*
X108277974Y-88050537D01*
X108345317Y-88117880D01*
X108412661Y-88252567D01*
X108412661Y-88387254D01*
X108378989Y-88488269D01*
X108277974Y-88656628D01*
X108176959Y-88757643D01*
X108008600Y-88858659D01*
X107907585Y-88892330D01*
X107772898Y-88892330D01*
X107638211Y-88824987D01*
X107570867Y-88757643D01*
X107503524Y-88622956D01*
X107503524Y-88555613D01*
X107200478Y-88387254D02*
X106762745Y-87949521D01*
X107267821Y-87915850D01*
X107166806Y-87814834D01*
X107133134Y-87713819D01*
X107133134Y-87646475D01*
X107166806Y-87545460D01*
X107335165Y-87377101D01*
X107436180Y-87343430D01*
X107503524Y-87343430D01*
X107604539Y-87377101D01*
X107806569Y-87579132D01*
X107840241Y-87680147D01*
X107840241Y-87747491D01*
X106661730Y-87242414D02*
X106695401Y-87343430D01*
X106695401Y-87410773D01*
X106661730Y-87511788D01*
X106628058Y-87545460D01*
X106527043Y-87579132D01*
X106459699Y-87579132D01*
X106358684Y-87545460D01*
X106223997Y-87410773D01*
X106190325Y-87309758D01*
X106190325Y-87242414D01*
X106223997Y-87141399D01*
X106257669Y-87107727D01*
X106358684Y-87074056D01*
X106426027Y-87074056D01*
X106527043Y-87107727D01*
X106661730Y-87242414D01*
X106762745Y-87276086D01*
X106830088Y-87276086D01*
X106931104Y-87242414D01*
X107065791Y-87107727D01*
X107099462Y-87006712D01*
X107099462Y-86939369D01*
X107065791Y-86838353D01*
X106931104Y-86703666D01*
X106830088Y-86669995D01*
X106762745Y-86669995D01*
X106661730Y-86703666D01*
X106527043Y-86838353D01*
X106493371Y-86939369D01*
X106493371Y-87006712D01*
X106527043Y-87107727D01*
D15*
%TO.C,C37*%
X103028571Y-56551428D02*
X103052380Y-56575238D01*
X103076190Y-56646666D01*
X103076190Y-56694285D01*
X103052380Y-56765714D01*
X103004761Y-56813333D01*
X102957142Y-56837142D01*
X102861904Y-56860952D01*
X102790476Y-56860952D01*
X102695238Y-56837142D01*
X102647619Y-56813333D01*
X102600000Y-56765714D01*
X102576190Y-56694285D01*
X102576190Y-56646666D01*
X102600000Y-56575238D01*
X102623809Y-56551428D01*
X102576190Y-56384761D02*
X102576190Y-56075238D01*
X102766666Y-56241904D01*
X102766666Y-56170476D01*
X102790476Y-56122857D01*
X102814285Y-56099047D01*
X102861904Y-56075238D01*
X102980952Y-56075238D01*
X103028571Y-56099047D01*
X103052380Y-56122857D01*
X103076190Y-56170476D01*
X103076190Y-56313333D01*
X103052380Y-56360952D01*
X103028571Y-56384761D01*
X102576190Y-55908571D02*
X102576190Y-55575238D01*
X103076190Y-55789523D01*
D12*
%TO.C,U4*%
X149438095Y-57052380D02*
X149438095Y-57861904D01*
X149485714Y-57957142D01*
X149533333Y-58004761D01*
X149628571Y-58052380D01*
X149819047Y-58052380D01*
X149914285Y-58004761D01*
X149961904Y-57957142D01*
X150009523Y-57861904D01*
X150009523Y-57052380D01*
X150914285Y-57385714D02*
X150914285Y-58052380D01*
X150676190Y-57004761D02*
X150438095Y-57719047D01*
X151057142Y-57719047D01*
%TO.C,FB1*%
X138216666Y-62308571D02*
X137883333Y-62308571D01*
X137883333Y-62832380D02*
X137883333Y-61832380D01*
X138359523Y-61832380D01*
X139073809Y-62308571D02*
X139216666Y-62356190D01*
X139264285Y-62403809D01*
X139311904Y-62499047D01*
X139311904Y-62641904D01*
X139264285Y-62737142D01*
X139216666Y-62784761D01*
X139121428Y-62832380D01*
X138740476Y-62832380D01*
X138740476Y-61832380D01*
X139073809Y-61832380D01*
X139169047Y-61880000D01*
X139216666Y-61927619D01*
X139264285Y-62022857D01*
X139264285Y-62118095D01*
X139216666Y-62213333D01*
X139169047Y-62260952D01*
X139073809Y-62308571D01*
X138740476Y-62308571D01*
X140264285Y-62832380D02*
X139692857Y-62832380D01*
X139978571Y-62832380D02*
X139978571Y-61832380D01*
X139883333Y-61975238D01*
X139788095Y-62070476D01*
X139692857Y-62118095D01*
D16*
%TO.C,IC1*%
X114782893Y-72080394D02*
X113884868Y-72978419D01*
X113756578Y-71225131D02*
X113842104Y-71225131D01*
X114013157Y-71310658D01*
X114098683Y-71396184D01*
X114184209Y-71567236D01*
X114184209Y-71738289D01*
X114141446Y-71866578D01*
X114013157Y-72080394D01*
X113884868Y-72208683D01*
X113671052Y-72336973D01*
X113542763Y-72379736D01*
X113371710Y-72379736D01*
X113200658Y-72294209D01*
X113115131Y-72208683D01*
X113029605Y-72037631D01*
X113029605Y-71952104D01*
X112986842Y-70284343D02*
X113499999Y-70797500D01*
X113243421Y-70540921D02*
X112345395Y-71438947D01*
X112559211Y-71396184D01*
X112730263Y-71396184D01*
X112858553Y-71438947D01*
D18*
%TO.C,C25*%
X96623005Y-60903245D02*
X96829858Y-60696392D01*
X95901756Y-60181996D02*
X96108609Y-59975143D01*
%TO.C,C27*%
X119440000Y-56296267D02*
X119440000Y-56003733D01*
X118420000Y-56296267D02*
X118420000Y-56003733D01*
%TO.C,C28*%
X129235949Y-73942802D02*
X129442802Y-73735949D01*
X129957198Y-74664051D02*
X130164051Y-74457198D01*
%TO.C,C30*%
X119527198Y-86334051D02*
X119734051Y-86127198D01*
X118805949Y-85612802D02*
X119012802Y-85405949D01*
%TO.C,C31*%
X121157198Y-87904051D02*
X121364051Y-87697198D01*
X120435949Y-87182802D02*
X120642802Y-86975949D01*
%TO.C,C32*%
X98184051Y-76227198D02*
X97977198Y-76434051D01*
X97462802Y-75505949D02*
X97255949Y-75712802D01*
%TO.C,C35*%
X109210000Y-56396267D02*
X109210000Y-56103733D01*
X108190000Y-56396267D02*
X108190000Y-56103733D01*
%TO.C,R4*%
X124250000Y-58581267D02*
X124250000Y-58238733D01*
X123230000Y-58581267D02*
X123230000Y-58238733D01*
%TO.C,R5*%
X122210000Y-58181267D02*
X122210000Y-57838733D01*
X121190000Y-58181267D02*
X121190000Y-57838733D01*
D19*
%TO.C,J5*%
X80060000Y-131390000D02*
X80060000Y-62070000D01*
X74260000Y-73870000D02*
X74260000Y-119590000D01*
X80060000Y-63710000D02*
X74260000Y-63710000D01*
X74260000Y-124670000D02*
X74260000Y-129750000D01*
X74260000Y-63710000D02*
X74260000Y-68790000D01*
X74260000Y-68790000D02*
X80060000Y-68790000D01*
D11*
X95100000Y-71800000D02*
X95100000Y-71800000D01*
D19*
X80060000Y-124670000D02*
X74260000Y-124670000D01*
X74260000Y-119590000D02*
X80060000Y-119590000D01*
D11*
X95200000Y-71800000D02*
X95200000Y-71800000D01*
D19*
X74260000Y-129750000D02*
X80060000Y-129750000D01*
X80060000Y-62070000D02*
X88860000Y-62070000D01*
X88860000Y-131390000D02*
X80060000Y-131390000D01*
X94660000Y-62070000D02*
X94660000Y-131390000D01*
X80060000Y-73870000D02*
X74260000Y-73870000D01*
D11*
X95100000Y-71800000D02*
G75*
G03*
X95200000Y-71800000I50000J0D01*
G01*
X95200000Y-71800000D02*
G75*
G03*
X95100000Y-71800000I-50000J0D01*
G01*
D18*
%TO.C,C34*%
X105920000Y-56396267D02*
X105920000Y-56103733D01*
X106940000Y-56396267D02*
X106940000Y-56103733D01*
%TO.C,C26*%
X117411251Y-56296267D02*
X117411251Y-56003733D01*
X116391251Y-56296267D02*
X116391251Y-56003733D01*
%TO.C,C29*%
X129696233Y-70620000D02*
X129988767Y-70620000D01*
X129696233Y-69600000D02*
X129988767Y-69600000D01*
%TO.C,U5*%
X130700000Y-57815000D02*
X131500000Y-57815000D01*
X130700000Y-57815000D02*
X128900000Y-57815000D01*
X130700000Y-60935000D02*
X131500000Y-60935000D01*
X130700000Y-60935000D02*
X129900000Y-60935000D01*
%TO.C,C2*%
X126210000Y-88161234D02*
X126210000Y-88453768D01*
X127230000Y-88161234D02*
X127230000Y-88453768D01*
%TO.C,C3*%
X136940000Y-87987164D02*
X136940000Y-88202836D01*
X137660000Y-87987164D02*
X137660000Y-88202836D01*
%TO.C,C12*%
X151502164Y-105555000D02*
X151717836Y-105555000D01*
X151502164Y-106275000D02*
X151717836Y-106275000D01*
%TO.C,C15*%
X152900000Y-86087164D02*
X152900000Y-86302836D01*
X152180000Y-86087164D02*
X152180000Y-86302836D01*
%TO.C,C17*%
X152180000Y-87987164D02*
X152180000Y-88202836D01*
X152900000Y-87987164D02*
X152900000Y-88202836D01*
%TO.C,U1*%
X132040000Y-85265000D02*
X132765000Y-85265000D01*
X132040000Y-88760000D02*
X132040000Y-89485000D01*
X136260000Y-89485000D02*
X135535000Y-89485000D01*
X136260000Y-88760000D02*
X136260000Y-89485000D01*
X136260000Y-85990000D02*
X136260000Y-85265000D01*
X136260000Y-85265000D02*
X135535000Y-85265000D01*
X132040000Y-85990000D02*
X132040000Y-85265000D01*
%TO.C,C7*%
X133040000Y-94187164D02*
X133040000Y-94402836D01*
X133760000Y-94187164D02*
X133760000Y-94402836D01*
%TO.C,C8*%
X133540000Y-96137164D02*
X133540000Y-96352836D01*
X134260000Y-96137164D02*
X134260000Y-96352836D01*
%TO.C,C6*%
X135340000Y-91887164D02*
X135340000Y-92102836D01*
X136060000Y-91887164D02*
X136060000Y-92102836D01*
D20*
%TO.C,Y1*%
X127740000Y-89620000D02*
X127740000Y-83620000D01*
X131240000Y-83620000D02*
X131240000Y-89620000D01*
D18*
%TO.C,J4*%
X141800000Y-53737500D02*
X141800000Y-53987500D01*
X134000000Y-53737500D02*
X134000000Y-53987500D01*
X141800000Y-56287500D02*
X141800000Y-58137500D01*
X134000000Y-58137500D02*
X134450000Y-58137500D01*
X139600000Y-58687500D02*
X139150000Y-58687500D01*
X141800000Y-58137500D02*
X141350000Y-58137500D01*
X134000000Y-56287500D02*
X134000000Y-58137500D01*
X139600000Y-58687500D02*
X139600000Y-58237500D01*
%TO.C,C18*%
X142480000Y-85078767D02*
X142480000Y-84786233D01*
X141460000Y-85078767D02*
X141460000Y-84786233D01*
%TO.C,C4*%
X126209999Y-85078767D02*
X126209999Y-84786233D01*
X127229999Y-85078767D02*
X127229999Y-84786233D01*
%TO.C,C11*%
X148332164Y-104935000D02*
X148547836Y-104935000D01*
X148332164Y-105655000D02*
X148547836Y-105655000D01*
%TO.C,C21*%
X151252164Y-100835000D02*
X151467836Y-100835000D01*
X151252164Y-100115000D02*
X151467836Y-100115000D01*
%TO.C,C22*%
X148547836Y-102755000D02*
X148332164Y-102755000D01*
X148547836Y-102035000D02*
X148332164Y-102035000D01*
%TO.C,R1*%
X151600000Y-108728641D02*
X151600000Y-108421359D01*
X152360000Y-108728641D02*
X152360000Y-108421359D01*
%TO.C,U2*%
X148040000Y-107095000D02*
X148040000Y-110095000D01*
X151260000Y-108595000D02*
X151260000Y-110095000D01*
%TO.C,C9*%
X133250000Y-108512836D02*
X133250000Y-108297164D01*
X132530000Y-108512836D02*
X132530000Y-108297164D01*
%TO.C,C10*%
X135270000Y-109372836D02*
X135270000Y-109157164D01*
X134550000Y-109372836D02*
X134550000Y-109157164D01*
%TO.C,C20*%
X150260000Y-92854664D02*
X150260000Y-93070336D01*
X149540000Y-92854664D02*
X149540000Y-93070336D01*
D20*
%TO.C,Y2*%
X146490000Y-83620000D02*
X146490000Y-89620000D01*
X142990000Y-89620000D02*
X142990000Y-83620000D01*
D18*
%TO.C,U6*%
X151510000Y-88760000D02*
X151510000Y-89485000D01*
X151510000Y-85265000D02*
X150785000Y-85265000D01*
X147290000Y-85990000D02*
X147290000Y-85265000D01*
X147290000Y-85265000D02*
X148015000Y-85265000D01*
X151510000Y-89485000D02*
X150785000Y-89485000D01*
X151510000Y-85990000D02*
X151510000Y-85265000D01*
X147290000Y-88760000D02*
X147290000Y-89485000D01*
%TO.C,C16*%
X141460000Y-88171233D02*
X141460000Y-88463767D01*
X142480000Y-88171233D02*
X142480000Y-88463767D01*
%TO.C,D4*%
X100610000Y-100250000D02*
X98150000Y-100250000D01*
X98150000Y-101720000D02*
X100610000Y-101720000D01*
X100610000Y-101720000D02*
X100610000Y-100250000D01*
%TO.C,D6*%
X100610000Y-106235000D02*
X98150000Y-106235000D01*
X100610000Y-107705000D02*
X100610000Y-106235000D01*
X98150000Y-107705000D02*
X100610000Y-107705000D01*
%TO.C,R6*%
X102466267Y-107480000D02*
X102123733Y-107480000D01*
X102466267Y-106460000D02*
X102123733Y-106460000D01*
%TO.C,R8*%
X102466267Y-101495000D02*
X102123733Y-101495000D01*
X102466267Y-100475000D02*
X102123733Y-100475000D01*
%TO.C,R10*%
X102466267Y-94490000D02*
X102123733Y-94490000D01*
X102466267Y-95510000D02*
X102123733Y-95510000D01*
%TO.C,D3*%
X100610000Y-97257500D02*
X98150000Y-97257500D01*
X98150000Y-98727500D02*
X100610000Y-98727500D01*
X100610000Y-98727500D02*
X100610000Y-97257500D01*
%TO.C,R7*%
X102461267Y-103560000D02*
X102118733Y-103560000D01*
X102461267Y-104580000D02*
X102118733Y-104580000D01*
%TO.C,R9*%
X102466267Y-98502500D02*
X102123733Y-98502500D01*
X102466267Y-97482500D02*
X102123733Y-97482500D01*
%TO.C,D5*%
X100605000Y-104805000D02*
X100605000Y-103335000D01*
X100605000Y-103335000D02*
X98145000Y-103335000D01*
X98145000Y-104805000D02*
X100605000Y-104805000D01*
%TO.C,J2*%
X139520000Y-75905000D02*
X139520000Y-68225000D01*
X134320000Y-78505000D02*
X134320000Y-68225000D01*
X139520000Y-78505000D02*
X138190000Y-78505000D01*
X139520000Y-75905000D02*
X136920000Y-75905000D01*
X136920000Y-75905000D02*
X136920000Y-78505000D01*
X139520000Y-68225000D02*
X134320000Y-68225000D01*
X136920000Y-78505000D02*
X134320000Y-78505000D01*
X139520000Y-77175000D02*
X139520000Y-78505000D01*
%TO.C,J1*%
X143620000Y-78485001D02*
X141020000Y-78485001D01*
X146220000Y-68205001D02*
X141020000Y-68205001D01*
X143620000Y-75885001D02*
X143620000Y-78485001D01*
X146220000Y-77155001D02*
X146220000Y-78485001D01*
X146220000Y-75885001D02*
X143620000Y-75885001D01*
X141020000Y-78485001D02*
X141020000Y-68205001D01*
X146220000Y-75885001D02*
X146220000Y-68205001D01*
X146220000Y-78485001D02*
X144890000Y-78485001D01*
%TO.C,C1*%
X137660000Y-86087164D02*
X137660000Y-86302836D01*
X136940000Y-86087164D02*
X136940000Y-86302836D01*
D20*
%TO.C,Y3*%
X102918757Y-60336117D02*
X98676117Y-64578757D01*
X96201243Y-62103883D02*
X100443883Y-57861243D01*
D18*
%TO.C,C24*%
X98513848Y-57569903D02*
X98306995Y-57776756D01*
X99235097Y-58291152D02*
X99028244Y-58498005D01*
%TO.C,C23*%
X97906267Y-67880000D02*
X97613733Y-67880000D01*
X97906267Y-66860000D02*
X97613733Y-66860000D01*
%TO.C,SW1*%
X106573185Y-84556705D02*
X106551972Y-84535492D01*
X97458578Y-84577918D02*
X97437365Y-84556705D01*
X102005275Y-89124615D02*
X106573185Y-84556705D01*
X98802081Y-85921421D02*
X100640559Y-87759899D01*
X97437365Y-84556705D02*
X102005275Y-79988795D01*
X103369991Y-81353511D02*
X105208469Y-83191989D01*
X102005275Y-79988795D02*
X102026488Y-80010008D01*
X102005275Y-89124615D02*
X101984062Y-89103402D01*
%TO.C,JP1*%
X126300000Y-56400000D02*
X131440000Y-56400000D01*
X123700000Y-56400000D02*
X123700000Y-55070000D01*
X126300000Y-56400000D02*
X126300000Y-53740000D01*
X131440000Y-56400000D02*
X131440000Y-53740000D01*
X125030000Y-56400000D02*
X123700000Y-56400000D01*
X126300000Y-53740000D02*
X131440000Y-53740000D01*
%TO.C,D2*%
X100610000Y-94265000D02*
X98150000Y-94265000D01*
X98150000Y-95735000D02*
X100610000Y-95735000D01*
X100610000Y-95735000D02*
X100610000Y-94265000D01*
%TO.C,C33*%
X99112802Y-77915949D02*
X98905949Y-78122802D01*
X99834051Y-78637198D02*
X99627198Y-78844051D01*
%TO.C,C5*%
X136940000Y-90082836D02*
X136940000Y-89867164D01*
X137660000Y-90082836D02*
X137660000Y-89867164D01*
%TO.C,C19*%
X152900000Y-90112836D02*
X152900000Y-89897164D01*
X152180000Y-90112836D02*
X152180000Y-89897164D01*
%TO.C,R3*%
X144977500Y-58854724D02*
X144977500Y-58345276D01*
X146022500Y-58854724D02*
X146022500Y-58345276D01*
%TO.C,G\u002A\u002A\u002A*%
G36*
X104538246Y-122812873D02*
G01*
X104548155Y-122899751D01*
X104557213Y-122958920D01*
X104571766Y-123033221D01*
X104588800Y-123107366D01*
X104590221Y-123112997D01*
X104608466Y-123188223D01*
X104630826Y-123285790D01*
X104655428Y-123397022D01*
X104680399Y-123513242D01*
X104703869Y-123625773D01*
X104723963Y-123725936D01*
X104735071Y-123784328D01*
X104746266Y-123840491D01*
X104762734Y-123917189D01*
X104782245Y-124004268D01*
X104802272Y-124090325D01*
X104850599Y-124293648D01*
X104871890Y-124232489D01*
X104885789Y-124185260D01*
X104893223Y-124145834D01*
X104893586Y-124139739D01*
X104895800Y-124121873D01*
X104902632Y-124090025D01*
X104914817Y-124041450D01*
X104933091Y-123973405D01*
X104958191Y-123883145D01*
X104990852Y-123767925D01*
X105029145Y-123634266D01*
X105046430Y-123567956D01*
X105062320Y-123497196D01*
X105066399Y-123476306D01*
X105081222Y-123408710D01*
X105103574Y-123322347D01*
X105130838Y-123225962D01*
X105160395Y-123128302D01*
X105189628Y-123038113D01*
X105215919Y-122964141D01*
X105230398Y-122928427D01*
X105256571Y-122877917D01*
X105283905Y-122838581D01*
X105301854Y-122822109D01*
X105341096Y-122810757D01*
X105396128Y-122805777D01*
X105454665Y-122807028D01*
X105504420Y-122814369D01*
X105529899Y-122824720D01*
X105555081Y-122855835D01*
X105584833Y-122912092D01*
X105616823Y-122987806D01*
X105648720Y-123077291D01*
X105678192Y-123174860D01*
X105686965Y-123207774D01*
X105704483Y-123275486D01*
X105727838Y-123365262D01*
X105754815Y-123468616D01*
X105783200Y-123577061D01*
X105806505Y-123665858D01*
X105832296Y-123764533D01*
X105856505Y-123858160D01*
X105877502Y-123940364D01*
X105893660Y-124004771D01*
X105903340Y-124044963D01*
X105918607Y-124106997D01*
X105937804Y-124178357D01*
X105948637Y-124216052D01*
X105975981Y-124308161D01*
X106028144Y-124058092D01*
X106061879Y-123897667D01*
X106098961Y-123723559D01*
X106136863Y-123547514D01*
X106173059Y-123381277D01*
X106199130Y-123263060D01*
X106213036Y-123196190D01*
X106228705Y-123114360D01*
X106243041Y-123033825D01*
X106244753Y-123023655D01*
X106257004Y-122956132D01*
X106269627Y-122896203D01*
X106280422Y-122854050D01*
X106283142Y-122845949D01*
X106298721Y-122804975D01*
X106792862Y-122804975D01*
X106782850Y-122848414D01*
X106775085Y-122884931D01*
X106763837Y-122941179D01*
X106751369Y-123005826D01*
X106749732Y-123014489D01*
X106738740Y-123068153D01*
X106721718Y-123145477D01*
X106700264Y-123239465D01*
X106675979Y-123343120D01*
X106650463Y-123449446D01*
X106647330Y-123462318D01*
X106623674Y-123560627D01*
X106602832Y-123649727D01*
X106585921Y-123724629D01*
X106574062Y-123780344D01*
X106568371Y-123811884D01*
X106568035Y-123815880D01*
X106564304Y-123838944D01*
X106553856Y-123887815D01*
X106537803Y-123957694D01*
X106517261Y-124043781D01*
X106493343Y-124141277D01*
X106481310Y-124189444D01*
X106456141Y-124291101D01*
X106433829Y-124384044D01*
X106415495Y-124463363D01*
X106402263Y-124524149D01*
X106395256Y-124561490D01*
X106394432Y-124569410D01*
X106389745Y-124607339D01*
X106377804Y-124663718D01*
X106361458Y-124727061D01*
X106343558Y-124785884D01*
X106334402Y-124811333D01*
X106316495Y-124844565D01*
X106285520Y-124891039D01*
X106254052Y-124933104D01*
X106207810Y-124985288D01*
X106165416Y-125016609D01*
X106121942Y-125033305D01*
X106067502Y-125042173D01*
X105998656Y-125045356D01*
X105925339Y-125043333D01*
X105857484Y-125036586D01*
X105805025Y-125025595D01*
X105784804Y-125016995D01*
X105739958Y-124976990D01*
X105692214Y-124915448D01*
X105646639Y-124841403D01*
X105608299Y-124763889D01*
X105582260Y-124691940D01*
X105573542Y-124640267D01*
X105569363Y-124612114D01*
X105558352Y-124560199D01*
X105542048Y-124491222D01*
X105521987Y-124411887D01*
X105515588Y-124387531D01*
X105491907Y-124297552D01*
X105468478Y-124207446D01*
X105447840Y-124127042D01*
X105432531Y-124066172D01*
X105431200Y-124060759D01*
X105404108Y-123950187D01*
X105393110Y-124022838D01*
X105385097Y-124065034D01*
X105370853Y-124129724D01*
X105352230Y-124208863D01*
X105331081Y-124294403D01*
X105325816Y-124315065D01*
X105302090Y-124408650D01*
X105278073Y-124505174D01*
X105256434Y-124593805D01*
X105239842Y-124663710D01*
X105238643Y-124668905D01*
X105197129Y-124800754D01*
X105139269Y-124907813D01*
X105065922Y-124988554D01*
X105054612Y-124997558D01*
X105023315Y-125018847D01*
X104991683Y-125031920D01*
X104950366Y-125038996D01*
X104890016Y-125042294D01*
X104863326Y-125042952D01*
X104797296Y-125043310D01*
X104740536Y-125041769D01*
X104702679Y-125038652D01*
X104696206Y-125037394D01*
X104628720Y-125003209D01*
X104567692Y-124938527D01*
X104513398Y-124843829D01*
X104466117Y-124719600D01*
X104426125Y-124566322D01*
X104426105Y-124566231D01*
X104409851Y-124492786D01*
X104387989Y-124396504D01*
X104362337Y-124285254D01*
X104334712Y-124166905D01*
X104306933Y-124049328D01*
X104299773Y-124019286D01*
X104275460Y-123916437D01*
X104253842Y-123823014D01*
X104235961Y-123743679D01*
X104222859Y-123683095D01*
X104215576Y-123645927D01*
X104214428Y-123637057D01*
X104210835Y-123614767D01*
X104200800Y-123566768D01*
X104185440Y-123498027D01*
X104165870Y-123413508D01*
X104143206Y-123318179D01*
X104136773Y-123291527D01*
X104112538Y-123189384D01*
X104090395Y-123092195D01*
X104071682Y-123006137D01*
X104057735Y-122937390D01*
X104049894Y-122892131D01*
X104049297Y-122887500D01*
X104039476Y-122804167D01*
X104538246Y-122812873D01*
G37*
G36*
X110943532Y-123421020D02*
G01*
X109632463Y-123421020D01*
X109632463Y-123657960D01*
X110944278Y-123657960D01*
X110939956Y-123930441D01*
X110935634Y-124202923D01*
X110284048Y-124207047D01*
X109632463Y-124211171D01*
X109632463Y-125048010D01*
X109173253Y-125048010D01*
X109177764Y-124056810D01*
X109182276Y-123065609D01*
X109233365Y-122970436D01*
X109251337Y-122936162D01*
X109267210Y-122907252D01*
X109283687Y-122883236D01*
X109303472Y-122863644D01*
X109329267Y-122848006D01*
X109363776Y-122835852D01*
X109409701Y-122826712D01*
X109469747Y-122820116D01*
X109546617Y-122815595D01*
X109643012Y-122812678D01*
X109761637Y-122810894D01*
X109905195Y-122809776D01*
X110076389Y-122808851D01*
X110165578Y-122808359D01*
X110943532Y-122803845D01*
X110943532Y-123421020D01*
G37*
G36*
X100177590Y-122361365D02*
G01*
X100195375Y-122205080D01*
X100222070Y-122069399D01*
X100258722Y-121950837D01*
X100306375Y-121845908D01*
X100366076Y-121751127D01*
X100438872Y-121663008D01*
X100512652Y-121589984D01*
X100652121Y-121482984D01*
X100811250Y-121397502D01*
X100986118Y-121334027D01*
X101172806Y-121293050D01*
X101367395Y-121275061D01*
X101565965Y-121280552D01*
X101764598Y-121310011D01*
X101959372Y-121363930D01*
X102048365Y-121397818D01*
X102164827Y-121446326D01*
X102258049Y-121360020D01*
X102410506Y-121240009D01*
X102581685Y-121143483D01*
X102767811Y-121071742D01*
X102965110Y-121026088D01*
X103169810Y-121007823D01*
X103274565Y-121009409D01*
X103407023Y-121020291D01*
X103520026Y-121040200D01*
X103625118Y-121072054D01*
X103733841Y-121118776D01*
X103762471Y-121132885D01*
X103874751Y-121193085D01*
X103972705Y-121254886D01*
X104064785Y-121324599D01*
X104159444Y-121408536D01*
X104247443Y-121494964D01*
X104414724Y-121664704D01*
X104523873Y-121600665D01*
X104611990Y-121551641D01*
X104722226Y-121494431D01*
X104847321Y-121432459D01*
X104980012Y-121369147D01*
X105113040Y-121307919D01*
X105239141Y-121252198D01*
X105351054Y-121205408D01*
X105414925Y-121180595D01*
X105828104Y-121043581D01*
X106246185Y-120937556D01*
X106667924Y-120862519D01*
X107092077Y-120818470D01*
X107517402Y-120805411D01*
X107942654Y-120823340D01*
X108366590Y-120872257D01*
X108787966Y-120952163D01*
X109205538Y-121063058D01*
X109553483Y-121180541D01*
X109645015Y-121216753D01*
X109755616Y-121264018D01*
X109878666Y-121319190D01*
X110007544Y-121379123D01*
X110135627Y-121440672D01*
X110256296Y-121500691D01*
X110362929Y-121556035D01*
X110448905Y-121603558D01*
X110469652Y-121615803D01*
X110572326Y-121677652D01*
X110746082Y-121500912D01*
X110852973Y-121396545D01*
X110950181Y-121312201D01*
X111045823Y-121241804D01*
X111148018Y-121179277D01*
X111241538Y-121130046D01*
X111352637Y-121080074D01*
X111458294Y-121045455D01*
X111569948Y-121023337D01*
X111699034Y-121010870D01*
X111725435Y-121009409D01*
X111932523Y-121013383D01*
X112134085Y-121045423D01*
X112326363Y-121104231D01*
X112505596Y-121188509D01*
X112668026Y-121296961D01*
X112742112Y-121360169D01*
X112835495Y-121446625D01*
X112949483Y-121398118D01*
X113150617Y-121329300D01*
X113362932Y-121288177D01*
X113581873Y-121275048D01*
X113802888Y-121290212D01*
X114001844Y-121328821D01*
X114057258Y-121346573D01*
X114129062Y-121374474D01*
X114205723Y-121407889D01*
X114244900Y-121426507D01*
X114371131Y-121500958D01*
X114488748Y-121593850D01*
X114591135Y-121698872D01*
X114671678Y-121809714D01*
X114698875Y-121859487D01*
X114749556Y-121989254D01*
X114788973Y-122145350D01*
X114817235Y-122324630D01*
X114834446Y-122523947D01*
X114840714Y-122740157D01*
X114836144Y-122970112D01*
X114820842Y-123210667D01*
X114794916Y-123458676D01*
X114758471Y-123710993D01*
X114711614Y-123964473D01*
X114654451Y-124215969D01*
X114614087Y-124368781D01*
X114550149Y-124590580D01*
X114488988Y-124786037D01*
X114428537Y-124960029D01*
X114366729Y-125117431D01*
X114301497Y-125263121D01*
X114230772Y-125401974D01*
X114152488Y-125538867D01*
X114064578Y-125678676D01*
X114048222Y-125703545D01*
X113943285Y-125851296D01*
X113838221Y-125978314D01*
X113734960Y-126082925D01*
X113635429Y-126163456D01*
X113541557Y-126218236D01*
X113455274Y-126245590D01*
X113419900Y-126248507D01*
X113367889Y-126248507D01*
X113367214Y-126663153D01*
X113363363Y-126922514D01*
X113352077Y-127159267D01*
X113332421Y-127381724D01*
X113303461Y-127598192D01*
X113264260Y-127816982D01*
X113213884Y-128046402D01*
X113209442Y-128065050D01*
X113095028Y-128475706D01*
X112951498Y-128875431D01*
X112779888Y-129262731D01*
X112581229Y-129636115D01*
X112356558Y-129994089D01*
X112106907Y-130335159D01*
X111833310Y-130657833D01*
X111536802Y-130960617D01*
X111218417Y-131242019D01*
X110879188Y-131500546D01*
X110785342Y-131565430D01*
X110432916Y-131785726D01*
X110063133Y-131981807D01*
X109680190Y-132151798D01*
X109288285Y-132293821D01*
X108921642Y-132398612D01*
X108739180Y-132440799D01*
X108547323Y-132479323D01*
X108356582Y-132512325D01*
X108177467Y-132537946D01*
X108060759Y-132550859D01*
X107983903Y-132556740D01*
X107887126Y-132562165D01*
X107776980Y-132566961D01*
X107660011Y-132570956D01*
X107542771Y-132573976D01*
X107431807Y-132575850D01*
X107333670Y-132576405D01*
X107254908Y-132575468D01*
X107207774Y-132573345D01*
X107003645Y-132556542D01*
X106824365Y-132538922D01*
X106663194Y-132519470D01*
X106513389Y-132497172D01*
X106368209Y-132471012D01*
X106220912Y-132439977D01*
X106064756Y-132403051D01*
X106046766Y-132398590D01*
X105639207Y-132281131D01*
X105244319Y-132135425D01*
X104863270Y-131962647D01*
X104497229Y-131763975D01*
X104147365Y-131540585D01*
X103814845Y-131293652D01*
X103500838Y-131024353D01*
X103206514Y-130733866D01*
X102933039Y-130423365D01*
X102681583Y-130094027D01*
X102453315Y-129747028D01*
X102249402Y-129383546D01*
X102071013Y-129004755D01*
X101919317Y-128611833D01*
X101795482Y-128205956D01*
X101765618Y-128088744D01*
X101713500Y-127859947D01*
X101672568Y-127644072D01*
X101641869Y-127432842D01*
X101620448Y-127217983D01*
X101607350Y-126991221D01*
X101601622Y-126744280D01*
X101601194Y-126663153D01*
X101600519Y-126248507D01*
X101560015Y-126248507D01*
X101497563Y-126235409D01*
X101422653Y-126198203D01*
X101338833Y-126140020D01*
X101249646Y-126063991D01*
X101158639Y-125973249D01*
X101069356Y-125870923D01*
X100985342Y-125760146D01*
X100952554Y-125711963D01*
X100833726Y-125520003D01*
X100729487Y-125326376D01*
X100636520Y-125123793D01*
X100551510Y-124904964D01*
X100471139Y-124662602D01*
X100462959Y-124635903D01*
X100375308Y-124331020D01*
X100304430Y-124045582D01*
X100249277Y-123772949D01*
X100208797Y-123506481D01*
X100181941Y-123239540D01*
X100167657Y-122965486D01*
X100164564Y-122749689D01*
X100165464Y-122689402D01*
X100335653Y-122689402D01*
X100335776Y-122839828D01*
X100338927Y-122990893D01*
X100345101Y-123136433D01*
X100354299Y-123270288D01*
X100365900Y-123381530D01*
X100390067Y-123561079D01*
X100414472Y-123720728D01*
X100440781Y-123868206D01*
X100470658Y-124011242D01*
X100505768Y-124157563D01*
X100547774Y-124314899D01*
X100598342Y-124490978D01*
X100621995Y-124570577D01*
X100702245Y-124815046D01*
X100792276Y-125046681D01*
X100890541Y-125262762D01*
X100995492Y-125460568D01*
X101105582Y-125637381D01*
X101219262Y-125790482D01*
X101334985Y-125917151D01*
X101438774Y-126005696D01*
X101494546Y-126044012D01*
X101537510Y-126065260D01*
X101578035Y-126073838D01*
X101601605Y-126074751D01*
X101691666Y-126061552D01*
X101796379Y-126021864D01*
X101915941Y-125955551D01*
X102050546Y-125862475D01*
X102200390Y-125742500D01*
X102365668Y-125595488D01*
X102546577Y-125421304D01*
X102571644Y-125396266D01*
X102701913Y-125262227D01*
X102811105Y-125141638D01*
X102903402Y-125028973D01*
X102982985Y-124918708D01*
X103054035Y-124805317D01*
X103120733Y-124683274D01*
X103139990Y-124645211D01*
X103216849Y-124472118D01*
X103273199Y-124299476D01*
X103312119Y-124116429D01*
X103331263Y-123970263D01*
X103339933Y-123897146D01*
X103349484Y-123834848D01*
X103358670Y-123790594D01*
X103365325Y-123772481D01*
X103395647Y-123756109D01*
X103437906Y-123754443D01*
X103476382Y-123766915D01*
X103488217Y-123776920D01*
X103499177Y-123808775D01*
X103503474Y-123865741D01*
X103501585Y-123942158D01*
X103493989Y-124032361D01*
X103481161Y-124130688D01*
X103463580Y-124231478D01*
X103441723Y-124329066D01*
X103441666Y-124329291D01*
X103392998Y-124485378D01*
X103324913Y-124652046D01*
X103242109Y-124819470D01*
X103149288Y-124977826D01*
X103088490Y-125067531D01*
X102984953Y-125202068D01*
X102866006Y-125341025D01*
X102735443Y-125481003D01*
X102597057Y-125618600D01*
X102454640Y-125750416D01*
X102311986Y-125873051D01*
X102172886Y-125983105D01*
X102041135Y-126077175D01*
X101920524Y-126151863D01*
X101826674Y-126198829D01*
X101754422Y-126229800D01*
X101743355Y-126480043D01*
X101740502Y-126804585D01*
X101759190Y-127143545D01*
X101798538Y-127489084D01*
X101857664Y-127833364D01*
X101931301Y-128151928D01*
X102052749Y-128553734D01*
X102202463Y-128943068D01*
X102379263Y-129318635D01*
X102581967Y-129679138D01*
X102809395Y-130023282D01*
X103060366Y-130349769D01*
X103333699Y-130657305D01*
X103628213Y-130944592D01*
X103942728Y-131210335D01*
X104276063Y-131453238D01*
X104627037Y-131672004D01*
X104994469Y-131865337D01*
X105377178Y-132031941D01*
X105512523Y-132082976D01*
X105922504Y-132215384D01*
X106335090Y-132316323D01*
X106750654Y-132385836D01*
X107169567Y-132423967D01*
X107592199Y-132430759D01*
X108018923Y-132406257D01*
X108148190Y-132392765D01*
X108564931Y-132329212D01*
X108972067Y-132236193D01*
X109368351Y-132114710D01*
X109752536Y-131965764D01*
X110123376Y-131790355D01*
X110479624Y-131589483D01*
X110820033Y-131364151D01*
X111143358Y-131115358D01*
X111448350Y-130844106D01*
X111733764Y-130551395D01*
X111998353Y-130238227D01*
X112240870Y-129905602D01*
X112460068Y-129554521D01*
X112654702Y-129185984D01*
X112823523Y-128800993D01*
X112909133Y-128570522D01*
X113021041Y-128214185D01*
X113107364Y-127860652D01*
X113169127Y-127503727D01*
X113207352Y-127137209D01*
X113223064Y-126754902D01*
X113223601Y-126667102D01*
X113223248Y-126531255D01*
X113221964Y-126423856D01*
X113219466Y-126341769D01*
X113215467Y-126281857D01*
X113209682Y-126240984D01*
X113201826Y-126216012D01*
X113191614Y-126203805D01*
X113181223Y-126201119D01*
X113153693Y-126192275D01*
X113106388Y-126168068D01*
X113044887Y-126131989D01*
X112974766Y-126087529D01*
X112901600Y-126038177D01*
X112830968Y-125987424D01*
X112791174Y-125957004D01*
X112536774Y-125744730D01*
X112308043Y-125528624D01*
X112105980Y-125309920D01*
X111931582Y-125089853D01*
X111785847Y-124869658D01*
X111669772Y-124650569D01*
X111601689Y-124484676D01*
X111573465Y-124394869D01*
X111548614Y-124295161D01*
X111527782Y-124190877D01*
X111511612Y-124087338D01*
X111500749Y-123989868D01*
X111495839Y-123903789D01*
X111497524Y-123834424D01*
X111506451Y-123787096D01*
X111515348Y-123771691D01*
X111547763Y-123756276D01*
X111590038Y-123754079D01*
X111625902Y-123764994D01*
X111634405Y-123772481D01*
X111642205Y-123795550D01*
X111651341Y-123842763D01*
X111660568Y-123906779D01*
X111667259Y-123965983D01*
X111706991Y-124213167D01*
X111776159Y-124450850D01*
X111875288Y-124680394D01*
X112004905Y-124903160D01*
X112060566Y-124983959D01*
X112148420Y-125096932D01*
X112257197Y-125221922D01*
X112381394Y-125353632D01*
X112515509Y-125486767D01*
X112654040Y-125616029D01*
X112791484Y-125736123D01*
X112922338Y-125841752D01*
X113040668Y-125927329D01*
X113155721Y-125998100D01*
X113255049Y-126045158D01*
X113342076Y-126069922D01*
X113396822Y-126074751D01*
X113464062Y-126060372D01*
X113540342Y-126018857D01*
X113623580Y-125952639D01*
X113711695Y-125864153D01*
X113802604Y-125755832D01*
X113894227Y-125630110D01*
X113984481Y-125489420D01*
X114071285Y-125336196D01*
X114133184Y-125213868D01*
X114186843Y-125099674D01*
X114231395Y-124997958D01*
X114270432Y-124899333D01*
X114307546Y-124794411D01*
X114346329Y-124673806D01*
X114371919Y-124589925D01*
X114450505Y-124316975D01*
X114514990Y-124065444D01*
X114566366Y-123828996D01*
X114605629Y-123601300D01*
X114633772Y-123376021D01*
X114651790Y-123146825D01*
X114660678Y-122907379D01*
X114662026Y-122741791D01*
X114660361Y-122573076D01*
X114655601Y-122431411D01*
X114647105Y-122312350D01*
X114634233Y-122211444D01*
X114616343Y-122124248D01*
X114592794Y-122046315D01*
X114562946Y-121973199D01*
X114546231Y-121938583D01*
X114472045Y-121824073D01*
X114371919Y-121718760D01*
X114251041Y-121626450D01*
X114114597Y-121550951D01*
X113967776Y-121496066D01*
X113928980Y-121485749D01*
X113825467Y-121466874D01*
X113704038Y-121454755D01*
X113575564Y-121449683D01*
X113450917Y-121451946D01*
X113340970Y-121461834D01*
X113298495Y-121468987D01*
X113239018Y-121483072D01*
X113169074Y-121502667D01*
X113097033Y-121525058D01*
X113031265Y-121547533D01*
X112980140Y-121567378D01*
X112953433Y-121580840D01*
X112957868Y-121595359D01*
X112973151Y-121631957D01*
X112996529Y-121684199D01*
X113011485Y-121716508D01*
X113055509Y-121823979D01*
X113098050Y-121952074D01*
X113136080Y-122089865D01*
X113166572Y-122226422D01*
X113185975Y-122346476D01*
X113192333Y-122415520D01*
X113197541Y-122504660D01*
X113201064Y-122602404D01*
X113202363Y-122697264D01*
X113202363Y-122697573D01*
X113202174Y-122784254D01*
X113201008Y-122844859D01*
X113197970Y-122884905D01*
X113192164Y-122909907D01*
X113182694Y-122925382D01*
X113168663Y-122936846D01*
X113162873Y-122940694D01*
X113131957Y-122957407D01*
X113107648Y-122954704D01*
X113083893Y-122940694D01*
X113054929Y-122912074D01*
X113044392Y-122870187D01*
X113043908Y-122855948D01*
X113041740Y-122771045D01*
X113036896Y-122671867D01*
X113029965Y-122565578D01*
X113021536Y-122459343D01*
X113012197Y-122360327D01*
X113002537Y-122275695D01*
X112993145Y-122212611D01*
X112989602Y-122195043D01*
X112946836Y-122028548D01*
X112899802Y-121888146D01*
X112845842Y-121768380D01*
X112782299Y-121663792D01*
X112706519Y-121568926D01*
X112662185Y-121522412D01*
X112601539Y-121464467D01*
X112547082Y-121419525D01*
X112489008Y-121380765D01*
X112417511Y-121341366D01*
X112361812Y-121313465D01*
X112224600Y-121252622D01*
X112097722Y-121211666D01*
X111969475Y-121187848D01*
X111828153Y-121178420D01*
X111784706Y-121177985D01*
X111621269Y-121189246D01*
X111464932Y-121223897D01*
X111313334Y-121283240D01*
X111164114Y-121368576D01*
X111014912Y-121481207D01*
X110863366Y-121622435D01*
X110742667Y-121752540D01*
X110701478Y-121797532D01*
X110667918Y-121825069D01*
X110634852Y-121835661D01*
X110595145Y-121829820D01*
X110541662Y-121808057D01*
X110469652Y-121772107D01*
X110307297Y-121688974D01*
X110169658Y-121618705D01*
X110053351Y-121559726D01*
X109954992Y-121510462D01*
X109871197Y-121469339D01*
X109798584Y-121434782D01*
X109733767Y-121405217D01*
X109673364Y-121379069D01*
X109613990Y-121354764D01*
X109552262Y-121330728D01*
X109484797Y-121305385D01*
X109408209Y-121277161D01*
X109397681Y-121273298D01*
X109178257Y-121200296D01*
X108935759Y-121133011D01*
X108678473Y-121073334D01*
X108414684Y-121023157D01*
X108152678Y-120984370D01*
X108108147Y-120978956D01*
X107982267Y-120967486D01*
X107832713Y-120959265D01*
X107667234Y-120954290D01*
X107493580Y-120952559D01*
X107319501Y-120954069D01*
X107152747Y-120958817D01*
X107001067Y-120966801D01*
X106872211Y-120978018D01*
X106860261Y-120979390D01*
X106428450Y-121045442D01*
X106009782Y-121140161D01*
X105603810Y-121263693D01*
X105210087Y-121416187D01*
X104828169Y-121597788D01*
X104601430Y-121722557D01*
X104513962Y-121772864D01*
X104448651Y-121807857D01*
X104400282Y-121827991D01*
X104363636Y-121833722D01*
X104333497Y-121825502D01*
X104304648Y-121803788D01*
X104271870Y-121769033D01*
X104257333Y-121752540D01*
X104134556Y-121619305D01*
X104020500Y-121509983D01*
X103909778Y-121420223D01*
X103797005Y-121345672D01*
X103676793Y-121281977D01*
X103672484Y-121279938D01*
X103546033Y-121227621D01*
X103426327Y-121195412D01*
X103299510Y-121180219D01*
X103215294Y-121177985D01*
X103070293Y-121183671D01*
X102941452Y-121202535D01*
X102817282Y-121237288D01*
X102686295Y-121290638D01*
X102635731Y-121314687D01*
X102551098Y-121357741D01*
X102486216Y-121395536D01*
X102431561Y-121434691D01*
X102377611Y-121481829D01*
X102333431Y-121524853D01*
X102240037Y-121631846D01*
X102161813Y-121752147D01*
X102097774Y-121888656D01*
X102046936Y-122044276D01*
X102008315Y-122221908D01*
X101980926Y-122424453D01*
X101966408Y-122606946D01*
X101947699Y-122922288D01*
X101905339Y-122946037D01*
X101872964Y-122960689D01*
X101849698Y-122955836D01*
X101828367Y-122938717D01*
X101816509Y-122927070D01*
X101807879Y-122913484D01*
X101802134Y-122893406D01*
X101798933Y-122862281D01*
X101797931Y-122815556D01*
X101798786Y-122748676D01*
X101801155Y-122657088D01*
X101802829Y-122599627D01*
X101808060Y-122468903D01*
X101815419Y-122353683D01*
X101824495Y-122259034D01*
X101834878Y-122190022D01*
X101836782Y-122181032D01*
X101873891Y-122033662D01*
X101916469Y-121894500D01*
X101961752Y-121771966D01*
X101996626Y-121694436D01*
X102050373Y-121586943D01*
X101964769Y-121549085D01*
X101877930Y-121513369D01*
X101798252Y-121487663D01*
X101717455Y-121470505D01*
X101627259Y-121460433D01*
X101519387Y-121455985D01*
X101434328Y-121455420D01*
X101299926Y-121457965D01*
X101188767Y-121466013D01*
X101092743Y-121481178D01*
X101003747Y-121505076D01*
X100913669Y-121539319D01*
X100837385Y-121574277D01*
X100697097Y-121657199D01*
X100581176Y-121759033D01*
X100488757Y-121880954D01*
X100418980Y-122024138D01*
X100370983Y-122189757D01*
X100365476Y-122217305D01*
X100353469Y-122303565D01*
X100344497Y-122415109D01*
X100338560Y-122545775D01*
X100335653Y-122689402D01*
X100165464Y-122689402D01*
X100167668Y-122541740D01*
X100177590Y-122361365D01*
G37*
G36*
X107468408Y-123657960D02*
G01*
X108463557Y-123657960D01*
X108463557Y-122804975D01*
X108921642Y-122804975D01*
X108921642Y-125048010D01*
X108463557Y-125048010D01*
X108463557Y-124210821D01*
X107468408Y-124210821D01*
X107468408Y-125048010D01*
X107010111Y-125048010D01*
X107014166Y-123930441D01*
X107018221Y-122812873D01*
X107243315Y-122808490D01*
X107468408Y-122804108D01*
X107468408Y-123657960D01*
G37*
G36*
X103798153Y-127703381D02*
G01*
X103865007Y-127486193D01*
X103962753Y-127271833D01*
X104065629Y-127099700D01*
X104217108Y-126899042D01*
X104395898Y-126710416D01*
X104599810Y-126534548D01*
X104826654Y-126372166D01*
X105074240Y-126223995D01*
X105340381Y-126090763D01*
X105622886Y-125973195D01*
X105919567Y-125872018D01*
X106228233Y-125787958D01*
X106546697Y-125721743D01*
X106872768Y-125674099D01*
X107204258Y-125645751D01*
X107538978Y-125637427D01*
X107874737Y-125649853D01*
X108209348Y-125683756D01*
X108295243Y-125696080D01*
X108631580Y-125757388D01*
X108952894Y-125836045D01*
X109258041Y-125931129D01*
X109545877Y-126041718D01*
X109815259Y-126166891D01*
X110065042Y-126305726D01*
X110294083Y-126457303D01*
X110501237Y-126620699D01*
X110685362Y-126794993D01*
X110845312Y-126979263D01*
X110979944Y-127172589D01*
X111088115Y-127374048D01*
X111168680Y-127582719D01*
X111220495Y-127797682D01*
X111242416Y-128018013D01*
X111243106Y-128070744D01*
X111226861Y-128294441D01*
X111180457Y-128513102D01*
X111105058Y-128725806D01*
X111001827Y-128931634D01*
X110871928Y-129129665D01*
X110716524Y-129318979D01*
X110536780Y-129498657D01*
X110333858Y-129667778D01*
X110108923Y-129825422D01*
X109863138Y-129970670D01*
X109597667Y-130102600D01*
X109313673Y-130220294D01*
X109012321Y-130322830D01*
X108694772Y-130409290D01*
X108362193Y-130478753D01*
X108155535Y-130511943D01*
X108057525Y-130524897D01*
X107953591Y-130536878D01*
X107856055Y-130546562D01*
X107777242Y-130552624D01*
X107776430Y-130552671D01*
X107699613Y-130557211D01*
X107626144Y-130561735D01*
X107567352Y-130565540D01*
X107547388Y-130566924D01*
X107503450Y-130567870D01*
X107437195Y-130566601D01*
X107357797Y-130563392D01*
X107278856Y-130558819D01*
X106910917Y-130522632D01*
X106552339Y-130464526D01*
X106205294Y-130385367D01*
X105871956Y-130286023D01*
X105554499Y-130167359D01*
X105255097Y-130030243D01*
X104975923Y-129875542D01*
X104719152Y-129704123D01*
X104486956Y-129516852D01*
X104356553Y-129393428D01*
X104181939Y-129198394D01*
X104036957Y-128996238D01*
X103921764Y-128788204D01*
X103836518Y-128575534D01*
X103781376Y-128359473D01*
X103756496Y-128141265D01*
X103761750Y-127933466D01*
X105178872Y-127933466D01*
X105179609Y-128076750D01*
X105190373Y-128207623D01*
X105200548Y-128269501D01*
X105251135Y-128460343D01*
X105320629Y-128628358D01*
X105408367Y-128772555D01*
X105513690Y-128891943D01*
X105635939Y-128985530D01*
X105701244Y-129021390D01*
X105755841Y-129047210D01*
X105797782Y-129063391D01*
X105837330Y-129071832D01*
X105884751Y-129074432D01*
X105950312Y-129073091D01*
X105975684Y-129072181D01*
X106056031Y-129067876D01*
X106115470Y-129060478D01*
X106164672Y-129047832D01*
X106214309Y-129027787D01*
X106228420Y-129021185D01*
X106344365Y-128948986D01*
X106449795Y-128849251D01*
X106542885Y-128724815D01*
X106621808Y-128578515D01*
X106684740Y-128413188D01*
X106726947Y-128246704D01*
X106737296Y-128168527D01*
X106742969Y-128069057D01*
X106744075Y-127958232D01*
X106743797Y-127948928D01*
X108252542Y-127948928D01*
X108254731Y-128072347D01*
X108262496Y-128186853D01*
X108275837Y-128282441D01*
X108279460Y-128299674D01*
X108330443Y-128475169D01*
X108398219Y-128631333D01*
X108480901Y-128766720D01*
X108576604Y-128879884D01*
X108683440Y-128969378D01*
X108799525Y-129033755D01*
X108922972Y-129071569D01*
X109051894Y-129081374D01*
X109184407Y-129061723D01*
X109247343Y-129041918D01*
X109375227Y-128977999D01*
X109490193Y-128885679D01*
X109591490Y-128765714D01*
X109678367Y-128618859D01*
X109688062Y-128598889D01*
X109742009Y-128470791D01*
X109779777Y-128344202D01*
X109803836Y-128208582D01*
X109816654Y-128053392D01*
X109816848Y-128049254D01*
X109819248Y-127897575D01*
X109810219Y-127764089D01*
X109788213Y-127636982D01*
X109751685Y-127504438D01*
X109741365Y-127472836D01*
X109672899Y-127306868D01*
X109586536Y-127163170D01*
X109483774Y-127043612D01*
X109366110Y-126950066D01*
X109288478Y-126906964D01*
X109234163Y-126882702D01*
X109188930Y-126867758D01*
X109141515Y-126859923D01*
X109080657Y-126856986D01*
X109032214Y-126856654D01*
X108957592Y-126857699D01*
X108903427Y-126862274D01*
X108858616Y-126872538D01*
X108812053Y-126890648D01*
X108779478Y-126905785D01*
X108650906Y-126984631D01*
X108537334Y-127090192D01*
X108439937Y-127220775D01*
X108359893Y-127374685D01*
X108298378Y-127550231D01*
X108279432Y-127625209D01*
X108264892Y-127715356D01*
X108255929Y-127826596D01*
X108252542Y-127948928D01*
X106743797Y-127948928D01*
X106740722Y-127845985D01*
X106733015Y-127742255D01*
X106721063Y-127656976D01*
X106720551Y-127654353D01*
X106674437Y-127478032D01*
X106610302Y-127319344D01*
X106529953Y-127180327D01*
X106435196Y-127063018D01*
X106327839Y-126969456D01*
X106209688Y-126901678D01*
X106082550Y-126861722D01*
X106009495Y-126852347D01*
X105870005Y-126858403D01*
X105738556Y-126894070D01*
X105616613Y-126958058D01*
X105505643Y-127049075D01*
X105407110Y-127165834D01*
X105322480Y-127307043D01*
X105253219Y-127471414D01*
X105232191Y-127536471D01*
X105205626Y-127652595D01*
X105187699Y-127788504D01*
X105178872Y-127933466D01*
X103761750Y-127933466D01*
X103762036Y-127922153D01*
X103798153Y-127703381D01*
G37*
%TO.C,C14*%
X146216233Y-63110000D02*
X146508767Y-63110000D01*
X146216233Y-62090000D02*
X146508767Y-62090000D01*
%TO.C,D1*%
X142860000Y-59540000D02*
X140940000Y-59540000D01*
X140940000Y-59540000D02*
X140940000Y-62400000D01*
X142860000Y-62400000D02*
X142860000Y-59540000D01*
%TO.C,R11*%
X96227500Y-70975276D02*
X96227500Y-71484724D01*
X97272500Y-70975276D02*
X97272500Y-71484724D01*
%TO.C,R2*%
X144522500Y-60845276D02*
X144522500Y-61354724D01*
X143477500Y-60845276D02*
X143477500Y-61354724D01*
%TO.C,C13*%
X151508767Y-61765000D02*
X151216233Y-61765000D01*
X151508767Y-62785000D02*
X151216233Y-62785000D01*
%TO.C,C38*%
X108844051Y-86512802D02*
X108637198Y-86305949D01*
X108122802Y-87234051D02*
X107915949Y-87027198D01*
%TO.C,C37*%
X103780000Y-56396267D02*
X103780000Y-56103733D01*
X104800000Y-56396267D02*
X104800000Y-56103733D01*
%TO.C,U4*%
X149012500Y-60885000D02*
X152772500Y-60885000D01*
X152772500Y-54065000D02*
X152772500Y-55325000D01*
X146762500Y-54065000D02*
X152772500Y-54065000D01*
X152772500Y-60885000D02*
X152772500Y-59625000D01*
%TO.C,FB1*%
X139168767Y-60415000D02*
X138876233Y-60415000D01*
X139168767Y-61435000D02*
X138876233Y-61435000D01*
D19*
%TO.C,IC1*%
X113500000Y-57962839D02*
X127147161Y-71610000D01*
X127147161Y-71610000D02*
X113500000Y-85257161D01*
X99852839Y-71610000D02*
X113500000Y-57962839D01*
X113500000Y-85257161D02*
X99852839Y-71610000D01*
D21*
X112405241Y-56955212D02*
G75*
G03*
X112405241Y-56955212I-125000J0D01*
G01*
%TD*%
M02*
