%TF.GenerationSoftware,KiCad,Pcbnew,(6.0.7)*%
%TF.CreationDate,2022-11-16T18:44:32-05:00*%
%TF.ProjectId,Telemetry_KiCAD_Project,54656c65-6d65-4747-9279-5f4b69434144,rev?*%
%TF.SameCoordinates,Original*%
%TF.FileFunction,Paste,Top*%
%TF.FilePolarity,Positive*%
%FSLAX46Y46*%
G04 Gerber Fmt 4.6, Leading zero omitted, Abs format (unit mm)*
G04 Created by KiCad (PCBNEW (6.0.7)) date 2022-11-16 18:44:32*
%MOMM*%
%LPD*%
G01*
G04 APERTURE LIST*
G04 Aperture macros list*
%AMRoundRect*
0 Rectangle with rounded corners*
0 $1 Rounding radius*
0 $2 $3 $4 $5 $6 $7 $8 $9 X,Y pos of 4 corners*
0 Add a 4 corners polygon primitive as box body*
4,1,4,$2,$3,$4,$5,$6,$7,$8,$9,$2,$3,0*
0 Add four circle primitives for the rounded corners*
1,1,$1+$1,$2,$3*
1,1,$1+$1,$4,$5*
1,1,$1+$1,$6,$7*
1,1,$1+$1,$8,$9*
0 Add four rect primitives between the rounded corners*
20,1,$1+$1,$2,$3,$4,$5,0*
20,1,$1+$1,$4,$5,$6,$7,0*
20,1,$1+$1,$6,$7,$8,$9,0*
20,1,$1+$1,$8,$9,$2,$3,0*%
%AMRotRect*
0 Rectangle, with rotation*
0 The origin of the aperture is its center*
0 $1 length*
0 $2 width*
0 $3 Rotation angle, in degrees counterclockwise*
0 Add horizontal line*
21,1,$1,$2,0,0,$3*%
G04 Aperture macros list end*
%ADD10RoundRect,0.237500X-0.044194X-0.380070X0.380070X0.044194X0.044194X0.380070X-0.380070X-0.044194X0*%
%ADD11RoundRect,0.237500X0.237500X-0.300000X0.237500X0.300000X-0.237500X0.300000X-0.237500X-0.300000X0*%
%ADD12RoundRect,0.237500X0.044194X0.380070X-0.380070X-0.044194X-0.044194X-0.380070X0.380070X0.044194X0*%
%ADD13RoundRect,0.237500X0.237500X-0.287500X0.237500X0.287500X-0.237500X0.287500X-0.237500X-0.287500X0*%
%ADD14R,0.340000X0.230000*%
%ADD15R,0.340000X0.620000*%
%ADD16R,0.340000X0.190000*%
%ADD17R,0.310000X0.230000*%
%ADD18RoundRect,0.237500X-0.300000X-0.237500X0.300000X-0.237500X0.300000X0.237500X-0.300000X0.237500X0*%
%ADD19RoundRect,0.150000X-0.512500X-0.150000X0.512500X-0.150000X0.512500X0.150000X-0.512500X0.150000X0*%
%ADD20RoundRect,0.237500X-0.237500X0.300000X-0.237500X-0.300000X0.237500X-0.300000X0.237500X0.300000X0*%
%ADD21RoundRect,0.140000X-0.170000X0.140000X-0.170000X-0.140000X0.170000X-0.140000X0.170000X0.140000X0*%
%ADD22RoundRect,0.140000X-0.140000X-0.170000X0.140000X-0.170000X0.140000X0.170000X-0.140000X0.170000X0*%
%ADD23RoundRect,0.250000X0.315000X-0.315000X0.315000X0.315000X-0.315000X0.315000X-0.315000X-0.315000X0*%
%ADD24RoundRect,0.062500X0.062500X-0.362500X0.062500X0.362500X-0.062500X0.362500X-0.062500X-0.362500X0*%
%ADD25RoundRect,0.062500X0.362500X-0.062500X0.362500X0.062500X-0.362500X0.062500X-0.362500X-0.062500X0*%
%ADD26RoundRect,0.147500X-0.147500X-0.172500X0.147500X-0.172500X0.147500X0.172500X-0.147500X0.172500X0*%
%ADD27R,2.600000X1.900000*%
%ADD28RoundRect,0.147500X-0.172500X0.147500X-0.172500X-0.147500X0.172500X-0.147500X0.172500X0.147500X0*%
%ADD29R,0.400000X1.350000*%
%ADD30R,1.500000X1.900000*%
%ADD31RoundRect,0.140000X0.140000X0.170000X-0.140000X0.170000X-0.140000X-0.170000X0.140000X-0.170000X0*%
%ADD32RoundRect,0.135000X0.185000X-0.135000X0.185000X0.135000X-0.185000X0.135000X-0.185000X-0.135000X0*%
%ADD33RoundRect,0.145000X-0.205000X0.145000X-0.205000X-0.145000X0.205000X-0.145000X0.205000X0.145000X0*%
%ADD34RoundRect,0.087500X-0.087500X0.200000X-0.087500X-0.200000X0.087500X-0.200000X0.087500X0.200000X0*%
%ADD35RoundRect,0.140000X0.170000X-0.140000X0.170000X0.140000X-0.170000X0.140000X-0.170000X-0.140000X0*%
%ADD36RoundRect,0.147500X0.147500X0.172500X-0.147500X0.172500X-0.147500X-0.172500X0.147500X-0.172500X0*%
%ADD37RoundRect,0.237500X0.287500X0.237500X-0.287500X0.237500X-0.287500X-0.237500X0.287500X-0.237500X0*%
%ADD38RoundRect,0.147500X0.172500X-0.147500X0.172500X0.147500X-0.172500X0.147500X-0.172500X-0.147500X0*%
%ADD39RotRect,1.900000X2.600000X225.000000*%
%ADD40RoundRect,0.237500X0.300000X0.237500X-0.300000X0.237500X-0.300000X-0.237500X0.300000X-0.237500X0*%
%ADD41RotRect,1.550000X1.300000X45.000000*%
%ADD42RoundRect,0.237500X0.237500X-0.250000X0.237500X0.250000X-0.237500X0.250000X-0.237500X-0.250000X0*%
%ADD43RoundRect,0.090000X0.161927X-0.034648X-0.034648X0.161927X-0.161927X0.034648X0.034648X-0.161927X0*%
%ADD44RoundRect,0.250000X-0.450000X0.325000X-0.450000X-0.325000X0.450000X-0.325000X0.450000X0.325000X0*%
%ADD45RoundRect,0.237500X-0.237500X0.250000X-0.237500X-0.250000X0.237500X-0.250000X0.237500X0.250000X0*%
%ADD46RoundRect,0.237500X0.380070X-0.044194X-0.044194X0.380070X-0.380070X0.044194X0.044194X-0.380070X0*%
%ADD47R,2.200000X1.000000*%
%ADD48R,1.800000X3.400000*%
%ADD49RotRect,0.300000X1.475000X45.000000*%
%ADD50RotRect,0.300000X1.475000X315.000000*%
G04 APERTURE END LIST*
D10*
%TO.C,C25*%
X95755927Y-61049074D03*
X96975687Y-59829314D03*
%TD*%
D11*
%TO.C,C27*%
X118930000Y-57012500D03*
X118930000Y-55287500D03*
%TD*%
D10*
%TO.C,C28*%
X129090120Y-74809880D03*
X130309880Y-73590120D03*
%TD*%
%TO.C,C30*%
X118660120Y-86479880D03*
X119879880Y-85260120D03*
%TD*%
%TO.C,C31*%
X120290120Y-88049880D03*
X121509880Y-86830120D03*
%TD*%
D12*
%TO.C,C32*%
X98329880Y-75360120D03*
X97110120Y-76579880D03*
%TD*%
D11*
%TO.C,C35*%
X108700000Y-57112500D03*
X108700000Y-55387500D03*
%TD*%
D13*
%TO.C,R4*%
X123740000Y-59285000D03*
X123740000Y-57535000D03*
%TD*%
%TO.C,R5*%
X121700000Y-58885000D03*
X121700000Y-57135000D03*
%TD*%
D14*
%TO.C,U3*%
X141340000Y-122765000D03*
D15*
X141880000Y-122960000D03*
D14*
X142450000Y-122765000D03*
D16*
X142450000Y-123175000D03*
D14*
X142450000Y-123585000D03*
D17*
X141895000Y-123585000D03*
D14*
X141340000Y-123585000D03*
D16*
X141340000Y-123175000D03*
%TD*%
D11*
%TO.C,C34*%
X106430000Y-57112500D03*
X106430000Y-55387500D03*
%TD*%
%TO.C,C26*%
X116901251Y-57012500D03*
X116901251Y-55287500D03*
%TD*%
D18*
%TO.C,C29*%
X128980000Y-70110000D03*
X130705000Y-70110000D03*
%TD*%
D19*
%TO.C,U5*%
X129562500Y-58425000D03*
X129562500Y-59375000D03*
X129562500Y-60325000D03*
X131837500Y-60325000D03*
X131837500Y-59375000D03*
X131837500Y-58425000D03*
%TD*%
D20*
%TO.C,C2*%
X126720000Y-87445001D03*
X126720000Y-89170001D03*
%TD*%
D21*
%TO.C,C3*%
X137300000Y-87615000D03*
X137300000Y-88575000D03*
%TD*%
D22*
%TO.C,C12*%
X151130000Y-105915000D03*
X152090000Y-105915000D03*
%TD*%
D21*
%TO.C,C15*%
X152540000Y-85715000D03*
X152540000Y-86675000D03*
%TD*%
%TO.C,C17*%
X152540000Y-87615000D03*
X152540000Y-88575000D03*
%TD*%
D23*
%TO.C,U1*%
X133500000Y-88025000D03*
X133500000Y-86725000D03*
X134800000Y-88025000D03*
X134800000Y-86725000D03*
D24*
X133150000Y-89300000D03*
X133650000Y-89300000D03*
X134150000Y-89300000D03*
X134650000Y-89300000D03*
X135150000Y-89300000D03*
D25*
X136075000Y-88375000D03*
X136075000Y-87875000D03*
X136075000Y-87375000D03*
X136075000Y-86875000D03*
X136075000Y-86375000D03*
D24*
X135150000Y-85450000D03*
X134650000Y-85450000D03*
X134150000Y-85450000D03*
X133650000Y-85450000D03*
X133150000Y-85450000D03*
D25*
X132225000Y-86375000D03*
X132225000Y-86875000D03*
X132225000Y-87375000D03*
X132225000Y-87875000D03*
X132225000Y-88375000D03*
%TD*%
D26*
%TO.C,L1*%
X133437500Y-92525000D03*
X134407500Y-92525000D03*
%TD*%
D21*
%TO.C,C7*%
X133400000Y-93815000D03*
X133400000Y-94775000D03*
%TD*%
%TO.C,C8*%
X133900000Y-95765000D03*
X133900000Y-96725000D03*
%TD*%
%TO.C,C6*%
X135700000Y-91515000D03*
X135700000Y-92475000D03*
%TD*%
D27*
%TO.C,Y1*%
X129490000Y-88770000D03*
X129490000Y-84470000D03*
%TD*%
D28*
%TO.C,L2*%
X134420000Y-93810000D03*
X134420000Y-94780000D03*
%TD*%
D29*
%TO.C,J4*%
X139200000Y-57837500D03*
X138550000Y-57837500D03*
X137900000Y-57837500D03*
X137250000Y-57837500D03*
X136600000Y-57837500D03*
D30*
X138900000Y-55137500D03*
X136900000Y-55137500D03*
%TD*%
D11*
%TO.C,C18*%
X141970000Y-85795000D03*
X141970000Y-84070000D03*
%TD*%
%TO.C,C4*%
X126719999Y-85795000D03*
X126719999Y-84070000D03*
%TD*%
D22*
%TO.C,C11*%
X147960000Y-105295000D03*
X148920000Y-105295000D03*
%TD*%
D28*
%TO.C,L9*%
X149900000Y-99492501D03*
X149900000Y-100462501D03*
%TD*%
%TO.C,L4*%
X149900000Y-105285000D03*
X149900000Y-106255000D03*
%TD*%
D22*
%TO.C,C21*%
X150880000Y-100475000D03*
X151840000Y-100475000D03*
%TD*%
D28*
%TO.C,L11*%
X149900000Y-103345000D03*
X149900000Y-104315000D03*
%TD*%
D31*
%TO.C,C22*%
X148920000Y-102395000D03*
X147960000Y-102395000D03*
%TD*%
D32*
%TO.C,R1*%
X151980000Y-109085000D03*
X151980000Y-108065000D03*
%TD*%
D33*
%TO.C,U2*%
X150085000Y-108230000D03*
X149215000Y-108960000D03*
X149215000Y-108230000D03*
X150085000Y-108960000D03*
D34*
X150400000Y-107307500D03*
X149900000Y-107307500D03*
X149400000Y-107307500D03*
X148900000Y-107307500D03*
X148900000Y-109882500D03*
X149400000Y-109882500D03*
X149900000Y-109882500D03*
X150400000Y-109882500D03*
%TD*%
D35*
%TO.C,C9*%
X132890000Y-108885000D03*
X132890000Y-107925000D03*
%TD*%
D28*
%TO.C,L3*%
X133900000Y-108905000D03*
X133900000Y-109875000D03*
%TD*%
D35*
%TO.C,C10*%
X134910000Y-109745000D03*
X134910000Y-108785000D03*
%TD*%
D36*
%TO.C,L8*%
X148910000Y-95395000D03*
X147940000Y-95395000D03*
%TD*%
D26*
%TO.C,L6*%
X150880000Y-92525000D03*
X151850000Y-92525000D03*
%TD*%
D21*
%TO.C,C20*%
X149900000Y-92482500D03*
X149900000Y-93442500D03*
%TD*%
D28*
%TO.C,L7*%
X149900000Y-94395000D03*
X149900000Y-95365000D03*
%TD*%
D27*
%TO.C,Y2*%
X144740000Y-88770000D03*
X144740000Y-84470000D03*
%TD*%
D23*
%TO.C,U6*%
X150050000Y-86725000D03*
X150050000Y-88025000D03*
X148750000Y-86725000D03*
X148750000Y-88025000D03*
D24*
X148400000Y-89300000D03*
X148900000Y-89300000D03*
X149400000Y-89300000D03*
X149900000Y-89300000D03*
X150400000Y-89300000D03*
D25*
X151325000Y-88375000D03*
X151325000Y-87875000D03*
X151325000Y-87375000D03*
X151325000Y-86875000D03*
X151325000Y-86375000D03*
D24*
X150400000Y-85450000D03*
X149900000Y-85450000D03*
X149400000Y-85450000D03*
X148900000Y-85450000D03*
X148400000Y-85450000D03*
D25*
X147475000Y-86375000D03*
X147475000Y-86875000D03*
X147475000Y-87375000D03*
X147475000Y-87875000D03*
X147475000Y-88375000D03*
%TD*%
D20*
%TO.C,C16*%
X141970000Y-87455000D03*
X141970000Y-89180000D03*
%TD*%
D37*
%TO.C,D4*%
X99825000Y-100985000D03*
X98075000Y-100985000D03*
%TD*%
%TO.C,D6*%
X99825000Y-106970000D03*
X98075000Y-106970000D03*
%TD*%
%TO.C,R6*%
X103170000Y-106970000D03*
X101420000Y-106970000D03*
%TD*%
%TO.C,R8*%
X103170000Y-100985000D03*
X101420000Y-100985000D03*
%TD*%
%TO.C,R10*%
X103170000Y-95000000D03*
X101420000Y-95000000D03*
%TD*%
%TO.C,D3*%
X99825000Y-97992500D03*
X98075000Y-97992500D03*
%TD*%
%TO.C,R7*%
X103165000Y-104070000D03*
X101415000Y-104070000D03*
%TD*%
%TO.C,R9*%
X103170000Y-97992500D03*
X101420000Y-97992500D03*
%TD*%
%TO.C,D5*%
X99820000Y-104070000D03*
X98070000Y-104070000D03*
%TD*%
D38*
%TO.C,L5*%
X153030000Y-109075000D03*
X153030000Y-108105000D03*
%TD*%
D21*
%TO.C,C1*%
X137300000Y-85715000D03*
X137300000Y-86675000D03*
%TD*%
D39*
%TO.C,Y3*%
X101080280Y-59699720D03*
X98039720Y-62740280D03*
%TD*%
D12*
%TO.C,C24*%
X99380926Y-57424074D03*
X98161166Y-58643834D03*
%TD*%
D40*
%TO.C,C23*%
X98622500Y-67370000D03*
X96897500Y-67370000D03*
%TD*%
D41*
%TO.C,SW1*%
X103228570Y-80151430D03*
X97600000Y-85780000D03*
X106410550Y-83333410D03*
X100781980Y-88961980D03*
%TD*%
D37*
%TO.C,D2*%
X99825000Y-95000000D03*
X98075000Y-95000000D03*
%TD*%
D12*
%TO.C,C33*%
X99979880Y-77770120D03*
X98760120Y-78989880D03*
%TD*%
D35*
%TO.C,C5*%
X137300000Y-90455000D03*
X137300000Y-89495000D03*
%TD*%
D28*
%TO.C,L10*%
X149900000Y-101405000D03*
X149900000Y-102375000D03*
%TD*%
D35*
%TO.C,C19*%
X152540000Y-90485000D03*
X152540000Y-89525000D03*
%TD*%
D42*
%TO.C,R3*%
X145500000Y-59512500D03*
X145500000Y-57687500D03*
%TD*%
D43*
%TO.C,R12*%
X124824176Y-61044176D03*
X125435824Y-61655824D03*
%TD*%
D18*
%TO.C,C14*%
X145500000Y-62600000D03*
X147225000Y-62600000D03*
%TD*%
D44*
%TO.C,D1*%
X141900000Y-60375000D03*
X141900000Y-62425000D03*
%TD*%
D45*
%TO.C,R11*%
X96750000Y-70317500D03*
X96750000Y-72142500D03*
%TD*%
%TO.C,R2*%
X144000000Y-60187500D03*
X144000000Y-62012500D03*
%TD*%
D40*
%TO.C,C13*%
X152225000Y-62275000D03*
X150500000Y-62275000D03*
%TD*%
D46*
%TO.C,C38*%
X108989880Y-87379880D03*
X107770120Y-86160120D03*
%TD*%
D11*
%TO.C,C37*%
X104290000Y-57112500D03*
X104290000Y-55387500D03*
%TD*%
D47*
%TO.C,U4*%
X147750000Y-55225000D03*
X147750000Y-56725000D03*
X147750000Y-58225000D03*
X147750000Y-59725000D03*
D48*
X154050000Y-57475000D03*
%TD*%
D40*
%TO.C,FB1*%
X139885000Y-60925000D03*
X138160000Y-60925000D03*
%TD*%
D49*
%TO.C,IC1*%
X112094272Y-57829903D03*
X111740718Y-58183456D03*
X111387165Y-58537010D03*
X111033612Y-58890563D03*
X110680058Y-59244117D03*
X110326505Y-59597670D03*
X109972951Y-59951223D03*
X109619398Y-60304777D03*
X109265845Y-60658330D03*
X108912291Y-61011884D03*
X108558738Y-61365437D03*
X108205184Y-61718990D03*
X107851631Y-62072544D03*
X107498078Y-62426097D03*
X107144524Y-62779651D03*
X106790971Y-63133204D03*
X106437417Y-63486757D03*
X106083864Y-63840311D03*
X105730311Y-64193864D03*
X105376757Y-64547417D03*
X105023204Y-64900971D03*
X104669651Y-65254524D03*
X104316097Y-65608078D03*
X103962544Y-65961631D03*
X103608990Y-66315184D03*
X103255437Y-66668738D03*
X102901884Y-67022291D03*
X102548330Y-67375845D03*
X102194777Y-67729398D03*
X101841223Y-68082951D03*
X101487670Y-68436505D03*
X101134117Y-68790058D03*
X100780563Y-69143612D03*
X100427010Y-69497165D03*
X100073456Y-69850718D03*
X99719903Y-70204272D03*
D50*
X99719903Y-73015728D03*
X100073456Y-73369282D03*
X100427010Y-73722835D03*
X100780563Y-74076388D03*
X101134117Y-74429942D03*
X101487670Y-74783495D03*
X101841223Y-75137049D03*
X102194777Y-75490602D03*
X102548330Y-75844155D03*
X102901884Y-76197709D03*
X103255437Y-76551262D03*
X103608990Y-76904816D03*
X103962544Y-77258369D03*
X104316097Y-77611922D03*
X104669651Y-77965476D03*
X105023204Y-78319029D03*
X105376757Y-78672583D03*
X105730311Y-79026136D03*
X106083864Y-79379689D03*
X106437417Y-79733243D03*
X106790971Y-80086796D03*
X107144524Y-80440349D03*
X107498078Y-80793903D03*
X107851631Y-81147456D03*
X108205184Y-81501010D03*
X108558738Y-81854563D03*
X108912291Y-82208116D03*
X109265845Y-82561670D03*
X109619398Y-82915223D03*
X109972951Y-83268777D03*
X110326505Y-83622330D03*
X110680058Y-83975883D03*
X111033612Y-84329437D03*
X111387165Y-84682990D03*
X111740718Y-85036544D03*
X112094272Y-85390097D03*
D49*
X114905728Y-85390097D03*
X115259282Y-85036544D03*
X115612835Y-84682990D03*
X115966388Y-84329437D03*
X116319942Y-83975883D03*
X116673495Y-83622330D03*
X117027049Y-83268777D03*
X117380602Y-82915223D03*
X117734155Y-82561670D03*
X118087709Y-82208116D03*
X118441262Y-81854563D03*
X118794816Y-81501010D03*
X119148369Y-81147456D03*
X119501922Y-80793903D03*
X119855476Y-80440349D03*
X120209029Y-80086796D03*
X120562583Y-79733243D03*
X120916136Y-79379689D03*
X121269689Y-79026136D03*
X121623243Y-78672583D03*
X121976796Y-78319029D03*
X122330349Y-77965476D03*
X122683903Y-77611922D03*
X123037456Y-77258369D03*
X123391010Y-76904816D03*
X123744563Y-76551262D03*
X124098116Y-76197709D03*
X124451670Y-75844155D03*
X124805223Y-75490602D03*
X125158777Y-75137049D03*
X125512330Y-74783495D03*
X125865883Y-74429942D03*
X126219437Y-74076388D03*
X126572990Y-73722835D03*
X126926544Y-73369282D03*
X127280097Y-73015728D03*
D50*
X127280097Y-70204272D03*
X126926544Y-69850718D03*
X126572990Y-69497165D03*
X126219437Y-69143612D03*
X125865883Y-68790058D03*
X125512330Y-68436505D03*
X125158777Y-68082951D03*
X124805223Y-67729398D03*
X124451670Y-67375845D03*
X124098116Y-67022291D03*
X123744563Y-66668738D03*
X123391010Y-66315184D03*
X123037456Y-65961631D03*
X122683903Y-65608078D03*
X122330349Y-65254524D03*
X121976796Y-64900971D03*
X121623243Y-64547417D03*
X121269689Y-64193864D03*
X120916136Y-63840311D03*
X120562583Y-63486757D03*
X120209029Y-63133204D03*
X119855476Y-62779651D03*
X119501922Y-62426097D03*
X119148369Y-62072544D03*
X118794816Y-61718990D03*
X118441262Y-61365437D03*
X118087709Y-61011884D03*
X117734155Y-60658330D03*
X117380602Y-60304777D03*
X117027049Y-59951223D03*
X116673495Y-59597670D03*
X116319942Y-59244117D03*
X115966388Y-58890563D03*
X115612835Y-58537010D03*
X115259282Y-58183456D03*
X114905728Y-57829903D03*
%TD*%
M02*
