%TF.GenerationSoftware,KiCad,Pcbnew,(6.0.1)*%
%TF.CreationDate,2022-03-24T12:13:35-05:00*%
%TF.ProjectId,Telemetry_KiCAD_Project,54656c65-6d65-4747-9279-5f4b69434144,rev?*%
%TF.SameCoordinates,Original*%
%TF.FileFunction,Soldermask,Top*%
%TF.FilePolarity,Negative*%
%FSLAX46Y46*%
G04 Gerber Fmt 4.6, Leading zero omitted, Abs format (unit mm)*
G04 Created by KiCad (PCBNEW (6.0.1)) date 2022-03-24 12:13:35*
%MOMM*%
%LPD*%
G01*
G04 APERTURE LIST*
G04 Aperture macros list*
%AMRoundRect*
0 Rectangle with rounded corners*
0 $1 Rounding radius*
0 $2 $3 $4 $5 $6 $7 $8 $9 X,Y pos of 4 corners*
0 Add a 4 corners polygon primitive as box body*
4,1,4,$2,$3,$4,$5,$6,$7,$8,$9,$2,$3,0*
0 Add four circle primitives for the rounded corners*
1,1,$1+$1,$2,$3*
1,1,$1+$1,$4,$5*
1,1,$1+$1,$6,$7*
1,1,$1+$1,$8,$9*
0 Add four rect primitives between the rounded corners*
20,1,$1+$1,$2,$3,$4,$5,0*
20,1,$1+$1,$4,$5,$6,$7,0*
20,1,$1+$1,$6,$7,$8,$9,0*
20,1,$1+$1,$8,$9,$2,$3,0*%
G04 Aperture macros list end*
%ADD10C,1.600000*%
%ADD11C,0.693370*%
%ADD12C,0.450000*%
%ADD13C,0.740000*%
%ADD14C,2.000000*%
%ADD15C,3.200000*%
%ADD16C,1.093370*%
%ADD17C,0.700000*%
%ADD18C,0.800000*%
%ADD19C,0.100000*%
%ADD20C,1.500000*%
%ADD21RoundRect,0.288500X-0.044194X-0.380070X0.380070X0.044194X0.044194X0.380070X-0.380070X-0.044194X0*%
%ADD22RoundRect,0.288500X0.237500X-0.300000X0.237500X0.300000X-0.237500X0.300000X-0.237500X-0.300000X0*%
%ADD23RoundRect,0.288500X0.300000X0.237500X-0.300000X0.237500X-0.300000X-0.237500X0.300000X-0.237500X0*%
%ADD24RoundRect,0.288500X-0.300000X-0.237500X0.300000X-0.237500X0.300000X0.237500X-0.300000X0.237500X0*%
%ADD25RoundRect,0.288500X0.380070X-0.044194X-0.044194X0.380070X-0.380070X0.044194X0.044194X-0.380070X0*%
%ADD26C,2.352000*%
%ADD27RoundRect,0.288500X0.237500X-0.287500X0.237500X0.287500X-0.237500X0.287500X-0.237500X-0.287500X0*%
%ADD28RoundRect,0.126000X-1.131371X1.025305X1.025305X-1.131371X1.131371X-1.025305X-1.025305X1.131371X0*%
%ADD29RoundRect,0.126000X-1.131371X-1.025305X-1.025305X-1.131371X1.131371X1.025305X1.025305X1.131371X0*%
%ADD30RoundRect,0.051000X-0.825000X0.825000X-0.825000X-0.825000X0.825000X-0.825000X0.825000X0.825000X0*%
%ADD31C,1.752000*%
%ADD32C,4.902000*%
%ADD33RoundRect,0.051000X0.170000X-0.115000X0.170000X0.115000X-0.170000X0.115000X-0.170000X-0.115000X0*%
%ADD34RoundRect,0.051000X-0.170000X0.310000X-0.170000X-0.310000X0.170000X-0.310000X0.170000X0.310000X0*%
%ADD35RoundRect,0.051000X0.170000X-0.095000X0.170000X0.095000X-0.170000X0.095000X-0.170000X-0.095000X0*%
%ADD36RoundRect,0.051000X0.155000X-0.115000X0.155000X0.115000X-0.155000X0.115000X-0.155000X-0.115000X0*%
%ADD37RoundRect,0.201000X-0.512500X-0.150000X0.512500X-0.150000X0.512500X0.150000X-0.512500X0.150000X0*%
%ADD38RoundRect,0.288500X-0.237500X0.300000X-0.237500X-0.300000X0.237500X-0.300000X0.237500X0.300000X0*%
%ADD39RoundRect,0.191000X-0.170000X0.140000X-0.170000X-0.140000X0.170000X-0.140000X0.170000X0.140000X0*%
%ADD40RoundRect,0.191000X-0.140000X-0.170000X0.140000X-0.170000X0.140000X0.170000X-0.140000X0.170000X0*%
%ADD41RoundRect,0.113500X0.062500X-0.362500X0.062500X0.362500X-0.062500X0.362500X-0.062500X-0.362500X0*%
%ADD42RoundRect,0.113500X0.362500X-0.062500X0.362500X0.062500X-0.362500X0.062500X-0.362500X-0.062500X0*%
%ADD43RoundRect,0.051000X1.300000X-1.300000X1.300000X1.300000X-1.300000X1.300000X-1.300000X-1.300000X0*%
%ADD44RoundRect,0.198500X-0.147500X-0.172500X0.147500X-0.172500X0.147500X0.172500X-0.147500X0.172500X0*%
%ADD45RoundRect,0.051000X1.300000X-0.950000X1.300000X0.950000X-1.300000X0.950000X-1.300000X-0.950000X0*%
%ADD46RoundRect,0.198500X-0.172500X0.147500X-0.172500X-0.147500X0.172500X-0.147500X0.172500X0.147500X0*%
%ADD47RoundRect,0.051000X0.200000X0.675000X-0.200000X0.675000X-0.200000X-0.675000X0.200000X-0.675000X0*%
%ADD48RoundRect,0.051000X0.600000X0.950000X-0.600000X0.950000X-0.600000X-0.950000X0.600000X-0.950000X0*%
%ADD49O,1.302000X2.002000*%
%ADD50RoundRect,0.051000X0.750000X0.950000X-0.750000X0.950000X-0.750000X-0.950000X0.750000X-0.950000X0*%
%ADD51C,1.552000*%
%ADD52RoundRect,0.191000X0.140000X0.170000X-0.140000X0.170000X-0.140000X-0.170000X0.140000X-0.170000X0*%
%ADD53RoundRect,0.186000X0.185000X-0.135000X0.185000X0.135000X-0.185000X0.135000X-0.185000X-0.135000X0*%
%ADD54RoundRect,0.138500X-0.087500X0.200000X-0.087500X-0.200000X0.087500X-0.200000X0.087500X0.200000X0*%
%ADD55RoundRect,0.051000X-0.870000X0.725000X-0.870000X-0.725000X0.870000X-0.725000X0.870000X0.725000X0*%
%ADD56RoundRect,0.191000X0.170000X-0.140000X0.170000X0.140000X-0.170000X0.140000X-0.170000X-0.140000X0*%
%ADD57RoundRect,0.198500X0.147500X0.172500X-0.147500X0.172500X-0.147500X-0.172500X0.147500X-0.172500X0*%
%ADD58RoundRect,0.288500X0.287500X0.237500X-0.287500X0.237500X-0.287500X-0.237500X0.287500X-0.237500X0*%
%ADD59RoundRect,0.198500X0.172500X-0.147500X0.172500X0.147500X-0.172500X0.147500X-0.172500X-0.147500X0*%
%ADD60RoundRect,0.051000X0.850000X0.850000X-0.850000X0.850000X-0.850000X-0.850000X0.850000X-0.850000X0*%
%ADD61O,1.802000X1.802000*%
%ADD62RoundRect,0.051000X-0.247487X1.590990X-1.590990X0.247487X0.247487X-1.590990X1.590990X-0.247487X0*%
%ADD63RoundRect,0.288500X0.044194X0.380070X-0.380070X-0.044194X-0.044194X-0.380070X0.380070X0.044194X0*%
%ADD64RoundRect,0.051000X-0.088388X-1.007627X1.007627X0.088388X0.088388X1.007627X-1.007627X-0.088388X0*%
%ADD65RoundRect,0.051000X0.850000X-0.850000X0.850000X0.850000X-0.850000X0.850000X-0.850000X-0.850000X0*%
%ADD66RoundRect,0.288500X0.237500X-0.250000X0.237500X0.250000X-0.237500X0.250000X-0.237500X-0.250000X0*%
%ADD67RoundRect,0.288500X0.344715X-0.008839X-0.008839X0.344715X-0.344715X0.008839X0.008839X-0.344715X0*%
%ADD68RoundRect,0.301000X-0.450000X0.325000X-0.450000X-0.325000X0.450000X-0.325000X0.450000X0.325000X0*%
%ADD69RoundRect,0.288500X-0.237500X0.250000X-0.237500X-0.250000X0.237500X-0.250000X0.237500X0.250000X0*%
%ADD70RoundRect,0.051000X-1.100000X-0.500000X1.100000X-0.500000X1.100000X0.500000X-1.100000X0.500000X0*%
%ADD71RoundRect,0.051000X-0.900000X-1.700000X0.900000X-1.700000X0.900000X1.700000X-0.900000X1.700000X0*%
G04 APERTURE END LIST*
D10*
X142131945Y-131899515D02*
X141899999Y-131906193D01*
X142592766Y-131846228D02*
X142363122Y-131879505D01*
X142820114Y-131799795D02*
X142592766Y-131846228D01*
X143044415Y-131740360D02*
X142820114Y-131799795D01*
X142363122Y-131879505D02*
X142131945Y-131899515D01*
X141668053Y-131899515D02*
X141436876Y-131879505D01*
X143264925Y-131668119D02*
X143044415Y-131740360D01*
X143691667Y-131486220D02*
X143480914Y-131583312D01*
X143691667Y-131486220D02*
X144440000Y-131115000D01*
X144849056Y-126905056D02*
X144440000Y-126035000D01*
X145143939Y-127782775D02*
X145089343Y-127557327D01*
X145185447Y-128010996D02*
X145143939Y-127782775D01*
X144941656Y-127117736D02*
X144849056Y-126905056D01*
X145213728Y-128241230D02*
X145185447Y-128010996D01*
X145228689Y-128472712D02*
X145213728Y-128241230D01*
X145230281Y-128704672D02*
X145228689Y-128472712D01*
X143480914Y-131583312D02*
X143264925Y-131668119D01*
X145218496Y-128936337D02*
X145230281Y-128704672D01*
X145089343Y-127557327D02*
X145021840Y-127335401D01*
X141899999Y-131906193D02*
X141668053Y-131899515D01*
X145193376Y-129166938D02*
X145218496Y-128936337D01*
X145155003Y-129395707D02*
X145193376Y-129166938D01*
X145021840Y-127335401D02*
X144941656Y-127117736D01*
X144872189Y-130277389D02*
X144961862Y-130063458D01*
X144770332Y-130485795D02*
X144440000Y-131115000D01*
X144770332Y-130485795D02*
X144872189Y-130277389D01*
X138628769Y-127882232D02*
X138675201Y-127654883D01*
X138575482Y-128343053D02*
X138595492Y-128111875D01*
X138575482Y-128806945D02*
X138568805Y-128574999D01*
X138734637Y-127430582D02*
X138806877Y-127210072D01*
X138988779Y-126783332D02*
X139360000Y-126035000D01*
X138806877Y-127210072D02*
X138891685Y-126994083D01*
X138595492Y-128111875D02*
X138628769Y-127882232D01*
X138734637Y-129719415D02*
X138675202Y-129495114D01*
X138595492Y-129038122D02*
X138575482Y-128806945D01*
X138675202Y-129495114D02*
X138628769Y-129267766D01*
X138568805Y-128574999D02*
X138575482Y-128343053D01*
X138628769Y-129267766D02*
X138595492Y-129038122D01*
X138806878Y-129939926D02*
X138734637Y-129719415D01*
X145039053Y-129844714D02*
X145103505Y-129621883D01*
X145103505Y-129621883D02*
X145155003Y-129395707D01*
X138891685Y-126994083D02*
X138988779Y-126783332D01*
X144961862Y-130063458D02*
X145039053Y-129844714D01*
X138675201Y-127654883D02*
X138734637Y-127430582D01*
X138891686Y-130155914D02*
X138806878Y-129939926D01*
X138988779Y-130366667D02*
X138891686Y-130155914D01*
X140150000Y-122943315D02*
X139566640Y-122359955D01*
X143650000Y-126075000D02*
X144440000Y-126035000D01*
X149288349Y-116912727D02*
X149449224Y-116620785D01*
X149288349Y-116912727D02*
X149107400Y-117240500D01*
X150479575Y-114264876D02*
X150570584Y-113951819D01*
X143650000Y-122937698D02*
X144360121Y-122227577D01*
X149769621Y-116036158D02*
X149976483Y-115657312D01*
X140150000Y-123825000D02*
X140150000Y-122943315D01*
X150863720Y-112169776D02*
X150880000Y-111825000D01*
X139570000Y-122355000D02*
X144230000Y-122355000D01*
X140150000Y-123825000D02*
X140150000Y-126075000D01*
X140150000Y-126075000D02*
X139360000Y-126035000D01*
X148927610Y-117483219D02*
X149107399Y-117240501D01*
X148519962Y-118010400D02*
X148726511Y-117748916D01*
X148308052Y-118267557D02*
X148519962Y-118010400D01*
X143650000Y-123825000D02*
X143650000Y-126075000D01*
X143380000Y-120885000D02*
X140923665Y-120885000D01*
X148308052Y-118267557D02*
X148036958Y-118589689D01*
X143650000Y-123825000D02*
X143650000Y-122937698D01*
X148726511Y-117748916D02*
X148927610Y-117483219D01*
X149609648Y-116328595D02*
X149769621Y-116036158D01*
X149449224Y-116620785D02*
X149609648Y-116328595D01*
X138988779Y-130366667D02*
X139360000Y-131115000D01*
X146816934Y-119807815D02*
X146798408Y-119807815D01*
X150794545Y-112907235D02*
X150830584Y-112576649D01*
X146710589Y-117046384D02*
X146927467Y-116793377D01*
X147139532Y-116536323D02*
X147279474Y-116363394D01*
X148035060Y-118589689D02*
X146816934Y-119807815D01*
X150740504Y-113235360D02*
X150794545Y-112907235D01*
X150381481Y-114583164D02*
X150479575Y-114264876D01*
X150154922Y-115209485D02*
X150273226Y-114898142D01*
X150154922Y-115209485D02*
X149976483Y-115657312D01*
X150668622Y-113560043D02*
X150740504Y-113235360D01*
X150668622Y-113560043D02*
X150570584Y-113951819D01*
X148036958Y-118589689D02*
X148035060Y-118589689D01*
X150273226Y-114898142D02*
X150381481Y-114583164D01*
X151790000Y-111825000D02*
X148270000Y-111825000D01*
X145588527Y-121017696D02*
X145570002Y-121017696D01*
X146488975Y-117295253D02*
X146710589Y-117046384D01*
X146488975Y-117295253D02*
X146246201Y-117562759D01*
X148001605Y-115154298D02*
X148080930Y-114998278D01*
X147845491Y-115448445D02*
X148001605Y-115154298D01*
X146798408Y-119807815D02*
X145588527Y-121017696D01*
X146927467Y-116793377D02*
X147139532Y-116536323D01*
X145570002Y-121017696D02*
X144360121Y-122227577D01*
X150830584Y-112576649D02*
X150863720Y-112169776D01*
X148530780Y-113774886D02*
X148617940Y-113509061D01*
X148423920Y-114090523D02*
X148530780Y-113774886D01*
X148701032Y-113184388D02*
X148617940Y-113509061D01*
X135154039Y-113403042D02*
X135097106Y-113115479D01*
X135097106Y-113115479D02*
X135036274Y-112787894D01*
X148192117Y-114715353D02*
X148311018Y-114404051D01*
X135036274Y-112787894D02*
X134983223Y-112458960D01*
X148701032Y-113184388D02*
X148774587Y-112860090D01*
X132470000Y-111925000D02*
X134910000Y-111925000D01*
X147502768Y-116019392D02*
X147279474Y-116363394D01*
X148192117Y-114715353D02*
X148080930Y-114998278D01*
X143987243Y-119787650D02*
X143970210Y-119787650D01*
X148311018Y-114404051D02*
X148423920Y-114090523D01*
X148867700Y-112201826D02*
X148900000Y-111825000D01*
X147502768Y-116019392D02*
X147679144Y-115736928D01*
X148774587Y-112860090D02*
X148830199Y-112532239D01*
X148830199Y-112532239D02*
X148867700Y-112201826D01*
X143970210Y-119787650D02*
X142857764Y-120900096D01*
X145116722Y-118675205D02*
X145099688Y-118675205D01*
X145099688Y-118675205D02*
X143987243Y-119787650D01*
X146246201Y-117562759D02*
X146229168Y-117562759D01*
X146229168Y-117562759D02*
X145116722Y-118675205D01*
X147679144Y-115736928D02*
X147845491Y-115448445D01*
X136309791Y-116027210D02*
X136474418Y-116297929D01*
X135439238Y-114279042D02*
X135556089Y-114591054D01*
X135330076Y-113964258D02*
X135439238Y-114279042D01*
X135228671Y-113646891D02*
X135330076Y-113964258D01*
X137521969Y-117517044D02*
X138646032Y-118641107D01*
X139784849Y-119765171D02*
X139799602Y-119765171D01*
X136139206Y-115740931D02*
X135973794Y-115451633D01*
X135660000Y-111925000D02*
X134910000Y-111925000D01*
X135813608Y-115159410D02*
X135680618Y-114911541D01*
X136309791Y-116027210D02*
X136139206Y-115740931D01*
X136647857Y-116526615D02*
X136474418Y-116297929D01*
X134983223Y-112458960D02*
X134937982Y-112128861D01*
X138660785Y-118641107D02*
X139784849Y-119765171D01*
X137292681Y-117289100D02*
X137068782Y-117042604D01*
X137507216Y-117517044D02*
X137521969Y-117517044D01*
X135556089Y-114591054D02*
X135680618Y-114911541D01*
X135973794Y-115451633D02*
X135813608Y-115159410D01*
X135228671Y-113646891D02*
X135154039Y-113403042D01*
X137292681Y-117289100D02*
X137507216Y-117517044D01*
X136853751Y-116788336D02*
X136647857Y-116526615D01*
X139799602Y-119765171D02*
X140923665Y-120889234D01*
X138646032Y-118641107D02*
X138660785Y-118641107D01*
X137068782Y-117042604D02*
X136853751Y-116788336D01*
X136092145Y-118914604D02*
X135864745Y-118670893D01*
X134876245Y-117482569D02*
X134686912Y-117208344D01*
X135070807Y-117753110D02*
X134876245Y-117482569D01*
X133471791Y-114801509D02*
X133368241Y-114485377D01*
X134686912Y-117208344D02*
X134502876Y-116930537D01*
X133961022Y-115945765D02*
X133820481Y-115643741D01*
X133368241Y-114485377D02*
X133280793Y-114164418D01*
X135414121Y-118179614D02*
X135255101Y-118004256D01*
X134110042Y-116243697D02*
X133961022Y-115945765D01*
X133280793Y-114164418D02*
X133220806Y-113920061D01*
X133820481Y-115643741D02*
X133699912Y-115374764D01*
X134267421Y-116537300D02*
X134110042Y-116243697D01*
X133591181Y-115112006D02*
X133471791Y-114801509D01*
X134267421Y-116537300D02*
X134382863Y-116745544D01*
X133591181Y-115112006D02*
X133699912Y-115374764D01*
X138475762Y-121283209D02*
X138489894Y-121283209D01*
X138489894Y-121283209D02*
X139566640Y-122359955D01*
X135070807Y-117753110D02*
X135255101Y-118004256D01*
X135638735Y-118425894D02*
X135414121Y-118179614D01*
X132956190Y-112411542D02*
X132960000Y-111925000D01*
X135864745Y-118670893D02*
X135638735Y-118425894D01*
X134502876Y-116930537D02*
X134382863Y-116745544D01*
X136092145Y-118914604D02*
X136294006Y-119129717D01*
D11*
X149164914Y-115020518D02*
X148972837Y-115453837D01*
D10*
X133152087Y-113658579D02*
X133076558Y-113334756D01*
D11*
X148526105Y-116289615D02*
X148272525Y-116690060D01*
X149853498Y-112271537D02*
X149795478Y-112741954D01*
X149484178Y-114128236D02*
X149335498Y-114578296D01*
D10*
X133152087Y-113658579D02*
X133220806Y-113920061D01*
X136294006Y-119129717D02*
X136308138Y-119129717D01*
D11*
X149795478Y-112741954D02*
X149714445Y-113208958D01*
X148759730Y-115877209D02*
X148526105Y-116289615D01*
D10*
X133019175Y-113007230D02*
X132980117Y-112677018D01*
X137384884Y-120206463D02*
X137399016Y-120206463D01*
X132980117Y-112677018D02*
X132956190Y-112411542D01*
X136308138Y-119129717D02*
X137384884Y-120206463D01*
D11*
X148972837Y-115453837D02*
X148759730Y-115877209D01*
X149335498Y-114578296D02*
X149164914Y-115020518D01*
D10*
X137399016Y-120206463D02*
X138475762Y-121283209D01*
X133076558Y-113334756D02*
X133019175Y-113007230D01*
D11*
X149610595Y-113671424D02*
X149484178Y-114128236D01*
X149714445Y-113208958D02*
X149610595Y-113671424D01*
X149888367Y-111798839D02*
X149853498Y-112271537D01*
X147707994Y-117451243D02*
X147398401Y-117810146D01*
D12*
X149900000Y-110145000D02*
X149900000Y-111065000D01*
D11*
X136728427Y-118153427D02*
X141360000Y-122725000D01*
X133911632Y-111798839D02*
X133946500Y-112271537D01*
X136401597Y-117810146D02*
X136728427Y-118153427D01*
D13*
X133900000Y-110065000D02*
X133900000Y-111145000D01*
D11*
X147398401Y-117810146D02*
X147071572Y-118153427D01*
X134827161Y-115453837D02*
X135040269Y-115877209D01*
X135273893Y-116289615D02*
X135527473Y-116690060D01*
X135800396Y-117077581D02*
X136092004Y-117451243D01*
X136092004Y-117451243D02*
X136401597Y-117810146D01*
X148272525Y-116690060D02*
X147999602Y-117077581D01*
X147071572Y-118153427D02*
X142430000Y-122725000D01*
X134004520Y-112741954D02*
X134085553Y-113208958D01*
X134315820Y-114128236D02*
X134464500Y-114578296D01*
X134464500Y-114578296D02*
X134635084Y-115020518D01*
X134189403Y-113671424D02*
X134315820Y-114128236D01*
X135527473Y-116690060D02*
X135800396Y-117077581D01*
X133946500Y-112271537D02*
X134004520Y-112741954D01*
X134085553Y-113208958D02*
X134189403Y-113671424D01*
X135040269Y-115877209D02*
X135273893Y-116289615D01*
X147999602Y-117077581D02*
X147707994Y-117451243D01*
X134635084Y-115020518D02*
X134827161Y-115453837D01*
D10*
X140319084Y-131583312D02*
X140108332Y-131486220D01*
D14*
X143711077Y-128575000D02*
G75*
G03*
X143711077Y-128575000I-1811077J0D01*
G01*
D10*
X140108332Y-131486220D02*
X139360000Y-131115000D01*
X141436876Y-131879505D02*
X141207232Y-131846228D01*
X140979883Y-131799796D02*
X140755583Y-131740360D01*
D15*
X141900000Y-122975000D02*
X141983360Y-130975000D01*
D16*
X141900000Y-128575000D02*
X141900000Y-123615000D01*
D10*
X140535072Y-131668119D02*
X140319084Y-131583312D01*
X140755583Y-131740360D02*
X140535072Y-131668119D01*
X141207232Y-131846228D02*
X140979883Y-131799796D01*
X129333187Y-91738187D02*
X129207078Y-91662600D01*
X130556526Y-92893846D02*
X130614932Y-92996947D01*
X130614932Y-92996947D02*
X130668209Y-93102790D01*
X130424900Y-92696854D02*
X130493131Y-92793734D01*
X130192893Y-92427893D02*
X130274600Y-92513713D01*
X127854951Y-91252437D02*
X127500000Y-91235000D01*
X128206484Y-91304582D02*
X127854951Y-91252437D01*
X130888374Y-93898365D02*
X130897091Y-94016540D01*
X128885819Y-91510656D02*
X128551213Y-91390932D01*
X129207078Y-91662600D02*
X128885819Y-91510656D01*
X128551213Y-91390932D02*
X128206484Y-91304582D01*
X129511897Y-91845302D02*
X129333187Y-91738187D01*
X130060660Y-92295660D02*
X129797341Y-92057001D01*
X130853611Y-93664010D02*
X130873869Y-93780761D01*
X130758874Y-93321675D02*
X130796044Y-93434190D01*
X130827648Y-93548393D02*
X130853611Y-93664010D01*
X130873869Y-93780761D02*
X130888374Y-93898365D01*
X130796044Y-93434190D02*
X130827648Y-93548393D01*
X130493131Y-92793734D02*
X130556526Y-92893846D01*
X130351998Y-92603438D02*
X130424900Y-92696854D01*
X130274600Y-92513713D02*
X130351998Y-92603438D01*
X130897091Y-94016540D02*
X130900000Y-94135000D01*
X130192893Y-92427893D02*
X130060660Y-92295660D01*
X129797341Y-92057001D02*
X129511897Y-91845302D01*
X130716228Y-93211120D02*
X130758874Y-93321675D01*
X130668209Y-93102790D02*
X130716228Y-93211120D01*
X130902907Y-95155000D02*
X130900000Y-94125000D01*
X141340000Y-91235000D02*
X141024881Y-91214346D01*
X140715155Y-91152737D02*
X140416120Y-91051228D01*
X139419111Y-90290743D02*
X139585685Y-90480685D01*
X140132893Y-90911556D02*
X139870319Y-90736110D01*
X141024881Y-91214346D02*
X140715155Y-91152737D01*
X139870319Y-90736110D02*
X139632893Y-90527893D01*
X139036523Y-89367094D02*
X139085809Y-89614875D01*
X139167016Y-89854103D02*
X139278754Y-90080685D01*
X139278754Y-90080685D02*
X139419111Y-90290743D01*
X139585685Y-90480685D02*
X139632893Y-90527893D01*
X139020000Y-89115000D02*
X139036523Y-89367094D01*
X139085809Y-89614875D02*
X139167016Y-89854103D01*
X141340000Y-91235000D02*
X142740000Y-91235000D01*
X146980000Y-81975000D02*
X146470000Y-81975000D01*
X146470000Y-81975000D02*
X144745940Y-81975000D01*
X142740000Y-91235000D02*
X147300000Y-91235000D01*
D17*
X147410000Y-85375000D02*
X147410000Y-82880000D01*
D10*
X139036523Y-89367094D02*
X139020000Y-89115000D01*
X139278754Y-83039314D02*
X139167016Y-83265896D01*
X141050000Y-81975000D02*
X140797905Y-81991522D01*
X139167016Y-83265896D02*
X139085809Y-83505124D01*
X140797905Y-81991522D02*
X140550124Y-82040808D01*
X139585685Y-82639314D02*
X139419110Y-82829255D01*
X139036522Y-83752905D02*
X139036522Y-83752905D01*
X141050000Y-81975000D02*
X142820000Y-81975000D01*
X140310896Y-82122015D02*
X140084314Y-82233753D01*
X140084314Y-82233753D02*
X139874255Y-82374109D01*
X139085809Y-83505124D02*
X139036522Y-83752905D01*
X140550124Y-82040808D02*
X140310896Y-82122015D01*
X139020000Y-87615000D02*
X139020000Y-89115000D01*
X140550124Y-82040808D02*
X140550124Y-82040808D01*
X139020000Y-84005000D02*
X139020000Y-85855000D01*
X139036523Y-89367094D02*
X139036523Y-89367094D01*
X139874255Y-82374109D02*
X139684314Y-82540684D01*
X139036522Y-83752905D02*
X139020000Y-84005000D01*
X139020000Y-85855000D02*
X139020000Y-87615000D01*
X139684314Y-82540684D02*
X139585685Y-82639314D01*
X142820000Y-81975000D02*
X145090000Y-81975000D01*
X148542643Y-112455422D02*
X148452901Y-112242660D01*
X137083770Y-93181119D02*
X137131789Y-93072789D01*
X153782684Y-110833998D02*
X153912983Y-110737983D01*
X127570000Y-81975000D02*
X129840000Y-81975000D01*
X146779117Y-109524309D02*
X146840239Y-109764930D01*
X137041124Y-93291675D02*
X137083770Y-93181119D01*
X153583187Y-110945517D02*
X153782684Y-110833998D01*
X124169111Y-90290743D02*
X124335685Y-90480685D01*
X136796043Y-110575808D02*
X136716227Y-110798879D01*
X136888374Y-110111634D02*
X136853610Y-110345989D01*
X123786522Y-83752905D02*
X123786522Y-83752905D01*
X138288101Y-91815302D02*
X138514565Y-91679565D01*
X138002657Y-92027001D02*
X138288101Y-91815302D01*
X130900000Y-109600000D02*
X130911625Y-109836634D01*
X151820506Y-111972689D02*
X152009121Y-111816780D01*
D18*
X131175000Y-81575000D02*
X131914999Y-82269999D01*
D10*
X146151998Y-92573438D02*
X146224900Y-92666854D01*
X154132283Y-110540903D02*
X154276901Y-110363925D01*
X153966678Y-110698417D02*
X154132283Y-110540903D01*
D19*
X147725000Y-81975000D02*
X147720000Y-83280000D01*
X147720000Y-83280000D02*
X147307022Y-83241583D01*
X147307022Y-83241583D02*
X146757022Y-82711583D01*
X146757022Y-82711583D02*
X146240000Y-81230000D01*
X146240000Y-81230000D02*
X147725000Y-81975000D01*
G36*
X147725000Y-81975000D02*
G01*
X147720000Y-83280000D01*
X147307022Y-83241583D01*
X146757022Y-82711583D01*
X146240000Y-81230000D01*
X147725000Y-81975000D01*
G37*
X147725000Y-81975000D02*
X147720000Y-83280000D01*
X147307022Y-83241583D01*
X146757022Y-82711583D01*
X146240000Y-81230000D01*
X147725000Y-81975000D01*
D10*
X147869307Y-111519691D02*
X147699149Y-111344351D01*
X133023022Y-112924595D02*
X132983114Y-112813059D01*
X145992893Y-92397893D02*
X146074600Y-92483713D01*
X137185066Y-92966946D02*
X137243472Y-92863845D01*
X148201549Y-111856187D02*
X148088823Y-111736177D01*
D18*
X131346047Y-81983261D02*
X131220000Y-81975000D01*
D10*
X135296572Y-112551934D02*
X135357472Y-112450327D01*
X131185067Y-110738051D02*
X131306868Y-110941264D01*
X132312500Y-112012500D02*
X132721446Y-112421446D01*
X130911625Y-109836634D02*
X130946388Y-110070989D01*
X139945048Y-91222437D02*
X140300000Y-91205000D01*
D20*
X123725000Y-85855000D02*
X123725000Y-87615000D01*
D10*
X143300000Y-91205000D02*
X140400000Y-91205000D01*
X146697091Y-93986540D02*
X146700000Y-94105000D01*
X125166120Y-91051228D02*
X124882893Y-90911556D01*
X145992893Y-92397893D02*
X145860660Y-92265660D01*
X145597341Y-92027001D02*
X145311897Y-91815302D01*
X146700000Y-108785000D02*
X146708820Y-109033104D01*
X150730000Y-113505000D02*
X150924395Y-113125182D01*
X124028754Y-90080685D02*
X124169111Y-90290743D01*
X146414932Y-92966947D02*
X146468209Y-93072790D01*
X138592920Y-91632600D02*
X138914180Y-91480656D01*
X135784999Y-111989999D02*
X135507592Y-112267407D01*
X137525398Y-92483711D02*
X137607106Y-92397892D01*
D18*
X132136491Y-82595448D02*
X132177094Y-82715062D01*
D10*
X151642016Y-112140094D02*
X151820506Y-111972689D01*
X138914180Y-91480656D02*
X139248785Y-91360932D01*
D18*
X131702842Y-82104376D02*
X131589551Y-82048507D01*
D10*
X146708820Y-109033104D02*
X146735237Y-109279957D01*
X137739339Y-92265660D02*
X138002657Y-92027001D01*
X131025000Y-81975000D02*
X129495940Y-81975000D01*
X125465155Y-91152737D02*
X125166120Y-91051228D01*
X130900000Y-109600000D02*
X130900000Y-109525000D01*
D18*
X123786523Y-89367094D02*
X123835809Y-89614875D01*
D10*
X125800000Y-81975000D02*
X127570000Y-81975000D01*
X145311897Y-91815302D02*
X145133187Y-91708187D01*
X146708820Y-109033104D02*
X146735237Y-109279957D01*
X147261570Y-110757580D02*
X147220553Y-110684447D01*
X136972350Y-93518393D02*
X137003954Y-93404190D01*
X144006484Y-91274582D02*
X143654951Y-91222437D01*
D18*
X131421453Y-82129969D02*
X132205869Y-82901976D01*
D10*
X145860660Y-92265660D02*
X145597341Y-92027001D01*
X136900000Y-94105000D02*
X136902907Y-93986540D01*
X152207123Y-111672980D02*
X152970000Y-111245000D01*
D18*
X123786523Y-89367094D02*
X123770000Y-89115000D01*
D10*
X146627648Y-93518393D02*
X146653611Y-93634010D01*
X140300000Y-91205000D02*
X140400000Y-91205000D01*
D18*
X131469937Y-82007904D02*
X131346047Y-81983261D01*
D10*
X145133187Y-91708187D02*
X145007078Y-91632600D01*
X154710000Y-106555000D02*
X154710000Y-109165000D01*
D20*
X123725000Y-87615000D02*
X123725000Y-89115000D01*
D10*
X153490000Y-110995000D02*
X153583187Y-110945517D01*
X146074600Y-92483713D02*
X146151998Y-92573438D01*
X132871565Y-112604366D02*
X132800999Y-112509218D01*
X135428039Y-112355179D02*
X135507592Y-112267407D01*
X123917016Y-89854103D02*
X124028754Y-90080685D01*
X137448000Y-92573437D02*
X137525398Y-92483711D01*
X132983114Y-112813059D02*
X132932466Y-112705973D01*
D18*
X123786523Y-89367094D02*
X123786523Y-89367094D01*
X123375000Y-89150000D02*
X123525000Y-89975000D01*
X125900000Y-82300000D02*
X124425000Y-83200000D01*
D10*
X136946387Y-93634009D02*
X136972350Y-93518393D01*
X148644004Y-112905161D02*
X148606642Y-112677290D01*
X154710000Y-106685000D02*
X154720000Y-84175000D01*
X139248785Y-91360932D02*
X139593515Y-91274582D01*
X133069187Y-113156682D02*
X133051805Y-113039504D01*
D18*
X131902842Y-82257842D02*
X131807871Y-82174555D01*
X125350000Y-81600000D02*
X125800000Y-81575000D01*
D10*
X137003954Y-93404190D02*
X137041124Y-93291675D01*
X146653611Y-93634010D02*
X146673869Y-93750761D01*
X133051805Y-113039504D02*
X133023022Y-112924595D01*
D18*
X131589551Y-82048507D02*
X131469937Y-82007904D01*
X123375000Y-83600000D02*
X123375000Y-84925000D01*
D10*
X146293131Y-92763734D02*
X146356526Y-92863846D01*
X146700000Y-95145000D02*
X146700000Y-108785000D01*
D17*
X132160000Y-83000000D02*
X132160000Y-85390000D01*
D10*
X146516228Y-93181120D02*
X146558874Y-93291675D01*
X143654951Y-91222437D02*
X143300000Y-91205000D01*
X136900000Y-109875000D02*
X136900000Y-109525000D01*
X138514565Y-91679565D02*
X138592920Y-91632600D01*
D18*
X125325000Y-81625000D02*
X123400000Y-83550000D01*
D20*
X123786522Y-83752905D02*
X123770000Y-84005000D01*
D19*
X152746400Y-84919800D02*
X152071400Y-84919800D01*
X152071400Y-84919800D02*
X151071400Y-84920000D01*
X151071400Y-84920000D02*
X151075000Y-84100000D01*
X151075000Y-84100000D02*
X152746400Y-83444800D01*
X152746400Y-83444800D02*
X152746400Y-84919800D01*
G36*
X152746400Y-84919800D02*
G01*
X152071400Y-84919800D01*
X151071400Y-84920000D01*
X151075000Y-84100000D01*
X152746400Y-83444800D01*
X152746400Y-84919800D01*
G37*
X152746400Y-84919800D02*
X152071400Y-84919800D01*
X151071400Y-84920000D01*
X151075000Y-84100000D01*
X152746400Y-83444800D01*
X152746400Y-84919800D01*
D10*
X148338670Y-112041980D02*
X148201549Y-111856187D01*
X136716227Y-110798879D02*
X136631987Y-110976987D01*
D18*
X124500000Y-90050000D02*
X125625000Y-90775000D01*
D10*
X137131789Y-93072789D02*
X137185066Y-92966946D01*
X146688374Y-93868365D02*
X146697091Y-93986540D01*
X131326825Y-110968175D02*
X131448000Y-111131559D01*
X146700000Y-94105000D02*
X146700000Y-95125000D01*
X126090000Y-91235000D02*
X127490000Y-91235000D01*
X146945612Y-110097319D02*
X146869521Y-109865139D01*
X133075000Y-113275000D02*
X133069187Y-113156682D01*
X135245924Y-112659020D02*
X135296572Y-112551934D01*
X131607106Y-111307106D02*
X132312500Y-112012500D01*
X125774881Y-91214346D02*
X125465155Y-91152737D01*
D18*
X131600000Y-81975000D02*
X132010444Y-82377127D01*
D10*
X124882893Y-90911556D02*
X124620319Y-90736110D01*
X152970000Y-111245000D02*
X153490000Y-110995000D01*
X131083770Y-110523878D02*
X131185067Y-110738051D01*
X154494469Y-109962941D02*
X154564007Y-109745226D01*
X136900000Y-95175000D02*
X136900000Y-109525000D01*
X137375097Y-92666853D02*
X137448000Y-92573437D01*
X136900000Y-94105000D02*
X136900000Y-95155000D01*
X139593515Y-91274582D02*
X139945048Y-91222437D01*
D18*
X132010444Y-82377127D02*
X132080622Y-82482157D01*
D10*
X136902907Y-93986540D02*
X136911624Y-93868365D01*
X146558874Y-93291675D02*
X146596044Y-93404190D01*
X124620319Y-90736110D02*
X124382893Y-90527893D01*
X135177232Y-112885465D02*
X135206016Y-112770556D01*
X148088823Y-111736177D02*
X148043455Y-111687880D01*
X132800999Y-112509218D02*
X132721446Y-112421446D01*
X147869307Y-111519691D02*
X148043455Y-111687880D01*
D18*
X123770000Y-89115000D02*
X123786523Y-89367094D01*
D10*
X131003955Y-110300808D02*
X131083770Y-110523878D01*
X153912983Y-110737983D02*
X153966678Y-110698417D01*
X146356526Y-92863846D02*
X146414932Y-92966947D01*
X137243472Y-92863845D02*
X137306867Y-92763733D01*
X151318168Y-112506728D02*
X151474351Y-112318340D01*
D20*
X123725000Y-84005000D02*
X123725000Y-85855000D01*
D10*
X146700000Y-108785000D02*
X146708820Y-109033104D01*
X136911624Y-93868365D02*
X136926129Y-93750761D01*
X136351997Y-111406559D02*
X136192892Y-111582106D01*
X135357472Y-112450327D02*
X135428039Y-112355179D01*
X148606642Y-112677290D02*
X148542643Y-112455422D01*
D18*
X124143793Y-89360772D02*
X124500000Y-90050000D01*
D10*
X151474351Y-112318340D02*
X151642016Y-112140094D01*
X132932466Y-112705973D02*
X132871565Y-112604366D01*
X131448000Y-111131559D02*
X131607106Y-111307106D01*
X136926129Y-93750761D02*
X136946387Y-93634009D01*
X137607106Y-92397892D02*
X137739339Y-92265660D01*
X147142050Y-110544478D02*
X147036583Y-110324083D01*
X125800000Y-81975000D02*
X125547905Y-81991522D01*
D18*
X131927157Y-82282157D02*
X132010444Y-82377127D01*
D10*
X148654205Y-113135850D02*
X148644004Y-112905161D01*
X136900000Y-109875000D02*
X136888374Y-110111634D01*
D18*
X125025000Y-82425000D02*
X124075000Y-83925000D01*
X130100000Y-82375000D02*
X131550000Y-82375000D01*
D10*
X146596044Y-93404190D02*
X146627648Y-93518393D01*
X151174079Y-112704520D02*
X151318168Y-112506728D01*
X147394642Y-110962494D02*
X147261570Y-110757580D01*
X154710000Y-84175000D02*
X151825000Y-84175000D01*
D18*
X132177094Y-82715062D02*
X132201738Y-82838952D01*
X132010444Y-82377127D02*
X132108556Y-82538802D01*
D10*
X146673869Y-93750761D02*
X146688374Y-93868365D01*
X130946388Y-110070989D02*
X131003955Y-110300808D01*
X146224900Y-92666854D02*
X146293131Y-92763734D01*
X146468209Y-93072790D02*
X146516228Y-93181120D01*
X136631987Y-110976987D02*
X136614931Y-111013051D01*
X144351213Y-91360932D02*
X144006484Y-91274582D01*
X126090000Y-91235000D02*
X125774881Y-91214346D01*
X136493130Y-111216264D02*
X136351997Y-111406559D01*
X152009121Y-111816780D02*
X152109140Y-111744140D01*
D18*
X132080622Y-82482157D02*
X132136491Y-82595448D01*
D10*
X147220553Y-110684447D02*
X147142050Y-110544478D01*
X146840239Y-109764930D02*
X146869521Y-109865139D01*
X145007078Y-91632600D02*
X144685819Y-91480656D01*
X154398264Y-110170258D02*
X154494469Y-109962941D01*
X151042650Y-112910941D02*
X151174079Y-112704520D01*
X147540706Y-111158358D02*
X147394642Y-110962494D01*
X137306867Y-92763733D02*
X137375097Y-92666853D01*
D18*
X131807871Y-82174555D02*
X131702842Y-82104376D01*
X131902842Y-82257842D02*
X131927157Y-82282157D01*
D10*
X136192892Y-111582106D02*
X135784999Y-111989999D01*
D18*
X132136491Y-82595448D02*
X132189416Y-82777007D01*
X132210000Y-82965000D02*
X132210000Y-83385000D01*
D10*
X127490000Y-91235000D02*
X132050000Y-91235000D01*
X130900000Y-95175000D02*
X130900000Y-109505000D01*
X154564007Y-109745226D02*
X154630000Y-109545000D01*
X154276901Y-110363925D02*
X154398264Y-110170258D01*
X150924395Y-113125182D02*
X151042650Y-112910941D01*
X124335685Y-90480685D02*
X124382893Y-90527893D01*
X152109140Y-111744140D02*
X152207123Y-111672980D01*
X135206016Y-112770556D02*
X135245924Y-112659020D01*
X144685819Y-91480656D02*
X144351213Y-91360932D01*
X136853610Y-110345989D02*
X136796043Y-110575808D01*
X146735237Y-109279957D02*
X146779117Y-109524309D01*
X142131945Y-131899515D02*
X141899999Y-131906193D01*
X142592766Y-131846228D02*
X142363122Y-131879505D01*
X142820114Y-131799795D02*
X142592766Y-131846228D01*
X143044415Y-131740360D02*
X142820114Y-131799795D01*
X142363122Y-131879505D02*
X142131945Y-131899515D01*
X141668053Y-131899515D02*
X141436876Y-131879505D01*
X143264925Y-131668119D02*
X143044415Y-131740360D01*
X143691667Y-131486220D02*
X143480914Y-131583312D01*
X143691667Y-131486220D02*
X144440000Y-131115000D01*
X144849056Y-126905056D02*
X144440000Y-126035000D01*
X145143939Y-127782775D02*
X145089343Y-127557327D01*
X145185447Y-128010996D02*
X145143939Y-127782775D01*
X144941656Y-127117736D02*
X144849056Y-126905056D01*
X145213728Y-128241230D02*
X145185447Y-128010996D01*
X145228689Y-128472712D02*
X145213728Y-128241230D01*
X145230281Y-128704672D02*
X145228689Y-128472712D01*
X143480914Y-131583312D02*
X143264925Y-131668119D01*
X145218496Y-128936337D02*
X145230281Y-128704672D01*
X145089343Y-127557327D02*
X145021840Y-127335401D01*
X141899999Y-131906193D02*
X141668053Y-131899515D01*
X145193376Y-129166938D02*
X145218496Y-128936337D01*
X145155003Y-129395707D02*
X145193376Y-129166938D01*
X145021840Y-127335401D02*
X144941656Y-127117736D01*
X144872189Y-130277389D02*
X144961862Y-130063458D01*
X144770332Y-130485795D02*
X144440000Y-131115000D01*
X144770332Y-130485795D02*
X144872189Y-130277389D01*
X138628769Y-127882232D02*
X138675201Y-127654883D01*
X138575482Y-128343053D02*
X138595492Y-128111875D01*
X138575482Y-128806945D02*
X138568805Y-128574999D01*
X138734637Y-127430582D02*
X138806877Y-127210072D01*
X138988779Y-126783332D02*
X139360000Y-126035000D01*
X138806877Y-127210072D02*
X138891685Y-126994083D01*
X138595492Y-128111875D02*
X138628769Y-127882232D01*
X138734637Y-129719415D02*
X138675202Y-129495114D01*
X138595492Y-129038122D02*
X138575482Y-128806945D01*
X138675202Y-129495114D02*
X138628769Y-129267766D01*
X138568805Y-128574999D02*
X138575482Y-128343053D01*
X138628769Y-129267766D02*
X138595492Y-129038122D01*
X138806878Y-129939926D02*
X138734637Y-129719415D01*
X145039053Y-129844714D02*
X145103505Y-129621883D01*
X145103505Y-129621883D02*
X145155003Y-129395707D01*
X138891685Y-126994083D02*
X138988779Y-126783332D01*
X144961862Y-130063458D02*
X145039053Y-129844714D01*
X138675201Y-127654883D02*
X138734637Y-127430582D01*
X138891686Y-130155914D02*
X138806878Y-129939926D01*
X138988779Y-130366667D02*
X138891686Y-130155914D01*
X140150000Y-122943315D02*
X139566640Y-122359955D01*
X143650000Y-126075000D02*
X144440000Y-126035000D01*
X149288349Y-116912727D02*
X149449224Y-116620785D01*
X149288349Y-116912727D02*
X149107400Y-117240500D01*
X150479575Y-114264876D02*
X150570584Y-113951819D01*
X143650000Y-122937698D02*
X144360121Y-122227577D01*
X149769621Y-116036158D02*
X149976483Y-115657312D01*
X140150000Y-123825000D02*
X140150000Y-122943315D01*
X150863720Y-112169776D02*
X150880000Y-111825000D01*
X139570000Y-122355000D02*
X144230000Y-122355000D01*
X140150000Y-123825000D02*
X140150000Y-126075000D01*
X140150000Y-126075000D02*
X139360000Y-126035000D01*
X148927610Y-117483219D02*
X149107399Y-117240501D01*
X148519962Y-118010400D02*
X148726511Y-117748916D01*
X148308052Y-118267557D02*
X148519962Y-118010400D01*
X143650000Y-123825000D02*
X143650000Y-126075000D01*
X143380000Y-120885000D02*
X140923665Y-120885000D01*
X148308052Y-118267557D02*
X148036958Y-118589689D01*
X143650000Y-123825000D02*
X143650000Y-122937698D01*
X148726511Y-117748916D02*
X148927610Y-117483219D01*
X149609648Y-116328595D02*
X149769621Y-116036158D01*
X149449224Y-116620785D02*
X149609648Y-116328595D01*
X138988779Y-130366667D02*
X139360000Y-131115000D01*
X146816934Y-119807815D02*
X146798408Y-119807815D01*
X150794545Y-112907235D02*
X150830584Y-112576649D01*
X146710589Y-117046384D02*
X146927467Y-116793377D01*
X147139532Y-116536323D02*
X147279474Y-116363394D01*
X148035060Y-118589689D02*
X146816934Y-119807815D01*
X150740504Y-113235360D02*
X150794545Y-112907235D01*
X150381481Y-114583164D02*
X150479575Y-114264876D01*
X150154922Y-115209485D02*
X150273226Y-114898142D01*
X150154922Y-115209485D02*
X149976483Y-115657312D01*
X150668622Y-113560043D02*
X150740504Y-113235360D01*
X150668622Y-113560043D02*
X150570584Y-113951819D01*
X148036958Y-118589689D02*
X148035060Y-118589689D01*
X150273226Y-114898142D02*
X150381481Y-114583164D01*
X151790000Y-111825000D02*
X148270000Y-111825000D01*
X145588527Y-121017696D02*
X145570002Y-121017696D01*
X146488975Y-117295253D02*
X146710589Y-117046384D01*
X146488975Y-117295253D02*
X146246201Y-117562759D01*
X148001605Y-115154298D02*
X148080930Y-114998278D01*
X147845491Y-115448445D02*
X148001605Y-115154298D01*
X146798408Y-119807815D02*
X145588527Y-121017696D01*
X146927467Y-116793377D02*
X147139532Y-116536323D01*
X145570002Y-121017696D02*
X144360121Y-122227577D01*
X150830584Y-112576649D02*
X150863720Y-112169776D01*
X148530780Y-113774886D02*
X148617940Y-113509061D01*
X148423920Y-114090523D02*
X148530780Y-113774886D01*
X148701032Y-113184388D02*
X148617940Y-113509061D01*
X135154039Y-113403042D02*
X135097106Y-113115479D01*
X135097106Y-113115479D02*
X135036274Y-112787894D01*
X148192117Y-114715353D02*
X148311018Y-114404051D01*
X135036274Y-112787894D02*
X134983223Y-112458960D01*
X148701032Y-113184388D02*
X148774587Y-112860090D01*
X132470000Y-111925000D02*
X134910000Y-111925000D01*
X147502768Y-116019392D02*
X147279474Y-116363394D01*
X148192117Y-114715353D02*
X148080930Y-114998278D01*
X143987243Y-119787650D02*
X143970210Y-119787650D01*
X148311018Y-114404051D02*
X148423920Y-114090523D01*
X148867700Y-112201826D02*
X148900000Y-111825000D01*
X147502768Y-116019392D02*
X147679144Y-115736928D01*
X148774587Y-112860090D02*
X148830199Y-112532239D01*
X148830199Y-112532239D02*
X148867700Y-112201826D01*
X143970210Y-119787650D02*
X142857764Y-120900096D01*
X145116722Y-118675205D02*
X145099688Y-118675205D01*
X145099688Y-118675205D02*
X143987243Y-119787650D01*
X146246201Y-117562759D02*
X146229168Y-117562759D01*
X146229168Y-117562759D02*
X145116722Y-118675205D01*
X147679144Y-115736928D02*
X147845491Y-115448445D01*
X136309791Y-116027210D02*
X136474418Y-116297929D01*
X135439238Y-114279042D02*
X135556089Y-114591054D01*
X135330076Y-113964258D02*
X135439238Y-114279042D01*
X135228671Y-113646891D02*
X135330076Y-113964258D01*
X137521969Y-117517044D02*
X138646032Y-118641107D01*
X139784849Y-119765171D02*
X139799602Y-119765171D01*
X136139206Y-115740931D02*
X135973794Y-115451633D01*
X135660000Y-111925000D02*
X134910000Y-111925000D01*
X135813608Y-115159410D02*
X135680618Y-114911541D01*
X136309791Y-116027210D02*
X136139206Y-115740931D01*
X136647857Y-116526615D02*
X136474418Y-116297929D01*
X134983223Y-112458960D02*
X134937982Y-112128861D01*
X138660785Y-118641107D02*
X139784849Y-119765171D01*
X137292681Y-117289100D02*
X137068782Y-117042604D01*
X137507216Y-117517044D02*
X137521969Y-117517044D01*
X135556089Y-114591054D02*
X135680618Y-114911541D01*
X135973794Y-115451633D02*
X135813608Y-115159410D01*
X135228671Y-113646891D02*
X135154039Y-113403042D01*
X137292681Y-117289100D02*
X137507216Y-117517044D01*
X136853751Y-116788336D02*
X136647857Y-116526615D01*
X139799602Y-119765171D02*
X140923665Y-120889234D01*
X138646032Y-118641107D02*
X138660785Y-118641107D01*
X137068782Y-117042604D02*
X136853751Y-116788336D01*
X136092145Y-118914604D02*
X135864745Y-118670893D01*
X134876245Y-117482569D02*
X134686912Y-117208344D01*
X135070807Y-117753110D02*
X134876245Y-117482569D01*
X133471791Y-114801509D02*
X133368241Y-114485377D01*
X134686912Y-117208344D02*
X134502876Y-116930537D01*
X133961022Y-115945765D02*
X133820481Y-115643741D01*
X133368241Y-114485377D02*
X133280793Y-114164418D01*
X135414121Y-118179614D02*
X135255101Y-118004256D01*
X134110042Y-116243697D02*
X133961022Y-115945765D01*
X133280793Y-114164418D02*
X133220806Y-113920061D01*
X133820481Y-115643741D02*
X133699912Y-115374764D01*
X134267421Y-116537300D02*
X134110042Y-116243697D01*
X133591181Y-115112006D02*
X133471791Y-114801509D01*
X134267421Y-116537300D02*
X134382863Y-116745544D01*
X133591181Y-115112006D02*
X133699912Y-115374764D01*
X138475762Y-121283209D02*
X138489894Y-121283209D01*
X138489894Y-121283209D02*
X139566640Y-122359955D01*
X135070807Y-117753110D02*
X135255101Y-118004256D01*
X135638735Y-118425894D02*
X135414121Y-118179614D01*
X132956190Y-112411542D02*
X132960000Y-111925000D01*
X135864745Y-118670893D02*
X135638735Y-118425894D01*
X134502876Y-116930537D02*
X134382863Y-116745544D01*
X136092145Y-118914604D02*
X136294006Y-119129717D01*
D11*
X149164914Y-115020518D02*
X148972837Y-115453837D01*
D10*
X133152087Y-113658579D02*
X133076558Y-113334756D01*
D11*
X148526105Y-116289615D02*
X148272525Y-116690060D01*
X149853498Y-112271537D02*
X149795478Y-112741954D01*
X149484178Y-114128236D02*
X149335498Y-114578296D01*
D10*
X133152087Y-113658579D02*
X133220806Y-113920061D01*
X136294006Y-119129717D02*
X136308138Y-119129717D01*
D11*
X149795478Y-112741954D02*
X149714445Y-113208958D01*
X148759730Y-115877209D02*
X148526105Y-116289615D01*
D10*
X133019175Y-113007230D02*
X132980117Y-112677018D01*
X137384884Y-120206463D02*
X137399016Y-120206463D01*
X132980117Y-112677018D02*
X132956190Y-112411542D01*
X136308138Y-119129717D02*
X137384884Y-120206463D01*
D11*
X148972837Y-115453837D02*
X148759730Y-115877209D01*
X149335498Y-114578296D02*
X149164914Y-115020518D01*
D10*
X137399016Y-120206463D02*
X138475762Y-121283209D01*
X133076558Y-113334756D02*
X133019175Y-113007230D01*
D11*
X149610595Y-113671424D02*
X149484178Y-114128236D01*
X149714445Y-113208958D02*
X149610595Y-113671424D01*
X149888367Y-111798839D02*
X149853498Y-112271537D01*
X147707994Y-117451243D02*
X147398401Y-117810146D01*
D12*
X149900000Y-110145000D02*
X149900000Y-111065000D01*
D11*
X136728427Y-118153427D02*
X141360000Y-122725000D01*
X133911632Y-111798839D02*
X133946500Y-112271537D01*
X136401597Y-117810146D02*
X136728427Y-118153427D01*
D13*
X133900000Y-110065000D02*
X133900000Y-111145000D01*
D11*
X147398401Y-117810146D02*
X147071572Y-118153427D01*
X134827161Y-115453837D02*
X135040269Y-115877209D01*
X135273893Y-116289615D02*
X135527473Y-116690060D01*
X135800396Y-117077581D02*
X136092004Y-117451243D01*
X136092004Y-117451243D02*
X136401597Y-117810146D01*
X148272525Y-116690060D02*
X147999602Y-117077581D01*
X147071572Y-118153427D02*
X142430000Y-122725000D01*
X134004520Y-112741954D02*
X134085553Y-113208958D01*
X134315820Y-114128236D02*
X134464500Y-114578296D01*
X134464500Y-114578296D02*
X134635084Y-115020518D01*
X134189403Y-113671424D02*
X134315820Y-114128236D01*
X135527473Y-116690060D02*
X135800396Y-117077581D01*
X133946500Y-112271537D02*
X134004520Y-112741954D01*
X134085553Y-113208958D02*
X134189403Y-113671424D01*
X135040269Y-115877209D02*
X135273893Y-116289615D01*
X147999602Y-117077581D02*
X147707994Y-117451243D01*
X134635084Y-115020518D02*
X134827161Y-115453837D01*
D10*
X140319084Y-131583312D02*
X140108332Y-131486220D01*
D14*
X143711077Y-128575000D02*
G75*
G03*
X143711077Y-128575000I-1811077J0D01*
G01*
D10*
X140108332Y-131486220D02*
X139360000Y-131115000D01*
X141436876Y-131879505D02*
X141207232Y-131846228D01*
X140979883Y-131799796D02*
X140755583Y-131740360D01*
D15*
X141900000Y-122975000D02*
X141983360Y-130975000D01*
D16*
X141900000Y-128575000D02*
X141900000Y-123615000D01*
D10*
X140535072Y-131668119D02*
X140319084Y-131583312D01*
X140755583Y-131740360D02*
X140535072Y-131668119D01*
X141207232Y-131846228D02*
X140979883Y-131799796D01*
X129333187Y-91738187D02*
X129207078Y-91662600D01*
X130556526Y-92893846D02*
X130614932Y-92996947D01*
X130614932Y-92996947D02*
X130668209Y-93102790D01*
X130424900Y-92696854D02*
X130493131Y-92793734D01*
X130192893Y-92427893D02*
X130274600Y-92513713D01*
X127854951Y-91252437D02*
X127500000Y-91235000D01*
X128206484Y-91304582D02*
X127854951Y-91252437D01*
X130888374Y-93898365D02*
X130897091Y-94016540D01*
X128885819Y-91510656D02*
X128551213Y-91390932D01*
X129207078Y-91662600D02*
X128885819Y-91510656D01*
X128551213Y-91390932D02*
X128206484Y-91304582D01*
X129511897Y-91845302D02*
X129333187Y-91738187D01*
X130060660Y-92295660D02*
X129797341Y-92057001D01*
X130853611Y-93664010D02*
X130873869Y-93780761D01*
X130758874Y-93321675D02*
X130796044Y-93434190D01*
X130827648Y-93548393D02*
X130853611Y-93664010D01*
X130873869Y-93780761D02*
X130888374Y-93898365D01*
X130796044Y-93434190D02*
X130827648Y-93548393D01*
X130493131Y-92793734D02*
X130556526Y-92893846D01*
X130351998Y-92603438D02*
X130424900Y-92696854D01*
X130274600Y-92513713D02*
X130351998Y-92603438D01*
X130897091Y-94016540D02*
X130900000Y-94135000D01*
X130192893Y-92427893D02*
X130060660Y-92295660D01*
X129797341Y-92057001D02*
X129511897Y-91845302D01*
X130716228Y-93211120D02*
X130758874Y-93321675D01*
X130668209Y-93102790D02*
X130716228Y-93211120D01*
X130902907Y-95155000D02*
X130900000Y-94125000D01*
X141340000Y-91235000D02*
X141024881Y-91214346D01*
X140715155Y-91152737D02*
X140416120Y-91051228D01*
X139419111Y-90290743D02*
X139585685Y-90480685D01*
X140132893Y-90911556D02*
X139870319Y-90736110D01*
X141024881Y-91214346D02*
X140715155Y-91152737D01*
X139870319Y-90736110D02*
X139632893Y-90527893D01*
X139036523Y-89367094D02*
X139085809Y-89614875D01*
X139167016Y-89854103D02*
X139278754Y-90080685D01*
X139278754Y-90080685D02*
X139419111Y-90290743D01*
X139585685Y-90480685D02*
X139632893Y-90527893D01*
X139020000Y-89115000D02*
X139036523Y-89367094D01*
X139085809Y-89614875D02*
X139167016Y-89854103D01*
X141340000Y-91235000D02*
X142740000Y-91235000D01*
X146980000Y-81975000D02*
X146470000Y-81975000D01*
X146470000Y-81975000D02*
X144745940Y-81975000D01*
X142740000Y-91235000D02*
X147300000Y-91235000D01*
D17*
X147410000Y-85375000D02*
X147410000Y-82880000D01*
D10*
X139036523Y-89367094D02*
X139020000Y-89115000D01*
X139278754Y-83039314D02*
X139167016Y-83265896D01*
X141050000Y-81975000D02*
X140797905Y-81991522D01*
X139167016Y-83265896D02*
X139085809Y-83505124D01*
X140797905Y-81991522D02*
X140550124Y-82040808D01*
X139585685Y-82639314D02*
X139419110Y-82829255D01*
X139036522Y-83752905D02*
X139036522Y-83752905D01*
X141050000Y-81975000D02*
X142820000Y-81975000D01*
X140310896Y-82122015D02*
X140084314Y-82233753D01*
X140084314Y-82233753D02*
X139874255Y-82374109D01*
X139085809Y-83505124D02*
X139036522Y-83752905D01*
X140550124Y-82040808D02*
X140310896Y-82122015D01*
X139020000Y-87615000D02*
X139020000Y-89115000D01*
X140550124Y-82040808D02*
X140550124Y-82040808D01*
X139020000Y-84005000D02*
X139020000Y-85855000D01*
X139036523Y-89367094D02*
X139036523Y-89367094D01*
X139874255Y-82374109D02*
X139684314Y-82540684D01*
X139036522Y-83752905D02*
X139020000Y-84005000D01*
X139020000Y-85855000D02*
X139020000Y-87615000D01*
X139684314Y-82540684D02*
X139585685Y-82639314D01*
X142820000Y-81975000D02*
X145090000Y-81975000D01*
X148542643Y-112455422D02*
X148452901Y-112242660D01*
X137083770Y-93181119D02*
X137131789Y-93072789D01*
X153782684Y-110833998D02*
X153912983Y-110737983D01*
X127570000Y-81975000D02*
X129840000Y-81975000D01*
X146779117Y-109524309D02*
X146840239Y-109764930D01*
X137041124Y-93291675D02*
X137083770Y-93181119D01*
X153583187Y-110945517D02*
X153782684Y-110833998D01*
X124169111Y-90290743D02*
X124335685Y-90480685D01*
X136796043Y-110575808D02*
X136716227Y-110798879D01*
X136888374Y-110111634D02*
X136853610Y-110345989D01*
X123786522Y-83752905D02*
X123786522Y-83752905D01*
X138288101Y-91815302D02*
X138514565Y-91679565D01*
X138002657Y-92027001D02*
X138288101Y-91815302D01*
X130900000Y-109600000D02*
X130911625Y-109836634D01*
X151820506Y-111972689D02*
X152009121Y-111816780D01*
D18*
X131175000Y-81575000D02*
X131914999Y-82269999D01*
D10*
X146151998Y-92573438D02*
X146224900Y-92666854D01*
X154132283Y-110540903D02*
X154276901Y-110363925D01*
X153966678Y-110698417D02*
X154132283Y-110540903D01*
D19*
X147725000Y-81975000D02*
X147720000Y-83280000D01*
X147720000Y-83280000D02*
X147307022Y-83241583D01*
X147307022Y-83241583D02*
X146757022Y-82711583D01*
X146757022Y-82711583D02*
X146240000Y-81230000D01*
X146240000Y-81230000D02*
X147725000Y-81975000D01*
G36*
X147725000Y-81975000D02*
G01*
X147720000Y-83280000D01*
X147307022Y-83241583D01*
X146757022Y-82711583D01*
X146240000Y-81230000D01*
X147725000Y-81975000D01*
G37*
X147725000Y-81975000D02*
X147720000Y-83280000D01*
X147307022Y-83241583D01*
X146757022Y-82711583D01*
X146240000Y-81230000D01*
X147725000Y-81975000D01*
D10*
X147869307Y-111519691D02*
X147699149Y-111344351D01*
X133023022Y-112924595D02*
X132983114Y-112813059D01*
X145992893Y-92397893D02*
X146074600Y-92483713D01*
X137185066Y-92966946D02*
X137243472Y-92863845D01*
X148201549Y-111856187D02*
X148088823Y-111736177D01*
D18*
X131346047Y-81983261D02*
X131220000Y-81975000D01*
D10*
X135296572Y-112551934D02*
X135357472Y-112450327D01*
X131185067Y-110738051D02*
X131306868Y-110941264D01*
X132312500Y-112012500D02*
X132721446Y-112421446D01*
X130911625Y-109836634D02*
X130946388Y-110070989D01*
X139945048Y-91222437D02*
X140300000Y-91205000D01*
D20*
X123725000Y-85855000D02*
X123725000Y-87615000D01*
D10*
X143300000Y-91205000D02*
X140400000Y-91205000D01*
X146697091Y-93986540D02*
X146700000Y-94105000D01*
X125166120Y-91051228D02*
X124882893Y-90911556D01*
X145992893Y-92397893D02*
X145860660Y-92265660D01*
X145597341Y-92027001D02*
X145311897Y-91815302D01*
X146700000Y-108785000D02*
X146708820Y-109033104D01*
X150730000Y-113505000D02*
X150924395Y-113125182D01*
X124028754Y-90080685D02*
X124169111Y-90290743D01*
X146414932Y-92966947D02*
X146468209Y-93072790D01*
X138592920Y-91632600D02*
X138914180Y-91480656D01*
X135784999Y-111989999D02*
X135507592Y-112267407D01*
X137525398Y-92483711D02*
X137607106Y-92397892D01*
D18*
X132136491Y-82595448D02*
X132177094Y-82715062D01*
D10*
X151642016Y-112140094D02*
X151820506Y-111972689D01*
X138914180Y-91480656D02*
X139248785Y-91360932D01*
D18*
X131702842Y-82104376D02*
X131589551Y-82048507D01*
D10*
X146708820Y-109033104D02*
X146735237Y-109279957D01*
X137739339Y-92265660D02*
X138002657Y-92027001D01*
X131025000Y-81975000D02*
X129495940Y-81975000D01*
X125465155Y-91152737D02*
X125166120Y-91051228D01*
X130900000Y-109600000D02*
X130900000Y-109525000D01*
D18*
X123786523Y-89367094D02*
X123835809Y-89614875D01*
D10*
X125800000Y-81975000D02*
X127570000Y-81975000D01*
X145311897Y-91815302D02*
X145133187Y-91708187D01*
X146708820Y-109033104D02*
X146735237Y-109279957D01*
X147261570Y-110757580D02*
X147220553Y-110684447D01*
X136972350Y-93518393D02*
X137003954Y-93404190D01*
X144006484Y-91274582D02*
X143654951Y-91222437D01*
D18*
X131421453Y-82129969D02*
X132205869Y-82901976D01*
D10*
X145860660Y-92265660D02*
X145597341Y-92027001D01*
X136900000Y-94105000D02*
X136902907Y-93986540D01*
X152207123Y-111672980D02*
X152970000Y-111245000D01*
D18*
X123786523Y-89367094D02*
X123770000Y-89115000D01*
D10*
X146627648Y-93518393D02*
X146653611Y-93634010D01*
X140300000Y-91205000D02*
X140400000Y-91205000D01*
D18*
X131469937Y-82007904D02*
X131346047Y-81983261D01*
D10*
X145133187Y-91708187D02*
X145007078Y-91632600D01*
X154710000Y-106555000D02*
X154710000Y-109165000D01*
D20*
X123725000Y-87615000D02*
X123725000Y-89115000D01*
D10*
X153490000Y-110995000D02*
X153583187Y-110945517D01*
X146074600Y-92483713D02*
X146151998Y-92573438D01*
X132871565Y-112604366D02*
X132800999Y-112509218D01*
X135428039Y-112355179D02*
X135507592Y-112267407D01*
X123917016Y-89854103D02*
X124028754Y-90080685D01*
X137448000Y-92573437D02*
X137525398Y-92483711D01*
X132983114Y-112813059D02*
X132932466Y-112705973D01*
D18*
X123786523Y-89367094D02*
X123786523Y-89367094D01*
X123375000Y-89150000D02*
X123525000Y-89975000D01*
X125900000Y-82300000D02*
X124425000Y-83200000D01*
D10*
X136946387Y-93634009D02*
X136972350Y-93518393D01*
X148644004Y-112905161D02*
X148606642Y-112677290D01*
X154710000Y-106685000D02*
X154720000Y-84175000D01*
X139248785Y-91360932D02*
X139593515Y-91274582D01*
X133069187Y-113156682D02*
X133051805Y-113039504D01*
D18*
X131902842Y-82257842D02*
X131807871Y-82174555D01*
X125350000Y-81600000D02*
X125800000Y-81575000D01*
D10*
X137003954Y-93404190D02*
X137041124Y-93291675D01*
X146653611Y-93634010D02*
X146673869Y-93750761D01*
X133051805Y-113039504D02*
X133023022Y-112924595D01*
D18*
X131589551Y-82048507D02*
X131469937Y-82007904D01*
X123375000Y-83600000D02*
X123375000Y-84925000D01*
D10*
X146293131Y-92763734D02*
X146356526Y-92863846D01*
X146700000Y-95145000D02*
X146700000Y-108785000D01*
D17*
X132160000Y-83000000D02*
X132160000Y-85390000D01*
D10*
X146516228Y-93181120D02*
X146558874Y-93291675D01*
X143654951Y-91222437D02*
X143300000Y-91205000D01*
X136900000Y-109875000D02*
X136900000Y-109525000D01*
X138514565Y-91679565D02*
X138592920Y-91632600D01*
D18*
X125325000Y-81625000D02*
X123400000Y-83550000D01*
D20*
X123786522Y-83752905D02*
X123770000Y-84005000D01*
D19*
X152746400Y-84919800D02*
X152071400Y-84919800D01*
X152071400Y-84919800D02*
X151071400Y-84920000D01*
X151071400Y-84920000D02*
X151075000Y-84100000D01*
X151075000Y-84100000D02*
X152746400Y-83444800D01*
X152746400Y-83444800D02*
X152746400Y-84919800D01*
G36*
X152746400Y-84919800D02*
G01*
X152071400Y-84919800D01*
X151071400Y-84920000D01*
X151075000Y-84100000D01*
X152746400Y-83444800D01*
X152746400Y-84919800D01*
G37*
X152746400Y-84919800D02*
X152071400Y-84919800D01*
X151071400Y-84920000D01*
X151075000Y-84100000D01*
X152746400Y-83444800D01*
X152746400Y-84919800D01*
D10*
X148338670Y-112041980D02*
X148201549Y-111856187D01*
X136716227Y-110798879D02*
X136631987Y-110976987D01*
D18*
X124500000Y-90050000D02*
X125625000Y-90775000D01*
D10*
X137131789Y-93072789D02*
X137185066Y-92966946D01*
X146688374Y-93868365D02*
X146697091Y-93986540D01*
X131326825Y-110968175D02*
X131448000Y-111131559D01*
X146700000Y-94105000D02*
X146700000Y-95125000D01*
X126090000Y-91235000D02*
X127490000Y-91235000D01*
X146945612Y-110097319D02*
X146869521Y-109865139D01*
X133075000Y-113275000D02*
X133069187Y-113156682D01*
X135245924Y-112659020D02*
X135296572Y-112551934D01*
X131607106Y-111307106D02*
X132312500Y-112012500D01*
X125774881Y-91214346D02*
X125465155Y-91152737D01*
D18*
X131600000Y-81975000D02*
X132010444Y-82377127D01*
D10*
X124882893Y-90911556D02*
X124620319Y-90736110D01*
X152970000Y-111245000D02*
X153490000Y-110995000D01*
X131083770Y-110523878D02*
X131185067Y-110738051D01*
X154494469Y-109962941D02*
X154564007Y-109745226D01*
X136900000Y-95175000D02*
X136900000Y-109525000D01*
X137375097Y-92666853D02*
X137448000Y-92573437D01*
X136900000Y-94105000D02*
X136900000Y-95155000D01*
X139593515Y-91274582D02*
X139945048Y-91222437D01*
D18*
X132010444Y-82377127D02*
X132080622Y-82482157D01*
D10*
X136902907Y-93986540D02*
X136911624Y-93868365D01*
X146558874Y-93291675D02*
X146596044Y-93404190D01*
X124620319Y-90736110D02*
X124382893Y-90527893D01*
X135177232Y-112885465D02*
X135206016Y-112770556D01*
X148088823Y-111736177D02*
X148043455Y-111687880D01*
X132800999Y-112509218D02*
X132721446Y-112421446D01*
X147869307Y-111519691D02*
X148043455Y-111687880D01*
D18*
X123770000Y-89115000D02*
X123786523Y-89367094D01*
D10*
X131003955Y-110300808D02*
X131083770Y-110523878D01*
X153912983Y-110737983D02*
X153966678Y-110698417D01*
X146356526Y-92863846D02*
X146414932Y-92966947D01*
X137243472Y-92863845D02*
X137306867Y-92763733D01*
X151318168Y-112506728D02*
X151474351Y-112318340D01*
D20*
X123725000Y-84005000D02*
X123725000Y-85855000D01*
D10*
X146700000Y-108785000D02*
X146708820Y-109033104D01*
X136911624Y-93868365D02*
X136926129Y-93750761D01*
X136351997Y-111406559D02*
X136192892Y-111582106D01*
X135357472Y-112450327D02*
X135428039Y-112355179D01*
X148606642Y-112677290D02*
X148542643Y-112455422D01*
D18*
X124143793Y-89360772D02*
X124500000Y-90050000D01*
D10*
X151474351Y-112318340D02*
X151642016Y-112140094D01*
X132932466Y-112705973D02*
X132871565Y-112604366D01*
X131448000Y-111131559D02*
X131607106Y-111307106D01*
X136926129Y-93750761D02*
X136946387Y-93634009D01*
X137607106Y-92397892D02*
X137739339Y-92265660D01*
X147142050Y-110544478D02*
X147036583Y-110324083D01*
X125800000Y-81975000D02*
X125547905Y-81991522D01*
D18*
X131927157Y-82282157D02*
X132010444Y-82377127D01*
D10*
X148654205Y-113135850D02*
X148644004Y-112905161D01*
X136900000Y-109875000D02*
X136888374Y-110111634D01*
D18*
X125025000Y-82425000D02*
X124075000Y-83925000D01*
X130100000Y-82375000D02*
X131550000Y-82375000D01*
D10*
X146596044Y-93404190D02*
X146627648Y-93518393D01*
X151174079Y-112704520D02*
X151318168Y-112506728D01*
X147394642Y-110962494D02*
X147261570Y-110757580D01*
X154710000Y-84175000D02*
X151825000Y-84175000D01*
D18*
X132177094Y-82715062D02*
X132201738Y-82838952D01*
X132010444Y-82377127D02*
X132108556Y-82538802D01*
D10*
X146673869Y-93750761D02*
X146688374Y-93868365D01*
X130946388Y-110070989D02*
X131003955Y-110300808D01*
X146224900Y-92666854D02*
X146293131Y-92763734D01*
X146468209Y-93072790D02*
X146516228Y-93181120D01*
X136631987Y-110976987D02*
X136614931Y-111013051D01*
X144351213Y-91360932D02*
X144006484Y-91274582D01*
X126090000Y-91235000D02*
X125774881Y-91214346D01*
X136493130Y-111216264D02*
X136351997Y-111406559D01*
X152009121Y-111816780D02*
X152109140Y-111744140D01*
D18*
X132080622Y-82482157D02*
X132136491Y-82595448D01*
D10*
X147220553Y-110684447D02*
X147142050Y-110544478D01*
X146840239Y-109764930D02*
X146869521Y-109865139D01*
X145007078Y-91632600D02*
X144685819Y-91480656D01*
X154398264Y-110170258D02*
X154494469Y-109962941D01*
X151042650Y-112910941D02*
X151174079Y-112704520D01*
X147540706Y-111158358D02*
X147394642Y-110962494D01*
X137306867Y-92763733D02*
X137375097Y-92666853D01*
D18*
X131807871Y-82174555D02*
X131702842Y-82104376D01*
X131902842Y-82257842D02*
X131927157Y-82282157D01*
D10*
X136192892Y-111582106D02*
X135784999Y-111989999D01*
D18*
X132136491Y-82595448D02*
X132189416Y-82777007D01*
X132210000Y-82965000D02*
X132210000Y-83385000D01*
D10*
X127490000Y-91235000D02*
X132050000Y-91235000D01*
X130900000Y-95175000D02*
X130900000Y-109505000D01*
X154564007Y-109745226D02*
X154630000Y-109545000D01*
X154276901Y-110363925D02*
X154398264Y-110170258D01*
X150924395Y-113125182D02*
X151042650Y-112910941D01*
X124335685Y-90480685D02*
X124382893Y-90527893D01*
X152109140Y-111744140D02*
X152207123Y-111672980D01*
X135206016Y-112770556D02*
X135245924Y-112659020D01*
X144685819Y-91480656D02*
X144351213Y-91360932D01*
X136853610Y-110345989D02*
X136796043Y-110575808D01*
X146735237Y-109279957D02*
X146779117Y-109524309D01*
D21*
%TO.C,C25*%
X100753707Y-57850000D03*
X101973467Y-56630240D03*
%TD*%
D22*
%TO.C,C27*%
X118600000Y-57562498D03*
X118600000Y-55837498D03*
%TD*%
D21*
%TO.C,C28*%
X129090120Y-74809880D03*
X130309880Y-73590120D03*
%TD*%
D23*
%TO.C,C30*%
X119285000Y-83350000D03*
X117560000Y-83350000D03*
%TD*%
D24*
%TO.C,C31*%
X113842944Y-83358210D03*
X115567944Y-83358210D03*
%TD*%
D25*
%TO.C,C32*%
X104100000Y-74100000D03*
X102880240Y-72880240D03*
%TD*%
D22*
%TO.C,C35*%
X113675000Y-57564999D03*
X113675000Y-55839999D03*
%TD*%
D26*
%TO.C,J3*%
X141900000Y-128575000D03*
X144440000Y-126035000D03*
X139360000Y-126035000D03*
X139360000Y-131115000D03*
X144440000Y-131115000D03*
%TD*%
D27*
%TO.C,R4*%
X122430000Y-58374999D03*
X122430000Y-56624999D03*
%TD*%
%TO.C,R5*%
X120900000Y-57385000D03*
X120900000Y-55635000D03*
%TD*%
D28*
%TO.C,U7*%
X114749911Y-59939629D03*
X114396357Y-60293183D03*
X114042804Y-60646736D03*
X113689251Y-61000290D03*
X113335697Y-61353843D03*
X112982144Y-61707396D03*
X112628590Y-62060950D03*
X112275037Y-62414503D03*
X111921484Y-62768056D03*
X111567930Y-63121610D03*
X111214377Y-63475163D03*
X110860823Y-63828717D03*
X110507270Y-64182270D03*
X110153717Y-64535823D03*
X109800163Y-64889377D03*
X109446610Y-65242930D03*
X109093056Y-65596484D03*
X108739503Y-65950037D03*
X108385950Y-66303590D03*
X108032396Y-66657144D03*
X107678843Y-67010697D03*
X107325290Y-67364251D03*
X106971736Y-67717804D03*
X106618183Y-68071357D03*
X106264629Y-68424911D03*
D29*
X106264629Y-71925089D03*
X106618183Y-72278643D03*
X106971736Y-72632196D03*
X107325290Y-72985749D03*
X107678843Y-73339303D03*
X108032396Y-73692856D03*
X108385950Y-74046410D03*
X108739503Y-74399963D03*
X109093056Y-74753516D03*
X109446610Y-75107070D03*
X109800163Y-75460623D03*
X110153717Y-75814177D03*
X110507270Y-76167730D03*
X110860823Y-76521283D03*
X111214377Y-76874837D03*
X111567930Y-77228390D03*
X111921484Y-77581944D03*
X112275037Y-77935497D03*
X112628590Y-78289050D03*
X112982144Y-78642604D03*
X113335697Y-78996157D03*
X113689251Y-79349710D03*
X114042804Y-79703264D03*
X114396357Y-80056817D03*
X114749911Y-80410371D03*
D28*
X118250089Y-80410371D03*
X118603643Y-80056817D03*
X118957196Y-79703264D03*
X119310749Y-79349710D03*
X119664303Y-78996157D03*
X120017856Y-78642604D03*
X120371410Y-78289050D03*
X120724963Y-77935497D03*
X121078516Y-77581944D03*
X121432070Y-77228390D03*
X121785623Y-76874837D03*
X122139177Y-76521283D03*
X122492730Y-76167730D03*
X122846283Y-75814177D03*
X123199837Y-75460623D03*
X123553390Y-75107070D03*
X123906944Y-74753516D03*
X124260497Y-74399963D03*
X124614050Y-74046410D03*
X124967604Y-73692856D03*
X125321157Y-73339303D03*
X125674710Y-72985749D03*
X126028264Y-72632196D03*
X126381817Y-72278643D03*
X126735371Y-71925089D03*
D29*
X126735371Y-68424911D03*
X126381817Y-68071357D03*
X126028264Y-67717804D03*
X125674710Y-67364251D03*
X125321157Y-67010697D03*
X124967604Y-66657144D03*
X124614050Y-66303590D03*
X124260497Y-65950037D03*
X123906944Y-65596484D03*
X123553390Y-65242930D03*
X123199837Y-64889377D03*
X122846283Y-64535823D03*
X122492730Y-64182270D03*
X122139177Y-63828717D03*
X121785623Y-63475163D03*
X121432070Y-63121610D03*
X121078516Y-62768056D03*
X120724963Y-62414503D03*
X120371410Y-62060950D03*
X120017856Y-61707396D03*
X119664303Y-61353843D03*
X119310749Y-61000290D03*
X118957196Y-60646736D03*
X118603643Y-60293183D03*
X118250089Y-59939629D03*
%TD*%
D30*
%TO.C,J5*%
X93000000Y-71800000D03*
D31*
X93000000Y-74570000D03*
X93000000Y-77340000D03*
X93000000Y-80110000D03*
X93000000Y-82880000D03*
X93000000Y-85650000D03*
X93000000Y-88420000D03*
X93000000Y-91190000D03*
X93000000Y-93960000D03*
X93000000Y-96730000D03*
X93000000Y-99500000D03*
X93000000Y-102270000D03*
X93000000Y-105040000D03*
X93000000Y-107810000D03*
X93000000Y-110580000D03*
X93000000Y-113350000D03*
X93000000Y-116120000D03*
X93000000Y-118890000D03*
X93000000Y-121660000D03*
X90460000Y-73185000D03*
X90460000Y-75955000D03*
X90460000Y-78725000D03*
X90460000Y-81495000D03*
X90460000Y-84265000D03*
X90460000Y-87035000D03*
X90460000Y-89805000D03*
X90460000Y-92575000D03*
X90460000Y-95345000D03*
X90460000Y-98115000D03*
X90460000Y-100885000D03*
X90460000Y-103655000D03*
X90460000Y-106425000D03*
X90460000Y-109195000D03*
X90460000Y-111965000D03*
X90460000Y-114735000D03*
X90460000Y-117505000D03*
X90460000Y-120275000D03*
D32*
X91730000Y-64980000D03*
X91730000Y-128480000D03*
%TD*%
D33*
%TO.C,U3*%
X141340000Y-122765000D03*
D34*
X141880000Y-122960000D03*
D33*
X142450000Y-122765000D03*
D35*
X142450000Y-123175000D03*
D33*
X142450000Y-123585000D03*
D36*
X141895000Y-123585000D03*
D33*
X141340000Y-123585000D03*
D35*
X141340000Y-123175000D03*
%TD*%
D22*
%TO.C,C34*%
X110900000Y-57569999D03*
X110900000Y-55844999D03*
%TD*%
%TO.C,C26*%
X115796250Y-57564999D03*
X115796250Y-55839999D03*
%TD*%
D24*
%TO.C,C29*%
X128980000Y-70110000D03*
X130705000Y-70110000D03*
%TD*%
D37*
%TO.C,U5*%
X129562500Y-58425000D03*
X129562500Y-59375000D03*
X129562500Y-60325000D03*
X131837500Y-60325000D03*
X131837500Y-59375000D03*
X131837500Y-58425000D03*
%TD*%
D38*
%TO.C,C2*%
X126720000Y-87445001D03*
X126720000Y-89170001D03*
%TD*%
D39*
%TO.C,C3*%
X137300000Y-87615000D03*
X137300000Y-88575000D03*
%TD*%
D40*
%TO.C,C12*%
X151130000Y-105915000D03*
X152090000Y-105915000D03*
%TD*%
D39*
%TO.C,C15*%
X152540000Y-85715000D03*
X152540000Y-86675000D03*
%TD*%
%TO.C,C17*%
X152540000Y-87615000D03*
X152540000Y-88575000D03*
%TD*%
D41*
%TO.C,U1*%
X133150000Y-89300000D03*
X133650000Y-89300000D03*
X134150000Y-89300000D03*
X134650000Y-89300000D03*
X135150000Y-89300000D03*
D42*
X136075000Y-88375000D03*
X136075000Y-87875000D03*
X136075000Y-87375000D03*
X136075000Y-86875000D03*
X136075000Y-86375000D03*
D41*
X135150000Y-85450000D03*
X134650000Y-85450000D03*
X134150000Y-85450000D03*
X133650000Y-85450000D03*
X133150000Y-85450000D03*
D42*
X132225000Y-86375000D03*
X132225000Y-86875000D03*
X132225000Y-87375000D03*
X132225000Y-87875000D03*
X132225000Y-88375000D03*
D43*
X134150000Y-87375000D03*
%TD*%
D44*
%TO.C,L1*%
X133437500Y-92525000D03*
X134407500Y-92525000D03*
%TD*%
D39*
%TO.C,C7*%
X133400000Y-93815000D03*
X133400000Y-94775000D03*
%TD*%
%TO.C,C8*%
X133900000Y-95765000D03*
X133900000Y-96725000D03*
%TD*%
%TO.C,C6*%
X135700000Y-91515000D03*
X135700000Y-92475000D03*
%TD*%
D45*
%TO.C,Y1*%
X129490000Y-88770000D03*
X129490000Y-84470000D03*
%TD*%
D46*
%TO.C,L2*%
X134420000Y-93810000D03*
X134420000Y-94780000D03*
%TD*%
D47*
%TO.C,J4*%
X139200000Y-57837500D03*
X138550000Y-57837500D03*
X137900000Y-57837500D03*
X137250000Y-57837500D03*
X136600000Y-57837500D03*
D48*
X135000000Y-55137500D03*
D49*
X134400000Y-55137500D03*
D50*
X138900000Y-55137500D03*
D51*
X140400000Y-57837500D03*
D50*
X136900000Y-55137500D03*
D51*
X135400000Y-57837500D03*
D49*
X141400000Y-55137500D03*
D48*
X140800000Y-55137500D03*
%TD*%
D22*
%TO.C,C18*%
X141970000Y-85795000D03*
X141970000Y-84070000D03*
%TD*%
%TO.C,C4*%
X126719999Y-85795000D03*
X126719999Y-84070000D03*
%TD*%
D40*
%TO.C,C11*%
X147960000Y-105295000D03*
X148920000Y-105295000D03*
%TD*%
D46*
%TO.C,L9*%
X149900000Y-99492501D03*
X149900000Y-100462501D03*
%TD*%
%TO.C,L4*%
X149900000Y-105285000D03*
X149900000Y-106255000D03*
%TD*%
D40*
%TO.C,C21*%
X150880000Y-100475000D03*
X151840000Y-100475000D03*
%TD*%
D46*
%TO.C,L11*%
X149900000Y-103345000D03*
X149900000Y-104315000D03*
%TD*%
D52*
%TO.C,C22*%
X148920000Y-102395000D03*
X147960000Y-102395000D03*
%TD*%
D53*
%TO.C,R1*%
X151980000Y-109085000D03*
X151980000Y-108065000D03*
%TD*%
D54*
%TO.C,U2*%
X150400000Y-107307500D03*
X149900000Y-107307500D03*
X149400000Y-107307500D03*
X148900000Y-107307500D03*
X148900000Y-109882500D03*
X149400000Y-109882500D03*
X149900000Y-109882500D03*
X150400000Y-109882500D03*
D55*
X149650000Y-108595000D03*
%TD*%
D56*
%TO.C,C9*%
X132890000Y-108885000D03*
X132890000Y-107925000D03*
%TD*%
D46*
%TO.C,L3*%
X133900000Y-108905000D03*
X133900000Y-109875000D03*
%TD*%
D56*
%TO.C,C10*%
X134910000Y-109745000D03*
X134910000Y-108785000D03*
%TD*%
D57*
%TO.C,L8*%
X148910000Y-95395000D03*
X147940000Y-95395000D03*
%TD*%
D44*
%TO.C,L6*%
X150880000Y-92525000D03*
X151850000Y-92525000D03*
%TD*%
D39*
%TO.C,C20*%
X149900000Y-92482500D03*
X149900000Y-93442500D03*
%TD*%
D46*
%TO.C,L7*%
X149900000Y-94395000D03*
X149900000Y-95365000D03*
%TD*%
D45*
%TO.C,Y2*%
X144740000Y-88770000D03*
X144740000Y-84470000D03*
%TD*%
D41*
%TO.C,U6*%
X148400000Y-89300000D03*
X148900000Y-89300000D03*
X149400000Y-89300000D03*
X149900000Y-89300000D03*
X150400000Y-89300000D03*
D42*
X151325000Y-88375000D03*
X151325000Y-87875000D03*
X151325000Y-87375000D03*
X151325000Y-86875000D03*
X151325000Y-86375000D03*
D41*
X150400000Y-85450000D03*
X149900000Y-85450000D03*
X149400000Y-85450000D03*
X148900000Y-85450000D03*
X148400000Y-85450000D03*
D42*
X147475000Y-86375000D03*
X147475000Y-86875000D03*
X147475000Y-87375000D03*
X147475000Y-87875000D03*
X147475000Y-88375000D03*
D43*
X149400000Y-87375000D03*
%TD*%
D38*
%TO.C,C16*%
X141970000Y-87455000D03*
X141970000Y-89180000D03*
%TD*%
D58*
%TO.C,D4*%
X99825000Y-100985000D03*
X98075000Y-100985000D03*
%TD*%
%TO.C,D6*%
X99825000Y-106970000D03*
X98075000Y-106970000D03*
%TD*%
%TO.C,R6*%
X103170000Y-106970000D03*
X101420000Y-106970000D03*
%TD*%
%TO.C,R8*%
X103170000Y-100985000D03*
X101420000Y-100985000D03*
%TD*%
%TO.C,R10*%
X103170000Y-95000000D03*
X101420000Y-95000000D03*
%TD*%
%TO.C,D3*%
X99825000Y-97992500D03*
X98075000Y-97992500D03*
%TD*%
%TO.C,R7*%
X103165000Y-104070000D03*
X101415000Y-104070000D03*
%TD*%
%TO.C,R9*%
X103170000Y-97992500D03*
X101420000Y-97992500D03*
%TD*%
%TO.C,D5*%
X99820000Y-104070000D03*
X98070000Y-104070000D03*
%TD*%
D59*
%TO.C,L5*%
X153030000Y-109075000D03*
X153030000Y-108105000D03*
%TD*%
D60*
%TO.C,J2*%
X138190000Y-77175000D03*
D61*
X135650000Y-77175000D03*
X138190000Y-74635000D03*
X135650000Y-74635000D03*
X138190000Y-72095000D03*
X135650000Y-72095000D03*
X138190000Y-69555000D03*
X135650000Y-69555000D03*
%TD*%
D60*
%TO.C,J1*%
X144890000Y-77155001D03*
D61*
X142350000Y-77155001D03*
X144890000Y-74615001D03*
X142350000Y-74615001D03*
X144890000Y-72075001D03*
X142350000Y-72075001D03*
X144890000Y-69535001D03*
X142350000Y-69535001D03*
%TD*%
D39*
%TO.C,C1*%
X137300000Y-85715000D03*
X137300000Y-86675000D03*
%TD*%
D62*
%TO.C,Y3*%
X106078060Y-56500646D03*
X103037500Y-59541206D03*
%TD*%
D63*
%TO.C,C24*%
X104378706Y-54225000D03*
X103158946Y-55444760D03*
%TD*%
D22*
%TO.C,C23*%
X99200000Y-64099999D03*
X99200000Y-62374999D03*
%TD*%
D64*
%TO.C,SW1*%
X103228570Y-80151430D03*
X97600000Y-85780000D03*
X106410550Y-83333410D03*
X100781980Y-88961980D03*
%TD*%
D65*
%TO.C,JP1*%
X125030000Y-55070000D03*
D61*
X127570000Y-55070000D03*
X130110000Y-55070000D03*
%TD*%
D58*
%TO.C,D2*%
X99825000Y-95000000D03*
X98075000Y-95000000D03*
%TD*%
D23*
%TO.C,C33*%
X103829999Y-70400000D03*
X102104999Y-70400000D03*
%TD*%
D56*
%TO.C,C5*%
X137300000Y-90455000D03*
X137300000Y-89495000D03*
%TD*%
D46*
%TO.C,L10*%
X149900000Y-101405000D03*
X149900000Y-102375000D03*
%TD*%
D56*
%TO.C,C19*%
X152540000Y-90485000D03*
X152540000Y-89525000D03*
%TD*%
D66*
%TO.C,R3*%
X144000000Y-60800000D03*
X144000000Y-58975000D03*
%TD*%
D67*
%TO.C,R12*%
X125095235Y-61015235D03*
X123804765Y-59724765D03*
%TD*%
D24*
%TO.C,C14*%
X144050000Y-62275000D03*
X145775000Y-62275000D03*
%TD*%
D68*
%TO.C,D1*%
X141900000Y-60375000D03*
X141900000Y-62425000D03*
%TD*%
D69*
%TO.C,R2*%
X145600000Y-58962500D03*
X145600000Y-60787500D03*
%TD*%
D23*
%TO.C,C13*%
X152225000Y-62275000D03*
X150500000Y-62275000D03*
%TD*%
D38*
%TO.C,C38*%
X102955635Y-66637500D03*
X102955635Y-68362500D03*
%TD*%
%TO.C,C37*%
X101400000Y-65300000D03*
X101400000Y-67025000D03*
%TD*%
D70*
%TO.C,U4*%
X147750000Y-55225000D03*
X147750000Y-56725000D03*
X147750000Y-58225000D03*
X147750000Y-59725000D03*
D71*
X154050000Y-57475000D03*
%TD*%
D23*
%TO.C,FB1*%
X139885000Y-60925000D03*
X138160000Y-60925000D03*
%TD*%
G36*
X141674633Y-122613517D02*
G01*
X141675197Y-122615436D01*
X141674916Y-122616075D01*
X141664767Y-122631263D01*
X141661000Y-122650199D01*
X141661000Y-123269801D01*
X141664767Y-123288738D01*
X141675380Y-123304620D01*
X141691262Y-123315233D01*
X141710199Y-123319000D01*
X142049801Y-123319000D01*
X142068738Y-123315233D01*
X142084620Y-123304620D01*
X142095233Y-123288738D01*
X142099000Y-123269801D01*
X142099000Y-122650199D01*
X142095233Y-122631262D01*
X142087886Y-122620267D01*
X142087755Y-122618271D01*
X142089418Y-122617160D01*
X142090660Y-122617493D01*
X142096424Y-122621344D01*
X142162788Y-122642125D01*
X142233590Y-122621335D01*
X142239340Y-122617493D01*
X142241336Y-122617362D01*
X142242447Y-122619025D01*
X142242114Y-122620267D01*
X142234767Y-122631262D01*
X142231000Y-122650199D01*
X142231000Y-122879801D01*
X142234767Y-122898738D01*
X142245380Y-122914620D01*
X142261262Y-122925233D01*
X142280199Y-122929000D01*
X142619801Y-122929000D01*
X142638738Y-122925233D01*
X142653773Y-122915186D01*
X142655768Y-122915055D01*
X142656880Y-122916718D01*
X142656793Y-122917447D01*
X142637898Y-122977788D01*
X142656955Y-123042690D01*
X142656483Y-123044633D01*
X142654564Y-123045197D01*
X142653925Y-123044916D01*
X142638737Y-123034767D01*
X142619801Y-123031000D01*
X142280199Y-123031000D01*
X142261262Y-123034767D01*
X142245380Y-123045380D01*
X142234767Y-123061262D01*
X142231000Y-123080199D01*
X142231000Y-123269801D01*
X142234767Y-123288738D01*
X142245380Y-123304620D01*
X142261262Y-123315233D01*
X142280199Y-123319000D01*
X142619801Y-123319000D01*
X142638738Y-123315233D01*
X142653773Y-123305186D01*
X142655768Y-123305055D01*
X142656880Y-123306718D01*
X142656793Y-123307447D01*
X142637898Y-123367788D01*
X142656955Y-123432690D01*
X142656483Y-123434633D01*
X142654564Y-123435197D01*
X142653925Y-123434916D01*
X142638737Y-123424767D01*
X142619801Y-123421000D01*
X142280199Y-123421000D01*
X142261262Y-123424767D01*
X142245380Y-123435380D01*
X142234767Y-123451262D01*
X142231000Y-123470199D01*
X142231000Y-123699801D01*
X142234767Y-123718738D01*
X142242114Y-123729733D01*
X142242245Y-123731729D01*
X142240582Y-123732840D01*
X142239340Y-123732507D01*
X142233576Y-123728656D01*
X142167212Y-123707875D01*
X142096410Y-123728665D01*
X142090660Y-123732507D01*
X142088664Y-123732638D01*
X142087553Y-123730975D01*
X142087886Y-123729733D01*
X142095233Y-123718738D01*
X142099000Y-123699801D01*
X142099000Y-123470199D01*
X142095233Y-123451262D01*
X142084620Y-123435380D01*
X142068738Y-123424767D01*
X142049801Y-123421000D01*
X141740199Y-123421000D01*
X141721262Y-123424767D01*
X141705380Y-123435380D01*
X141694767Y-123451262D01*
X141691000Y-123470199D01*
X141691000Y-123699801D01*
X141694767Y-123718738D01*
X141702114Y-123729733D01*
X141702245Y-123731729D01*
X141700582Y-123732840D01*
X141699340Y-123732507D01*
X141693576Y-123728656D01*
X141627212Y-123707875D01*
X141556410Y-123728665D01*
X141550660Y-123732507D01*
X141548664Y-123732638D01*
X141547553Y-123730975D01*
X141547886Y-123729733D01*
X141555233Y-123718738D01*
X141559000Y-123699801D01*
X141559000Y-123470199D01*
X141555233Y-123451262D01*
X141544620Y-123435380D01*
X141528738Y-123424767D01*
X141509801Y-123421000D01*
X141170199Y-123421000D01*
X141151262Y-123424767D01*
X141136227Y-123434814D01*
X141134232Y-123434945D01*
X141133120Y-123433282D01*
X141133207Y-123432553D01*
X141152102Y-123372212D01*
X141133045Y-123307310D01*
X141133517Y-123305367D01*
X141135436Y-123304803D01*
X141136075Y-123305084D01*
X141151263Y-123315233D01*
X141170199Y-123319000D01*
X141509801Y-123319000D01*
X141528738Y-123315233D01*
X141544620Y-123304620D01*
X141555233Y-123288738D01*
X141559000Y-123269801D01*
X141559000Y-123080199D01*
X141555233Y-123061262D01*
X141544620Y-123045380D01*
X141528738Y-123034767D01*
X141509801Y-123031000D01*
X141170199Y-123031000D01*
X141151262Y-123034767D01*
X141136227Y-123044814D01*
X141134232Y-123044945D01*
X141133120Y-123043282D01*
X141133207Y-123042553D01*
X141152102Y-122982212D01*
X141133045Y-122917310D01*
X141133517Y-122915367D01*
X141135436Y-122914803D01*
X141136075Y-122915084D01*
X141151263Y-122925233D01*
X141170199Y-122929000D01*
X141509801Y-122929000D01*
X141528738Y-122925233D01*
X141544620Y-122914620D01*
X141555233Y-122898738D01*
X141559000Y-122879801D01*
X141559000Y-122650199D01*
X141555233Y-122631262D01*
X141545186Y-122616227D01*
X141545055Y-122614232D01*
X141546718Y-122613120D01*
X141547447Y-122613207D01*
X141607788Y-122632102D01*
X141672690Y-122613045D01*
X141674633Y-122613517D01*
G37*
G36*
X150547510Y-109362979D02*
G01*
X150547049Y-109364393D01*
X150507727Y-109411446D01*
X150499096Y-109480162D01*
X150529060Y-109542792D01*
X150540599Y-109552791D01*
X150541253Y-109554681D01*
X150539943Y-109556192D01*
X150538899Y-109556264D01*
X150487301Y-109546000D01*
X150312699Y-109546000D01*
X150260277Y-109556428D01*
X150216008Y-109586008D01*
X150186428Y-109630277D01*
X150176000Y-109682699D01*
X150176000Y-110082301D01*
X150186428Y-110134723D01*
X150215252Y-110177861D01*
X150215383Y-110179857D01*
X150213720Y-110180968D01*
X150212991Y-110180881D01*
X150152211Y-110161850D01*
X150086879Y-110181033D01*
X150084936Y-110180561D01*
X150084372Y-110178642D01*
X150084653Y-110178003D01*
X150113572Y-110134723D01*
X150124000Y-110082301D01*
X150124000Y-109682699D01*
X150113572Y-109630277D01*
X150083992Y-109586008D01*
X150039723Y-109556428D01*
X149987301Y-109546000D01*
X149812699Y-109546000D01*
X149760277Y-109556428D01*
X149716008Y-109586008D01*
X149686428Y-109630277D01*
X149676000Y-109682699D01*
X149676000Y-110082301D01*
X149686428Y-110134723D01*
X149715252Y-110177861D01*
X149715383Y-110179857D01*
X149713720Y-110180968D01*
X149712991Y-110180881D01*
X149652211Y-110161850D01*
X149586879Y-110181033D01*
X149584936Y-110180561D01*
X149584372Y-110178642D01*
X149584653Y-110178003D01*
X149613572Y-110134723D01*
X149624000Y-110082301D01*
X149624000Y-109682699D01*
X149613572Y-109630277D01*
X149583992Y-109586008D01*
X149539723Y-109556428D01*
X149487301Y-109546000D01*
X149312699Y-109546000D01*
X149260277Y-109556428D01*
X149216008Y-109586008D01*
X149186428Y-109630277D01*
X149176000Y-109682699D01*
X149176000Y-110082301D01*
X149186428Y-110134723D01*
X149215252Y-110177861D01*
X149215383Y-110179857D01*
X149213720Y-110180968D01*
X149212991Y-110180881D01*
X149152211Y-110161850D01*
X149086879Y-110181033D01*
X149084936Y-110180561D01*
X149084372Y-110178642D01*
X149084653Y-110178003D01*
X149113572Y-110134723D01*
X149124000Y-110082301D01*
X149124000Y-109682699D01*
X149113572Y-109630277D01*
X149083992Y-109586008D01*
X149039723Y-109556428D01*
X148987301Y-109546000D01*
X148812699Y-109546000D01*
X148760277Y-109556428D01*
X148755595Y-109559556D01*
X148753599Y-109559687D01*
X148752488Y-109558024D01*
X148752949Y-109556610D01*
X148792273Y-109509555D01*
X148800904Y-109440840D01*
X148770940Y-109378210D01*
X148760095Y-109368812D01*
X148759441Y-109366922D01*
X148760751Y-109365411D01*
X148761795Y-109365339D01*
X148780199Y-109369000D01*
X150519801Y-109369000D01*
X150538737Y-109365233D01*
X150544403Y-109361447D01*
X150546398Y-109361316D01*
X150547510Y-109362979D01*
G37*
G36*
X150215064Y-107009439D02*
G01*
X150215628Y-107011358D01*
X150215347Y-107011997D01*
X150186428Y-107055277D01*
X150176000Y-107107699D01*
X150176000Y-107507301D01*
X150186428Y-107559723D01*
X150216008Y-107603992D01*
X150260277Y-107633572D01*
X150312699Y-107644000D01*
X150487301Y-107644000D01*
X150539723Y-107633572D01*
X150544405Y-107630444D01*
X150546401Y-107630313D01*
X150547512Y-107631976D01*
X150547051Y-107633390D01*
X150507727Y-107680445D01*
X150499096Y-107749160D01*
X150529060Y-107811790D01*
X150539905Y-107821188D01*
X150540559Y-107823078D01*
X150539249Y-107824589D01*
X150538205Y-107824661D01*
X150519801Y-107821000D01*
X148780199Y-107821000D01*
X148761263Y-107824767D01*
X148755597Y-107828553D01*
X148753602Y-107828684D01*
X148752490Y-107827021D01*
X148752951Y-107825607D01*
X148792273Y-107778554D01*
X148800904Y-107709838D01*
X148770940Y-107647208D01*
X148759401Y-107637209D01*
X148758747Y-107635319D01*
X148760057Y-107633808D01*
X148761101Y-107633736D01*
X148812699Y-107644000D01*
X148987301Y-107644000D01*
X149039723Y-107633572D01*
X149083992Y-107603992D01*
X149113572Y-107559723D01*
X149124000Y-107507301D01*
X149124000Y-107107699D01*
X149113572Y-107055277D01*
X149084748Y-107012139D01*
X149084617Y-107010143D01*
X149086280Y-107009032D01*
X149087009Y-107009119D01*
X149147789Y-107028150D01*
X149213121Y-107008967D01*
X149215064Y-107009439D01*
X149215628Y-107011358D01*
X149215347Y-107011997D01*
X149186428Y-107055277D01*
X149176000Y-107107699D01*
X149176000Y-107507301D01*
X149186428Y-107559723D01*
X149216008Y-107603992D01*
X149260277Y-107633572D01*
X149312699Y-107644000D01*
X149487301Y-107644000D01*
X149539723Y-107633572D01*
X149583992Y-107603992D01*
X149613572Y-107559723D01*
X149624000Y-107507301D01*
X149624000Y-107107699D01*
X149613572Y-107055277D01*
X149584748Y-107012139D01*
X149584617Y-107010143D01*
X149586280Y-107009032D01*
X149587009Y-107009119D01*
X149647789Y-107028150D01*
X149713121Y-107008967D01*
X149715064Y-107009439D01*
X149715628Y-107011358D01*
X149715347Y-107011997D01*
X149686428Y-107055277D01*
X149676000Y-107107699D01*
X149676000Y-107507301D01*
X149686428Y-107559723D01*
X149716008Y-107603992D01*
X149760277Y-107633572D01*
X149812699Y-107644000D01*
X149987301Y-107644000D01*
X150039723Y-107633572D01*
X150083992Y-107603992D01*
X150113572Y-107559723D01*
X150124000Y-107507301D01*
X150124000Y-107107699D01*
X150113572Y-107055277D01*
X150084748Y-107012139D01*
X150084617Y-107010143D01*
X150086280Y-107009032D01*
X150087009Y-107009119D01*
X150147789Y-107028150D01*
X150213121Y-107008967D01*
X150215064Y-107009439D01*
G37*
G36*
X135435521Y-88725000D02*
G01*
X135435521Y-88727000D01*
X135434352Y-88727919D01*
X135367340Y-88747595D01*
X135322005Y-88799916D01*
X135313218Y-88875302D01*
X135315835Y-88888456D01*
X135315192Y-88890350D01*
X135313230Y-88890740D01*
X135312210Y-88889957D01*
X135291315Y-88858685D01*
X135255156Y-88834525D01*
X135212301Y-88826000D01*
X135087699Y-88826000D01*
X135044844Y-88834525D01*
X135008685Y-88858685D01*
X134984525Y-88894844D01*
X134976000Y-88937699D01*
X134976000Y-89662301D01*
X134984525Y-89705156D01*
X134999052Y-89726898D01*
X134999183Y-89728894D01*
X134997520Y-89730005D01*
X134996106Y-89729544D01*
X134949055Y-89690223D01*
X134880339Y-89681592D01*
X134817709Y-89711556D01*
X134810202Y-89720219D01*
X134808312Y-89720873D01*
X134806801Y-89719563D01*
X134807028Y-89717798D01*
X134815475Y-89705156D01*
X134824000Y-89662301D01*
X134824000Y-88937699D01*
X134815475Y-88894844D01*
X134791315Y-88858685D01*
X134755156Y-88834525D01*
X134712301Y-88826000D01*
X134587699Y-88826000D01*
X134544844Y-88834525D01*
X134508685Y-88858685D01*
X134484525Y-88894844D01*
X134476000Y-88937699D01*
X134476000Y-89662301D01*
X134484525Y-89705156D01*
X134499052Y-89726898D01*
X134499183Y-89728894D01*
X134497520Y-89730005D01*
X134496106Y-89729544D01*
X134449055Y-89690223D01*
X134380339Y-89681592D01*
X134317709Y-89711556D01*
X134310202Y-89720219D01*
X134308312Y-89720873D01*
X134306801Y-89719563D01*
X134307028Y-89717798D01*
X134315475Y-89705156D01*
X134324000Y-89662301D01*
X134324000Y-88937699D01*
X134315475Y-88894844D01*
X134291315Y-88858685D01*
X134255156Y-88834525D01*
X134212301Y-88826000D01*
X134087699Y-88826000D01*
X134044844Y-88834525D01*
X134008685Y-88858685D01*
X133984525Y-88894844D01*
X133976000Y-88937699D01*
X133976000Y-89662301D01*
X133984525Y-89705156D01*
X133999052Y-89726898D01*
X133999183Y-89728894D01*
X133997520Y-89730005D01*
X133996106Y-89729544D01*
X133949055Y-89690223D01*
X133880339Y-89681592D01*
X133817709Y-89711556D01*
X133810202Y-89720219D01*
X133808312Y-89720873D01*
X133806801Y-89719563D01*
X133807028Y-89717798D01*
X133815475Y-89705156D01*
X133824000Y-89662301D01*
X133824000Y-88937699D01*
X133815475Y-88894844D01*
X133791315Y-88858685D01*
X133755156Y-88834525D01*
X133712301Y-88826000D01*
X133587699Y-88826000D01*
X133544844Y-88834525D01*
X133508685Y-88858685D01*
X133484525Y-88894844D01*
X133476000Y-88937699D01*
X133476000Y-89662301D01*
X133484525Y-89705156D01*
X133499052Y-89726898D01*
X133499183Y-89728894D01*
X133497520Y-89730005D01*
X133496106Y-89729544D01*
X133449055Y-89690223D01*
X133380339Y-89681592D01*
X133317709Y-89711556D01*
X133310202Y-89720219D01*
X133308312Y-89720873D01*
X133306801Y-89719563D01*
X133307028Y-89717798D01*
X133315475Y-89705156D01*
X133324000Y-89662301D01*
X133324000Y-88937699D01*
X133315475Y-88894844D01*
X133291315Y-88858685D01*
X133255156Y-88834525D01*
X133212301Y-88826000D01*
X133087699Y-88826000D01*
X133044844Y-88834525D01*
X133008685Y-88858685D01*
X132987789Y-88889958D01*
X132985995Y-88890843D01*
X132984332Y-88889732D01*
X132984164Y-88888457D01*
X132986786Y-88875275D01*
X132980586Y-88805996D01*
X132938117Y-88751325D01*
X132873726Y-88730530D01*
X132873484Y-88730262D01*
X132872066Y-88729980D01*
X132871841Y-88729921D01*
X132865592Y-88727903D01*
X132864251Y-88726419D01*
X132864866Y-88724516D01*
X132866207Y-88724000D01*
X135433789Y-88724000D01*
X135435521Y-88725000D01*
G37*
G36*
X150685521Y-88725000D02*
G01*
X150685521Y-88727000D01*
X150684352Y-88727919D01*
X150617340Y-88747595D01*
X150572005Y-88799916D01*
X150563218Y-88875302D01*
X150565835Y-88888456D01*
X150565192Y-88890350D01*
X150563230Y-88890740D01*
X150562210Y-88889957D01*
X150541315Y-88858685D01*
X150505156Y-88834525D01*
X150462301Y-88826000D01*
X150337699Y-88826000D01*
X150294844Y-88834525D01*
X150258685Y-88858685D01*
X150234525Y-88894844D01*
X150226000Y-88937699D01*
X150226000Y-89662301D01*
X150234525Y-89705156D01*
X150249052Y-89726898D01*
X150249183Y-89728894D01*
X150247520Y-89730005D01*
X150246106Y-89729544D01*
X150199055Y-89690223D01*
X150130339Y-89681592D01*
X150067709Y-89711556D01*
X150060202Y-89720219D01*
X150058312Y-89720873D01*
X150056801Y-89719563D01*
X150057028Y-89717798D01*
X150065475Y-89705156D01*
X150074000Y-89662301D01*
X150074000Y-88937699D01*
X150065475Y-88894844D01*
X150041315Y-88858685D01*
X150005156Y-88834525D01*
X149962301Y-88826000D01*
X149837699Y-88826000D01*
X149794844Y-88834525D01*
X149758685Y-88858685D01*
X149734525Y-88894844D01*
X149726000Y-88937699D01*
X149726000Y-89662301D01*
X149734525Y-89705156D01*
X149749052Y-89726898D01*
X149749183Y-89728894D01*
X149747520Y-89730005D01*
X149746106Y-89729544D01*
X149699055Y-89690223D01*
X149630339Y-89681592D01*
X149567709Y-89711556D01*
X149560202Y-89720219D01*
X149558312Y-89720873D01*
X149556801Y-89719563D01*
X149557028Y-89717798D01*
X149565475Y-89705156D01*
X149574000Y-89662301D01*
X149574000Y-88937699D01*
X149565475Y-88894844D01*
X149541315Y-88858685D01*
X149505156Y-88834525D01*
X149462301Y-88826000D01*
X149337699Y-88826000D01*
X149294844Y-88834525D01*
X149258685Y-88858685D01*
X149234525Y-88894844D01*
X149226000Y-88937699D01*
X149226000Y-89662301D01*
X149234525Y-89705156D01*
X149249052Y-89726898D01*
X149249183Y-89728894D01*
X149247520Y-89730005D01*
X149246106Y-89729544D01*
X149199055Y-89690223D01*
X149130339Y-89681592D01*
X149067709Y-89711556D01*
X149060202Y-89720219D01*
X149058312Y-89720873D01*
X149056801Y-89719563D01*
X149057028Y-89717798D01*
X149065475Y-89705156D01*
X149074000Y-89662301D01*
X149074000Y-88937699D01*
X149065475Y-88894844D01*
X149041315Y-88858685D01*
X149005156Y-88834525D01*
X148962301Y-88826000D01*
X148837699Y-88826000D01*
X148794844Y-88834525D01*
X148758685Y-88858685D01*
X148734525Y-88894844D01*
X148726000Y-88937699D01*
X148726000Y-89662301D01*
X148734525Y-89705156D01*
X148749052Y-89726898D01*
X148749183Y-89728894D01*
X148747520Y-89730005D01*
X148746106Y-89729544D01*
X148699055Y-89690223D01*
X148630339Y-89681592D01*
X148567709Y-89711556D01*
X148560202Y-89720219D01*
X148558312Y-89720873D01*
X148556801Y-89719563D01*
X148557028Y-89717798D01*
X148565475Y-89705156D01*
X148574000Y-89662301D01*
X148574000Y-88937699D01*
X148565475Y-88894844D01*
X148541315Y-88858685D01*
X148505156Y-88834525D01*
X148462301Y-88826000D01*
X148337699Y-88826000D01*
X148294844Y-88834525D01*
X148258685Y-88858685D01*
X148237789Y-88889958D01*
X148235995Y-88890843D01*
X148234332Y-88889732D01*
X148234164Y-88888457D01*
X148236786Y-88875275D01*
X148230586Y-88805996D01*
X148188117Y-88751325D01*
X148123726Y-88730530D01*
X148123484Y-88730262D01*
X148122066Y-88729980D01*
X148121841Y-88729921D01*
X148115592Y-88727903D01*
X148114251Y-88726419D01*
X148114866Y-88724516D01*
X148116207Y-88724000D01*
X150683789Y-88724000D01*
X150685521Y-88725000D01*
G37*
G36*
X135502919Y-86090648D02*
G01*
X135522595Y-86157660D01*
X135574916Y-86202995D01*
X135650302Y-86211782D01*
X135663456Y-86209165D01*
X135665350Y-86209808D01*
X135665740Y-86211770D01*
X135664957Y-86212790D01*
X135633685Y-86233685D01*
X135609525Y-86269844D01*
X135601000Y-86312699D01*
X135601000Y-86437301D01*
X135609525Y-86480156D01*
X135633685Y-86516315D01*
X135669844Y-86540475D01*
X135712699Y-86549000D01*
X136437301Y-86549000D01*
X136480156Y-86540475D01*
X136501898Y-86525948D01*
X136503894Y-86525817D01*
X136505005Y-86527480D01*
X136504544Y-86528894D01*
X136465223Y-86575945D01*
X136456592Y-86644661D01*
X136486556Y-86707291D01*
X136495219Y-86714798D01*
X136495873Y-86716688D01*
X136494563Y-86718199D01*
X136492798Y-86717972D01*
X136480156Y-86709525D01*
X136437301Y-86701000D01*
X135712699Y-86701000D01*
X135669844Y-86709525D01*
X135633685Y-86733685D01*
X135609525Y-86769844D01*
X135601000Y-86812699D01*
X135601000Y-86937301D01*
X135609525Y-86980156D01*
X135633685Y-87016315D01*
X135669844Y-87040475D01*
X135712699Y-87049000D01*
X136437301Y-87049000D01*
X136480156Y-87040475D01*
X136501898Y-87025948D01*
X136503894Y-87025817D01*
X136505005Y-87027480D01*
X136504544Y-87028894D01*
X136465223Y-87075945D01*
X136456592Y-87144661D01*
X136486556Y-87207291D01*
X136495219Y-87214798D01*
X136495873Y-87216688D01*
X136494563Y-87218199D01*
X136492798Y-87217972D01*
X136480156Y-87209525D01*
X136437301Y-87201000D01*
X135712699Y-87201000D01*
X135669844Y-87209525D01*
X135633685Y-87233685D01*
X135609525Y-87269844D01*
X135601000Y-87312699D01*
X135601000Y-87437301D01*
X135609525Y-87480156D01*
X135633685Y-87516315D01*
X135669844Y-87540475D01*
X135712699Y-87549000D01*
X136437301Y-87549000D01*
X136480156Y-87540475D01*
X136501898Y-87525948D01*
X136503894Y-87525817D01*
X136505005Y-87527480D01*
X136504544Y-87528894D01*
X136465223Y-87575945D01*
X136456592Y-87644661D01*
X136486556Y-87707291D01*
X136495219Y-87714798D01*
X136495873Y-87716688D01*
X136494563Y-87718199D01*
X136492798Y-87717972D01*
X136480156Y-87709525D01*
X136437301Y-87701000D01*
X135712699Y-87701000D01*
X135669844Y-87709525D01*
X135633685Y-87733685D01*
X135609525Y-87769844D01*
X135601000Y-87812699D01*
X135601000Y-87937301D01*
X135609525Y-87980156D01*
X135633685Y-88016315D01*
X135669844Y-88040475D01*
X135712699Y-88049000D01*
X136437301Y-88049000D01*
X136480156Y-88040475D01*
X136501898Y-88025948D01*
X136503894Y-88025817D01*
X136505005Y-88027480D01*
X136504544Y-88028894D01*
X136465223Y-88075945D01*
X136456592Y-88144661D01*
X136486556Y-88207291D01*
X136495219Y-88214798D01*
X136495873Y-88216688D01*
X136494563Y-88218199D01*
X136492798Y-88217972D01*
X136480156Y-88209525D01*
X136437301Y-88201000D01*
X135712699Y-88201000D01*
X135669844Y-88209525D01*
X135633685Y-88233685D01*
X135609525Y-88269844D01*
X135601000Y-88312699D01*
X135601000Y-88437301D01*
X135609525Y-88480156D01*
X135633685Y-88516315D01*
X135664958Y-88537211D01*
X135665843Y-88539005D01*
X135664732Y-88540668D01*
X135663457Y-88540836D01*
X135650275Y-88538214D01*
X135580996Y-88544414D01*
X135526325Y-88586883D01*
X135505530Y-88651274D01*
X135505262Y-88651516D01*
X135504980Y-88652934D01*
X135504921Y-88653159D01*
X135502903Y-88659407D01*
X135501419Y-88660748D01*
X135499516Y-88660133D01*
X135499000Y-88658792D01*
X135499000Y-86091211D01*
X135500000Y-86089479D01*
X135502000Y-86089479D01*
X135502919Y-86090648D01*
G37*
G36*
X150752919Y-86090648D02*
G01*
X150772595Y-86157660D01*
X150824916Y-86202995D01*
X150900302Y-86211782D01*
X150913456Y-86209165D01*
X150915350Y-86209808D01*
X150915740Y-86211770D01*
X150914957Y-86212790D01*
X150883685Y-86233685D01*
X150859525Y-86269844D01*
X150851000Y-86312699D01*
X150851000Y-86437301D01*
X150859525Y-86480156D01*
X150883685Y-86516315D01*
X150919844Y-86540475D01*
X150962699Y-86549000D01*
X151687301Y-86549000D01*
X151730156Y-86540475D01*
X151751898Y-86525948D01*
X151753894Y-86525817D01*
X151755005Y-86527480D01*
X151754544Y-86528894D01*
X151715223Y-86575945D01*
X151706592Y-86644661D01*
X151736556Y-86707291D01*
X151745219Y-86714798D01*
X151745873Y-86716688D01*
X151744563Y-86718199D01*
X151742798Y-86717972D01*
X151730156Y-86709525D01*
X151687301Y-86701000D01*
X150962699Y-86701000D01*
X150919844Y-86709525D01*
X150883685Y-86733685D01*
X150859525Y-86769844D01*
X150851000Y-86812699D01*
X150851000Y-86937301D01*
X150859525Y-86980156D01*
X150883685Y-87016315D01*
X150919844Y-87040475D01*
X150962699Y-87049000D01*
X151687301Y-87049000D01*
X151730156Y-87040475D01*
X151751898Y-87025948D01*
X151753894Y-87025817D01*
X151755005Y-87027480D01*
X151754544Y-87028894D01*
X151715223Y-87075945D01*
X151706592Y-87144661D01*
X151736556Y-87207291D01*
X151745219Y-87214798D01*
X151745873Y-87216688D01*
X151744563Y-87218199D01*
X151742798Y-87217972D01*
X151730156Y-87209525D01*
X151687301Y-87201000D01*
X150962699Y-87201000D01*
X150919844Y-87209525D01*
X150883685Y-87233685D01*
X150859525Y-87269844D01*
X150851000Y-87312699D01*
X150851000Y-87437301D01*
X150859525Y-87480156D01*
X150883685Y-87516315D01*
X150919844Y-87540475D01*
X150962699Y-87549000D01*
X151687301Y-87549000D01*
X151730156Y-87540475D01*
X151751898Y-87525948D01*
X151753894Y-87525817D01*
X151755005Y-87527480D01*
X151754544Y-87528894D01*
X151715223Y-87575945D01*
X151706592Y-87644661D01*
X151736556Y-87707291D01*
X151745219Y-87714798D01*
X151745873Y-87716688D01*
X151744563Y-87718199D01*
X151742798Y-87717972D01*
X151730156Y-87709525D01*
X151687301Y-87701000D01*
X150962699Y-87701000D01*
X150919844Y-87709525D01*
X150883685Y-87733685D01*
X150859525Y-87769844D01*
X150851000Y-87812699D01*
X150851000Y-87937301D01*
X150859525Y-87980156D01*
X150883685Y-88016315D01*
X150919844Y-88040475D01*
X150962699Y-88049000D01*
X151687301Y-88049000D01*
X151730156Y-88040475D01*
X151751898Y-88025948D01*
X151753894Y-88025817D01*
X151755005Y-88027480D01*
X151754544Y-88028894D01*
X151715223Y-88075945D01*
X151706592Y-88144661D01*
X151736556Y-88207291D01*
X151745219Y-88214798D01*
X151745873Y-88216688D01*
X151744563Y-88218199D01*
X151742798Y-88217972D01*
X151730156Y-88209525D01*
X151687301Y-88201000D01*
X150962699Y-88201000D01*
X150919844Y-88209525D01*
X150883685Y-88233685D01*
X150859525Y-88269844D01*
X150851000Y-88312699D01*
X150851000Y-88437301D01*
X150859525Y-88480156D01*
X150883685Y-88516315D01*
X150914958Y-88537211D01*
X150915843Y-88539005D01*
X150914732Y-88540668D01*
X150913457Y-88540836D01*
X150900275Y-88538214D01*
X150830996Y-88544414D01*
X150776325Y-88586883D01*
X150755530Y-88651274D01*
X150755262Y-88651516D01*
X150754980Y-88652934D01*
X150754921Y-88653159D01*
X150752903Y-88659407D01*
X150751419Y-88660748D01*
X150749516Y-88660133D01*
X150749000Y-88658792D01*
X150749000Y-86091211D01*
X150750000Y-86089479D01*
X150752000Y-86089479D01*
X150752919Y-86090648D01*
G37*
G36*
X132800484Y-86089867D02*
G01*
X132801000Y-86091208D01*
X132801000Y-88658789D01*
X132800000Y-88660521D01*
X132798000Y-88660521D01*
X132797081Y-88659352D01*
X132777405Y-88592340D01*
X132725084Y-88547005D01*
X132649698Y-88538218D01*
X132636544Y-88540835D01*
X132634650Y-88540192D01*
X132634260Y-88538230D01*
X132635043Y-88537210D01*
X132666315Y-88516315D01*
X132690475Y-88480156D01*
X132699000Y-88437301D01*
X132699000Y-88312699D01*
X132690475Y-88269844D01*
X132666315Y-88233685D01*
X132630156Y-88209525D01*
X132587301Y-88201000D01*
X131862699Y-88201000D01*
X131819844Y-88209525D01*
X131798102Y-88224052D01*
X131796106Y-88224183D01*
X131794995Y-88222520D01*
X131795456Y-88221106D01*
X131834777Y-88174055D01*
X131843408Y-88105339D01*
X131813444Y-88042709D01*
X131804781Y-88035202D01*
X131804127Y-88033312D01*
X131805437Y-88031801D01*
X131807202Y-88032028D01*
X131819844Y-88040475D01*
X131862699Y-88049000D01*
X132587301Y-88049000D01*
X132630156Y-88040475D01*
X132666315Y-88016315D01*
X132690475Y-87980156D01*
X132699000Y-87937301D01*
X132699000Y-87812699D01*
X132690475Y-87769844D01*
X132666315Y-87733685D01*
X132630156Y-87709525D01*
X132587301Y-87701000D01*
X131862699Y-87701000D01*
X131819844Y-87709525D01*
X131798102Y-87724052D01*
X131796106Y-87724183D01*
X131794995Y-87722520D01*
X131795456Y-87721106D01*
X131834777Y-87674055D01*
X131843408Y-87605339D01*
X131813444Y-87542709D01*
X131804781Y-87535202D01*
X131804127Y-87533312D01*
X131805437Y-87531801D01*
X131807202Y-87532028D01*
X131819844Y-87540475D01*
X131862699Y-87549000D01*
X132587301Y-87549000D01*
X132630156Y-87540475D01*
X132666315Y-87516315D01*
X132690475Y-87480156D01*
X132699000Y-87437301D01*
X132699000Y-87312699D01*
X132690475Y-87269844D01*
X132666315Y-87233685D01*
X132630156Y-87209525D01*
X132587301Y-87201000D01*
X131862699Y-87201000D01*
X131819844Y-87209525D01*
X131798102Y-87224052D01*
X131796106Y-87224183D01*
X131794995Y-87222520D01*
X131795456Y-87221106D01*
X131834777Y-87174055D01*
X131843408Y-87105339D01*
X131813444Y-87042709D01*
X131804781Y-87035202D01*
X131804127Y-87033312D01*
X131805437Y-87031801D01*
X131807202Y-87032028D01*
X131819844Y-87040475D01*
X131862699Y-87049000D01*
X132587301Y-87049000D01*
X132630156Y-87040475D01*
X132666315Y-87016315D01*
X132690475Y-86980156D01*
X132699000Y-86937301D01*
X132699000Y-86812699D01*
X132690475Y-86769844D01*
X132666315Y-86733685D01*
X132630156Y-86709525D01*
X132587301Y-86701000D01*
X131862699Y-86701000D01*
X131819844Y-86709525D01*
X131798102Y-86724052D01*
X131796106Y-86724183D01*
X131794995Y-86722520D01*
X131795456Y-86721106D01*
X131834777Y-86674055D01*
X131843408Y-86605339D01*
X131813444Y-86542709D01*
X131804781Y-86535202D01*
X131804127Y-86533312D01*
X131805437Y-86531801D01*
X131807202Y-86532028D01*
X131819844Y-86540475D01*
X131862699Y-86549000D01*
X132587301Y-86549000D01*
X132630156Y-86540475D01*
X132666315Y-86516315D01*
X132690475Y-86480156D01*
X132699000Y-86437301D01*
X132699000Y-86312699D01*
X132690475Y-86269844D01*
X132666315Y-86233685D01*
X132635042Y-86212789D01*
X132634157Y-86210995D01*
X132635268Y-86209332D01*
X132636543Y-86209164D01*
X132649725Y-86211786D01*
X132719004Y-86205586D01*
X132773675Y-86163117D01*
X132794470Y-86098726D01*
X132794738Y-86098484D01*
X132795020Y-86097066D01*
X132795079Y-86096841D01*
X132797097Y-86090593D01*
X132798581Y-86089252D01*
X132800484Y-86089867D01*
G37*
G36*
X148050484Y-86089867D02*
G01*
X148051000Y-86091208D01*
X148051000Y-88658789D01*
X148050000Y-88660521D01*
X148048000Y-88660521D01*
X148047081Y-88659352D01*
X148027405Y-88592340D01*
X147975084Y-88547005D01*
X147899698Y-88538218D01*
X147886544Y-88540835D01*
X147884650Y-88540192D01*
X147884260Y-88538230D01*
X147885043Y-88537210D01*
X147916315Y-88516315D01*
X147940475Y-88480156D01*
X147949000Y-88437301D01*
X147949000Y-88312699D01*
X147940475Y-88269844D01*
X147916315Y-88233685D01*
X147880156Y-88209525D01*
X147837301Y-88201000D01*
X147112699Y-88201000D01*
X147069844Y-88209525D01*
X147048102Y-88224052D01*
X147046106Y-88224183D01*
X147044995Y-88222520D01*
X147045456Y-88221106D01*
X147084777Y-88174055D01*
X147093408Y-88105339D01*
X147063444Y-88042709D01*
X147054781Y-88035202D01*
X147054127Y-88033312D01*
X147055437Y-88031801D01*
X147057202Y-88032028D01*
X147069844Y-88040475D01*
X147112699Y-88049000D01*
X147837301Y-88049000D01*
X147880156Y-88040475D01*
X147916315Y-88016315D01*
X147940475Y-87980156D01*
X147949000Y-87937301D01*
X147949000Y-87812699D01*
X147940475Y-87769844D01*
X147916315Y-87733685D01*
X147880156Y-87709525D01*
X147837301Y-87701000D01*
X147112699Y-87701000D01*
X147069844Y-87709525D01*
X147048102Y-87724052D01*
X147046106Y-87724183D01*
X147044995Y-87722520D01*
X147045456Y-87721106D01*
X147084777Y-87674055D01*
X147093408Y-87605339D01*
X147063444Y-87542709D01*
X147054781Y-87535202D01*
X147054127Y-87533312D01*
X147055437Y-87531801D01*
X147057202Y-87532028D01*
X147069844Y-87540475D01*
X147112699Y-87549000D01*
X147837301Y-87549000D01*
X147880156Y-87540475D01*
X147916315Y-87516315D01*
X147940475Y-87480156D01*
X147949000Y-87437301D01*
X147949000Y-87312699D01*
X147940475Y-87269844D01*
X147916315Y-87233685D01*
X147880156Y-87209525D01*
X147837301Y-87201000D01*
X147112699Y-87201000D01*
X147069844Y-87209525D01*
X147048102Y-87224052D01*
X147046106Y-87224183D01*
X147044995Y-87222520D01*
X147045456Y-87221106D01*
X147084777Y-87174055D01*
X147093408Y-87105339D01*
X147063444Y-87042709D01*
X147054781Y-87035202D01*
X147054127Y-87033312D01*
X147055437Y-87031801D01*
X147057202Y-87032028D01*
X147069844Y-87040475D01*
X147112699Y-87049000D01*
X147837301Y-87049000D01*
X147880156Y-87040475D01*
X147916315Y-87016315D01*
X147940475Y-86980156D01*
X147949000Y-86937301D01*
X147949000Y-86812699D01*
X147940475Y-86769844D01*
X147916315Y-86733685D01*
X147880156Y-86709525D01*
X147837301Y-86701000D01*
X147112699Y-86701000D01*
X147069844Y-86709525D01*
X147048102Y-86724052D01*
X147046106Y-86724183D01*
X147044995Y-86722520D01*
X147045456Y-86721106D01*
X147084777Y-86674055D01*
X147093408Y-86605339D01*
X147063444Y-86542709D01*
X147054781Y-86535202D01*
X147054127Y-86533312D01*
X147055437Y-86531801D01*
X147057202Y-86532028D01*
X147069844Y-86540475D01*
X147112699Y-86549000D01*
X147837301Y-86549000D01*
X147880156Y-86540475D01*
X147916315Y-86516315D01*
X147940475Y-86480156D01*
X147949000Y-86437301D01*
X147949000Y-86312699D01*
X147940475Y-86269844D01*
X147916315Y-86233685D01*
X147885042Y-86212789D01*
X147884157Y-86210995D01*
X147885268Y-86209332D01*
X147886543Y-86209164D01*
X147899725Y-86211786D01*
X147969004Y-86205586D01*
X148023675Y-86163117D01*
X148044470Y-86098726D01*
X148044738Y-86098484D01*
X148045020Y-86097066D01*
X148045079Y-86096841D01*
X148047097Y-86090593D01*
X148048581Y-86089252D01*
X148050484Y-86089867D01*
G37*
G36*
X134803894Y-85020456D02*
G01*
X134850945Y-85059777D01*
X134919661Y-85068408D01*
X134982291Y-85038444D01*
X134989798Y-85029781D01*
X134991688Y-85029127D01*
X134993199Y-85030437D01*
X134992972Y-85032202D01*
X134984525Y-85044844D01*
X134976000Y-85087699D01*
X134976000Y-85812301D01*
X134984525Y-85855156D01*
X135008685Y-85891315D01*
X135044844Y-85915475D01*
X135087699Y-85924000D01*
X135212301Y-85924000D01*
X135255156Y-85915475D01*
X135291315Y-85891315D01*
X135312211Y-85860042D01*
X135314005Y-85859157D01*
X135315668Y-85860268D01*
X135315836Y-85861543D01*
X135313214Y-85874725D01*
X135319414Y-85944004D01*
X135361883Y-85998675D01*
X135426274Y-86019470D01*
X135426516Y-86019738D01*
X135427934Y-86020020D01*
X135428159Y-86020079D01*
X135434408Y-86022097D01*
X135435749Y-86023581D01*
X135435134Y-86025484D01*
X135433793Y-86026000D01*
X132866211Y-86026000D01*
X132864479Y-86025000D01*
X132864479Y-86023000D01*
X132865648Y-86022081D01*
X132932660Y-86002405D01*
X132977995Y-85950084D01*
X132986782Y-85874698D01*
X132984165Y-85861544D01*
X132984808Y-85859650D01*
X132986770Y-85859260D01*
X132987790Y-85860043D01*
X133008685Y-85891315D01*
X133044844Y-85915475D01*
X133087699Y-85924000D01*
X133212301Y-85924000D01*
X133255156Y-85915475D01*
X133291315Y-85891315D01*
X133315475Y-85855156D01*
X133324000Y-85812301D01*
X133324000Y-85087699D01*
X133315475Y-85044844D01*
X133300948Y-85023102D01*
X133300817Y-85021106D01*
X133302480Y-85019995D01*
X133303894Y-85020456D01*
X133350945Y-85059777D01*
X133419661Y-85068408D01*
X133482291Y-85038444D01*
X133489798Y-85029781D01*
X133491688Y-85029127D01*
X133493199Y-85030437D01*
X133492972Y-85032202D01*
X133484525Y-85044844D01*
X133476000Y-85087699D01*
X133476000Y-85812301D01*
X133484525Y-85855156D01*
X133508685Y-85891315D01*
X133544844Y-85915475D01*
X133587699Y-85924000D01*
X133712301Y-85924000D01*
X133755156Y-85915475D01*
X133791315Y-85891315D01*
X133815475Y-85855156D01*
X133824000Y-85812301D01*
X133824000Y-85087699D01*
X133815475Y-85044844D01*
X133800948Y-85023102D01*
X133800817Y-85021106D01*
X133802480Y-85019995D01*
X133803894Y-85020456D01*
X133850945Y-85059777D01*
X133919661Y-85068408D01*
X133982291Y-85038444D01*
X133989798Y-85029781D01*
X133991688Y-85029127D01*
X133993199Y-85030437D01*
X133992972Y-85032202D01*
X133984525Y-85044844D01*
X133976000Y-85087699D01*
X133976000Y-85812301D01*
X133984525Y-85855156D01*
X134008685Y-85891315D01*
X134044844Y-85915475D01*
X134087699Y-85924000D01*
X134212301Y-85924000D01*
X134255156Y-85915475D01*
X134291315Y-85891315D01*
X134315475Y-85855156D01*
X134324000Y-85812301D01*
X134324000Y-85087699D01*
X134315475Y-85044844D01*
X134300948Y-85023102D01*
X134300817Y-85021106D01*
X134302480Y-85019995D01*
X134303894Y-85020456D01*
X134350945Y-85059777D01*
X134419661Y-85068408D01*
X134482291Y-85038444D01*
X134489798Y-85029781D01*
X134491688Y-85029127D01*
X134493199Y-85030437D01*
X134492972Y-85032202D01*
X134484525Y-85044844D01*
X134476000Y-85087699D01*
X134476000Y-85812301D01*
X134484525Y-85855156D01*
X134508685Y-85891315D01*
X134544844Y-85915475D01*
X134587699Y-85924000D01*
X134712301Y-85924000D01*
X134755156Y-85915475D01*
X134791315Y-85891315D01*
X134815475Y-85855156D01*
X134824000Y-85812301D01*
X134824000Y-85087699D01*
X134815475Y-85044844D01*
X134800948Y-85023102D01*
X134800817Y-85021106D01*
X134802480Y-85019995D01*
X134803894Y-85020456D01*
G37*
G36*
X150053894Y-85020456D02*
G01*
X150100945Y-85059777D01*
X150169661Y-85068408D01*
X150232291Y-85038444D01*
X150239798Y-85029781D01*
X150241688Y-85029127D01*
X150243199Y-85030437D01*
X150242972Y-85032202D01*
X150234525Y-85044844D01*
X150226000Y-85087699D01*
X150226000Y-85812301D01*
X150234525Y-85855156D01*
X150258685Y-85891315D01*
X150294844Y-85915475D01*
X150337699Y-85924000D01*
X150462301Y-85924000D01*
X150505156Y-85915475D01*
X150541315Y-85891315D01*
X150562211Y-85860042D01*
X150564005Y-85859157D01*
X150565668Y-85860268D01*
X150565836Y-85861543D01*
X150563214Y-85874725D01*
X150569414Y-85944004D01*
X150611883Y-85998675D01*
X150676274Y-86019470D01*
X150676516Y-86019738D01*
X150677934Y-86020020D01*
X150678159Y-86020079D01*
X150684408Y-86022097D01*
X150685749Y-86023581D01*
X150685134Y-86025484D01*
X150683793Y-86026000D01*
X148116211Y-86026000D01*
X148114479Y-86025000D01*
X148114479Y-86023000D01*
X148115648Y-86022081D01*
X148182660Y-86002405D01*
X148227995Y-85950084D01*
X148236782Y-85874698D01*
X148234165Y-85861544D01*
X148234808Y-85859650D01*
X148236770Y-85859260D01*
X148237790Y-85860043D01*
X148258685Y-85891315D01*
X148294844Y-85915475D01*
X148337699Y-85924000D01*
X148462301Y-85924000D01*
X148505156Y-85915475D01*
X148541315Y-85891315D01*
X148565475Y-85855156D01*
X148574000Y-85812301D01*
X148574000Y-85087699D01*
X148565475Y-85044844D01*
X148550948Y-85023102D01*
X148550817Y-85021106D01*
X148552480Y-85019995D01*
X148553894Y-85020456D01*
X148600945Y-85059777D01*
X148669661Y-85068408D01*
X148732291Y-85038444D01*
X148739798Y-85029781D01*
X148741688Y-85029127D01*
X148743199Y-85030437D01*
X148742972Y-85032202D01*
X148734525Y-85044844D01*
X148726000Y-85087699D01*
X148726000Y-85812301D01*
X148734525Y-85855156D01*
X148758685Y-85891315D01*
X148794844Y-85915475D01*
X148837699Y-85924000D01*
X148962301Y-85924000D01*
X149005156Y-85915475D01*
X149041315Y-85891315D01*
X149065475Y-85855156D01*
X149074000Y-85812301D01*
X149074000Y-85087699D01*
X149065475Y-85044844D01*
X149050948Y-85023102D01*
X149050817Y-85021106D01*
X149052480Y-85019995D01*
X149053894Y-85020456D01*
X149100945Y-85059777D01*
X149169661Y-85068408D01*
X149232291Y-85038444D01*
X149239798Y-85029781D01*
X149241688Y-85029127D01*
X149243199Y-85030437D01*
X149242972Y-85032202D01*
X149234525Y-85044844D01*
X149226000Y-85087699D01*
X149226000Y-85812301D01*
X149234525Y-85855156D01*
X149258685Y-85891315D01*
X149294844Y-85915475D01*
X149337699Y-85924000D01*
X149462301Y-85924000D01*
X149505156Y-85915475D01*
X149541315Y-85891315D01*
X149565475Y-85855156D01*
X149574000Y-85812301D01*
X149574000Y-85087699D01*
X149565475Y-85044844D01*
X149550948Y-85023102D01*
X149550817Y-85021106D01*
X149552480Y-85019995D01*
X149553894Y-85020456D01*
X149600945Y-85059777D01*
X149669661Y-85068408D01*
X149732291Y-85038444D01*
X149739798Y-85029781D01*
X149741688Y-85029127D01*
X149743199Y-85030437D01*
X149742972Y-85032202D01*
X149734525Y-85044844D01*
X149726000Y-85087699D01*
X149726000Y-85812301D01*
X149734525Y-85855156D01*
X149758685Y-85891315D01*
X149794844Y-85915475D01*
X149837699Y-85924000D01*
X149962301Y-85924000D01*
X150005156Y-85915475D01*
X150041315Y-85891315D01*
X150065475Y-85855156D01*
X150074000Y-85812301D01*
X150074000Y-85087699D01*
X150065475Y-85044844D01*
X150050948Y-85023102D01*
X150050817Y-85021106D01*
X150052480Y-85019995D01*
X150053894Y-85020456D01*
G37*
G36*
X117348816Y-79036162D02*
G01*
X117349459Y-79037276D01*
X117357748Y-79078951D01*
X117384731Y-79119334D01*
X119541126Y-81275729D01*
X119581509Y-81302712D01*
X119623184Y-81311001D01*
X119624688Y-81312320D01*
X119624298Y-81314282D01*
X119623184Y-81314925D01*
X119608161Y-81317913D01*
X119546545Y-81350143D01*
X119511182Y-81414906D01*
X119508197Y-81429912D01*
X119506878Y-81431416D01*
X119504916Y-81431026D01*
X119504273Y-81429912D01*
X119495984Y-81388237D01*
X119469001Y-81347854D01*
X117312606Y-79191459D01*
X117272223Y-79164476D01*
X117230548Y-79156187D01*
X117229044Y-79154868D01*
X117229434Y-79152906D01*
X117230548Y-79152263D01*
X117245571Y-79149275D01*
X117307187Y-79117045D01*
X117342550Y-79052282D01*
X117345535Y-79037276D01*
X117346854Y-79035772D01*
X117348816Y-79036162D01*
G37*
G36*
X115653822Y-79036162D02*
G01*
X115654465Y-79037276D01*
X115657453Y-79052299D01*
X115689683Y-79113915D01*
X115754446Y-79149278D01*
X115769452Y-79152263D01*
X115770956Y-79153582D01*
X115770566Y-79155544D01*
X115769452Y-79156187D01*
X115727777Y-79164476D01*
X115687394Y-79191459D01*
X113530999Y-81347854D01*
X113504016Y-81388237D01*
X113495727Y-81429912D01*
X113494408Y-81431416D01*
X113492446Y-81431026D01*
X113491803Y-81429912D01*
X113488815Y-81414889D01*
X113456585Y-81353273D01*
X113391822Y-81317910D01*
X113376816Y-81314925D01*
X113375312Y-81313606D01*
X113375702Y-81311644D01*
X113376816Y-81311001D01*
X113418491Y-81302712D01*
X113458874Y-81275729D01*
X115615269Y-79119334D01*
X115642252Y-79078951D01*
X115650541Y-79037276D01*
X115651860Y-79035772D01*
X115653822Y-79036162D01*
G37*
G36*
X115300269Y-78682608D02*
G01*
X115300912Y-78683722D01*
X115303900Y-78698745D01*
X115336130Y-78760361D01*
X115400893Y-78795724D01*
X115415899Y-78798709D01*
X115417403Y-78800028D01*
X115417013Y-78801990D01*
X115415899Y-78802633D01*
X115374223Y-78810922D01*
X115333840Y-78837905D01*
X113177445Y-80994300D01*
X113150462Y-81034683D01*
X113142173Y-81076359D01*
X113140854Y-81077863D01*
X113138892Y-81077473D01*
X113138249Y-81076359D01*
X113135261Y-81061336D01*
X113103031Y-80999720D01*
X113038268Y-80964357D01*
X113023262Y-80961372D01*
X113021758Y-80960053D01*
X113022148Y-80958091D01*
X113023262Y-80957448D01*
X113064938Y-80949159D01*
X113105321Y-80922176D01*
X115261716Y-78765781D01*
X115288699Y-78725398D01*
X115296988Y-78683722D01*
X115298307Y-78682218D01*
X115300269Y-78682608D01*
G37*
G36*
X117702369Y-78682608D02*
G01*
X117703012Y-78683722D01*
X117711301Y-78725398D01*
X117738284Y-78765781D01*
X119894679Y-80922176D01*
X119935062Y-80949159D01*
X119976738Y-80957448D01*
X119978242Y-80958767D01*
X119977852Y-80960729D01*
X119976738Y-80961372D01*
X119961715Y-80964360D01*
X119900099Y-80996590D01*
X119864736Y-81061353D01*
X119861751Y-81076359D01*
X119860432Y-81077863D01*
X119858470Y-81077473D01*
X119857827Y-81076359D01*
X119849538Y-81034683D01*
X119822555Y-80994300D01*
X117666160Y-78837905D01*
X117625777Y-78810922D01*
X117584101Y-78802633D01*
X117582597Y-78801314D01*
X117582987Y-78799352D01*
X117584101Y-78798709D01*
X117599124Y-78795721D01*
X117660740Y-78763491D01*
X117696103Y-78698728D01*
X117699088Y-78683722D01*
X117700407Y-78682218D01*
X117702369Y-78682608D01*
G37*
G36*
X118055922Y-78329053D02*
G01*
X118056565Y-78330167D01*
X118064854Y-78371844D01*
X118091837Y-78412227D01*
X120248232Y-80568622D01*
X120288615Y-80595605D01*
X120330291Y-80603894D01*
X120331795Y-80605213D01*
X120331405Y-80607175D01*
X120330291Y-80607818D01*
X120315268Y-80610806D01*
X120253652Y-80643037D01*
X120218290Y-80707798D01*
X120215304Y-80722807D01*
X120213985Y-80724311D01*
X120212023Y-80723921D01*
X120211380Y-80722807D01*
X120203091Y-80681130D01*
X120176108Y-80640747D01*
X118019713Y-78484352D01*
X117979330Y-78457369D01*
X117937654Y-78449080D01*
X117936150Y-78447761D01*
X117936540Y-78445799D01*
X117937654Y-78445156D01*
X117952677Y-78442168D01*
X118014293Y-78409937D01*
X118049655Y-78345176D01*
X118052641Y-78330167D01*
X118053960Y-78328663D01*
X118055922Y-78329053D01*
G37*
G36*
X114946716Y-78329053D02*
G01*
X114947359Y-78330167D01*
X114950348Y-78345193D01*
X114982579Y-78406809D01*
X115047340Y-78442171D01*
X115062346Y-78445156D01*
X115063850Y-78446475D01*
X115063460Y-78448437D01*
X115062346Y-78449080D01*
X115020670Y-78457369D01*
X114980287Y-78484352D01*
X112823892Y-80640747D01*
X112796909Y-80681130D01*
X112788620Y-80722807D01*
X112787301Y-80724311D01*
X112785339Y-80723921D01*
X112784696Y-80722807D01*
X112781707Y-80707781D01*
X112749476Y-80646165D01*
X112684715Y-80610803D01*
X112669709Y-80607818D01*
X112668205Y-80606499D01*
X112668595Y-80604537D01*
X112669709Y-80603894D01*
X112711385Y-80595605D01*
X112751768Y-80568622D01*
X114908163Y-78412227D01*
X114935146Y-78371844D01*
X114943435Y-78330167D01*
X114944754Y-78328663D01*
X114946716Y-78329053D01*
G37*
G36*
X118409476Y-77975501D02*
G01*
X118410119Y-77976615D01*
X118418408Y-78018291D01*
X118445391Y-78058674D01*
X120601786Y-80215069D01*
X120642169Y-80242052D01*
X120683846Y-80250341D01*
X120685350Y-80251660D01*
X120684960Y-80253622D01*
X120683846Y-80254265D01*
X120668820Y-80257254D01*
X120607204Y-80289485D01*
X120571842Y-80354246D01*
X120568857Y-80369252D01*
X120567538Y-80370756D01*
X120565576Y-80370366D01*
X120564933Y-80369252D01*
X120556644Y-80327576D01*
X120529661Y-80287193D01*
X118373266Y-78130798D01*
X118332883Y-78103815D01*
X118291206Y-78095526D01*
X118289702Y-78094207D01*
X118290092Y-78092245D01*
X118291206Y-78091602D01*
X118306232Y-78088613D01*
X118367848Y-78056382D01*
X118403210Y-77991621D01*
X118406195Y-77976615D01*
X118407514Y-77975111D01*
X118409476Y-77975501D01*
G37*
G36*
X114593162Y-77975501D02*
G01*
X114593805Y-77976615D01*
X114596793Y-77991638D01*
X114629024Y-78053254D01*
X114693785Y-78088616D01*
X114708794Y-78091602D01*
X114710298Y-78092921D01*
X114709908Y-78094883D01*
X114708794Y-78095526D01*
X114667117Y-78103815D01*
X114626734Y-78130798D01*
X112470339Y-80287193D01*
X112443356Y-80327576D01*
X112435067Y-80369252D01*
X112433748Y-80370756D01*
X112431786Y-80370366D01*
X112431143Y-80369252D01*
X112428155Y-80354229D01*
X112395924Y-80292613D01*
X112331163Y-80257251D01*
X112316154Y-80254265D01*
X112314650Y-80252946D01*
X112315040Y-80250984D01*
X112316154Y-80250341D01*
X112357831Y-80242052D01*
X112398214Y-80215069D01*
X114554609Y-78058674D01*
X114581592Y-78018291D01*
X114589881Y-77976615D01*
X114591200Y-77975111D01*
X114593162Y-77975501D01*
G37*
G36*
X118763029Y-77621948D02*
G01*
X118763672Y-77623062D01*
X118771961Y-77664738D01*
X118798944Y-77705121D01*
X120955339Y-79861516D01*
X120995722Y-79888499D01*
X121037398Y-79896788D01*
X121038902Y-79898107D01*
X121038512Y-79900069D01*
X121037398Y-79900712D01*
X121022375Y-79903700D01*
X120960759Y-79935930D01*
X120925396Y-80000693D01*
X120922411Y-80015699D01*
X120921092Y-80017203D01*
X120919130Y-80016813D01*
X120918487Y-80015699D01*
X120910198Y-79974023D01*
X120883215Y-79933640D01*
X118726820Y-77777245D01*
X118686437Y-77750262D01*
X118644761Y-77741973D01*
X118643257Y-77740654D01*
X118643647Y-77738692D01*
X118644761Y-77738049D01*
X118659784Y-77735061D01*
X118721400Y-77702831D01*
X118756763Y-77638068D01*
X118759748Y-77623062D01*
X118761067Y-77621558D01*
X118763029Y-77621948D01*
G37*
G36*
X114239609Y-77621948D02*
G01*
X114240252Y-77623062D01*
X114243240Y-77638085D01*
X114275470Y-77699701D01*
X114340233Y-77735064D01*
X114355239Y-77738049D01*
X114356743Y-77739368D01*
X114356353Y-77741330D01*
X114355239Y-77741973D01*
X114313563Y-77750262D01*
X114273180Y-77777245D01*
X112116785Y-79933640D01*
X112089802Y-79974023D01*
X112081513Y-80015699D01*
X112080194Y-80017203D01*
X112078232Y-80016813D01*
X112077589Y-80015699D01*
X112074601Y-80000676D01*
X112042371Y-79939060D01*
X111977608Y-79903697D01*
X111962602Y-79900712D01*
X111961098Y-79899393D01*
X111961488Y-79897431D01*
X111962602Y-79896788D01*
X112004278Y-79888499D01*
X112044661Y-79861516D01*
X114201056Y-77705121D01*
X114228039Y-77664738D01*
X114236328Y-77623062D01*
X114237647Y-77621558D01*
X114239609Y-77621948D01*
G37*
G36*
X113886055Y-77268395D02*
G01*
X113886698Y-77269509D01*
X113889686Y-77284532D01*
X113921916Y-77346148D01*
X113986679Y-77381511D01*
X114001685Y-77384496D01*
X114003189Y-77385815D01*
X114002799Y-77387777D01*
X114001685Y-77388420D01*
X113960010Y-77396709D01*
X113919627Y-77423692D01*
X111763232Y-79580087D01*
X111736249Y-79620470D01*
X111727960Y-79662145D01*
X111726641Y-79663649D01*
X111724679Y-79663259D01*
X111724036Y-79662145D01*
X111721048Y-79647122D01*
X111688818Y-79585506D01*
X111624055Y-79550143D01*
X111609049Y-79547158D01*
X111607545Y-79545839D01*
X111607935Y-79543877D01*
X111609049Y-79543234D01*
X111650724Y-79534945D01*
X111691107Y-79507962D01*
X113847502Y-77351567D01*
X113874485Y-77311184D01*
X113882774Y-77269509D01*
X113884093Y-77268005D01*
X113886055Y-77268395D01*
G37*
G36*
X119116583Y-77268395D02*
G01*
X119117226Y-77269509D01*
X119125515Y-77311184D01*
X119152498Y-77351567D01*
X121308893Y-79507962D01*
X121349276Y-79534945D01*
X121390951Y-79543234D01*
X121392455Y-79544553D01*
X121392065Y-79546515D01*
X121390951Y-79547158D01*
X121375928Y-79550146D01*
X121314312Y-79582376D01*
X121278949Y-79647139D01*
X121275964Y-79662145D01*
X121274645Y-79663649D01*
X121272683Y-79663259D01*
X121272040Y-79662145D01*
X121263751Y-79620470D01*
X121236768Y-79580087D01*
X119080373Y-77423692D01*
X119039990Y-77396709D01*
X118998315Y-77388420D01*
X118996811Y-77387101D01*
X118997201Y-77385139D01*
X118998315Y-77384496D01*
X119013338Y-77381508D01*
X119074954Y-77349278D01*
X119110317Y-77284515D01*
X119113302Y-77269509D01*
X119114621Y-77268005D01*
X119116583Y-77268395D01*
G37*
G36*
X113532502Y-76914841D02*
G01*
X113533145Y-76915955D01*
X113536133Y-76930978D01*
X113568363Y-76992594D01*
X113633126Y-77027957D01*
X113648132Y-77030942D01*
X113649636Y-77032261D01*
X113649246Y-77034223D01*
X113648132Y-77034866D01*
X113606456Y-77043155D01*
X113566073Y-77070138D01*
X111409678Y-79226533D01*
X111382695Y-79266916D01*
X111374406Y-79308592D01*
X111373087Y-79310096D01*
X111371125Y-79309706D01*
X111370482Y-79308592D01*
X111367494Y-79293569D01*
X111335264Y-79231953D01*
X111270501Y-79196590D01*
X111255495Y-79193605D01*
X111253991Y-79192286D01*
X111254381Y-79190324D01*
X111255495Y-79189681D01*
X111297171Y-79181392D01*
X111337554Y-79154409D01*
X113493949Y-76998014D01*
X113520932Y-76957631D01*
X113529221Y-76915955D01*
X113530540Y-76914451D01*
X113532502Y-76914841D01*
G37*
G36*
X119470136Y-76914841D02*
G01*
X119470779Y-76915955D01*
X119479068Y-76957631D01*
X119506051Y-76998014D01*
X121662446Y-79154409D01*
X121702829Y-79181392D01*
X121744505Y-79189681D01*
X121746009Y-79191000D01*
X121745619Y-79192962D01*
X121744505Y-79193605D01*
X121729482Y-79196593D01*
X121667866Y-79228823D01*
X121632503Y-79293586D01*
X121629518Y-79308592D01*
X121628199Y-79310096D01*
X121626237Y-79309706D01*
X121625594Y-79308592D01*
X121617305Y-79266916D01*
X121590322Y-79226533D01*
X119433927Y-77070138D01*
X119393544Y-77043155D01*
X119351868Y-77034866D01*
X119350364Y-77033547D01*
X119350754Y-77031585D01*
X119351868Y-77030942D01*
X119366891Y-77027954D01*
X119428507Y-76995724D01*
X119463870Y-76930961D01*
X119466855Y-76915955D01*
X119468174Y-76914451D01*
X119470136Y-76914841D01*
G37*
G36*
X113178949Y-76561288D02*
G01*
X113179592Y-76562402D01*
X113182580Y-76577425D01*
X113214810Y-76639041D01*
X113279573Y-76674404D01*
X113294579Y-76677389D01*
X113296083Y-76678708D01*
X113295693Y-76680670D01*
X113294579Y-76681313D01*
X113252903Y-76689602D01*
X113212520Y-76716585D01*
X111056125Y-78872980D01*
X111029142Y-78913363D01*
X111020853Y-78955039D01*
X111019534Y-78956543D01*
X111017572Y-78956153D01*
X111016929Y-78955039D01*
X111013941Y-78940016D01*
X110981711Y-78878400D01*
X110916948Y-78843037D01*
X110901942Y-78840052D01*
X110900438Y-78838733D01*
X110900828Y-78836771D01*
X110901942Y-78836128D01*
X110943618Y-78827839D01*
X110984001Y-78800856D01*
X113140396Y-76644461D01*
X113167379Y-76604078D01*
X113175668Y-76562402D01*
X113176987Y-76560898D01*
X113178949Y-76561288D01*
G37*
G36*
X119823689Y-76561288D02*
G01*
X119824332Y-76562402D01*
X119832621Y-76604078D01*
X119859604Y-76644461D01*
X122015999Y-78800856D01*
X122056382Y-78827839D01*
X122098058Y-78836128D01*
X122099562Y-78837447D01*
X122099172Y-78839409D01*
X122098058Y-78840052D01*
X122083035Y-78843040D01*
X122021419Y-78875270D01*
X121986056Y-78940033D01*
X121983071Y-78955039D01*
X121981752Y-78956543D01*
X121979790Y-78956153D01*
X121979147Y-78955039D01*
X121970858Y-78913363D01*
X121943875Y-78872980D01*
X119787480Y-76716585D01*
X119747097Y-76689602D01*
X119705421Y-76681313D01*
X119703917Y-76679994D01*
X119704307Y-76678032D01*
X119705421Y-76677389D01*
X119720444Y-76674401D01*
X119782060Y-76642171D01*
X119817423Y-76577408D01*
X119820408Y-76562402D01*
X119821727Y-76560898D01*
X119823689Y-76561288D01*
G37*
G36*
X112825395Y-76207735D02*
G01*
X112826038Y-76208849D01*
X112829026Y-76223872D01*
X112861256Y-76285488D01*
X112926019Y-76320851D01*
X112941025Y-76323836D01*
X112942529Y-76325155D01*
X112942139Y-76327117D01*
X112941025Y-76327760D01*
X112899350Y-76336049D01*
X112858967Y-76363032D01*
X110702572Y-78519427D01*
X110675589Y-78559810D01*
X110667300Y-78601485D01*
X110665981Y-78602989D01*
X110664019Y-78602599D01*
X110663376Y-78601485D01*
X110660388Y-78586462D01*
X110628158Y-78524846D01*
X110563395Y-78489483D01*
X110548389Y-78486498D01*
X110546885Y-78485179D01*
X110547275Y-78483217D01*
X110548389Y-78482574D01*
X110590064Y-78474285D01*
X110630447Y-78447302D01*
X112786842Y-76290907D01*
X112813825Y-76250524D01*
X112822114Y-76208849D01*
X112823433Y-76207345D01*
X112825395Y-76207735D01*
G37*
G36*
X120177243Y-76207735D02*
G01*
X120177886Y-76208849D01*
X120186175Y-76250524D01*
X120213158Y-76290907D01*
X122369553Y-78447302D01*
X122409936Y-78474285D01*
X122451611Y-78482574D01*
X122453115Y-78483893D01*
X122452725Y-78485855D01*
X122451611Y-78486498D01*
X122436588Y-78489486D01*
X122374972Y-78521716D01*
X122339609Y-78586479D01*
X122336624Y-78601485D01*
X122335305Y-78602989D01*
X122333343Y-78602599D01*
X122332700Y-78601485D01*
X122324411Y-78559810D01*
X122297428Y-78519427D01*
X120141033Y-76363032D01*
X120100650Y-76336049D01*
X120058975Y-76327760D01*
X120057471Y-76326441D01*
X120057861Y-76324479D01*
X120058975Y-76323836D01*
X120073998Y-76320848D01*
X120135614Y-76288618D01*
X120170977Y-76223855D01*
X120173962Y-76208849D01*
X120175281Y-76207345D01*
X120177243Y-76207735D01*
G37*
G36*
X112471842Y-75854181D02*
G01*
X112472485Y-75855295D01*
X112475473Y-75870318D01*
X112507703Y-75931934D01*
X112572466Y-75967297D01*
X112587472Y-75970282D01*
X112588976Y-75971601D01*
X112588586Y-75973563D01*
X112587472Y-75974206D01*
X112545796Y-75982495D01*
X112505413Y-76009478D01*
X110349018Y-78165873D01*
X110322035Y-78206256D01*
X110313746Y-78247932D01*
X110312427Y-78249436D01*
X110310465Y-78249046D01*
X110309822Y-78247932D01*
X110306834Y-78232909D01*
X110274604Y-78171293D01*
X110209841Y-78135930D01*
X110194835Y-78132945D01*
X110193331Y-78131626D01*
X110193721Y-78129664D01*
X110194835Y-78129021D01*
X110236511Y-78120732D01*
X110276894Y-78093749D01*
X112433289Y-75937354D01*
X112460272Y-75896971D01*
X112468561Y-75855295D01*
X112469880Y-75853791D01*
X112471842Y-75854181D01*
G37*
G36*
X120530796Y-75854181D02*
G01*
X120531439Y-75855295D01*
X120539728Y-75896971D01*
X120566711Y-75937354D01*
X122723106Y-78093749D01*
X122763489Y-78120732D01*
X122805165Y-78129021D01*
X122806669Y-78130340D01*
X122806279Y-78132302D01*
X122805165Y-78132945D01*
X122790142Y-78135933D01*
X122728526Y-78168163D01*
X122693163Y-78232926D01*
X122690178Y-78247932D01*
X122688859Y-78249436D01*
X122686897Y-78249046D01*
X122686254Y-78247932D01*
X122677965Y-78206256D01*
X122650982Y-78165873D01*
X120494587Y-76009478D01*
X120454204Y-75982495D01*
X120412528Y-75974206D01*
X120411024Y-75972887D01*
X120411414Y-75970925D01*
X120412528Y-75970282D01*
X120427551Y-75967294D01*
X120489167Y-75935064D01*
X120524530Y-75870301D01*
X120527515Y-75855295D01*
X120528834Y-75853791D01*
X120530796Y-75854181D01*
G37*
G36*
X112118288Y-75500628D02*
G01*
X112118931Y-75501742D01*
X112121919Y-75516765D01*
X112154149Y-75578381D01*
X112218912Y-75613744D01*
X112233918Y-75616729D01*
X112235422Y-75618048D01*
X112235032Y-75620010D01*
X112233918Y-75620653D01*
X112192243Y-75628942D01*
X112151860Y-75655925D01*
X109995465Y-77812320D01*
X109968482Y-77852703D01*
X109960193Y-77894378D01*
X109958874Y-77895882D01*
X109956912Y-77895492D01*
X109956269Y-77894378D01*
X109953281Y-77879355D01*
X109921051Y-77817739D01*
X109856288Y-77782376D01*
X109841282Y-77779391D01*
X109839778Y-77778072D01*
X109840168Y-77776110D01*
X109841282Y-77775467D01*
X109882957Y-77767178D01*
X109923340Y-77740195D01*
X112079735Y-75583800D01*
X112106718Y-75543417D01*
X112115007Y-75501742D01*
X112116326Y-75500238D01*
X112118288Y-75500628D01*
G37*
G36*
X120884350Y-75500628D02*
G01*
X120884993Y-75501742D01*
X120893282Y-75543417D01*
X120920265Y-75583800D01*
X123076660Y-77740195D01*
X123117043Y-77767178D01*
X123158718Y-77775467D01*
X123160222Y-77776786D01*
X123159832Y-77778748D01*
X123158718Y-77779391D01*
X123143695Y-77782379D01*
X123082079Y-77814609D01*
X123046716Y-77879372D01*
X123043731Y-77894378D01*
X123042412Y-77895882D01*
X123040450Y-77895492D01*
X123039807Y-77894378D01*
X123031518Y-77852703D01*
X123004535Y-77812320D01*
X120848140Y-75655925D01*
X120807757Y-75628942D01*
X120766082Y-75620653D01*
X120764578Y-75619334D01*
X120764968Y-75617372D01*
X120766082Y-75616729D01*
X120781105Y-75613741D01*
X120842721Y-75581511D01*
X120878084Y-75516748D01*
X120881069Y-75501742D01*
X120882388Y-75500238D01*
X120884350Y-75500628D01*
G37*
G36*
X121237903Y-75147074D02*
G01*
X121238546Y-75148188D01*
X121246835Y-75189864D01*
X121273818Y-75230247D01*
X123430213Y-77386642D01*
X123470596Y-77413625D01*
X123512272Y-77421914D01*
X123513776Y-77423233D01*
X123513386Y-77425195D01*
X123512272Y-77425838D01*
X123497249Y-77428826D01*
X123435633Y-77461056D01*
X123400270Y-77525819D01*
X123397285Y-77540825D01*
X123395966Y-77542329D01*
X123394004Y-77541939D01*
X123393361Y-77540825D01*
X123385072Y-77499149D01*
X123358089Y-77458766D01*
X121201694Y-75302371D01*
X121161311Y-75275388D01*
X121119635Y-75267099D01*
X121118131Y-75265780D01*
X121118521Y-75263818D01*
X121119635Y-75263175D01*
X121134658Y-75260187D01*
X121196274Y-75227957D01*
X121231637Y-75163194D01*
X121234622Y-75148188D01*
X121235941Y-75146684D01*
X121237903Y-75147074D01*
G37*
G36*
X111764735Y-75147074D02*
G01*
X111765378Y-75148188D01*
X111768366Y-75163211D01*
X111800596Y-75224827D01*
X111865359Y-75260190D01*
X111880365Y-75263175D01*
X111881869Y-75264494D01*
X111881479Y-75266456D01*
X111880365Y-75267099D01*
X111838689Y-75275388D01*
X111798306Y-75302371D01*
X109641911Y-77458766D01*
X109614928Y-77499149D01*
X109606639Y-77540825D01*
X109605320Y-77542329D01*
X109603358Y-77541939D01*
X109602715Y-77540825D01*
X109599727Y-77525802D01*
X109567497Y-77464186D01*
X109502734Y-77428823D01*
X109487728Y-77425838D01*
X109486224Y-77424519D01*
X109486614Y-77422557D01*
X109487728Y-77421914D01*
X109529404Y-77413625D01*
X109569787Y-77386642D01*
X111726182Y-75230247D01*
X111753165Y-75189864D01*
X111761454Y-75148188D01*
X111762773Y-75146684D01*
X111764735Y-75147074D01*
G37*
G36*
X121591456Y-74793521D02*
G01*
X121592099Y-74794635D01*
X121600388Y-74836311D01*
X121627371Y-74876694D01*
X123783766Y-77033089D01*
X123824149Y-77060072D01*
X123865825Y-77068361D01*
X123867329Y-77069680D01*
X123866939Y-77071642D01*
X123865825Y-77072285D01*
X123850802Y-77075273D01*
X123789186Y-77107503D01*
X123753823Y-77172266D01*
X123750838Y-77187272D01*
X123749519Y-77188776D01*
X123747557Y-77188386D01*
X123746914Y-77187272D01*
X123738625Y-77145596D01*
X123711642Y-77105213D01*
X121555247Y-74948818D01*
X121514864Y-74921835D01*
X121473188Y-74913546D01*
X121471684Y-74912227D01*
X121472074Y-74910265D01*
X121473188Y-74909622D01*
X121488211Y-74906634D01*
X121549827Y-74874404D01*
X121585190Y-74809641D01*
X121588175Y-74794635D01*
X121589494Y-74793131D01*
X121591456Y-74793521D01*
G37*
G36*
X111411182Y-74793521D02*
G01*
X111411825Y-74794635D01*
X111414813Y-74809658D01*
X111447043Y-74871274D01*
X111511806Y-74906637D01*
X111526812Y-74909622D01*
X111528316Y-74910941D01*
X111527926Y-74912903D01*
X111526812Y-74913546D01*
X111485136Y-74921835D01*
X111444753Y-74948818D01*
X109288358Y-77105213D01*
X109261375Y-77145596D01*
X109253086Y-77187272D01*
X109251767Y-77188776D01*
X109249805Y-77188386D01*
X109249162Y-77187272D01*
X109246174Y-77172249D01*
X109213944Y-77110633D01*
X109149181Y-77075270D01*
X109134175Y-77072285D01*
X109132671Y-77070966D01*
X109133061Y-77069004D01*
X109134175Y-77068361D01*
X109175851Y-77060072D01*
X109216234Y-77033089D01*
X111372629Y-74876694D01*
X111399612Y-74836311D01*
X111407901Y-74794635D01*
X111409220Y-74793131D01*
X111411182Y-74793521D01*
G37*
G36*
X111057628Y-74439968D02*
G01*
X111058271Y-74441082D01*
X111061259Y-74456105D01*
X111093489Y-74517721D01*
X111158252Y-74553084D01*
X111173258Y-74556069D01*
X111174762Y-74557388D01*
X111174372Y-74559350D01*
X111173258Y-74559993D01*
X111131583Y-74568282D01*
X111091200Y-74595265D01*
X108934805Y-76751660D01*
X108907822Y-76792043D01*
X108899533Y-76833718D01*
X108898214Y-76835222D01*
X108896252Y-76834832D01*
X108895609Y-76833718D01*
X108892621Y-76818695D01*
X108860391Y-76757079D01*
X108795628Y-76721716D01*
X108780622Y-76718731D01*
X108779118Y-76717412D01*
X108779508Y-76715450D01*
X108780622Y-76714807D01*
X108822297Y-76706518D01*
X108862680Y-76679535D01*
X111019075Y-74523140D01*
X111046058Y-74482757D01*
X111054347Y-74441082D01*
X111055666Y-74439578D01*
X111057628Y-74439968D01*
G37*
G36*
X121945010Y-74439968D02*
G01*
X121945653Y-74441082D01*
X121953942Y-74482757D01*
X121980925Y-74523140D01*
X124137320Y-76679535D01*
X124177703Y-76706518D01*
X124219378Y-76714807D01*
X124220882Y-76716126D01*
X124220492Y-76718088D01*
X124219378Y-76718731D01*
X124204355Y-76721719D01*
X124142739Y-76753949D01*
X124107376Y-76818712D01*
X124104391Y-76833718D01*
X124103072Y-76835222D01*
X124101110Y-76834832D01*
X124100467Y-76833718D01*
X124092178Y-76792043D01*
X124065195Y-76751660D01*
X121908800Y-74595265D01*
X121868417Y-74568282D01*
X121826742Y-74559993D01*
X121825238Y-74558674D01*
X121825628Y-74556712D01*
X121826742Y-74556069D01*
X121841765Y-74553081D01*
X121903381Y-74520851D01*
X121938744Y-74456088D01*
X121941729Y-74441082D01*
X121943048Y-74439578D01*
X121945010Y-74439968D01*
G37*
G36*
X122298563Y-74086414D02*
G01*
X122299206Y-74087528D01*
X122307495Y-74129204D01*
X122334478Y-74169587D01*
X124490873Y-76325982D01*
X124531256Y-76352965D01*
X124572932Y-76361254D01*
X124574436Y-76362573D01*
X124574046Y-76364535D01*
X124572932Y-76365178D01*
X124557909Y-76368166D01*
X124496293Y-76400396D01*
X124460930Y-76465159D01*
X124457945Y-76480165D01*
X124456626Y-76481669D01*
X124454664Y-76481279D01*
X124454021Y-76480165D01*
X124445732Y-76438489D01*
X124418749Y-76398106D01*
X122262354Y-74241711D01*
X122221971Y-74214728D01*
X122180295Y-74206439D01*
X122178791Y-74205120D01*
X122179181Y-74203158D01*
X122180295Y-74202515D01*
X122195318Y-74199527D01*
X122256934Y-74167297D01*
X122292297Y-74102534D01*
X122295282Y-74087528D01*
X122296601Y-74086024D01*
X122298563Y-74086414D01*
G37*
G36*
X110704075Y-74086414D02*
G01*
X110704718Y-74087528D01*
X110707706Y-74102551D01*
X110739936Y-74164167D01*
X110804699Y-74199530D01*
X110819705Y-74202515D01*
X110821209Y-74203834D01*
X110820819Y-74205796D01*
X110819705Y-74206439D01*
X110778029Y-74214728D01*
X110737646Y-74241711D01*
X108581251Y-76398106D01*
X108554268Y-76438489D01*
X108545979Y-76480165D01*
X108544660Y-76481669D01*
X108542698Y-76481279D01*
X108542055Y-76480165D01*
X108539067Y-76465142D01*
X108506837Y-76403526D01*
X108442074Y-76368163D01*
X108427068Y-76365178D01*
X108425564Y-76363859D01*
X108425954Y-76361897D01*
X108427068Y-76361254D01*
X108468744Y-76352965D01*
X108509127Y-76325982D01*
X110665522Y-74169587D01*
X110692505Y-74129204D01*
X110700794Y-74087528D01*
X110702113Y-74086024D01*
X110704075Y-74086414D01*
G37*
G36*
X122652117Y-73732861D02*
G01*
X122652760Y-73733975D01*
X122661049Y-73775650D01*
X122688032Y-73816033D01*
X124844427Y-75972428D01*
X124884810Y-75999411D01*
X124926485Y-76007700D01*
X124927989Y-76009019D01*
X124927599Y-76010981D01*
X124926485Y-76011624D01*
X124911462Y-76014612D01*
X124849846Y-76046842D01*
X124814483Y-76111605D01*
X124811498Y-76126611D01*
X124810179Y-76128115D01*
X124808217Y-76127725D01*
X124807574Y-76126611D01*
X124799285Y-76084936D01*
X124772302Y-76044553D01*
X122615907Y-73888158D01*
X122575524Y-73861175D01*
X122533849Y-73852886D01*
X122532345Y-73851567D01*
X122532735Y-73849605D01*
X122533849Y-73848962D01*
X122548872Y-73845974D01*
X122610488Y-73813744D01*
X122645851Y-73748981D01*
X122648836Y-73733975D01*
X122650155Y-73732471D01*
X122652117Y-73732861D01*
G37*
G36*
X110350521Y-73732861D02*
G01*
X110351164Y-73733975D01*
X110354152Y-73748998D01*
X110386382Y-73810614D01*
X110451145Y-73845977D01*
X110466151Y-73848962D01*
X110467655Y-73850281D01*
X110467265Y-73852243D01*
X110466151Y-73852886D01*
X110424476Y-73861175D01*
X110384093Y-73888158D01*
X108227698Y-76044553D01*
X108200715Y-76084936D01*
X108192426Y-76126611D01*
X108191107Y-76128115D01*
X108189145Y-76127725D01*
X108188502Y-76126611D01*
X108185514Y-76111588D01*
X108153284Y-76049972D01*
X108088521Y-76014609D01*
X108073515Y-76011624D01*
X108072011Y-76010305D01*
X108072401Y-76008343D01*
X108073515Y-76007700D01*
X108115190Y-75999411D01*
X108155573Y-75972428D01*
X110311968Y-73816033D01*
X110338951Y-73775650D01*
X110347240Y-73733975D01*
X110348559Y-73732471D01*
X110350521Y-73732861D01*
G37*
G36*
X109996968Y-73379307D02*
G01*
X109997611Y-73380421D01*
X110000599Y-73395444D01*
X110032829Y-73457060D01*
X110097592Y-73492423D01*
X110112598Y-73495408D01*
X110114102Y-73496727D01*
X110113712Y-73498689D01*
X110112598Y-73499332D01*
X110070922Y-73507621D01*
X110030539Y-73534604D01*
X107874144Y-75690999D01*
X107847161Y-75731382D01*
X107838872Y-75773058D01*
X107837553Y-75774562D01*
X107835591Y-75774172D01*
X107834948Y-75773058D01*
X107831960Y-75758035D01*
X107799730Y-75696419D01*
X107734967Y-75661056D01*
X107719961Y-75658071D01*
X107718457Y-75656752D01*
X107718847Y-75654790D01*
X107719961Y-75654147D01*
X107761637Y-75645858D01*
X107802020Y-75618875D01*
X109958415Y-73462480D01*
X109985398Y-73422097D01*
X109993687Y-73380421D01*
X109995006Y-73378917D01*
X109996968Y-73379307D01*
G37*
G36*
X123005670Y-73379307D02*
G01*
X123006313Y-73380421D01*
X123014602Y-73422097D01*
X123041585Y-73462480D01*
X125197980Y-75618875D01*
X125238363Y-75645858D01*
X125280039Y-75654147D01*
X125281543Y-75655466D01*
X125281153Y-75657428D01*
X125280039Y-75658071D01*
X125265016Y-75661059D01*
X125203400Y-75693289D01*
X125168037Y-75758052D01*
X125165052Y-75773058D01*
X125163733Y-75774562D01*
X125161771Y-75774172D01*
X125161128Y-75773058D01*
X125152839Y-75731382D01*
X125125856Y-75690999D01*
X122969461Y-73534604D01*
X122929078Y-73507621D01*
X122887402Y-73499332D01*
X122885898Y-73498013D01*
X122886288Y-73496051D01*
X122887402Y-73495408D01*
X122902425Y-73492420D01*
X122964041Y-73460190D01*
X122999404Y-73395427D01*
X123002389Y-73380421D01*
X123003708Y-73378917D01*
X123005670Y-73379307D01*
G37*
G36*
X123359223Y-73025754D02*
G01*
X123359866Y-73026868D01*
X123368155Y-73068544D01*
X123395138Y-73108927D01*
X125551533Y-75265322D01*
X125591916Y-75292305D01*
X125633592Y-75300594D01*
X125635096Y-75301913D01*
X125634706Y-75303875D01*
X125633592Y-75304518D01*
X125618569Y-75307506D01*
X125556953Y-75339736D01*
X125521590Y-75404499D01*
X125518605Y-75419505D01*
X125517286Y-75421009D01*
X125515324Y-75420619D01*
X125514681Y-75419505D01*
X125506392Y-75377829D01*
X125479409Y-75337446D01*
X123323014Y-73181051D01*
X123282631Y-73154068D01*
X123240955Y-73145779D01*
X123239451Y-73144460D01*
X123239841Y-73142498D01*
X123240955Y-73141855D01*
X123255978Y-73138867D01*
X123317594Y-73106637D01*
X123352957Y-73041874D01*
X123355942Y-73026868D01*
X123357261Y-73025364D01*
X123359223Y-73025754D01*
G37*
G36*
X109643415Y-73025754D02*
G01*
X109644058Y-73026868D01*
X109647046Y-73041891D01*
X109679276Y-73103507D01*
X109744039Y-73138870D01*
X109759045Y-73141855D01*
X109760549Y-73143174D01*
X109760159Y-73145136D01*
X109759045Y-73145779D01*
X109717369Y-73154068D01*
X109676986Y-73181051D01*
X107520591Y-75337446D01*
X107493608Y-75377829D01*
X107485319Y-75419505D01*
X107484000Y-75421009D01*
X107482038Y-75420619D01*
X107481395Y-75419505D01*
X107478407Y-75404482D01*
X107446177Y-75342866D01*
X107381414Y-75307503D01*
X107366408Y-75304518D01*
X107364904Y-75303199D01*
X107365294Y-75301237D01*
X107366408Y-75300594D01*
X107408084Y-75292305D01*
X107448467Y-75265322D01*
X109604862Y-73108927D01*
X109631845Y-73068544D01*
X109640134Y-73026868D01*
X109641453Y-73025364D01*
X109643415Y-73025754D01*
G37*
G36*
X123712777Y-72672201D02*
G01*
X123713420Y-72673315D01*
X123721709Y-72714990D01*
X123748692Y-72755373D01*
X125905087Y-74911768D01*
X125945470Y-74938751D01*
X125987145Y-74947040D01*
X125988649Y-74948359D01*
X125988259Y-74950321D01*
X125987145Y-74950964D01*
X125972122Y-74953952D01*
X125910506Y-74986182D01*
X125875143Y-75050945D01*
X125872158Y-75065951D01*
X125870839Y-75067455D01*
X125868877Y-75067065D01*
X125868234Y-75065951D01*
X125859945Y-75024276D01*
X125832962Y-74983893D01*
X123676567Y-72827498D01*
X123636184Y-72800515D01*
X123594509Y-72792226D01*
X123593005Y-72790907D01*
X123593395Y-72788945D01*
X123594509Y-72788302D01*
X123609532Y-72785314D01*
X123671148Y-72753084D01*
X123706511Y-72688321D01*
X123709496Y-72673315D01*
X123710815Y-72671811D01*
X123712777Y-72672201D01*
G37*
G36*
X109289861Y-72672201D02*
G01*
X109290504Y-72673315D01*
X109293492Y-72688338D01*
X109325722Y-72749954D01*
X109390485Y-72785317D01*
X109405491Y-72788302D01*
X109406995Y-72789621D01*
X109406605Y-72791583D01*
X109405491Y-72792226D01*
X109363816Y-72800515D01*
X109323433Y-72827498D01*
X107167038Y-74983893D01*
X107140055Y-75024276D01*
X107131766Y-75065951D01*
X107130447Y-75067455D01*
X107128485Y-75067065D01*
X107127842Y-75065951D01*
X107124854Y-75050928D01*
X107092624Y-74989312D01*
X107027861Y-74953949D01*
X107012855Y-74950964D01*
X107011351Y-74949645D01*
X107011741Y-74947683D01*
X107012855Y-74947040D01*
X107054530Y-74938751D01*
X107094913Y-74911768D01*
X109251308Y-72755373D01*
X109278291Y-72714990D01*
X109286580Y-72673315D01*
X109287899Y-72671811D01*
X109289861Y-72672201D01*
G37*
G36*
X108936308Y-72318647D02*
G01*
X108936951Y-72319761D01*
X108939939Y-72334784D01*
X108972169Y-72396400D01*
X109036932Y-72431763D01*
X109051938Y-72434748D01*
X109053442Y-72436067D01*
X109053052Y-72438029D01*
X109051938Y-72438672D01*
X109010262Y-72446961D01*
X108969879Y-72473944D01*
X106813484Y-74630339D01*
X106786501Y-74670722D01*
X106778212Y-74712398D01*
X106776893Y-74713902D01*
X106774931Y-74713512D01*
X106774288Y-74712398D01*
X106771300Y-74697375D01*
X106739070Y-74635759D01*
X106674307Y-74600396D01*
X106659301Y-74597411D01*
X106657797Y-74596092D01*
X106658187Y-74594130D01*
X106659301Y-74593487D01*
X106700977Y-74585198D01*
X106741360Y-74558215D01*
X108897755Y-72401820D01*
X108924738Y-72361437D01*
X108933027Y-72319761D01*
X108934346Y-72318257D01*
X108936308Y-72318647D01*
G37*
G36*
X124066330Y-72318647D02*
G01*
X124066973Y-72319761D01*
X124075262Y-72361437D01*
X124102245Y-72401820D01*
X126258640Y-74558215D01*
X126299023Y-74585198D01*
X126340699Y-74593487D01*
X126342203Y-74594806D01*
X126341813Y-74596768D01*
X126340699Y-74597411D01*
X126325676Y-74600399D01*
X126264060Y-74632629D01*
X126228697Y-74697392D01*
X126225712Y-74712398D01*
X126224393Y-74713902D01*
X126222431Y-74713512D01*
X126221788Y-74712398D01*
X126213499Y-74670722D01*
X126186516Y-74630339D01*
X124030121Y-72473944D01*
X123989738Y-72446961D01*
X123948062Y-72438672D01*
X123946558Y-72437353D01*
X123946948Y-72435391D01*
X123948062Y-72434748D01*
X123963085Y-72431760D01*
X124024701Y-72399530D01*
X124060064Y-72334767D01*
X124063049Y-72319761D01*
X124064368Y-72318257D01*
X124066330Y-72318647D01*
G37*
G36*
X124419883Y-71965092D02*
G01*
X124420526Y-71966206D01*
X124428815Y-72007883D01*
X124455798Y-72048266D01*
X126612193Y-74204661D01*
X126652576Y-74231644D01*
X126694252Y-74239933D01*
X126695756Y-74241252D01*
X126695366Y-74243214D01*
X126694252Y-74243857D01*
X126679229Y-74246845D01*
X126617613Y-74279076D01*
X126582251Y-74343837D01*
X126579265Y-74358846D01*
X126577946Y-74360350D01*
X126575984Y-74359960D01*
X126575341Y-74358846D01*
X126567052Y-74317169D01*
X126540069Y-74276786D01*
X124383674Y-72120391D01*
X124343291Y-72093408D01*
X124301615Y-72085119D01*
X124300111Y-72083800D01*
X124300501Y-72081838D01*
X124301615Y-72081195D01*
X124316638Y-72078207D01*
X124378254Y-72045976D01*
X124413616Y-71981215D01*
X124416602Y-71966206D01*
X124417921Y-71964702D01*
X124419883Y-71965092D01*
G37*
G36*
X108582755Y-71965092D02*
G01*
X108583398Y-71966206D01*
X108586387Y-71981232D01*
X108618618Y-72042848D01*
X108683379Y-72078210D01*
X108698385Y-72081195D01*
X108699889Y-72082514D01*
X108699499Y-72084476D01*
X108698385Y-72085119D01*
X108656709Y-72093408D01*
X108616326Y-72120391D01*
X106459931Y-74276786D01*
X106432948Y-74317169D01*
X106424659Y-74358846D01*
X106423340Y-74360350D01*
X106421378Y-74359960D01*
X106420735Y-74358846D01*
X106417746Y-74343820D01*
X106385515Y-74282204D01*
X106320754Y-74246842D01*
X106305748Y-74243857D01*
X106304244Y-74242538D01*
X106304634Y-74240576D01*
X106305748Y-74239933D01*
X106347424Y-74231644D01*
X106387807Y-74204661D01*
X108544202Y-72048266D01*
X108571185Y-72007883D01*
X108579474Y-71966206D01*
X108580793Y-71964702D01*
X108582755Y-71965092D01*
G37*
G36*
X108229201Y-71611540D02*
G01*
X108229844Y-71612654D01*
X108232832Y-71627677D01*
X108265063Y-71689293D01*
X108329824Y-71724655D01*
X108344833Y-71727641D01*
X108346337Y-71728960D01*
X108345947Y-71730922D01*
X108344833Y-71731565D01*
X108303156Y-71739854D01*
X108262773Y-71766837D01*
X106106378Y-73923232D01*
X106079395Y-73963615D01*
X106071106Y-74005291D01*
X106069787Y-74006795D01*
X106067825Y-74006405D01*
X106067182Y-74005291D01*
X106064194Y-73990268D01*
X106031963Y-73928652D01*
X105967202Y-73893290D01*
X105952193Y-73890304D01*
X105950689Y-73888985D01*
X105951079Y-73887023D01*
X105952193Y-73886380D01*
X105993870Y-73878091D01*
X106034253Y-73851108D01*
X108190648Y-71694713D01*
X108217631Y-71654330D01*
X108225920Y-71612654D01*
X108227239Y-71611150D01*
X108229201Y-71611540D01*
G37*
G36*
X124773437Y-71611540D02*
G01*
X124774080Y-71612654D01*
X124782369Y-71654330D01*
X124809352Y-71694713D01*
X126965747Y-73851108D01*
X127006130Y-73878091D01*
X127047807Y-73886380D01*
X127049311Y-73887699D01*
X127048921Y-73889661D01*
X127047807Y-73890304D01*
X127032781Y-73893293D01*
X126971165Y-73925524D01*
X126935803Y-73990285D01*
X126932818Y-74005291D01*
X126931499Y-74006795D01*
X126929537Y-74006405D01*
X126928894Y-74005291D01*
X126920605Y-73963615D01*
X126893622Y-73923232D01*
X124737227Y-71766837D01*
X124696844Y-71739854D01*
X124655167Y-71731565D01*
X124653663Y-71730246D01*
X124654053Y-71728284D01*
X124655167Y-71727641D01*
X124670193Y-71724652D01*
X124731809Y-71692421D01*
X124767171Y-71627660D01*
X124770156Y-71612654D01*
X124771475Y-71611150D01*
X124773437Y-71611540D01*
G37*
G36*
X107875648Y-71257987D02*
G01*
X107876291Y-71259101D01*
X107879279Y-71274124D01*
X107911509Y-71335740D01*
X107976272Y-71371103D01*
X107991278Y-71374088D01*
X107992782Y-71375407D01*
X107992392Y-71377369D01*
X107991278Y-71378012D01*
X107949602Y-71386301D01*
X107909219Y-71413284D01*
X105752824Y-73569679D01*
X105725841Y-73610062D01*
X105717552Y-73651738D01*
X105716233Y-73653242D01*
X105714271Y-73652852D01*
X105713628Y-73651738D01*
X105710640Y-73636715D01*
X105678410Y-73575099D01*
X105613647Y-73539736D01*
X105598641Y-73536751D01*
X105597137Y-73535432D01*
X105597527Y-73533470D01*
X105598641Y-73532827D01*
X105640317Y-73524538D01*
X105680700Y-73497555D01*
X107837095Y-71341160D01*
X107864078Y-71300777D01*
X107872367Y-71259101D01*
X107873686Y-71257597D01*
X107875648Y-71257987D01*
G37*
G36*
X125126990Y-71257987D02*
G01*
X125127633Y-71259101D01*
X125135922Y-71300777D01*
X125162905Y-71341160D01*
X127319300Y-73497555D01*
X127359683Y-73524538D01*
X127401359Y-73532827D01*
X127402863Y-73534146D01*
X127402473Y-73536108D01*
X127401359Y-73536751D01*
X127386336Y-73539739D01*
X127324720Y-73571969D01*
X127289357Y-73636732D01*
X127286372Y-73651738D01*
X127285053Y-73653242D01*
X127283091Y-73652852D01*
X127282448Y-73651738D01*
X127274159Y-73610062D01*
X127247176Y-73569679D01*
X125090781Y-71413284D01*
X125050398Y-71386301D01*
X125008722Y-71378012D01*
X125007218Y-71376693D01*
X125007608Y-71374731D01*
X125008722Y-71374088D01*
X125023745Y-71371100D01*
X125085361Y-71338870D01*
X125120724Y-71274107D01*
X125123709Y-71259101D01*
X125125028Y-71257597D01*
X125126990Y-71257987D01*
G37*
G36*
X107522094Y-70904434D02*
G01*
X107522737Y-70905548D01*
X107525725Y-70920571D01*
X107557955Y-70982187D01*
X107622718Y-71017550D01*
X107637724Y-71020535D01*
X107639228Y-71021854D01*
X107638838Y-71023816D01*
X107637724Y-71024459D01*
X107596049Y-71032748D01*
X107555666Y-71059731D01*
X105399271Y-73216126D01*
X105372288Y-73256509D01*
X105363999Y-73298184D01*
X105362680Y-73299688D01*
X105360718Y-73299298D01*
X105360075Y-73298184D01*
X105357087Y-73283161D01*
X105324857Y-73221545D01*
X105260094Y-73186182D01*
X105245088Y-73183197D01*
X105243584Y-73181878D01*
X105243974Y-73179916D01*
X105245088Y-73179273D01*
X105286763Y-73170984D01*
X105327146Y-73144001D01*
X107483541Y-70987606D01*
X107510524Y-70947223D01*
X107518813Y-70905548D01*
X107520132Y-70904044D01*
X107522094Y-70904434D01*
G37*
G36*
X125480544Y-70904434D02*
G01*
X125481187Y-70905548D01*
X125489476Y-70947223D01*
X125516459Y-70987606D01*
X127672854Y-73144001D01*
X127713237Y-73170984D01*
X127754912Y-73179273D01*
X127756416Y-73180592D01*
X127756026Y-73182554D01*
X127754912Y-73183197D01*
X127739889Y-73186185D01*
X127678273Y-73218415D01*
X127642910Y-73283178D01*
X127639925Y-73298184D01*
X127638606Y-73299688D01*
X127636644Y-73299298D01*
X127636001Y-73298184D01*
X127627712Y-73256509D01*
X127600729Y-73216126D01*
X125444334Y-71059731D01*
X125403951Y-71032748D01*
X125362276Y-71024459D01*
X125360772Y-71023140D01*
X125361162Y-71021178D01*
X125362276Y-71020535D01*
X125377299Y-71017547D01*
X125438915Y-70985317D01*
X125474278Y-70920554D01*
X125477263Y-70905548D01*
X125478582Y-70904044D01*
X125480544Y-70904434D01*
G37*
G36*
X127639282Y-67050702D02*
G01*
X127639925Y-67051816D01*
X127642913Y-67066839D01*
X127675143Y-67128455D01*
X127739906Y-67163818D01*
X127754912Y-67166803D01*
X127756416Y-67168122D01*
X127756026Y-67170084D01*
X127754912Y-67170727D01*
X127713237Y-67179016D01*
X127672854Y-67205999D01*
X125516459Y-69362394D01*
X125489476Y-69402777D01*
X125481187Y-69444452D01*
X125479868Y-69445956D01*
X125477906Y-69445566D01*
X125477263Y-69444452D01*
X125474275Y-69429429D01*
X125442045Y-69367813D01*
X125377282Y-69332450D01*
X125362276Y-69329465D01*
X125360772Y-69328146D01*
X125361162Y-69326184D01*
X125362276Y-69325541D01*
X125403951Y-69317252D01*
X125444334Y-69290269D01*
X127600729Y-67133874D01*
X127627712Y-67093491D01*
X127636001Y-67051816D01*
X127637320Y-67050312D01*
X127639282Y-67050702D01*
G37*
G36*
X105363356Y-67050702D02*
G01*
X105363999Y-67051816D01*
X105372288Y-67093491D01*
X105399271Y-67133874D01*
X107555666Y-69290269D01*
X107596049Y-69317252D01*
X107637724Y-69325541D01*
X107639228Y-69326860D01*
X107638838Y-69328822D01*
X107637724Y-69329465D01*
X107622701Y-69332453D01*
X107561085Y-69364683D01*
X107525722Y-69429446D01*
X107522737Y-69444452D01*
X107521418Y-69445956D01*
X107519456Y-69445566D01*
X107518813Y-69444452D01*
X107510524Y-69402777D01*
X107483541Y-69362394D01*
X105327146Y-67205999D01*
X105286763Y-67179016D01*
X105245088Y-67170727D01*
X105243584Y-67169408D01*
X105243974Y-67167446D01*
X105245088Y-67166803D01*
X105260111Y-67163815D01*
X105321727Y-67131585D01*
X105357090Y-67066822D01*
X105360075Y-67051816D01*
X105361394Y-67050312D01*
X105363356Y-67050702D01*
G37*
G36*
X127285729Y-66697148D02*
G01*
X127286372Y-66698262D01*
X127289360Y-66713285D01*
X127321590Y-66774901D01*
X127386353Y-66810264D01*
X127401359Y-66813249D01*
X127402863Y-66814568D01*
X127402473Y-66816530D01*
X127401359Y-66817173D01*
X127359683Y-66825462D01*
X127319300Y-66852445D01*
X125162905Y-69008840D01*
X125135922Y-69049223D01*
X125127633Y-69090899D01*
X125126314Y-69092403D01*
X125124352Y-69092013D01*
X125123709Y-69090899D01*
X125120721Y-69075876D01*
X125088491Y-69014260D01*
X125023728Y-68978897D01*
X125008722Y-68975912D01*
X125007218Y-68974593D01*
X125007608Y-68972631D01*
X125008722Y-68971988D01*
X125050398Y-68963699D01*
X125090781Y-68936716D01*
X127247176Y-66780321D01*
X127274159Y-66739938D01*
X127282448Y-66698262D01*
X127283767Y-66696758D01*
X127285729Y-66697148D01*
G37*
G36*
X105716909Y-66697148D02*
G01*
X105717552Y-66698262D01*
X105725841Y-66739938D01*
X105752824Y-66780321D01*
X107909219Y-68936716D01*
X107949602Y-68963699D01*
X107991278Y-68971988D01*
X107992782Y-68973307D01*
X107992392Y-68975269D01*
X107991278Y-68975912D01*
X107976255Y-68978900D01*
X107914639Y-69011130D01*
X107879276Y-69075893D01*
X107876291Y-69090899D01*
X107874972Y-69092403D01*
X107873010Y-69092013D01*
X107872367Y-69090899D01*
X107864078Y-69049223D01*
X107837095Y-69008840D01*
X105680700Y-66852445D01*
X105640317Y-66825462D01*
X105598641Y-66817173D01*
X105597137Y-66815854D01*
X105597527Y-66813892D01*
X105598641Y-66813249D01*
X105613664Y-66810261D01*
X105675280Y-66778031D01*
X105710643Y-66713268D01*
X105713628Y-66698262D01*
X105714947Y-66696758D01*
X105716909Y-66697148D01*
G37*
G36*
X106070463Y-66343595D02*
G01*
X106071106Y-66344709D01*
X106079395Y-66386385D01*
X106106378Y-66426768D01*
X108262773Y-68583163D01*
X108303156Y-68610146D01*
X108344833Y-68618435D01*
X108346337Y-68619754D01*
X108345947Y-68621716D01*
X108344833Y-68622359D01*
X108329807Y-68625348D01*
X108268191Y-68657579D01*
X108232829Y-68722340D01*
X108229844Y-68737346D01*
X108228525Y-68738850D01*
X108226563Y-68738460D01*
X108225920Y-68737346D01*
X108217631Y-68695670D01*
X108190648Y-68655287D01*
X106034253Y-66498892D01*
X105993870Y-66471909D01*
X105952193Y-66463620D01*
X105950689Y-66462301D01*
X105951079Y-66460339D01*
X105952193Y-66459696D01*
X105967219Y-66456707D01*
X106028835Y-66424476D01*
X106064197Y-66359715D01*
X106067182Y-66344709D01*
X106068501Y-66343205D01*
X106070463Y-66343595D01*
G37*
G36*
X126932175Y-66343595D02*
G01*
X126932818Y-66344709D01*
X126935806Y-66359732D01*
X126968037Y-66421348D01*
X127032798Y-66456710D01*
X127047807Y-66459696D01*
X127049311Y-66461015D01*
X127048921Y-66462977D01*
X127047807Y-66463620D01*
X127006130Y-66471909D01*
X126965747Y-66498892D01*
X124809352Y-68655287D01*
X124782369Y-68695670D01*
X124774080Y-68737346D01*
X124772761Y-68738850D01*
X124770799Y-68738460D01*
X124770156Y-68737346D01*
X124767168Y-68722323D01*
X124734937Y-68660707D01*
X124670176Y-68625345D01*
X124655167Y-68622359D01*
X124653663Y-68621040D01*
X124654053Y-68619078D01*
X124655167Y-68618435D01*
X124696844Y-68610146D01*
X124737227Y-68583163D01*
X126893622Y-66426768D01*
X126920605Y-66386385D01*
X126928894Y-66344709D01*
X126930213Y-66343205D01*
X126932175Y-66343595D01*
G37*
G36*
X126578622Y-65990040D02*
G01*
X126579265Y-65991154D01*
X126582254Y-66006180D01*
X126614485Y-66067796D01*
X126679246Y-66103158D01*
X126694252Y-66106143D01*
X126695756Y-66107462D01*
X126695366Y-66109424D01*
X126694252Y-66110067D01*
X126652576Y-66118356D01*
X126612193Y-66145339D01*
X124455798Y-68301734D01*
X124428815Y-68342117D01*
X124420526Y-68383794D01*
X124419207Y-68385298D01*
X124417245Y-68384908D01*
X124416602Y-68383794D01*
X124413613Y-68368768D01*
X124381382Y-68307152D01*
X124316621Y-68271790D01*
X124301615Y-68268805D01*
X124300111Y-68267486D01*
X124300501Y-68265524D01*
X124301615Y-68264881D01*
X124343291Y-68256592D01*
X124383674Y-68229609D01*
X126540069Y-66073214D01*
X126567052Y-66032831D01*
X126575341Y-65991154D01*
X126576660Y-65989650D01*
X126578622Y-65990040D01*
G37*
G36*
X106424016Y-65990040D02*
G01*
X106424659Y-65991154D01*
X106432948Y-66032831D01*
X106459931Y-66073214D01*
X108616326Y-68229609D01*
X108656709Y-68256592D01*
X108698385Y-68264881D01*
X108699889Y-68266200D01*
X108699499Y-68268162D01*
X108698385Y-68268805D01*
X108683362Y-68271793D01*
X108621746Y-68304024D01*
X108586384Y-68368785D01*
X108583398Y-68383794D01*
X108582079Y-68385298D01*
X108580117Y-68384908D01*
X108579474Y-68383794D01*
X108571185Y-68342117D01*
X108544202Y-68301734D01*
X106387807Y-66145339D01*
X106347424Y-66118356D01*
X106305748Y-66110067D01*
X106304244Y-66108748D01*
X106304634Y-66106786D01*
X106305748Y-66106143D01*
X106320771Y-66103155D01*
X106382387Y-66070924D01*
X106417749Y-66006163D01*
X106420735Y-65991154D01*
X106422054Y-65989650D01*
X106424016Y-65990040D01*
G37*
G36*
X106777569Y-65636488D02*
G01*
X106778212Y-65637602D01*
X106786501Y-65679278D01*
X106813484Y-65719661D01*
X108969879Y-67876056D01*
X109010262Y-67903039D01*
X109051938Y-67911328D01*
X109053442Y-67912647D01*
X109053052Y-67914609D01*
X109051938Y-67915252D01*
X109036915Y-67918240D01*
X108975299Y-67950470D01*
X108939936Y-68015233D01*
X108936951Y-68030239D01*
X108935632Y-68031743D01*
X108933670Y-68031353D01*
X108933027Y-68030239D01*
X108924738Y-67988563D01*
X108897755Y-67948180D01*
X106741360Y-65791785D01*
X106700977Y-65764802D01*
X106659301Y-65756513D01*
X106657797Y-65755194D01*
X106658187Y-65753232D01*
X106659301Y-65752589D01*
X106674324Y-65749601D01*
X106735940Y-65717371D01*
X106771303Y-65652608D01*
X106774288Y-65637602D01*
X106775607Y-65636098D01*
X106777569Y-65636488D01*
G37*
G36*
X126225069Y-65636488D02*
G01*
X126225712Y-65637602D01*
X126228700Y-65652625D01*
X126260930Y-65714241D01*
X126325693Y-65749604D01*
X126340699Y-65752589D01*
X126342203Y-65753908D01*
X126341813Y-65755870D01*
X126340699Y-65756513D01*
X126299023Y-65764802D01*
X126258640Y-65791785D01*
X124102245Y-67948180D01*
X124075262Y-67988563D01*
X124066973Y-68030239D01*
X124065654Y-68031743D01*
X124063692Y-68031353D01*
X124063049Y-68030239D01*
X124060061Y-68015216D01*
X124027831Y-67953600D01*
X123963068Y-67918237D01*
X123948062Y-67915252D01*
X123946558Y-67913933D01*
X123946948Y-67911971D01*
X123948062Y-67911328D01*
X123989738Y-67903039D01*
X124030121Y-67876056D01*
X126186516Y-65719661D01*
X126213499Y-65679278D01*
X126221788Y-65637602D01*
X126223107Y-65636098D01*
X126225069Y-65636488D01*
G37*
G36*
X107131123Y-65282935D02*
G01*
X107131766Y-65284049D01*
X107140055Y-65325724D01*
X107167038Y-65366107D01*
X109323433Y-67522502D01*
X109363816Y-67549485D01*
X109405491Y-67557774D01*
X109406995Y-67559093D01*
X109406605Y-67561055D01*
X109405491Y-67561698D01*
X109390468Y-67564686D01*
X109328852Y-67596916D01*
X109293489Y-67661679D01*
X109290504Y-67676685D01*
X109289185Y-67678189D01*
X109287223Y-67677799D01*
X109286580Y-67676685D01*
X109278291Y-67635010D01*
X109251308Y-67594627D01*
X107094913Y-65438232D01*
X107054530Y-65411249D01*
X107012855Y-65402960D01*
X107011351Y-65401641D01*
X107011741Y-65399679D01*
X107012855Y-65399036D01*
X107027878Y-65396048D01*
X107089494Y-65363818D01*
X107124857Y-65299055D01*
X107127842Y-65284049D01*
X107129161Y-65282545D01*
X107131123Y-65282935D01*
G37*
G36*
X125871515Y-65282935D02*
G01*
X125872158Y-65284049D01*
X125875146Y-65299072D01*
X125907376Y-65360688D01*
X125972139Y-65396051D01*
X125987145Y-65399036D01*
X125988649Y-65400355D01*
X125988259Y-65402317D01*
X125987145Y-65402960D01*
X125945470Y-65411249D01*
X125905087Y-65438232D01*
X123748692Y-67594627D01*
X123721709Y-67635010D01*
X123713420Y-67676685D01*
X123712101Y-67678189D01*
X123710139Y-67677799D01*
X123709496Y-67676685D01*
X123706508Y-67661662D01*
X123674278Y-67600046D01*
X123609515Y-67564683D01*
X123594509Y-67561698D01*
X123593005Y-67560379D01*
X123593395Y-67558417D01*
X123594509Y-67557774D01*
X123636184Y-67549485D01*
X123676567Y-67522502D01*
X125832962Y-65366107D01*
X125859945Y-65325724D01*
X125868234Y-65284049D01*
X125869553Y-65282545D01*
X125871515Y-65282935D01*
G37*
G36*
X125517962Y-64929381D02*
G01*
X125518605Y-64930495D01*
X125521593Y-64945518D01*
X125553823Y-65007134D01*
X125618586Y-65042497D01*
X125633592Y-65045482D01*
X125635096Y-65046801D01*
X125634706Y-65048763D01*
X125633592Y-65049406D01*
X125591916Y-65057695D01*
X125551533Y-65084678D01*
X123395138Y-67241073D01*
X123368155Y-67281456D01*
X123359866Y-67323132D01*
X123358547Y-67324636D01*
X123356585Y-67324246D01*
X123355942Y-67323132D01*
X123352954Y-67308109D01*
X123320724Y-67246493D01*
X123255961Y-67211130D01*
X123240955Y-67208145D01*
X123239451Y-67206826D01*
X123239841Y-67204864D01*
X123240955Y-67204221D01*
X123282631Y-67195932D01*
X123323014Y-67168949D01*
X125479409Y-65012554D01*
X125506392Y-64972171D01*
X125514681Y-64930495D01*
X125516000Y-64928991D01*
X125517962Y-64929381D01*
G37*
G36*
X107484676Y-64929381D02*
G01*
X107485319Y-64930495D01*
X107493608Y-64972171D01*
X107520591Y-65012554D01*
X109676986Y-67168949D01*
X109717369Y-67195932D01*
X109759045Y-67204221D01*
X109760549Y-67205540D01*
X109760159Y-67207502D01*
X109759045Y-67208145D01*
X109744022Y-67211133D01*
X109682406Y-67243363D01*
X109647043Y-67308126D01*
X109644058Y-67323132D01*
X109642739Y-67324636D01*
X109640777Y-67324246D01*
X109640134Y-67323132D01*
X109631845Y-67281456D01*
X109604862Y-67241073D01*
X107448467Y-65084678D01*
X107408084Y-65057695D01*
X107366408Y-65049406D01*
X107364904Y-65048087D01*
X107365294Y-65046125D01*
X107366408Y-65045482D01*
X107381431Y-65042494D01*
X107443047Y-65010264D01*
X107478410Y-64945501D01*
X107481395Y-64930495D01*
X107482714Y-64928991D01*
X107484676Y-64929381D01*
G37*
G36*
X125164409Y-64575828D02*
G01*
X125165052Y-64576942D01*
X125168040Y-64591965D01*
X125200270Y-64653581D01*
X125265033Y-64688944D01*
X125280039Y-64691929D01*
X125281543Y-64693248D01*
X125281153Y-64695210D01*
X125280039Y-64695853D01*
X125238363Y-64704142D01*
X125197980Y-64731125D01*
X123041585Y-66887520D01*
X123014602Y-66927903D01*
X123006313Y-66969579D01*
X123004994Y-66971083D01*
X123003032Y-66970693D01*
X123002389Y-66969579D01*
X122999401Y-66954556D01*
X122967171Y-66892940D01*
X122902408Y-66857577D01*
X122887402Y-66854592D01*
X122885898Y-66853273D01*
X122886288Y-66851311D01*
X122887402Y-66850668D01*
X122929078Y-66842379D01*
X122969461Y-66815396D01*
X125125856Y-64659001D01*
X125152839Y-64618618D01*
X125161128Y-64576942D01*
X125162447Y-64575438D01*
X125164409Y-64575828D01*
G37*
G36*
X107838229Y-64575828D02*
G01*
X107838872Y-64576942D01*
X107847161Y-64618618D01*
X107874144Y-64659001D01*
X110030539Y-66815396D01*
X110070922Y-66842379D01*
X110112598Y-66850668D01*
X110114102Y-66851987D01*
X110113712Y-66853949D01*
X110112598Y-66854592D01*
X110097575Y-66857580D01*
X110035959Y-66889810D01*
X110000596Y-66954573D01*
X109997611Y-66969579D01*
X109996292Y-66971083D01*
X109994330Y-66970693D01*
X109993687Y-66969579D01*
X109985398Y-66927903D01*
X109958415Y-66887520D01*
X107802020Y-64731125D01*
X107761637Y-64704142D01*
X107719961Y-64695853D01*
X107718457Y-64694534D01*
X107718847Y-64692572D01*
X107719961Y-64691929D01*
X107734984Y-64688941D01*
X107796600Y-64656711D01*
X107831963Y-64591948D01*
X107834948Y-64576942D01*
X107836267Y-64575438D01*
X107838229Y-64575828D01*
G37*
G36*
X108191783Y-64222275D02*
G01*
X108192426Y-64223389D01*
X108200715Y-64265064D01*
X108227698Y-64305447D01*
X110384093Y-66461842D01*
X110424476Y-66488825D01*
X110466151Y-66497114D01*
X110467655Y-66498433D01*
X110467265Y-66500395D01*
X110466151Y-66501038D01*
X110451128Y-66504026D01*
X110389512Y-66536256D01*
X110354149Y-66601019D01*
X110351164Y-66616025D01*
X110349845Y-66617529D01*
X110347883Y-66617139D01*
X110347240Y-66616025D01*
X110338951Y-66574350D01*
X110311968Y-66533967D01*
X108155573Y-64377572D01*
X108115190Y-64350589D01*
X108073515Y-64342300D01*
X108072011Y-64340981D01*
X108072401Y-64339019D01*
X108073515Y-64338376D01*
X108088538Y-64335388D01*
X108150154Y-64303158D01*
X108185517Y-64238395D01*
X108188502Y-64223389D01*
X108189821Y-64221885D01*
X108191783Y-64222275D01*
G37*
G36*
X124810855Y-64222275D02*
G01*
X124811498Y-64223389D01*
X124814486Y-64238412D01*
X124846716Y-64300028D01*
X124911479Y-64335391D01*
X124926485Y-64338376D01*
X124927989Y-64339695D01*
X124927599Y-64341657D01*
X124926485Y-64342300D01*
X124884810Y-64350589D01*
X124844427Y-64377572D01*
X122688032Y-66533967D01*
X122661049Y-66574350D01*
X122652760Y-66616025D01*
X122651441Y-66617529D01*
X122649479Y-66617139D01*
X122648836Y-66616025D01*
X122645848Y-66601002D01*
X122613618Y-66539386D01*
X122548855Y-66504023D01*
X122533849Y-66501038D01*
X122532345Y-66499719D01*
X122532735Y-66497757D01*
X122533849Y-66497114D01*
X122575524Y-66488825D01*
X122615907Y-66461842D01*
X124772302Y-64305447D01*
X124799285Y-64265064D01*
X124807574Y-64223389D01*
X124808893Y-64221885D01*
X124810855Y-64222275D01*
G37*
G36*
X124457302Y-63868721D02*
G01*
X124457945Y-63869835D01*
X124460933Y-63884858D01*
X124493163Y-63946474D01*
X124557926Y-63981837D01*
X124572932Y-63984822D01*
X124574436Y-63986141D01*
X124574046Y-63988103D01*
X124572932Y-63988746D01*
X124531256Y-63997035D01*
X124490873Y-64024018D01*
X122334478Y-66180413D01*
X122307495Y-66220796D01*
X122299206Y-66262472D01*
X122297887Y-66263976D01*
X122295925Y-66263586D01*
X122295282Y-66262472D01*
X122292294Y-66247449D01*
X122260064Y-66185833D01*
X122195301Y-66150470D01*
X122180295Y-66147485D01*
X122178791Y-66146166D01*
X122179181Y-66144204D01*
X122180295Y-66143561D01*
X122221971Y-66135272D01*
X122262354Y-66108289D01*
X124418749Y-63951894D01*
X124445732Y-63911511D01*
X124454021Y-63869835D01*
X124455340Y-63868331D01*
X124457302Y-63868721D01*
G37*
G36*
X108545336Y-63868721D02*
G01*
X108545979Y-63869835D01*
X108554268Y-63911511D01*
X108581251Y-63951894D01*
X110737646Y-66108289D01*
X110778029Y-66135272D01*
X110819705Y-66143561D01*
X110821209Y-66144880D01*
X110820819Y-66146842D01*
X110819705Y-66147485D01*
X110804682Y-66150473D01*
X110743066Y-66182703D01*
X110707703Y-66247466D01*
X110704718Y-66262472D01*
X110703399Y-66263976D01*
X110701437Y-66263586D01*
X110700794Y-66262472D01*
X110692505Y-66220796D01*
X110665522Y-66180413D01*
X108509127Y-64024018D01*
X108468744Y-63997035D01*
X108427068Y-63988746D01*
X108425564Y-63987427D01*
X108425954Y-63985465D01*
X108427068Y-63984822D01*
X108442091Y-63981834D01*
X108503707Y-63949604D01*
X108539070Y-63884841D01*
X108542055Y-63869835D01*
X108543374Y-63868331D01*
X108545336Y-63868721D01*
G37*
G36*
X124103748Y-63515168D02*
G01*
X124104391Y-63516282D01*
X124107379Y-63531305D01*
X124139609Y-63592921D01*
X124204372Y-63628284D01*
X124219378Y-63631269D01*
X124220882Y-63632588D01*
X124220492Y-63634550D01*
X124219378Y-63635193D01*
X124177703Y-63643482D01*
X124137320Y-63670465D01*
X121980925Y-65826860D01*
X121953942Y-65867243D01*
X121945653Y-65908918D01*
X121944334Y-65910422D01*
X121942372Y-65910032D01*
X121941729Y-65908918D01*
X121938741Y-65893895D01*
X121906511Y-65832279D01*
X121841748Y-65796916D01*
X121826742Y-65793931D01*
X121825238Y-65792612D01*
X121825628Y-65790650D01*
X121826742Y-65790007D01*
X121868417Y-65781718D01*
X121908800Y-65754735D01*
X124065195Y-63598340D01*
X124092178Y-63557957D01*
X124100467Y-63516282D01*
X124101786Y-63514778D01*
X124103748Y-63515168D01*
G37*
G36*
X108898890Y-63515168D02*
G01*
X108899533Y-63516282D01*
X108907822Y-63557957D01*
X108934805Y-63598340D01*
X111091200Y-65754735D01*
X111131583Y-65781718D01*
X111173258Y-65790007D01*
X111174762Y-65791326D01*
X111174372Y-65793288D01*
X111173258Y-65793931D01*
X111158235Y-65796919D01*
X111096619Y-65829149D01*
X111061256Y-65893912D01*
X111058271Y-65908918D01*
X111056952Y-65910422D01*
X111054990Y-65910032D01*
X111054347Y-65908918D01*
X111046058Y-65867243D01*
X111019075Y-65826860D01*
X108862680Y-63670465D01*
X108822297Y-63643482D01*
X108780622Y-63635193D01*
X108779118Y-63633874D01*
X108779508Y-63631912D01*
X108780622Y-63631269D01*
X108795645Y-63628281D01*
X108857261Y-63596051D01*
X108892624Y-63531288D01*
X108895609Y-63516282D01*
X108896928Y-63514778D01*
X108898890Y-63515168D01*
G37*
G36*
X123750195Y-63161614D02*
G01*
X123750838Y-63162728D01*
X123753826Y-63177751D01*
X123786056Y-63239367D01*
X123850819Y-63274730D01*
X123865825Y-63277715D01*
X123867329Y-63279034D01*
X123866939Y-63280996D01*
X123865825Y-63281639D01*
X123824149Y-63289928D01*
X123783766Y-63316911D01*
X121627371Y-65473306D01*
X121600388Y-65513689D01*
X121592099Y-65555365D01*
X121590780Y-65556869D01*
X121588818Y-65556479D01*
X121588175Y-65555365D01*
X121585187Y-65540342D01*
X121552957Y-65478726D01*
X121488194Y-65443363D01*
X121473188Y-65440378D01*
X121471684Y-65439059D01*
X121472074Y-65437097D01*
X121473188Y-65436454D01*
X121514864Y-65428165D01*
X121555247Y-65401182D01*
X123711642Y-63244787D01*
X123738625Y-63204404D01*
X123746914Y-63162728D01*
X123748233Y-63161224D01*
X123750195Y-63161614D01*
G37*
G36*
X109252443Y-63161614D02*
G01*
X109253086Y-63162728D01*
X109261375Y-63204404D01*
X109288358Y-63244787D01*
X111444753Y-65401182D01*
X111485136Y-65428165D01*
X111526812Y-65436454D01*
X111528316Y-65437773D01*
X111527926Y-65439735D01*
X111526812Y-65440378D01*
X111511789Y-65443366D01*
X111450173Y-65475596D01*
X111414810Y-65540359D01*
X111411825Y-65555365D01*
X111410506Y-65556869D01*
X111408544Y-65556479D01*
X111407901Y-65555365D01*
X111399612Y-65513689D01*
X111372629Y-65473306D01*
X109216234Y-63316911D01*
X109175851Y-63289928D01*
X109134175Y-63281639D01*
X109132671Y-63280320D01*
X109133061Y-63278358D01*
X109134175Y-63277715D01*
X109149198Y-63274727D01*
X109210814Y-63242497D01*
X109246177Y-63177734D01*
X109249162Y-63162728D01*
X109250481Y-63161224D01*
X109252443Y-63161614D01*
G37*
G36*
X123396642Y-62808061D02*
G01*
X123397285Y-62809175D01*
X123400273Y-62824198D01*
X123432503Y-62885814D01*
X123497266Y-62921177D01*
X123512272Y-62924162D01*
X123513776Y-62925481D01*
X123513386Y-62927443D01*
X123512272Y-62928086D01*
X123470596Y-62936375D01*
X123430213Y-62963358D01*
X121273818Y-65119753D01*
X121246835Y-65160136D01*
X121238546Y-65201812D01*
X121237227Y-65203316D01*
X121235265Y-65202926D01*
X121234622Y-65201812D01*
X121231634Y-65186789D01*
X121199404Y-65125173D01*
X121134641Y-65089810D01*
X121119635Y-65086825D01*
X121118131Y-65085506D01*
X121118521Y-65083544D01*
X121119635Y-65082901D01*
X121161311Y-65074612D01*
X121201694Y-65047629D01*
X123358089Y-62891234D01*
X123385072Y-62850851D01*
X123393361Y-62809175D01*
X123394680Y-62807671D01*
X123396642Y-62808061D01*
G37*
G36*
X109605996Y-62808061D02*
G01*
X109606639Y-62809175D01*
X109614928Y-62850851D01*
X109641911Y-62891234D01*
X111798306Y-65047629D01*
X111838689Y-65074612D01*
X111880365Y-65082901D01*
X111881869Y-65084220D01*
X111881479Y-65086182D01*
X111880365Y-65086825D01*
X111865342Y-65089813D01*
X111803726Y-65122043D01*
X111768363Y-65186806D01*
X111765378Y-65201812D01*
X111764059Y-65203316D01*
X111762097Y-65202926D01*
X111761454Y-65201812D01*
X111753165Y-65160136D01*
X111726182Y-65119753D01*
X109569787Y-62963358D01*
X109529404Y-62936375D01*
X109487728Y-62928086D01*
X109486224Y-62926767D01*
X109486614Y-62924805D01*
X109487728Y-62924162D01*
X109502751Y-62921174D01*
X109564367Y-62888944D01*
X109599730Y-62824181D01*
X109602715Y-62809175D01*
X109604034Y-62807671D01*
X109605996Y-62808061D01*
G37*
G36*
X109959550Y-62454508D02*
G01*
X109960193Y-62455622D01*
X109968482Y-62497297D01*
X109995465Y-62537680D01*
X112151860Y-64694075D01*
X112192243Y-64721058D01*
X112233918Y-64729347D01*
X112235422Y-64730666D01*
X112235032Y-64732628D01*
X112233918Y-64733271D01*
X112218895Y-64736259D01*
X112157279Y-64768489D01*
X112121916Y-64833252D01*
X112118931Y-64848258D01*
X112117612Y-64849762D01*
X112115650Y-64849372D01*
X112115007Y-64848258D01*
X112106718Y-64806583D01*
X112079735Y-64766200D01*
X109923340Y-62609805D01*
X109882957Y-62582822D01*
X109841282Y-62574533D01*
X109839778Y-62573214D01*
X109840168Y-62571252D01*
X109841282Y-62570609D01*
X109856305Y-62567621D01*
X109917921Y-62535391D01*
X109953284Y-62470628D01*
X109956269Y-62455622D01*
X109957588Y-62454118D01*
X109959550Y-62454508D01*
G37*
G36*
X123043088Y-62454508D02*
G01*
X123043731Y-62455622D01*
X123046719Y-62470645D01*
X123078949Y-62532261D01*
X123143712Y-62567624D01*
X123158718Y-62570609D01*
X123160222Y-62571928D01*
X123159832Y-62573890D01*
X123158718Y-62574533D01*
X123117043Y-62582822D01*
X123076660Y-62609805D01*
X120920265Y-64766200D01*
X120893282Y-64806583D01*
X120884993Y-64848258D01*
X120883674Y-64849762D01*
X120881712Y-64849372D01*
X120881069Y-64848258D01*
X120878081Y-64833235D01*
X120845851Y-64771619D01*
X120781088Y-64736256D01*
X120766082Y-64733271D01*
X120764578Y-64731952D01*
X120764968Y-64729990D01*
X120766082Y-64729347D01*
X120807757Y-64721058D01*
X120848140Y-64694075D01*
X123004535Y-62537680D01*
X123031518Y-62497297D01*
X123039807Y-62455622D01*
X123041126Y-62454118D01*
X123043088Y-62454508D01*
G37*
G36*
X110313103Y-62100954D02*
G01*
X110313746Y-62102068D01*
X110322035Y-62143744D01*
X110349018Y-62184127D01*
X112505413Y-64340522D01*
X112545796Y-64367505D01*
X112587472Y-64375794D01*
X112588976Y-64377113D01*
X112588586Y-64379075D01*
X112587472Y-64379718D01*
X112572449Y-64382706D01*
X112510833Y-64414936D01*
X112475470Y-64479699D01*
X112472485Y-64494705D01*
X112471166Y-64496209D01*
X112469204Y-64495819D01*
X112468561Y-64494705D01*
X112460272Y-64453029D01*
X112433289Y-64412646D01*
X110276894Y-62256251D01*
X110236511Y-62229268D01*
X110194835Y-62220979D01*
X110193331Y-62219660D01*
X110193721Y-62217698D01*
X110194835Y-62217055D01*
X110209858Y-62214067D01*
X110271474Y-62181837D01*
X110306837Y-62117074D01*
X110309822Y-62102068D01*
X110311141Y-62100564D01*
X110313103Y-62100954D01*
G37*
G36*
X122689535Y-62100954D02*
G01*
X122690178Y-62102068D01*
X122693166Y-62117091D01*
X122725396Y-62178707D01*
X122790159Y-62214070D01*
X122805165Y-62217055D01*
X122806669Y-62218374D01*
X122806279Y-62220336D01*
X122805165Y-62220979D01*
X122763489Y-62229268D01*
X122723106Y-62256251D01*
X120566711Y-64412646D01*
X120539728Y-64453029D01*
X120531439Y-64494705D01*
X120530120Y-64496209D01*
X120528158Y-64495819D01*
X120527515Y-64494705D01*
X120524527Y-64479682D01*
X120492297Y-64418066D01*
X120427534Y-64382703D01*
X120412528Y-64379718D01*
X120411024Y-64378399D01*
X120411414Y-64376437D01*
X120412528Y-64375794D01*
X120454204Y-64367505D01*
X120494587Y-64340522D01*
X122650982Y-62184127D01*
X122677965Y-62143744D01*
X122686254Y-62102068D01*
X122687573Y-62100564D01*
X122689535Y-62100954D01*
G37*
G36*
X122335981Y-61747401D02*
G01*
X122336624Y-61748515D01*
X122339612Y-61763538D01*
X122371842Y-61825154D01*
X122436605Y-61860517D01*
X122451611Y-61863502D01*
X122453115Y-61864821D01*
X122452725Y-61866783D01*
X122451611Y-61867426D01*
X122409936Y-61875715D01*
X122369553Y-61902698D01*
X120213158Y-64059093D01*
X120186175Y-64099476D01*
X120177886Y-64141151D01*
X120176567Y-64142655D01*
X120174605Y-64142265D01*
X120173962Y-64141151D01*
X120170974Y-64126128D01*
X120138744Y-64064512D01*
X120073981Y-64029149D01*
X120058975Y-64026164D01*
X120057471Y-64024845D01*
X120057861Y-64022883D01*
X120058975Y-64022240D01*
X120100650Y-64013951D01*
X120141033Y-63986968D01*
X122297428Y-61830573D01*
X122324411Y-61790190D01*
X122332700Y-61748515D01*
X122334019Y-61747011D01*
X122335981Y-61747401D01*
G37*
G36*
X110666657Y-61747401D02*
G01*
X110667300Y-61748515D01*
X110675589Y-61790190D01*
X110702572Y-61830573D01*
X112858967Y-63986968D01*
X112899350Y-64013951D01*
X112941025Y-64022240D01*
X112942529Y-64023559D01*
X112942139Y-64025521D01*
X112941025Y-64026164D01*
X112926002Y-64029152D01*
X112864386Y-64061382D01*
X112829023Y-64126145D01*
X112826038Y-64141151D01*
X112824719Y-64142655D01*
X112822757Y-64142265D01*
X112822114Y-64141151D01*
X112813825Y-64099476D01*
X112786842Y-64059093D01*
X110630447Y-61902698D01*
X110590064Y-61875715D01*
X110548389Y-61867426D01*
X110546885Y-61866107D01*
X110547275Y-61864145D01*
X110548389Y-61863502D01*
X110563412Y-61860514D01*
X110625028Y-61828284D01*
X110660391Y-61763521D01*
X110663376Y-61748515D01*
X110664695Y-61747011D01*
X110666657Y-61747401D01*
G37*
G36*
X121982428Y-61393847D02*
G01*
X121983071Y-61394961D01*
X121986059Y-61409984D01*
X122018289Y-61471600D01*
X122083052Y-61506963D01*
X122098058Y-61509948D01*
X122099562Y-61511267D01*
X122099172Y-61513229D01*
X122098058Y-61513872D01*
X122056382Y-61522161D01*
X122015999Y-61549144D01*
X119859604Y-63705539D01*
X119832621Y-63745922D01*
X119824332Y-63787598D01*
X119823013Y-63789102D01*
X119821051Y-63788712D01*
X119820408Y-63787598D01*
X119817420Y-63772575D01*
X119785190Y-63710959D01*
X119720427Y-63675596D01*
X119705421Y-63672611D01*
X119703917Y-63671292D01*
X119704307Y-63669330D01*
X119705421Y-63668687D01*
X119747097Y-63660398D01*
X119787480Y-63633415D01*
X121943875Y-61477020D01*
X121970858Y-61436637D01*
X121979147Y-61394961D01*
X121980466Y-61393457D01*
X121982428Y-61393847D01*
G37*
G36*
X111020210Y-61393847D02*
G01*
X111020853Y-61394961D01*
X111029142Y-61436637D01*
X111056125Y-61477020D01*
X113212520Y-63633415D01*
X113252903Y-63660398D01*
X113294579Y-63668687D01*
X113296083Y-63670006D01*
X113295693Y-63671968D01*
X113294579Y-63672611D01*
X113279556Y-63675599D01*
X113217940Y-63707829D01*
X113182577Y-63772592D01*
X113179592Y-63787598D01*
X113178273Y-63789102D01*
X113176311Y-63788712D01*
X113175668Y-63787598D01*
X113167379Y-63745922D01*
X113140396Y-63705539D01*
X110984001Y-61549144D01*
X110943618Y-61522161D01*
X110901942Y-61513872D01*
X110900438Y-61512553D01*
X110900828Y-61510591D01*
X110901942Y-61509948D01*
X110916965Y-61506960D01*
X110978581Y-61474730D01*
X111013944Y-61409967D01*
X111016929Y-61394961D01*
X111018248Y-61393457D01*
X111020210Y-61393847D01*
G37*
G36*
X121628875Y-61040294D02*
G01*
X121629518Y-61041408D01*
X121632506Y-61056431D01*
X121664736Y-61118047D01*
X121729499Y-61153410D01*
X121744505Y-61156395D01*
X121746009Y-61157714D01*
X121745619Y-61159676D01*
X121744505Y-61160319D01*
X121702829Y-61168608D01*
X121662446Y-61195591D01*
X119506051Y-63351986D01*
X119479068Y-63392369D01*
X119470779Y-63434045D01*
X119469460Y-63435549D01*
X119467498Y-63435159D01*
X119466855Y-63434045D01*
X119463867Y-63419022D01*
X119431637Y-63357406D01*
X119366874Y-63322043D01*
X119351868Y-63319058D01*
X119350364Y-63317739D01*
X119350754Y-63315777D01*
X119351868Y-63315134D01*
X119393544Y-63306845D01*
X119433927Y-63279862D01*
X121590322Y-61123467D01*
X121617305Y-61083084D01*
X121625594Y-61041408D01*
X121626913Y-61039904D01*
X121628875Y-61040294D01*
G37*
G36*
X111373763Y-61040294D02*
G01*
X111374406Y-61041408D01*
X111382695Y-61083084D01*
X111409678Y-61123467D01*
X113566073Y-63279862D01*
X113606456Y-63306845D01*
X113648132Y-63315134D01*
X113649636Y-63316453D01*
X113649246Y-63318415D01*
X113648132Y-63319058D01*
X113633109Y-63322046D01*
X113571493Y-63354276D01*
X113536130Y-63419039D01*
X113533145Y-63434045D01*
X113531826Y-63435549D01*
X113529864Y-63435159D01*
X113529221Y-63434045D01*
X113520932Y-63392369D01*
X113493949Y-63351986D01*
X111337554Y-61195591D01*
X111297171Y-61168608D01*
X111255495Y-61160319D01*
X111253991Y-61159000D01*
X111254381Y-61157038D01*
X111255495Y-61156395D01*
X111270518Y-61153407D01*
X111332134Y-61121177D01*
X111367497Y-61056414D01*
X111370482Y-61041408D01*
X111371801Y-61039904D01*
X111373763Y-61040294D01*
G37*
G36*
X121275321Y-60686741D02*
G01*
X121275964Y-60687855D01*
X121278952Y-60702878D01*
X121311182Y-60764494D01*
X121375945Y-60799857D01*
X121390951Y-60802842D01*
X121392455Y-60804161D01*
X121392065Y-60806123D01*
X121390951Y-60806766D01*
X121349276Y-60815055D01*
X121308893Y-60842038D01*
X119152498Y-62998433D01*
X119125515Y-63038816D01*
X119117226Y-63080491D01*
X119115907Y-63081995D01*
X119113945Y-63081605D01*
X119113302Y-63080491D01*
X119110314Y-63065468D01*
X119078084Y-63003852D01*
X119013321Y-62968489D01*
X118998315Y-62965504D01*
X118996811Y-62964185D01*
X118997201Y-62962223D01*
X118998315Y-62961580D01*
X119039990Y-62953291D01*
X119080373Y-62926308D01*
X121236768Y-60769913D01*
X121263751Y-60729530D01*
X121272040Y-60687855D01*
X121273359Y-60686351D01*
X121275321Y-60686741D01*
G37*
G36*
X111727317Y-60686741D02*
G01*
X111727960Y-60687855D01*
X111736249Y-60729530D01*
X111763232Y-60769913D01*
X113919627Y-62926308D01*
X113960010Y-62953291D01*
X114001685Y-62961580D01*
X114003189Y-62962899D01*
X114002799Y-62964861D01*
X114001685Y-62965504D01*
X113986662Y-62968492D01*
X113925046Y-63000722D01*
X113889683Y-63065485D01*
X113886698Y-63080491D01*
X113885379Y-63081995D01*
X113883417Y-63081605D01*
X113882774Y-63080491D01*
X113874485Y-63038816D01*
X113847502Y-62998433D01*
X111691107Y-60842038D01*
X111650724Y-60815055D01*
X111609049Y-60806766D01*
X111607545Y-60805447D01*
X111607935Y-60803485D01*
X111609049Y-60802842D01*
X111624072Y-60799854D01*
X111685688Y-60767624D01*
X111721051Y-60702861D01*
X111724036Y-60687855D01*
X111725355Y-60686351D01*
X111727317Y-60686741D01*
G37*
G36*
X120921768Y-60333187D02*
G01*
X120922411Y-60334301D01*
X120925399Y-60349324D01*
X120957629Y-60410940D01*
X121022392Y-60446303D01*
X121037398Y-60449288D01*
X121038902Y-60450607D01*
X121038512Y-60452569D01*
X121037398Y-60453212D01*
X120995722Y-60461501D01*
X120955339Y-60488484D01*
X118798944Y-62644879D01*
X118771961Y-62685262D01*
X118763672Y-62726938D01*
X118762353Y-62728442D01*
X118760391Y-62728052D01*
X118759748Y-62726938D01*
X118756760Y-62711915D01*
X118724530Y-62650299D01*
X118659767Y-62614936D01*
X118644761Y-62611951D01*
X118643257Y-62610632D01*
X118643647Y-62608670D01*
X118644761Y-62608027D01*
X118686437Y-62599738D01*
X118726820Y-62572755D01*
X120883215Y-60416360D01*
X120910198Y-60375977D01*
X120918487Y-60334301D01*
X120919806Y-60332797D01*
X120921768Y-60333187D01*
G37*
G36*
X112080870Y-60333187D02*
G01*
X112081513Y-60334301D01*
X112089802Y-60375977D01*
X112116785Y-60416360D01*
X114273180Y-62572755D01*
X114313563Y-62599738D01*
X114355239Y-62608027D01*
X114356743Y-62609346D01*
X114356353Y-62611308D01*
X114355239Y-62611951D01*
X114340216Y-62614939D01*
X114278600Y-62647169D01*
X114243237Y-62711932D01*
X114240252Y-62726938D01*
X114238933Y-62728442D01*
X114236971Y-62728052D01*
X114236328Y-62726938D01*
X114228039Y-62685262D01*
X114201056Y-62644879D01*
X112044661Y-60488484D01*
X112004278Y-60461501D01*
X111962602Y-60453212D01*
X111961098Y-60451893D01*
X111961488Y-60449931D01*
X111962602Y-60449288D01*
X111977625Y-60446300D01*
X112039241Y-60414070D01*
X112074604Y-60349307D01*
X112077589Y-60334301D01*
X112078908Y-60332797D01*
X112080870Y-60333187D01*
G37*
G36*
X112434424Y-59979634D02*
G01*
X112435067Y-59980748D01*
X112443356Y-60022424D01*
X112470339Y-60062807D01*
X114626734Y-62219202D01*
X114667117Y-62246185D01*
X114708794Y-62254474D01*
X114710298Y-62255793D01*
X114709908Y-62257755D01*
X114708794Y-62258398D01*
X114693768Y-62261387D01*
X114632152Y-62293618D01*
X114596790Y-62358379D01*
X114593805Y-62373385D01*
X114592486Y-62374889D01*
X114590524Y-62374499D01*
X114589881Y-62373385D01*
X114581592Y-62331709D01*
X114554609Y-62291326D01*
X112398214Y-60134931D01*
X112357831Y-60107948D01*
X112316154Y-60099659D01*
X112314650Y-60098340D01*
X112315040Y-60096378D01*
X112316154Y-60095735D01*
X112331180Y-60092746D01*
X112392796Y-60060515D01*
X112428158Y-59995754D01*
X112431143Y-59980748D01*
X112432462Y-59979244D01*
X112434424Y-59979634D01*
G37*
G36*
X120568214Y-59979634D02*
G01*
X120568857Y-59980748D01*
X120571845Y-59995771D01*
X120604076Y-60057387D01*
X120668837Y-60092749D01*
X120683846Y-60095735D01*
X120685350Y-60097054D01*
X120684960Y-60099016D01*
X120683846Y-60099659D01*
X120642169Y-60107948D01*
X120601786Y-60134931D01*
X118445391Y-62291326D01*
X118418408Y-62331709D01*
X118410119Y-62373385D01*
X118408800Y-62374889D01*
X118406838Y-62374499D01*
X118406195Y-62373385D01*
X118403207Y-62358362D01*
X118370976Y-62296746D01*
X118306215Y-62261384D01*
X118291206Y-62258398D01*
X118289702Y-62257079D01*
X118290092Y-62255117D01*
X118291206Y-62254474D01*
X118332883Y-62246185D01*
X118373266Y-62219202D01*
X120529661Y-60062807D01*
X120556644Y-60022424D01*
X120564933Y-59980748D01*
X120566252Y-59979244D01*
X120568214Y-59979634D01*
G37*
G36*
X112787977Y-59626079D02*
G01*
X112788620Y-59627193D01*
X112796909Y-59668870D01*
X112823892Y-59709253D01*
X114980287Y-61865648D01*
X115020670Y-61892631D01*
X115062346Y-61900920D01*
X115063850Y-61902239D01*
X115063460Y-61904201D01*
X115062346Y-61904844D01*
X115047323Y-61907832D01*
X114985707Y-61940063D01*
X114950345Y-62004824D01*
X114947359Y-62019833D01*
X114946040Y-62021337D01*
X114944078Y-62020947D01*
X114943435Y-62019833D01*
X114935146Y-61978156D01*
X114908163Y-61937773D01*
X112751768Y-59781378D01*
X112711385Y-59754395D01*
X112669709Y-59746106D01*
X112668205Y-59744787D01*
X112668595Y-59742825D01*
X112669709Y-59742182D01*
X112684732Y-59739194D01*
X112746348Y-59706963D01*
X112781710Y-59642202D01*
X112784696Y-59627193D01*
X112786015Y-59625689D01*
X112787977Y-59626079D01*
G37*
G36*
X120214661Y-59626079D02*
G01*
X120215304Y-59627193D01*
X120218293Y-59642219D01*
X120250524Y-59703835D01*
X120315285Y-59739197D01*
X120330291Y-59742182D01*
X120331795Y-59743501D01*
X120331405Y-59745463D01*
X120330291Y-59746106D01*
X120288615Y-59754395D01*
X120248232Y-59781378D01*
X118091837Y-61937773D01*
X118064854Y-61978156D01*
X118056565Y-62019833D01*
X118055246Y-62021337D01*
X118053284Y-62020947D01*
X118052641Y-62019833D01*
X118049652Y-62004807D01*
X118017421Y-61943191D01*
X117952660Y-61907829D01*
X117937654Y-61904844D01*
X117936150Y-61903525D01*
X117936540Y-61901563D01*
X117937654Y-61900920D01*
X117979330Y-61892631D01*
X118019713Y-61865648D01*
X120176108Y-59709253D01*
X120203091Y-59668870D01*
X120211380Y-59627193D01*
X120212699Y-59625689D01*
X120214661Y-59626079D01*
G37*
G36*
X119861108Y-59272527D02*
G01*
X119861751Y-59273641D01*
X119864739Y-59288664D01*
X119896969Y-59350280D01*
X119961732Y-59385643D01*
X119976738Y-59388628D01*
X119978242Y-59389947D01*
X119977852Y-59391909D01*
X119976738Y-59392552D01*
X119935062Y-59400841D01*
X119894679Y-59427824D01*
X117738284Y-61584219D01*
X117711301Y-61624602D01*
X117703012Y-61666278D01*
X117701693Y-61667782D01*
X117699731Y-61667392D01*
X117699088Y-61666278D01*
X117696100Y-61651255D01*
X117663870Y-61589639D01*
X117599107Y-61554276D01*
X117584101Y-61551291D01*
X117582597Y-61549972D01*
X117582987Y-61548010D01*
X117584101Y-61547367D01*
X117625777Y-61539078D01*
X117666160Y-61512095D01*
X119822555Y-59355700D01*
X119849538Y-59315317D01*
X119857827Y-59273641D01*
X119859146Y-59272137D01*
X119861108Y-59272527D01*
G37*
G36*
X113141530Y-59272527D02*
G01*
X113142173Y-59273641D01*
X113150462Y-59315317D01*
X113177445Y-59355700D01*
X115333840Y-61512095D01*
X115374223Y-61539078D01*
X115415899Y-61547367D01*
X115417403Y-61548686D01*
X115417013Y-61550648D01*
X115415899Y-61551291D01*
X115400876Y-61554279D01*
X115339260Y-61586509D01*
X115303897Y-61651272D01*
X115300912Y-61666278D01*
X115299593Y-61667782D01*
X115297631Y-61667392D01*
X115296988Y-61666278D01*
X115288699Y-61624602D01*
X115261716Y-61584219D01*
X113105321Y-59427824D01*
X113064938Y-59400841D01*
X113023262Y-59392552D01*
X113021758Y-59391233D01*
X113022148Y-59389271D01*
X113023262Y-59388628D01*
X113038285Y-59385640D01*
X113099901Y-59353410D01*
X113135264Y-59288647D01*
X113138249Y-59273641D01*
X113139568Y-59272137D01*
X113141530Y-59272527D01*
G37*
G36*
X113495084Y-58918974D02*
G01*
X113495727Y-58920088D01*
X113504016Y-58961763D01*
X113530999Y-59002146D01*
X115687394Y-61158541D01*
X115727777Y-61185524D01*
X115769452Y-61193813D01*
X115770956Y-61195132D01*
X115770566Y-61197094D01*
X115769452Y-61197737D01*
X115754429Y-61200725D01*
X115692813Y-61232955D01*
X115657450Y-61297718D01*
X115654465Y-61312724D01*
X115653146Y-61314228D01*
X115651184Y-61313838D01*
X115650541Y-61312724D01*
X115642252Y-61271049D01*
X115615269Y-61230666D01*
X113458874Y-59074271D01*
X113418491Y-59047288D01*
X113376816Y-59038999D01*
X113375312Y-59037680D01*
X113375702Y-59035718D01*
X113376816Y-59035075D01*
X113391839Y-59032087D01*
X113453455Y-58999857D01*
X113488818Y-58935094D01*
X113491803Y-58920088D01*
X113493122Y-58918584D01*
X113495084Y-58918974D01*
G37*
G36*
X119507554Y-58918974D02*
G01*
X119508197Y-58920088D01*
X119511185Y-58935111D01*
X119543415Y-58996727D01*
X119608178Y-59032090D01*
X119623184Y-59035075D01*
X119624688Y-59036394D01*
X119624298Y-59038356D01*
X119623184Y-59038999D01*
X119581509Y-59047288D01*
X119541126Y-59074271D01*
X117384731Y-61230666D01*
X117357748Y-61271049D01*
X117349459Y-61312724D01*
X117348140Y-61314228D01*
X117346178Y-61313838D01*
X117345535Y-61312724D01*
X117342547Y-61297701D01*
X117310317Y-61236085D01*
X117245554Y-61200722D01*
X117230548Y-61197737D01*
X117229044Y-61196418D01*
X117229434Y-61194456D01*
X117230548Y-61193813D01*
X117272223Y-61185524D01*
X117312606Y-61158541D01*
X119469001Y-59002146D01*
X119495984Y-58961763D01*
X119504273Y-58920088D01*
X119505592Y-58918584D01*
X119507554Y-58918974D01*
G37*
G36*
X132343527Y-59725000D02*
G01*
X132343527Y-59727000D01*
X132342056Y-59727983D01*
X132341817Y-59728015D01*
X132278204Y-59756154D01*
X132240070Y-59813965D01*
X132239244Y-59883220D01*
X132275983Y-59941914D01*
X132341825Y-59971985D01*
X132342068Y-59972017D01*
X132343655Y-59973235D01*
X132343394Y-59975218D01*
X132341807Y-59976000D01*
X131333205Y-59976000D01*
X131331473Y-59975000D01*
X131331473Y-59973000D01*
X131332944Y-59972017D01*
X131333183Y-59971985D01*
X131396796Y-59943846D01*
X131434930Y-59886035D01*
X131435756Y-59816780D01*
X131399017Y-59758086D01*
X131333175Y-59728015D01*
X131332932Y-59727983D01*
X131331345Y-59726765D01*
X131331606Y-59724782D01*
X131333193Y-59724000D01*
X132341795Y-59724000D01*
X132343527Y-59725000D01*
G37*
G36*
X130068527Y-59725000D02*
G01*
X130068527Y-59727000D01*
X130067056Y-59727983D01*
X130066817Y-59728015D01*
X130003204Y-59756154D01*
X129965070Y-59813965D01*
X129964244Y-59883220D01*
X130000983Y-59941914D01*
X130066825Y-59971985D01*
X130067068Y-59972017D01*
X130068655Y-59973235D01*
X130068394Y-59975218D01*
X130066807Y-59976000D01*
X129058205Y-59976000D01*
X129056473Y-59975000D01*
X129056473Y-59973000D01*
X129057944Y-59972017D01*
X129058183Y-59971985D01*
X129121796Y-59943846D01*
X129159930Y-59886035D01*
X129160756Y-59816780D01*
X129124017Y-59758086D01*
X129058175Y-59728015D01*
X129057932Y-59727983D01*
X129056345Y-59726765D01*
X129056606Y-59724782D01*
X129058193Y-59724000D01*
X130066795Y-59724000D01*
X130068527Y-59725000D01*
G37*
G36*
X130068527Y-58775000D02*
G01*
X130068527Y-58777000D01*
X130067056Y-58777983D01*
X130066817Y-58778015D01*
X130003204Y-58806154D01*
X129965070Y-58863965D01*
X129964244Y-58933220D01*
X130000983Y-58991914D01*
X130066825Y-59021985D01*
X130067068Y-59022017D01*
X130068655Y-59023235D01*
X130068394Y-59025218D01*
X130066807Y-59026000D01*
X129058205Y-59026000D01*
X129056473Y-59025000D01*
X129056473Y-59023000D01*
X129057944Y-59022017D01*
X129058183Y-59021985D01*
X129121796Y-58993846D01*
X129159930Y-58936035D01*
X129160756Y-58866780D01*
X129124017Y-58808086D01*
X129058175Y-58778015D01*
X129057932Y-58777983D01*
X129056345Y-58776765D01*
X129056606Y-58774782D01*
X129058193Y-58774000D01*
X130066795Y-58774000D01*
X130068527Y-58775000D01*
G37*
G36*
X132343527Y-58775000D02*
G01*
X132343527Y-58777000D01*
X132342056Y-58777983D01*
X132341817Y-58778015D01*
X132278204Y-58806154D01*
X132240070Y-58863965D01*
X132239244Y-58933220D01*
X132275983Y-58991914D01*
X132341825Y-59021985D01*
X132342068Y-59022017D01*
X132343655Y-59023235D01*
X132343394Y-59025218D01*
X132341807Y-59026000D01*
X131333205Y-59026000D01*
X131331473Y-59025000D01*
X131331473Y-59023000D01*
X131332944Y-59022017D01*
X131333183Y-59021985D01*
X131396796Y-58993846D01*
X131434930Y-58936035D01*
X131435756Y-58866780D01*
X131399017Y-58808086D01*
X131333175Y-58778015D01*
X131332932Y-58777983D01*
X131331345Y-58776765D01*
X131331606Y-58774782D01*
X131333193Y-58774000D01*
X132341795Y-58774000D01*
X132343527Y-58775000D01*
G37*
G36*
X136840660Y-57129993D02*
G01*
X136854452Y-57139209D01*
X136855615Y-57137469D01*
X136857409Y-57136584D01*
X136858560Y-57137045D01*
X136875952Y-57151578D01*
X136944670Y-57160204D01*
X136992288Y-57137418D01*
X136994282Y-57137572D01*
X136994814Y-57138111D01*
X136995548Y-57139209D01*
X137009340Y-57129993D01*
X137011336Y-57129862D01*
X137012447Y-57131525D01*
X137012114Y-57132767D01*
X137004767Y-57143762D01*
X137001000Y-57162699D01*
X137001000Y-58512301D01*
X137004767Y-58531238D01*
X137012114Y-58542233D01*
X137012245Y-58544229D01*
X137010582Y-58545340D01*
X137009340Y-58545007D01*
X136995548Y-58535791D01*
X136994385Y-58537531D01*
X136992591Y-58538416D01*
X136991440Y-58537955D01*
X136974048Y-58523422D01*
X136905330Y-58514796D01*
X136857712Y-58537582D01*
X136855718Y-58537428D01*
X136855186Y-58536889D01*
X136854452Y-58535791D01*
X136840660Y-58545007D01*
X136838664Y-58545138D01*
X136837553Y-58543475D01*
X136837886Y-58542233D01*
X136845233Y-58531238D01*
X136849000Y-58512301D01*
X136849000Y-57162699D01*
X136845233Y-57143762D01*
X136837886Y-57132767D01*
X136837755Y-57130771D01*
X136839418Y-57129660D01*
X136840660Y-57129993D01*
G37*
G36*
X138790660Y-57129993D02*
G01*
X138804452Y-57139209D01*
X138805615Y-57137469D01*
X138807409Y-57136584D01*
X138808560Y-57137045D01*
X138825952Y-57151578D01*
X138894670Y-57160204D01*
X138942288Y-57137418D01*
X138944282Y-57137572D01*
X138944814Y-57138111D01*
X138945548Y-57139209D01*
X138959340Y-57129993D01*
X138961336Y-57129862D01*
X138962447Y-57131525D01*
X138962114Y-57132767D01*
X138954767Y-57143762D01*
X138951000Y-57162699D01*
X138951000Y-58512301D01*
X138954767Y-58531238D01*
X138962114Y-58542233D01*
X138962245Y-58544229D01*
X138960582Y-58545340D01*
X138959340Y-58545007D01*
X138945548Y-58535791D01*
X138944385Y-58537531D01*
X138942591Y-58538416D01*
X138941440Y-58537955D01*
X138924048Y-58523422D01*
X138855330Y-58514796D01*
X138807712Y-58537582D01*
X138805718Y-58537428D01*
X138805186Y-58536889D01*
X138804452Y-58535791D01*
X138790660Y-58545007D01*
X138788664Y-58545138D01*
X138787553Y-58543475D01*
X138787886Y-58542233D01*
X138795233Y-58531238D01*
X138799000Y-58512301D01*
X138799000Y-57162699D01*
X138795233Y-57143762D01*
X138787886Y-57132767D01*
X138787755Y-57130771D01*
X138789418Y-57129660D01*
X138790660Y-57129993D01*
G37*
G36*
X138140660Y-57129993D02*
G01*
X138154452Y-57139209D01*
X138155615Y-57137469D01*
X138157409Y-57136584D01*
X138158560Y-57137045D01*
X138175952Y-57151578D01*
X138244670Y-57160204D01*
X138292288Y-57137418D01*
X138294282Y-57137572D01*
X138294814Y-57138111D01*
X138295548Y-57139209D01*
X138309340Y-57129993D01*
X138311336Y-57129862D01*
X138312447Y-57131525D01*
X138312114Y-57132767D01*
X138304767Y-57143762D01*
X138301000Y-57162699D01*
X138301000Y-58512301D01*
X138304767Y-58531238D01*
X138312114Y-58542233D01*
X138312245Y-58544229D01*
X138310582Y-58545340D01*
X138309340Y-58545007D01*
X138295548Y-58535791D01*
X138294385Y-58537531D01*
X138292591Y-58538416D01*
X138291440Y-58537955D01*
X138274048Y-58523422D01*
X138205330Y-58514796D01*
X138157712Y-58537582D01*
X138155718Y-58537428D01*
X138155186Y-58536889D01*
X138154452Y-58535791D01*
X138140660Y-58545007D01*
X138138664Y-58545138D01*
X138137553Y-58543475D01*
X138137886Y-58542233D01*
X138145233Y-58531238D01*
X138149000Y-58512301D01*
X138149000Y-57162699D01*
X138145233Y-57143762D01*
X138137886Y-57132767D01*
X138137755Y-57130771D01*
X138139418Y-57129660D01*
X138140660Y-57129993D01*
G37*
G36*
X137490660Y-57129993D02*
G01*
X137504452Y-57139209D01*
X137505615Y-57137469D01*
X137507409Y-57136584D01*
X137508560Y-57137045D01*
X137525952Y-57151578D01*
X137594670Y-57160204D01*
X137642288Y-57137418D01*
X137644282Y-57137572D01*
X137644814Y-57138111D01*
X137645548Y-57139209D01*
X137659340Y-57129993D01*
X137661336Y-57129862D01*
X137662447Y-57131525D01*
X137662114Y-57132767D01*
X137654767Y-57143762D01*
X137651000Y-57162699D01*
X137651000Y-58512301D01*
X137654767Y-58531238D01*
X137662114Y-58542233D01*
X137662245Y-58544229D01*
X137660582Y-58545340D01*
X137659340Y-58545007D01*
X137645548Y-58535791D01*
X137644385Y-58537531D01*
X137642591Y-58538416D01*
X137641440Y-58537955D01*
X137624048Y-58523422D01*
X137555330Y-58514796D01*
X137507712Y-58537582D01*
X137505718Y-58537428D01*
X137505186Y-58536889D01*
X137504452Y-58535791D01*
X137490660Y-58545007D01*
X137488664Y-58545138D01*
X137487553Y-58543475D01*
X137487886Y-58542233D01*
X137495233Y-58531238D01*
X137499000Y-58512301D01*
X137499000Y-57162699D01*
X137495233Y-57143762D01*
X137487886Y-57132767D01*
X137487755Y-57130771D01*
X137489418Y-57129660D01*
X137490660Y-57129993D01*
G37*
G36*
X139452919Y-57473234D02*
G01*
X139472595Y-57540246D01*
X139524938Y-57585601D01*
X139593491Y-57595458D01*
X139656504Y-57566680D01*
X139680398Y-57530645D01*
X139682189Y-57529754D01*
X139683065Y-57530018D01*
X139684416Y-57530798D01*
X139696492Y-57509881D01*
X139698224Y-57508881D01*
X139699956Y-57509881D01*
X139700103Y-57511565D01*
X139647714Y-57655502D01*
X139626088Y-57826694D01*
X139642925Y-57998418D01*
X139694730Y-58154148D01*
X139694328Y-58156107D01*
X139692430Y-58156738D01*
X139691100Y-58155779D01*
X139684416Y-58144202D01*
X139682775Y-58145149D01*
X139680775Y-58145149D01*
X139680124Y-58144546D01*
X139653808Y-58106057D01*
X139590015Y-58079095D01*
X139521771Y-58090903D01*
X139470732Y-58137742D01*
X139452927Y-58201744D01*
X139451499Y-58203145D01*
X139449572Y-58202609D01*
X139449000Y-58201208D01*
X139449000Y-57473797D01*
X139450000Y-57472065D01*
X139452000Y-57472065D01*
X139452919Y-57473234D01*
G37*
G36*
X136350428Y-57472391D02*
G01*
X136351000Y-57473792D01*
X136351000Y-58201203D01*
X136350000Y-58202935D01*
X136348000Y-58202935D01*
X136347081Y-58201766D01*
X136327405Y-58134754D01*
X136275062Y-58089399D01*
X136206509Y-58079542D01*
X136143496Y-58108320D01*
X136119602Y-58144355D01*
X136117811Y-58145246D01*
X136116935Y-58144982D01*
X136115584Y-58144202D01*
X136100822Y-58169770D01*
X136099090Y-58170770D01*
X136097358Y-58169770D01*
X136097220Y-58168060D01*
X136149671Y-58029983D01*
X136173699Y-57859012D01*
X136173998Y-57837600D01*
X136154753Y-57666023D01*
X136102581Y-57516205D01*
X136102956Y-57514240D01*
X136104845Y-57513582D01*
X136106202Y-57514547D01*
X136115584Y-57530798D01*
X136117225Y-57529851D01*
X136119225Y-57529851D01*
X136119876Y-57530454D01*
X136146192Y-57568943D01*
X136209985Y-57595905D01*
X136278229Y-57584097D01*
X136329268Y-57537258D01*
X136347073Y-57473256D01*
X136348501Y-57471855D01*
X136350428Y-57472391D01*
G37*
M02*
