M48
; DRILL file {KiCad (6.0.1)} date Thu Mar 24 12:13:44 2022
; FORMAT={-:-/ absolute / inch / decimal}
; #@! TF.CreationDate,2022-03-24T12:13:44-05:00
; #@! TF.GenerationSoftware,Kicad,Pcbnew,(6.0.1)
; #@! TF.FileFunction,Plated,1,4,PTH
FMAT,2
INCH
; #@! TA.AperFunction,Plated,PTH,ViaDrill
T1C0.0079
; #@! TA.AperFunction,Plated,PTH,ComponentDrill
T2C0.0079
; #@! TA.AperFunction,Plated,PTH,ViaDrill
T3C0.0157
; #@! TA.AperFunction,Plated,PTH,ViaDrill
T4C0.0197
; #@! TA.AperFunction,Plated,PTH,ComponentDrill
T5C0.0236
; #@! TA.AperFunction,Plated,PTH,ComponentDrill
T6C0.0335
; #@! TA.AperFunction,Plated,PTH,ComponentDrill
T7C0.0394
; #@! TA.AperFunction,Plated,PTH,ComponentDrill
T8C0.0433
; #@! TA.AperFunction,Plated,PTH,ComponentDrill
T9C0.0591
; #@! TA.AperFunction,Plated,PTH,ComponentDrill
T10C0.1260
%
G90
G05
T1
X3.3547Y-2.2441
X3.3547Y-2.4331
X3.3547Y-2.622
X3.3547Y-2.811
X3.3547Y-3.0
X3.3547Y-3.189
X3.3547Y-3.378
X3.3547Y-3.5669
X3.3547Y-3.7559
X3.3547Y-3.9449
X3.3547Y-4.1339
X3.3547Y-4.3228
X3.3547Y-4.5118
X3.3547Y-4.7008
X3.3547Y-4.8898
X3.3547Y-5.0787
X3.4496Y-5.2677
X3.45Y-5.4567
X3.5441Y-5.3622
X3.6386Y-5.2677
X3.639Y-5.4567
X3.7331Y-5.3622
X3.7795Y-3.1026
X3.8268Y-3.003
X3.8272Y-4.3228
X3.8272Y-4.5118
X3.8272Y-4.7008
X3.8272Y-4.8898
X3.8272Y-5.0787
X3.8276Y-5.2677
X3.828Y-5.4567
X3.8382Y-2.1772
X3.8425Y-2.3307
X3.8504Y-2.6378
X3.8547Y-2.7913
X3.8661Y-3.1026
X3.9055Y-2.9636
X3.9055Y-3.0856
X3.9217Y-4.4173
X3.9217Y-4.6063
X3.9217Y-4.7953
X3.9217Y-4.9843
X3.9217Y-5.1732
X3.922Y-5.3622
X3.9463Y-3.1026
X3.9463Y-3.575
X3.9492Y-2.8858
X3.9805Y-2.1949
X4.0161Y-4.3228
X4.0161Y-4.5118
X4.0161Y-4.7008
X4.0161Y-4.8898
X4.0161Y-5.0787
X4.0161Y-5.2677
X4.0165Y-5.4567
X4.0267Y-2.1486
X4.0315Y-3.1025
X4.0363Y-3.5749
X4.0728Y-3.0817
X4.0766Y-3.5234
X4.1106Y-4.4173
X4.1106Y-4.6063
X4.1106Y-4.7953
X4.1106Y-4.9843
X4.1106Y-5.1732
X4.1106Y-5.3622
X4.1368Y-3.4632
X4.2051Y-4.3228
X4.2051Y-4.5118
X4.2051Y-4.7008
X4.2051Y-4.8898
X4.2051Y-5.0787
X4.2051Y-5.2677
X4.2055Y-5.4567
X4.2531Y-3.2079
X4.2996Y-4.2283
X4.2996Y-4.4173
X4.2996Y-4.6063
X4.2996Y-4.7953
X4.2996Y-4.9843
X4.2996Y-5.1732
X4.2996Y-5.3622
X4.3116Y-3.1492
X4.3383Y-2.7628
X4.378Y-2.6687
X4.3941Y-4.3228
X4.3941Y-4.5118
X4.3941Y-4.7008
X4.3941Y-4.8898
X4.3941Y-5.0787
X4.3941Y-5.2677
X4.3945Y-5.4567
X4.3976Y-2.81
X4.4016Y-2.8652
X4.4333Y-2.6686
X4.4719Y-2.7628
X4.4886Y-4.4173
X4.4886Y-4.6063
X4.4886Y-4.7953
X4.4886Y-4.9843
X4.4886Y-5.1732
X4.4886Y-5.3622
X4.4886Y-4.2287
X4.567Y-2.535
X4.567Y-2.6686
X4.5748Y-2.9561
X4.5831Y-4.3228
X4.5831Y-4.5118
X4.5831Y-4.7008
X4.5831Y-4.8898
X4.5831Y-5.0787
X4.5831Y-5.2677
X4.5835Y-5.4567
X4.6417Y-2.7234
X4.6693Y-2.8616
X4.6693Y-3.0226
X4.6732Y-2.6447
X4.6776Y-4.4173
X4.6776Y-4.6063
X4.6776Y-4.7953
X4.6776Y-4.9843
X4.6776Y-5.1732
X4.6776Y-5.3622
X4.6776Y-4.2287
X4.7047Y-2.6014
X4.748Y-2.8573
X4.7717Y-4.1339
X4.772Y-4.3228
X4.772Y-4.5118
X4.772Y-4.7008
X4.772Y-4.8898
X4.772Y-5.0787
X4.772Y-5.2677
X4.7724Y-5.4567
X4.8189Y-2.7864
X4.8425Y-2.7037
X4.8634Y-2.1091
X4.8661Y-3.661
X4.8661Y-3.85
X4.8661Y-4.039
X4.8665Y-4.2283
X4.8665Y-4.4173
X4.8665Y-4.6063
X4.8665Y-4.7953
X4.8665Y-4.9843
X4.8665Y-5.1732
X4.8665Y-5.3622
X4.939Y-3.3116
X4.9394Y-3.5102
X4.9606Y-3.7555
X4.9606Y-3.7555
X4.9606Y-3.9445
X4.9606Y-4.1335
X4.961Y-4.3228
X4.961Y-4.5118
X4.961Y-4.7008
X4.961Y-4.8898
X4.961Y-5.0787
X4.961Y-5.2677
X4.9614Y-5.4567
X4.9692Y-2.4915
X5.0371Y-2.6742
X5.0402Y-2.4656
X5.0551Y-3.661
X5.0551Y-3.85
X5.0551Y-4.039
X5.0551Y-4.228
X5.0555Y-4.6063
X5.0555Y-4.7953
X5.0555Y-4.9843
X5.0555Y-5.1732
X5.0555Y-5.3622
X5.0555Y-4.4173
X5.063Y-2.6348
X5.076Y-2.1051
X5.0807Y-2.6033
X5.0984Y-2.5719
X5.1161Y-2.5384
X5.1176Y-2.6742
X5.1203Y-2.4656
X5.1339Y-2.5049
X5.15Y-4.7008
X5.15Y-4.8898
X5.15Y-5.0787
X5.15Y-5.2677
X5.15Y-4.5118
X5.1504Y-5.4567
X5.1575Y-3.0148
X5.1701Y-3.1626
X5.1703Y-3.0768
X5.1878Y-3.1311
X5.2047Y-3.5167
X5.2055Y-3.0976
X5.2254Y-3.0354
X5.2418Y-2.7742
X5.2418Y-2.8538
X5.2445Y-4.7953
X5.2445Y-4.9843
X5.2445Y-5.1732
X5.2445Y-5.3622
X5.2449Y-3.0976
X5.2646Y-3.1311
X5.2648Y-2.4656
X5.2787Y-2.6742
X5.2843Y-3.1626
X5.339Y-4.8898
X5.339Y-5.0787
X5.339Y-5.2677
X5.3394Y-5.4567
X5.3449Y-2.4656
X5.3583Y-3.5069
X5.3593Y-2.6742
X5.3701Y-3.377
X5.425Y-2.4656
X5.4335Y-5.3622
X5.4398Y-2.6742
X5.4606Y-3.1171
X5.505Y-2.4656
X5.5204Y-2.6742
X5.528Y-3.7559
X5.528Y-3.9449
X5.528Y-4.1339
X5.528Y-4.3228
X5.528Y-4.5118
X5.5283Y-5.4567
X5.5398Y-3.5112
X5.5402Y-3.3093
X5.5709Y-3.1171
X5.6009Y-2.6742
X5.6224Y-3.8504
X5.6224Y-4.0394
X5.6224Y-4.2283
X5.6224Y-4.4173
X5.6224Y-5.3622
X5.6331Y-3.1171
X5.6814Y-2.6742
X5.7173Y-5.4567
X5.7283Y-3.1475
X5.762Y-2.6742
X5.8031Y-3.0114
X5.8051Y-3.5148
X5.8071Y-2.7285
X5.8071Y-2.8182
X5.8071Y-2.9079
X5.8071Y-3.0873
X5.8071Y-3.177
X5.8114Y-4.7953
X5.8114Y-4.9843
X5.8114Y-5.1732
X5.8114Y-5.3622
X5.8425Y-2.6348
X5.8425Y-3.1171
X5.8602Y-2.5384
X5.8799Y-2.5719
X5.8996Y-2.6033
X5.9055Y-4.7008
X5.9059Y-4.8898
X5.9059Y-5.0787
X5.9059Y-5.2677
X5.9063Y-5.4567
X5.9213Y-2.5049
X5.9488Y-3.0114
X5.9488Y-3.0874
X5.9488Y-3.177
X5.9488Y-3.2667
X5.9528Y-2.7285
X5.9528Y-2.8183
X5.9528Y-2.908
X5.9567Y-3.5148
X5.9606Y-2.5207
X5.9724Y-3.377
X5.9992Y-4.6059
X6.0Y-4.7953
X6.0004Y-4.9843
X6.0004Y-5.1732
X6.0004Y-5.3622
X6.0197Y-2.5817
X6.0197Y-2.6714
X6.0945Y-4.7008
X6.0945Y-4.8898
X6.0949Y-5.0787
X6.0949Y-5.2677
T2
X5.2402Y-3.3986
X5.2402Y-3.4813
X5.3228Y-3.3986
X5.3228Y-3.4813
X5.8406Y-3.3986
X5.8406Y-3.4813
X5.9232Y-3.3986
X5.9232Y-3.4813
T3
X4.8031Y-3.1811
X4.8724Y-2.4311
X4.8728Y-3.3742
X4.8728Y-3.4463
X4.873Y-3.3022
X4.8736Y-3.5183
X4.9248Y-3.5829
X4.9331Y-3.23
X5.0093Y-3.2274
X5.0161Y-3.5919
X5.0248Y-2.7965
X5.0295Y-2.9272
X5.0453Y-2.3376
X5.078Y-2.7051
X5.0856Y-3.2274
X5.1075Y-3.5919
X5.1449Y-3.6667
X5.1469Y-2.7051
X5.1535Y-3.747
X5.1535Y-3.747
X5.1535Y-3.8278
X5.1535Y-3.9085
X5.1535Y-3.9892
X5.1535Y-4.0699
X5.1535Y-4.1506
X5.1535Y-4.2313
X5.1535Y-4.312
X5.1618Y-3.2274
X5.1703Y-4.3688
X5.1988Y-3.5919
X5.2051Y-3.2829
X5.2092Y-4.4099
X5.2256Y-4.1994
X5.2402Y-4.4644
X5.2461Y-2.3376
X5.2638Y-4.5423
X5.2907Y-4.5963
X5.3185Y-4.2333
X5.321Y-4.4647
X5.325Y-4.6458
X5.3418Y-4.5241
X5.3459Y-4.4091
X5.3496Y-3.5533
X5.3547Y-2.3321
X5.3659Y-4.6901
X5.373Y-4.5787
X5.3792Y-4.3692
X5.3898Y-3.747
X5.3898Y-3.8278
X5.3898Y-3.9085
X5.3898Y-3.9892
X5.3898Y-4.0699
X5.3898Y-4.1506
X5.3898Y-4.2313
X5.3898Y-4.312
X5.398Y-3.6656
X5.4089Y-4.7325
X5.4137Y-4.6267
X5.4518Y-4.7749
X5.4533Y-3.6094
X5.4555Y-5.062
X5.4585Y-4.6709
X5.4732Y-3.3742
X5.4732Y-3.4463
X5.4734Y-3.3022
X5.474Y-3.5183
X5.4947Y-4.8173
X5.5033Y-4.7152
X5.5177Y-4.875
X5.5335Y-3.23
X5.5346Y-3.5904
X5.5482Y-4.7594
X5.5862Y-4.7974
X5.5866Y-5.1932
X5.6097Y-3.2274
X5.6243Y-4.7598
X5.6555Y-4.875
X5.6688Y-4.716
X5.6835Y-4.8121
X5.686Y-3.2274
X5.7133Y-4.6723
X5.7139Y-3.6106
X5.7177Y-5.0667
X5.7318Y-4.7645
X5.7577Y-4.6285
X5.7622Y-3.2274
X5.7669Y-3.6656
X5.7756Y-3.7459
X5.7756Y-3.8254
X5.7756Y-3.9049
X5.7756Y-3.9844
X5.7756Y-4.064
X5.7756Y-4.1435
X5.7756Y-4.223
X5.7772Y-4.3026
X5.7802Y-4.7168
X5.7923Y-2.4222
X5.7961Y-4.3577
X5.7984Y-4.5812
X5.7992Y-3.5919
X5.8055Y-3.2829
X5.8268Y-4.2746
X5.8282Y-4.6689
X5.83Y-4.5275
X5.8303Y-4.3991
X5.8309Y-3.7077
X5.8311Y-3.9829
X5.8311Y-4.097
X5.8511Y-4.4689
X5.8681Y-2.4518
X5.8704Y-4.6158
X5.9046Y-4.5534
X5.9343Y-4.4687
X5.95Y-4.1219
X5.9839Y-4.0045
X5.9848Y-3.6915
X5.9885Y-4.3994
X6.0091Y-3.3152
X6.0248Y-4.1699
X6.0596Y-4.3598
X6.0909Y-3.3152
X6.0909Y-3.397
X6.0909Y-3.4789
X6.0909Y-3.5608
X6.0909Y-3.6427
X6.0909Y-3.7246
X6.0909Y-3.8065
X6.0909Y-3.8884
X6.0909Y-3.9703
X6.0909Y-4.0522
X6.0909Y-4.1341
X6.0909Y-4.2159
X6.0909Y-4.2978
X6.1624Y-4.1703
T4
X3.8443Y-2.4512
X3.9756Y-2.8169
X3.9921Y-2.7008
X4.0455Y-2.9487
X4.0614Y-4.2697
X4.063Y-3.6815
X4.0827Y-2.5669
X4.105Y-2.8404
X4.135Y-3.3374
X4.1496Y-2.7717
X4.2598Y-2.7628
X4.2732Y-3.3217
X4.3413Y-3.3835
X4.3661Y-2.1565
X4.4213Y-2.2677
X4.4685Y-2.562
X4.475Y-2.1565
X4.482Y-3.3431
X4.5488Y-3.3431
X4.5585Y-2.1564
X4.5866Y-2.44
X4.5866Y-3.0856
X4.6142Y-2.2677
X4.6283Y-3.3406
X4.6689Y-2.1566
X4.6953Y-3.3406
X4.8165Y-2.1697
X4.8819Y-2.7904
X5.0902Y-2.8547
X5.6654Y-2.2431
X5.9006Y-2.2175
X5.9006Y-2.3091
X5.9508Y-2.2628
X6.063Y-2.3691
T6
X5.3307Y-2.2771
X5.5276Y-2.2771
T7
X4.9224Y-2.1681
X5.0224Y-2.1681
X5.1224Y-2.1681
X5.3406Y-2.7384
X5.3406Y-2.8384
X5.3406Y-2.9384
X5.3406Y-3.0384
X5.4406Y-2.7384
X5.4406Y-2.8384
X5.4406Y-2.9384
X5.4406Y-3.0384
X5.6043Y-2.7376
X5.6043Y-2.8376
X5.6043Y-2.9376
X5.6043Y-3.0376
X5.7043Y-2.7376
X5.7043Y-2.8376
X5.7043Y-2.9376
X5.7043Y-3.0376
T8
X3.5614Y-2.8813
X3.5614Y-2.9904
X3.5614Y-3.0994
X3.5614Y-3.2085
X3.5614Y-3.3175
X3.5614Y-3.4266
X3.5614Y-3.5356
X3.5614Y-3.6447
X3.5614Y-3.7537
X3.5614Y-3.8628
X3.5614Y-3.9719
X3.5614Y-4.0809
X3.5614Y-4.19
X3.5614Y-4.299
X3.5614Y-4.4081
X3.5614Y-4.5171
X3.5614Y-4.6262
X3.5614Y-4.7352
X3.6614Y-2.8268
X3.6614Y-2.9358
X3.6614Y-3.0449
X3.6614Y-3.1539
X3.6614Y-3.263
X3.6614Y-3.372
X3.6614Y-3.4811
X3.6614Y-3.5902
X3.6614Y-3.6992
X3.6614Y-3.8083
X3.6614Y-3.9173
X3.6614Y-4.0264
X3.6614Y-4.1354
X3.6614Y-4.2445
X3.6614Y-4.3535
X3.6614Y-4.4626
X3.6614Y-4.5717
X3.6614Y-4.6807
X3.6614Y-4.7898
T9
X5.4866Y-4.962
X5.4866Y-5.162
X5.5866Y-5.062
X5.6866Y-4.962
X5.6866Y-5.162
T10
X3.6114Y-2.5583
X3.6114Y-5.0583
T5
G00X5.2913Y-2.1845
M15
G01X5.2913Y-2.157
M16
G05
G00X5.5669Y-2.157
M15
G01X5.5669Y-2.1845
M16
G05
T0
M30
