M48
; DRILL file {KiCad (6.0.7)} date Sat Aug 27 16:36:07 2022
; FORMAT={-:-/ absolute / metric / decimal}
; #@! TF.CreationDate,2022-08-27T16:36:07-04:00
; #@! TF.GenerationSoftware,Kicad,Pcbnew,(6.0.7)
; #@! TF.FileFunction,Plated,1,4,PTH
FMAT,2
METRIC
; #@! TA.AperFunction,Plated,PTH,ViaDrill
T1C0.200
; #@! TA.AperFunction,Plated,PTH,ComponentDrill
T2C0.200
; #@! TA.AperFunction,Plated,PTH,ViaDrill
T3C0.400
; #@! TA.AperFunction,Plated,PTH,ViaDrill
T4C0.500
; #@! TA.AperFunction,Plated,PTH,ComponentDrill
T5C0.600
; #@! TA.AperFunction,Plated,PTH,ComponentDrill
T6C0.850
; #@! TA.AperFunction,Plated,PTH,ComponentDrill
T7C1.000
; #@! TA.AperFunction,Plated,PTH,ComponentDrill
T8C1.100
; #@! TA.AperFunction,Plated,PTH,ComponentDrill
T9C1.500
; #@! TA.AperFunction,Plated,PTH,ComponentDrill
T10C3.200
%
G90
G05
T1
X85.21Y-57.0
X85.21Y-61.8
X85.21Y-66.6
X85.21Y-71.4
X85.21Y-76.2
X85.21Y-81.0
X85.21Y-85.8
X85.21Y-90.6
X85.21Y-95.4
X85.21Y-100.2
X85.21Y-105.0
X85.21Y-109.8
X85.21Y-114.6
X85.21Y-119.4
X85.21Y-124.2
X85.21Y-129.0
X87.62Y-133.8
X87.63Y-138.6
X90.02Y-136.2
X92.42Y-133.8
X92.43Y-138.6
X94.82Y-136.2
X96.0Y-78.805
X97.2Y-76.275
X97.21Y-109.8
X97.21Y-114.6
X97.21Y-119.4
X97.21Y-124.2
X97.21Y-129.0
X97.22Y-133.8
X97.23Y-138.6
X97.49Y-55.3
X97.6Y-59.2
X97.8Y-67.0
X97.91Y-70.9
X98.2Y-78.805
X99.2Y-75.275
X99.2Y-78.375
X99.61Y-112.2
X99.61Y-117.0
X99.61Y-121.8
X99.61Y-126.6
X99.61Y-131.4
X99.62Y-136.2
X100.237Y-78.805
X100.237Y-90.805
X100.31Y-73.3
X101.104Y-55.75
X102.01Y-109.8
X102.01Y-114.6
X102.01Y-119.4
X102.01Y-124.2
X102.01Y-129.0
X102.01Y-133.8
X102.02Y-138.6
X102.279Y-54.575
X102.4Y-78.803
X102.521Y-90.803
X103.45Y-78.275
X103.545Y-89.494
X104.41Y-112.2
X104.41Y-117.0
X104.41Y-121.8
X104.41Y-126.6
X104.41Y-131.4
X104.41Y-136.2
X105.075Y-87.964
X106.81Y-109.8
X106.81Y-114.6
X106.81Y-119.4
X106.81Y-124.2
X106.81Y-129.0
X106.81Y-133.8
X106.82Y-138.6
X108.03Y-81.48
X109.21Y-107.4
X109.21Y-112.2
X109.21Y-117.0
X109.21Y-121.8
X109.21Y-126.6
X109.21Y-131.4
X109.21Y-136.2
X109.515Y-79.989
X110.193Y-70.176
X111.2Y-67.785
X111.61Y-109.8
X111.61Y-114.6
X111.61Y-119.4
X111.61Y-124.2
X111.61Y-129.0
X111.61Y-133.8
X111.62Y-138.6
X111.7Y-71.375
X111.8Y-72.775
X112.607Y-67.782
X113.587Y-70.176
X114.01Y-112.2
X114.01Y-117.0
X114.01Y-121.8
X114.01Y-126.6
X114.01Y-131.4
X114.01Y-136.2
X114.01Y-107.41
X116.001Y-64.388
X116.001Y-67.782
X116.2Y-75.085
X116.41Y-109.8
X116.41Y-114.6
X116.41Y-119.4
X116.41Y-124.2
X116.41Y-129.0
X116.41Y-133.8
X116.42Y-138.6
X117.9Y-69.175
X118.6Y-72.685
X118.6Y-76.775
X118.7Y-67.175
X118.81Y-112.2
X118.81Y-117.0
X118.81Y-121.8
X118.81Y-126.6
X118.81Y-131.4
X118.81Y-136.2
X118.81Y-107.41
X119.5Y-66.075
X120.6Y-72.575
X121.2Y-105.0
X121.21Y-109.8
X121.21Y-114.6
X121.21Y-119.4
X121.21Y-124.2
X121.21Y-129.0
X121.21Y-133.8
X121.22Y-138.6
X122.4Y-70.775
X123.0Y-68.675
X123.53Y-53.57
X123.6Y-92.99
X123.6Y-97.79
X123.6Y-102.59
X123.61Y-107.4
X123.61Y-112.2
X123.61Y-117.0
X123.61Y-121.8
X123.61Y-126.6
X123.61Y-131.4
X123.61Y-136.2
X125.45Y-84.115
X125.46Y-89.16
X126.0Y-95.39
X126.0Y-95.39
X126.0Y-100.19
X126.0Y-104.99
X126.01Y-109.8
X126.01Y-114.6
X126.01Y-119.4
X126.01Y-124.2
X126.01Y-129.0
X126.01Y-133.8
X126.02Y-138.6
X126.218Y-63.285
X127.942Y-67.925
X128.022Y-62.625
X128.4Y-92.99
X128.4Y-97.79
X128.4Y-102.59
X128.4Y-107.39
X128.41Y-117.0
X128.41Y-121.8
X128.41Y-126.6
X128.41Y-131.4
X128.41Y-136.2
X128.41Y-112.2
X128.6Y-66.925
X128.93Y-53.47
X129.05Y-66.125
X129.5Y-65.325
X129.95Y-64.475
X129.988Y-67.925
X130.057Y-62.625
X130.4Y-63.625
X130.81Y-119.4
X130.81Y-124.2
X130.81Y-129.0
X130.81Y-133.8
X130.81Y-114.6
X130.82Y-138.6
X131.0Y-76.575
X131.32Y-80.33
X131.325Y-78.15
X131.77Y-79.53
X132.2Y-89.325
X132.22Y-78.68
X132.725Y-77.1
X133.141Y-70.465
X133.141Y-72.487
X133.21Y-121.8
X133.21Y-126.6
X133.21Y-131.4
X133.21Y-136.2
X133.22Y-78.68
X133.72Y-79.53
X133.725Y-62.625
X134.08Y-67.925
X134.22Y-80.33
X135.61Y-124.2
X135.61Y-129.0
X135.61Y-133.8
X135.62Y-138.6
X135.76Y-62.625
X136.1Y-89.075
X136.125Y-67.925
X136.4Y-85.775
X137.794Y-62.625
X138.01Y-136.2
X138.171Y-67.925
X138.7Y-79.175
X139.828Y-62.625
X140.217Y-67.925
X140.41Y-95.4
X140.41Y-100.2
X140.41Y-105.0
X140.41Y-109.8
X140.41Y-114.6
X140.42Y-138.6
X140.71Y-89.185
X140.72Y-84.055
X141.5Y-79.175
X142.263Y-67.925
X142.81Y-97.8
X142.81Y-102.6
X142.81Y-107.4
X142.81Y-112.2
X142.81Y-136.2
X143.08Y-79.175
X144.308Y-67.925
X145.22Y-138.6
X145.5Y-79.946
X146.354Y-67.925
X147.4Y-76.489
X147.45Y-89.275
X147.5Y-69.304
X147.5Y-71.582
X147.5Y-73.861
X147.5Y-78.418
X147.5Y-80.696
X147.61Y-121.8
X147.61Y-126.6
X147.61Y-131.4
X147.61Y-136.2
X148.4Y-66.925
X148.4Y-79.175
X148.85Y-64.475
X149.35Y-65.325
X149.85Y-66.125
X150.0Y-119.4
X150.01Y-124.2
X150.01Y-129.0
X150.01Y-133.8
X150.02Y-138.6
X150.4Y-63.625
X151.1Y-76.491
X151.1Y-78.419
X151.1Y-80.696
X151.1Y-82.975
X151.2Y-69.305
X151.2Y-71.584
X151.2Y-73.862
X151.3Y-89.275
X151.4Y-64.025
X151.7Y-85.775
X152.38Y-116.99
X152.4Y-121.8
X152.41Y-126.6
X152.41Y-131.4
X152.41Y-136.2
X152.9Y-65.575
X152.9Y-67.854
X154.8Y-119.4
X154.8Y-124.2
X154.81Y-129.0
X154.81Y-133.8
T2
X133.1Y-86.325
X133.1Y-88.425
X135.2Y-86.325
X135.2Y-88.425
X148.35Y-86.325
X148.35Y-88.425
X150.45Y-86.325
X150.45Y-88.425
T3
X122.0Y-80.8
X123.76Y-61.75
X123.77Y-85.705
X123.77Y-87.535
X123.775Y-83.875
X123.79Y-89.365
X125.09Y-91.005
X125.3Y-82.041
X127.237Y-81.975
X127.41Y-91.235
X127.63Y-71.03
X127.748Y-74.352
X128.15Y-59.375
X128.98Y-68.71
X129.173Y-81.975
X129.73Y-91.235
X130.68Y-93.135
X130.73Y-68.71
X130.9Y-95.175
X130.9Y-95.175
X130.9Y-97.225
X130.9Y-99.275
X130.9Y-101.325
X130.9Y-103.375
X130.9Y-105.425
X130.9Y-107.475
X130.9Y-109.525
X131.11Y-81.975
X131.327Y-110.968
X132.05Y-91.235
X132.21Y-83.385
X132.312Y-112.012
X132.73Y-106.665
X133.1Y-113.395
X133.25Y-59.375
X133.7Y-115.375
X134.383Y-116.746
X135.09Y-107.525
X135.154Y-113.403
X135.255Y-118.004
X135.681Y-114.912
X135.785Y-111.99
X135.88Y-90.255
X136.01Y-59.235
X136.294Y-119.13
X136.474Y-116.298
X136.632Y-110.977
X136.9Y-95.175
X136.9Y-97.225
X136.9Y-99.275
X136.9Y-101.325
X136.9Y-103.375
X136.9Y-105.425
X136.9Y-107.475
X136.9Y-109.525
X137.11Y-93.105
X137.385Y-120.206
X137.507Y-117.517
X138.476Y-121.283
X138.515Y-91.68
X138.569Y-128.575
X138.646Y-118.641
X139.02Y-85.705
X139.02Y-87.535
X139.025Y-83.875
X139.04Y-89.365
X139.567Y-122.36
X139.785Y-119.765
X140.15Y-123.825
X140.55Y-82.041
X140.58Y-91.195
X140.924Y-120.889
X141.89Y-121.855
X141.9Y-131.906
X142.487Y-81.975
X142.858Y-120.9
X143.65Y-123.825
X143.987Y-119.788
X144.36Y-122.228
X144.423Y-81.975
X145.117Y-118.675
X145.133Y-91.708
X145.23Y-128.695
X145.589Y-121.018
X146.246Y-117.563
X146.36Y-81.975
X146.48Y-93.105
X146.7Y-95.145
X146.7Y-97.165
X146.7Y-99.185
X146.7Y-101.205
X146.7Y-103.225
X146.7Y-105.245
X146.7Y-107.265
X146.74Y-109.285
X146.817Y-119.808
X147.125Y-61.525
X147.221Y-110.684
X147.279Y-116.363
X147.3Y-91.235
X147.46Y-83.385
X148.0Y-108.575
X148.037Y-118.59
X148.081Y-114.998
X148.089Y-111.736
X148.105Y-94.175
X148.11Y-101.165
X148.11Y-104.065
X148.618Y-113.509
X149.05Y-62.275
X149.107Y-117.24
X149.976Y-115.657
X150.73Y-113.505
X151.13Y-104.695
X151.99Y-101.715
X152.015Y-93.765
X152.109Y-111.744
X152.63Y-84.205
X153.03Y-105.915
X153.913Y-110.738
X154.71Y-84.205
X154.71Y-86.285
X154.71Y-88.365
X154.71Y-90.445
X154.71Y-92.525
X154.71Y-94.605
X154.71Y-96.685
X154.71Y-98.765
X154.71Y-100.845
X154.71Y-102.925
X154.71Y-105.005
X154.71Y-107.085
X154.71Y-109.165
X156.525Y-105.925
T4
X97.644Y-62.262
X100.98Y-71.55
X101.4Y-68.6
X102.756Y-74.897
X103.16Y-108.45
X103.2Y-93.51
X103.7Y-65.2
X104.268Y-72.147
X105.03Y-84.77
X105.4Y-70.4
X108.2Y-70.175
X108.54Y-84.37
X110.27Y-85.94
X110.9Y-54.775
X112.3Y-57.6
X113.5Y-65.075
X113.665Y-54.775
X113.843Y-84.914
X115.54Y-84.914
X115.786Y-54.772
X116.5Y-61.975
X116.5Y-78.375
X117.2Y-57.6
X117.56Y-84.85
X118.59Y-54.777
X119.26Y-84.85
X122.34Y-55.11
X124.0Y-70.875
X129.29Y-72.51
X143.075Y-56.875
X149.875Y-56.325
X149.875Y-58.65
X151.15Y-57.475
X154.0Y-60.175
T6
X135.4Y-57.837
X140.4Y-57.837
T7
X125.03Y-55.07
X127.57Y-55.07
X130.11Y-55.07
X135.65Y-69.555
X135.65Y-72.095
X135.65Y-74.635
X135.65Y-77.175
X138.19Y-69.555
X138.19Y-72.095
X138.19Y-74.635
X138.19Y-77.175
X142.35Y-69.535
X142.35Y-72.075
X142.35Y-74.615
X142.35Y-77.155
X144.89Y-69.535
X144.89Y-72.075
X144.89Y-74.615
X144.89Y-77.155
T8
X90.46Y-73.185
X90.46Y-75.955
X90.46Y-78.725
X90.46Y-81.495
X90.46Y-84.265
X90.46Y-87.035
X90.46Y-89.805
X90.46Y-92.575
X90.46Y-95.345
X90.46Y-98.115
X90.46Y-100.885
X90.46Y-103.655
X90.46Y-106.425
X90.46Y-109.195
X90.46Y-111.965
X90.46Y-114.735
X90.46Y-117.505
X90.46Y-120.275
X93.0Y-71.8
X93.0Y-74.57
X93.0Y-77.34
X93.0Y-80.11
X93.0Y-82.88
X93.0Y-85.65
X93.0Y-88.42
X93.0Y-91.19
X93.0Y-93.96
X93.0Y-96.73
X93.0Y-99.5
X93.0Y-102.27
X93.0Y-105.04
X93.0Y-107.81
X93.0Y-110.58
X93.0Y-113.35
X93.0Y-116.12
X93.0Y-118.89
X93.0Y-121.66
T9
X139.36Y-126.035
X139.36Y-131.115
X141.9Y-128.575
X144.44Y-126.035
X144.44Y-131.115
T10
X91.73Y-64.98
X91.73Y-128.48
T5
G00X134.4Y-55.487
M15
G01X134.4Y-54.787
M16
G05
G00X141.4Y-54.787
M15
G01X141.4Y-55.487
M16
G05
T0
M30
