%TF.GenerationSoftware,KiCad,Pcbnew,(6.0.10)*%
%TF.CreationDate,2023-01-02T18:32:22-08:00*%
%TF.ProjectId,Telemetry_KiCAD_Project,54656c65-6d65-4747-9279-5f4b69434144,3*%
%TF.SameCoordinates,Original*%
%TF.FileFunction,Legend,Top*%
%TF.FilePolarity,Positive*%
%FSLAX46Y46*%
G04 Gerber Fmt 4.6, Leading zero omitted, Abs format (unit mm)*
G04 Created by KiCad (PCBNEW (6.0.10)) date 2023-01-02 18:32:22*
%MOMM*%
%LPD*%
G01*
G04 APERTURE LIST*
%ADD10C,2.000000*%
%ADD11C,0.100000*%
%ADD12C,0.150000*%
%ADD13C,0.300000*%
%ADD14C,0.450000*%
%ADD15C,0.125000*%
%ADD16C,0.254000*%
%ADD17C,0.062500*%
%ADD18C,0.120000*%
%ADD19C,0.200000*%
%ADD20C,0.127000*%
%ADD21C,0.250000*%
G04 APERTURE END LIST*
D10*
X121680000Y-96800000D02*
G75*
G03*
X121680000Y-96800000I-8500000J0D01*
G01*
D11*
G36*
X90024838Y-53006725D02*
G01*
X89865552Y-53006726D01*
X89384839Y-53026725D01*
X88614838Y-53126725D01*
X87644838Y-53406725D01*
X87024838Y-53656725D01*
X86424838Y-53976725D01*
X85724838Y-54436725D01*
X85284838Y-54806725D01*
X84704838Y-55396725D01*
X84074838Y-56236725D01*
X83634838Y-57046725D01*
X83324838Y-57826725D01*
X83104838Y-58626725D01*
X83014837Y-59226725D01*
X82974838Y-59981725D01*
X79999838Y-59981725D01*
X79999838Y-59956724D01*
X80004838Y-59956725D01*
X80044838Y-59146725D01*
X80234838Y-57866725D01*
X80624838Y-56606725D01*
X80834838Y-56016725D01*
X81494838Y-54766725D01*
X82274838Y-53646725D01*
X83114838Y-52746725D01*
X83854838Y-52116725D01*
X84644838Y-51576725D01*
X85204838Y-51226725D01*
X86034838Y-50846725D01*
X86834838Y-50536725D01*
X87884838Y-50246726D01*
X88484838Y-50146725D01*
X89254838Y-50026725D01*
X89994777Y-50006725D01*
X90024838Y-53006725D01*
G37*
X90024838Y-53006725D02*
X89865552Y-53006726D01*
X89384839Y-53026725D01*
X88614838Y-53126725D01*
X87644838Y-53406725D01*
X87024838Y-53656725D01*
X86424838Y-53976725D01*
X85724838Y-54436725D01*
X85284838Y-54806725D01*
X84704838Y-55396725D01*
X84074838Y-56236725D01*
X83634838Y-57046725D01*
X83324838Y-57826725D01*
X83104838Y-58626725D01*
X83014837Y-59226725D01*
X82974838Y-59981725D01*
X79999838Y-59981725D01*
X79999838Y-59956724D01*
X80004838Y-59956725D01*
X80044838Y-59146725D01*
X80234838Y-57866725D01*
X80624838Y-56606725D01*
X80834838Y-56016725D01*
X81494838Y-54766725D01*
X82274838Y-53646725D01*
X83114838Y-52746725D01*
X83854838Y-52116725D01*
X84644838Y-51576725D01*
X85204838Y-51226725D01*
X86034838Y-50846725D01*
X86834838Y-50536725D01*
X87884838Y-50246726D01*
X88484838Y-50146725D01*
X89254838Y-50026725D01*
X89994777Y-50006725D01*
X90024838Y-53006725D01*
G36*
X149999838Y-143590677D02*
G01*
X89974838Y-143585677D01*
X89999838Y-140620677D01*
X150109124Y-140580677D01*
X149999838Y-143590677D01*
G37*
X149999838Y-143590677D02*
X89974838Y-143585677D01*
X89999838Y-140620677D01*
X150109124Y-140580677D01*
X149999838Y-143590677D01*
G36*
X150049838Y-50011725D02*
G01*
X150859838Y-50051725D01*
X152139838Y-50241725D01*
X153399838Y-50631725D01*
X153989838Y-50841725D01*
X155239838Y-51501725D01*
X156359838Y-52281725D01*
X157259838Y-53121725D01*
X157889838Y-53861725D01*
X158429838Y-54651725D01*
X158779838Y-55211725D01*
X159159838Y-56041725D01*
X159469838Y-56841725D01*
X159759838Y-57891725D01*
X159859838Y-58491725D01*
X159979838Y-59261725D01*
X159999838Y-60001664D01*
X156999838Y-60031725D01*
X156999837Y-59872439D01*
X156979838Y-59391725D01*
X156879838Y-58621725D01*
X156599838Y-57651725D01*
X156349838Y-57031725D01*
X156029838Y-56431725D01*
X155569838Y-55731725D01*
X155199838Y-55291725D01*
X154609838Y-54711725D01*
X153769838Y-54081725D01*
X152959838Y-53641725D01*
X152179838Y-53331725D01*
X151379838Y-53111725D01*
X150779838Y-53021725D01*
X150024838Y-52981725D01*
X150024838Y-50006725D01*
X150049838Y-50006725D01*
X150049838Y-50011725D01*
G37*
X150049838Y-50011725D02*
X150859838Y-50051725D01*
X152139838Y-50241725D01*
X153399838Y-50631725D01*
X153989838Y-50841725D01*
X155239838Y-51501725D01*
X156359838Y-52281725D01*
X157259838Y-53121725D01*
X157889838Y-53861725D01*
X158429838Y-54651725D01*
X158779838Y-55211725D01*
X159159838Y-56041725D01*
X159469838Y-56841725D01*
X159759838Y-57891725D01*
X159859838Y-58491725D01*
X159979838Y-59261725D01*
X159999838Y-60001664D01*
X156999838Y-60031725D01*
X156999837Y-59872439D01*
X156979838Y-59391725D01*
X156879838Y-58621725D01*
X156599838Y-57651725D01*
X156349838Y-57031725D01*
X156029838Y-56431725D01*
X155569838Y-55731725D01*
X155199838Y-55291725D01*
X154609838Y-54711725D01*
X153769838Y-54081725D01*
X152959838Y-53641725D01*
X152179838Y-53331725D01*
X151379838Y-53111725D01*
X150779838Y-53021725D01*
X150024838Y-52981725D01*
X150024838Y-50006725D01*
X150049838Y-50006725D01*
X150049838Y-50011725D01*
G36*
X159999838Y-133530677D02*
G01*
X157019838Y-133530677D01*
X156999838Y-60031725D01*
X159999838Y-60031725D01*
X159999838Y-133530677D01*
G37*
X159999838Y-133530677D02*
X157019838Y-133530677D01*
X156999838Y-60031725D01*
X159999838Y-60031725D01*
X159999838Y-133530677D01*
G36*
X82999839Y-133719963D02*
G01*
X83019838Y-134200676D01*
X83119838Y-134970677D01*
X83399838Y-135940677D01*
X83649838Y-136560677D01*
X83969838Y-137160677D01*
X84429838Y-137860677D01*
X84799838Y-138300677D01*
X85389838Y-138880677D01*
X86229838Y-139510677D01*
X87039838Y-139950677D01*
X87819838Y-140260677D01*
X88619838Y-140480677D01*
X89219838Y-140570678D01*
X89974838Y-140610677D01*
X89974838Y-143585677D01*
X89949837Y-143585677D01*
X89949838Y-143580677D01*
X89139838Y-143540677D01*
X87859838Y-143350677D01*
X86599838Y-142960677D01*
X86009838Y-142750677D01*
X84759838Y-142090677D01*
X83639838Y-141310677D01*
X82739838Y-140470677D01*
X82109838Y-139730677D01*
X81569838Y-138940677D01*
X81219838Y-138380677D01*
X80839838Y-137550677D01*
X80529838Y-136750677D01*
X80239839Y-135700677D01*
X80139838Y-135100677D01*
X80019838Y-134330677D01*
X79999838Y-133590738D01*
X82999838Y-133560677D01*
X82999839Y-133719963D01*
G37*
X82999839Y-133719963D02*
X83019838Y-134200676D01*
X83119838Y-134970677D01*
X83399838Y-135940677D01*
X83649838Y-136560677D01*
X83969838Y-137160677D01*
X84429838Y-137860677D01*
X84799838Y-138300677D01*
X85389838Y-138880677D01*
X86229838Y-139510677D01*
X87039838Y-139950677D01*
X87819838Y-140260677D01*
X88619838Y-140480677D01*
X89219838Y-140570678D01*
X89974838Y-140610677D01*
X89974838Y-143585677D01*
X89949837Y-143585677D01*
X89949838Y-143580677D01*
X89139838Y-143540677D01*
X87859838Y-143350677D01*
X86599838Y-142960677D01*
X86009838Y-142750677D01*
X84759838Y-142090677D01*
X83639838Y-141310677D01*
X82739838Y-140470677D01*
X82109838Y-139730677D01*
X81569838Y-138940677D01*
X81219838Y-138380677D01*
X80839838Y-137550677D01*
X80529838Y-136750677D01*
X80239839Y-135700677D01*
X80139838Y-135100677D01*
X80019838Y-134330677D01*
X79999838Y-133590738D01*
X82999838Y-133560677D01*
X82999839Y-133719963D01*
G36*
X159999838Y-133600677D02*
G01*
X159969838Y-134260677D01*
X159899838Y-134960677D01*
X159759838Y-135740677D01*
X159569838Y-136500677D01*
X159299838Y-137250677D01*
X159009838Y-137910677D01*
X158679838Y-138530677D01*
X158249838Y-139250677D01*
X157749838Y-139900677D01*
X157369838Y-140330677D01*
X156879838Y-140840677D01*
X156479838Y-141210677D01*
X156039838Y-141550677D01*
X155589838Y-141880677D01*
X154919838Y-142290677D01*
X154359838Y-142580677D01*
X153859838Y-142820677D01*
X153219838Y-143050677D01*
X152499838Y-143270677D01*
X151999838Y-143390677D01*
X151619838Y-143450677D01*
X151189838Y-143510677D01*
X150669838Y-143550677D01*
X150109838Y-143580677D01*
X149979838Y-143580677D01*
X150089838Y-140590677D01*
X150119838Y-140590677D01*
X151099838Y-140490677D01*
X151959838Y-140310677D01*
X152769838Y-140010677D01*
X153319838Y-139730677D01*
X153899838Y-139400677D01*
X154469838Y-138990677D01*
X155039838Y-138470677D01*
X155639838Y-137760677D01*
X155969838Y-137240677D01*
X156359838Y-136520677D01*
X156539838Y-136100677D01*
X156749838Y-135460677D01*
X156919838Y-134710677D01*
X156989838Y-134250677D01*
X157019838Y-133530677D01*
X159999838Y-133530677D01*
X159999838Y-133600677D01*
G37*
X159999838Y-133600677D02*
X159969838Y-134260677D01*
X159899838Y-134960677D01*
X159759838Y-135740677D01*
X159569838Y-136500677D01*
X159299838Y-137250677D01*
X159009838Y-137910677D01*
X158679838Y-138530677D01*
X158249838Y-139250677D01*
X157749838Y-139900677D01*
X157369838Y-140330677D01*
X156879838Y-140840677D01*
X156479838Y-141210677D01*
X156039838Y-141550677D01*
X155589838Y-141880677D01*
X154919838Y-142290677D01*
X154359838Y-142580677D01*
X153859838Y-142820677D01*
X153219838Y-143050677D01*
X152499838Y-143270677D01*
X151999838Y-143390677D01*
X151619838Y-143450677D01*
X151189838Y-143510677D01*
X150669838Y-143550677D01*
X150109838Y-143580677D01*
X149979838Y-143580677D01*
X150089838Y-140590677D01*
X150119838Y-140590677D01*
X151099838Y-140490677D01*
X151959838Y-140310677D01*
X152769838Y-140010677D01*
X153319838Y-139730677D01*
X153899838Y-139400677D01*
X154469838Y-138990677D01*
X155039838Y-138470677D01*
X155639838Y-137760677D01*
X155969838Y-137240677D01*
X156359838Y-136520677D01*
X156539838Y-136100677D01*
X156749838Y-135460677D01*
X156919838Y-134710677D01*
X156989838Y-134250677D01*
X157019838Y-133530677D01*
X159999838Y-133530677D01*
X159999838Y-133600677D01*
G36*
X150024838Y-52981725D02*
G01*
X89779838Y-53021725D01*
X89994777Y-50006725D01*
X150024838Y-50006725D01*
X150024838Y-52981725D01*
G37*
X150024838Y-52981725D02*
X89779838Y-53021725D01*
X89994777Y-50006725D01*
X150024838Y-50006725D01*
X150024838Y-52981725D01*
D12*
X140569644Y-117906599D02*
X138953400Y-116290355D01*
X139761522Y-116290355D02*
X138953400Y-116290355D01*
X138953400Y-117098477D01*
D13*
X152545714Y-114541071D02*
X152831428Y-114541071D01*
X152974285Y-114469642D01*
X153045714Y-114398214D01*
X153188571Y-114183928D01*
X153260000Y-113898214D01*
X153260000Y-113326785D01*
X153188571Y-113183928D01*
X153117142Y-113112500D01*
X152974285Y-113041071D01*
X152688571Y-113041071D01*
X152545714Y-113112500D01*
X152474285Y-113183928D01*
X152402857Y-113326785D01*
X152402857Y-113683928D01*
X152474285Y-113826785D01*
X152545714Y-113898214D01*
X152688571Y-113969642D01*
X152974285Y-113969642D01*
X153117142Y-113898214D01*
X153188571Y-113826785D01*
X153260000Y-113683928D01*
X154188571Y-113041071D02*
X154331428Y-113041071D01*
X154474285Y-113112500D01*
X154545714Y-113183928D01*
X154617142Y-113326785D01*
X154688571Y-113612500D01*
X154688571Y-113969642D01*
X154617142Y-114255357D01*
X154545714Y-114398214D01*
X154474285Y-114469642D01*
X154331428Y-114541071D01*
X154188571Y-114541071D01*
X154045714Y-114469642D01*
X153974285Y-114398214D01*
X153902857Y-114255357D01*
X153831428Y-113969642D01*
X153831428Y-113612500D01*
X153902857Y-113326785D01*
X153974285Y-113183928D01*
X154045714Y-113112500D01*
X154188571Y-113041071D01*
X156045714Y-113041071D02*
X155331428Y-113041071D01*
X155260000Y-113755357D01*
X155331428Y-113683928D01*
X155474285Y-113612500D01*
X155831428Y-113612500D01*
X155974285Y-113683928D01*
X156045714Y-113755357D01*
X156117142Y-113898214D01*
X156117142Y-114255357D01*
X156045714Y-114398214D01*
X155974285Y-114469642D01*
X155831428Y-114541071D01*
X155474285Y-114541071D01*
X155331428Y-114469642D01*
X155260000Y-114398214D01*
X152367142Y-116956071D02*
X152367142Y-115456071D01*
X152867142Y-116527500D01*
X153367142Y-115456071D01*
X153367142Y-116956071D01*
X154081428Y-116956071D02*
X154081428Y-115456071D01*
X154081428Y-116170357D02*
X154938571Y-116170357D01*
X154938571Y-116956071D02*
X154938571Y-115456071D01*
X155510000Y-115956071D02*
X156295714Y-115956071D01*
X155510000Y-116956071D01*
X156295714Y-116956071D01*
D14*
X138956666Y-115174761D02*
X138290000Y-114222380D01*
X137813809Y-115174761D02*
X137813809Y-113174761D01*
X138575714Y-113174761D01*
X138766190Y-113270000D01*
X138861428Y-113365238D01*
X138956666Y-113555714D01*
X138956666Y-113841428D01*
X138861428Y-114031904D01*
X138766190Y-114127142D01*
X138575714Y-114222380D01*
X137813809Y-114222380D01*
X139623333Y-113174761D02*
X140956666Y-115174761D01*
X140956666Y-113174761D02*
X139623333Y-115174761D01*
D15*
X148195714Y-84772380D02*
X148267142Y-84796190D01*
X148386190Y-84796190D01*
X148433809Y-84772380D01*
X148457619Y-84748571D01*
X148481428Y-84700952D01*
X148481428Y-84653333D01*
X148457619Y-84605714D01*
X148433809Y-84581904D01*
X148386190Y-84558095D01*
X148290952Y-84534285D01*
X148243333Y-84510476D01*
X148219523Y-84486666D01*
X148195714Y-84439047D01*
X148195714Y-84391428D01*
X148219523Y-84343809D01*
X148243333Y-84320000D01*
X148290952Y-84296190D01*
X148410000Y-84296190D01*
X148481428Y-84320000D01*
X148695714Y-84796190D02*
X148695714Y-84462857D01*
X148695714Y-84296190D02*
X148671904Y-84320000D01*
X148695714Y-84343809D01*
X148719523Y-84320000D01*
X148695714Y-84296190D01*
X148695714Y-84343809D01*
X149148095Y-84462857D02*
X149148095Y-84796190D01*
X149029047Y-84272380D02*
X148910000Y-84629523D01*
X149219523Y-84629523D01*
X149624285Y-84462857D02*
X149624285Y-84796190D01*
X149505238Y-84272380D02*
X149386190Y-84629523D01*
X149695714Y-84629523D01*
X150100476Y-84296190D02*
X150005238Y-84296190D01*
X149957619Y-84320000D01*
X149933809Y-84343809D01*
X149886190Y-84415238D01*
X149862380Y-84510476D01*
X149862380Y-84700952D01*
X149886190Y-84748571D01*
X149910000Y-84772380D01*
X149957619Y-84796190D01*
X150052857Y-84796190D01*
X150100476Y-84772380D01*
X150124285Y-84748571D01*
X150148095Y-84700952D01*
X150148095Y-84581904D01*
X150124285Y-84534285D01*
X150100476Y-84510476D01*
X150052857Y-84486666D01*
X149957619Y-84486666D01*
X149910000Y-84510476D01*
X149886190Y-84534285D01*
X149862380Y-84581904D01*
X150314761Y-84296190D02*
X150624285Y-84296190D01*
X150457619Y-84486666D01*
X150529047Y-84486666D01*
X150576666Y-84510476D01*
X150600476Y-84534285D01*
X150624285Y-84581904D01*
X150624285Y-84700952D01*
X150600476Y-84748571D01*
X150576666Y-84772380D01*
X150529047Y-84796190D01*
X150386190Y-84796190D01*
X150338571Y-84772380D01*
X150314761Y-84748571D01*
D13*
X136725714Y-134631071D02*
X137582857Y-134631071D01*
X137154285Y-136131071D02*
X137154285Y-134631071D01*
X138654285Y-136059642D02*
X138511428Y-136131071D01*
X138225714Y-136131071D01*
X138082857Y-136059642D01*
X138011428Y-135916785D01*
X138011428Y-135345357D01*
X138082857Y-135202500D01*
X138225714Y-135131071D01*
X138511428Y-135131071D01*
X138654285Y-135202500D01*
X138725714Y-135345357D01*
X138725714Y-135488214D01*
X138011428Y-135631071D01*
X139582857Y-136131071D02*
X139440000Y-136059642D01*
X139368571Y-135916785D01*
X139368571Y-134631071D01*
X140725714Y-136059642D02*
X140582857Y-136131071D01*
X140297142Y-136131071D01*
X140154285Y-136059642D01*
X140082857Y-135916785D01*
X140082857Y-135345357D01*
X140154285Y-135202500D01*
X140297142Y-135131071D01*
X140582857Y-135131071D01*
X140725714Y-135202500D01*
X140797142Y-135345357D01*
X140797142Y-135488214D01*
X140082857Y-135631071D01*
X141440000Y-136131071D02*
X141440000Y-135131071D01*
X141440000Y-135273928D02*
X141511428Y-135202500D01*
X141654285Y-135131071D01*
X141868571Y-135131071D01*
X142011428Y-135202500D01*
X142082857Y-135345357D01*
X142082857Y-136131071D01*
X142082857Y-135345357D02*
X142154285Y-135202500D01*
X142297142Y-135131071D01*
X142511428Y-135131071D01*
X142654285Y-135202500D01*
X142725714Y-135345357D01*
X142725714Y-136131071D01*
X144011428Y-136059642D02*
X143868571Y-136131071D01*
X143582857Y-136131071D01*
X143440000Y-136059642D01*
X143368571Y-135916785D01*
X143368571Y-135345357D01*
X143440000Y-135202500D01*
X143582857Y-135131071D01*
X143868571Y-135131071D01*
X144011428Y-135202500D01*
X144082857Y-135345357D01*
X144082857Y-135488214D01*
X143368571Y-135631071D01*
X144511428Y-135131071D02*
X145082857Y-135131071D01*
X144725714Y-134631071D02*
X144725714Y-135916785D01*
X144797142Y-136059642D01*
X144940000Y-136131071D01*
X145082857Y-136131071D01*
X145582857Y-136131071D02*
X145582857Y-135131071D01*
X145582857Y-135416785D02*
X145654285Y-135273928D01*
X145725714Y-135202500D01*
X145868571Y-135131071D01*
X146011428Y-135131071D01*
X146368571Y-135131071D02*
X146725714Y-136131071D01*
X147082857Y-135131071D02*
X146725714Y-136131071D01*
X146582857Y-136488214D01*
X146511428Y-136559642D01*
X146368571Y-136631071D01*
X137797142Y-138117500D02*
X138511428Y-138117500D01*
X137654285Y-138546071D02*
X138154285Y-137046071D01*
X138654285Y-138546071D01*
X139154285Y-137546071D02*
X139154285Y-138546071D01*
X139154285Y-137688928D02*
X139225714Y-137617500D01*
X139368571Y-137546071D01*
X139582857Y-137546071D01*
X139725714Y-137617500D01*
X139797142Y-137760357D01*
X139797142Y-138546071D01*
X140297142Y-137546071D02*
X140868571Y-137546071D01*
X140511428Y-137046071D02*
X140511428Y-138331785D01*
X140582857Y-138474642D01*
X140725714Y-138546071D01*
X140868571Y-138546071D01*
X141940000Y-138474642D02*
X141797142Y-138546071D01*
X141511428Y-138546071D01*
X141368571Y-138474642D01*
X141297142Y-138331785D01*
X141297142Y-137760357D01*
X141368571Y-137617500D01*
X141511428Y-137546071D01*
X141797142Y-137546071D01*
X141940000Y-137617500D01*
X142011428Y-137760357D01*
X142011428Y-137903214D01*
X141297142Y-138046071D01*
X142654285Y-137546071D02*
X142654285Y-138546071D01*
X142654285Y-137688928D02*
X142725714Y-137617500D01*
X142868571Y-137546071D01*
X143082857Y-137546071D01*
X143225714Y-137617500D01*
X143297142Y-137760357D01*
X143297142Y-138546071D01*
X144011428Y-137546071D02*
X144011428Y-138546071D01*
X144011428Y-137688928D02*
X144082857Y-137617500D01*
X144225714Y-137546071D01*
X144440000Y-137546071D01*
X144582857Y-137617500D01*
X144654285Y-137760357D01*
X144654285Y-138546071D01*
X146011428Y-138546071D02*
X146011428Y-137760357D01*
X145940000Y-137617500D01*
X145797142Y-137546071D01*
X145511428Y-137546071D01*
X145368571Y-137617500D01*
X146011428Y-138474642D02*
X145868571Y-138546071D01*
X145511428Y-138546071D01*
X145368571Y-138474642D01*
X145297142Y-138331785D01*
X145297142Y-138188928D01*
X145368571Y-138046071D01*
X145511428Y-137974642D01*
X145868571Y-137974642D01*
X146011428Y-137903214D01*
X126645714Y-136021071D02*
X126931428Y-136021071D01*
X127074285Y-135949642D01*
X127145714Y-135878214D01*
X127288571Y-135663928D01*
X127360000Y-135378214D01*
X127360000Y-134806785D01*
X127288571Y-134663928D01*
X127217142Y-134592500D01*
X127074285Y-134521071D01*
X126788571Y-134521071D01*
X126645714Y-134592500D01*
X126574285Y-134663928D01*
X126502857Y-134806785D01*
X126502857Y-135163928D01*
X126574285Y-135306785D01*
X126645714Y-135378214D01*
X126788571Y-135449642D01*
X127074285Y-135449642D01*
X127217142Y-135378214D01*
X127288571Y-135306785D01*
X127360000Y-135163928D01*
X128288571Y-134521071D02*
X128431428Y-134521071D01*
X128574285Y-134592500D01*
X128645714Y-134663928D01*
X128717142Y-134806785D01*
X128788571Y-135092500D01*
X128788571Y-135449642D01*
X128717142Y-135735357D01*
X128645714Y-135878214D01*
X128574285Y-135949642D01*
X128431428Y-136021071D01*
X128288571Y-136021071D01*
X128145714Y-135949642D01*
X128074285Y-135878214D01*
X128002857Y-135735357D01*
X127931428Y-135449642D01*
X127931428Y-135092500D01*
X128002857Y-134806785D01*
X128074285Y-134663928D01*
X128145714Y-134592500D01*
X128288571Y-134521071D01*
X129717142Y-134521071D02*
X129860000Y-134521071D01*
X130002857Y-134592500D01*
X130074285Y-134663928D01*
X130145714Y-134806785D01*
X130217142Y-135092500D01*
X130217142Y-135449642D01*
X130145714Y-135735357D01*
X130074285Y-135878214D01*
X130002857Y-135949642D01*
X129860000Y-136021071D01*
X129717142Y-136021071D01*
X129574285Y-135949642D01*
X129502857Y-135878214D01*
X129431428Y-135735357D01*
X129360000Y-135449642D01*
X129360000Y-135092500D01*
X129431428Y-134806785D01*
X129502857Y-134663928D01*
X129574285Y-134592500D01*
X129717142Y-134521071D01*
X130860000Y-136021071D02*
X130860000Y-134521071D01*
X131360000Y-135592500D01*
X131860000Y-134521071D01*
X131860000Y-136021071D01*
X132574285Y-136021071D02*
X132574285Y-134521071D01*
X132574285Y-135235357D02*
X133431428Y-135235357D01*
X133431428Y-136021071D02*
X133431428Y-134521071D01*
X134002857Y-135021071D02*
X134788571Y-135021071D01*
X134002857Y-136021071D01*
X134788571Y-136021071D01*
X129395714Y-136936071D02*
X128681428Y-136936071D01*
X128610000Y-137650357D01*
X128681428Y-137578928D01*
X128824285Y-137507500D01*
X129181428Y-137507500D01*
X129324285Y-137578928D01*
X129395714Y-137650357D01*
X129467142Y-137793214D01*
X129467142Y-138150357D01*
X129395714Y-138293214D01*
X129324285Y-138364642D01*
X129181428Y-138436071D01*
X128824285Y-138436071D01*
X128681428Y-138364642D01*
X128610000Y-138293214D01*
X130395714Y-136936071D02*
X130538571Y-136936071D01*
X130681428Y-137007500D01*
X130752857Y-137078928D01*
X130824285Y-137221785D01*
X130895714Y-137507500D01*
X130895714Y-137864642D01*
X130824285Y-138150357D01*
X130752857Y-138293214D01*
X130681428Y-138364642D01*
X130538571Y-138436071D01*
X130395714Y-138436071D01*
X130252857Y-138364642D01*
X130181428Y-138293214D01*
X130110000Y-138150357D01*
X130038571Y-137864642D01*
X130038571Y-137507500D01*
X130110000Y-137221785D01*
X130181428Y-137078928D01*
X130252857Y-137007500D01*
X130395714Y-136936071D01*
X131467142Y-138436071D02*
X131824285Y-138436071D01*
X131824285Y-138150357D01*
X131681428Y-138078928D01*
X131538571Y-137936071D01*
X131467142Y-137721785D01*
X131467142Y-137364642D01*
X131538571Y-137150357D01*
X131681428Y-137007500D01*
X131895714Y-136936071D01*
X132181428Y-136936071D01*
X132395714Y-137007500D01*
X132538571Y-137150357D01*
X132610000Y-137364642D01*
X132610000Y-137721785D01*
X132538571Y-137936071D01*
X132395714Y-138078928D01*
X132252857Y-138150357D01*
X132252857Y-138436071D01*
X132610000Y-138436071D01*
D15*
X132925714Y-84742380D02*
X132997142Y-84766190D01*
X133116190Y-84766190D01*
X133163809Y-84742380D01*
X133187619Y-84718571D01*
X133211428Y-84670952D01*
X133211428Y-84623333D01*
X133187619Y-84575714D01*
X133163809Y-84551904D01*
X133116190Y-84528095D01*
X133020952Y-84504285D01*
X132973333Y-84480476D01*
X132949523Y-84456666D01*
X132925714Y-84409047D01*
X132925714Y-84361428D01*
X132949523Y-84313809D01*
X132973333Y-84290000D01*
X133020952Y-84266190D01*
X133140000Y-84266190D01*
X133211428Y-84290000D01*
X133425714Y-84766190D02*
X133425714Y-84432857D01*
X133425714Y-84266190D02*
X133401904Y-84290000D01*
X133425714Y-84313809D01*
X133449523Y-84290000D01*
X133425714Y-84266190D01*
X133425714Y-84313809D01*
X133878095Y-84432857D02*
X133878095Y-84766190D01*
X133759047Y-84242380D02*
X133640000Y-84599523D01*
X133949523Y-84599523D01*
X134354285Y-84432857D02*
X134354285Y-84766190D01*
X134235238Y-84242380D02*
X134116190Y-84599523D01*
X134425714Y-84599523D01*
X134830476Y-84266190D02*
X134735238Y-84266190D01*
X134687619Y-84290000D01*
X134663809Y-84313809D01*
X134616190Y-84385238D01*
X134592380Y-84480476D01*
X134592380Y-84670952D01*
X134616190Y-84718571D01*
X134640000Y-84742380D01*
X134687619Y-84766190D01*
X134782857Y-84766190D01*
X134830476Y-84742380D01*
X134854285Y-84718571D01*
X134878095Y-84670952D01*
X134878095Y-84551904D01*
X134854285Y-84504285D01*
X134830476Y-84480476D01*
X134782857Y-84456666D01*
X134687619Y-84456666D01*
X134640000Y-84480476D01*
X134616190Y-84504285D01*
X134592380Y-84551904D01*
X135044761Y-84266190D02*
X135354285Y-84266190D01*
X135187619Y-84456666D01*
X135259047Y-84456666D01*
X135306666Y-84480476D01*
X135330476Y-84504285D01*
X135354285Y-84551904D01*
X135354285Y-84670952D01*
X135330476Y-84718571D01*
X135306666Y-84742380D01*
X135259047Y-84766190D01*
X135116190Y-84766190D01*
X135068571Y-84742380D01*
X135044761Y-84718571D01*
D12*
X144836599Y-116300355D02*
X143220355Y-117916599D01*
X143220355Y-117108477D02*
X143220355Y-117916599D01*
X144028477Y-117916599D01*
D14*
X143166190Y-113174761D02*
X144309047Y-113174761D01*
X143737619Y-115174761D02*
X143737619Y-113174761D01*
X144785238Y-113174761D02*
X146118571Y-115174761D01*
X146118571Y-113174761D02*
X144785238Y-115174761D01*
D15*
X127564285Y-58178571D02*
X127588095Y-58107142D01*
X127611904Y-58083333D01*
X127659523Y-58059523D01*
X127730952Y-58059523D01*
X127778571Y-58083333D01*
X127802380Y-58107142D01*
X127826190Y-58154761D01*
X127826190Y-58345238D01*
X127326190Y-58345238D01*
X127326190Y-58178571D01*
X127350000Y-58130952D01*
X127373809Y-58107142D01*
X127421428Y-58083333D01*
X127469047Y-58083333D01*
X127516666Y-58107142D01*
X127540476Y-58130952D01*
X127564285Y-58178571D01*
X127564285Y-58345238D01*
X127326190Y-57750000D02*
X127326190Y-57654761D01*
X127350000Y-57607142D01*
X127397619Y-57559523D01*
X127492857Y-57535714D01*
X127659523Y-57535714D01*
X127754761Y-57559523D01*
X127802380Y-57607142D01*
X127826190Y-57654761D01*
X127826190Y-57750000D01*
X127802380Y-57797619D01*
X127754761Y-57845238D01*
X127659523Y-57869047D01*
X127492857Y-57869047D01*
X127397619Y-57845238D01*
X127350000Y-57797619D01*
X127326190Y-57750000D01*
X127326190Y-57226190D02*
X127326190Y-57130952D01*
X127350000Y-57083333D01*
X127397619Y-57035714D01*
X127492857Y-57011904D01*
X127659523Y-57011904D01*
X127754761Y-57035714D01*
X127802380Y-57083333D01*
X127826190Y-57130952D01*
X127826190Y-57226190D01*
X127802380Y-57273809D01*
X127754761Y-57321428D01*
X127659523Y-57345238D01*
X127492857Y-57345238D01*
X127397619Y-57321428D01*
X127350000Y-57273809D01*
X127326190Y-57226190D01*
X127326190Y-56869047D02*
X127326190Y-56583333D01*
X127826190Y-56726190D02*
X127326190Y-56726190D01*
D13*
X128175714Y-114961071D02*
X128461428Y-114961071D01*
X128604285Y-114889642D01*
X128675714Y-114818214D01*
X128818571Y-114603928D01*
X128890000Y-114318214D01*
X128890000Y-113746785D01*
X128818571Y-113603928D01*
X128747142Y-113532500D01*
X128604285Y-113461071D01*
X128318571Y-113461071D01*
X128175714Y-113532500D01*
X128104285Y-113603928D01*
X128032857Y-113746785D01*
X128032857Y-114103928D01*
X128104285Y-114246785D01*
X128175714Y-114318214D01*
X128318571Y-114389642D01*
X128604285Y-114389642D01*
X128747142Y-114318214D01*
X128818571Y-114246785D01*
X128890000Y-114103928D01*
X129461428Y-113603928D02*
X129532857Y-113532500D01*
X129675714Y-113461071D01*
X130032857Y-113461071D01*
X130175714Y-113532500D01*
X130247142Y-113603928D01*
X130318571Y-113746785D01*
X130318571Y-113889642D01*
X130247142Y-114103928D01*
X129390000Y-114961071D01*
X130318571Y-114961071D01*
X131604285Y-113461071D02*
X131318571Y-113461071D01*
X131175714Y-113532500D01*
X131104285Y-113603928D01*
X130961428Y-113818214D01*
X130890000Y-114103928D01*
X130890000Y-114675357D01*
X130961428Y-114818214D01*
X131032857Y-114889642D01*
X131175714Y-114961071D01*
X131461428Y-114961071D01*
X131604285Y-114889642D01*
X131675714Y-114818214D01*
X131747142Y-114675357D01*
X131747142Y-114318214D01*
X131675714Y-114175357D01*
X131604285Y-114103928D01*
X131461428Y-114032500D01*
X131175714Y-114032500D01*
X131032857Y-114103928D01*
X130961428Y-114175357D01*
X130890000Y-114318214D01*
X127997142Y-117376071D02*
X127997142Y-115876071D01*
X128497142Y-116947500D01*
X128997142Y-115876071D01*
X128997142Y-117376071D01*
X129711428Y-117376071D02*
X129711428Y-115876071D01*
X129711428Y-116590357D02*
X130568571Y-116590357D01*
X130568571Y-117376071D02*
X130568571Y-115876071D01*
X131140000Y-116376071D02*
X131925714Y-116376071D01*
X131140000Y-117376071D01*
X131925714Y-117376071D01*
D12*
X144095535Y-109394285D02*
X144095535Y-109822857D01*
X144095535Y-109608571D02*
X143345535Y-109608571D01*
X143452678Y-109680000D01*
X143524107Y-109751428D01*
X143559821Y-109822857D01*
X143345535Y-109144285D02*
X144095535Y-108965714D01*
X143559821Y-108822857D01*
X144095535Y-108680000D01*
X143345535Y-108501428D01*
X145088750Y-111519285D02*
X145088750Y-111162142D01*
X145303035Y-111590714D02*
X144553035Y-111340714D01*
X145303035Y-111090714D01*
X145303035Y-110840714D02*
X144803035Y-110840714D01*
X144874464Y-110840714D02*
X144838750Y-110805000D01*
X144803035Y-110733571D01*
X144803035Y-110626428D01*
X144838750Y-110555000D01*
X144910178Y-110519285D01*
X145303035Y-110519285D01*
X144910178Y-110519285D02*
X144838750Y-110483571D01*
X144803035Y-110412142D01*
X144803035Y-110305000D01*
X144838750Y-110233571D01*
X144910178Y-110197857D01*
X145303035Y-110197857D01*
X144803035Y-109840714D02*
X145553035Y-109840714D01*
X144838750Y-109840714D02*
X144803035Y-109769285D01*
X144803035Y-109626428D01*
X144838750Y-109555000D01*
X144874464Y-109519285D01*
X144945892Y-109483571D01*
X145160178Y-109483571D01*
X145231607Y-109519285D01*
X145267321Y-109555000D01*
X145303035Y-109626428D01*
X145303035Y-109769285D01*
X145267321Y-109840714D01*
X145303035Y-109055000D02*
X145267321Y-109126428D01*
X145195892Y-109162142D01*
X144553035Y-109162142D01*
X145303035Y-108769285D02*
X144803035Y-108769285D01*
X144553035Y-108769285D02*
X144588750Y-108805000D01*
X144624464Y-108769285D01*
X144588750Y-108733571D01*
X144553035Y-108769285D01*
X144624464Y-108769285D01*
X144803035Y-108519285D02*
X144803035Y-108233571D01*
X145303035Y-108412142D02*
X144660178Y-108412142D01*
X144588750Y-108376428D01*
X144553035Y-108305000D01*
X144553035Y-108233571D01*
X145303035Y-107983571D02*
X144803035Y-107983571D01*
X144553035Y-107983571D02*
X144588750Y-108019285D01*
X144624464Y-107983571D01*
X144588750Y-107947857D01*
X144553035Y-107983571D01*
X144624464Y-107983571D01*
X145267321Y-107340714D02*
X145303035Y-107412142D01*
X145303035Y-107555000D01*
X145267321Y-107626428D01*
X145195892Y-107662142D01*
X144910178Y-107662142D01*
X144838750Y-107626428D01*
X144803035Y-107555000D01*
X144803035Y-107412142D01*
X144838750Y-107340714D01*
X144910178Y-107305000D01*
X144981607Y-107305000D01*
X145053035Y-107662142D01*
X145303035Y-106983571D02*
X144803035Y-106983571D01*
X144945892Y-106983571D02*
X144874464Y-106947857D01*
X144838750Y-106912142D01*
X144803035Y-106840714D01*
X144803035Y-106769285D01*
D15*
X124826190Y-58119047D02*
X124826190Y-57809523D01*
X125016666Y-57976190D01*
X125016666Y-57904761D01*
X125040476Y-57857142D01*
X125064285Y-57833333D01*
X125111904Y-57809523D01*
X125230952Y-57809523D01*
X125278571Y-57833333D01*
X125302380Y-57857142D01*
X125326190Y-57904761D01*
X125326190Y-58047619D01*
X125302380Y-58095238D01*
X125278571Y-58119047D01*
X124826190Y-57666666D02*
X125326190Y-57500000D01*
X124826190Y-57333333D01*
X124826190Y-57214285D02*
X124826190Y-56904761D01*
X125016666Y-57071428D01*
X125016666Y-57000000D01*
X125040476Y-56952380D01*
X125064285Y-56928571D01*
X125111904Y-56904761D01*
X125230952Y-56904761D01*
X125278571Y-56928571D01*
X125302380Y-56952380D01*
X125326190Y-57000000D01*
X125326190Y-57142857D01*
X125302380Y-57190476D01*
X125278571Y-57214285D01*
D12*
X146500000Y-124402380D02*
X146500000Y-123402380D01*
X146738095Y-123402380D01*
X146880952Y-123450000D01*
X146976190Y-123545238D01*
X147023809Y-123640476D01*
X147071428Y-123830952D01*
X147071428Y-123973809D01*
X147023809Y-124164285D01*
X146976190Y-124259523D01*
X146880952Y-124354761D01*
X146738095Y-124402380D01*
X146500000Y-124402380D01*
X147928571Y-123735714D02*
X147928571Y-124402380D01*
X147500000Y-123735714D02*
X147500000Y-124259523D01*
X147547619Y-124354761D01*
X147642857Y-124402380D01*
X147785714Y-124402380D01*
X147880952Y-124354761D01*
X147928571Y-124307142D01*
X148404761Y-123735714D02*
X148404761Y-124735714D01*
X148404761Y-123783333D02*
X148500000Y-123735714D01*
X148690476Y-123735714D01*
X148785714Y-123783333D01*
X148833333Y-123830952D01*
X148880952Y-123926190D01*
X148880952Y-124211904D01*
X148833333Y-124307142D01*
X148785714Y-124354761D01*
X148690476Y-124402380D01*
X148500000Y-124402380D01*
X148404761Y-124354761D01*
X149452380Y-124402380D02*
X149357142Y-124354761D01*
X149309523Y-124259523D01*
X149309523Y-123402380D01*
X150214285Y-124354761D02*
X150119047Y-124402380D01*
X149928571Y-124402380D01*
X149833333Y-124354761D01*
X149785714Y-124259523D01*
X149785714Y-123878571D01*
X149833333Y-123783333D01*
X149928571Y-123735714D01*
X150119047Y-123735714D01*
X150214285Y-123783333D01*
X150261904Y-123878571D01*
X150261904Y-123973809D01*
X149785714Y-124069047D01*
X150595238Y-124402380D02*
X151119047Y-123735714D01*
X150595238Y-123735714D02*
X151119047Y-124402380D01*
X151880952Y-124354761D02*
X151785714Y-124402380D01*
X151595238Y-124402380D01*
X151500000Y-124354761D01*
X151452380Y-124259523D01*
X151452380Y-123878571D01*
X151500000Y-123783333D01*
X151595238Y-123735714D01*
X151785714Y-123735714D01*
X151880952Y-123783333D01*
X151928571Y-123878571D01*
X151928571Y-123973809D01*
X151452380Y-124069047D01*
X152357142Y-124402380D02*
X152357142Y-123735714D01*
X152357142Y-123926190D02*
X152404761Y-123830952D01*
X152452380Y-123783333D01*
X152547619Y-123735714D01*
X152642857Y-123735714D01*
%TO.C,C25*%
X95357142Y-54357142D02*
X95309523Y-54404761D01*
X95166666Y-54452380D01*
X95071428Y-54452380D01*
X94928571Y-54404761D01*
X94833333Y-54309523D01*
X94785714Y-54214285D01*
X94738095Y-54023809D01*
X94738095Y-53880952D01*
X94785714Y-53690476D01*
X94833333Y-53595238D01*
X94928571Y-53500000D01*
X95071428Y-53452380D01*
X95166666Y-53452380D01*
X95309523Y-53500000D01*
X95357142Y-53547619D01*
X95738095Y-53547619D02*
X95785714Y-53500000D01*
X95880952Y-53452380D01*
X96119047Y-53452380D01*
X96214285Y-53500000D01*
X96261904Y-53547619D01*
X96309523Y-53642857D01*
X96309523Y-53738095D01*
X96261904Y-53880952D01*
X95690476Y-54452380D01*
X96309523Y-54452380D01*
X97214285Y-53452380D02*
X96738095Y-53452380D01*
X96690476Y-53928571D01*
X96738095Y-53880952D01*
X96833333Y-53833333D01*
X97071428Y-53833333D01*
X97166666Y-53880952D01*
X97214285Y-53928571D01*
X97261904Y-54023809D01*
X97261904Y-54261904D01*
X97214285Y-54357142D01*
X97166666Y-54404761D01*
X97071428Y-54452380D01*
X96833333Y-54452380D01*
X96738095Y-54404761D01*
X96690476Y-54357142D01*
D15*
%TO.C,C27*%
X108953572Y-85613572D02*
X108929762Y-85637381D01*
X108858334Y-85661191D01*
X108810715Y-85661191D01*
X108739286Y-85637381D01*
X108691667Y-85589762D01*
X108667858Y-85542143D01*
X108644048Y-85446905D01*
X108644048Y-85375477D01*
X108667858Y-85280239D01*
X108691667Y-85232620D01*
X108739286Y-85185001D01*
X108810715Y-85161191D01*
X108858334Y-85161191D01*
X108929762Y-85185001D01*
X108953572Y-85208810D01*
X109144048Y-85208810D02*
X109167858Y-85185001D01*
X109215477Y-85161191D01*
X109334524Y-85161191D01*
X109382143Y-85185001D01*
X109405953Y-85208810D01*
X109429762Y-85256429D01*
X109429762Y-85304048D01*
X109405953Y-85375477D01*
X109120239Y-85661191D01*
X109429762Y-85661191D01*
X109596429Y-85161191D02*
X109929762Y-85161191D01*
X109715477Y-85661191D01*
D12*
%TO.C,C28*%
X130488090Y-75916986D02*
X130488090Y-75984330D01*
X130420746Y-76119017D01*
X130353403Y-76186360D01*
X130218716Y-76253704D01*
X130084029Y-76253704D01*
X129983014Y-76220032D01*
X129814655Y-76119017D01*
X129713640Y-76018002D01*
X129612624Y-75849643D01*
X129578953Y-75748628D01*
X129578953Y-75613941D01*
X129646296Y-75479254D01*
X129713640Y-75411910D01*
X129848327Y-75344567D01*
X129915670Y-75344567D01*
X130185044Y-75075192D02*
X130185044Y-75007849D01*
X130218716Y-74906834D01*
X130387075Y-74738475D01*
X130488090Y-74704803D01*
X130555433Y-74704803D01*
X130656449Y-74738475D01*
X130723792Y-74805818D01*
X130791136Y-74940505D01*
X130791136Y-75748628D01*
X131228869Y-75310895D01*
X131228869Y-74502773D02*
X131127853Y-74536444D01*
X131060510Y-74536444D01*
X130959495Y-74502773D01*
X130925823Y-74469101D01*
X130892151Y-74368086D01*
X130892151Y-74300742D01*
X130925823Y-74199727D01*
X131060510Y-74065040D01*
X131161525Y-74031368D01*
X131228869Y-74031368D01*
X131329884Y-74065040D01*
X131363556Y-74098712D01*
X131397227Y-74199727D01*
X131397227Y-74267070D01*
X131363556Y-74368086D01*
X131228869Y-74502773D01*
X131195197Y-74603788D01*
X131195197Y-74671131D01*
X131228869Y-74772147D01*
X131363556Y-74906834D01*
X131464571Y-74940505D01*
X131531914Y-74940505D01*
X131632930Y-74906834D01*
X131767617Y-74772147D01*
X131801288Y-74671131D01*
X131801288Y-74603788D01*
X131767617Y-74502773D01*
X131632930Y-74368086D01*
X131531914Y-74334414D01*
X131464571Y-74334414D01*
X131363556Y-74368086D01*
D15*
%TO.C,C30*%
X118448984Y-85503552D02*
X118448984Y-85537224D01*
X118415312Y-85604567D01*
X118381641Y-85638239D01*
X118314297Y-85671911D01*
X118246954Y-85671911D01*
X118196446Y-85655075D01*
X118112267Y-85604567D01*
X118061759Y-85554060D01*
X118011251Y-85469880D01*
X117994416Y-85419373D01*
X117994416Y-85352029D01*
X118028087Y-85284686D01*
X118061759Y-85251014D01*
X118129103Y-85217342D01*
X118162774Y-85217342D01*
X118246954Y-85065819D02*
X118465820Y-84846953D01*
X118482656Y-85099491D01*
X118533164Y-85048983D01*
X118583671Y-85032147D01*
X118617343Y-85032147D01*
X118667851Y-85048983D01*
X118752030Y-85133163D01*
X118768866Y-85183670D01*
X118768866Y-85217342D01*
X118752030Y-85267850D01*
X118651015Y-85368865D01*
X118600507Y-85385701D01*
X118566835Y-85385701D01*
X118684687Y-84628086D02*
X118718358Y-84594415D01*
X118768866Y-84577579D01*
X118802538Y-84577579D01*
X118853045Y-84594415D01*
X118937225Y-84644922D01*
X119021404Y-84729102D01*
X119071912Y-84813281D01*
X119088748Y-84863789D01*
X119088748Y-84897460D01*
X119071912Y-84947968D01*
X119038240Y-84981640D01*
X118987732Y-84998476D01*
X118954061Y-84998476D01*
X118903553Y-84981640D01*
X118819374Y-84931132D01*
X118735194Y-84846953D01*
X118684687Y-84762773D01*
X118667851Y-84712266D01*
X118667851Y-84678594D01*
X118684687Y-84628086D01*
%TO.C,C31*%
X121148984Y-88353554D02*
X121148984Y-88387226D01*
X121115312Y-88454569D01*
X121081641Y-88488241D01*
X121014297Y-88521913D01*
X120946954Y-88521913D01*
X120896446Y-88505077D01*
X120812267Y-88454569D01*
X120761759Y-88404062D01*
X120711251Y-88319882D01*
X120694416Y-88269375D01*
X120694416Y-88202031D01*
X120728087Y-88134688D01*
X120761759Y-88101016D01*
X120829103Y-88067344D01*
X120862774Y-88067344D01*
X120946954Y-87915821D02*
X121165820Y-87696955D01*
X121182656Y-87949493D01*
X121233164Y-87898985D01*
X121283671Y-87882149D01*
X121317343Y-87882149D01*
X121367851Y-87898985D01*
X121452030Y-87983165D01*
X121468866Y-88033672D01*
X121468866Y-88067344D01*
X121452030Y-88117852D01*
X121351015Y-88218867D01*
X121300507Y-88235703D01*
X121266835Y-88235703D01*
X121856091Y-87713791D02*
X121654061Y-87915821D01*
X121755076Y-87814806D02*
X121401522Y-87461252D01*
X121418358Y-87545432D01*
X121418358Y-87612775D01*
X121401522Y-87663283D01*
D12*
%TO.C,C32*%
X98280532Y-77079669D02*
X98280532Y-77147013D01*
X98213188Y-77281700D01*
X98145845Y-77349043D01*
X98011158Y-77416387D01*
X97876471Y-77416387D01*
X97775456Y-77382715D01*
X97607097Y-77281700D01*
X97506082Y-77180685D01*
X97405066Y-77012326D01*
X97371395Y-76911311D01*
X97371395Y-76776624D01*
X97438738Y-76641937D01*
X97506082Y-76574593D01*
X97640769Y-76507250D01*
X97708112Y-76507250D01*
X97876471Y-76204204D02*
X98314204Y-75766471D01*
X98347875Y-76271547D01*
X98448891Y-76170532D01*
X98549906Y-76136860D01*
X98617250Y-76136860D01*
X98718265Y-76170532D01*
X98886624Y-76338891D01*
X98920295Y-76439906D01*
X98920295Y-76507250D01*
X98886624Y-76608265D01*
X98684593Y-76810295D01*
X98583578Y-76843967D01*
X98516234Y-76843967D01*
X98650921Y-75564440D02*
X98650921Y-75497097D01*
X98684593Y-75396082D01*
X98852952Y-75227723D01*
X98953967Y-75194051D01*
X99021311Y-75194051D01*
X99122326Y-75227723D01*
X99189669Y-75295066D01*
X99257013Y-75429753D01*
X99257013Y-76237875D01*
X99694746Y-75800143D01*
D15*
%TO.C,C35*%
X110937142Y-56892857D02*
X110984761Y-56940476D01*
X111032380Y-57083333D01*
X111032380Y-57178571D01*
X110984761Y-57321428D01*
X110889523Y-57416666D01*
X110794285Y-57464285D01*
X110603809Y-57511904D01*
X110460952Y-57511904D01*
X110270476Y-57464285D01*
X110175238Y-57416666D01*
X110080000Y-57321428D01*
X110032380Y-57178571D01*
X110032380Y-57083333D01*
X110080000Y-56940476D01*
X110127619Y-56892857D01*
X110032380Y-56559523D02*
X110032380Y-55940476D01*
X110413333Y-56273809D01*
X110413333Y-56130952D01*
X110460952Y-56035714D01*
X110508571Y-55988095D01*
X110603809Y-55940476D01*
X110841904Y-55940476D01*
X110937142Y-55988095D01*
X110984761Y-56035714D01*
X111032380Y-56130952D01*
X111032380Y-56416666D01*
X110984761Y-56511904D01*
X110937142Y-56559523D01*
X110032380Y-55035714D02*
X110032380Y-55511904D01*
X110508571Y-55559523D01*
X110460952Y-55511904D01*
X110413333Y-55416666D01*
X110413333Y-55178571D01*
X110460952Y-55083333D01*
X110508571Y-55035714D01*
X110603809Y-54988095D01*
X110841904Y-54988095D01*
X110937142Y-55035714D01*
X110984761Y-55083333D01*
X111032380Y-55178571D01*
X111032380Y-55416666D01*
X110984761Y-55511904D01*
X110937142Y-55559523D01*
D12*
%TO.C,J3*%
X141566666Y-132927380D02*
X141566666Y-133641666D01*
X141519047Y-133784523D01*
X141423809Y-133879761D01*
X141280952Y-133927380D01*
X141185714Y-133927380D01*
X141947619Y-132927380D02*
X142566666Y-132927380D01*
X142233333Y-133308333D01*
X142376190Y-133308333D01*
X142471428Y-133355952D01*
X142519047Y-133403571D01*
X142566666Y-133498809D01*
X142566666Y-133736904D01*
X142519047Y-133832142D01*
X142471428Y-133879761D01*
X142376190Y-133927380D01*
X142090476Y-133927380D01*
X141995238Y-133879761D01*
X141947619Y-133832142D01*
D15*
%TO.C,R4*%
X120776190Y-56183333D02*
X120538095Y-56350000D01*
X120776190Y-56469047D02*
X120276190Y-56469047D01*
X120276190Y-56278571D01*
X120300000Y-56230952D01*
X120323809Y-56207142D01*
X120371428Y-56183333D01*
X120442857Y-56183333D01*
X120490476Y-56207142D01*
X120514285Y-56230952D01*
X120538095Y-56278571D01*
X120538095Y-56469047D01*
X120442857Y-55754761D02*
X120776190Y-55754761D01*
X120252380Y-55873809D02*
X120609523Y-55992857D01*
X120609523Y-55683333D01*
%TO.C,R5*%
X118576190Y-56233333D02*
X118338095Y-56400000D01*
X118576190Y-56519047D02*
X118076190Y-56519047D01*
X118076190Y-56328571D01*
X118100000Y-56280952D01*
X118123809Y-56257142D01*
X118171428Y-56233333D01*
X118242857Y-56233333D01*
X118290476Y-56257142D01*
X118314285Y-56280952D01*
X118338095Y-56328571D01*
X118338095Y-56519047D01*
X118076190Y-55780952D02*
X118076190Y-56019047D01*
X118314285Y-56042857D01*
X118290476Y-56019047D01*
X118266666Y-55971428D01*
X118266666Y-55852380D01*
X118290476Y-55804761D01*
X118314285Y-55780952D01*
X118361904Y-55757142D01*
X118480952Y-55757142D01*
X118528571Y-55780952D01*
X118552380Y-55804761D01*
X118576190Y-55852380D01*
X118576190Y-55971428D01*
X118552380Y-56019047D01*
X118528571Y-56042857D01*
D16*
%TO.C,J5*%
X83764523Y-97153333D02*
X84671666Y-97153333D01*
X84853095Y-97213809D01*
X84974047Y-97334761D01*
X85034523Y-97516190D01*
X85034523Y-97637142D01*
X83764523Y-95943809D02*
X83764523Y-96548571D01*
X84369285Y-96609047D01*
X84308809Y-96548571D01*
X84248333Y-96427619D01*
X84248333Y-96125238D01*
X84308809Y-96004285D01*
X84369285Y-95943809D01*
X84490238Y-95883333D01*
X84792619Y-95883333D01*
X84913571Y-95943809D01*
X84974047Y-96004285D01*
X85034523Y-96125238D01*
X85034523Y-96427619D01*
X84974047Y-96548571D01*
X84913571Y-96609047D01*
D12*
%TO.C,U3*%
X146438095Y-122052380D02*
X146438095Y-122861904D01*
X146485714Y-122957142D01*
X146533333Y-123004761D01*
X146628571Y-123052380D01*
X146819047Y-123052380D01*
X146914285Y-123004761D01*
X146961904Y-122957142D01*
X147009523Y-122861904D01*
X147009523Y-122052380D01*
X147390476Y-122052380D02*
X148009523Y-122052380D01*
X147676190Y-122433333D01*
X147819047Y-122433333D01*
X147914285Y-122480952D01*
X147961904Y-122528571D01*
X148009523Y-122623809D01*
X148009523Y-122861904D01*
X147961904Y-122957142D01*
X147914285Y-123004761D01*
X147819047Y-123052380D01*
X147533333Y-123052380D01*
X147438095Y-123004761D01*
X147390476Y-122957142D01*
D15*
%TO.C,C34*%
X106417142Y-56892857D02*
X106464761Y-56940476D01*
X106512380Y-57083333D01*
X106512380Y-57178571D01*
X106464761Y-57321428D01*
X106369523Y-57416666D01*
X106274285Y-57464285D01*
X106083809Y-57511904D01*
X105940952Y-57511904D01*
X105750476Y-57464285D01*
X105655238Y-57416666D01*
X105560000Y-57321428D01*
X105512380Y-57178571D01*
X105512380Y-57083333D01*
X105560000Y-56940476D01*
X105607619Y-56892857D01*
X105512380Y-56559523D02*
X105512380Y-55940476D01*
X105893333Y-56273809D01*
X105893333Y-56130952D01*
X105940952Y-56035714D01*
X105988571Y-55988095D01*
X106083809Y-55940476D01*
X106321904Y-55940476D01*
X106417142Y-55988095D01*
X106464761Y-56035714D01*
X106512380Y-56130952D01*
X106512380Y-56416666D01*
X106464761Y-56511904D01*
X106417142Y-56559523D01*
X105845714Y-55083333D02*
X106512380Y-55083333D01*
X105464761Y-55321428D02*
X106179047Y-55559523D01*
X106179047Y-54940476D01*
%TO.C,C26*%
X116328571Y-56471428D02*
X116352380Y-56495238D01*
X116376190Y-56566666D01*
X116376190Y-56614285D01*
X116352380Y-56685714D01*
X116304761Y-56733333D01*
X116257142Y-56757142D01*
X116161904Y-56780952D01*
X116090476Y-56780952D01*
X115995238Y-56757142D01*
X115947619Y-56733333D01*
X115900000Y-56685714D01*
X115876190Y-56614285D01*
X115876190Y-56566666D01*
X115900000Y-56495238D01*
X115923809Y-56471428D01*
X115923809Y-56280952D02*
X115900000Y-56257142D01*
X115876190Y-56209523D01*
X115876190Y-56090476D01*
X115900000Y-56042857D01*
X115923809Y-56019047D01*
X115971428Y-55995238D01*
X116019047Y-55995238D01*
X116090476Y-56019047D01*
X116376190Y-56304761D01*
X116376190Y-55995238D01*
X115876190Y-55566666D02*
X115876190Y-55661904D01*
X115900000Y-55709523D01*
X115923809Y-55733333D01*
X115995238Y-55780952D01*
X116090476Y-55804761D01*
X116280952Y-55804761D01*
X116328571Y-55780952D01*
X116352380Y-55757142D01*
X116376190Y-55709523D01*
X116376190Y-55614285D01*
X116352380Y-55566666D01*
X116328571Y-55542857D01*
X116280952Y-55519047D01*
X116161904Y-55519047D01*
X116114285Y-55542857D01*
X116090476Y-55566666D01*
X116066666Y-55614285D01*
X116066666Y-55709523D01*
X116090476Y-55757142D01*
X116114285Y-55780952D01*
X116161904Y-55804761D01*
D12*
%TO.C,C29*%
X130837141Y-71967142D02*
X130789522Y-72014761D01*
X130646665Y-72062380D01*
X130551427Y-72062380D01*
X130408570Y-72014761D01*
X130313332Y-71919523D01*
X130265713Y-71824285D01*
X130218094Y-71633809D01*
X130218094Y-71490952D01*
X130265713Y-71300476D01*
X130313332Y-71205238D01*
X130408570Y-71110000D01*
X130551427Y-71062380D01*
X130646665Y-71062380D01*
X130789522Y-71110000D01*
X130837141Y-71157619D01*
X131218094Y-71157619D02*
X131265713Y-71110000D01*
X131360951Y-71062380D01*
X131599046Y-71062380D01*
X131694284Y-71110000D01*
X131741903Y-71157619D01*
X131789522Y-71252857D01*
X131789522Y-71348095D01*
X131741903Y-71490952D01*
X131170475Y-72062380D01*
X131789522Y-72062380D01*
X132265713Y-72062380D02*
X132456189Y-72062380D01*
X132551427Y-72014761D01*
X132599046Y-71967142D01*
X132694284Y-71824285D01*
X132741903Y-71633809D01*
X132741903Y-71252857D01*
X132694284Y-71157619D01*
X132646665Y-71110000D01*
X132551427Y-71062380D01*
X132360951Y-71062380D01*
X132265713Y-71110000D01*
X132218094Y-71157619D01*
X132170475Y-71252857D01*
X132170475Y-71490952D01*
X132218094Y-71586190D01*
X132265713Y-71633809D01*
X132360951Y-71681428D01*
X132551427Y-71681428D01*
X132646665Y-71633809D01*
X132694284Y-71586190D01*
X132741903Y-71490952D01*
%TO.C,U5*%
X129918095Y-61342380D02*
X129918095Y-62151904D01*
X129965714Y-62247142D01*
X130013333Y-62294761D01*
X130108571Y-62342380D01*
X130299047Y-62342380D01*
X130394285Y-62294761D01*
X130441904Y-62247142D01*
X130489523Y-62151904D01*
X130489523Y-61342380D01*
X131441904Y-61342380D02*
X130965714Y-61342380D01*
X130918095Y-61818571D01*
X130965714Y-61770952D01*
X131060952Y-61723333D01*
X131299047Y-61723333D01*
X131394285Y-61770952D01*
X131441904Y-61818571D01*
X131489523Y-61913809D01*
X131489523Y-62151904D01*
X131441904Y-62247142D01*
X131394285Y-62294761D01*
X131299047Y-62342380D01*
X131060952Y-62342380D01*
X130965714Y-62294761D01*
X130918095Y-62247142D01*
D15*
%TO.C,C2*%
X125768571Y-88383333D02*
X125792380Y-88407142D01*
X125816190Y-88478571D01*
X125816190Y-88526190D01*
X125792380Y-88597619D01*
X125744761Y-88645238D01*
X125697142Y-88669047D01*
X125601904Y-88692857D01*
X125530476Y-88692857D01*
X125435238Y-88669047D01*
X125387619Y-88645238D01*
X125340000Y-88597619D01*
X125316190Y-88526190D01*
X125316190Y-88478571D01*
X125340000Y-88407142D01*
X125363809Y-88383333D01*
X125363809Y-88192857D02*
X125340000Y-88169047D01*
X125316190Y-88121428D01*
X125316190Y-88002380D01*
X125340000Y-87954761D01*
X125363809Y-87930952D01*
X125411428Y-87907142D01*
X125459047Y-87907142D01*
X125530476Y-87930952D01*
X125816190Y-88216666D01*
X125816190Y-87907142D01*
%TO.C,C3*%
X138428571Y-88183333D02*
X138452380Y-88207142D01*
X138476190Y-88278571D01*
X138476190Y-88326190D01*
X138452380Y-88397619D01*
X138404761Y-88445238D01*
X138357142Y-88469047D01*
X138261904Y-88492857D01*
X138190476Y-88492857D01*
X138095238Y-88469047D01*
X138047619Y-88445238D01*
X138000000Y-88397619D01*
X137976190Y-88326190D01*
X137976190Y-88278571D01*
X138000000Y-88207142D01*
X138023809Y-88183333D01*
X137976190Y-88016666D02*
X137976190Y-87707142D01*
X138166666Y-87873809D01*
X138166666Y-87802380D01*
X138190476Y-87754761D01*
X138214285Y-87730952D01*
X138261904Y-87707142D01*
X138380952Y-87707142D01*
X138428571Y-87730952D01*
X138452380Y-87754761D01*
X138476190Y-87802380D01*
X138476190Y-87945238D01*
X138452380Y-87992857D01*
X138428571Y-88016666D01*
%TO.C,C12*%
X152278571Y-104821428D02*
X152302380Y-104845238D01*
X152326190Y-104916666D01*
X152326190Y-104964285D01*
X152302380Y-105035714D01*
X152254761Y-105083333D01*
X152207142Y-105107142D01*
X152111904Y-105130952D01*
X152040476Y-105130952D01*
X151945238Y-105107142D01*
X151897619Y-105083333D01*
X151850000Y-105035714D01*
X151826190Y-104964285D01*
X151826190Y-104916666D01*
X151850000Y-104845238D01*
X151873809Y-104821428D01*
X152326190Y-104345238D02*
X152326190Y-104630952D01*
X152326190Y-104488095D02*
X151826190Y-104488095D01*
X151897619Y-104535714D01*
X151945238Y-104583333D01*
X151969047Y-104630952D01*
X151873809Y-104154761D02*
X151850000Y-104130952D01*
X151826190Y-104083333D01*
X151826190Y-103964285D01*
X151850000Y-103916666D01*
X151873809Y-103892857D01*
X151921428Y-103869047D01*
X151969047Y-103869047D01*
X152040476Y-103892857D01*
X152326190Y-104178571D01*
X152326190Y-103869047D01*
%TO.C,C15*%
X153778571Y-86056428D02*
X153802380Y-86080238D01*
X153826190Y-86151666D01*
X153826190Y-86199285D01*
X153802380Y-86270714D01*
X153754761Y-86318333D01*
X153707142Y-86342142D01*
X153611904Y-86365952D01*
X153540476Y-86365952D01*
X153445238Y-86342142D01*
X153397619Y-86318333D01*
X153350000Y-86270714D01*
X153326190Y-86199285D01*
X153326190Y-86151666D01*
X153350000Y-86080238D01*
X153373809Y-86056428D01*
X153826190Y-85580238D02*
X153826190Y-85865952D01*
X153826190Y-85723095D02*
X153326190Y-85723095D01*
X153397619Y-85770714D01*
X153445238Y-85818333D01*
X153469047Y-85865952D01*
X153326190Y-85127857D02*
X153326190Y-85365952D01*
X153564285Y-85389761D01*
X153540476Y-85365952D01*
X153516666Y-85318333D01*
X153516666Y-85199285D01*
X153540476Y-85151666D01*
X153564285Y-85127857D01*
X153611904Y-85104047D01*
X153730952Y-85104047D01*
X153778571Y-85127857D01*
X153802380Y-85151666D01*
X153826190Y-85199285D01*
X153826190Y-85318333D01*
X153802380Y-85365952D01*
X153778571Y-85389761D01*
%TO.C,C17*%
X153778571Y-88421428D02*
X153802380Y-88445238D01*
X153826190Y-88516666D01*
X153826190Y-88564285D01*
X153802380Y-88635714D01*
X153754761Y-88683333D01*
X153707142Y-88707142D01*
X153611904Y-88730952D01*
X153540476Y-88730952D01*
X153445238Y-88707142D01*
X153397619Y-88683333D01*
X153350000Y-88635714D01*
X153326190Y-88564285D01*
X153326190Y-88516666D01*
X153350000Y-88445238D01*
X153373809Y-88421428D01*
X153826190Y-87945238D02*
X153826190Y-88230952D01*
X153826190Y-88088095D02*
X153326190Y-88088095D01*
X153397619Y-88135714D01*
X153445238Y-88183333D01*
X153469047Y-88230952D01*
X153326190Y-87778571D02*
X153326190Y-87445238D01*
X153826190Y-87659523D01*
D12*
%TO.C,U1*%
X133428095Y-82322380D02*
X133428095Y-83131904D01*
X133475714Y-83227142D01*
X133523333Y-83274761D01*
X133618571Y-83322380D01*
X133809047Y-83322380D01*
X133904285Y-83274761D01*
X133951904Y-83227142D01*
X133999523Y-83131904D01*
X133999523Y-82322380D01*
X134999523Y-83322380D02*
X134428095Y-83322380D01*
X134713809Y-83322380D02*
X134713809Y-82322380D01*
X134618571Y-82465238D01*
X134523333Y-82560476D01*
X134428095Y-82608095D01*
D15*
%TO.C,L1*%
X132366666Y-93126190D02*
X132128571Y-93126190D01*
X132128571Y-92626190D01*
X132795238Y-93126190D02*
X132509523Y-93126190D01*
X132652380Y-93126190D02*
X132652380Y-92626190D01*
X132604761Y-92697619D01*
X132557142Y-92745238D01*
X132509523Y-92769047D01*
%TO.C,C7*%
X132328571Y-94373333D02*
X132352380Y-94397142D01*
X132376190Y-94468571D01*
X132376190Y-94516190D01*
X132352380Y-94587619D01*
X132304761Y-94635238D01*
X132257142Y-94659047D01*
X132161904Y-94682857D01*
X132090476Y-94682857D01*
X131995238Y-94659047D01*
X131947619Y-94635238D01*
X131900000Y-94587619D01*
X131876190Y-94516190D01*
X131876190Y-94468571D01*
X131900000Y-94397142D01*
X131923809Y-94373333D01*
X131876190Y-94206666D02*
X131876190Y-93873333D01*
X132376190Y-94087619D01*
%TO.C,C8*%
X135228571Y-96333333D02*
X135252380Y-96357142D01*
X135276190Y-96428571D01*
X135276190Y-96476190D01*
X135252380Y-96547619D01*
X135204761Y-96595238D01*
X135157142Y-96619047D01*
X135061904Y-96642857D01*
X134990476Y-96642857D01*
X134895238Y-96619047D01*
X134847619Y-96595238D01*
X134800000Y-96547619D01*
X134776190Y-96476190D01*
X134776190Y-96428571D01*
X134800000Y-96357142D01*
X134823809Y-96333333D01*
X134990476Y-96047619D02*
X134966666Y-96095238D01*
X134942857Y-96119047D01*
X134895238Y-96142857D01*
X134871428Y-96142857D01*
X134823809Y-96119047D01*
X134800000Y-96095238D01*
X134776190Y-96047619D01*
X134776190Y-95952380D01*
X134800000Y-95904761D01*
X134823809Y-95880952D01*
X134871428Y-95857142D01*
X134895238Y-95857142D01*
X134942857Y-95880952D01*
X134966666Y-95904761D01*
X134990476Y-95952380D01*
X134990476Y-96047619D01*
X135014285Y-96095238D01*
X135038095Y-96119047D01*
X135085714Y-96142857D01*
X135180952Y-96142857D01*
X135228571Y-96119047D01*
X135252380Y-96095238D01*
X135276190Y-96047619D01*
X135276190Y-95952380D01*
X135252380Y-95904761D01*
X135228571Y-95880952D01*
X135180952Y-95857142D01*
X135085714Y-95857142D01*
X135038095Y-95880952D01*
X135014285Y-95904761D01*
X134990476Y-95952380D01*
%TO.C,C6*%
X135778571Y-91533333D02*
X135802380Y-91557142D01*
X135826190Y-91628571D01*
X135826190Y-91676190D01*
X135802380Y-91747619D01*
X135754761Y-91795238D01*
X135707142Y-91819047D01*
X135611904Y-91842857D01*
X135540476Y-91842857D01*
X135445238Y-91819047D01*
X135397619Y-91795238D01*
X135350000Y-91747619D01*
X135326190Y-91676190D01*
X135326190Y-91628571D01*
X135350000Y-91557142D01*
X135373809Y-91533333D01*
X135326190Y-91104761D02*
X135326190Y-91200000D01*
X135350000Y-91247619D01*
X135373809Y-91271428D01*
X135445238Y-91319047D01*
X135540476Y-91342857D01*
X135730952Y-91342857D01*
X135778571Y-91319047D01*
X135802380Y-91295238D01*
X135826190Y-91247619D01*
X135826190Y-91152380D01*
X135802380Y-91104761D01*
X135778571Y-91080952D01*
X135730952Y-91057142D01*
X135611904Y-91057142D01*
X135564285Y-91080952D01*
X135540476Y-91104761D01*
X135516666Y-91152380D01*
X135516666Y-91247619D01*
X135540476Y-91295238D01*
X135564285Y-91319047D01*
X135611904Y-91342857D01*
D12*
%TO.C,Y1*%
X129476174Y-87151516D02*
X129952690Y-87151516D01*
X128952005Y-87485078D02*
X129476174Y-87151516D01*
X128952005Y-86817955D01*
X129952690Y-85960225D02*
X129952690Y-86532045D01*
X129952690Y-86246135D02*
X128952005Y-86246135D01*
X129094960Y-86341438D01*
X129190264Y-86436741D01*
X129237915Y-86532045D01*
D15*
%TO.C,L2*%
X135676190Y-94483333D02*
X135676190Y-94721428D01*
X135176190Y-94721428D01*
X135223809Y-94340476D02*
X135200000Y-94316666D01*
X135176190Y-94269047D01*
X135176190Y-94150000D01*
X135200000Y-94102380D01*
X135223809Y-94078571D01*
X135271428Y-94054761D01*
X135319047Y-94054761D01*
X135390476Y-94078571D01*
X135676190Y-94364285D01*
X135676190Y-94054761D01*
%TO.C,C18*%
X141038571Y-85231428D02*
X141062380Y-85255238D01*
X141086190Y-85326666D01*
X141086190Y-85374285D01*
X141062380Y-85445714D01*
X141014761Y-85493333D01*
X140967142Y-85517142D01*
X140871904Y-85540952D01*
X140800476Y-85540952D01*
X140705238Y-85517142D01*
X140657619Y-85493333D01*
X140610000Y-85445714D01*
X140586190Y-85374285D01*
X140586190Y-85326666D01*
X140610000Y-85255238D01*
X140633809Y-85231428D01*
X141086190Y-84755238D02*
X141086190Y-85040952D01*
X141086190Y-84898095D02*
X140586190Y-84898095D01*
X140657619Y-84945714D01*
X140705238Y-84993333D01*
X140729047Y-85040952D01*
X140800476Y-84469523D02*
X140776666Y-84517142D01*
X140752857Y-84540952D01*
X140705238Y-84564761D01*
X140681428Y-84564761D01*
X140633809Y-84540952D01*
X140610000Y-84517142D01*
X140586190Y-84469523D01*
X140586190Y-84374285D01*
X140610000Y-84326666D01*
X140633809Y-84302857D01*
X140681428Y-84279047D01*
X140705238Y-84279047D01*
X140752857Y-84302857D01*
X140776666Y-84326666D01*
X140800476Y-84374285D01*
X140800476Y-84469523D01*
X140824285Y-84517142D01*
X140848095Y-84540952D01*
X140895714Y-84564761D01*
X140990952Y-84564761D01*
X141038571Y-84540952D01*
X141062380Y-84517142D01*
X141086190Y-84469523D01*
X141086190Y-84374285D01*
X141062380Y-84326666D01*
X141038571Y-84302857D01*
X140990952Y-84279047D01*
X140895714Y-84279047D01*
X140848095Y-84302857D01*
X140824285Y-84326666D01*
X140800476Y-84374285D01*
%TO.C,C4*%
X125828571Y-85003333D02*
X125852380Y-85027142D01*
X125876190Y-85098571D01*
X125876190Y-85146190D01*
X125852380Y-85217619D01*
X125804761Y-85265238D01*
X125757142Y-85289047D01*
X125661904Y-85312857D01*
X125590476Y-85312857D01*
X125495238Y-85289047D01*
X125447619Y-85265238D01*
X125400000Y-85217619D01*
X125376190Y-85146190D01*
X125376190Y-85098571D01*
X125400000Y-85027142D01*
X125423809Y-85003333D01*
X125542857Y-84574761D02*
X125876190Y-84574761D01*
X125352380Y-84693809D02*
X125709523Y-84812857D01*
X125709523Y-84503333D01*
%TO.C,C11*%
X148128571Y-104628571D02*
X148104761Y-104652380D01*
X148033333Y-104676190D01*
X147985714Y-104676190D01*
X147914285Y-104652380D01*
X147866666Y-104604761D01*
X147842857Y-104557142D01*
X147819047Y-104461904D01*
X147819047Y-104390476D01*
X147842857Y-104295238D01*
X147866666Y-104247619D01*
X147914285Y-104200000D01*
X147985714Y-104176190D01*
X148033333Y-104176190D01*
X148104761Y-104200000D01*
X148128571Y-104223809D01*
X148604761Y-104676190D02*
X148319047Y-104676190D01*
X148461904Y-104676190D02*
X148461904Y-104176190D01*
X148414285Y-104247619D01*
X148366666Y-104295238D01*
X148319047Y-104319047D01*
X149080952Y-104676190D02*
X148795238Y-104676190D01*
X148938095Y-104676190D02*
X148938095Y-104176190D01*
X148890476Y-104247619D01*
X148842857Y-104295238D01*
X148795238Y-104319047D01*
%TO.C,L9*%
X149316190Y-100023333D02*
X149316190Y-100261428D01*
X148816190Y-100261428D01*
X149316190Y-99832857D02*
X149316190Y-99737619D01*
X149292380Y-99690000D01*
X149268571Y-99666190D01*
X149197142Y-99618571D01*
X149101904Y-99594761D01*
X148911428Y-99594761D01*
X148863809Y-99618571D01*
X148840000Y-99642380D01*
X148816190Y-99690000D01*
X148816190Y-99785238D01*
X148840000Y-99832857D01*
X148863809Y-99856666D01*
X148911428Y-99880476D01*
X149030476Y-99880476D01*
X149078095Y-99856666D01*
X149101904Y-99832857D01*
X149125714Y-99785238D01*
X149125714Y-99690000D01*
X149101904Y-99642380D01*
X149078095Y-99618571D01*
X149030476Y-99594761D01*
%TO.C,L4*%
X151026190Y-105833333D02*
X151026190Y-106071428D01*
X150526190Y-106071428D01*
X150692857Y-105452380D02*
X151026190Y-105452380D01*
X150502380Y-105571428D02*
X150859523Y-105690476D01*
X150859523Y-105380952D01*
%TO.C,C21*%
X151028571Y-99753571D02*
X151004761Y-99777380D01*
X150933333Y-99801190D01*
X150885714Y-99801190D01*
X150814285Y-99777380D01*
X150766666Y-99729761D01*
X150742857Y-99682142D01*
X150719047Y-99586904D01*
X150719047Y-99515476D01*
X150742857Y-99420238D01*
X150766666Y-99372619D01*
X150814285Y-99325000D01*
X150885714Y-99301190D01*
X150933333Y-99301190D01*
X151004761Y-99325000D01*
X151028571Y-99348809D01*
X151219047Y-99348809D02*
X151242857Y-99325000D01*
X151290476Y-99301190D01*
X151409523Y-99301190D01*
X151457142Y-99325000D01*
X151480952Y-99348809D01*
X151504761Y-99396428D01*
X151504761Y-99444047D01*
X151480952Y-99515476D01*
X151195238Y-99801190D01*
X151504761Y-99801190D01*
X151980952Y-99801190D02*
X151695238Y-99801190D01*
X151838095Y-99801190D02*
X151838095Y-99301190D01*
X151790476Y-99372619D01*
X151742857Y-99420238D01*
X151695238Y-99444047D01*
%TO.C,L11*%
X150956190Y-103821428D02*
X150956190Y-104059523D01*
X150456190Y-104059523D01*
X150956190Y-103392857D02*
X150956190Y-103678571D01*
X150956190Y-103535714D02*
X150456190Y-103535714D01*
X150527619Y-103583333D01*
X150575238Y-103630952D01*
X150599047Y-103678571D01*
X150956190Y-102916666D02*
X150956190Y-103202380D01*
X150956190Y-103059523D02*
X150456190Y-103059523D01*
X150527619Y-103107142D01*
X150575238Y-103154761D01*
X150599047Y-103202380D01*
%TO.C,C22*%
X148128571Y-103398571D02*
X148104761Y-103422380D01*
X148033333Y-103446190D01*
X147985714Y-103446190D01*
X147914285Y-103422380D01*
X147866666Y-103374761D01*
X147842857Y-103327142D01*
X147819047Y-103231904D01*
X147819047Y-103160476D01*
X147842857Y-103065238D01*
X147866666Y-103017619D01*
X147914285Y-102970000D01*
X147985714Y-102946190D01*
X148033333Y-102946190D01*
X148104761Y-102970000D01*
X148128571Y-102993809D01*
X148319047Y-102993809D02*
X148342857Y-102970000D01*
X148390476Y-102946190D01*
X148509523Y-102946190D01*
X148557142Y-102970000D01*
X148580952Y-102993809D01*
X148604761Y-103041428D01*
X148604761Y-103089047D01*
X148580952Y-103160476D01*
X148295238Y-103446190D01*
X148604761Y-103446190D01*
X148795238Y-102993809D02*
X148819047Y-102970000D01*
X148866666Y-102946190D01*
X148985714Y-102946190D01*
X149033333Y-102970000D01*
X149057142Y-102993809D01*
X149080952Y-103041428D01*
X149080952Y-103089047D01*
X149057142Y-103160476D01*
X148771428Y-103446190D01*
X149080952Y-103446190D01*
%TO.C,R1*%
X152176190Y-106983333D02*
X151938095Y-107150000D01*
X152176190Y-107269047D02*
X151676190Y-107269047D01*
X151676190Y-107078571D01*
X151700000Y-107030952D01*
X151723809Y-107007142D01*
X151771428Y-106983333D01*
X151842857Y-106983333D01*
X151890476Y-107007142D01*
X151914285Y-107030952D01*
X151938095Y-107078571D01*
X151938095Y-107269047D01*
X152176190Y-106507142D02*
X152176190Y-106792857D01*
X152176190Y-106650000D02*
X151676190Y-106650000D01*
X151747619Y-106697619D01*
X151795238Y-106745238D01*
X151819047Y-106792857D01*
%TO.C,U2*%
X148149047Y-106266190D02*
X148149047Y-106670952D01*
X148172857Y-106718571D01*
X148196666Y-106742380D01*
X148244285Y-106766190D01*
X148339523Y-106766190D01*
X148387142Y-106742380D01*
X148410952Y-106718571D01*
X148434761Y-106670952D01*
X148434761Y-106266190D01*
X148649047Y-106313809D02*
X148672857Y-106290000D01*
X148720476Y-106266190D01*
X148839523Y-106266190D01*
X148887142Y-106290000D01*
X148910952Y-106313809D01*
X148934761Y-106361428D01*
X148934761Y-106409047D01*
X148910952Y-106480476D01*
X148625238Y-106766190D01*
X148934761Y-106766190D01*
D17*
%TO.C,C9*%
X132278571Y-108493333D02*
X132302380Y-108517142D01*
X132326190Y-108588571D01*
X132326190Y-108636190D01*
X132302380Y-108707619D01*
X132254761Y-108755238D01*
X132207142Y-108779047D01*
X132111904Y-108802857D01*
X132040476Y-108802857D01*
X131945238Y-108779047D01*
X131897619Y-108755238D01*
X131850000Y-108707619D01*
X131826190Y-108636190D01*
X131826190Y-108588571D01*
X131850000Y-108517142D01*
X131873809Y-108493333D01*
X132326190Y-108255238D02*
X132326190Y-108160000D01*
X132302380Y-108112380D01*
X132278571Y-108088571D01*
X132207142Y-108040952D01*
X132111904Y-108017142D01*
X131921428Y-108017142D01*
X131873809Y-108040952D01*
X131850000Y-108064761D01*
X131826190Y-108112380D01*
X131826190Y-108207619D01*
X131850000Y-108255238D01*
X131873809Y-108279047D01*
X131921428Y-108302857D01*
X132040476Y-108302857D01*
X132088095Y-108279047D01*
X132111904Y-108255238D01*
X132135714Y-108207619D01*
X132135714Y-108112380D01*
X132111904Y-108064761D01*
X132088095Y-108040952D01*
X132040476Y-108017142D01*
%TO.C,L3*%
X133116190Y-109933333D02*
X133116190Y-110171428D01*
X132616190Y-110171428D01*
X132616190Y-109814285D02*
X132616190Y-109504761D01*
X132806666Y-109671428D01*
X132806666Y-109600000D01*
X132830476Y-109552380D01*
X132854285Y-109528571D01*
X132901904Y-109504761D01*
X133020952Y-109504761D01*
X133068571Y-109528571D01*
X133092380Y-109552380D01*
X133116190Y-109600000D01*
X133116190Y-109742857D01*
X133092380Y-109790476D01*
X133068571Y-109814285D01*
%TO.C,C10*%
X135938571Y-109601428D02*
X135962380Y-109625238D01*
X135986190Y-109696666D01*
X135986190Y-109744285D01*
X135962380Y-109815714D01*
X135914761Y-109863333D01*
X135867142Y-109887142D01*
X135771904Y-109910952D01*
X135700476Y-109910952D01*
X135605238Y-109887142D01*
X135557619Y-109863333D01*
X135510000Y-109815714D01*
X135486190Y-109744285D01*
X135486190Y-109696666D01*
X135510000Y-109625238D01*
X135533809Y-109601428D01*
X135986190Y-109125238D02*
X135986190Y-109410952D01*
X135986190Y-109268095D02*
X135486190Y-109268095D01*
X135557619Y-109315714D01*
X135605238Y-109363333D01*
X135629047Y-109410952D01*
X135486190Y-108815714D02*
X135486190Y-108768095D01*
X135510000Y-108720476D01*
X135533809Y-108696666D01*
X135581428Y-108672857D01*
X135676666Y-108649047D01*
X135795714Y-108649047D01*
X135890952Y-108672857D01*
X135938571Y-108696666D01*
X135962380Y-108720476D01*
X135986190Y-108768095D01*
X135986190Y-108815714D01*
X135962380Y-108863333D01*
X135938571Y-108887142D01*
X135890952Y-108910952D01*
X135795714Y-108934761D01*
X135676666Y-108934761D01*
X135581428Y-108910952D01*
X135533809Y-108887142D01*
X135510000Y-108863333D01*
X135486190Y-108815714D01*
D15*
%TO.C,L8*%
X148366666Y-94726190D02*
X148128571Y-94726190D01*
X148128571Y-94226190D01*
X148604761Y-94440476D02*
X148557142Y-94416666D01*
X148533333Y-94392857D01*
X148509523Y-94345238D01*
X148509523Y-94321428D01*
X148533333Y-94273809D01*
X148557142Y-94250000D01*
X148604761Y-94226190D01*
X148700000Y-94226190D01*
X148747619Y-94250000D01*
X148771428Y-94273809D01*
X148795238Y-94321428D01*
X148795238Y-94345238D01*
X148771428Y-94392857D01*
X148747619Y-94416666D01*
X148700000Y-94440476D01*
X148604761Y-94440476D01*
X148557142Y-94464285D01*
X148533333Y-94488095D01*
X148509523Y-94535714D01*
X148509523Y-94630952D01*
X148533333Y-94678571D01*
X148557142Y-94702380D01*
X148604761Y-94726190D01*
X148700000Y-94726190D01*
X148747619Y-94702380D01*
X148771428Y-94678571D01*
X148795238Y-94630952D01*
X148795238Y-94535714D01*
X148771428Y-94488095D01*
X148747619Y-94464285D01*
X148700000Y-94440476D01*
%TO.C,L6*%
X151316666Y-91826190D02*
X151078571Y-91826190D01*
X151078571Y-91326190D01*
X151697619Y-91326190D02*
X151602380Y-91326190D01*
X151554761Y-91350000D01*
X151530952Y-91373809D01*
X151483333Y-91445238D01*
X151459523Y-91540476D01*
X151459523Y-91730952D01*
X151483333Y-91778571D01*
X151507142Y-91802380D01*
X151554761Y-91826190D01*
X151650000Y-91826190D01*
X151697619Y-91802380D01*
X151721428Y-91778571D01*
X151745238Y-91730952D01*
X151745238Y-91611904D01*
X151721428Y-91564285D01*
X151697619Y-91540476D01*
X151650000Y-91516666D01*
X151554761Y-91516666D01*
X151507142Y-91540476D01*
X151483333Y-91564285D01*
X151459523Y-91611904D01*
%TO.C,C20*%
X149078571Y-93171428D02*
X149102380Y-93195238D01*
X149126190Y-93266666D01*
X149126190Y-93314285D01*
X149102380Y-93385714D01*
X149054761Y-93433333D01*
X149007142Y-93457142D01*
X148911904Y-93480952D01*
X148840476Y-93480952D01*
X148745238Y-93457142D01*
X148697619Y-93433333D01*
X148650000Y-93385714D01*
X148626190Y-93314285D01*
X148626190Y-93266666D01*
X148650000Y-93195238D01*
X148673809Y-93171428D01*
X148673809Y-92980952D02*
X148650000Y-92957142D01*
X148626190Y-92909523D01*
X148626190Y-92790476D01*
X148650000Y-92742857D01*
X148673809Y-92719047D01*
X148721428Y-92695238D01*
X148769047Y-92695238D01*
X148840476Y-92719047D01*
X149126190Y-93004761D01*
X149126190Y-92695238D01*
X148626190Y-92385714D02*
X148626190Y-92338095D01*
X148650000Y-92290476D01*
X148673809Y-92266666D01*
X148721428Y-92242857D01*
X148816666Y-92219047D01*
X148935714Y-92219047D01*
X149030952Y-92242857D01*
X149078571Y-92266666D01*
X149102380Y-92290476D01*
X149126190Y-92338095D01*
X149126190Y-92385714D01*
X149102380Y-92433333D01*
X149078571Y-92457142D01*
X149030952Y-92480952D01*
X148935714Y-92504761D01*
X148816666Y-92504761D01*
X148721428Y-92480952D01*
X148673809Y-92457142D01*
X148650000Y-92433333D01*
X148626190Y-92385714D01*
%TO.C,L7*%
X151076190Y-95033333D02*
X151076190Y-95271428D01*
X150576190Y-95271428D01*
X150576190Y-94914285D02*
X150576190Y-94580952D01*
X151076190Y-94795238D01*
D12*
%TO.C,Y2*%
X144776174Y-87051516D02*
X145252690Y-87051516D01*
X144252005Y-87385078D02*
X144776174Y-87051516D01*
X144252005Y-86717955D01*
X144347309Y-86432045D02*
X144299657Y-86384393D01*
X144252005Y-86289090D01*
X144252005Y-86050831D01*
X144299657Y-85955528D01*
X144347309Y-85907876D01*
X144442612Y-85860225D01*
X144537915Y-85860225D01*
X144680870Y-85907876D01*
X145252690Y-86479696D01*
X145252690Y-85860225D01*
%TO.C,U6*%
X148658095Y-82422380D02*
X148658095Y-83231904D01*
X148705714Y-83327142D01*
X148753333Y-83374761D01*
X148848571Y-83422380D01*
X149039047Y-83422380D01*
X149134285Y-83374761D01*
X149181904Y-83327142D01*
X149229523Y-83231904D01*
X149229523Y-82422380D01*
X150134285Y-82422380D02*
X149943809Y-82422380D01*
X149848571Y-82470000D01*
X149800952Y-82517619D01*
X149705714Y-82660476D01*
X149658095Y-82850952D01*
X149658095Y-83231904D01*
X149705714Y-83327142D01*
X149753333Y-83374761D01*
X149848571Y-83422380D01*
X150039047Y-83422380D01*
X150134285Y-83374761D01*
X150181904Y-83327142D01*
X150229523Y-83231904D01*
X150229523Y-82993809D01*
X150181904Y-82898571D01*
X150134285Y-82850952D01*
X150039047Y-82803333D01*
X149848571Y-82803333D01*
X149753333Y-82850952D01*
X149705714Y-82898571D01*
X149658095Y-82993809D01*
D15*
%TO.C,C16*%
X141038571Y-88621428D02*
X141062380Y-88645238D01*
X141086190Y-88716666D01*
X141086190Y-88764285D01*
X141062380Y-88835714D01*
X141014761Y-88883333D01*
X140967142Y-88907142D01*
X140871904Y-88930952D01*
X140800476Y-88930952D01*
X140705238Y-88907142D01*
X140657619Y-88883333D01*
X140610000Y-88835714D01*
X140586190Y-88764285D01*
X140586190Y-88716666D01*
X140610000Y-88645238D01*
X140633809Y-88621428D01*
X141086190Y-88145238D02*
X141086190Y-88430952D01*
X141086190Y-88288095D02*
X140586190Y-88288095D01*
X140657619Y-88335714D01*
X140705238Y-88383333D01*
X140729047Y-88430952D01*
X140586190Y-87716666D02*
X140586190Y-87811904D01*
X140610000Y-87859523D01*
X140633809Y-87883333D01*
X140705238Y-87930952D01*
X140800476Y-87954761D01*
X140990952Y-87954761D01*
X141038571Y-87930952D01*
X141062380Y-87907142D01*
X141086190Y-87859523D01*
X141086190Y-87764285D01*
X141062380Y-87716666D01*
X141038571Y-87692857D01*
X140990952Y-87669047D01*
X140871904Y-87669047D01*
X140824285Y-87692857D01*
X140800476Y-87716666D01*
X140776666Y-87764285D01*
X140776666Y-87859523D01*
X140800476Y-87907142D01*
X140824285Y-87930952D01*
X140871904Y-87954761D01*
D12*
%TO.C,D4*%
X106522380Y-113768095D02*
X105522380Y-113768095D01*
X105522380Y-113530000D01*
X105570000Y-113387142D01*
X105665238Y-113291904D01*
X105760476Y-113244285D01*
X105950952Y-113196666D01*
X106093809Y-113196666D01*
X106284285Y-113244285D01*
X106379523Y-113291904D01*
X106474761Y-113387142D01*
X106522380Y-113530000D01*
X106522380Y-113768095D01*
X105855714Y-112339523D02*
X106522380Y-112339523D01*
X105474761Y-112577619D02*
X106189047Y-112815714D01*
X106189047Y-112196666D01*
%TO.C,D6*%
X100537380Y-113768095D02*
X99537380Y-113768095D01*
X99537380Y-113530000D01*
X99585000Y-113387142D01*
X99680238Y-113291904D01*
X99775476Y-113244285D01*
X99965952Y-113196666D01*
X100108809Y-113196666D01*
X100299285Y-113244285D01*
X100394523Y-113291904D01*
X100489761Y-113387142D01*
X100537380Y-113530000D01*
X100537380Y-113768095D01*
X99537380Y-112339523D02*
X99537380Y-112530000D01*
X99585000Y-112625238D01*
X99632619Y-112672857D01*
X99775476Y-112768095D01*
X99965952Y-112815714D01*
X100346904Y-112815714D01*
X100442142Y-112768095D01*
X100489761Y-112720476D01*
X100537380Y-112625238D01*
X100537380Y-112434761D01*
X100489761Y-112339523D01*
X100442142Y-112291904D01*
X100346904Y-112244285D01*
X100108809Y-112244285D01*
X100013571Y-112291904D01*
X99965952Y-112339523D01*
X99918333Y-112434761D01*
X99918333Y-112625238D01*
X99965952Y-112720476D01*
X100013571Y-112768095D01*
X100108809Y-112815714D01*
%TO.C,R6*%
X100537380Y-116541666D02*
X100061190Y-116875000D01*
X100537380Y-117113095D02*
X99537380Y-117113095D01*
X99537380Y-116732142D01*
X99585000Y-116636904D01*
X99632619Y-116589285D01*
X99727857Y-116541666D01*
X99870714Y-116541666D01*
X99965952Y-116589285D01*
X100013571Y-116636904D01*
X100061190Y-116732142D01*
X100061190Y-117113095D01*
X99537380Y-115684523D02*
X99537380Y-115875000D01*
X99585000Y-115970238D01*
X99632619Y-116017857D01*
X99775476Y-116113095D01*
X99965952Y-116160714D01*
X100346904Y-116160714D01*
X100442142Y-116113095D01*
X100489761Y-116065476D01*
X100537380Y-115970238D01*
X100537380Y-115779761D01*
X100489761Y-115684523D01*
X100442142Y-115636904D01*
X100346904Y-115589285D01*
X100108809Y-115589285D01*
X100013571Y-115636904D01*
X99965952Y-115684523D01*
X99918333Y-115779761D01*
X99918333Y-115970238D01*
X99965952Y-116065476D01*
X100013571Y-116113095D01*
X100108809Y-116160714D01*
%TO.C,R8*%
X106522380Y-116541666D02*
X106046190Y-116875000D01*
X106522380Y-117113095D02*
X105522380Y-117113095D01*
X105522380Y-116732142D01*
X105570000Y-116636904D01*
X105617619Y-116589285D01*
X105712857Y-116541666D01*
X105855714Y-116541666D01*
X105950952Y-116589285D01*
X105998571Y-116636904D01*
X106046190Y-116732142D01*
X106046190Y-117113095D01*
X105950952Y-115970238D02*
X105903333Y-116065476D01*
X105855714Y-116113095D01*
X105760476Y-116160714D01*
X105712857Y-116160714D01*
X105617619Y-116113095D01*
X105570000Y-116065476D01*
X105522380Y-115970238D01*
X105522380Y-115779761D01*
X105570000Y-115684523D01*
X105617619Y-115636904D01*
X105712857Y-115589285D01*
X105760476Y-115589285D01*
X105855714Y-115636904D01*
X105903333Y-115684523D01*
X105950952Y-115779761D01*
X105950952Y-115970238D01*
X105998571Y-116065476D01*
X106046190Y-116113095D01*
X106141428Y-116160714D01*
X106331904Y-116160714D01*
X106427142Y-116113095D01*
X106474761Y-116065476D01*
X106522380Y-115970238D01*
X106522380Y-115779761D01*
X106474761Y-115684523D01*
X106427142Y-115636904D01*
X106331904Y-115589285D01*
X106141428Y-115589285D01*
X106046190Y-115636904D01*
X105998571Y-115684523D01*
X105950952Y-115779761D01*
%TO.C,R10*%
X112507380Y-117017857D02*
X112031190Y-117351190D01*
X112507380Y-117589285D02*
X111507380Y-117589285D01*
X111507380Y-117208333D01*
X111555000Y-117113095D01*
X111602619Y-117065476D01*
X111697857Y-117017857D01*
X111840714Y-117017857D01*
X111935952Y-117065476D01*
X111983571Y-117113095D01*
X112031190Y-117208333D01*
X112031190Y-117589285D01*
X112507380Y-116065476D02*
X112507380Y-116636904D01*
X112507380Y-116351190D02*
X111507380Y-116351190D01*
X111650238Y-116446428D01*
X111745476Y-116541666D01*
X111793095Y-116636904D01*
X111507380Y-115446428D02*
X111507380Y-115351190D01*
X111555000Y-115255952D01*
X111602619Y-115208333D01*
X111697857Y-115160714D01*
X111888333Y-115113095D01*
X112126428Y-115113095D01*
X112316904Y-115160714D01*
X112412142Y-115208333D01*
X112459761Y-115255952D01*
X112507380Y-115351190D01*
X112507380Y-115446428D01*
X112459761Y-115541666D01*
X112412142Y-115589285D01*
X112316904Y-115636904D01*
X112126428Y-115684523D01*
X111888333Y-115684523D01*
X111697857Y-115636904D01*
X111602619Y-115589285D01*
X111555000Y-115541666D01*
X111507380Y-115446428D01*
%TO.C,D3*%
X109514880Y-113768095D02*
X108514880Y-113768095D01*
X108514880Y-113530000D01*
X108562500Y-113387142D01*
X108657738Y-113291904D01*
X108752976Y-113244285D01*
X108943452Y-113196666D01*
X109086309Y-113196666D01*
X109276785Y-113244285D01*
X109372023Y-113291904D01*
X109467261Y-113387142D01*
X109514880Y-113530000D01*
X109514880Y-113768095D01*
X108514880Y-112863333D02*
X108514880Y-112244285D01*
X108895833Y-112577619D01*
X108895833Y-112434761D01*
X108943452Y-112339523D01*
X108991071Y-112291904D01*
X109086309Y-112244285D01*
X109324404Y-112244285D01*
X109419642Y-112291904D01*
X109467261Y-112339523D01*
X109514880Y-112434761D01*
X109514880Y-112720476D01*
X109467261Y-112815714D01*
X109419642Y-112863333D01*
%TO.C,R7*%
X103437380Y-116536666D02*
X102961190Y-116870000D01*
X103437380Y-117108095D02*
X102437380Y-117108095D01*
X102437380Y-116727142D01*
X102485000Y-116631904D01*
X102532619Y-116584285D01*
X102627857Y-116536666D01*
X102770714Y-116536666D01*
X102865952Y-116584285D01*
X102913571Y-116631904D01*
X102961190Y-116727142D01*
X102961190Y-117108095D01*
X102437380Y-116203333D02*
X102437380Y-115536666D01*
X103437380Y-115965238D01*
%TO.C,R9*%
X109514880Y-116541666D02*
X109038690Y-116875000D01*
X109514880Y-117113095D02*
X108514880Y-117113095D01*
X108514880Y-116732142D01*
X108562500Y-116636904D01*
X108610119Y-116589285D01*
X108705357Y-116541666D01*
X108848214Y-116541666D01*
X108943452Y-116589285D01*
X108991071Y-116636904D01*
X109038690Y-116732142D01*
X109038690Y-117113095D01*
X109514880Y-116065476D02*
X109514880Y-115875000D01*
X109467261Y-115779761D01*
X109419642Y-115732142D01*
X109276785Y-115636904D01*
X109086309Y-115589285D01*
X108705357Y-115589285D01*
X108610119Y-115636904D01*
X108562500Y-115684523D01*
X108514880Y-115779761D01*
X108514880Y-115970238D01*
X108562500Y-116065476D01*
X108610119Y-116113095D01*
X108705357Y-116160714D01*
X108943452Y-116160714D01*
X109038690Y-116113095D01*
X109086309Y-116065476D01*
X109133928Y-115970238D01*
X109133928Y-115779761D01*
X109086309Y-115684523D01*
X109038690Y-115636904D01*
X108943452Y-115589285D01*
%TO.C,D5*%
X103437380Y-113763095D02*
X102437380Y-113763095D01*
X102437380Y-113525000D01*
X102485000Y-113382142D01*
X102580238Y-113286904D01*
X102675476Y-113239285D01*
X102865952Y-113191666D01*
X103008809Y-113191666D01*
X103199285Y-113239285D01*
X103294523Y-113286904D01*
X103389761Y-113382142D01*
X103437380Y-113525000D01*
X103437380Y-113763095D01*
X102437380Y-112286904D02*
X102437380Y-112763095D01*
X102913571Y-112810714D01*
X102865952Y-112763095D01*
X102818333Y-112667857D01*
X102818333Y-112429761D01*
X102865952Y-112334523D01*
X102913571Y-112286904D01*
X103008809Y-112239285D01*
X103246904Y-112239285D01*
X103342142Y-112286904D01*
X103389761Y-112334523D01*
X103437380Y-112429761D01*
X103437380Y-112667857D01*
X103389761Y-112763095D01*
X103342142Y-112810714D01*
D15*
%TO.C,L5*%
X153276190Y-107033333D02*
X153276190Y-107271428D01*
X152776190Y-107271428D01*
X152776190Y-106628571D02*
X152776190Y-106866666D01*
X153014285Y-106890476D01*
X152990476Y-106866666D01*
X152966666Y-106819047D01*
X152966666Y-106700000D01*
X152990476Y-106652380D01*
X153014285Y-106628571D01*
X153061904Y-106604761D01*
X153180952Y-106604761D01*
X153228571Y-106628571D01*
X153252380Y-106652380D01*
X153276190Y-106700000D01*
X153276190Y-106819047D01*
X153252380Y-106866666D01*
X153228571Y-106890476D01*
D12*
%TO.C,J2*%
X136756666Y-66627380D02*
X136756666Y-67341666D01*
X136709047Y-67484523D01*
X136613809Y-67579761D01*
X136470952Y-67627380D01*
X136375714Y-67627380D01*
X137185238Y-66722619D02*
X137232857Y-66675000D01*
X137328095Y-66627380D01*
X137566190Y-66627380D01*
X137661428Y-66675000D01*
X137709047Y-66722619D01*
X137756666Y-66817857D01*
X137756666Y-66913095D01*
X137709047Y-67055952D01*
X137137619Y-67627380D01*
X137756666Y-67627380D01*
%TO.C,J1*%
X143056666Y-66627380D02*
X143056666Y-67341666D01*
X143009047Y-67484523D01*
X142913809Y-67579761D01*
X142770952Y-67627380D01*
X142675714Y-67627380D01*
X144056666Y-67627380D02*
X143485238Y-67627380D01*
X143770952Y-67627380D02*
X143770952Y-66627380D01*
X143675714Y-66770238D01*
X143580476Y-66865476D01*
X143485238Y-66913095D01*
D15*
%TO.C,C1*%
X138428571Y-85833333D02*
X138452380Y-85857142D01*
X138476190Y-85928571D01*
X138476190Y-85976190D01*
X138452380Y-86047619D01*
X138404761Y-86095238D01*
X138357142Y-86119047D01*
X138261904Y-86142857D01*
X138190476Y-86142857D01*
X138095238Y-86119047D01*
X138047619Y-86095238D01*
X138000000Y-86047619D01*
X137976190Y-85976190D01*
X137976190Y-85928571D01*
X138000000Y-85857142D01*
X138023809Y-85833333D01*
X138476190Y-85357142D02*
X138476190Y-85642857D01*
X138476190Y-85500000D02*
X137976190Y-85500000D01*
X138047619Y-85547619D01*
X138095238Y-85595238D01*
X138119047Y-85642857D01*
D12*
%TO.C,Y3*%
X101047448Y-61327088D02*
X101047448Y-61803604D01*
X100713886Y-60802919D02*
X101047448Y-61327088D01*
X101381010Y-60802919D01*
X101619268Y-60802919D02*
X102238740Y-60802919D01*
X101905178Y-61184133D01*
X102048133Y-61184133D01*
X102143436Y-61231784D01*
X102191088Y-61279436D01*
X102238740Y-61374739D01*
X102238740Y-61612998D01*
X102191088Y-61708301D01*
X102143436Y-61755953D01*
X102048133Y-61803604D01*
X101762223Y-61803604D01*
X101666920Y-61755953D01*
X101619268Y-61708301D01*
%TO.C,C24*%
X102357142Y-54357142D02*
X102309523Y-54404761D01*
X102166666Y-54452380D01*
X102071428Y-54452380D01*
X101928571Y-54404761D01*
X101833333Y-54309523D01*
X101785714Y-54214285D01*
X101738095Y-54023809D01*
X101738095Y-53880952D01*
X101785714Y-53690476D01*
X101833333Y-53595238D01*
X101928571Y-53500000D01*
X102071428Y-53452380D01*
X102166666Y-53452380D01*
X102309523Y-53500000D01*
X102357142Y-53547619D01*
X102738095Y-53547619D02*
X102785714Y-53500000D01*
X102880952Y-53452380D01*
X103119047Y-53452380D01*
X103214285Y-53500000D01*
X103261904Y-53547619D01*
X103309523Y-53642857D01*
X103309523Y-53738095D01*
X103261904Y-53880952D01*
X102690476Y-54452380D01*
X103309523Y-54452380D01*
X104166666Y-53785714D02*
X104166666Y-54452380D01*
X103928571Y-53404761D02*
X103690476Y-54119047D01*
X104309523Y-54119047D01*
%TO.C,C23*%
X98757142Y-93342857D02*
X98804761Y-93390476D01*
X98852380Y-93533333D01*
X98852380Y-93628571D01*
X98804761Y-93771428D01*
X98709523Y-93866666D01*
X98614285Y-93914285D01*
X98423809Y-93961904D01*
X98280952Y-93961904D01*
X98090476Y-93914285D01*
X97995238Y-93866666D01*
X97900000Y-93771428D01*
X97852380Y-93628571D01*
X97852380Y-93533333D01*
X97900000Y-93390476D01*
X97947619Y-93342857D01*
X97947619Y-92961904D02*
X97900000Y-92914285D01*
X97852380Y-92819047D01*
X97852380Y-92580952D01*
X97900000Y-92485714D01*
X97947619Y-92438095D01*
X98042857Y-92390476D01*
X98138095Y-92390476D01*
X98280952Y-92438095D01*
X98852380Y-93009523D01*
X98852380Y-92390476D01*
X97852380Y-92057142D02*
X97852380Y-91438095D01*
X98233333Y-91771428D01*
X98233333Y-91628571D01*
X98280952Y-91533333D01*
X98328571Y-91485714D01*
X98423809Y-91438095D01*
X98661904Y-91438095D01*
X98757142Y-91485714D01*
X98804761Y-91533333D01*
X98852380Y-91628571D01*
X98852380Y-91914285D01*
X98804761Y-92009523D01*
X98757142Y-92057142D01*
%TO.C,SW1*%
X100716666Y-85054761D02*
X100859523Y-85102380D01*
X101097619Y-85102380D01*
X101192857Y-85054761D01*
X101240476Y-85007142D01*
X101288095Y-84911904D01*
X101288095Y-84816666D01*
X101240476Y-84721428D01*
X101192857Y-84673809D01*
X101097619Y-84626190D01*
X100907142Y-84578571D01*
X100811904Y-84530952D01*
X100764285Y-84483333D01*
X100716666Y-84388095D01*
X100716666Y-84292857D01*
X100764285Y-84197619D01*
X100811904Y-84150000D01*
X100907142Y-84102380D01*
X101145238Y-84102380D01*
X101288095Y-84150000D01*
X101621428Y-84102380D02*
X101859523Y-85102380D01*
X102050000Y-84388095D01*
X102240476Y-85102380D01*
X102478571Y-84102380D01*
X103383333Y-85102380D02*
X102811904Y-85102380D01*
X103097619Y-85102380D02*
X103097619Y-84102380D01*
X103002380Y-84245238D01*
X102907142Y-84340476D01*
X102811904Y-84388095D01*
%TO.C,JP1*%
X129266666Y-56502380D02*
X129266666Y-57216666D01*
X129219047Y-57359523D01*
X129123809Y-57454761D01*
X128980952Y-57502380D01*
X128885714Y-57502380D01*
X129742857Y-57502380D02*
X129742857Y-56502380D01*
X130123809Y-56502380D01*
X130219047Y-56550000D01*
X130266666Y-56597619D01*
X130314285Y-56692857D01*
X130314285Y-56835714D01*
X130266666Y-56930952D01*
X130219047Y-56978571D01*
X130123809Y-57026190D01*
X129742857Y-57026190D01*
X131266666Y-57502380D02*
X130695238Y-57502380D01*
X130980952Y-57502380D02*
X130980952Y-56502380D01*
X130885714Y-56645238D01*
X130790476Y-56740476D01*
X130695238Y-56788095D01*
%TO.C,D2*%
X112507380Y-113768095D02*
X111507380Y-113768095D01*
X111507380Y-113530000D01*
X111555000Y-113387142D01*
X111650238Y-113291904D01*
X111745476Y-113244285D01*
X111935952Y-113196666D01*
X112078809Y-113196666D01*
X112269285Y-113244285D01*
X112364523Y-113291904D01*
X112459761Y-113387142D01*
X112507380Y-113530000D01*
X112507380Y-113768095D01*
X111602619Y-112815714D02*
X111555000Y-112768095D01*
X111507380Y-112672857D01*
X111507380Y-112434761D01*
X111555000Y-112339523D01*
X111602619Y-112291904D01*
X111697857Y-112244285D01*
X111793095Y-112244285D01*
X111935952Y-112291904D01*
X112507380Y-112863333D01*
X112507380Y-112244285D01*
D15*
%TO.C,C33*%
X100023553Y-65691015D02*
X100057225Y-65691015D01*
X100124568Y-65724687D01*
X100158240Y-65758358D01*
X100191912Y-65825702D01*
X100191912Y-65893045D01*
X100175076Y-65943553D01*
X100124568Y-66027732D01*
X100074061Y-66078240D01*
X99989881Y-66128748D01*
X99939374Y-66145583D01*
X99872030Y-66145583D01*
X99804687Y-66111912D01*
X99771015Y-66078240D01*
X99737343Y-66010896D01*
X99737343Y-65977225D01*
X99585820Y-65893045D02*
X99366954Y-65674179D01*
X99619492Y-65657343D01*
X99568984Y-65606835D01*
X99552148Y-65556328D01*
X99552148Y-65522656D01*
X99568984Y-65472148D01*
X99653164Y-65387969D01*
X99703671Y-65371133D01*
X99737343Y-65371133D01*
X99787851Y-65387969D01*
X99888866Y-65488984D01*
X99905702Y-65539492D01*
X99905702Y-65573164D01*
X99249103Y-65556328D02*
X99030236Y-65337461D01*
X99282774Y-65320625D01*
X99232267Y-65270118D01*
X99215431Y-65219610D01*
X99215431Y-65185938D01*
X99232267Y-65135431D01*
X99316446Y-65051251D01*
X99366954Y-65034416D01*
X99400625Y-65034416D01*
X99451133Y-65051251D01*
X99552148Y-65152267D01*
X99568984Y-65202774D01*
X99568984Y-65236446D01*
%TO.C,C5*%
X138428571Y-90093333D02*
X138452380Y-90117142D01*
X138476190Y-90188571D01*
X138476190Y-90236190D01*
X138452380Y-90307619D01*
X138404761Y-90355238D01*
X138357142Y-90379047D01*
X138261904Y-90402857D01*
X138190476Y-90402857D01*
X138095238Y-90379047D01*
X138047619Y-90355238D01*
X138000000Y-90307619D01*
X137976190Y-90236190D01*
X137976190Y-90188571D01*
X138000000Y-90117142D01*
X138023809Y-90093333D01*
X137976190Y-89640952D02*
X137976190Y-89879047D01*
X138214285Y-89902857D01*
X138190476Y-89879047D01*
X138166666Y-89831428D01*
X138166666Y-89712380D01*
X138190476Y-89664761D01*
X138214285Y-89640952D01*
X138261904Y-89617142D01*
X138380952Y-89617142D01*
X138428571Y-89640952D01*
X138452380Y-89664761D01*
X138476190Y-89712380D01*
X138476190Y-89831428D01*
X138452380Y-89879047D01*
X138428571Y-89902857D01*
%TO.C,L10*%
X150956190Y-102101428D02*
X150956190Y-102339523D01*
X150456190Y-102339523D01*
X150956190Y-101672857D02*
X150956190Y-101958571D01*
X150956190Y-101815714D02*
X150456190Y-101815714D01*
X150527619Y-101863333D01*
X150575238Y-101910952D01*
X150599047Y-101958571D01*
X150456190Y-101363333D02*
X150456190Y-101315714D01*
X150480000Y-101268095D01*
X150503809Y-101244285D01*
X150551428Y-101220476D01*
X150646666Y-101196666D01*
X150765714Y-101196666D01*
X150860952Y-101220476D01*
X150908571Y-101244285D01*
X150932380Y-101268095D01*
X150956190Y-101315714D01*
X150956190Y-101363333D01*
X150932380Y-101410952D01*
X150908571Y-101434761D01*
X150860952Y-101458571D01*
X150765714Y-101482380D01*
X150646666Y-101482380D01*
X150551428Y-101458571D01*
X150503809Y-101434761D01*
X150480000Y-101410952D01*
X150456190Y-101363333D01*
%TO.C,C19*%
X153778571Y-90371428D02*
X153802380Y-90395238D01*
X153826190Y-90466666D01*
X153826190Y-90514285D01*
X153802380Y-90585714D01*
X153754761Y-90633333D01*
X153707142Y-90657142D01*
X153611904Y-90680952D01*
X153540476Y-90680952D01*
X153445238Y-90657142D01*
X153397619Y-90633333D01*
X153350000Y-90585714D01*
X153326190Y-90514285D01*
X153326190Y-90466666D01*
X153350000Y-90395238D01*
X153373809Y-90371428D01*
X153826190Y-89895238D02*
X153826190Y-90180952D01*
X153826190Y-90038095D02*
X153326190Y-90038095D01*
X153397619Y-90085714D01*
X153445238Y-90133333D01*
X153469047Y-90180952D01*
X153826190Y-89657142D02*
X153826190Y-89561904D01*
X153802380Y-89514285D01*
X153778571Y-89490476D01*
X153707142Y-89442857D01*
X153611904Y-89419047D01*
X153421428Y-89419047D01*
X153373809Y-89442857D01*
X153350000Y-89466666D01*
X153326190Y-89514285D01*
X153326190Y-89609523D01*
X153350000Y-89657142D01*
X153373809Y-89680952D01*
X153421428Y-89704761D01*
X153540476Y-89704761D01*
X153588095Y-89680952D01*
X153611904Y-89657142D01*
X153635714Y-89609523D01*
X153635714Y-89514285D01*
X153611904Y-89466666D01*
X153588095Y-89442857D01*
X153540476Y-89419047D01*
D12*
%TO.C,D7*%
X152522380Y-74313095D02*
X151522380Y-74313095D01*
X151522380Y-74075000D01*
X151570000Y-73932142D01*
X151665238Y-73836904D01*
X151760476Y-73789285D01*
X151950952Y-73741666D01*
X152093809Y-73741666D01*
X152284285Y-73789285D01*
X152379523Y-73836904D01*
X152474761Y-73932142D01*
X152522380Y-74075000D01*
X152522380Y-74313095D01*
X151522380Y-73408333D02*
X151522380Y-72741666D01*
X152522380Y-73170238D01*
%TO.C,R3*%
X144472380Y-59601666D02*
X143996190Y-59935000D01*
X144472380Y-60173095D02*
X143472380Y-60173095D01*
X143472380Y-59792142D01*
X143520000Y-59696904D01*
X143567619Y-59649285D01*
X143662857Y-59601666D01*
X143805714Y-59601666D01*
X143900952Y-59649285D01*
X143948571Y-59696904D01*
X143996190Y-59792142D01*
X143996190Y-60173095D01*
X143472380Y-59268333D02*
X143472380Y-58649285D01*
X143853333Y-58982619D01*
X143853333Y-58839761D01*
X143900952Y-58744523D01*
X143948571Y-58696904D01*
X144043809Y-58649285D01*
X144281904Y-58649285D01*
X144377142Y-58696904D01*
X144424761Y-58744523D01*
X144472380Y-58839761D01*
X144472380Y-59125476D01*
X144424761Y-59220714D01*
X144377142Y-59268333D01*
%TO.C,J4*%
X143966666Y-54172380D02*
X143966666Y-54886666D01*
X143919047Y-55029523D01*
X143823809Y-55124761D01*
X143680952Y-55172380D01*
X143585714Y-55172380D01*
X144871428Y-54505714D02*
X144871428Y-55172380D01*
X144633333Y-54124761D02*
X144395238Y-54839047D01*
X145014285Y-54839047D01*
%TO.C,C14*%
X145737142Y-66642142D02*
X145689523Y-66689761D01*
X145546666Y-66737380D01*
X145451428Y-66737380D01*
X145308571Y-66689761D01*
X145213333Y-66594523D01*
X145165714Y-66499285D01*
X145118095Y-66308809D01*
X145118095Y-66165952D01*
X145165714Y-65975476D01*
X145213333Y-65880238D01*
X145308571Y-65785000D01*
X145451428Y-65737380D01*
X145546666Y-65737380D01*
X145689523Y-65785000D01*
X145737142Y-65832619D01*
X146689523Y-66737380D02*
X146118095Y-66737380D01*
X146403809Y-66737380D02*
X146403809Y-65737380D01*
X146308571Y-65880238D01*
X146213333Y-65975476D01*
X146118095Y-66023095D01*
X147546666Y-66070714D02*
X147546666Y-66737380D01*
X147308571Y-65689761D02*
X147070476Y-66404047D01*
X147689523Y-66404047D01*
%TO.C,D1*%
X142722380Y-66723095D02*
X141722380Y-66723095D01*
X141722380Y-66485000D01*
X141770000Y-66342142D01*
X141865238Y-66246904D01*
X141960476Y-66199285D01*
X142150952Y-66151666D01*
X142293809Y-66151666D01*
X142484285Y-66199285D01*
X142579523Y-66246904D01*
X142674761Y-66342142D01*
X142722380Y-66485000D01*
X142722380Y-66723095D01*
X142722380Y-65199285D02*
X142722380Y-65770714D01*
X142722380Y-65485000D02*
X141722380Y-65485000D01*
X141865238Y-65580238D01*
X141960476Y-65675476D01*
X142008095Y-65770714D01*
%TO.C,C13*%
X154157142Y-66972857D02*
X154204761Y-67020476D01*
X154252380Y-67163333D01*
X154252380Y-67258571D01*
X154204761Y-67401428D01*
X154109523Y-67496666D01*
X154014285Y-67544285D01*
X153823809Y-67591904D01*
X153680952Y-67591904D01*
X153490476Y-67544285D01*
X153395238Y-67496666D01*
X153300000Y-67401428D01*
X153252380Y-67258571D01*
X153252380Y-67163333D01*
X153300000Y-67020476D01*
X153347619Y-66972857D01*
X154252380Y-66020476D02*
X154252380Y-66591904D01*
X154252380Y-66306190D02*
X153252380Y-66306190D01*
X153395238Y-66401428D01*
X153490476Y-66496666D01*
X153538095Y-66591904D01*
X153252380Y-65687142D02*
X153252380Y-65068095D01*
X153633333Y-65401428D01*
X153633333Y-65258571D01*
X153680952Y-65163333D01*
X153728571Y-65115714D01*
X153823809Y-65068095D01*
X154061904Y-65068095D01*
X154157142Y-65115714D01*
X154204761Y-65163333D01*
X154252380Y-65258571D01*
X154252380Y-65544285D01*
X154204761Y-65639523D01*
X154157142Y-65687142D01*
%TO.C,R13*%
X152522380Y-78142857D02*
X152046190Y-78476190D01*
X152522380Y-78714285D02*
X151522380Y-78714285D01*
X151522380Y-78333333D01*
X151570000Y-78238095D01*
X151617619Y-78190476D01*
X151712857Y-78142857D01*
X151855714Y-78142857D01*
X151950952Y-78190476D01*
X151998571Y-78238095D01*
X152046190Y-78333333D01*
X152046190Y-78714285D01*
X152522380Y-77190476D02*
X152522380Y-77761904D01*
X152522380Y-77476190D02*
X151522380Y-77476190D01*
X151665238Y-77571428D01*
X151760476Y-77666666D01*
X151808095Y-77761904D01*
X151522380Y-76857142D02*
X151522380Y-76238095D01*
X151903333Y-76571428D01*
X151903333Y-76428571D01*
X151950952Y-76333333D01*
X151998571Y-76285714D01*
X152093809Y-76238095D01*
X152331904Y-76238095D01*
X152427142Y-76285714D01*
X152474761Y-76333333D01*
X152522380Y-76428571D01*
X152522380Y-76714285D01*
X152474761Y-76809523D01*
X152427142Y-76857142D01*
%TO.C,R2*%
X144472380Y-65251666D02*
X143996190Y-65585000D01*
X144472380Y-65823095D02*
X143472380Y-65823095D01*
X143472380Y-65442142D01*
X143520000Y-65346904D01*
X143567619Y-65299285D01*
X143662857Y-65251666D01*
X143805714Y-65251666D01*
X143900952Y-65299285D01*
X143948571Y-65346904D01*
X143996190Y-65442142D01*
X143996190Y-65823095D01*
X143567619Y-64870714D02*
X143520000Y-64823095D01*
X143472380Y-64727857D01*
X143472380Y-64489761D01*
X143520000Y-64394523D01*
X143567619Y-64346904D01*
X143662857Y-64299285D01*
X143758095Y-64299285D01*
X143900952Y-64346904D01*
X144472380Y-64918333D01*
X144472380Y-64299285D01*
D15*
%TO.C,C38*%
X96953553Y-68601016D02*
X96987225Y-68601016D01*
X97054568Y-68634688D01*
X97088240Y-68668359D01*
X97121912Y-68735703D01*
X97121912Y-68803046D01*
X97105076Y-68853554D01*
X97054568Y-68937733D01*
X97004061Y-68988241D01*
X96919881Y-69038749D01*
X96869374Y-69055584D01*
X96802030Y-69055584D01*
X96734687Y-69021913D01*
X96701015Y-68988241D01*
X96667343Y-68920897D01*
X96667343Y-68887226D01*
X96515820Y-68803046D02*
X96296954Y-68584180D01*
X96549492Y-68567344D01*
X96498984Y-68516836D01*
X96482148Y-68466329D01*
X96482148Y-68432657D01*
X96498984Y-68382149D01*
X96583164Y-68297970D01*
X96633671Y-68281134D01*
X96667343Y-68281134D01*
X96717851Y-68297970D01*
X96818866Y-68398985D01*
X96835702Y-68449493D01*
X96835702Y-68483165D01*
X96246446Y-68230626D02*
X96263282Y-68281134D01*
X96263282Y-68314806D01*
X96246446Y-68365313D01*
X96229610Y-68382149D01*
X96179103Y-68398985D01*
X96145431Y-68398985D01*
X96094923Y-68382149D01*
X96027580Y-68314806D01*
X96010744Y-68264298D01*
X96010744Y-68230626D01*
X96027580Y-68180119D01*
X96044416Y-68163283D01*
X96094923Y-68146447D01*
X96128595Y-68146447D01*
X96179103Y-68163283D01*
X96246446Y-68230626D01*
X96296954Y-68247462D01*
X96330625Y-68247462D01*
X96381133Y-68230626D01*
X96448477Y-68163283D01*
X96465312Y-68112775D01*
X96465312Y-68079104D01*
X96448477Y-68028596D01*
X96381133Y-67961252D01*
X96330625Y-67944417D01*
X96296954Y-67944417D01*
X96246446Y-67961252D01*
X96179103Y-68028596D01*
X96162267Y-68079104D01*
X96162267Y-68112775D01*
X96179103Y-68163283D01*
D12*
%TO.C,R11*%
X103532380Y-93342857D02*
X103056190Y-93676190D01*
X103532380Y-93914285D02*
X102532380Y-93914285D01*
X102532380Y-93533333D01*
X102580000Y-93438095D01*
X102627619Y-93390476D01*
X102722857Y-93342857D01*
X102865714Y-93342857D01*
X102960952Y-93390476D01*
X103008571Y-93438095D01*
X103056190Y-93533333D01*
X103056190Y-93914285D01*
X103532380Y-92390476D02*
X103532380Y-92961904D01*
X103532380Y-92676190D02*
X102532380Y-92676190D01*
X102675238Y-92771428D01*
X102770476Y-92866666D01*
X102818095Y-92961904D01*
X103532380Y-91438095D02*
X103532380Y-92009523D01*
X103532380Y-91723809D02*
X102532380Y-91723809D01*
X102675238Y-91819047D01*
X102770476Y-91914285D01*
X102818095Y-92009523D01*
D15*
%TO.C,C37*%
X125636360Y-63551061D02*
X125703704Y-63551061D01*
X125838391Y-63618405D01*
X125905734Y-63685748D01*
X125973078Y-63820435D01*
X125973078Y-63955122D01*
X125939406Y-64056137D01*
X125838391Y-64224496D01*
X125737376Y-64325511D01*
X125569017Y-64426527D01*
X125468002Y-64460198D01*
X125333315Y-64460198D01*
X125198628Y-64392855D01*
X125131284Y-64325511D01*
X125063941Y-64190824D01*
X125063941Y-64123481D01*
X124760895Y-63955122D02*
X124323162Y-63517389D01*
X124828238Y-63483718D01*
X124727223Y-63382702D01*
X124693551Y-63281687D01*
X124693551Y-63214343D01*
X124727223Y-63113328D01*
X124895582Y-62944969D01*
X124996597Y-62911298D01*
X125063941Y-62911298D01*
X125164956Y-62944969D01*
X125366986Y-63147000D01*
X125400658Y-63248015D01*
X125400658Y-63315359D01*
X124087460Y-63281687D02*
X123616055Y-62810282D01*
X124626208Y-62406221D01*
D12*
%TO.C,U4*%
X149458095Y-58837380D02*
X149458095Y-59646904D01*
X149505714Y-59742142D01*
X149553333Y-59789761D01*
X149648571Y-59837380D01*
X149839047Y-59837380D01*
X149934285Y-59789761D01*
X149981904Y-59742142D01*
X150029523Y-59646904D01*
X150029523Y-58837380D01*
X150934285Y-59170714D02*
X150934285Y-59837380D01*
X150696190Y-58789761D02*
X150458095Y-59504047D01*
X151077142Y-59504047D01*
%TO.C,FB1*%
X138416666Y-62678571D02*
X138083333Y-62678571D01*
X138083333Y-63202380D02*
X138083333Y-62202380D01*
X138559523Y-62202380D01*
X139273809Y-62678571D02*
X139416666Y-62726190D01*
X139464285Y-62773809D01*
X139511904Y-62869047D01*
X139511904Y-63011904D01*
X139464285Y-63107142D01*
X139416666Y-63154761D01*
X139321428Y-63202380D01*
X138940476Y-63202380D01*
X138940476Y-62202380D01*
X139273809Y-62202380D01*
X139369047Y-62250000D01*
X139416666Y-62297619D01*
X139464285Y-62392857D01*
X139464285Y-62488095D01*
X139416666Y-62583333D01*
X139369047Y-62630952D01*
X139273809Y-62678571D01*
X138940476Y-62678571D01*
X140464285Y-63202380D02*
X139892857Y-63202380D01*
X140178571Y-63202380D02*
X140178571Y-62202380D01*
X140083333Y-62345238D01*
X139988095Y-62440476D01*
X139892857Y-62488095D01*
D16*
%TO.C,IC1*%
X114782893Y-72080394D02*
X113884868Y-72978419D01*
X113756578Y-71225131D02*
X113842104Y-71225131D01*
X114013157Y-71310658D01*
X114098683Y-71396184D01*
X114184209Y-71567236D01*
X114184209Y-71738289D01*
X114141446Y-71866578D01*
X114013157Y-72080394D01*
X113884868Y-72208683D01*
X113671052Y-72336973D01*
X113542763Y-72379736D01*
X113371710Y-72379736D01*
X113200658Y-72294209D01*
X113115131Y-72208683D01*
X113029605Y-72037631D01*
X113029605Y-71952104D01*
X112986842Y-70284343D02*
X113499999Y-70797500D01*
X113243421Y-70540921D02*
X112345395Y-71438947D01*
X112559211Y-71396184D01*
X112730263Y-71396184D01*
X112858553Y-71438947D01*
D12*
%TO.C,R12*%
X122863287Y-61128119D02*
X122762272Y-61700538D01*
X123267348Y-61532180D02*
X122560241Y-62239286D01*
X122290867Y-61969912D01*
X122257195Y-61868897D01*
X122257195Y-61801554D01*
X122290867Y-61700538D01*
X122391882Y-61599523D01*
X122492898Y-61565851D01*
X122560241Y-61565851D01*
X122661256Y-61599523D01*
X122930630Y-61868897D01*
X122189852Y-60454683D02*
X122593913Y-60858744D01*
X122391882Y-60656714D02*
X121684775Y-61363821D01*
X121853134Y-61330149D01*
X121987821Y-61330149D01*
X122088837Y-61363821D01*
X121280714Y-60825073D02*
X121213371Y-60825073D01*
X121112356Y-60791401D01*
X120943997Y-60623042D01*
X120910325Y-60522027D01*
X120910325Y-60454683D01*
X120943997Y-60353668D01*
X121011340Y-60286325D01*
X121146027Y-60218981D01*
X121954149Y-60218981D01*
X121516417Y-59781248D01*
D18*
%TO.C,C25*%
X97896338Y-56412657D02*
X98188872Y-56412657D01*
X97896338Y-55392657D02*
X98188872Y-55392657D01*
%TO.C,C27*%
X109596267Y-86140000D02*
X109303733Y-86140000D01*
X109596267Y-87160000D02*
X109303733Y-87160000D01*
%TO.C,C28*%
X129235949Y-73942802D02*
X129442802Y-73735949D01*
X129957198Y-74664051D02*
X130164051Y-74457198D01*
%TO.C,C30*%
X119073042Y-85615709D02*
X118866189Y-85822562D01*
X119794291Y-86336958D02*
X119587438Y-86543811D01*
%TO.C,C31*%
X120132922Y-86695829D02*
X119926069Y-86902682D01*
X120854171Y-87417078D02*
X120647318Y-87623931D01*
%TO.C,C32*%
X100184051Y-77867198D02*
X99977198Y-78074051D01*
X99462802Y-77145949D02*
X99255949Y-77352802D01*
%TO.C,C35*%
X109730000Y-56456267D02*
X109730000Y-56163733D01*
X108710000Y-56456267D02*
X108710000Y-56163733D01*
%TO.C,R4*%
X122170000Y-56321267D02*
X122170000Y-55978733D01*
X121150000Y-56321267D02*
X121150000Y-55978733D01*
%TO.C,R5*%
X119900000Y-56271267D02*
X119900000Y-55928733D01*
X118880000Y-56271267D02*
X118880000Y-55928733D01*
D19*
%TO.C,J5*%
X80060000Y-131390000D02*
X80060000Y-62070000D01*
X74260000Y-73870000D02*
X74260000Y-119590000D01*
X80060000Y-63710000D02*
X74260000Y-63710000D01*
X74260000Y-124670000D02*
X74260000Y-129750000D01*
X74260000Y-63710000D02*
X74260000Y-68790000D01*
X74260000Y-68790000D02*
X80060000Y-68790000D01*
D11*
X95100000Y-71800000D02*
X95100000Y-71800000D01*
D19*
X80060000Y-124670000D02*
X74260000Y-124670000D01*
X74260000Y-119590000D02*
X80060000Y-119590000D01*
D11*
X95200000Y-71800000D02*
X95200000Y-71800000D01*
D19*
X74260000Y-129750000D02*
X80060000Y-129750000D01*
X80060000Y-62070000D02*
X88860000Y-62070000D01*
X88860000Y-131390000D02*
X80060000Y-131390000D01*
X94660000Y-62070000D02*
X94660000Y-131390000D01*
X80060000Y-73870000D02*
X74260000Y-73870000D01*
D11*
X95100000Y-71800000D02*
G75*
G03*
X95200000Y-71800000I50000J0D01*
G01*
X95200000Y-71800000D02*
G75*
G03*
X95100000Y-71800000I-50000J0D01*
G01*
D18*
%TO.C,C34*%
X106805000Y-56478767D02*
X106805000Y-56186233D01*
X107825000Y-56478767D02*
X107825000Y-56186233D01*
%TO.C,C26*%
X117760000Y-56296267D02*
X117760000Y-56003733D01*
X116740000Y-56296267D02*
X116740000Y-56003733D01*
%TO.C,C29*%
X129696233Y-70620000D02*
X129988767Y-70620000D01*
X129696233Y-69600000D02*
X129988767Y-69600000D01*
%TO.C,U5*%
X130700000Y-57815000D02*
X131500000Y-57815000D01*
X130700000Y-57815000D02*
X128900000Y-57815000D01*
X130700000Y-60935000D02*
X131500000Y-60935000D01*
X130700000Y-60935000D02*
X129900000Y-60935000D01*
%TO.C,C2*%
X126210000Y-88161234D02*
X126210000Y-88453768D01*
X127230000Y-88161234D02*
X127230000Y-88453768D01*
%TO.C,C3*%
X136940000Y-87987164D02*
X136940000Y-88202836D01*
X137660000Y-87987164D02*
X137660000Y-88202836D01*
%TO.C,C12*%
X153380000Y-104422164D02*
X153380000Y-104637836D01*
X152660000Y-104422164D02*
X152660000Y-104637836D01*
%TO.C,C15*%
X152900000Y-85622164D02*
X152900000Y-85837836D01*
X152180000Y-85622164D02*
X152180000Y-85837836D01*
%TO.C,C17*%
X152180000Y-87987164D02*
X152180000Y-88202836D01*
X152900000Y-87987164D02*
X152900000Y-88202836D01*
%TO.C,U1*%
X132040000Y-85265000D02*
X132765000Y-85265000D01*
X132040000Y-88760000D02*
X132040000Y-89485000D01*
X136260000Y-89485000D02*
X135535000Y-89485000D01*
X136260000Y-88760000D02*
X136260000Y-89485000D01*
X136260000Y-85990000D02*
X136260000Y-85265000D01*
X136260000Y-85265000D02*
X135535000Y-85265000D01*
X132040000Y-85990000D02*
X132040000Y-85265000D01*
%TO.C,C7*%
X133040000Y-94187164D02*
X133040000Y-94402836D01*
X133760000Y-94187164D02*
X133760000Y-94402836D01*
%TO.C,C8*%
X133540000Y-96137164D02*
X133540000Y-96352836D01*
X134260000Y-96137164D02*
X134260000Y-96352836D01*
%TO.C,C6*%
X135970000Y-93062836D02*
X135970000Y-92847164D01*
X135250000Y-93062836D02*
X135250000Y-92847164D01*
D20*
%TO.C,Y1*%
X127740000Y-89620000D02*
X127740000Y-83620000D01*
X131240000Y-83620000D02*
X131240000Y-89620000D01*
D18*
%TO.C,C18*%
X142480000Y-85078767D02*
X142480000Y-84786233D01*
X141460000Y-85078767D02*
X141460000Y-84786233D01*
%TO.C,C4*%
X126209999Y-85078767D02*
X126209999Y-84786233D01*
X127229999Y-85078767D02*
X127229999Y-84786233D01*
%TO.C,C11*%
X148332164Y-104935000D02*
X148547836Y-104935000D01*
X148332164Y-105655000D02*
X148547836Y-105655000D01*
%TO.C,C21*%
X151252164Y-100840000D02*
X151467836Y-100840000D01*
X151252164Y-100120000D02*
X151467836Y-100120000D01*
%TO.C,C22*%
X148547836Y-102755000D02*
X148332164Y-102755000D01*
X148547836Y-102035000D02*
X148332164Y-102035000D01*
%TO.C,R1*%
X151600000Y-108728641D02*
X151600000Y-108421359D01*
X152360000Y-108728641D02*
X152360000Y-108421359D01*
%TO.C,U2*%
X148040000Y-107095000D02*
X148040000Y-110095000D01*
X151260000Y-108595000D02*
X151260000Y-110095000D01*
%TO.C,C9*%
X133250000Y-108512836D02*
X133250000Y-108297164D01*
X132530000Y-108512836D02*
X132530000Y-108297164D01*
%TO.C,C10*%
X135270000Y-109372836D02*
X135270000Y-109157164D01*
X134550000Y-109372836D02*
X134550000Y-109157164D01*
%TO.C,C20*%
X150260000Y-92854664D02*
X150260000Y-93070336D01*
X149540000Y-92854664D02*
X149540000Y-93070336D01*
D20*
%TO.C,Y2*%
X146490000Y-83620000D02*
X146490000Y-89620000D01*
X142990000Y-89620000D02*
X142990000Y-83620000D01*
D18*
%TO.C,U6*%
X151510000Y-88760000D02*
X151510000Y-89485000D01*
X151510000Y-85265000D02*
X150785000Y-85265000D01*
X147290000Y-85990000D02*
X147290000Y-85265000D01*
X147290000Y-85265000D02*
X148015000Y-85265000D01*
X151510000Y-89485000D02*
X150785000Y-89485000D01*
X151510000Y-85990000D02*
X151510000Y-85265000D01*
X147290000Y-88760000D02*
X147290000Y-89485000D01*
%TO.C,C16*%
X141460000Y-88171233D02*
X141460000Y-88463767D01*
X142480000Y-88171233D02*
X142480000Y-88463767D01*
%TO.C,D4*%
X108235000Y-114690000D02*
X108235000Y-112230000D01*
X106765000Y-112230000D02*
X106765000Y-114690000D01*
X106765000Y-114690000D02*
X108235000Y-114690000D01*
%TO.C,D6*%
X102250000Y-114690000D02*
X102250000Y-112230000D01*
X100780000Y-114690000D02*
X102250000Y-114690000D01*
X100780000Y-112230000D02*
X100780000Y-114690000D01*
%TO.C,R6*%
X101005000Y-116546267D02*
X101005000Y-116203733D01*
X102025000Y-116546267D02*
X102025000Y-116203733D01*
%TO.C,R8*%
X106990000Y-116546267D02*
X106990000Y-116203733D01*
X108010000Y-116546267D02*
X108010000Y-116203733D01*
%TO.C,R10*%
X113995000Y-116546267D02*
X113995000Y-116203733D01*
X112975000Y-116546267D02*
X112975000Y-116203733D01*
%TO.C,D3*%
X111227500Y-114690000D02*
X111227500Y-112230000D01*
X109757500Y-112230000D02*
X109757500Y-114690000D01*
X109757500Y-114690000D02*
X111227500Y-114690000D01*
%TO.C,R7*%
X104925000Y-116541267D02*
X104925000Y-116198733D01*
X103905000Y-116541267D02*
X103905000Y-116198733D01*
%TO.C,R9*%
X109982500Y-116546267D02*
X109982500Y-116203733D01*
X111002500Y-116546267D02*
X111002500Y-116203733D01*
%TO.C,D5*%
X103680000Y-114685000D02*
X105150000Y-114685000D01*
X105150000Y-114685000D02*
X105150000Y-112225000D01*
X103680000Y-112225000D02*
X103680000Y-114685000D01*
%TO.C,J2*%
X139520000Y-75905000D02*
X139520000Y-68225000D01*
X134320000Y-78505000D02*
X134320000Y-68225000D01*
X139520000Y-78505000D02*
X138190000Y-78505000D01*
X139520000Y-75905000D02*
X136920000Y-75905000D01*
X136920000Y-75905000D02*
X136920000Y-78505000D01*
X139520000Y-68225000D02*
X134320000Y-68225000D01*
X136920000Y-78505000D02*
X134320000Y-78505000D01*
X139520000Y-77175000D02*
X139520000Y-78505000D01*
%TO.C,J1*%
X143620000Y-78485001D02*
X141020000Y-78485001D01*
X146220000Y-68205001D02*
X141020000Y-68205001D01*
X143620000Y-75885001D02*
X143620000Y-78485001D01*
X146220000Y-77155001D02*
X146220000Y-78485001D01*
X146220000Y-75885001D02*
X143620000Y-75885001D01*
X141020000Y-78485001D02*
X141020000Y-68205001D01*
X146220000Y-75885001D02*
X146220000Y-68205001D01*
X146220000Y-78485001D02*
X144890000Y-78485001D01*
%TO.C,C1*%
X137660000Y-85622121D02*
X137660000Y-85837793D01*
X136940000Y-85622121D02*
X136940000Y-85837793D01*
D20*
%TO.C,Y3*%
X102749127Y-60463406D02*
X96749127Y-60463406D01*
X96749127Y-56963406D02*
X102749127Y-56963406D01*
D18*
%TO.C,C24*%
X101590394Y-55392656D02*
X101297860Y-55392656D01*
X101590394Y-56412656D02*
X101297860Y-56412656D01*
%TO.C,C23*%
X100360000Y-92553733D02*
X100360000Y-92846267D01*
X99340000Y-92553733D02*
X99340000Y-92846267D01*
%TO.C,SW1*%
X102005275Y-79988795D02*
X101984062Y-80010008D01*
X102026488Y-89103402D02*
X102005275Y-89124615D01*
X106573185Y-84556705D02*
X102005275Y-79988795D01*
X103369991Y-87759899D02*
X105208469Y-85921421D01*
X102005275Y-89124615D02*
X97437365Y-84556705D01*
X98802081Y-83191989D02*
X100640559Y-81353511D01*
X97437365Y-84556705D02*
X97458578Y-84535492D01*
X106573185Y-84556705D02*
X106551972Y-84577918D01*
%TO.C,JP1*%
X128840000Y-53740000D02*
X123700000Y-53740000D01*
X131440000Y-53740000D02*
X131440000Y-55070000D01*
X128840000Y-53740000D02*
X128840000Y-56400000D01*
X123700000Y-53740000D02*
X123700000Y-56400000D01*
X130110000Y-53740000D02*
X131440000Y-53740000D01*
X128840000Y-56400000D02*
X123700000Y-56400000D01*
%TO.C,D2*%
X114220000Y-114690000D02*
X114220000Y-112230000D01*
X112750000Y-112230000D02*
X112750000Y-114690000D01*
X112750000Y-114690000D02*
X114220000Y-114690000D01*
%TO.C,C33*%
X98255949Y-66697198D02*
X98462802Y-66904051D01*
X98977198Y-65975949D02*
X99184051Y-66182802D01*
%TO.C,C5*%
X136940000Y-90082836D02*
X136940000Y-89867164D01*
X137660000Y-90082836D02*
X137660000Y-89867164D01*
%TO.C,C19*%
X152900000Y-90112836D02*
X152900000Y-89897164D01*
X152180000Y-90112836D02*
X152180000Y-89897164D01*
%TO.C,D7*%
X152765000Y-75235000D02*
X154235000Y-75235000D01*
X154235000Y-75235000D02*
X154235000Y-72775000D01*
X152765000Y-72775000D02*
X152765000Y-75235000D01*
%TO.C,R3*%
X145047500Y-59639724D02*
X145047500Y-59130276D01*
X146092500Y-59639724D02*
X146092500Y-59130276D01*
D11*
%TO.C,J4*%
X133850000Y-52310000D02*
X133850000Y-53160000D01*
X136250000Y-58060000D02*
X135950000Y-58060000D01*
X141950000Y-52310000D02*
X141450000Y-52310000D01*
X139800000Y-58060000D02*
X139500000Y-58060000D01*
X141950000Y-53110000D02*
X141950000Y-52310000D01*
X133850000Y-56310000D02*
X133850000Y-55810000D01*
X134300000Y-52310000D02*
X133850000Y-52310000D01*
X141950000Y-56310000D02*
X141950000Y-55860000D01*
%TO.C,G\u002A\u002A\u002A*%
G36*
X104538246Y-122812873D02*
G01*
X104548155Y-122899751D01*
X104557213Y-122958920D01*
X104571766Y-123033221D01*
X104588800Y-123107366D01*
X104590221Y-123112997D01*
X104608466Y-123188223D01*
X104630826Y-123285790D01*
X104655428Y-123397022D01*
X104680399Y-123513242D01*
X104703869Y-123625773D01*
X104723963Y-123725936D01*
X104735071Y-123784328D01*
X104746266Y-123840491D01*
X104762734Y-123917189D01*
X104782245Y-124004268D01*
X104802272Y-124090325D01*
X104850599Y-124293648D01*
X104871890Y-124232489D01*
X104885789Y-124185260D01*
X104893223Y-124145834D01*
X104893586Y-124139739D01*
X104895800Y-124121873D01*
X104902632Y-124090025D01*
X104914817Y-124041450D01*
X104933091Y-123973405D01*
X104958191Y-123883145D01*
X104990852Y-123767925D01*
X105029145Y-123634266D01*
X105046430Y-123567956D01*
X105062320Y-123497196D01*
X105066399Y-123476306D01*
X105081222Y-123408710D01*
X105103574Y-123322347D01*
X105130838Y-123225962D01*
X105160395Y-123128302D01*
X105189628Y-123038113D01*
X105215919Y-122964141D01*
X105230398Y-122928427D01*
X105256571Y-122877917D01*
X105283905Y-122838581D01*
X105301854Y-122822109D01*
X105341096Y-122810757D01*
X105396128Y-122805777D01*
X105454665Y-122807028D01*
X105504420Y-122814369D01*
X105529899Y-122824720D01*
X105555081Y-122855835D01*
X105584833Y-122912092D01*
X105616823Y-122987806D01*
X105648720Y-123077291D01*
X105678192Y-123174860D01*
X105686965Y-123207774D01*
X105704483Y-123275486D01*
X105727838Y-123365262D01*
X105754815Y-123468616D01*
X105783200Y-123577061D01*
X105806505Y-123665858D01*
X105832296Y-123764533D01*
X105856505Y-123858160D01*
X105877502Y-123940364D01*
X105893660Y-124004771D01*
X105903340Y-124044963D01*
X105918607Y-124106997D01*
X105937804Y-124178357D01*
X105948637Y-124216052D01*
X105975981Y-124308161D01*
X106028144Y-124058092D01*
X106061879Y-123897667D01*
X106098961Y-123723559D01*
X106136863Y-123547514D01*
X106173059Y-123381277D01*
X106199130Y-123263060D01*
X106213036Y-123196190D01*
X106228705Y-123114360D01*
X106243041Y-123033825D01*
X106244753Y-123023655D01*
X106257004Y-122956132D01*
X106269627Y-122896203D01*
X106280422Y-122854050D01*
X106283142Y-122845949D01*
X106298721Y-122804975D01*
X106792862Y-122804975D01*
X106782850Y-122848414D01*
X106775085Y-122884931D01*
X106763837Y-122941179D01*
X106751369Y-123005826D01*
X106749732Y-123014489D01*
X106738740Y-123068153D01*
X106721718Y-123145477D01*
X106700264Y-123239465D01*
X106675979Y-123343120D01*
X106650463Y-123449446D01*
X106647330Y-123462318D01*
X106623674Y-123560627D01*
X106602832Y-123649727D01*
X106585921Y-123724629D01*
X106574062Y-123780344D01*
X106568371Y-123811884D01*
X106568035Y-123815880D01*
X106564304Y-123838944D01*
X106553856Y-123887815D01*
X106537803Y-123957694D01*
X106517261Y-124043781D01*
X106493343Y-124141277D01*
X106481310Y-124189444D01*
X106456141Y-124291101D01*
X106433829Y-124384044D01*
X106415495Y-124463363D01*
X106402263Y-124524149D01*
X106395256Y-124561490D01*
X106394432Y-124569410D01*
X106389745Y-124607339D01*
X106377804Y-124663718D01*
X106361458Y-124727061D01*
X106343558Y-124785884D01*
X106334402Y-124811333D01*
X106316495Y-124844565D01*
X106285520Y-124891039D01*
X106254052Y-124933104D01*
X106207810Y-124985288D01*
X106165416Y-125016609D01*
X106121942Y-125033305D01*
X106067502Y-125042173D01*
X105998656Y-125045356D01*
X105925339Y-125043333D01*
X105857484Y-125036586D01*
X105805025Y-125025595D01*
X105784804Y-125016995D01*
X105739958Y-124976990D01*
X105692214Y-124915448D01*
X105646639Y-124841403D01*
X105608299Y-124763889D01*
X105582260Y-124691940D01*
X105573542Y-124640267D01*
X105569363Y-124612114D01*
X105558352Y-124560199D01*
X105542048Y-124491222D01*
X105521987Y-124411887D01*
X105515588Y-124387531D01*
X105491907Y-124297552D01*
X105468478Y-124207446D01*
X105447840Y-124127042D01*
X105432531Y-124066172D01*
X105431200Y-124060759D01*
X105404108Y-123950187D01*
X105393110Y-124022838D01*
X105385097Y-124065034D01*
X105370853Y-124129724D01*
X105352230Y-124208863D01*
X105331081Y-124294403D01*
X105325816Y-124315065D01*
X105302090Y-124408650D01*
X105278073Y-124505174D01*
X105256434Y-124593805D01*
X105239842Y-124663710D01*
X105238643Y-124668905D01*
X105197129Y-124800754D01*
X105139269Y-124907813D01*
X105065922Y-124988554D01*
X105054612Y-124997558D01*
X105023315Y-125018847D01*
X104991683Y-125031920D01*
X104950366Y-125038996D01*
X104890016Y-125042294D01*
X104863326Y-125042952D01*
X104797296Y-125043310D01*
X104740536Y-125041769D01*
X104702679Y-125038652D01*
X104696206Y-125037394D01*
X104628720Y-125003209D01*
X104567692Y-124938527D01*
X104513398Y-124843829D01*
X104466117Y-124719600D01*
X104426125Y-124566322D01*
X104426105Y-124566231D01*
X104409851Y-124492786D01*
X104387989Y-124396504D01*
X104362337Y-124285254D01*
X104334712Y-124166905D01*
X104306933Y-124049328D01*
X104299773Y-124019286D01*
X104275460Y-123916437D01*
X104253842Y-123823014D01*
X104235961Y-123743679D01*
X104222859Y-123683095D01*
X104215576Y-123645927D01*
X104214428Y-123637057D01*
X104210835Y-123614767D01*
X104200800Y-123566768D01*
X104185440Y-123498027D01*
X104165870Y-123413508D01*
X104143206Y-123318179D01*
X104136773Y-123291527D01*
X104112538Y-123189384D01*
X104090395Y-123092195D01*
X104071682Y-123006137D01*
X104057735Y-122937390D01*
X104049894Y-122892131D01*
X104049297Y-122887500D01*
X104039476Y-122804167D01*
X104538246Y-122812873D01*
G37*
G36*
X110943532Y-123421020D02*
G01*
X109632463Y-123421020D01*
X109632463Y-123657960D01*
X110944278Y-123657960D01*
X110939956Y-123930441D01*
X110935634Y-124202923D01*
X110284048Y-124207047D01*
X109632463Y-124211171D01*
X109632463Y-125048010D01*
X109173253Y-125048010D01*
X109177764Y-124056810D01*
X109182276Y-123065609D01*
X109233365Y-122970436D01*
X109251337Y-122936162D01*
X109267210Y-122907252D01*
X109283687Y-122883236D01*
X109303472Y-122863644D01*
X109329267Y-122848006D01*
X109363776Y-122835852D01*
X109409701Y-122826712D01*
X109469747Y-122820116D01*
X109546617Y-122815595D01*
X109643012Y-122812678D01*
X109761637Y-122810894D01*
X109905195Y-122809776D01*
X110076389Y-122808851D01*
X110165578Y-122808359D01*
X110943532Y-122803845D01*
X110943532Y-123421020D01*
G37*
G36*
X100177590Y-122361365D02*
G01*
X100195375Y-122205080D01*
X100222070Y-122069399D01*
X100258722Y-121950837D01*
X100306375Y-121845908D01*
X100366076Y-121751127D01*
X100438872Y-121663008D01*
X100512652Y-121589984D01*
X100652121Y-121482984D01*
X100811250Y-121397502D01*
X100986118Y-121334027D01*
X101172806Y-121293050D01*
X101367395Y-121275061D01*
X101565965Y-121280552D01*
X101764598Y-121310011D01*
X101959372Y-121363930D01*
X102048365Y-121397818D01*
X102164827Y-121446326D01*
X102258049Y-121360020D01*
X102410506Y-121240009D01*
X102581685Y-121143483D01*
X102767811Y-121071742D01*
X102965110Y-121026088D01*
X103169810Y-121007823D01*
X103274565Y-121009409D01*
X103407023Y-121020291D01*
X103520026Y-121040200D01*
X103625118Y-121072054D01*
X103733841Y-121118776D01*
X103762471Y-121132885D01*
X103874751Y-121193085D01*
X103972705Y-121254886D01*
X104064785Y-121324599D01*
X104159444Y-121408536D01*
X104247443Y-121494964D01*
X104414724Y-121664704D01*
X104523873Y-121600665D01*
X104611990Y-121551641D01*
X104722226Y-121494431D01*
X104847321Y-121432459D01*
X104980012Y-121369147D01*
X105113040Y-121307919D01*
X105239141Y-121252198D01*
X105351054Y-121205408D01*
X105414925Y-121180595D01*
X105828104Y-121043581D01*
X106246185Y-120937556D01*
X106667924Y-120862519D01*
X107092077Y-120818470D01*
X107517402Y-120805411D01*
X107942654Y-120823340D01*
X108366590Y-120872257D01*
X108787966Y-120952163D01*
X109205538Y-121063058D01*
X109553483Y-121180541D01*
X109645015Y-121216753D01*
X109755616Y-121264018D01*
X109878666Y-121319190D01*
X110007544Y-121379123D01*
X110135627Y-121440672D01*
X110256296Y-121500691D01*
X110362929Y-121556035D01*
X110448905Y-121603558D01*
X110469652Y-121615803D01*
X110572326Y-121677652D01*
X110746082Y-121500912D01*
X110852973Y-121396545D01*
X110950181Y-121312201D01*
X111045823Y-121241804D01*
X111148018Y-121179277D01*
X111241538Y-121130046D01*
X111352637Y-121080074D01*
X111458294Y-121045455D01*
X111569948Y-121023337D01*
X111699034Y-121010870D01*
X111725435Y-121009409D01*
X111932523Y-121013383D01*
X112134085Y-121045423D01*
X112326363Y-121104231D01*
X112505596Y-121188509D01*
X112668026Y-121296961D01*
X112742112Y-121360169D01*
X112835495Y-121446625D01*
X112949483Y-121398118D01*
X113150617Y-121329300D01*
X113362932Y-121288177D01*
X113581873Y-121275048D01*
X113802888Y-121290212D01*
X114001844Y-121328821D01*
X114057258Y-121346573D01*
X114129062Y-121374474D01*
X114205723Y-121407889D01*
X114244900Y-121426507D01*
X114371131Y-121500958D01*
X114488748Y-121593850D01*
X114591135Y-121698872D01*
X114671678Y-121809714D01*
X114698875Y-121859487D01*
X114749556Y-121989254D01*
X114788973Y-122145350D01*
X114817235Y-122324630D01*
X114834446Y-122523947D01*
X114840714Y-122740157D01*
X114836144Y-122970112D01*
X114820842Y-123210667D01*
X114794916Y-123458676D01*
X114758471Y-123710993D01*
X114711614Y-123964473D01*
X114654451Y-124215969D01*
X114614087Y-124368781D01*
X114550149Y-124590580D01*
X114488988Y-124786037D01*
X114428537Y-124960029D01*
X114366729Y-125117431D01*
X114301497Y-125263121D01*
X114230772Y-125401974D01*
X114152488Y-125538867D01*
X114064578Y-125678676D01*
X114048222Y-125703545D01*
X113943285Y-125851296D01*
X113838221Y-125978314D01*
X113734960Y-126082925D01*
X113635429Y-126163456D01*
X113541557Y-126218236D01*
X113455274Y-126245590D01*
X113419900Y-126248507D01*
X113367889Y-126248507D01*
X113367214Y-126663153D01*
X113363363Y-126922514D01*
X113352077Y-127159267D01*
X113332421Y-127381724D01*
X113303461Y-127598192D01*
X113264260Y-127816982D01*
X113213884Y-128046402D01*
X113209442Y-128065050D01*
X113095028Y-128475706D01*
X112951498Y-128875431D01*
X112779888Y-129262731D01*
X112581229Y-129636115D01*
X112356558Y-129994089D01*
X112106907Y-130335159D01*
X111833310Y-130657833D01*
X111536802Y-130960617D01*
X111218417Y-131242019D01*
X110879188Y-131500546D01*
X110785342Y-131565430D01*
X110432916Y-131785726D01*
X110063133Y-131981807D01*
X109680190Y-132151798D01*
X109288285Y-132293821D01*
X108921642Y-132398612D01*
X108739180Y-132440799D01*
X108547323Y-132479323D01*
X108356582Y-132512325D01*
X108177467Y-132537946D01*
X108060759Y-132550859D01*
X107983903Y-132556740D01*
X107887126Y-132562165D01*
X107776980Y-132566961D01*
X107660011Y-132570956D01*
X107542771Y-132573976D01*
X107431807Y-132575850D01*
X107333670Y-132576405D01*
X107254908Y-132575468D01*
X107207774Y-132573345D01*
X107003645Y-132556542D01*
X106824365Y-132538922D01*
X106663194Y-132519470D01*
X106513389Y-132497172D01*
X106368209Y-132471012D01*
X106220912Y-132439977D01*
X106064756Y-132403051D01*
X106046766Y-132398590D01*
X105639207Y-132281131D01*
X105244319Y-132135425D01*
X104863270Y-131962647D01*
X104497229Y-131763975D01*
X104147365Y-131540585D01*
X103814845Y-131293652D01*
X103500838Y-131024353D01*
X103206514Y-130733866D01*
X102933039Y-130423365D01*
X102681583Y-130094027D01*
X102453315Y-129747028D01*
X102249402Y-129383546D01*
X102071013Y-129004755D01*
X101919317Y-128611833D01*
X101795482Y-128205956D01*
X101765618Y-128088744D01*
X101713500Y-127859947D01*
X101672568Y-127644072D01*
X101641869Y-127432842D01*
X101620448Y-127217983D01*
X101607350Y-126991221D01*
X101601622Y-126744280D01*
X101601194Y-126663153D01*
X101600519Y-126248507D01*
X101560015Y-126248507D01*
X101497563Y-126235409D01*
X101422653Y-126198203D01*
X101338833Y-126140020D01*
X101249646Y-126063991D01*
X101158639Y-125973249D01*
X101069356Y-125870923D01*
X100985342Y-125760146D01*
X100952554Y-125711963D01*
X100833726Y-125520003D01*
X100729487Y-125326376D01*
X100636520Y-125123793D01*
X100551510Y-124904964D01*
X100471139Y-124662602D01*
X100462959Y-124635903D01*
X100375308Y-124331020D01*
X100304430Y-124045582D01*
X100249277Y-123772949D01*
X100208797Y-123506481D01*
X100181941Y-123239540D01*
X100167657Y-122965486D01*
X100164564Y-122749689D01*
X100165464Y-122689402D01*
X100335653Y-122689402D01*
X100335776Y-122839828D01*
X100338927Y-122990893D01*
X100345101Y-123136433D01*
X100354299Y-123270288D01*
X100365900Y-123381530D01*
X100390067Y-123561079D01*
X100414472Y-123720728D01*
X100440781Y-123868206D01*
X100470658Y-124011242D01*
X100505768Y-124157563D01*
X100547774Y-124314899D01*
X100598342Y-124490978D01*
X100621995Y-124570577D01*
X100702245Y-124815046D01*
X100792276Y-125046681D01*
X100890541Y-125262762D01*
X100995492Y-125460568D01*
X101105582Y-125637381D01*
X101219262Y-125790482D01*
X101334985Y-125917151D01*
X101438774Y-126005696D01*
X101494546Y-126044012D01*
X101537510Y-126065260D01*
X101578035Y-126073838D01*
X101601605Y-126074751D01*
X101691666Y-126061552D01*
X101796379Y-126021864D01*
X101915941Y-125955551D01*
X102050546Y-125862475D01*
X102200390Y-125742500D01*
X102365668Y-125595488D01*
X102546577Y-125421304D01*
X102571644Y-125396266D01*
X102701913Y-125262227D01*
X102811105Y-125141638D01*
X102903402Y-125028973D01*
X102982985Y-124918708D01*
X103054035Y-124805317D01*
X103120733Y-124683274D01*
X103139990Y-124645211D01*
X103216849Y-124472118D01*
X103273199Y-124299476D01*
X103312119Y-124116429D01*
X103331263Y-123970263D01*
X103339933Y-123897146D01*
X103349484Y-123834848D01*
X103358670Y-123790594D01*
X103365325Y-123772481D01*
X103395647Y-123756109D01*
X103437906Y-123754443D01*
X103476382Y-123766915D01*
X103488217Y-123776920D01*
X103499177Y-123808775D01*
X103503474Y-123865741D01*
X103501585Y-123942158D01*
X103493989Y-124032361D01*
X103481161Y-124130688D01*
X103463580Y-124231478D01*
X103441723Y-124329066D01*
X103441666Y-124329291D01*
X103392998Y-124485378D01*
X103324913Y-124652046D01*
X103242109Y-124819470D01*
X103149288Y-124977826D01*
X103088490Y-125067531D01*
X102984953Y-125202068D01*
X102866006Y-125341025D01*
X102735443Y-125481003D01*
X102597057Y-125618600D01*
X102454640Y-125750416D01*
X102311986Y-125873051D01*
X102172886Y-125983105D01*
X102041135Y-126077175D01*
X101920524Y-126151863D01*
X101826674Y-126198829D01*
X101754422Y-126229800D01*
X101743355Y-126480043D01*
X101740502Y-126804585D01*
X101759190Y-127143545D01*
X101798538Y-127489084D01*
X101857664Y-127833364D01*
X101931301Y-128151928D01*
X102052749Y-128553734D01*
X102202463Y-128943068D01*
X102379263Y-129318635D01*
X102581967Y-129679138D01*
X102809395Y-130023282D01*
X103060366Y-130349769D01*
X103333699Y-130657305D01*
X103628213Y-130944592D01*
X103942728Y-131210335D01*
X104276063Y-131453238D01*
X104627037Y-131672004D01*
X104994469Y-131865337D01*
X105377178Y-132031941D01*
X105512523Y-132082976D01*
X105922504Y-132215384D01*
X106335090Y-132316323D01*
X106750654Y-132385836D01*
X107169567Y-132423967D01*
X107592199Y-132430759D01*
X108018923Y-132406257D01*
X108148190Y-132392765D01*
X108564931Y-132329212D01*
X108972067Y-132236193D01*
X109368351Y-132114710D01*
X109752536Y-131965764D01*
X110123376Y-131790355D01*
X110479624Y-131589483D01*
X110820033Y-131364151D01*
X111143358Y-131115358D01*
X111448350Y-130844106D01*
X111733764Y-130551395D01*
X111998353Y-130238227D01*
X112240870Y-129905602D01*
X112460068Y-129554521D01*
X112654702Y-129185984D01*
X112823523Y-128800993D01*
X112909133Y-128570522D01*
X113021041Y-128214185D01*
X113107364Y-127860652D01*
X113169127Y-127503727D01*
X113207352Y-127137209D01*
X113223064Y-126754902D01*
X113223601Y-126667102D01*
X113223248Y-126531255D01*
X113221964Y-126423856D01*
X113219466Y-126341769D01*
X113215467Y-126281857D01*
X113209682Y-126240984D01*
X113201826Y-126216012D01*
X113191614Y-126203805D01*
X113181223Y-126201119D01*
X113153693Y-126192275D01*
X113106388Y-126168068D01*
X113044887Y-126131989D01*
X112974766Y-126087529D01*
X112901600Y-126038177D01*
X112830968Y-125987424D01*
X112791174Y-125957004D01*
X112536774Y-125744730D01*
X112308043Y-125528624D01*
X112105980Y-125309920D01*
X111931582Y-125089853D01*
X111785847Y-124869658D01*
X111669772Y-124650569D01*
X111601689Y-124484676D01*
X111573465Y-124394869D01*
X111548614Y-124295161D01*
X111527782Y-124190877D01*
X111511612Y-124087338D01*
X111500749Y-123989868D01*
X111495839Y-123903789D01*
X111497524Y-123834424D01*
X111506451Y-123787096D01*
X111515348Y-123771691D01*
X111547763Y-123756276D01*
X111590038Y-123754079D01*
X111625902Y-123764994D01*
X111634405Y-123772481D01*
X111642205Y-123795550D01*
X111651341Y-123842763D01*
X111660568Y-123906779D01*
X111667259Y-123965983D01*
X111706991Y-124213167D01*
X111776159Y-124450850D01*
X111875288Y-124680394D01*
X112004905Y-124903160D01*
X112060566Y-124983959D01*
X112148420Y-125096932D01*
X112257197Y-125221922D01*
X112381394Y-125353632D01*
X112515509Y-125486767D01*
X112654040Y-125616029D01*
X112791484Y-125736123D01*
X112922338Y-125841752D01*
X113040668Y-125927329D01*
X113155721Y-125998100D01*
X113255049Y-126045158D01*
X113342076Y-126069922D01*
X113396822Y-126074751D01*
X113464062Y-126060372D01*
X113540342Y-126018857D01*
X113623580Y-125952639D01*
X113711695Y-125864153D01*
X113802604Y-125755832D01*
X113894227Y-125630110D01*
X113984481Y-125489420D01*
X114071285Y-125336196D01*
X114133184Y-125213868D01*
X114186843Y-125099674D01*
X114231395Y-124997958D01*
X114270432Y-124899333D01*
X114307546Y-124794411D01*
X114346329Y-124673806D01*
X114371919Y-124589925D01*
X114450505Y-124316975D01*
X114514990Y-124065444D01*
X114566366Y-123828996D01*
X114605629Y-123601300D01*
X114633772Y-123376021D01*
X114651790Y-123146825D01*
X114660678Y-122907379D01*
X114662026Y-122741791D01*
X114660361Y-122573076D01*
X114655601Y-122431411D01*
X114647105Y-122312350D01*
X114634233Y-122211444D01*
X114616343Y-122124248D01*
X114592794Y-122046315D01*
X114562946Y-121973199D01*
X114546231Y-121938583D01*
X114472045Y-121824073D01*
X114371919Y-121718760D01*
X114251041Y-121626450D01*
X114114597Y-121550951D01*
X113967776Y-121496066D01*
X113928980Y-121485749D01*
X113825467Y-121466874D01*
X113704038Y-121454755D01*
X113575564Y-121449683D01*
X113450917Y-121451946D01*
X113340970Y-121461834D01*
X113298495Y-121468987D01*
X113239018Y-121483072D01*
X113169074Y-121502667D01*
X113097033Y-121525058D01*
X113031265Y-121547533D01*
X112980140Y-121567378D01*
X112953433Y-121580840D01*
X112957868Y-121595359D01*
X112973151Y-121631957D01*
X112996529Y-121684199D01*
X113011485Y-121716508D01*
X113055509Y-121823979D01*
X113098050Y-121952074D01*
X113136080Y-122089865D01*
X113166572Y-122226422D01*
X113185975Y-122346476D01*
X113192333Y-122415520D01*
X113197541Y-122504660D01*
X113201064Y-122602404D01*
X113202363Y-122697264D01*
X113202363Y-122697573D01*
X113202174Y-122784254D01*
X113201008Y-122844859D01*
X113197970Y-122884905D01*
X113192164Y-122909907D01*
X113182694Y-122925382D01*
X113168663Y-122936846D01*
X113162873Y-122940694D01*
X113131957Y-122957407D01*
X113107648Y-122954704D01*
X113083893Y-122940694D01*
X113054929Y-122912074D01*
X113044392Y-122870187D01*
X113043908Y-122855948D01*
X113041740Y-122771045D01*
X113036896Y-122671867D01*
X113029965Y-122565578D01*
X113021536Y-122459343D01*
X113012197Y-122360327D01*
X113002537Y-122275695D01*
X112993145Y-122212611D01*
X112989602Y-122195043D01*
X112946836Y-122028548D01*
X112899802Y-121888146D01*
X112845842Y-121768380D01*
X112782299Y-121663792D01*
X112706519Y-121568926D01*
X112662185Y-121522412D01*
X112601539Y-121464467D01*
X112547082Y-121419525D01*
X112489008Y-121380765D01*
X112417511Y-121341366D01*
X112361812Y-121313465D01*
X112224600Y-121252622D01*
X112097722Y-121211666D01*
X111969475Y-121187848D01*
X111828153Y-121178420D01*
X111784706Y-121177985D01*
X111621269Y-121189246D01*
X111464932Y-121223897D01*
X111313334Y-121283240D01*
X111164114Y-121368576D01*
X111014912Y-121481207D01*
X110863366Y-121622435D01*
X110742667Y-121752540D01*
X110701478Y-121797532D01*
X110667918Y-121825069D01*
X110634852Y-121835661D01*
X110595145Y-121829820D01*
X110541662Y-121808057D01*
X110469652Y-121772107D01*
X110307297Y-121688974D01*
X110169658Y-121618705D01*
X110053351Y-121559726D01*
X109954992Y-121510462D01*
X109871197Y-121469339D01*
X109798584Y-121434782D01*
X109733767Y-121405217D01*
X109673364Y-121379069D01*
X109613990Y-121354764D01*
X109552262Y-121330728D01*
X109484797Y-121305385D01*
X109408209Y-121277161D01*
X109397681Y-121273298D01*
X109178257Y-121200296D01*
X108935759Y-121133011D01*
X108678473Y-121073334D01*
X108414684Y-121023157D01*
X108152678Y-120984370D01*
X108108147Y-120978956D01*
X107982267Y-120967486D01*
X107832713Y-120959265D01*
X107667234Y-120954290D01*
X107493580Y-120952559D01*
X107319501Y-120954069D01*
X107152747Y-120958817D01*
X107001067Y-120966801D01*
X106872211Y-120978018D01*
X106860261Y-120979390D01*
X106428450Y-121045442D01*
X106009782Y-121140161D01*
X105603810Y-121263693D01*
X105210087Y-121416187D01*
X104828169Y-121597788D01*
X104601430Y-121722557D01*
X104513962Y-121772864D01*
X104448651Y-121807857D01*
X104400282Y-121827991D01*
X104363636Y-121833722D01*
X104333497Y-121825502D01*
X104304648Y-121803788D01*
X104271870Y-121769033D01*
X104257333Y-121752540D01*
X104134556Y-121619305D01*
X104020500Y-121509983D01*
X103909778Y-121420223D01*
X103797005Y-121345672D01*
X103676793Y-121281977D01*
X103672484Y-121279938D01*
X103546033Y-121227621D01*
X103426327Y-121195412D01*
X103299510Y-121180219D01*
X103215294Y-121177985D01*
X103070293Y-121183671D01*
X102941452Y-121202535D01*
X102817282Y-121237288D01*
X102686295Y-121290638D01*
X102635731Y-121314687D01*
X102551098Y-121357741D01*
X102486216Y-121395536D01*
X102431561Y-121434691D01*
X102377611Y-121481829D01*
X102333431Y-121524853D01*
X102240037Y-121631846D01*
X102161813Y-121752147D01*
X102097774Y-121888656D01*
X102046936Y-122044276D01*
X102008315Y-122221908D01*
X101980926Y-122424453D01*
X101966408Y-122606946D01*
X101947699Y-122922288D01*
X101905339Y-122946037D01*
X101872964Y-122960689D01*
X101849698Y-122955836D01*
X101828367Y-122938717D01*
X101816509Y-122927070D01*
X101807879Y-122913484D01*
X101802134Y-122893406D01*
X101798933Y-122862281D01*
X101797931Y-122815556D01*
X101798786Y-122748676D01*
X101801155Y-122657088D01*
X101802829Y-122599627D01*
X101808060Y-122468903D01*
X101815419Y-122353683D01*
X101824495Y-122259034D01*
X101834878Y-122190022D01*
X101836782Y-122181032D01*
X101873891Y-122033662D01*
X101916469Y-121894500D01*
X101961752Y-121771966D01*
X101996626Y-121694436D01*
X102050373Y-121586943D01*
X101964769Y-121549085D01*
X101877930Y-121513369D01*
X101798252Y-121487663D01*
X101717455Y-121470505D01*
X101627259Y-121460433D01*
X101519387Y-121455985D01*
X101434328Y-121455420D01*
X101299926Y-121457965D01*
X101188767Y-121466013D01*
X101092743Y-121481178D01*
X101003747Y-121505076D01*
X100913669Y-121539319D01*
X100837385Y-121574277D01*
X100697097Y-121657199D01*
X100581176Y-121759033D01*
X100488757Y-121880954D01*
X100418980Y-122024138D01*
X100370983Y-122189757D01*
X100365476Y-122217305D01*
X100353469Y-122303565D01*
X100344497Y-122415109D01*
X100338560Y-122545775D01*
X100335653Y-122689402D01*
X100165464Y-122689402D01*
X100167668Y-122541740D01*
X100177590Y-122361365D01*
G37*
G36*
X107468408Y-123657960D02*
G01*
X108463557Y-123657960D01*
X108463557Y-122804975D01*
X108921642Y-122804975D01*
X108921642Y-125048010D01*
X108463557Y-125048010D01*
X108463557Y-124210821D01*
X107468408Y-124210821D01*
X107468408Y-125048010D01*
X107010111Y-125048010D01*
X107014166Y-123930441D01*
X107018221Y-122812873D01*
X107243315Y-122808490D01*
X107468408Y-122804108D01*
X107468408Y-123657960D01*
G37*
G36*
X103798153Y-127703381D02*
G01*
X103865007Y-127486193D01*
X103962753Y-127271833D01*
X104065629Y-127099700D01*
X104217108Y-126899042D01*
X104395898Y-126710416D01*
X104599810Y-126534548D01*
X104826654Y-126372166D01*
X105074240Y-126223995D01*
X105340381Y-126090763D01*
X105622886Y-125973195D01*
X105919567Y-125872018D01*
X106228233Y-125787958D01*
X106546697Y-125721743D01*
X106872768Y-125674099D01*
X107204258Y-125645751D01*
X107538978Y-125637427D01*
X107874737Y-125649853D01*
X108209348Y-125683756D01*
X108295243Y-125696080D01*
X108631580Y-125757388D01*
X108952894Y-125836045D01*
X109258041Y-125931129D01*
X109545877Y-126041718D01*
X109815259Y-126166891D01*
X110065042Y-126305726D01*
X110294083Y-126457303D01*
X110501237Y-126620699D01*
X110685362Y-126794993D01*
X110845312Y-126979263D01*
X110979944Y-127172589D01*
X111088115Y-127374048D01*
X111168680Y-127582719D01*
X111220495Y-127797682D01*
X111242416Y-128018013D01*
X111243106Y-128070744D01*
X111226861Y-128294441D01*
X111180457Y-128513102D01*
X111105058Y-128725806D01*
X111001827Y-128931634D01*
X110871928Y-129129665D01*
X110716524Y-129318979D01*
X110536780Y-129498657D01*
X110333858Y-129667778D01*
X110108923Y-129825422D01*
X109863138Y-129970670D01*
X109597667Y-130102600D01*
X109313673Y-130220294D01*
X109012321Y-130322830D01*
X108694772Y-130409290D01*
X108362193Y-130478753D01*
X108155535Y-130511943D01*
X108057525Y-130524897D01*
X107953591Y-130536878D01*
X107856055Y-130546562D01*
X107777242Y-130552624D01*
X107776430Y-130552671D01*
X107699613Y-130557211D01*
X107626144Y-130561735D01*
X107567352Y-130565540D01*
X107547388Y-130566924D01*
X107503450Y-130567870D01*
X107437195Y-130566601D01*
X107357797Y-130563392D01*
X107278856Y-130558819D01*
X106910917Y-130522632D01*
X106552339Y-130464526D01*
X106205294Y-130385367D01*
X105871956Y-130286023D01*
X105554499Y-130167359D01*
X105255097Y-130030243D01*
X104975923Y-129875542D01*
X104719152Y-129704123D01*
X104486956Y-129516852D01*
X104356553Y-129393428D01*
X104181939Y-129198394D01*
X104036957Y-128996238D01*
X103921764Y-128788204D01*
X103836518Y-128575534D01*
X103781376Y-128359473D01*
X103756496Y-128141265D01*
X103761750Y-127933466D01*
X105178872Y-127933466D01*
X105179609Y-128076750D01*
X105190373Y-128207623D01*
X105200548Y-128269501D01*
X105251135Y-128460343D01*
X105320629Y-128628358D01*
X105408367Y-128772555D01*
X105513690Y-128891943D01*
X105635939Y-128985530D01*
X105701244Y-129021390D01*
X105755841Y-129047210D01*
X105797782Y-129063391D01*
X105837330Y-129071832D01*
X105884751Y-129074432D01*
X105950312Y-129073091D01*
X105975684Y-129072181D01*
X106056031Y-129067876D01*
X106115470Y-129060478D01*
X106164672Y-129047832D01*
X106214309Y-129027787D01*
X106228420Y-129021185D01*
X106344365Y-128948986D01*
X106449795Y-128849251D01*
X106542885Y-128724815D01*
X106621808Y-128578515D01*
X106684740Y-128413188D01*
X106726947Y-128246704D01*
X106737296Y-128168527D01*
X106742969Y-128069057D01*
X106744075Y-127958232D01*
X106743797Y-127948928D01*
X108252542Y-127948928D01*
X108254731Y-128072347D01*
X108262496Y-128186853D01*
X108275837Y-128282441D01*
X108279460Y-128299674D01*
X108330443Y-128475169D01*
X108398219Y-128631333D01*
X108480901Y-128766720D01*
X108576604Y-128879884D01*
X108683440Y-128969378D01*
X108799525Y-129033755D01*
X108922972Y-129071569D01*
X109051894Y-129081374D01*
X109184407Y-129061723D01*
X109247343Y-129041918D01*
X109375227Y-128977999D01*
X109490193Y-128885679D01*
X109591490Y-128765714D01*
X109678367Y-128618859D01*
X109688062Y-128598889D01*
X109742009Y-128470791D01*
X109779777Y-128344202D01*
X109803836Y-128208582D01*
X109816654Y-128053392D01*
X109816848Y-128049254D01*
X109819248Y-127897575D01*
X109810219Y-127764089D01*
X109788213Y-127636982D01*
X109751685Y-127504438D01*
X109741365Y-127472836D01*
X109672899Y-127306868D01*
X109586536Y-127163170D01*
X109483774Y-127043612D01*
X109366110Y-126950066D01*
X109288478Y-126906964D01*
X109234163Y-126882702D01*
X109188930Y-126867758D01*
X109141515Y-126859923D01*
X109080657Y-126856986D01*
X109032214Y-126856654D01*
X108957592Y-126857699D01*
X108903427Y-126862274D01*
X108858616Y-126872538D01*
X108812053Y-126890648D01*
X108779478Y-126905785D01*
X108650906Y-126984631D01*
X108537334Y-127090192D01*
X108439937Y-127220775D01*
X108359893Y-127374685D01*
X108298378Y-127550231D01*
X108279432Y-127625209D01*
X108264892Y-127715356D01*
X108255929Y-127826596D01*
X108252542Y-127948928D01*
X106743797Y-127948928D01*
X106740722Y-127845985D01*
X106733015Y-127742255D01*
X106721063Y-127656976D01*
X106720551Y-127654353D01*
X106674437Y-127478032D01*
X106610302Y-127319344D01*
X106529953Y-127180327D01*
X106435196Y-127063018D01*
X106327839Y-126969456D01*
X106209688Y-126901678D01*
X106082550Y-126861722D01*
X106009495Y-126852347D01*
X105870005Y-126858403D01*
X105738556Y-126894070D01*
X105616613Y-126958058D01*
X105505643Y-127049075D01*
X105407110Y-127165834D01*
X105322480Y-127307043D01*
X105253219Y-127471414D01*
X105232191Y-127536471D01*
X105205626Y-127652595D01*
X105187699Y-127788504D01*
X105178872Y-127933466D01*
X103761750Y-127933466D01*
X103762036Y-127922153D01*
X103798153Y-127703381D01*
G37*
D18*
%TO.C,C14*%
X146236233Y-64895000D02*
X146528767Y-64895000D01*
X146236233Y-63875000D02*
X146528767Y-63875000D01*
%TO.C,D1*%
X143230000Y-61325000D02*
X141310000Y-61325000D01*
X141310000Y-61325000D02*
X141310000Y-64185000D01*
X143230000Y-64185000D02*
X143230000Y-61325000D01*
%TO.C,C13*%
X151860000Y-66183733D02*
X151860000Y-66476267D01*
X152880000Y-66183733D02*
X152880000Y-66476267D01*
%TO.C,R13*%
X154022500Y-77737258D02*
X154022500Y-77262742D01*
X152977500Y-77737258D02*
X152977500Y-77262742D01*
%TO.C,R2*%
X143447500Y-61880276D02*
X143447500Y-62389724D01*
X144492500Y-61880276D02*
X144492500Y-62389724D01*
%TO.C,C38*%
X97864051Y-67492802D02*
X97657198Y-67285949D01*
X97142802Y-68214051D02*
X96935949Y-68007198D01*
%TO.C,R11*%
X102172500Y-92445276D02*
X102172500Y-92954724D01*
X101127500Y-92445276D02*
X101127500Y-92954724D01*
%TO.C,C37*%
X125957198Y-62085949D02*
X126164051Y-62292802D01*
X125235949Y-62807198D02*
X125442802Y-63014051D01*
%TO.C,U4*%
X149032500Y-62670000D02*
X152792500Y-62670000D01*
X152792500Y-55850000D02*
X152792500Y-57110000D01*
X146782500Y-55850000D02*
X152792500Y-55850000D01*
X152792500Y-62670000D02*
X152792500Y-61410000D01*
%TO.C,FB1*%
X139696267Y-60640000D02*
X139403733Y-60640000D01*
X139696267Y-61660000D02*
X139403733Y-61660000D01*
D19*
%TO.C,IC1*%
X99852839Y-71610000D02*
X113500000Y-57962839D01*
X113500000Y-57962839D02*
X127147161Y-71610000D01*
X113500000Y-85257161D02*
X99852839Y-71610000D01*
X127147161Y-71610000D02*
X113500000Y-85257161D01*
D21*
X112405241Y-56955212D02*
G75*
G03*
X112405241Y-56955212I-125000J0D01*
G01*
D18*
%TO.C,R12*%
X122910654Y-60531849D02*
X122550420Y-60171615D01*
X123649580Y-59792923D02*
X123289346Y-59432689D01*
%TD*%
M02*
