%TF.GenerationSoftware,KiCad,Pcbnew,(6.0.1)*%
%TF.CreationDate,2022-03-23T15:12:11-05:00*%
%TF.ProjectId,Telemetry_KiCAD_Project,54656c65-6d65-4747-9279-5f4b69434144,rev?*%
%TF.SameCoordinates,Original*%
%TF.FileFunction,Legend,Top*%
%TF.FilePolarity,Positive*%
%FSLAX46Y46*%
G04 Gerber Fmt 4.6, Leading zero omitted, Abs format (unit mm)*
G04 Created by KiCad (PCBNEW (6.0.1)) date 2022-03-23 15:12:11*
%MOMM*%
%LPD*%
G01*
G04 APERTURE LIST*
%ADD10C,1.000000*%
%ADD11C,0.100000*%
%ADD12C,0.120000*%
%ADD13C,0.150000*%
%ADD14C,0.254000*%
%ADD15C,0.200000*%
%ADD16C,0.060000*%
%ADD17C,0.127000*%
G04 APERTURE END LIST*
D10*
X125150000Y-98475000D02*
G75*
G03*
X125150000Y-98475000I-8650000J0D01*
G01*
D11*
X160000000Y-61719939D02*
G75*
G03*
X150039889Y-51725000I-9995000J0D01*
G01*
X150000000Y-144980000D02*
X89975000Y-144975000D01*
X89975000Y-144975000D02*
X90000000Y-142010000D01*
X90000000Y-142010000D02*
X150109286Y-141970000D01*
X150109286Y-141970000D02*
X150000000Y-144980000D01*
G36*
X150000000Y-144980000D02*
G01*
X89975000Y-144975000D01*
X90000000Y-142010000D01*
X150109286Y-141970000D01*
X150000000Y-144980000D01*
G37*
X150000000Y-144980000D02*
X89975000Y-144975000D01*
X90000000Y-142010000D01*
X150109286Y-141970000D01*
X150000000Y-144980000D01*
X150000000Y-144980000D02*
G75*
G03*
X160000000Y-134980000I1J9999999D01*
G01*
D12*
X150109286Y-141980000D02*
G75*
G03*
X157010000Y-134980000I-100001J7000001D01*
G01*
X83000000Y-135109286D02*
G75*
G03*
X90000000Y-142010000I7000001J100001D01*
G01*
D11*
X80000000Y-134980061D02*
G75*
G03*
X89960111Y-144975000I9995000J0D01*
G01*
X89950000Y-144970000D02*
X89140000Y-144930000D01*
X89140000Y-144930000D02*
X87860000Y-144740000D01*
X87860000Y-144740000D02*
X86600000Y-144350000D01*
X86600000Y-144350000D02*
X86010000Y-144140000D01*
X86010000Y-144140000D02*
X84760000Y-143480000D01*
X84760000Y-143480000D02*
X83640000Y-142700000D01*
X83640000Y-142700000D02*
X82740000Y-141860000D01*
X82740000Y-141860000D02*
X82110000Y-141120000D01*
X82110000Y-141120000D02*
X81570000Y-140330000D01*
X81570000Y-140330000D02*
X81220000Y-139770000D01*
X81220000Y-139770000D02*
X80840000Y-138940000D01*
X80840000Y-138940000D02*
X80530000Y-138140000D01*
X80530000Y-138140000D02*
X80240001Y-137090000D01*
X80240001Y-137090000D02*
X80140000Y-136490000D01*
X80140000Y-136490000D02*
X80020000Y-135720000D01*
X80020000Y-135720000D02*
X80000000Y-134980061D01*
X80000000Y-134980061D02*
X83000000Y-134950000D01*
X83000000Y-134950000D02*
X83000001Y-135109286D01*
X83000001Y-135109286D02*
X83020000Y-135589999D01*
X83020000Y-135589999D02*
X83120000Y-136360000D01*
X83120000Y-136360000D02*
X83400000Y-137330000D01*
X83400000Y-137330000D02*
X83650000Y-137950000D01*
X83650000Y-137950000D02*
X83970000Y-138550000D01*
X83970000Y-138550000D02*
X84430000Y-139250000D01*
X84430000Y-139250000D02*
X84800000Y-139690000D01*
X84800000Y-139690000D02*
X85390000Y-140270000D01*
X85390000Y-140270000D02*
X86230000Y-140900000D01*
X86230000Y-140900000D02*
X87040000Y-141340000D01*
X87040000Y-141340000D02*
X87820000Y-141650000D01*
X87820000Y-141650000D02*
X88620000Y-141870000D01*
X88620000Y-141870000D02*
X89220000Y-141960001D01*
X89220000Y-141960001D02*
X89975000Y-142000000D01*
X89975000Y-142000000D02*
X89975000Y-144975000D01*
X89975000Y-144975000D02*
X89949999Y-144975000D01*
X89949999Y-144975000D02*
X89950000Y-144970000D01*
G36*
X83000001Y-135109286D02*
G01*
X83020000Y-135589999D01*
X83120000Y-136360000D01*
X83400000Y-137330000D01*
X83650000Y-137950000D01*
X83970000Y-138550000D01*
X84430000Y-139250000D01*
X84800000Y-139690000D01*
X85390000Y-140270000D01*
X86230000Y-140900000D01*
X87040000Y-141340000D01*
X87820000Y-141650000D01*
X88620000Y-141870000D01*
X89220000Y-141960001D01*
X89975000Y-142000000D01*
X89975000Y-144975000D01*
X89949999Y-144975000D01*
X89950000Y-144970000D01*
X89140000Y-144930000D01*
X87860000Y-144740000D01*
X86600000Y-144350000D01*
X86010000Y-144140000D01*
X84760000Y-143480000D01*
X83640000Y-142700000D01*
X82740000Y-141860000D01*
X82110000Y-141120000D01*
X81570000Y-140330000D01*
X81220000Y-139770000D01*
X80840000Y-138940000D01*
X80530000Y-138140000D01*
X80240001Y-137090000D01*
X80140000Y-136490000D01*
X80020000Y-135720000D01*
X80000000Y-134980061D01*
X83000000Y-134950000D01*
X83000001Y-135109286D01*
G37*
X83000001Y-135109286D02*
X83020000Y-135589999D01*
X83120000Y-136360000D01*
X83400000Y-137330000D01*
X83650000Y-137950000D01*
X83970000Y-138550000D01*
X84430000Y-139250000D01*
X84800000Y-139690000D01*
X85390000Y-140270000D01*
X86230000Y-140900000D01*
X87040000Y-141340000D01*
X87820000Y-141650000D01*
X88620000Y-141870000D01*
X89220000Y-141960001D01*
X89975000Y-142000000D01*
X89975000Y-144975000D01*
X89949999Y-144975000D01*
X89950000Y-144970000D01*
X89140000Y-144930000D01*
X87860000Y-144740000D01*
X86600000Y-144350000D01*
X86010000Y-144140000D01*
X84760000Y-143480000D01*
X83640000Y-142700000D01*
X82740000Y-141860000D01*
X82110000Y-141120000D01*
X81570000Y-140330000D01*
X81220000Y-139770000D01*
X80840000Y-138940000D01*
X80530000Y-138140000D01*
X80240001Y-137090000D01*
X80140000Y-136490000D01*
X80020000Y-135720000D01*
X80000000Y-134980061D01*
X83000000Y-134950000D01*
X83000001Y-135109286D01*
X79963100Y-61669893D02*
X80003100Y-60859893D01*
X80003100Y-60859893D02*
X80193100Y-59579893D01*
X80193100Y-59579893D02*
X80583100Y-58319893D01*
X80583100Y-58319893D02*
X80793100Y-57729893D01*
X80793100Y-57729893D02*
X81453100Y-56479893D01*
X81453100Y-56479893D02*
X82233100Y-55359893D01*
X82233100Y-55359893D02*
X83073100Y-54459893D01*
X83073100Y-54459893D02*
X83813100Y-53829893D01*
X83813100Y-53829893D02*
X84603100Y-53289893D01*
X84603100Y-53289893D02*
X85163100Y-52939893D01*
X85163100Y-52939893D02*
X85993100Y-52559893D01*
X85993100Y-52559893D02*
X86793100Y-52249893D01*
X86793100Y-52249893D02*
X87843100Y-51959894D01*
X87843100Y-51959894D02*
X88443100Y-51859893D01*
X88443100Y-51859893D02*
X89213100Y-51739893D01*
X89213100Y-51739893D02*
X89953039Y-51719893D01*
X89953039Y-51719893D02*
X89983100Y-54719893D01*
X89983100Y-54719893D02*
X89823814Y-54719894D01*
X89823814Y-54719894D02*
X89343101Y-54739893D01*
X89343101Y-54739893D02*
X88573100Y-54839893D01*
X88573100Y-54839893D02*
X87603100Y-55119893D01*
X87603100Y-55119893D02*
X86983100Y-55369893D01*
X86983100Y-55369893D02*
X86383100Y-55689893D01*
X86383100Y-55689893D02*
X85683100Y-56149893D01*
X85683100Y-56149893D02*
X85243100Y-56519893D01*
X85243100Y-56519893D02*
X84663100Y-57109893D01*
X84663100Y-57109893D02*
X84033100Y-57949893D01*
X84033100Y-57949893D02*
X83593100Y-58759893D01*
X83593100Y-58759893D02*
X83283100Y-59539893D01*
X83283100Y-59539893D02*
X83063100Y-60339893D01*
X83063100Y-60339893D02*
X82973099Y-60939893D01*
X82973099Y-60939893D02*
X82933100Y-61694893D01*
X82933100Y-61694893D02*
X79958100Y-61694893D01*
X79958100Y-61694893D02*
X79958100Y-61669892D01*
X79958100Y-61669892D02*
X79963100Y-61669893D01*
G36*
X89983100Y-54719893D02*
G01*
X89823814Y-54719894D01*
X89343101Y-54739893D01*
X88573100Y-54839893D01*
X87603100Y-55119893D01*
X86983100Y-55369893D01*
X86383100Y-55689893D01*
X85683100Y-56149893D01*
X85243100Y-56519893D01*
X84663100Y-57109893D01*
X84033100Y-57949893D01*
X83593100Y-58759893D01*
X83283100Y-59539893D01*
X83063100Y-60339893D01*
X82973099Y-60939893D01*
X82933100Y-61694893D01*
X79958100Y-61694893D01*
X79958100Y-61669892D01*
X79963100Y-61669893D01*
X80003100Y-60859893D01*
X80193100Y-59579893D01*
X80583100Y-58319893D01*
X80793100Y-57729893D01*
X81453100Y-56479893D01*
X82233100Y-55359893D01*
X83073100Y-54459893D01*
X83813100Y-53829893D01*
X84603100Y-53289893D01*
X85163100Y-52939893D01*
X85993100Y-52559893D01*
X86793100Y-52249893D01*
X87843100Y-51959894D01*
X88443100Y-51859893D01*
X89213100Y-51739893D01*
X89953039Y-51719893D01*
X89983100Y-54719893D01*
G37*
X89983100Y-54719893D02*
X89823814Y-54719894D01*
X89343101Y-54739893D01*
X88573100Y-54839893D01*
X87603100Y-55119893D01*
X86983100Y-55369893D01*
X86383100Y-55689893D01*
X85683100Y-56149893D01*
X85243100Y-56519893D01*
X84663100Y-57109893D01*
X84033100Y-57949893D01*
X83593100Y-58759893D01*
X83283100Y-59539893D01*
X83063100Y-60339893D01*
X82973099Y-60939893D01*
X82933100Y-61694893D01*
X79958100Y-61694893D01*
X79958100Y-61669892D01*
X79963100Y-61669893D01*
X80003100Y-60859893D01*
X80193100Y-59579893D01*
X80583100Y-58319893D01*
X80793100Y-57729893D01*
X81453100Y-56479893D01*
X82233100Y-55359893D01*
X83073100Y-54459893D01*
X83813100Y-53829893D01*
X84603100Y-53289893D01*
X85163100Y-52939893D01*
X85993100Y-52559893D01*
X86793100Y-52249893D01*
X87843100Y-51959894D01*
X88443100Y-51859893D01*
X89213100Y-51739893D01*
X89953039Y-51719893D01*
X89983100Y-54719893D01*
D12*
X157000000Y-61590714D02*
G75*
G03*
X150000000Y-54690000I-7000001J-100001D01*
G01*
D11*
X150050000Y-51730000D02*
X150860000Y-51770000D01*
X150860000Y-51770000D02*
X152140000Y-51960000D01*
X152140000Y-51960000D02*
X153400000Y-52350000D01*
X153400000Y-52350000D02*
X153990000Y-52560000D01*
X153990000Y-52560000D02*
X155240000Y-53220000D01*
X155240000Y-53220000D02*
X156360000Y-54000000D01*
X156360000Y-54000000D02*
X157260000Y-54840000D01*
X157260000Y-54840000D02*
X157890000Y-55580000D01*
X157890000Y-55580000D02*
X158430000Y-56370000D01*
X158430000Y-56370000D02*
X158780000Y-56930000D01*
X158780000Y-56930000D02*
X159160000Y-57760000D01*
X159160000Y-57760000D02*
X159470000Y-58560000D01*
X159470000Y-58560000D02*
X159760000Y-59610000D01*
X159760000Y-59610000D02*
X159860000Y-60210000D01*
X159860000Y-60210000D02*
X159980000Y-60980000D01*
X159980000Y-60980000D02*
X160000000Y-61719939D01*
X160000000Y-61719939D02*
X157000000Y-61750000D01*
X157000000Y-61750000D02*
X156999999Y-61590714D01*
X156999999Y-61590714D02*
X156980000Y-61110000D01*
X156980000Y-61110000D02*
X156880000Y-60340000D01*
X156880000Y-60340000D02*
X156600000Y-59370000D01*
X156600000Y-59370000D02*
X156350000Y-58750000D01*
X156350000Y-58750000D02*
X156030000Y-58150000D01*
X156030000Y-58150000D02*
X155570000Y-57450000D01*
X155570000Y-57450000D02*
X155200000Y-57010000D01*
X155200000Y-57010000D02*
X154610000Y-56430000D01*
X154610000Y-56430000D02*
X153770000Y-55800000D01*
X153770000Y-55800000D02*
X152960000Y-55360000D01*
X152960000Y-55360000D02*
X152180000Y-55050000D01*
X152180000Y-55050000D02*
X151380000Y-54830000D01*
X151380000Y-54830000D02*
X150780000Y-54740000D01*
X150780000Y-54740000D02*
X150025000Y-54700000D01*
X150025000Y-54700000D02*
X150025000Y-51725000D01*
X150025000Y-51725000D02*
X150050000Y-51725000D01*
X150050000Y-51725000D02*
X150050000Y-51730000D01*
G36*
X150050000Y-51730000D02*
G01*
X150860000Y-51770000D01*
X152140000Y-51960000D01*
X153400000Y-52350000D01*
X153990000Y-52560000D01*
X155240000Y-53220000D01*
X156360000Y-54000000D01*
X157260000Y-54840000D01*
X157890000Y-55580000D01*
X158430000Y-56370000D01*
X158780000Y-56930000D01*
X159160000Y-57760000D01*
X159470000Y-58560000D01*
X159760000Y-59610000D01*
X159860000Y-60210000D01*
X159980000Y-60980000D01*
X160000000Y-61719939D01*
X157000000Y-61750000D01*
X156999999Y-61590714D01*
X156980000Y-61110000D01*
X156880000Y-60340000D01*
X156600000Y-59370000D01*
X156350000Y-58750000D01*
X156030000Y-58150000D01*
X155570000Y-57450000D01*
X155200000Y-57010000D01*
X154610000Y-56430000D01*
X153770000Y-55800000D01*
X152960000Y-55360000D01*
X152180000Y-55050000D01*
X151380000Y-54830000D01*
X150780000Y-54740000D01*
X150025000Y-54700000D01*
X150025000Y-51725000D01*
X150050000Y-51725000D01*
X150050000Y-51730000D01*
G37*
X150050000Y-51730000D02*
X150860000Y-51770000D01*
X152140000Y-51960000D01*
X153400000Y-52350000D01*
X153990000Y-52560000D01*
X155240000Y-53220000D01*
X156360000Y-54000000D01*
X157260000Y-54840000D01*
X157890000Y-55580000D01*
X158430000Y-56370000D01*
X158780000Y-56930000D01*
X159160000Y-57760000D01*
X159470000Y-58560000D01*
X159760000Y-59610000D01*
X159860000Y-60210000D01*
X159980000Y-60980000D01*
X160000000Y-61719939D01*
X157000000Y-61750000D01*
X156999999Y-61590714D01*
X156980000Y-61110000D01*
X156880000Y-60340000D01*
X156600000Y-59370000D01*
X156350000Y-58750000D01*
X156030000Y-58150000D01*
X155570000Y-57450000D01*
X155200000Y-57010000D01*
X154610000Y-56430000D01*
X153770000Y-55800000D01*
X152960000Y-55360000D01*
X152180000Y-55050000D01*
X151380000Y-54830000D01*
X150780000Y-54740000D01*
X150025000Y-54700000D01*
X150025000Y-51725000D01*
X150050000Y-51725000D01*
X150050000Y-51730000D01*
X160000000Y-134990000D02*
X159970000Y-135650000D01*
X159970000Y-135650000D02*
X159900000Y-136350000D01*
X159900000Y-136350000D02*
X159760000Y-137130000D01*
X159760000Y-137130000D02*
X159570000Y-137890000D01*
X159570000Y-137890000D02*
X159300000Y-138640000D01*
X159300000Y-138640000D02*
X159010000Y-139300000D01*
X159010000Y-139300000D02*
X158680000Y-139920000D01*
X158680000Y-139920000D02*
X158250000Y-140640000D01*
X158250000Y-140640000D02*
X157750000Y-141290000D01*
X157750000Y-141290000D02*
X157370000Y-141720000D01*
X157370000Y-141720000D02*
X156880000Y-142230000D01*
X156880000Y-142230000D02*
X156480000Y-142600000D01*
X156480000Y-142600000D02*
X156040000Y-142940000D01*
X156040000Y-142940000D02*
X155590000Y-143270000D01*
X155590000Y-143270000D02*
X154920000Y-143680000D01*
X154920000Y-143680000D02*
X154360000Y-143970000D01*
X154360000Y-143970000D02*
X153860000Y-144210000D01*
X153860000Y-144210000D02*
X153220000Y-144440000D01*
X153220000Y-144440000D02*
X152500000Y-144660000D01*
X152500000Y-144660000D02*
X152000000Y-144780000D01*
X152000000Y-144780000D02*
X151620000Y-144840000D01*
X151620000Y-144840000D02*
X151190000Y-144900000D01*
X151190000Y-144900000D02*
X150670000Y-144940000D01*
X150670000Y-144940000D02*
X150110000Y-144970000D01*
X150110000Y-144970000D02*
X149980000Y-144970000D01*
X149980000Y-144970000D02*
X150090000Y-141980000D01*
X150090000Y-141980000D02*
X150120000Y-141980000D01*
X150120000Y-141980000D02*
X151100000Y-141880000D01*
X151100000Y-141880000D02*
X151960000Y-141700000D01*
X151960000Y-141700000D02*
X152770000Y-141400000D01*
X152770000Y-141400000D02*
X153320000Y-141120000D01*
X153320000Y-141120000D02*
X153900000Y-140790000D01*
X153900000Y-140790000D02*
X154470000Y-140380000D01*
X154470000Y-140380000D02*
X155040000Y-139860000D01*
X155040000Y-139860000D02*
X155640000Y-139150000D01*
X155640000Y-139150000D02*
X155970000Y-138630000D01*
X155970000Y-138630000D02*
X156360000Y-137910000D01*
X156360000Y-137910000D02*
X156540000Y-137490000D01*
X156540000Y-137490000D02*
X156750000Y-136850000D01*
X156750000Y-136850000D02*
X156920000Y-136100000D01*
X156920000Y-136100000D02*
X156990000Y-135640000D01*
X156990000Y-135640000D02*
X157020000Y-134920000D01*
X157020000Y-134920000D02*
X160000000Y-134920000D01*
X160000000Y-134920000D02*
X160000000Y-134990000D01*
G36*
X160000000Y-134990000D02*
G01*
X159970000Y-135650000D01*
X159900000Y-136350000D01*
X159760000Y-137130000D01*
X159570000Y-137890000D01*
X159300000Y-138640000D01*
X159010000Y-139300000D01*
X158680000Y-139920000D01*
X158250000Y-140640000D01*
X157750000Y-141290000D01*
X157370000Y-141720000D01*
X156880000Y-142230000D01*
X156480000Y-142600000D01*
X156040000Y-142940000D01*
X155590000Y-143270000D01*
X154920000Y-143680000D01*
X154360000Y-143970000D01*
X153860000Y-144210000D01*
X153220000Y-144440000D01*
X152500000Y-144660000D01*
X152000000Y-144780000D01*
X151620000Y-144840000D01*
X151190000Y-144900000D01*
X150670000Y-144940000D01*
X150110000Y-144970000D01*
X149980000Y-144970000D01*
X150090000Y-141980000D01*
X150120000Y-141980000D01*
X151100000Y-141880000D01*
X151960000Y-141700000D01*
X152770000Y-141400000D01*
X153320000Y-141120000D01*
X153900000Y-140790000D01*
X154470000Y-140380000D01*
X155040000Y-139860000D01*
X155640000Y-139150000D01*
X155970000Y-138630000D01*
X156360000Y-137910000D01*
X156540000Y-137490000D01*
X156750000Y-136850000D01*
X156920000Y-136100000D01*
X156990000Y-135640000D01*
X157020000Y-134920000D01*
X160000000Y-134920000D01*
X160000000Y-134990000D01*
G37*
X160000000Y-134990000D02*
X159970000Y-135650000D01*
X159900000Y-136350000D01*
X159760000Y-137130000D01*
X159570000Y-137890000D01*
X159300000Y-138640000D01*
X159010000Y-139300000D01*
X158680000Y-139920000D01*
X158250000Y-140640000D01*
X157750000Y-141290000D01*
X157370000Y-141720000D01*
X156880000Y-142230000D01*
X156480000Y-142600000D01*
X156040000Y-142940000D01*
X155590000Y-143270000D01*
X154920000Y-143680000D01*
X154360000Y-143970000D01*
X153860000Y-144210000D01*
X153220000Y-144440000D01*
X152500000Y-144660000D01*
X152000000Y-144780000D01*
X151620000Y-144840000D01*
X151190000Y-144900000D01*
X150670000Y-144940000D01*
X150110000Y-144970000D01*
X149980000Y-144970000D01*
X150090000Y-141980000D01*
X150120000Y-141980000D01*
X151100000Y-141880000D01*
X151960000Y-141700000D01*
X152770000Y-141400000D01*
X153320000Y-141120000D01*
X153900000Y-140790000D01*
X154470000Y-140380000D01*
X155040000Y-139860000D01*
X155640000Y-139150000D01*
X155970000Y-138630000D01*
X156360000Y-137910000D01*
X156540000Y-137490000D01*
X156750000Y-136850000D01*
X156920000Y-136100000D01*
X156990000Y-135640000D01*
X157020000Y-134920000D01*
X160000000Y-134920000D01*
X160000000Y-134990000D01*
D10*
X125158100Y-98469893D02*
G75*
G03*
X125158100Y-98469893I-8650000J0D01*
G01*
X125108100Y-98469893D02*
G75*
G03*
X125108100Y-98469893I-8650000J0D01*
G01*
D11*
X159958100Y-134894893D02*
X156958100Y-134904893D01*
X156958100Y-134904893D02*
X156958100Y-61744893D01*
X156958100Y-61744893D02*
X159958100Y-61744893D01*
X159958100Y-61744893D02*
X159958100Y-134894893D01*
G36*
X159958100Y-134894893D02*
G01*
X156958100Y-134904893D01*
X156958100Y-61744893D01*
X159958100Y-61744893D01*
X159958100Y-134894893D01*
G37*
X159958100Y-134894893D02*
X156958100Y-134904893D01*
X156958100Y-61744893D01*
X159958100Y-61744893D01*
X159958100Y-134894893D01*
X150025000Y-54700000D02*
X89780000Y-54740000D01*
X89780000Y-54740000D02*
X89994939Y-51725000D01*
X89994939Y-51725000D02*
X150025000Y-51725000D01*
X150025000Y-51725000D02*
X150025000Y-54700000D01*
G36*
X150025000Y-54700000D02*
G01*
X89780000Y-54740000D01*
X89994939Y-51725000D01*
X150025000Y-51725000D01*
X150025000Y-54700000D01*
G37*
X150025000Y-54700000D02*
X89780000Y-54740000D01*
X89994939Y-51725000D01*
X150025000Y-51725000D01*
X150025000Y-54700000D01*
D12*
X89865714Y-54725000D02*
G75*
G03*
X82965000Y-61725000I100001J-7000001D01*
G01*
D11*
X89994939Y-51725000D02*
G75*
G03*
X80000000Y-61685111I0J-9995000D01*
G01*
D13*
%TO.C,C25*%
X102022969Y-60632106D02*
X102022969Y-60699450D01*
X101955625Y-60834137D01*
X101888282Y-60901480D01*
X101753595Y-60968824D01*
X101618908Y-60968824D01*
X101517893Y-60935152D01*
X101349534Y-60834137D01*
X101248519Y-60733122D01*
X101147503Y-60564763D01*
X101113832Y-60463748D01*
X101113832Y-60329061D01*
X101181175Y-60194374D01*
X101248519Y-60127030D01*
X101383206Y-60059687D01*
X101450549Y-60059687D01*
X101719923Y-59790312D02*
X101719923Y-59722969D01*
X101753595Y-59621954D01*
X101921954Y-59453595D01*
X102022969Y-59419923D01*
X102090312Y-59419923D01*
X102191328Y-59453595D01*
X102258671Y-59520938D01*
X102326015Y-59655625D01*
X102326015Y-60463748D01*
X102763748Y-60026015D01*
X102696404Y-58679145D02*
X102359687Y-59015862D01*
X102662732Y-59386251D01*
X102662732Y-59318908D01*
X102696404Y-59217893D01*
X102864763Y-59049534D01*
X102965778Y-59015862D01*
X103033122Y-59015862D01*
X103134137Y-59049534D01*
X103302496Y-59217893D01*
X103336167Y-59318908D01*
X103336167Y-59386251D01*
X103302496Y-59487267D01*
X103134137Y-59655625D01*
X103033122Y-59689297D01*
X102965778Y-59689297D01*
%TO.C,C27*%
X121197969Y-58307106D02*
X121197969Y-58374450D01*
X121130625Y-58509137D01*
X121063282Y-58576480D01*
X120928595Y-58643824D01*
X120793908Y-58643824D01*
X120692893Y-58610152D01*
X120524534Y-58509137D01*
X120423519Y-58408122D01*
X120322503Y-58239763D01*
X120288832Y-58138748D01*
X120288832Y-58004061D01*
X120356175Y-57869374D01*
X120423519Y-57802030D01*
X120558206Y-57734687D01*
X120625549Y-57734687D01*
X120894923Y-57465312D02*
X120894923Y-57397969D01*
X120928595Y-57296954D01*
X121096954Y-57128595D01*
X121197969Y-57094923D01*
X121265312Y-57094923D01*
X121366328Y-57128595D01*
X121433671Y-57195938D01*
X121501015Y-57330625D01*
X121501015Y-58138748D01*
X121938748Y-57701015D01*
X121467343Y-56758206D02*
X121938748Y-56286801D01*
X122342809Y-57296954D01*
%TO.C,C28*%
X127707106Y-77202031D02*
X127774450Y-77202031D01*
X127909137Y-77269375D01*
X127976480Y-77336718D01*
X128043824Y-77471405D01*
X128043824Y-77606092D01*
X128010152Y-77707107D01*
X127909137Y-77875466D01*
X127808122Y-77976481D01*
X127639763Y-78077497D01*
X127538748Y-78111168D01*
X127404061Y-78111168D01*
X127269374Y-78043825D01*
X127202030Y-77976481D01*
X127134687Y-77841794D01*
X127134687Y-77774451D01*
X126865312Y-77505077D02*
X126797969Y-77505077D01*
X126696954Y-77471405D01*
X126528595Y-77303046D01*
X126494923Y-77202031D01*
X126494923Y-77134688D01*
X126528595Y-77033672D01*
X126595938Y-76966329D01*
X126730625Y-76898985D01*
X127538748Y-76898985D01*
X127101015Y-76461252D01*
X126292893Y-76461252D02*
X126326564Y-76562268D01*
X126326564Y-76629611D01*
X126292893Y-76730626D01*
X126259221Y-76764298D01*
X126158206Y-76797970D01*
X126090862Y-76797970D01*
X125989847Y-76764298D01*
X125855160Y-76629611D01*
X125821488Y-76528596D01*
X125821488Y-76461252D01*
X125855160Y-76360237D01*
X125888832Y-76326565D01*
X125989847Y-76292894D01*
X126057190Y-76292894D01*
X126158206Y-76326565D01*
X126292893Y-76461252D01*
X126393908Y-76494924D01*
X126461251Y-76494924D01*
X126562267Y-76461252D01*
X126696954Y-76326565D01*
X126730625Y-76225550D01*
X126730625Y-76158207D01*
X126696954Y-76057191D01*
X126562267Y-75922504D01*
X126461251Y-75888833D01*
X126393908Y-75888833D01*
X126292893Y-75922504D01*
X126158206Y-76057191D01*
X126124534Y-76158207D01*
X126124534Y-76225550D01*
X126158206Y-76326565D01*
%TO.C,C30*%
X115919642Y-86757142D02*
X115872023Y-86804761D01*
X115729166Y-86852380D01*
X115633928Y-86852380D01*
X115491071Y-86804761D01*
X115395833Y-86709523D01*
X115348214Y-86614285D01*
X115300595Y-86423809D01*
X115300595Y-86280952D01*
X115348214Y-86090476D01*
X115395833Y-85995238D01*
X115491071Y-85900000D01*
X115633928Y-85852380D01*
X115729166Y-85852380D01*
X115872023Y-85900000D01*
X115919642Y-85947619D01*
X116252976Y-85852380D02*
X116872023Y-85852380D01*
X116538690Y-86233333D01*
X116681547Y-86233333D01*
X116776785Y-86280952D01*
X116824404Y-86328571D01*
X116872023Y-86423809D01*
X116872023Y-86661904D01*
X116824404Y-86757142D01*
X116776785Y-86804761D01*
X116681547Y-86852380D01*
X116395833Y-86852380D01*
X116300595Y-86804761D01*
X116252976Y-86757142D01*
X117491071Y-85852380D02*
X117586309Y-85852380D01*
X117681547Y-85900000D01*
X117729166Y-85947619D01*
X117776785Y-86042857D01*
X117824404Y-86233333D01*
X117824404Y-86471428D01*
X117776785Y-86661904D01*
X117729166Y-86757142D01*
X117681547Y-86804761D01*
X117586309Y-86852380D01*
X117491071Y-86852380D01*
X117395833Y-86804761D01*
X117348214Y-86757142D01*
X117300595Y-86661904D01*
X117252976Y-86471428D01*
X117252976Y-86233333D01*
X117300595Y-86042857D01*
X117348214Y-85947619D01*
X117395833Y-85900000D01*
X117491071Y-85852380D01*
%TO.C,C31*%
X111807106Y-85002030D02*
X111874450Y-85002030D01*
X112009137Y-85069374D01*
X112076480Y-85136717D01*
X112143824Y-85271404D01*
X112143824Y-85406091D01*
X112110152Y-85507106D01*
X112009137Y-85675465D01*
X111908122Y-85776480D01*
X111739763Y-85877496D01*
X111638748Y-85911167D01*
X111504061Y-85911167D01*
X111369374Y-85843824D01*
X111302030Y-85776480D01*
X111234687Y-85641793D01*
X111234687Y-85574450D01*
X110931641Y-85406091D02*
X110493908Y-84968358D01*
X110998984Y-84934687D01*
X110897969Y-84833671D01*
X110864297Y-84732656D01*
X110864297Y-84665312D01*
X110897969Y-84564297D01*
X111066328Y-84395938D01*
X111167343Y-84362267D01*
X111234687Y-84362267D01*
X111335702Y-84395938D01*
X111537732Y-84597969D01*
X111571404Y-84698984D01*
X111571404Y-84766328D01*
X110527580Y-83587816D02*
X110931641Y-83991877D01*
X110729610Y-83789847D02*
X110022503Y-84496954D01*
X110190862Y-84463282D01*
X110325549Y-84463282D01*
X110426564Y-84496954D01*
%TO.C,C32*%
X104330258Y-75406086D02*
X104397602Y-75406086D01*
X104532289Y-75473430D01*
X104599632Y-75540773D01*
X104666976Y-75675460D01*
X104666976Y-75810147D01*
X104633304Y-75911162D01*
X104532289Y-76079521D01*
X104431274Y-76180536D01*
X104262915Y-76281552D01*
X104161900Y-76315223D01*
X104027213Y-76315223D01*
X103892526Y-76247880D01*
X103825182Y-76180536D01*
X103757839Y-76045849D01*
X103757839Y-75978506D01*
X103454793Y-75810147D02*
X103017060Y-75372414D01*
X103522136Y-75338743D01*
X103421121Y-75237727D01*
X103387449Y-75136712D01*
X103387449Y-75069368D01*
X103421121Y-74968353D01*
X103589480Y-74799994D01*
X103690495Y-74766323D01*
X103757839Y-74766323D01*
X103858854Y-74799994D01*
X104060884Y-75002025D01*
X104094556Y-75103040D01*
X104094556Y-75170384D01*
X102815029Y-75035697D02*
X102747686Y-75035697D01*
X102646671Y-75002025D01*
X102478312Y-74833666D01*
X102444640Y-74732651D01*
X102444640Y-74665307D01*
X102478312Y-74564292D01*
X102545655Y-74496949D01*
X102680342Y-74429605D01*
X103488464Y-74429605D01*
X103050732Y-73991872D01*
%TO.C,C35*%
X111297969Y-60307106D02*
X111297969Y-60374450D01*
X111230625Y-60509137D01*
X111163282Y-60576480D01*
X111028595Y-60643824D01*
X110893908Y-60643824D01*
X110792893Y-60610152D01*
X110624534Y-60509137D01*
X110523519Y-60408122D01*
X110422503Y-60239763D01*
X110388832Y-60138748D01*
X110388832Y-60004061D01*
X110456175Y-59869374D01*
X110523519Y-59802030D01*
X110658206Y-59734687D01*
X110725549Y-59734687D01*
X110893908Y-59431641D02*
X111331641Y-58993908D01*
X111365312Y-59498984D01*
X111466328Y-59397969D01*
X111567343Y-59364297D01*
X111634687Y-59364297D01*
X111735702Y-59397969D01*
X111904061Y-59566328D01*
X111937732Y-59667343D01*
X111937732Y-59734687D01*
X111904061Y-59835702D01*
X111702030Y-60037732D01*
X111601015Y-60071404D01*
X111533671Y-60071404D01*
X111971404Y-58354145D02*
X111634687Y-58690862D01*
X111937732Y-59061251D01*
X111937732Y-58993908D01*
X111971404Y-58892893D01*
X112139763Y-58724534D01*
X112240778Y-58690862D01*
X112308122Y-58690862D01*
X112409137Y-58724534D01*
X112577496Y-58892893D01*
X112611167Y-58993908D01*
X112611167Y-59061251D01*
X112577496Y-59162267D01*
X112409137Y-59330625D01*
X112308122Y-59364297D01*
X112240778Y-59364297D01*
%TO.C,J3*%
X141466666Y-134752380D02*
X141466666Y-135466666D01*
X141419047Y-135609523D01*
X141323809Y-135704761D01*
X141180952Y-135752380D01*
X141085714Y-135752380D01*
X141847619Y-134752380D02*
X142466666Y-134752380D01*
X142133333Y-135133333D01*
X142276190Y-135133333D01*
X142371428Y-135180952D01*
X142419047Y-135228571D01*
X142466666Y-135323809D01*
X142466666Y-135561904D01*
X142419047Y-135657142D01*
X142371428Y-135704761D01*
X142276190Y-135752380D01*
X141990476Y-135752380D01*
X141895238Y-135704761D01*
X141847619Y-135657142D01*
%TO.C,R4*%
X125402030Y-60037732D02*
X124829610Y-59936717D01*
X124997969Y-60441793D02*
X124290862Y-59734687D01*
X124560236Y-59465312D01*
X124661251Y-59431641D01*
X124728595Y-59431641D01*
X124829610Y-59465312D01*
X124930625Y-59566328D01*
X124964297Y-59667343D01*
X124964297Y-59734687D01*
X124930625Y-59835702D01*
X124661251Y-60105076D01*
X125536717Y-58960236D02*
X126008122Y-59431641D01*
X125098984Y-58859221D02*
X125435702Y-59532656D01*
X125873435Y-59094923D01*
%TO.C,R5*%
X123802030Y-58537732D02*
X123229610Y-58436717D01*
X123397969Y-58941793D02*
X122690862Y-58234687D01*
X122960236Y-57965312D01*
X123061251Y-57931641D01*
X123128595Y-57931641D01*
X123229610Y-57965312D01*
X123330625Y-58066328D01*
X123364297Y-58167343D01*
X123364297Y-58234687D01*
X123330625Y-58335702D01*
X123061251Y-58605076D01*
X123734687Y-57190862D02*
X123397969Y-57527580D01*
X123701015Y-57897969D01*
X123701015Y-57830625D01*
X123734687Y-57729610D01*
X123903045Y-57561251D01*
X124004061Y-57527580D01*
X124071404Y-57527580D01*
X124172419Y-57561251D01*
X124340778Y-57729610D01*
X124374450Y-57830625D01*
X124374450Y-57897969D01*
X124340778Y-57998984D01*
X124172419Y-58167343D01*
X124071404Y-58201015D01*
X124004061Y-58201015D01*
%TO.C,U7*%
X116651522Y-72925973D02*
X117223942Y-72353553D01*
X117257614Y-72252538D01*
X117257614Y-72185194D01*
X117223942Y-72084179D01*
X117089255Y-71949492D01*
X116988240Y-71915820D01*
X116920896Y-71915820D01*
X116819881Y-71949492D01*
X116247461Y-72521912D01*
X115978087Y-72252538D02*
X115506683Y-71781133D01*
X116516835Y-71377072D01*
D14*
%TO.C,J5*%
X83764523Y-98978333D02*
X84671666Y-98978333D01*
X84853095Y-99038809D01*
X84974047Y-99159761D01*
X85034523Y-99341190D01*
X85034523Y-99462142D01*
X83764523Y-97768809D02*
X83764523Y-98373571D01*
X84369285Y-98434047D01*
X84308809Y-98373571D01*
X84248333Y-98252619D01*
X84248333Y-97950238D01*
X84308809Y-97829285D01*
X84369285Y-97768809D01*
X84490238Y-97708333D01*
X84792619Y-97708333D01*
X84913571Y-97768809D01*
X84974047Y-97829285D01*
X85034523Y-97950238D01*
X85034523Y-98252619D01*
X84974047Y-98373571D01*
X84913571Y-98434047D01*
D13*
%TO.C,U3*%
X137388095Y-125102380D02*
X137388095Y-125911904D01*
X137435714Y-126007142D01*
X137483333Y-126054761D01*
X137578571Y-126102380D01*
X137769047Y-126102380D01*
X137864285Y-126054761D01*
X137911904Y-126007142D01*
X137959523Y-125911904D01*
X137959523Y-125102380D01*
X138340476Y-125102380D02*
X138959523Y-125102380D01*
X138626190Y-125483333D01*
X138769047Y-125483333D01*
X138864285Y-125530952D01*
X138911904Y-125578571D01*
X138959523Y-125673809D01*
X138959523Y-125911904D01*
X138911904Y-126007142D01*
X138864285Y-126054761D01*
X138769047Y-126102380D01*
X138483333Y-126102380D01*
X138388095Y-126054761D01*
X138340476Y-126007142D01*
%TO.C,C34*%
X110497969Y-59307106D02*
X110497969Y-59374450D01*
X110430625Y-59509137D01*
X110363282Y-59576480D01*
X110228595Y-59643824D01*
X110093908Y-59643824D01*
X109992893Y-59610152D01*
X109824534Y-59509137D01*
X109723519Y-59408122D01*
X109622503Y-59239763D01*
X109588832Y-59138748D01*
X109588832Y-59004061D01*
X109656175Y-58869374D01*
X109723519Y-58802030D01*
X109858206Y-58734687D01*
X109925549Y-58734687D01*
X110093908Y-58431641D02*
X110531641Y-57993908D01*
X110565312Y-58498984D01*
X110666328Y-58397969D01*
X110767343Y-58364297D01*
X110834687Y-58364297D01*
X110935702Y-58397969D01*
X111104061Y-58566328D01*
X111137732Y-58667343D01*
X111137732Y-58734687D01*
X111104061Y-58835702D01*
X110902030Y-59037732D01*
X110801015Y-59071404D01*
X110733671Y-59071404D01*
X111373435Y-57623519D02*
X111844839Y-58094923D01*
X110935702Y-57522503D02*
X111272419Y-58195938D01*
X111710152Y-57758206D01*
%TO.C,C26*%
X115757142Y-58442857D02*
X115804761Y-58490476D01*
X115852380Y-58633333D01*
X115852380Y-58728571D01*
X115804761Y-58871428D01*
X115709523Y-58966666D01*
X115614285Y-59014285D01*
X115423809Y-59061904D01*
X115280952Y-59061904D01*
X115090476Y-59014285D01*
X114995238Y-58966666D01*
X114900000Y-58871428D01*
X114852380Y-58728571D01*
X114852380Y-58633333D01*
X114900000Y-58490476D01*
X114947619Y-58442857D01*
X114947619Y-58061904D02*
X114900000Y-58014285D01*
X114852380Y-57919047D01*
X114852380Y-57680952D01*
X114900000Y-57585714D01*
X114947619Y-57538095D01*
X115042857Y-57490476D01*
X115138095Y-57490476D01*
X115280952Y-57538095D01*
X115852380Y-58109523D01*
X115852380Y-57490476D01*
X114852380Y-56633333D02*
X114852380Y-56823809D01*
X114900000Y-56919047D01*
X114947619Y-56966666D01*
X115090476Y-57061904D01*
X115280952Y-57109523D01*
X115661904Y-57109523D01*
X115757142Y-57061904D01*
X115804761Y-57014285D01*
X115852380Y-56919047D01*
X115852380Y-56728571D01*
X115804761Y-56633333D01*
X115757142Y-56585714D01*
X115661904Y-56538095D01*
X115423809Y-56538095D01*
X115328571Y-56585714D01*
X115280952Y-56633333D01*
X115233333Y-56728571D01*
X115233333Y-56919047D01*
X115280952Y-57014285D01*
X115328571Y-57061904D01*
X115423809Y-57109523D01*
%TO.C,C29*%
X129957142Y-74357142D02*
X129909523Y-74404761D01*
X129766666Y-74452380D01*
X129671428Y-74452380D01*
X129528571Y-74404761D01*
X129433333Y-74309523D01*
X129385714Y-74214285D01*
X129338095Y-74023809D01*
X129338095Y-73880952D01*
X129385714Y-73690476D01*
X129433333Y-73595238D01*
X129528571Y-73500000D01*
X129671428Y-73452380D01*
X129766666Y-73452380D01*
X129909523Y-73500000D01*
X129957142Y-73547619D01*
X130338095Y-73547619D02*
X130385714Y-73500000D01*
X130480952Y-73452380D01*
X130719047Y-73452380D01*
X130814285Y-73500000D01*
X130861904Y-73547619D01*
X130909523Y-73642857D01*
X130909523Y-73738095D01*
X130861904Y-73880952D01*
X130290476Y-74452380D01*
X130909523Y-74452380D01*
X131385714Y-74452380D02*
X131576190Y-74452380D01*
X131671428Y-74404761D01*
X131719047Y-74357142D01*
X131814285Y-74214285D01*
X131861904Y-74023809D01*
X131861904Y-73642857D01*
X131814285Y-73547619D01*
X131766666Y-73500000D01*
X131671428Y-73452380D01*
X131480952Y-73452380D01*
X131385714Y-73500000D01*
X131338095Y-73547619D01*
X131290476Y-73642857D01*
X131290476Y-73880952D01*
X131338095Y-73976190D01*
X131385714Y-74023809D01*
X131480952Y-74071428D01*
X131671428Y-74071428D01*
X131766666Y-74023809D01*
X131814285Y-73976190D01*
X131861904Y-73880952D01*
%TO.C,U5*%
X129938095Y-57752380D02*
X129938095Y-58561904D01*
X129985714Y-58657142D01*
X130033333Y-58704761D01*
X130128571Y-58752380D01*
X130319047Y-58752380D01*
X130414285Y-58704761D01*
X130461904Y-58657142D01*
X130509523Y-58561904D01*
X130509523Y-57752380D01*
X131461904Y-57752380D02*
X130985714Y-57752380D01*
X130938095Y-58228571D01*
X130985714Y-58180952D01*
X131080952Y-58133333D01*
X131319047Y-58133333D01*
X131414285Y-58180952D01*
X131461904Y-58228571D01*
X131509523Y-58323809D01*
X131509523Y-58561904D01*
X131461904Y-58657142D01*
X131414285Y-58704761D01*
X131319047Y-58752380D01*
X131080952Y-58752380D01*
X130985714Y-58704761D01*
X130938095Y-58657142D01*
%TO.C,C2*%
X125657142Y-90166666D02*
X125704761Y-90214285D01*
X125752380Y-90357142D01*
X125752380Y-90452380D01*
X125704761Y-90595238D01*
X125609523Y-90690476D01*
X125514285Y-90738095D01*
X125323809Y-90785714D01*
X125180952Y-90785714D01*
X124990476Y-90738095D01*
X124895238Y-90690476D01*
X124800000Y-90595238D01*
X124752380Y-90452380D01*
X124752380Y-90357142D01*
X124800000Y-90214285D01*
X124847619Y-90166666D01*
X124847619Y-89785714D02*
X124800000Y-89738095D01*
X124752380Y-89642857D01*
X124752380Y-89404761D01*
X124800000Y-89309523D01*
X124847619Y-89261904D01*
X124942857Y-89214285D01*
X125038095Y-89214285D01*
X125180952Y-89261904D01*
X125752380Y-89833333D01*
X125752380Y-89214285D01*
%TO.C,C3*%
X137457142Y-84566666D02*
X137504761Y-84614285D01*
X137552380Y-84757142D01*
X137552380Y-84852380D01*
X137504761Y-84995238D01*
X137409523Y-85090476D01*
X137314285Y-85138095D01*
X137123809Y-85185714D01*
X136980952Y-85185714D01*
X136790476Y-85138095D01*
X136695238Y-85090476D01*
X136600000Y-84995238D01*
X136552380Y-84852380D01*
X136552380Y-84757142D01*
X136600000Y-84614285D01*
X136647619Y-84566666D01*
X136552380Y-84233333D02*
X136552380Y-83614285D01*
X136933333Y-83947619D01*
X136933333Y-83804761D01*
X136980952Y-83709523D01*
X137028571Y-83661904D01*
X137123809Y-83614285D01*
X137361904Y-83614285D01*
X137457142Y-83661904D01*
X137504761Y-83709523D01*
X137552380Y-83804761D01*
X137552380Y-84090476D01*
X137504761Y-84185714D01*
X137457142Y-84233333D01*
%TO.C,C12*%
X156257142Y-108457142D02*
X156209523Y-108504761D01*
X156066666Y-108552380D01*
X155971428Y-108552380D01*
X155828571Y-108504761D01*
X155733333Y-108409523D01*
X155685714Y-108314285D01*
X155638095Y-108123809D01*
X155638095Y-107980952D01*
X155685714Y-107790476D01*
X155733333Y-107695238D01*
X155828571Y-107600000D01*
X155971428Y-107552380D01*
X156066666Y-107552380D01*
X156209523Y-107600000D01*
X156257142Y-107647619D01*
X157209523Y-108552380D02*
X156638095Y-108552380D01*
X156923809Y-108552380D02*
X156923809Y-107552380D01*
X156828571Y-107695238D01*
X156733333Y-107790476D01*
X156638095Y-107838095D01*
X157590476Y-107647619D02*
X157638095Y-107600000D01*
X157733333Y-107552380D01*
X157971428Y-107552380D01*
X158066666Y-107600000D01*
X158114285Y-107647619D01*
X158161904Y-107742857D01*
X158161904Y-107838095D01*
X158114285Y-107980952D01*
X157542857Y-108552380D01*
X158161904Y-108552380D01*
%TO.C,C13*%
X138607142Y-57680357D02*
X138654761Y-57727976D01*
X138702380Y-57870833D01*
X138702380Y-57966071D01*
X138654761Y-58108928D01*
X138559523Y-58204166D01*
X138464285Y-58251785D01*
X138273809Y-58299404D01*
X138130952Y-58299404D01*
X137940476Y-58251785D01*
X137845238Y-58204166D01*
X137750000Y-58108928D01*
X137702380Y-57966071D01*
X137702380Y-57870833D01*
X137750000Y-57727976D01*
X137797619Y-57680357D01*
X138702380Y-56727976D02*
X138702380Y-57299404D01*
X138702380Y-57013690D02*
X137702380Y-57013690D01*
X137845238Y-57108928D01*
X137940476Y-57204166D01*
X137988095Y-57299404D01*
X137702380Y-56394642D02*
X137702380Y-55775595D01*
X138083333Y-56108928D01*
X138083333Y-55966071D01*
X138130952Y-55870833D01*
X138178571Y-55823214D01*
X138273809Y-55775595D01*
X138511904Y-55775595D01*
X138607142Y-55823214D01*
X138654761Y-55870833D01*
X138702380Y-55966071D01*
X138702380Y-56251785D01*
X138654761Y-56347023D01*
X138607142Y-56394642D01*
%TO.C,C15*%
X156657142Y-87642857D02*
X156704761Y-87690476D01*
X156752380Y-87833333D01*
X156752380Y-87928571D01*
X156704761Y-88071428D01*
X156609523Y-88166666D01*
X156514285Y-88214285D01*
X156323809Y-88261904D01*
X156180952Y-88261904D01*
X155990476Y-88214285D01*
X155895238Y-88166666D01*
X155800000Y-88071428D01*
X155752380Y-87928571D01*
X155752380Y-87833333D01*
X155800000Y-87690476D01*
X155847619Y-87642857D01*
X156752380Y-86690476D02*
X156752380Y-87261904D01*
X156752380Y-86976190D02*
X155752380Y-86976190D01*
X155895238Y-87071428D01*
X155990476Y-87166666D01*
X156038095Y-87261904D01*
X155752380Y-85785714D02*
X155752380Y-86261904D01*
X156228571Y-86309523D01*
X156180952Y-86261904D01*
X156133333Y-86166666D01*
X156133333Y-85928571D01*
X156180952Y-85833333D01*
X156228571Y-85785714D01*
X156323809Y-85738095D01*
X156561904Y-85738095D01*
X156657142Y-85785714D01*
X156704761Y-85833333D01*
X156752380Y-85928571D01*
X156752380Y-86166666D01*
X156704761Y-86261904D01*
X156657142Y-86309523D01*
%TO.C,C17*%
X156657142Y-90342857D02*
X156704761Y-90390476D01*
X156752380Y-90533333D01*
X156752380Y-90628571D01*
X156704761Y-90771428D01*
X156609523Y-90866666D01*
X156514285Y-90914285D01*
X156323809Y-90961904D01*
X156180952Y-90961904D01*
X155990476Y-90914285D01*
X155895238Y-90866666D01*
X155800000Y-90771428D01*
X155752380Y-90628571D01*
X155752380Y-90533333D01*
X155800000Y-90390476D01*
X155847619Y-90342857D01*
X156752380Y-89390476D02*
X156752380Y-89961904D01*
X156752380Y-89676190D02*
X155752380Y-89676190D01*
X155895238Y-89771428D01*
X155990476Y-89866666D01*
X156038095Y-89961904D01*
X155752380Y-89057142D02*
X155752380Y-88390476D01*
X156752380Y-88819047D01*
%TO.C,D1*%
X148302380Y-61563095D02*
X147302380Y-61563095D01*
X147302380Y-61325000D01*
X147350000Y-61182142D01*
X147445238Y-61086904D01*
X147540476Y-61039285D01*
X147730952Y-60991666D01*
X147873809Y-60991666D01*
X148064285Y-61039285D01*
X148159523Y-61086904D01*
X148254761Y-61182142D01*
X148302380Y-61325000D01*
X148302380Y-61563095D01*
X148302380Y-60039285D02*
X148302380Y-60610714D01*
X148302380Y-60325000D02*
X147302380Y-60325000D01*
X147445238Y-60420238D01*
X147540476Y-60515476D01*
X147588095Y-60610714D01*
%TO.C,U1*%
X133438095Y-85252380D02*
X133438095Y-86061904D01*
X133485714Y-86157142D01*
X133533333Y-86204761D01*
X133628571Y-86252380D01*
X133819047Y-86252380D01*
X133914285Y-86204761D01*
X133961904Y-86157142D01*
X134009523Y-86061904D01*
X134009523Y-85252380D01*
X135009523Y-86252380D02*
X134438095Y-86252380D01*
X134723809Y-86252380D02*
X134723809Y-85252380D01*
X134628571Y-85395238D01*
X134533333Y-85490476D01*
X134438095Y-85538095D01*
%TO.C,L1*%
X129033333Y-94952380D02*
X128557142Y-94952380D01*
X128557142Y-93952380D01*
X129890476Y-94952380D02*
X129319047Y-94952380D01*
X129604761Y-94952380D02*
X129604761Y-93952380D01*
X129509523Y-94095238D01*
X129414285Y-94190476D01*
X129319047Y-94238095D01*
%TO.C,C7*%
X129557142Y-96266666D02*
X129604761Y-96314285D01*
X129652380Y-96457142D01*
X129652380Y-96552380D01*
X129604761Y-96695238D01*
X129509523Y-96790476D01*
X129414285Y-96838095D01*
X129223809Y-96885714D01*
X129080952Y-96885714D01*
X128890476Y-96838095D01*
X128795238Y-96790476D01*
X128700000Y-96695238D01*
X128652380Y-96552380D01*
X128652380Y-96457142D01*
X128700000Y-96314285D01*
X128747619Y-96266666D01*
X128652380Y-95933333D02*
X128652380Y-95266666D01*
X129652380Y-95695238D01*
%TO.C,C8*%
X138757142Y-98266666D02*
X138804761Y-98314285D01*
X138852380Y-98457142D01*
X138852380Y-98552380D01*
X138804761Y-98695238D01*
X138709523Y-98790476D01*
X138614285Y-98838095D01*
X138423809Y-98885714D01*
X138280952Y-98885714D01*
X138090476Y-98838095D01*
X137995238Y-98790476D01*
X137900000Y-98695238D01*
X137852380Y-98552380D01*
X137852380Y-98457142D01*
X137900000Y-98314285D01*
X137947619Y-98266666D01*
X138280952Y-97695238D02*
X138233333Y-97790476D01*
X138185714Y-97838095D01*
X138090476Y-97885714D01*
X138042857Y-97885714D01*
X137947619Y-97838095D01*
X137900000Y-97790476D01*
X137852380Y-97695238D01*
X137852380Y-97504761D01*
X137900000Y-97409523D01*
X137947619Y-97361904D01*
X138042857Y-97314285D01*
X138090476Y-97314285D01*
X138185714Y-97361904D01*
X138233333Y-97409523D01*
X138280952Y-97504761D01*
X138280952Y-97695238D01*
X138328571Y-97790476D01*
X138376190Y-97838095D01*
X138471428Y-97885714D01*
X138661904Y-97885714D01*
X138757142Y-97838095D01*
X138804761Y-97790476D01*
X138852380Y-97695238D01*
X138852380Y-97504761D01*
X138804761Y-97409523D01*
X138757142Y-97361904D01*
X138661904Y-97314285D01*
X138471428Y-97314285D01*
X138376190Y-97361904D01*
X138328571Y-97409523D01*
X138280952Y-97504761D01*
%TO.C,C6*%
X140057142Y-95066666D02*
X140104761Y-95114285D01*
X140152380Y-95257142D01*
X140152380Y-95352380D01*
X140104761Y-95495238D01*
X140009523Y-95590476D01*
X139914285Y-95638095D01*
X139723809Y-95685714D01*
X139580952Y-95685714D01*
X139390476Y-95638095D01*
X139295238Y-95590476D01*
X139200000Y-95495238D01*
X139152380Y-95352380D01*
X139152380Y-95257142D01*
X139200000Y-95114285D01*
X139247619Y-95066666D01*
X139152380Y-94209523D02*
X139152380Y-94400000D01*
X139200000Y-94495238D01*
X139247619Y-94542857D01*
X139390476Y-94638095D01*
X139580952Y-94685714D01*
X139961904Y-94685714D01*
X140057142Y-94638095D01*
X140104761Y-94590476D01*
X140152380Y-94495238D01*
X140152380Y-94304761D01*
X140104761Y-94209523D01*
X140057142Y-94161904D01*
X139961904Y-94114285D01*
X139723809Y-94114285D01*
X139628571Y-94161904D01*
X139580952Y-94209523D01*
X139533333Y-94304761D01*
X139533333Y-94495238D01*
X139580952Y-94590476D01*
X139628571Y-94638095D01*
X139723809Y-94685714D01*
%TO.C,Y1*%
X129476174Y-88976516D02*
X129952690Y-88976516D01*
X128952005Y-89310078D02*
X129476174Y-88976516D01*
X128952005Y-88642955D01*
X129952690Y-87785225D02*
X129952690Y-88357045D01*
X129952690Y-88071135D02*
X128952005Y-88071135D01*
X129094960Y-88166438D01*
X129190264Y-88261741D01*
X129237915Y-88357045D01*
%TO.C,FB1*%
X139451667Y-65028571D02*
X139118334Y-65028571D01*
X139118334Y-65552380D02*
X139118334Y-64552380D01*
X139594524Y-64552380D01*
X140308810Y-65028571D02*
X140451667Y-65076190D01*
X140499286Y-65123809D01*
X140546905Y-65219047D01*
X140546905Y-65361904D01*
X140499286Y-65457142D01*
X140451667Y-65504761D01*
X140356429Y-65552380D01*
X139975477Y-65552380D01*
X139975477Y-64552380D01*
X140308810Y-64552380D01*
X140404048Y-64600000D01*
X140451667Y-64647619D01*
X140499286Y-64742857D01*
X140499286Y-64838095D01*
X140451667Y-64933333D01*
X140404048Y-64980952D01*
X140308810Y-65028571D01*
X139975477Y-65028571D01*
X141499286Y-65552380D02*
X140927858Y-65552380D01*
X141213572Y-65552380D02*
X141213572Y-64552380D01*
X141118334Y-64695238D01*
X141023096Y-64790476D01*
X140927858Y-64838095D01*
%TO.C,R2*%
X153222380Y-60491666D02*
X152746190Y-60825000D01*
X153222380Y-61063095D02*
X152222380Y-61063095D01*
X152222380Y-60682142D01*
X152270000Y-60586904D01*
X152317619Y-60539285D01*
X152412857Y-60491666D01*
X152555714Y-60491666D01*
X152650952Y-60539285D01*
X152698571Y-60586904D01*
X152746190Y-60682142D01*
X152746190Y-61063095D01*
X152317619Y-60110714D02*
X152270000Y-60063095D01*
X152222380Y-59967857D01*
X152222380Y-59729761D01*
X152270000Y-59634523D01*
X152317619Y-59586904D01*
X152412857Y-59539285D01*
X152508095Y-59539285D01*
X152650952Y-59586904D01*
X153222380Y-60158333D01*
X153222380Y-59539285D01*
%TO.C,R3*%
X146258333Y-64682380D02*
X145925000Y-64206190D01*
X145686904Y-64682380D02*
X145686904Y-63682380D01*
X146067857Y-63682380D01*
X146163095Y-63730000D01*
X146210714Y-63777619D01*
X146258333Y-63872857D01*
X146258333Y-64015714D01*
X146210714Y-64110952D01*
X146163095Y-64158571D01*
X146067857Y-64206190D01*
X145686904Y-64206190D01*
X146591666Y-63682380D02*
X147210714Y-63682380D01*
X146877380Y-64063333D01*
X147020238Y-64063333D01*
X147115476Y-64110952D01*
X147163095Y-64158571D01*
X147210714Y-64253809D01*
X147210714Y-64491904D01*
X147163095Y-64587142D01*
X147115476Y-64634761D01*
X147020238Y-64682380D01*
X146734523Y-64682380D01*
X146639285Y-64634761D01*
X146591666Y-64587142D01*
%TO.C,L2*%
X138852380Y-96366666D02*
X138852380Y-96842857D01*
X137852380Y-96842857D01*
X137947619Y-96080952D02*
X137900000Y-96033333D01*
X137852380Y-95938095D01*
X137852380Y-95700000D01*
X137900000Y-95604761D01*
X137947619Y-95557142D01*
X138042857Y-95509523D01*
X138138095Y-95509523D01*
X138280952Y-95557142D01*
X138852380Y-96128571D01*
X138852380Y-95509523D01*
%TO.C,J4*%
X132352380Y-58533333D02*
X133066666Y-58533333D01*
X133209523Y-58580952D01*
X133304761Y-58676190D01*
X133352380Y-58819047D01*
X133352380Y-58914285D01*
X132685714Y-57628571D02*
X133352380Y-57628571D01*
X132304761Y-57866666D02*
X133019047Y-58104761D01*
X133019047Y-57485714D01*
%TO.C,C18*%
X146627142Y-87462857D02*
X146674761Y-87510476D01*
X146722380Y-87653333D01*
X146722380Y-87748571D01*
X146674761Y-87891428D01*
X146579523Y-87986666D01*
X146484285Y-88034285D01*
X146293809Y-88081904D01*
X146150952Y-88081904D01*
X145960476Y-88034285D01*
X145865238Y-87986666D01*
X145770000Y-87891428D01*
X145722380Y-87748571D01*
X145722380Y-87653333D01*
X145770000Y-87510476D01*
X145817619Y-87462857D01*
X146722380Y-86510476D02*
X146722380Y-87081904D01*
X146722380Y-86796190D02*
X145722380Y-86796190D01*
X145865238Y-86891428D01*
X145960476Y-86986666D01*
X146008095Y-87081904D01*
X146150952Y-85939047D02*
X146103333Y-86034285D01*
X146055714Y-86081904D01*
X145960476Y-86129523D01*
X145912857Y-86129523D01*
X145817619Y-86081904D01*
X145770000Y-86034285D01*
X145722380Y-85939047D01*
X145722380Y-85748571D01*
X145770000Y-85653333D01*
X145817619Y-85605714D01*
X145912857Y-85558095D01*
X145960476Y-85558095D01*
X146055714Y-85605714D01*
X146103333Y-85653333D01*
X146150952Y-85748571D01*
X146150952Y-85939047D01*
X146198571Y-86034285D01*
X146246190Y-86081904D01*
X146341428Y-86129523D01*
X146531904Y-86129523D01*
X146627142Y-86081904D01*
X146674761Y-86034285D01*
X146722380Y-85939047D01*
X146722380Y-85748571D01*
X146674761Y-85653333D01*
X146627142Y-85605714D01*
X146531904Y-85558095D01*
X146341428Y-85558095D01*
X146246190Y-85605714D01*
X146198571Y-85653333D01*
X146150952Y-85748571D01*
%TO.C,C4*%
X125657142Y-86566666D02*
X125704761Y-86614285D01*
X125752380Y-86757142D01*
X125752380Y-86852380D01*
X125704761Y-86995238D01*
X125609523Y-87090476D01*
X125514285Y-87138095D01*
X125323809Y-87185714D01*
X125180952Y-87185714D01*
X124990476Y-87138095D01*
X124895238Y-87090476D01*
X124800000Y-86995238D01*
X124752380Y-86852380D01*
X124752380Y-86757142D01*
X124800000Y-86614285D01*
X124847619Y-86566666D01*
X125085714Y-85709523D02*
X125752380Y-85709523D01*
X124704761Y-85947619D02*
X125419047Y-86185714D01*
X125419047Y-85566666D01*
%TO.C,C11*%
X142357142Y-107557142D02*
X142309523Y-107604761D01*
X142166666Y-107652380D01*
X142071428Y-107652380D01*
X141928571Y-107604761D01*
X141833333Y-107509523D01*
X141785714Y-107414285D01*
X141738095Y-107223809D01*
X141738095Y-107080952D01*
X141785714Y-106890476D01*
X141833333Y-106795238D01*
X141928571Y-106700000D01*
X142071428Y-106652380D01*
X142166666Y-106652380D01*
X142309523Y-106700000D01*
X142357142Y-106747619D01*
X143309523Y-107652380D02*
X142738095Y-107652380D01*
X143023809Y-107652380D02*
X143023809Y-106652380D01*
X142928571Y-106795238D01*
X142833333Y-106890476D01*
X142738095Y-106938095D01*
X144261904Y-107652380D02*
X143690476Y-107652380D01*
X143976190Y-107652380D02*
X143976190Y-106652380D01*
X143880952Y-106795238D01*
X143785714Y-106890476D01*
X143690476Y-106938095D01*
%TO.C,L9*%
X145552380Y-101966666D02*
X145552380Y-102442857D01*
X144552380Y-102442857D01*
X145552380Y-101585714D02*
X145552380Y-101395238D01*
X145504761Y-101300000D01*
X145457142Y-101252380D01*
X145314285Y-101157142D01*
X145123809Y-101109523D01*
X144742857Y-101109523D01*
X144647619Y-101157142D01*
X144600000Y-101204761D01*
X144552380Y-101300000D01*
X144552380Y-101490476D01*
X144600000Y-101585714D01*
X144647619Y-101633333D01*
X144742857Y-101680952D01*
X144980952Y-101680952D01*
X145076190Y-101633333D01*
X145123809Y-101585714D01*
X145171428Y-101490476D01*
X145171428Y-101300000D01*
X145123809Y-101204761D01*
X145076190Y-101157142D01*
X144980952Y-101109523D01*
%TO.C,L4*%
X156652380Y-106866666D02*
X156652380Y-107342857D01*
X155652380Y-107342857D01*
X155985714Y-106104761D02*
X156652380Y-106104761D01*
X155604761Y-106342857D02*
X156319047Y-106580952D01*
X156319047Y-105961904D01*
%TO.C,C21*%
X156257142Y-102757142D02*
X156209523Y-102804761D01*
X156066666Y-102852380D01*
X155971428Y-102852380D01*
X155828571Y-102804761D01*
X155733333Y-102709523D01*
X155685714Y-102614285D01*
X155638095Y-102423809D01*
X155638095Y-102280952D01*
X155685714Y-102090476D01*
X155733333Y-101995238D01*
X155828571Y-101900000D01*
X155971428Y-101852380D01*
X156066666Y-101852380D01*
X156209523Y-101900000D01*
X156257142Y-101947619D01*
X156638095Y-101947619D02*
X156685714Y-101900000D01*
X156780952Y-101852380D01*
X157019047Y-101852380D01*
X157114285Y-101900000D01*
X157161904Y-101947619D01*
X157209523Y-102042857D01*
X157209523Y-102138095D01*
X157161904Y-102280952D01*
X156590476Y-102852380D01*
X157209523Y-102852380D01*
X158161904Y-102852380D02*
X157590476Y-102852380D01*
X157876190Y-102852380D02*
X157876190Y-101852380D01*
X157780952Y-101995238D01*
X157685714Y-102090476D01*
X157590476Y-102138095D01*
%TO.C,L11*%
X145552380Y-107042857D02*
X145552380Y-107519047D01*
X144552380Y-107519047D01*
X145552380Y-106185714D02*
X145552380Y-106757142D01*
X145552380Y-106471428D02*
X144552380Y-106471428D01*
X144695238Y-106566666D01*
X144790476Y-106661904D01*
X144838095Y-106757142D01*
X145552380Y-105233333D02*
X145552380Y-105804761D01*
X145552380Y-105519047D02*
X144552380Y-105519047D01*
X144695238Y-105614285D01*
X144790476Y-105709523D01*
X144838095Y-105804761D01*
%TO.C,C22*%
X142357142Y-104657142D02*
X142309523Y-104704761D01*
X142166666Y-104752380D01*
X142071428Y-104752380D01*
X141928571Y-104704761D01*
X141833333Y-104609523D01*
X141785714Y-104514285D01*
X141738095Y-104323809D01*
X141738095Y-104180952D01*
X141785714Y-103990476D01*
X141833333Y-103895238D01*
X141928571Y-103800000D01*
X142071428Y-103752380D01*
X142166666Y-103752380D01*
X142309523Y-103800000D01*
X142357142Y-103847619D01*
X142738095Y-103847619D02*
X142785714Y-103800000D01*
X142880952Y-103752380D01*
X143119047Y-103752380D01*
X143214285Y-103800000D01*
X143261904Y-103847619D01*
X143309523Y-103942857D01*
X143309523Y-104038095D01*
X143261904Y-104180952D01*
X142690476Y-104752380D01*
X143309523Y-104752380D01*
X143690476Y-103847619D02*
X143738095Y-103800000D01*
X143833333Y-103752380D01*
X144071428Y-103752380D01*
X144166666Y-103800000D01*
X144214285Y-103847619D01*
X144261904Y-103942857D01*
X144261904Y-104038095D01*
X144214285Y-104180952D01*
X143642857Y-104752380D01*
X144261904Y-104752380D01*
%TO.C,R1*%
X156652380Y-110566666D02*
X156176190Y-110900000D01*
X156652380Y-111138095D02*
X155652380Y-111138095D01*
X155652380Y-110757142D01*
X155700000Y-110661904D01*
X155747619Y-110614285D01*
X155842857Y-110566666D01*
X155985714Y-110566666D01*
X156080952Y-110614285D01*
X156128571Y-110661904D01*
X156176190Y-110757142D01*
X156176190Y-111138095D01*
X156652380Y-109614285D02*
X156652380Y-110185714D01*
X156652380Y-109900000D02*
X155652380Y-109900000D01*
X155795238Y-109995238D01*
X155890476Y-110090476D01*
X155938095Y-110185714D01*
%TO.C,U2*%
X144038095Y-109852380D02*
X144038095Y-110661904D01*
X144085714Y-110757142D01*
X144133333Y-110804761D01*
X144228571Y-110852380D01*
X144419047Y-110852380D01*
X144514285Y-110804761D01*
X144561904Y-110757142D01*
X144609523Y-110661904D01*
X144609523Y-109852380D01*
X145038095Y-109947619D02*
X145085714Y-109900000D01*
X145180952Y-109852380D01*
X145419047Y-109852380D01*
X145514285Y-109900000D01*
X145561904Y-109947619D01*
X145609523Y-110042857D01*
X145609523Y-110138095D01*
X145561904Y-110280952D01*
X144990476Y-110852380D01*
X145609523Y-110852380D01*
%TO.C,C9*%
X129657142Y-110466666D02*
X129704761Y-110514285D01*
X129752380Y-110657142D01*
X129752380Y-110752380D01*
X129704761Y-110895238D01*
X129609523Y-110990476D01*
X129514285Y-111038095D01*
X129323809Y-111085714D01*
X129180952Y-111085714D01*
X128990476Y-111038095D01*
X128895238Y-110990476D01*
X128800000Y-110895238D01*
X128752380Y-110752380D01*
X128752380Y-110657142D01*
X128800000Y-110514285D01*
X128847619Y-110466666D01*
X129752380Y-109990476D02*
X129752380Y-109800000D01*
X129704761Y-109704761D01*
X129657142Y-109657142D01*
X129514285Y-109561904D01*
X129323809Y-109514285D01*
X128942857Y-109514285D01*
X128847619Y-109561904D01*
X128800000Y-109609523D01*
X128752380Y-109704761D01*
X128752380Y-109895238D01*
X128800000Y-109990476D01*
X128847619Y-110038095D01*
X128942857Y-110085714D01*
X129180952Y-110085714D01*
X129276190Y-110038095D01*
X129323809Y-109990476D01*
X129371428Y-109895238D01*
X129371428Y-109704761D01*
X129323809Y-109609523D01*
X129276190Y-109561904D01*
X129180952Y-109514285D01*
%TO.C,L3*%
X138952380Y-111366666D02*
X138952380Y-111842857D01*
X137952380Y-111842857D01*
X137952380Y-111128571D02*
X137952380Y-110509523D01*
X138333333Y-110842857D01*
X138333333Y-110700000D01*
X138380952Y-110604761D01*
X138428571Y-110557142D01*
X138523809Y-110509523D01*
X138761904Y-110509523D01*
X138857142Y-110557142D01*
X138904761Y-110604761D01*
X138952380Y-110700000D01*
X138952380Y-110985714D01*
X138904761Y-111080952D01*
X138857142Y-111128571D01*
%TO.C,C10*%
X140057142Y-111342857D02*
X140104761Y-111390476D01*
X140152380Y-111533333D01*
X140152380Y-111628571D01*
X140104761Y-111771428D01*
X140009523Y-111866666D01*
X139914285Y-111914285D01*
X139723809Y-111961904D01*
X139580952Y-111961904D01*
X139390476Y-111914285D01*
X139295238Y-111866666D01*
X139200000Y-111771428D01*
X139152380Y-111628571D01*
X139152380Y-111533333D01*
X139200000Y-111390476D01*
X139247619Y-111342857D01*
X140152380Y-110390476D02*
X140152380Y-110961904D01*
X140152380Y-110676190D02*
X139152380Y-110676190D01*
X139295238Y-110771428D01*
X139390476Y-110866666D01*
X139438095Y-110961904D01*
X139152380Y-109771428D02*
X139152380Y-109676190D01*
X139200000Y-109580952D01*
X139247619Y-109533333D01*
X139342857Y-109485714D01*
X139533333Y-109438095D01*
X139771428Y-109438095D01*
X139961904Y-109485714D01*
X140057142Y-109533333D01*
X140104761Y-109580952D01*
X140152380Y-109676190D01*
X140152380Y-109771428D01*
X140104761Y-109866666D01*
X140057142Y-109914285D01*
X139961904Y-109961904D01*
X139771428Y-110009523D01*
X139533333Y-110009523D01*
X139342857Y-109961904D01*
X139247619Y-109914285D01*
X139200000Y-109866666D01*
X139152380Y-109771428D01*
%TO.C,L8*%
X144933333Y-98052380D02*
X144457142Y-98052380D01*
X144457142Y-97052380D01*
X145409523Y-97480952D02*
X145314285Y-97433333D01*
X145266666Y-97385714D01*
X145219047Y-97290476D01*
X145219047Y-97242857D01*
X145266666Y-97147619D01*
X145314285Y-97100000D01*
X145409523Y-97052380D01*
X145600000Y-97052380D01*
X145695238Y-97100000D01*
X145742857Y-97147619D01*
X145790476Y-97242857D01*
X145790476Y-97290476D01*
X145742857Y-97385714D01*
X145695238Y-97433333D01*
X145600000Y-97480952D01*
X145409523Y-97480952D01*
X145314285Y-97528571D01*
X145266666Y-97576190D01*
X145219047Y-97671428D01*
X145219047Y-97861904D01*
X145266666Y-97957142D01*
X145314285Y-98004761D01*
X145409523Y-98052380D01*
X145600000Y-98052380D01*
X145695238Y-98004761D01*
X145742857Y-97957142D01*
X145790476Y-97861904D01*
X145790476Y-97671428D01*
X145742857Y-97576190D01*
X145695238Y-97528571D01*
X145600000Y-97480952D01*
%TO.C,L6*%
X156233333Y-94952380D02*
X155757142Y-94952380D01*
X155757142Y-93952380D01*
X156995238Y-93952380D02*
X156804761Y-93952380D01*
X156709523Y-94000000D01*
X156661904Y-94047619D01*
X156566666Y-94190476D01*
X156519047Y-94380952D01*
X156519047Y-94761904D01*
X156566666Y-94857142D01*
X156614285Y-94904761D01*
X156709523Y-94952380D01*
X156900000Y-94952380D01*
X156995238Y-94904761D01*
X157042857Y-94857142D01*
X157090476Y-94761904D01*
X157090476Y-94523809D01*
X157042857Y-94428571D01*
X156995238Y-94380952D01*
X156900000Y-94333333D01*
X156709523Y-94333333D01*
X156614285Y-94380952D01*
X156566666Y-94428571D01*
X156519047Y-94523809D01*
%TO.C,C20*%
X144657142Y-96142857D02*
X144704761Y-96190476D01*
X144752380Y-96333333D01*
X144752380Y-96428571D01*
X144704761Y-96571428D01*
X144609523Y-96666666D01*
X144514285Y-96714285D01*
X144323809Y-96761904D01*
X144180952Y-96761904D01*
X143990476Y-96714285D01*
X143895238Y-96666666D01*
X143800000Y-96571428D01*
X143752380Y-96428571D01*
X143752380Y-96333333D01*
X143800000Y-96190476D01*
X143847619Y-96142857D01*
X143847619Y-95761904D02*
X143800000Y-95714285D01*
X143752380Y-95619047D01*
X143752380Y-95380952D01*
X143800000Y-95285714D01*
X143847619Y-95238095D01*
X143942857Y-95190476D01*
X144038095Y-95190476D01*
X144180952Y-95238095D01*
X144752380Y-95809523D01*
X144752380Y-95190476D01*
X143752380Y-94571428D02*
X143752380Y-94476190D01*
X143800000Y-94380952D01*
X143847619Y-94333333D01*
X143942857Y-94285714D01*
X144133333Y-94238095D01*
X144371428Y-94238095D01*
X144561904Y-94285714D01*
X144657142Y-94333333D01*
X144704761Y-94380952D01*
X144752380Y-94476190D01*
X144752380Y-94571428D01*
X144704761Y-94666666D01*
X144657142Y-94714285D01*
X144561904Y-94761904D01*
X144371428Y-94809523D01*
X144133333Y-94809523D01*
X143942857Y-94761904D01*
X143847619Y-94714285D01*
X143800000Y-94666666D01*
X143752380Y-94571428D01*
%TO.C,L7*%
X156752380Y-96866666D02*
X156752380Y-97342857D01*
X155752380Y-97342857D01*
X155752380Y-96628571D02*
X155752380Y-95961904D01*
X156752380Y-96390476D01*
%TO.C,Y2*%
X144776174Y-88876516D02*
X145252690Y-88876516D01*
X144252005Y-89210078D02*
X144776174Y-88876516D01*
X144252005Y-88542955D01*
X144347309Y-88257045D02*
X144299657Y-88209393D01*
X144252005Y-88114090D01*
X144252005Y-87875831D01*
X144299657Y-87780528D01*
X144347309Y-87732876D01*
X144442612Y-87685225D01*
X144537915Y-87685225D01*
X144680870Y-87732876D01*
X145252690Y-88304696D01*
X145252690Y-87685225D01*
%TO.C,U6*%
X148638095Y-85252380D02*
X148638095Y-86061904D01*
X148685714Y-86157142D01*
X148733333Y-86204761D01*
X148828571Y-86252380D01*
X149019047Y-86252380D01*
X149114285Y-86204761D01*
X149161904Y-86157142D01*
X149209523Y-86061904D01*
X149209523Y-85252380D01*
X150114285Y-85252380D02*
X149923809Y-85252380D01*
X149828571Y-85300000D01*
X149780952Y-85347619D01*
X149685714Y-85490476D01*
X149638095Y-85680952D01*
X149638095Y-86061904D01*
X149685714Y-86157142D01*
X149733333Y-86204761D01*
X149828571Y-86252380D01*
X150019047Y-86252380D01*
X150114285Y-86204761D01*
X150161904Y-86157142D01*
X150209523Y-86061904D01*
X150209523Y-85823809D01*
X150161904Y-85728571D01*
X150114285Y-85680952D01*
X150019047Y-85633333D01*
X149828571Y-85633333D01*
X149733333Y-85680952D01*
X149685714Y-85728571D01*
X149638095Y-85823809D01*
%TO.C,C16*%
X140857142Y-90842857D02*
X140904761Y-90890476D01*
X140952380Y-91033333D01*
X140952380Y-91128571D01*
X140904761Y-91271428D01*
X140809523Y-91366666D01*
X140714285Y-91414285D01*
X140523809Y-91461904D01*
X140380952Y-91461904D01*
X140190476Y-91414285D01*
X140095238Y-91366666D01*
X140000000Y-91271428D01*
X139952380Y-91128571D01*
X139952380Y-91033333D01*
X140000000Y-90890476D01*
X140047619Y-90842857D01*
X140952380Y-89890476D02*
X140952380Y-90461904D01*
X140952380Y-90176190D02*
X139952380Y-90176190D01*
X140095238Y-90271428D01*
X140190476Y-90366666D01*
X140238095Y-90461904D01*
X139952380Y-89033333D02*
X139952380Y-89223809D01*
X140000000Y-89319047D01*
X140047619Y-89366666D01*
X140190476Y-89461904D01*
X140380952Y-89509523D01*
X140761904Y-89509523D01*
X140857142Y-89461904D01*
X140904761Y-89414285D01*
X140952380Y-89319047D01*
X140952380Y-89128571D01*
X140904761Y-89033333D01*
X140857142Y-88985714D01*
X140761904Y-88938095D01*
X140523809Y-88938095D01*
X140428571Y-88985714D01*
X140380952Y-89033333D01*
X140333333Y-89128571D01*
X140333333Y-89319047D01*
X140380952Y-89414285D01*
X140428571Y-89461904D01*
X140523809Y-89509523D01*
%TO.C,D4*%
X99531904Y-100382380D02*
X99531904Y-99382380D01*
X99770000Y-99382380D01*
X99912857Y-99430000D01*
X100008095Y-99525238D01*
X100055714Y-99620476D01*
X100103333Y-99810952D01*
X100103333Y-99953809D01*
X100055714Y-100144285D01*
X100008095Y-100239523D01*
X99912857Y-100334761D01*
X99770000Y-100382380D01*
X99531904Y-100382380D01*
X100960476Y-99715714D02*
X100960476Y-100382380D01*
X100722380Y-99334761D02*
X100484285Y-100049047D01*
X101103333Y-100049047D01*
%TO.C,D6*%
X99536904Y-103782380D02*
X99536904Y-102782380D01*
X99775000Y-102782380D01*
X99917857Y-102830000D01*
X100013095Y-102925238D01*
X100060714Y-103020476D01*
X100108333Y-103210952D01*
X100108333Y-103353809D01*
X100060714Y-103544285D01*
X100013095Y-103639523D01*
X99917857Y-103734761D01*
X99775000Y-103782380D01*
X99536904Y-103782380D01*
X100965476Y-102782380D02*
X100775000Y-102782380D01*
X100679761Y-102830000D01*
X100632142Y-102877619D01*
X100536904Y-103020476D01*
X100489285Y-103210952D01*
X100489285Y-103591904D01*
X100536904Y-103687142D01*
X100584523Y-103734761D01*
X100679761Y-103782380D01*
X100870238Y-103782380D01*
X100965476Y-103734761D01*
X101013095Y-103687142D01*
X101060714Y-103591904D01*
X101060714Y-103353809D01*
X101013095Y-103258571D01*
X100965476Y-103210952D01*
X100870238Y-103163333D01*
X100679761Y-103163333D01*
X100584523Y-103210952D01*
X100536904Y-103258571D01*
X100489285Y-103353809D01*
%TO.C,R6*%
X103453333Y-103782380D02*
X103120000Y-103306190D01*
X102881904Y-103782380D02*
X102881904Y-102782380D01*
X103262857Y-102782380D01*
X103358095Y-102830000D01*
X103405714Y-102877619D01*
X103453333Y-102972857D01*
X103453333Y-103115714D01*
X103405714Y-103210952D01*
X103358095Y-103258571D01*
X103262857Y-103306190D01*
X102881904Y-103306190D01*
X104310476Y-102782380D02*
X104120000Y-102782380D01*
X104024761Y-102830000D01*
X103977142Y-102877619D01*
X103881904Y-103020476D01*
X103834285Y-103210952D01*
X103834285Y-103591904D01*
X103881904Y-103687142D01*
X103929523Y-103734761D01*
X104024761Y-103782380D01*
X104215238Y-103782380D01*
X104310476Y-103734761D01*
X104358095Y-103687142D01*
X104405714Y-103591904D01*
X104405714Y-103353809D01*
X104358095Y-103258571D01*
X104310476Y-103210952D01*
X104215238Y-103163333D01*
X104024761Y-103163333D01*
X103929523Y-103210952D01*
X103881904Y-103258571D01*
X103834285Y-103353809D01*
%TO.C,R8*%
X103453333Y-100382380D02*
X103120000Y-99906190D01*
X102881904Y-100382380D02*
X102881904Y-99382380D01*
X103262857Y-99382380D01*
X103358095Y-99430000D01*
X103405714Y-99477619D01*
X103453333Y-99572857D01*
X103453333Y-99715714D01*
X103405714Y-99810952D01*
X103358095Y-99858571D01*
X103262857Y-99906190D01*
X102881904Y-99906190D01*
X104024761Y-99810952D02*
X103929523Y-99763333D01*
X103881904Y-99715714D01*
X103834285Y-99620476D01*
X103834285Y-99572857D01*
X103881904Y-99477619D01*
X103929523Y-99430000D01*
X104024761Y-99382380D01*
X104215238Y-99382380D01*
X104310476Y-99430000D01*
X104358095Y-99477619D01*
X104405714Y-99572857D01*
X104405714Y-99620476D01*
X104358095Y-99715714D01*
X104310476Y-99763333D01*
X104215238Y-99810952D01*
X104024761Y-99810952D01*
X103929523Y-99858571D01*
X103881904Y-99906190D01*
X103834285Y-100001428D01*
X103834285Y-100191904D01*
X103881904Y-100287142D01*
X103929523Y-100334761D01*
X104024761Y-100382380D01*
X104215238Y-100382380D01*
X104310476Y-100334761D01*
X104358095Y-100287142D01*
X104405714Y-100191904D01*
X104405714Y-100001428D01*
X104358095Y-99906190D01*
X104310476Y-99858571D01*
X104215238Y-99810952D01*
%TO.C,R10*%
X102977142Y-96982380D02*
X102643809Y-96506190D01*
X102405714Y-96982380D02*
X102405714Y-95982380D01*
X102786666Y-95982380D01*
X102881904Y-96030000D01*
X102929523Y-96077619D01*
X102977142Y-96172857D01*
X102977142Y-96315714D01*
X102929523Y-96410952D01*
X102881904Y-96458571D01*
X102786666Y-96506190D01*
X102405714Y-96506190D01*
X103929523Y-96982380D02*
X103358095Y-96982380D01*
X103643809Y-96982380D02*
X103643809Y-95982380D01*
X103548571Y-96125238D01*
X103453333Y-96220476D01*
X103358095Y-96268095D01*
X104548571Y-95982380D02*
X104643809Y-95982380D01*
X104739047Y-96030000D01*
X104786666Y-96077619D01*
X104834285Y-96172857D01*
X104881904Y-96363333D01*
X104881904Y-96601428D01*
X104834285Y-96791904D01*
X104786666Y-96887142D01*
X104739047Y-96934761D01*
X104643809Y-96982380D01*
X104548571Y-96982380D01*
X104453333Y-96934761D01*
X104405714Y-96887142D01*
X104358095Y-96791904D01*
X104310476Y-96601428D01*
X104310476Y-96363333D01*
X104358095Y-96172857D01*
X104405714Y-96077619D01*
X104453333Y-96030000D01*
X104548571Y-95982380D01*
%TO.C,D3*%
X99531904Y-98682380D02*
X99531904Y-97682380D01*
X99770000Y-97682380D01*
X99912857Y-97730000D01*
X100008095Y-97825238D01*
X100055714Y-97920476D01*
X100103333Y-98110952D01*
X100103333Y-98253809D01*
X100055714Y-98444285D01*
X100008095Y-98539523D01*
X99912857Y-98634761D01*
X99770000Y-98682380D01*
X99531904Y-98682380D01*
X100436666Y-97682380D02*
X101055714Y-97682380D01*
X100722380Y-98063333D01*
X100865238Y-98063333D01*
X100960476Y-98110952D01*
X101008095Y-98158571D01*
X101055714Y-98253809D01*
X101055714Y-98491904D01*
X101008095Y-98587142D01*
X100960476Y-98634761D01*
X100865238Y-98682380D01*
X100579523Y-98682380D01*
X100484285Y-98634761D01*
X100436666Y-98587142D01*
%TO.C,R7*%
X103453333Y-102082380D02*
X103120000Y-101606190D01*
X102881904Y-102082380D02*
X102881904Y-101082380D01*
X103262857Y-101082380D01*
X103358095Y-101130000D01*
X103405714Y-101177619D01*
X103453333Y-101272857D01*
X103453333Y-101415714D01*
X103405714Y-101510952D01*
X103358095Y-101558571D01*
X103262857Y-101606190D01*
X102881904Y-101606190D01*
X103786666Y-101082380D02*
X104453333Y-101082380D01*
X104024761Y-102082380D01*
%TO.C,R9*%
X103453333Y-98682380D02*
X103120000Y-98206190D01*
X102881904Y-98682380D02*
X102881904Y-97682380D01*
X103262857Y-97682380D01*
X103358095Y-97730000D01*
X103405714Y-97777619D01*
X103453333Y-97872857D01*
X103453333Y-98015714D01*
X103405714Y-98110952D01*
X103358095Y-98158571D01*
X103262857Y-98206190D01*
X102881904Y-98206190D01*
X103929523Y-98682380D02*
X104120000Y-98682380D01*
X104215238Y-98634761D01*
X104262857Y-98587142D01*
X104358095Y-98444285D01*
X104405714Y-98253809D01*
X104405714Y-97872857D01*
X104358095Y-97777619D01*
X104310476Y-97730000D01*
X104215238Y-97682380D01*
X104024761Y-97682380D01*
X103929523Y-97730000D01*
X103881904Y-97777619D01*
X103834285Y-97872857D01*
X103834285Y-98110952D01*
X103881904Y-98206190D01*
X103929523Y-98253809D01*
X104024761Y-98301428D01*
X104215238Y-98301428D01*
X104310476Y-98253809D01*
X104358095Y-98206190D01*
X104405714Y-98110952D01*
%TO.C,D5*%
X99531904Y-102082380D02*
X99531904Y-101082380D01*
X99770000Y-101082380D01*
X99912857Y-101130000D01*
X100008095Y-101225238D01*
X100055714Y-101320476D01*
X100103333Y-101510952D01*
X100103333Y-101653809D01*
X100055714Y-101844285D01*
X100008095Y-101939523D01*
X99912857Y-102034761D01*
X99770000Y-102082380D01*
X99531904Y-102082380D01*
X101008095Y-101082380D02*
X100531904Y-101082380D01*
X100484285Y-101558571D01*
X100531904Y-101510952D01*
X100627142Y-101463333D01*
X100865238Y-101463333D01*
X100960476Y-101510952D01*
X101008095Y-101558571D01*
X101055714Y-101653809D01*
X101055714Y-101891904D01*
X101008095Y-101987142D01*
X100960476Y-102034761D01*
X100865238Y-102082380D01*
X100627142Y-102082380D01*
X100531904Y-102034761D01*
X100484285Y-101987142D01*
%TO.C,L5*%
X157852380Y-110566666D02*
X157852380Y-111042857D01*
X156852380Y-111042857D01*
X156852380Y-109757142D02*
X156852380Y-110233333D01*
X157328571Y-110280952D01*
X157280952Y-110233333D01*
X157233333Y-110138095D01*
X157233333Y-109900000D01*
X157280952Y-109804761D01*
X157328571Y-109757142D01*
X157423809Y-109709523D01*
X157661904Y-109709523D01*
X157757142Y-109757142D01*
X157804761Y-109804761D01*
X157852380Y-109900000D01*
X157852380Y-110138095D01*
X157804761Y-110233333D01*
X157757142Y-110280952D01*
%TO.C,J2*%
X136756666Y-68452380D02*
X136756666Y-69166666D01*
X136709047Y-69309523D01*
X136613809Y-69404761D01*
X136470952Y-69452380D01*
X136375714Y-69452380D01*
X137185238Y-68547619D02*
X137232857Y-68500000D01*
X137328095Y-68452380D01*
X137566190Y-68452380D01*
X137661428Y-68500000D01*
X137709047Y-68547619D01*
X137756666Y-68642857D01*
X137756666Y-68738095D01*
X137709047Y-68880952D01*
X137137619Y-69452380D01*
X137756666Y-69452380D01*
%TO.C,J1*%
X143056666Y-68452380D02*
X143056666Y-69166666D01*
X143009047Y-69309523D01*
X142913809Y-69404761D01*
X142770952Y-69452380D01*
X142675714Y-69452380D01*
X144056666Y-69452380D02*
X143485238Y-69452380D01*
X143770952Y-69452380D02*
X143770952Y-68452380D01*
X143675714Y-68595238D01*
X143580476Y-68690476D01*
X143485238Y-68738095D01*
%TO.C,C1*%
X137857142Y-82766666D02*
X137904761Y-82814285D01*
X137952380Y-82957142D01*
X137952380Y-83052380D01*
X137904761Y-83195238D01*
X137809523Y-83290476D01*
X137714285Y-83338095D01*
X137523809Y-83385714D01*
X137380952Y-83385714D01*
X137190476Y-83338095D01*
X137095238Y-83290476D01*
X137000000Y-83195238D01*
X136952380Y-83052380D01*
X136952380Y-82957142D01*
X137000000Y-82814285D01*
X137047619Y-82766666D01*
X137952380Y-81814285D02*
X137952380Y-82385714D01*
X137952380Y-82100000D02*
X136952380Y-82100000D01*
X137095238Y-82195238D01*
X137190476Y-82290476D01*
X137238095Y-82385714D01*
%TO.C,Y3*%
X108069749Y-63904354D02*
X108406697Y-64241302D01*
X107463242Y-63769575D02*
X108069749Y-63904354D01*
X107934970Y-63297848D01*
X108103444Y-63129373D02*
X108541476Y-62691341D01*
X108575171Y-63196763D01*
X108676256Y-63095679D01*
X108777340Y-63061984D01*
X108844730Y-63061984D01*
X108945814Y-63095679D01*
X109114288Y-63264153D01*
X109147983Y-63365237D01*
X109147983Y-63432627D01*
X109114288Y-63533711D01*
X108912119Y-63735880D01*
X108811035Y-63769575D01*
X108743645Y-63769575D01*
%TO.C,C14*%
X149169643Y-61727142D02*
X149122024Y-61774761D01*
X148979167Y-61822380D01*
X148883929Y-61822380D01*
X148741072Y-61774761D01*
X148645834Y-61679523D01*
X148598215Y-61584285D01*
X148550596Y-61393809D01*
X148550596Y-61250952D01*
X148598215Y-61060476D01*
X148645834Y-60965238D01*
X148741072Y-60870000D01*
X148883929Y-60822380D01*
X148979167Y-60822380D01*
X149122024Y-60870000D01*
X149169643Y-60917619D01*
X150122024Y-61822380D02*
X149550596Y-61822380D01*
X149836310Y-61822380D02*
X149836310Y-60822380D01*
X149741072Y-60965238D01*
X149645834Y-61060476D01*
X149550596Y-61108095D01*
X150979167Y-61155714D02*
X150979167Y-61822380D01*
X150741072Y-60774761D02*
X150502977Y-61489047D01*
X151122024Y-61489047D01*
%TO.C,C24*%
X104247969Y-58207106D02*
X104247969Y-58274450D01*
X104180625Y-58409137D01*
X104113282Y-58476480D01*
X103978595Y-58543824D01*
X103843908Y-58543824D01*
X103742893Y-58510152D01*
X103574534Y-58409137D01*
X103473519Y-58308122D01*
X103372503Y-58139763D01*
X103338832Y-58038748D01*
X103338832Y-57904061D01*
X103406175Y-57769374D01*
X103473519Y-57702030D01*
X103608206Y-57634687D01*
X103675549Y-57634687D01*
X103944923Y-57365312D02*
X103944923Y-57297969D01*
X103978595Y-57196954D01*
X104146954Y-57028595D01*
X104247969Y-56994923D01*
X104315312Y-56994923D01*
X104416328Y-57028595D01*
X104483671Y-57095938D01*
X104551015Y-57230625D01*
X104551015Y-58038748D01*
X104988748Y-57601015D01*
X105123435Y-56523519D02*
X105594839Y-56994923D01*
X104685702Y-56422503D02*
X105022419Y-57095938D01*
X105460152Y-56658206D01*
%TO.C,C23*%
X101886063Y-66583313D02*
X101953407Y-66583313D01*
X102088094Y-66650657D01*
X102155437Y-66718000D01*
X102222781Y-66852687D01*
X102222781Y-66987374D01*
X102189109Y-67088389D01*
X102088094Y-67256748D01*
X101987079Y-67357763D01*
X101818720Y-67458779D01*
X101717705Y-67492450D01*
X101583018Y-67492450D01*
X101448331Y-67425107D01*
X101380987Y-67357763D01*
X101313644Y-67223076D01*
X101313644Y-67155733D01*
X101044269Y-66886359D02*
X100976926Y-66886359D01*
X100875911Y-66852687D01*
X100707552Y-66684328D01*
X100673880Y-66583313D01*
X100673880Y-66515970D01*
X100707552Y-66414954D01*
X100774895Y-66347611D01*
X100909582Y-66280267D01*
X101717705Y-66280267D01*
X101279972Y-65842534D01*
X100337163Y-66313939D02*
X99899430Y-65876206D01*
X100404506Y-65842534D01*
X100303491Y-65741519D01*
X100269819Y-65640504D01*
X100269819Y-65573160D01*
X100303491Y-65472145D01*
X100471850Y-65303786D01*
X100572865Y-65270115D01*
X100640208Y-65270115D01*
X100741224Y-65303786D01*
X100943254Y-65505817D01*
X100976926Y-65606832D01*
X100976926Y-65674176D01*
%TO.C,SW1*%
X103079618Y-85965236D02*
X103214305Y-85897893D01*
X103382664Y-85729534D01*
X103416336Y-85628519D01*
X103416336Y-85561175D01*
X103382664Y-85460160D01*
X103315321Y-85392817D01*
X103214305Y-85359145D01*
X103146962Y-85359145D01*
X103045947Y-85392817D01*
X102877588Y-85493832D01*
X102776573Y-85527504D01*
X102709229Y-85527504D01*
X102608214Y-85493832D01*
X102540870Y-85426488D01*
X102507199Y-85325473D01*
X102507199Y-85258130D01*
X102540870Y-85157114D01*
X102709229Y-84988756D01*
X102843916Y-84921412D01*
X103045947Y-84652038D02*
X103921412Y-85190786D01*
X103551023Y-84551023D01*
X104190786Y-84921412D01*
X103652038Y-84045947D01*
X104998908Y-84113290D02*
X104594847Y-84517351D01*
X104796878Y-84315321D02*
X104089771Y-83608214D01*
X104123443Y-83776573D01*
X104123443Y-83911260D01*
X104089771Y-84012275D01*
%TO.C,JP1*%
X128466666Y-53852380D02*
X128466666Y-54566666D01*
X128419047Y-54709523D01*
X128323809Y-54804761D01*
X128180952Y-54852380D01*
X128085714Y-54852380D01*
X128942857Y-54852380D02*
X128942857Y-53852380D01*
X129323809Y-53852380D01*
X129419047Y-53900000D01*
X129466666Y-53947619D01*
X129514285Y-54042857D01*
X129514285Y-54185714D01*
X129466666Y-54280952D01*
X129419047Y-54328571D01*
X129323809Y-54376190D01*
X128942857Y-54376190D01*
X130466666Y-54852380D02*
X129895238Y-54852380D01*
X130180952Y-54852380D02*
X130180952Y-53852380D01*
X130085714Y-53995238D01*
X129990476Y-54090476D01*
X129895238Y-54138095D01*
%TO.C,D2*%
X99531904Y-96982380D02*
X99531904Y-95982380D01*
X99770000Y-95982380D01*
X99912857Y-96030000D01*
X100008095Y-96125238D01*
X100055714Y-96220476D01*
X100103333Y-96410952D01*
X100103333Y-96553809D01*
X100055714Y-96744285D01*
X100008095Y-96839523D01*
X99912857Y-96934761D01*
X99770000Y-96982380D01*
X99531904Y-96982380D01*
X100484285Y-96077619D02*
X100531904Y-96030000D01*
X100627142Y-95982380D01*
X100865238Y-95982380D01*
X100960476Y-96030000D01*
X101008095Y-96077619D01*
X101055714Y-96172857D01*
X101055714Y-96268095D01*
X101008095Y-96410952D01*
X100436666Y-96982380D01*
X101055714Y-96982380D01*
%TO.C,C33*%
X103697969Y-69307106D02*
X103697969Y-69374450D01*
X103630625Y-69509137D01*
X103563282Y-69576480D01*
X103428595Y-69643824D01*
X103293908Y-69643824D01*
X103192893Y-69610152D01*
X103024534Y-69509137D01*
X102923519Y-69408122D01*
X102822503Y-69239763D01*
X102788832Y-69138748D01*
X102788832Y-69004061D01*
X102856175Y-68869374D01*
X102923519Y-68802030D01*
X103058206Y-68734687D01*
X103125549Y-68734687D01*
X103293908Y-68431641D02*
X103731641Y-67993908D01*
X103765312Y-68498984D01*
X103866328Y-68397969D01*
X103967343Y-68364297D01*
X104034687Y-68364297D01*
X104135702Y-68397969D01*
X104304061Y-68566328D01*
X104337732Y-68667343D01*
X104337732Y-68734687D01*
X104304061Y-68835702D01*
X104102030Y-69037732D01*
X104001015Y-69071404D01*
X103933671Y-69071404D01*
X103967343Y-67758206D02*
X104405076Y-67320473D01*
X104438748Y-67825549D01*
X104539763Y-67724534D01*
X104640778Y-67690862D01*
X104708122Y-67690862D01*
X104809137Y-67724534D01*
X104977496Y-67892893D01*
X105011167Y-67993908D01*
X105011167Y-68061251D01*
X104977496Y-68162267D01*
X104775465Y-68364297D01*
X104674450Y-68397969D01*
X104607106Y-68397969D01*
%TO.C,C5*%
X136657142Y-91966666D02*
X136704761Y-92014285D01*
X136752380Y-92157142D01*
X136752380Y-92252380D01*
X136704761Y-92395238D01*
X136609523Y-92490476D01*
X136514285Y-92538095D01*
X136323809Y-92585714D01*
X136180952Y-92585714D01*
X135990476Y-92538095D01*
X135895238Y-92490476D01*
X135800000Y-92395238D01*
X135752380Y-92252380D01*
X135752380Y-92157142D01*
X135800000Y-92014285D01*
X135847619Y-91966666D01*
X135752380Y-91061904D02*
X135752380Y-91538095D01*
X136228571Y-91585714D01*
X136180952Y-91538095D01*
X136133333Y-91442857D01*
X136133333Y-91204761D01*
X136180952Y-91109523D01*
X136228571Y-91061904D01*
X136323809Y-91014285D01*
X136561904Y-91014285D01*
X136657142Y-91061904D01*
X136704761Y-91109523D01*
X136752380Y-91204761D01*
X136752380Y-91442857D01*
X136704761Y-91538095D01*
X136657142Y-91585714D01*
%TO.C,L10*%
X145552380Y-104542857D02*
X145552380Y-105019047D01*
X144552380Y-105019047D01*
X145552380Y-103685714D02*
X145552380Y-104257142D01*
X145552380Y-103971428D02*
X144552380Y-103971428D01*
X144695238Y-104066666D01*
X144790476Y-104161904D01*
X144838095Y-104257142D01*
X144552380Y-103066666D02*
X144552380Y-102971428D01*
X144600000Y-102876190D01*
X144647619Y-102828571D01*
X144742857Y-102780952D01*
X144933333Y-102733333D01*
X145171428Y-102733333D01*
X145361904Y-102780952D01*
X145457142Y-102828571D01*
X145504761Y-102876190D01*
X145552380Y-102971428D01*
X145552380Y-103066666D01*
X145504761Y-103161904D01*
X145457142Y-103209523D01*
X145361904Y-103257142D01*
X145171428Y-103304761D01*
X144933333Y-103304761D01*
X144742857Y-103257142D01*
X144647619Y-103209523D01*
X144600000Y-103161904D01*
X144552380Y-103066666D01*
%TO.C,C19*%
X156657142Y-93042857D02*
X156704761Y-93090476D01*
X156752380Y-93233333D01*
X156752380Y-93328571D01*
X156704761Y-93471428D01*
X156609523Y-93566666D01*
X156514285Y-93614285D01*
X156323809Y-93661904D01*
X156180952Y-93661904D01*
X155990476Y-93614285D01*
X155895238Y-93566666D01*
X155800000Y-93471428D01*
X155752380Y-93328571D01*
X155752380Y-93233333D01*
X155800000Y-93090476D01*
X155847619Y-93042857D01*
X156752380Y-92090476D02*
X156752380Y-92661904D01*
X156752380Y-92376190D02*
X155752380Y-92376190D01*
X155895238Y-92471428D01*
X155990476Y-92566666D01*
X156038095Y-92661904D01*
X156752380Y-91614285D02*
X156752380Y-91423809D01*
X156704761Y-91328571D01*
X156657142Y-91280952D01*
X156514285Y-91185714D01*
X156323809Y-91138095D01*
X155942857Y-91138095D01*
X155847619Y-91185714D01*
X155800000Y-91233333D01*
X155752380Y-91328571D01*
X155752380Y-91519047D01*
X155800000Y-91614285D01*
X155847619Y-91661904D01*
X155942857Y-91709523D01*
X156180952Y-91709523D01*
X156276190Y-91661904D01*
X156323809Y-91614285D01*
X156371428Y-91519047D01*
X156371428Y-91328571D01*
X156323809Y-91233333D01*
X156276190Y-91185714D01*
X156180952Y-91138095D01*
%TO.C,U4*%
X147900595Y-53352380D02*
X147900595Y-54161904D01*
X147948214Y-54257142D01*
X147995833Y-54304761D01*
X148091071Y-54352380D01*
X148281547Y-54352380D01*
X148376785Y-54304761D01*
X148424404Y-54257142D01*
X148472023Y-54161904D01*
X148472023Y-53352380D01*
X149376785Y-53685714D02*
X149376785Y-54352380D01*
X149138690Y-53304761D02*
X148900595Y-54019047D01*
X149519642Y-54019047D01*
D12*
%TO.C,C25*%
X103392078Y-61279171D02*
X103598931Y-61072318D01*
X102670829Y-60557922D02*
X102877682Y-60351069D01*
%TO.C,C27*%
X118745829Y-59532922D02*
X118952682Y-59326069D01*
X119467078Y-60254171D02*
X119673931Y-60047318D01*
%TO.C,C28*%
X127545829Y-76267078D02*
X127752682Y-76473931D01*
X128267078Y-75545829D02*
X128473931Y-75752682D01*
%TO.C,C30*%
X116708767Y-84210000D02*
X116416233Y-84210000D01*
X116708767Y-83190000D02*
X116416233Y-83190000D01*
%TO.C,C31*%
X112545829Y-83167078D02*
X112752682Y-83373931D01*
X113267078Y-82445829D02*
X113473931Y-82652682D01*
%TO.C,C32*%
X104377117Y-74656944D02*
X104170264Y-74450091D01*
X105098366Y-73935695D02*
X104891513Y-73728842D01*
%TO.C,C35*%
X113345987Y-62476328D02*
X113552840Y-62269475D01*
X112624738Y-61755079D02*
X112831591Y-61548226D01*
%TO.C,J3*%
X138545000Y-128950000D02*
X138545000Y-131850000D01*
X145255000Y-128950000D02*
X145255000Y-131850000D01*
X140450000Y-133755000D02*
X143350000Y-133755000D01*
X140450000Y-127045000D02*
X143350000Y-127045000D01*
%TO.C,R4*%
X122558238Y-62763011D02*
X122800447Y-62520802D01*
X121836989Y-62041762D02*
X122079198Y-61799553D01*
%TO.C,R5*%
X121158238Y-61363011D02*
X121400447Y-61120802D01*
X120436989Y-60641762D02*
X120679198Y-60399553D01*
%TO.C,U7*%
X116500000Y-82055058D02*
X116994975Y-81560084D01*
X116500000Y-61944942D02*
X116005025Y-62439916D01*
X116994975Y-62439916D02*
X116500000Y-61944942D01*
X106939916Y-72494975D02*
X106444942Y-72000000D01*
X126060084Y-71505025D02*
X126555058Y-72000000D01*
X106444942Y-72000000D02*
X106939916Y-71505025D01*
X116005025Y-62439916D02*
X115039824Y-61474716D01*
X126555058Y-72000000D02*
X126060084Y-72494975D01*
X116005025Y-81560084D02*
X116500000Y-82055058D01*
D15*
%TO.C,J5*%
X80060000Y-126495000D02*
X74260000Y-126495000D01*
X74260000Y-121415000D02*
X80060000Y-121415000D01*
X74260000Y-126495000D02*
X74260000Y-131575000D01*
X74260000Y-75695000D02*
X74260000Y-121415000D01*
X80060000Y-63895000D02*
X88860000Y-63895000D01*
X80060000Y-75695000D02*
X74260000Y-75695000D01*
X88860000Y-133215000D02*
X80060000Y-133215000D01*
X80060000Y-65535000D02*
X74260000Y-65535000D01*
X80060000Y-133215000D02*
X80060000Y-63895000D01*
D11*
X95200000Y-73625000D02*
X95200000Y-73625000D01*
D15*
X74260000Y-131575000D02*
X80060000Y-131575000D01*
X74260000Y-65535000D02*
X74260000Y-70615000D01*
X74260000Y-70615000D02*
X80060000Y-70615000D01*
X94660000Y-63895000D02*
X94660000Y-133215000D01*
D11*
X95100000Y-73625000D02*
X95100000Y-73625000D01*
X95100000Y-73625000D02*
G75*
G03*
X95200000Y-73625000I50000J0D01*
G01*
X95200000Y-73625000D02*
G75*
G03*
X95100000Y-73625000I-50000J0D01*
G01*
D16*
%TO.C,U3*%
X141045000Y-125600000D02*
X141045000Y-124350000D01*
X141045000Y-124350000D02*
X142695000Y-124350000D01*
D12*
%TO.C,C34*%
X111565829Y-60692922D02*
X111772682Y-60486069D01*
X112287078Y-61414171D02*
X112493931Y-61207318D01*
%TO.C,C26*%
X117010000Y-59646267D02*
X117010000Y-59353733D01*
X115990000Y-59646267D02*
X115990000Y-59353733D01*
%TO.C,C29*%
X128816234Y-73010000D02*
X129108768Y-73010000D01*
X128816234Y-71990000D02*
X129108768Y-71990000D01*
%TO.C,U5*%
X129800000Y-62810000D02*
X131600000Y-62810000D01*
X131600000Y-59590000D02*
X129150000Y-59590000D01*
%TO.C,C2*%
X126210000Y-89986234D02*
X126210000Y-90278768D01*
X127230000Y-89986234D02*
X127230000Y-90278768D01*
%TO.C,C3*%
X137660000Y-89812164D02*
X137660000Y-90027836D01*
X136940000Y-89812164D02*
X136940000Y-90027836D01*
%TO.C,C12*%
X151502164Y-108100000D02*
X151717836Y-108100000D01*
X151502164Y-107380000D02*
X151717836Y-107380000D01*
%TO.C,C13*%
X143760000Y-57283767D02*
X143760000Y-56991233D01*
X142740000Y-57283767D02*
X142740000Y-56991233D01*
%TO.C,C15*%
X152900000Y-87912164D02*
X152900000Y-88127836D01*
X152180000Y-87912164D02*
X152180000Y-88127836D01*
%TO.C,C17*%
X152180000Y-89812164D02*
X152180000Y-90027836D01*
X152900000Y-89812164D02*
X152900000Y-90027836D01*
%TO.C,D1*%
X143985000Y-59065000D02*
X142515000Y-59065000D01*
X142515000Y-59065000D02*
X142515000Y-61525000D01*
X143985000Y-61525000D02*
X143985000Y-59065000D01*
%TO.C,U1*%
X132040000Y-87090000D02*
X132765000Y-87090000D01*
X136260000Y-87815000D02*
X136260000Y-87090000D01*
X136260000Y-90585000D02*
X136260000Y-91310000D01*
X132040000Y-87815000D02*
X132040000Y-87090000D01*
X136260000Y-87090000D02*
X135535000Y-87090000D01*
X132040000Y-90585000D02*
X132040000Y-91310000D01*
X136260000Y-91310000D02*
X135535000Y-91310000D01*
%TO.C,C7*%
X133040000Y-96012164D02*
X133040000Y-96227836D01*
X133760000Y-96012164D02*
X133760000Y-96227836D01*
%TO.C,C8*%
X133540000Y-97962164D02*
X133540000Y-98177836D01*
X134260000Y-97962164D02*
X134260000Y-98177836D01*
%TO.C,C6*%
X135340000Y-93712164D02*
X135340000Y-93927836D01*
X136060000Y-93712164D02*
X136060000Y-93927836D01*
D17*
%TO.C,Y1*%
X127740000Y-91445000D02*
X127740000Y-85445000D01*
X131240000Y-85445000D02*
X131240000Y-91445000D01*
D12*
%TO.C,FB1*%
X140508767Y-62110000D02*
X140216233Y-62110000D01*
X140508767Y-61090000D02*
X140216233Y-61090000D01*
%TO.C,R2*%
X153690000Y-60496267D02*
X153690000Y-60153733D01*
X154710000Y-60496267D02*
X154710000Y-60153733D01*
%TO.C,R3*%
X146596267Y-63310000D02*
X146253733Y-63310000D01*
X146596267Y-62290000D02*
X146253733Y-62290000D01*
%TO.C,J4*%
X139600000Y-60512500D02*
X139150000Y-60512500D01*
X134000000Y-55562500D02*
X134000000Y-55812500D01*
X134000000Y-59962500D02*
X134450000Y-59962500D01*
X139600000Y-60512500D02*
X139600000Y-60062500D01*
X141800000Y-59962500D02*
X141350000Y-59962500D01*
X141800000Y-55562500D02*
X141800000Y-55812500D01*
X134000000Y-58112500D02*
X134000000Y-59962500D01*
X141800000Y-58112500D02*
X141800000Y-59962500D01*
%TO.C,C18*%
X142480000Y-86903767D02*
X142480000Y-86611233D01*
X141460000Y-86903767D02*
X141460000Y-86611233D01*
%TO.C,C4*%
X126209999Y-86903767D02*
X126209999Y-86611233D01*
X127229999Y-86903767D02*
X127229999Y-86611233D01*
%TO.C,C11*%
X148332164Y-107480000D02*
X148547836Y-107480000D01*
X148332164Y-106760000D02*
X148547836Y-106760000D01*
%TO.C,C21*%
X151252164Y-102660000D02*
X151467836Y-102660000D01*
X151252164Y-101940000D02*
X151467836Y-101940000D01*
%TO.C,C22*%
X148547836Y-103860000D02*
X148332164Y-103860000D01*
X148547836Y-104580000D02*
X148332164Y-104580000D01*
%TO.C,R1*%
X151600000Y-110553641D02*
X151600000Y-110246359D01*
X152360000Y-110553641D02*
X152360000Y-110246359D01*
%TO.C,U2*%
X148040000Y-108920000D02*
X148040000Y-111920000D01*
X151260000Y-110420000D02*
X151260000Y-111920000D01*
%TO.C,C9*%
X133250000Y-110337836D02*
X133250000Y-110122164D01*
X132530000Y-110337836D02*
X132530000Y-110122164D01*
%TO.C,C10*%
X135270000Y-111197836D02*
X135270000Y-110982164D01*
X134550000Y-111197836D02*
X134550000Y-110982164D01*
%TO.C,C20*%
X150260000Y-94679664D02*
X150260000Y-94895336D01*
X149540000Y-94679664D02*
X149540000Y-94895336D01*
D17*
%TO.C,Y2*%
X142990000Y-91445000D02*
X142990000Y-85445000D01*
X146490000Y-85445000D02*
X146490000Y-91445000D01*
D12*
%TO.C,U6*%
X151510000Y-91310000D02*
X150785000Y-91310000D01*
X147290000Y-90585000D02*
X147290000Y-91310000D01*
X147290000Y-87815000D02*
X147290000Y-87090000D01*
X151510000Y-87815000D02*
X151510000Y-87090000D01*
X147290000Y-87090000D02*
X148015000Y-87090000D01*
X151510000Y-90585000D02*
X151510000Y-91310000D01*
X151510000Y-87090000D02*
X150785000Y-87090000D01*
%TO.C,C16*%
X142480000Y-89996233D02*
X142480000Y-90288767D01*
X141460000Y-89996233D02*
X141460000Y-90288767D01*
%TO.C,D4*%
X101930000Y-97765000D02*
X99470000Y-97765000D01*
X101930000Y-99235000D02*
X101930000Y-97765000D01*
X99470000Y-99235000D02*
X101930000Y-99235000D01*
%TO.C,D6*%
X101935000Y-102635000D02*
X101935000Y-101165000D01*
X101935000Y-101165000D02*
X99475000Y-101165000D01*
X99475000Y-102635000D02*
X101935000Y-102635000D01*
%TO.C,R6*%
X103791267Y-102410000D02*
X103448733Y-102410000D01*
X103791267Y-101390000D02*
X103448733Y-101390000D01*
%TO.C,R8*%
X103791267Y-99010000D02*
X103448733Y-99010000D01*
X103791267Y-97990000D02*
X103448733Y-97990000D01*
%TO.C,R10*%
X103791267Y-94590000D02*
X103448733Y-94590000D01*
X103791267Y-95610000D02*
X103448733Y-95610000D01*
%TO.C,D3*%
X101930000Y-97535000D02*
X101930000Y-96065000D01*
X101930000Y-96065000D02*
X99470000Y-96065000D01*
X99470000Y-97535000D02*
X101930000Y-97535000D01*
%TO.C,R7*%
X103791267Y-99690000D02*
X103448733Y-99690000D01*
X103791267Y-100710000D02*
X103448733Y-100710000D01*
%TO.C,R9*%
X103791267Y-97310000D02*
X103448733Y-97310000D01*
X103791267Y-96290000D02*
X103448733Y-96290000D01*
%TO.C,D5*%
X99470000Y-100935000D02*
X101930000Y-100935000D01*
X101930000Y-99465000D02*
X99470000Y-99465000D01*
X101930000Y-100935000D02*
X101930000Y-99465000D01*
%TO.C,J2*%
X139520000Y-80330000D02*
X138190000Y-80330000D01*
X134320000Y-80330000D02*
X134320000Y-70050000D01*
X136920000Y-80330000D02*
X134320000Y-80330000D01*
X139520000Y-70050000D02*
X134320000Y-70050000D01*
X139520000Y-79000000D02*
X139520000Y-80330000D01*
X139520000Y-77730000D02*
X136920000Y-77730000D01*
X136920000Y-77730000D02*
X136920000Y-80330000D01*
X139520000Y-77730000D02*
X139520000Y-70050000D01*
%TO.C,J1*%
X146220000Y-77710001D02*
X143620000Y-77710001D01*
X141020000Y-80310001D02*
X141020000Y-70030001D01*
X146220000Y-77710001D02*
X146220000Y-70030001D01*
X146220000Y-78980001D02*
X146220000Y-80310001D01*
X146220000Y-80310001D02*
X144890000Y-80310001D01*
X146220000Y-70030001D02*
X141020000Y-70030001D01*
X143620000Y-77710001D02*
X143620000Y-80310001D01*
X143620000Y-80310001D02*
X141020000Y-80310001D01*
%TO.C,C1*%
X136940000Y-87912164D02*
X136940000Y-88127836D01*
X137660000Y-87912164D02*
X137660000Y-88127836D01*
D17*
%TO.C,Y3*%
X109687831Y-60712043D02*
X105445191Y-64954683D01*
X102970317Y-62479809D02*
X107212957Y-58237169D01*
D12*
%TO.C,C14*%
X149666234Y-63310000D02*
X149958768Y-63310000D01*
X149666234Y-62290000D02*
X149958768Y-62290000D01*
%TO.C,C24*%
X106004171Y-58667078D02*
X105797318Y-58873931D01*
X105282922Y-57945829D02*
X105076069Y-58152682D01*
%TO.C,C23*%
X102654171Y-65112922D02*
X102447318Y-64906069D01*
X101932922Y-65834171D02*
X101726069Y-65627318D01*
%TO.C,SW1*%
X106600000Y-83032090D02*
X106621213Y-83053303D01*
X103396806Y-88964716D02*
X105235284Y-90803194D01*
X102032090Y-87600000D02*
X106600000Y-83032090D01*
X107964716Y-84396806D02*
X109803194Y-86235284D01*
X102053303Y-87621213D02*
X102032090Y-87600000D01*
X111167910Y-87600000D02*
X111146697Y-87578787D01*
X106600000Y-92167910D02*
X111167910Y-87600000D01*
X106600000Y-92167910D02*
X106578787Y-92146697D01*
%TO.C,JP1*%
X132910000Y-58230000D02*
X132910000Y-55570000D01*
X125170000Y-58230000D02*
X125170000Y-56900000D01*
X127770000Y-55570000D02*
X132910000Y-55570000D01*
X126500000Y-58230000D02*
X125170000Y-58230000D01*
X127770000Y-58230000D02*
X127770000Y-55570000D01*
X127770000Y-58230000D02*
X132910000Y-58230000D01*
%TO.C,D2*%
X101930000Y-94365000D02*
X99470000Y-94365000D01*
X101930000Y-95835000D02*
X101930000Y-94365000D01*
X99470000Y-95835000D02*
X101930000Y-95835000D01*
%TO.C,C33*%
X106154170Y-68967078D02*
X105947317Y-69173931D01*
X105432921Y-68245829D02*
X105226068Y-68452682D01*
%TO.C,C5*%
X136940000Y-91907836D02*
X136940000Y-91692164D01*
X137660000Y-91907836D02*
X137660000Y-91692164D01*
%TO.C,C19*%
X152900000Y-91937836D02*
X152900000Y-91722164D01*
X152180000Y-91937836D02*
X152180000Y-91722164D01*
%TO.C,G\u002A\u002A\u002A*%
G36*
X104538246Y-124637873D02*
G01*
X104548155Y-124724751D01*
X104557213Y-124783920D01*
X104571766Y-124858221D01*
X104588800Y-124932366D01*
X104590221Y-124937997D01*
X104608466Y-125013223D01*
X104630826Y-125110790D01*
X104655428Y-125222022D01*
X104680399Y-125338242D01*
X104703869Y-125450773D01*
X104723963Y-125550936D01*
X104735071Y-125609328D01*
X104746266Y-125665491D01*
X104762734Y-125742189D01*
X104782245Y-125829268D01*
X104802272Y-125915325D01*
X104850599Y-126118648D01*
X104871890Y-126057489D01*
X104885789Y-126010260D01*
X104893223Y-125970834D01*
X104893586Y-125964739D01*
X104895800Y-125946873D01*
X104902632Y-125915025D01*
X104914817Y-125866450D01*
X104933091Y-125798405D01*
X104958191Y-125708145D01*
X104990852Y-125592925D01*
X105029145Y-125459266D01*
X105046430Y-125392956D01*
X105062320Y-125322196D01*
X105066399Y-125301306D01*
X105081222Y-125233710D01*
X105103574Y-125147347D01*
X105130838Y-125050962D01*
X105160395Y-124953302D01*
X105189628Y-124863113D01*
X105215919Y-124789141D01*
X105230398Y-124753427D01*
X105256571Y-124702917D01*
X105283905Y-124663581D01*
X105301854Y-124647109D01*
X105341096Y-124635757D01*
X105396128Y-124630777D01*
X105454665Y-124632028D01*
X105504420Y-124639369D01*
X105529899Y-124649720D01*
X105555081Y-124680835D01*
X105584833Y-124737092D01*
X105616823Y-124812806D01*
X105648720Y-124902291D01*
X105678192Y-124999860D01*
X105686965Y-125032774D01*
X105704483Y-125100486D01*
X105727838Y-125190262D01*
X105754815Y-125293616D01*
X105783200Y-125402061D01*
X105806505Y-125490858D01*
X105832296Y-125589533D01*
X105856505Y-125683160D01*
X105877502Y-125765364D01*
X105893660Y-125829771D01*
X105903340Y-125869963D01*
X105918607Y-125931997D01*
X105937804Y-126003357D01*
X105948637Y-126041052D01*
X105975981Y-126133161D01*
X106028144Y-125883092D01*
X106061879Y-125722667D01*
X106098961Y-125548559D01*
X106136863Y-125372514D01*
X106173059Y-125206277D01*
X106199130Y-125088060D01*
X106213036Y-125021190D01*
X106228705Y-124939360D01*
X106243041Y-124858825D01*
X106244753Y-124848655D01*
X106257004Y-124781132D01*
X106269627Y-124721203D01*
X106280422Y-124679050D01*
X106283142Y-124670949D01*
X106298721Y-124629975D01*
X106792862Y-124629975D01*
X106782850Y-124673414D01*
X106775085Y-124709931D01*
X106763837Y-124766179D01*
X106751369Y-124830826D01*
X106749732Y-124839489D01*
X106738740Y-124893153D01*
X106721718Y-124970477D01*
X106700264Y-125064465D01*
X106675979Y-125168120D01*
X106650463Y-125274446D01*
X106647330Y-125287318D01*
X106623674Y-125385627D01*
X106602832Y-125474727D01*
X106585921Y-125549629D01*
X106574062Y-125605344D01*
X106568371Y-125636884D01*
X106568035Y-125640880D01*
X106564304Y-125663944D01*
X106553856Y-125712815D01*
X106537803Y-125782694D01*
X106517261Y-125868781D01*
X106493343Y-125966277D01*
X106481310Y-126014444D01*
X106456141Y-126116101D01*
X106433829Y-126209044D01*
X106415495Y-126288363D01*
X106402263Y-126349149D01*
X106395256Y-126386490D01*
X106394432Y-126394410D01*
X106389745Y-126432339D01*
X106377804Y-126488718D01*
X106361458Y-126552061D01*
X106343558Y-126610884D01*
X106334402Y-126636333D01*
X106316495Y-126669565D01*
X106285520Y-126716039D01*
X106254052Y-126758104D01*
X106207810Y-126810288D01*
X106165416Y-126841609D01*
X106121942Y-126858305D01*
X106067502Y-126867173D01*
X105998656Y-126870356D01*
X105925339Y-126868333D01*
X105857484Y-126861586D01*
X105805025Y-126850595D01*
X105784804Y-126841995D01*
X105739958Y-126801990D01*
X105692214Y-126740448D01*
X105646639Y-126666403D01*
X105608299Y-126588889D01*
X105582260Y-126516940D01*
X105573542Y-126465267D01*
X105569363Y-126437114D01*
X105558352Y-126385199D01*
X105542048Y-126316222D01*
X105521987Y-126236887D01*
X105515588Y-126212531D01*
X105491907Y-126122552D01*
X105468478Y-126032446D01*
X105447840Y-125952042D01*
X105432531Y-125891172D01*
X105431200Y-125885759D01*
X105404108Y-125775187D01*
X105393110Y-125847838D01*
X105385097Y-125890034D01*
X105370853Y-125954724D01*
X105352230Y-126033863D01*
X105331081Y-126119403D01*
X105325816Y-126140065D01*
X105302090Y-126233650D01*
X105278073Y-126330174D01*
X105256434Y-126418805D01*
X105239842Y-126488710D01*
X105238643Y-126493905D01*
X105197129Y-126625754D01*
X105139269Y-126732813D01*
X105065922Y-126813554D01*
X105054612Y-126822558D01*
X105023315Y-126843847D01*
X104991683Y-126856920D01*
X104950366Y-126863996D01*
X104890016Y-126867294D01*
X104863326Y-126867952D01*
X104797296Y-126868310D01*
X104740536Y-126866769D01*
X104702679Y-126863652D01*
X104696206Y-126862394D01*
X104628720Y-126828209D01*
X104567692Y-126763527D01*
X104513398Y-126668829D01*
X104466117Y-126544600D01*
X104426125Y-126391322D01*
X104426105Y-126391231D01*
X104409851Y-126317786D01*
X104387989Y-126221504D01*
X104362337Y-126110254D01*
X104334712Y-125991905D01*
X104306933Y-125874328D01*
X104299773Y-125844286D01*
X104275460Y-125741437D01*
X104253842Y-125648014D01*
X104235961Y-125568679D01*
X104222859Y-125508095D01*
X104215576Y-125470927D01*
X104214428Y-125462057D01*
X104210835Y-125439767D01*
X104200800Y-125391768D01*
X104185440Y-125323027D01*
X104165870Y-125238508D01*
X104143206Y-125143179D01*
X104136773Y-125116527D01*
X104112538Y-125014384D01*
X104090395Y-124917195D01*
X104071682Y-124831137D01*
X104057735Y-124762390D01*
X104049894Y-124717131D01*
X104049297Y-124712500D01*
X104039476Y-124629167D01*
X104538246Y-124637873D01*
G37*
G36*
X100177590Y-124186365D02*
G01*
X100195375Y-124030080D01*
X100222070Y-123894399D01*
X100258722Y-123775837D01*
X100306375Y-123670908D01*
X100366076Y-123576127D01*
X100438872Y-123488008D01*
X100512652Y-123414984D01*
X100652121Y-123307984D01*
X100811250Y-123222502D01*
X100986118Y-123159027D01*
X101172806Y-123118050D01*
X101367395Y-123100061D01*
X101565965Y-123105552D01*
X101764598Y-123135011D01*
X101959372Y-123188930D01*
X102048365Y-123222818D01*
X102164827Y-123271326D01*
X102258049Y-123185020D01*
X102410506Y-123065009D01*
X102581685Y-122968483D01*
X102767811Y-122896742D01*
X102965110Y-122851088D01*
X103169810Y-122832823D01*
X103274565Y-122834409D01*
X103407023Y-122845291D01*
X103520026Y-122865200D01*
X103625118Y-122897054D01*
X103733841Y-122943776D01*
X103762471Y-122957885D01*
X103874751Y-123018085D01*
X103972705Y-123079886D01*
X104064785Y-123149599D01*
X104159444Y-123233536D01*
X104247443Y-123319964D01*
X104414724Y-123489704D01*
X104523873Y-123425665D01*
X104611990Y-123376641D01*
X104722226Y-123319431D01*
X104847321Y-123257459D01*
X104980012Y-123194147D01*
X105113040Y-123132919D01*
X105239141Y-123077198D01*
X105351054Y-123030408D01*
X105414925Y-123005595D01*
X105828104Y-122868581D01*
X106246185Y-122762556D01*
X106667924Y-122687519D01*
X107092077Y-122643470D01*
X107517402Y-122630411D01*
X107942654Y-122648340D01*
X108366590Y-122697257D01*
X108787966Y-122777163D01*
X109205538Y-122888058D01*
X109553483Y-123005541D01*
X109645015Y-123041753D01*
X109755616Y-123089018D01*
X109878666Y-123144190D01*
X110007544Y-123204123D01*
X110135627Y-123265672D01*
X110256296Y-123325691D01*
X110362929Y-123381035D01*
X110448905Y-123428558D01*
X110469652Y-123440803D01*
X110572326Y-123502652D01*
X110746082Y-123325912D01*
X110852973Y-123221545D01*
X110950181Y-123137201D01*
X111045823Y-123066804D01*
X111148018Y-123004277D01*
X111241538Y-122955046D01*
X111352637Y-122905074D01*
X111458294Y-122870455D01*
X111569948Y-122848337D01*
X111699034Y-122835870D01*
X111725435Y-122834409D01*
X111932523Y-122838383D01*
X112134085Y-122870423D01*
X112326363Y-122929231D01*
X112505596Y-123013509D01*
X112668026Y-123121961D01*
X112742112Y-123185169D01*
X112835495Y-123271625D01*
X112949483Y-123223118D01*
X113150617Y-123154300D01*
X113362932Y-123113177D01*
X113581873Y-123100048D01*
X113802888Y-123115212D01*
X114001844Y-123153821D01*
X114057258Y-123171573D01*
X114129062Y-123199474D01*
X114205723Y-123232889D01*
X114244900Y-123251507D01*
X114371131Y-123325958D01*
X114488748Y-123418850D01*
X114591135Y-123523872D01*
X114671678Y-123634714D01*
X114698875Y-123684487D01*
X114749556Y-123814254D01*
X114788973Y-123970350D01*
X114817235Y-124149630D01*
X114834446Y-124348947D01*
X114840714Y-124565157D01*
X114836144Y-124795112D01*
X114820842Y-125035667D01*
X114794916Y-125283676D01*
X114758471Y-125535993D01*
X114711614Y-125789473D01*
X114654451Y-126040969D01*
X114614087Y-126193781D01*
X114550149Y-126415580D01*
X114488988Y-126611037D01*
X114428537Y-126785029D01*
X114366729Y-126942431D01*
X114301497Y-127088121D01*
X114230772Y-127226974D01*
X114152488Y-127363867D01*
X114064578Y-127503676D01*
X114048222Y-127528545D01*
X113943285Y-127676296D01*
X113838221Y-127803314D01*
X113734960Y-127907925D01*
X113635429Y-127988456D01*
X113541557Y-128043236D01*
X113455274Y-128070590D01*
X113419900Y-128073507D01*
X113367889Y-128073507D01*
X113367214Y-128488153D01*
X113363363Y-128747514D01*
X113352077Y-128984267D01*
X113332421Y-129206724D01*
X113303461Y-129423192D01*
X113264260Y-129641982D01*
X113213884Y-129871402D01*
X113209442Y-129890050D01*
X113095028Y-130300706D01*
X112951498Y-130700431D01*
X112779888Y-131087731D01*
X112581229Y-131461115D01*
X112356558Y-131819089D01*
X112106907Y-132160159D01*
X111833310Y-132482833D01*
X111536802Y-132785617D01*
X111218417Y-133067019D01*
X110879188Y-133325546D01*
X110785342Y-133390430D01*
X110432916Y-133610726D01*
X110063133Y-133806807D01*
X109680190Y-133976798D01*
X109288285Y-134118821D01*
X108921642Y-134223612D01*
X108739180Y-134265799D01*
X108547323Y-134304323D01*
X108356582Y-134337325D01*
X108177467Y-134362946D01*
X108060759Y-134375859D01*
X107983903Y-134381740D01*
X107887126Y-134387165D01*
X107776980Y-134391961D01*
X107660011Y-134395956D01*
X107542771Y-134398976D01*
X107431807Y-134400850D01*
X107333670Y-134401405D01*
X107254908Y-134400468D01*
X107207774Y-134398345D01*
X107003645Y-134381542D01*
X106824365Y-134363922D01*
X106663194Y-134344470D01*
X106513389Y-134322172D01*
X106368209Y-134296012D01*
X106220912Y-134264977D01*
X106064756Y-134228051D01*
X106046766Y-134223590D01*
X105639207Y-134106131D01*
X105244319Y-133960425D01*
X104863270Y-133787647D01*
X104497229Y-133588975D01*
X104147365Y-133365585D01*
X103814845Y-133118652D01*
X103500838Y-132849353D01*
X103206514Y-132558866D01*
X102933039Y-132248365D01*
X102681583Y-131919027D01*
X102453315Y-131572028D01*
X102249402Y-131208546D01*
X102071013Y-130829755D01*
X101919317Y-130436833D01*
X101795482Y-130030956D01*
X101765618Y-129913744D01*
X101713500Y-129684947D01*
X101672568Y-129469072D01*
X101641869Y-129257842D01*
X101620448Y-129042983D01*
X101607350Y-128816221D01*
X101601622Y-128569280D01*
X101601194Y-128488153D01*
X101600519Y-128073507D01*
X101560015Y-128073507D01*
X101497563Y-128060409D01*
X101422653Y-128023203D01*
X101338833Y-127965020D01*
X101249646Y-127888991D01*
X101158639Y-127798249D01*
X101069356Y-127695923D01*
X100985342Y-127585146D01*
X100952554Y-127536963D01*
X100833726Y-127345003D01*
X100729487Y-127151376D01*
X100636520Y-126948793D01*
X100551510Y-126729964D01*
X100471139Y-126487602D01*
X100462959Y-126460903D01*
X100375308Y-126156020D01*
X100304430Y-125870582D01*
X100249277Y-125597949D01*
X100208797Y-125331481D01*
X100181941Y-125064540D01*
X100167657Y-124790486D01*
X100164564Y-124574689D01*
X100165464Y-124514402D01*
X100335653Y-124514402D01*
X100335776Y-124664828D01*
X100338927Y-124815893D01*
X100345101Y-124961433D01*
X100354299Y-125095288D01*
X100365900Y-125206530D01*
X100390067Y-125386079D01*
X100414472Y-125545728D01*
X100440781Y-125693206D01*
X100470658Y-125836242D01*
X100505768Y-125982563D01*
X100547774Y-126139899D01*
X100598342Y-126315978D01*
X100621995Y-126395577D01*
X100702245Y-126640046D01*
X100792276Y-126871681D01*
X100890541Y-127087762D01*
X100995492Y-127285568D01*
X101105582Y-127462381D01*
X101219262Y-127615482D01*
X101334985Y-127742151D01*
X101438774Y-127830696D01*
X101494546Y-127869012D01*
X101537510Y-127890260D01*
X101578035Y-127898838D01*
X101601605Y-127899751D01*
X101691666Y-127886552D01*
X101796379Y-127846864D01*
X101915941Y-127780551D01*
X102050546Y-127687475D01*
X102200390Y-127567500D01*
X102365668Y-127420488D01*
X102546577Y-127246304D01*
X102571644Y-127221266D01*
X102701913Y-127087227D01*
X102811105Y-126966638D01*
X102903402Y-126853973D01*
X102982985Y-126743708D01*
X103054035Y-126630317D01*
X103120733Y-126508274D01*
X103139990Y-126470211D01*
X103216849Y-126297118D01*
X103273199Y-126124476D01*
X103312119Y-125941429D01*
X103331263Y-125795263D01*
X103339933Y-125722146D01*
X103349484Y-125659848D01*
X103358670Y-125615594D01*
X103365325Y-125597481D01*
X103395647Y-125581109D01*
X103437906Y-125579443D01*
X103476382Y-125591915D01*
X103488217Y-125601920D01*
X103499177Y-125633775D01*
X103503474Y-125690741D01*
X103501585Y-125767158D01*
X103493989Y-125857361D01*
X103481161Y-125955688D01*
X103463580Y-126056478D01*
X103441723Y-126154066D01*
X103441666Y-126154291D01*
X103392998Y-126310378D01*
X103324913Y-126477046D01*
X103242109Y-126644470D01*
X103149288Y-126802826D01*
X103088490Y-126892531D01*
X102984953Y-127027068D01*
X102866006Y-127166025D01*
X102735443Y-127306003D01*
X102597057Y-127443600D01*
X102454640Y-127575416D01*
X102311986Y-127698051D01*
X102172886Y-127808105D01*
X102041135Y-127902175D01*
X101920524Y-127976863D01*
X101826674Y-128023829D01*
X101754422Y-128054800D01*
X101743355Y-128305043D01*
X101740502Y-128629585D01*
X101759190Y-128968545D01*
X101798538Y-129314084D01*
X101857664Y-129658364D01*
X101931301Y-129976928D01*
X102052749Y-130378734D01*
X102202463Y-130768068D01*
X102379263Y-131143635D01*
X102581967Y-131504138D01*
X102809395Y-131848282D01*
X103060366Y-132174769D01*
X103333699Y-132482305D01*
X103628213Y-132769592D01*
X103942728Y-133035335D01*
X104276063Y-133278238D01*
X104627037Y-133497004D01*
X104994469Y-133690337D01*
X105377178Y-133856941D01*
X105512523Y-133907976D01*
X105922504Y-134040384D01*
X106335090Y-134141323D01*
X106750654Y-134210836D01*
X107169567Y-134248967D01*
X107592199Y-134255759D01*
X108018923Y-134231257D01*
X108148190Y-134217765D01*
X108564931Y-134154212D01*
X108972067Y-134061193D01*
X109368351Y-133939710D01*
X109752536Y-133790764D01*
X110123376Y-133615355D01*
X110479624Y-133414483D01*
X110820033Y-133189151D01*
X111143358Y-132940358D01*
X111448350Y-132669106D01*
X111733764Y-132376395D01*
X111998353Y-132063227D01*
X112240870Y-131730602D01*
X112460068Y-131379521D01*
X112654702Y-131010984D01*
X112823523Y-130625993D01*
X112909133Y-130395522D01*
X113021041Y-130039185D01*
X113107364Y-129685652D01*
X113169127Y-129328727D01*
X113207352Y-128962209D01*
X113223064Y-128579902D01*
X113223601Y-128492102D01*
X113223248Y-128356255D01*
X113221964Y-128248856D01*
X113219466Y-128166769D01*
X113215467Y-128106857D01*
X113209682Y-128065984D01*
X113201826Y-128041012D01*
X113191614Y-128028805D01*
X113181223Y-128026119D01*
X113153693Y-128017275D01*
X113106388Y-127993068D01*
X113044887Y-127956989D01*
X112974766Y-127912529D01*
X112901600Y-127863177D01*
X112830968Y-127812424D01*
X112791174Y-127782004D01*
X112536774Y-127569730D01*
X112308043Y-127353624D01*
X112105980Y-127134920D01*
X111931582Y-126914853D01*
X111785847Y-126694658D01*
X111669772Y-126475569D01*
X111601689Y-126309676D01*
X111573465Y-126219869D01*
X111548614Y-126120161D01*
X111527782Y-126015877D01*
X111511612Y-125912338D01*
X111500749Y-125814868D01*
X111495839Y-125728789D01*
X111497524Y-125659424D01*
X111506451Y-125612096D01*
X111515348Y-125596691D01*
X111547763Y-125581276D01*
X111590038Y-125579079D01*
X111625902Y-125589994D01*
X111634405Y-125597481D01*
X111642205Y-125620550D01*
X111651341Y-125667763D01*
X111660568Y-125731779D01*
X111667259Y-125790983D01*
X111706991Y-126038167D01*
X111776159Y-126275850D01*
X111875288Y-126505394D01*
X112004905Y-126728160D01*
X112060566Y-126808959D01*
X112148420Y-126921932D01*
X112257197Y-127046922D01*
X112381394Y-127178632D01*
X112515509Y-127311767D01*
X112654040Y-127441029D01*
X112791484Y-127561123D01*
X112922338Y-127666752D01*
X113040668Y-127752329D01*
X113155721Y-127823100D01*
X113255049Y-127870158D01*
X113342076Y-127894922D01*
X113396822Y-127899751D01*
X113464062Y-127885372D01*
X113540342Y-127843857D01*
X113623580Y-127777639D01*
X113711695Y-127689153D01*
X113802604Y-127580832D01*
X113894227Y-127455110D01*
X113984481Y-127314420D01*
X114071285Y-127161196D01*
X114133184Y-127038868D01*
X114186843Y-126924674D01*
X114231395Y-126822958D01*
X114270432Y-126724333D01*
X114307546Y-126619411D01*
X114346329Y-126498806D01*
X114371919Y-126414925D01*
X114450505Y-126141975D01*
X114514990Y-125890444D01*
X114566366Y-125653996D01*
X114605629Y-125426300D01*
X114633772Y-125201021D01*
X114651790Y-124971825D01*
X114660678Y-124732379D01*
X114662026Y-124566791D01*
X114660361Y-124398076D01*
X114655601Y-124256411D01*
X114647105Y-124137350D01*
X114634233Y-124036444D01*
X114616343Y-123949248D01*
X114592794Y-123871315D01*
X114562946Y-123798199D01*
X114546231Y-123763583D01*
X114472045Y-123649073D01*
X114371919Y-123543760D01*
X114251041Y-123451450D01*
X114114597Y-123375951D01*
X113967776Y-123321066D01*
X113928980Y-123310749D01*
X113825467Y-123291874D01*
X113704038Y-123279755D01*
X113575564Y-123274683D01*
X113450917Y-123276946D01*
X113340970Y-123286834D01*
X113298495Y-123293987D01*
X113239018Y-123308072D01*
X113169074Y-123327667D01*
X113097033Y-123350058D01*
X113031265Y-123372533D01*
X112980140Y-123392378D01*
X112953433Y-123405840D01*
X112957868Y-123420359D01*
X112973151Y-123456957D01*
X112996529Y-123509199D01*
X113011485Y-123541508D01*
X113055509Y-123648979D01*
X113098050Y-123777074D01*
X113136080Y-123914865D01*
X113166572Y-124051422D01*
X113185975Y-124171476D01*
X113192333Y-124240520D01*
X113197541Y-124329660D01*
X113201064Y-124427404D01*
X113202363Y-124522264D01*
X113202363Y-124522573D01*
X113202174Y-124609254D01*
X113201008Y-124669859D01*
X113197970Y-124709905D01*
X113192164Y-124734907D01*
X113182694Y-124750382D01*
X113168663Y-124761846D01*
X113162873Y-124765694D01*
X113131957Y-124782407D01*
X113107648Y-124779704D01*
X113083893Y-124765694D01*
X113054929Y-124737074D01*
X113044392Y-124695187D01*
X113043908Y-124680948D01*
X113041740Y-124596045D01*
X113036896Y-124496867D01*
X113029965Y-124390578D01*
X113021536Y-124284343D01*
X113012197Y-124185327D01*
X113002537Y-124100695D01*
X112993145Y-124037611D01*
X112989602Y-124020043D01*
X112946836Y-123853548D01*
X112899802Y-123713146D01*
X112845842Y-123593380D01*
X112782299Y-123488792D01*
X112706519Y-123393926D01*
X112662185Y-123347412D01*
X112601539Y-123289467D01*
X112547082Y-123244525D01*
X112489008Y-123205765D01*
X112417511Y-123166366D01*
X112361812Y-123138465D01*
X112224600Y-123077622D01*
X112097722Y-123036666D01*
X111969475Y-123012848D01*
X111828153Y-123003420D01*
X111784706Y-123002985D01*
X111621269Y-123014246D01*
X111464932Y-123048897D01*
X111313334Y-123108240D01*
X111164114Y-123193576D01*
X111014912Y-123306207D01*
X110863366Y-123447435D01*
X110742667Y-123577540D01*
X110701478Y-123622532D01*
X110667918Y-123650069D01*
X110634852Y-123660661D01*
X110595145Y-123654820D01*
X110541662Y-123633057D01*
X110469652Y-123597107D01*
X110307297Y-123513974D01*
X110169658Y-123443705D01*
X110053351Y-123384726D01*
X109954992Y-123335462D01*
X109871197Y-123294339D01*
X109798584Y-123259782D01*
X109733767Y-123230217D01*
X109673364Y-123204069D01*
X109613990Y-123179764D01*
X109552262Y-123155728D01*
X109484797Y-123130385D01*
X109408209Y-123102161D01*
X109397681Y-123098298D01*
X109178257Y-123025296D01*
X108935759Y-122958011D01*
X108678473Y-122898334D01*
X108414684Y-122848157D01*
X108152678Y-122809370D01*
X108108147Y-122803956D01*
X107982267Y-122792486D01*
X107832713Y-122784265D01*
X107667234Y-122779290D01*
X107493580Y-122777559D01*
X107319501Y-122779069D01*
X107152747Y-122783817D01*
X107001067Y-122791801D01*
X106872211Y-122803018D01*
X106860261Y-122804390D01*
X106428450Y-122870442D01*
X106009782Y-122965161D01*
X105603810Y-123088693D01*
X105210087Y-123241187D01*
X104828169Y-123422788D01*
X104601430Y-123547557D01*
X104513962Y-123597864D01*
X104448651Y-123632857D01*
X104400282Y-123652991D01*
X104363636Y-123658722D01*
X104333497Y-123650502D01*
X104304648Y-123628788D01*
X104271870Y-123594033D01*
X104257333Y-123577540D01*
X104134556Y-123444305D01*
X104020500Y-123334983D01*
X103909778Y-123245223D01*
X103797005Y-123170672D01*
X103676793Y-123106977D01*
X103672484Y-123104938D01*
X103546033Y-123052621D01*
X103426327Y-123020412D01*
X103299510Y-123005219D01*
X103215294Y-123002985D01*
X103070293Y-123008671D01*
X102941452Y-123027535D01*
X102817282Y-123062288D01*
X102686295Y-123115638D01*
X102635731Y-123139687D01*
X102551098Y-123182741D01*
X102486216Y-123220536D01*
X102431561Y-123259691D01*
X102377611Y-123306829D01*
X102333431Y-123349853D01*
X102240037Y-123456846D01*
X102161813Y-123577147D01*
X102097774Y-123713656D01*
X102046936Y-123869276D01*
X102008315Y-124046908D01*
X101980926Y-124249453D01*
X101966408Y-124431946D01*
X101947699Y-124747288D01*
X101905339Y-124771037D01*
X101872964Y-124785689D01*
X101849698Y-124780836D01*
X101828367Y-124763717D01*
X101816509Y-124752070D01*
X101807879Y-124738484D01*
X101802134Y-124718406D01*
X101798933Y-124687281D01*
X101797931Y-124640556D01*
X101798786Y-124573676D01*
X101801155Y-124482088D01*
X101802829Y-124424627D01*
X101808060Y-124293903D01*
X101815419Y-124178683D01*
X101824495Y-124084034D01*
X101834878Y-124015022D01*
X101836782Y-124006032D01*
X101873891Y-123858662D01*
X101916469Y-123719500D01*
X101961752Y-123596966D01*
X101996626Y-123519436D01*
X102050373Y-123411943D01*
X101964769Y-123374085D01*
X101877930Y-123338369D01*
X101798252Y-123312663D01*
X101717455Y-123295505D01*
X101627259Y-123285433D01*
X101519387Y-123280985D01*
X101434328Y-123280420D01*
X101299926Y-123282965D01*
X101188767Y-123291013D01*
X101092743Y-123306178D01*
X101003747Y-123330076D01*
X100913669Y-123364319D01*
X100837385Y-123399277D01*
X100697097Y-123482199D01*
X100581176Y-123584033D01*
X100488757Y-123705954D01*
X100418980Y-123849138D01*
X100370983Y-124014757D01*
X100365476Y-124042305D01*
X100353469Y-124128565D01*
X100344497Y-124240109D01*
X100338560Y-124370775D01*
X100335653Y-124514402D01*
X100165464Y-124514402D01*
X100167668Y-124366740D01*
X100177590Y-124186365D01*
G37*
G36*
X103798153Y-129528381D02*
G01*
X103865007Y-129311193D01*
X103962753Y-129096833D01*
X104065629Y-128924700D01*
X104217108Y-128724042D01*
X104395898Y-128535416D01*
X104599810Y-128359548D01*
X104826654Y-128197166D01*
X105074240Y-128048995D01*
X105340381Y-127915763D01*
X105622886Y-127798195D01*
X105919567Y-127697018D01*
X106228233Y-127612958D01*
X106546697Y-127546743D01*
X106872768Y-127499099D01*
X107204258Y-127470751D01*
X107538978Y-127462427D01*
X107874737Y-127474853D01*
X108209348Y-127508756D01*
X108295243Y-127521080D01*
X108631580Y-127582388D01*
X108952894Y-127661045D01*
X109258041Y-127756129D01*
X109545877Y-127866718D01*
X109815259Y-127991891D01*
X110065042Y-128130726D01*
X110294083Y-128282303D01*
X110501237Y-128445699D01*
X110685362Y-128619993D01*
X110845312Y-128804263D01*
X110979944Y-128997589D01*
X111088115Y-129199048D01*
X111168680Y-129407719D01*
X111220495Y-129622682D01*
X111242416Y-129843013D01*
X111243106Y-129895744D01*
X111226861Y-130119441D01*
X111180457Y-130338102D01*
X111105058Y-130550806D01*
X111001827Y-130756634D01*
X110871928Y-130954665D01*
X110716524Y-131143979D01*
X110536780Y-131323657D01*
X110333858Y-131492778D01*
X110108923Y-131650422D01*
X109863138Y-131795670D01*
X109597667Y-131927600D01*
X109313673Y-132045294D01*
X109012321Y-132147830D01*
X108694772Y-132234290D01*
X108362193Y-132303753D01*
X108155535Y-132336943D01*
X108057525Y-132349897D01*
X107953591Y-132361878D01*
X107856055Y-132371562D01*
X107777242Y-132377624D01*
X107776430Y-132377671D01*
X107699613Y-132382211D01*
X107626144Y-132386735D01*
X107567352Y-132390540D01*
X107547388Y-132391924D01*
X107503450Y-132392870D01*
X107437195Y-132391601D01*
X107357797Y-132388392D01*
X107278856Y-132383819D01*
X106910917Y-132347632D01*
X106552339Y-132289526D01*
X106205294Y-132210367D01*
X105871956Y-132111023D01*
X105554499Y-131992359D01*
X105255097Y-131855243D01*
X104975923Y-131700542D01*
X104719152Y-131529123D01*
X104486956Y-131341852D01*
X104356553Y-131218428D01*
X104181939Y-131023394D01*
X104036957Y-130821238D01*
X103921764Y-130613204D01*
X103836518Y-130400534D01*
X103781376Y-130184473D01*
X103756496Y-129966265D01*
X103761750Y-129758466D01*
X105178872Y-129758466D01*
X105179609Y-129901750D01*
X105190373Y-130032623D01*
X105200548Y-130094501D01*
X105251135Y-130285343D01*
X105320629Y-130453358D01*
X105408367Y-130597555D01*
X105513690Y-130716943D01*
X105635939Y-130810530D01*
X105701244Y-130846390D01*
X105755841Y-130872210D01*
X105797782Y-130888391D01*
X105837330Y-130896832D01*
X105884751Y-130899432D01*
X105950312Y-130898091D01*
X105975684Y-130897181D01*
X106056031Y-130892876D01*
X106115470Y-130885478D01*
X106164672Y-130872832D01*
X106214309Y-130852787D01*
X106228420Y-130846185D01*
X106344365Y-130773986D01*
X106449795Y-130674251D01*
X106542885Y-130549815D01*
X106621808Y-130403515D01*
X106684740Y-130238188D01*
X106726947Y-130071704D01*
X106737296Y-129993527D01*
X106742969Y-129894057D01*
X106744075Y-129783232D01*
X106743797Y-129773928D01*
X108252542Y-129773928D01*
X108254731Y-129897347D01*
X108262496Y-130011853D01*
X108275837Y-130107441D01*
X108279460Y-130124674D01*
X108330443Y-130300169D01*
X108398219Y-130456333D01*
X108480901Y-130591720D01*
X108576604Y-130704884D01*
X108683440Y-130794378D01*
X108799525Y-130858755D01*
X108922972Y-130896569D01*
X109051894Y-130906374D01*
X109184407Y-130886723D01*
X109247343Y-130866918D01*
X109375227Y-130802999D01*
X109490193Y-130710679D01*
X109591490Y-130590714D01*
X109678367Y-130443859D01*
X109688062Y-130423889D01*
X109742009Y-130295791D01*
X109779777Y-130169202D01*
X109803836Y-130033582D01*
X109816654Y-129878392D01*
X109816848Y-129874254D01*
X109819248Y-129722575D01*
X109810219Y-129589089D01*
X109788213Y-129461982D01*
X109751685Y-129329438D01*
X109741365Y-129297836D01*
X109672899Y-129131868D01*
X109586536Y-128988170D01*
X109483774Y-128868612D01*
X109366110Y-128775066D01*
X109288478Y-128731964D01*
X109234163Y-128707702D01*
X109188930Y-128692758D01*
X109141515Y-128684923D01*
X109080657Y-128681986D01*
X109032214Y-128681654D01*
X108957592Y-128682699D01*
X108903427Y-128687274D01*
X108858616Y-128697538D01*
X108812053Y-128715648D01*
X108779478Y-128730785D01*
X108650906Y-128809631D01*
X108537334Y-128915192D01*
X108439937Y-129045775D01*
X108359893Y-129199685D01*
X108298378Y-129375231D01*
X108279432Y-129450209D01*
X108264892Y-129540356D01*
X108255929Y-129651596D01*
X108252542Y-129773928D01*
X106743797Y-129773928D01*
X106740722Y-129670985D01*
X106733015Y-129567255D01*
X106721063Y-129481976D01*
X106720551Y-129479353D01*
X106674437Y-129303032D01*
X106610302Y-129144344D01*
X106529953Y-129005327D01*
X106435196Y-128888018D01*
X106327839Y-128794456D01*
X106209688Y-128726678D01*
X106082550Y-128686722D01*
X106009495Y-128677347D01*
X105870005Y-128683403D01*
X105738556Y-128719070D01*
X105616613Y-128783058D01*
X105505643Y-128874075D01*
X105407110Y-128990834D01*
X105322480Y-129132043D01*
X105253219Y-129296414D01*
X105232191Y-129361471D01*
X105205626Y-129477595D01*
X105187699Y-129613504D01*
X105178872Y-129758466D01*
X103761750Y-129758466D01*
X103762036Y-129747153D01*
X103798153Y-129528381D01*
G37*
G36*
X107468408Y-125482960D02*
G01*
X108463557Y-125482960D01*
X108463557Y-124629975D01*
X108921642Y-124629975D01*
X108921642Y-126873010D01*
X108463557Y-126873010D01*
X108463557Y-126035821D01*
X107468408Y-126035821D01*
X107468408Y-126873010D01*
X107010111Y-126873010D01*
X107014166Y-125755441D01*
X107018221Y-124637873D01*
X107243315Y-124633490D01*
X107468408Y-124629108D01*
X107468408Y-125482960D01*
G37*
G36*
X110943532Y-125246020D02*
G01*
X109632463Y-125246020D01*
X109632463Y-125482960D01*
X110944278Y-125482960D01*
X110939956Y-125755441D01*
X110935634Y-126027923D01*
X110284048Y-126032047D01*
X109632463Y-126036171D01*
X109632463Y-126873010D01*
X109173253Y-126873010D01*
X109177764Y-125881810D01*
X109182276Y-124890609D01*
X109233365Y-124795436D01*
X109251337Y-124761162D01*
X109267210Y-124732252D01*
X109283687Y-124708236D01*
X109303472Y-124688644D01*
X109329267Y-124673006D01*
X109363776Y-124660852D01*
X109409701Y-124651712D01*
X109469747Y-124645116D01*
X109546617Y-124640595D01*
X109643012Y-124637678D01*
X109761637Y-124635894D01*
X109905195Y-124634776D01*
X110076389Y-124633851D01*
X110165578Y-124633359D01*
X110943532Y-124628845D01*
X110943532Y-125246020D01*
G37*
%TO.C,U4*%
X144562500Y-54990000D02*
X150572500Y-54990000D01*
X150572500Y-61810000D02*
X150572500Y-60550000D01*
X150572500Y-54990000D02*
X150572500Y-56250000D01*
X146812500Y-61810000D02*
X150572500Y-61810000D01*
%TD*%
M02*
