%TF.GenerationSoftware,KiCad,Pcbnew,(6.0.10)*%
%TF.CreationDate,2023-01-02T18:32:23-08:00*%
%TF.ProjectId,Telemetry_KiCAD_Project,54656c65-6d65-4747-9279-5f4b69434144,3*%
%TF.SameCoordinates,Original*%
%TF.FileFunction,Profile,NP*%
%FSLAX46Y46*%
G04 Gerber Fmt 4.6, Leading zero omitted, Abs format (unit mm)*
G04 Created by KiCad (PCBNEW (6.0.10)) date 2023-01-02 18:32:23*
%MOMM*%
%LPD*%
G01*
G04 APERTURE LIST*
%TA.AperFunction,Profile*%
%ADD10C,0.050000*%
%TD*%
G04 APERTURE END LIST*
D10*
X150000000Y-143600000D02*
G75*
G03*
X160000000Y-133600000I0J10000000D01*
G01*
X80000000Y-133600000D02*
G75*
G03*
X90000000Y-143600000I10000000J0D01*
G01*
X130950000Y-51414214D02*
G75*
G03*
X132950000Y-53450000I2017900J-17886D01*
G01*
X160000000Y-60000000D02*
X160000000Y-133600000D01*
X160000020Y-60000000D02*
G75*
G03*
X150000000Y-49980000I-10020020J0D01*
G01*
X80000000Y-133600000D02*
X80000000Y-60000000D01*
X150000000Y-143600000D02*
X90000000Y-143600000D01*
X90000000Y-50000000D02*
G75*
G03*
X80000000Y-60000000I0J-10000000D01*
G01*
X132950000Y-53450000D02*
X142850000Y-53450000D01*
X146260001Y-49980070D02*
G75*
G03*
X144850000Y-51414214I22199J-1432030D01*
G01*
X142850000Y-53450000D02*
G75*
G03*
X144850000Y-51414214I-17900J2017900D01*
G01*
X90000000Y-50000000D02*
X129530873Y-49987893D01*
X146260000Y-49980000D02*
X150000000Y-49980000D01*
X130949978Y-51414214D02*
G75*
G03*
X129530873Y-49987893I-1416978J9314D01*
G01*
X121180000Y-96800000D02*
G75*
G03*
X121180000Y-96800000I-8000000J0D01*
G01*
X114846666Y-96800000D02*
G75*
G03*
X114846666Y-96800000I-1666666J0D01*
G01*
X110680000Y-96800000D02*
X115680000Y-96800000D01*
X113180000Y-94300000D02*
X113180000Y-99300000D01*
X81666666Y-50000000D02*
G75*
G03*
X81666666Y-50000000I-1666666J0D01*
G01*
X77500000Y-50000000D02*
X82500000Y-50000000D01*
X80000000Y-47500000D02*
X80000000Y-52500000D01*
X161666666Y-143600000D02*
G75*
G03*
X161666666Y-143600000I-1666666J0D01*
G01*
X157500000Y-143600000D02*
X162500000Y-143600000D01*
X160000000Y-141100000D02*
X160000000Y-146100000D01*
X81666666Y-143600000D02*
G75*
G03*
X81666666Y-143600000I-1666666J0D01*
G01*
X77500000Y-143600000D02*
X82500000Y-143600000D01*
X80000000Y-141100000D02*
X80000000Y-146100000D01*
X161666666Y-50000000D02*
G75*
G03*
X161666666Y-50000000I-1666666J0D01*
G01*
X157500000Y-50000000D02*
X162500000Y-50000000D01*
X160000000Y-47500000D02*
X160000000Y-52500000D01*
M02*
