%TF.GenerationSoftware,KiCad,Pcbnew,(6.0.7)*%
%TF.CreationDate,2022-11-16T18:44:27-05:00*%
%TF.ProjectId,Telemetry_KiCAD_Project,54656c65-6d65-4747-9279-5f4b69434144,rev?*%
%TF.SameCoordinates,Original*%
%TF.FileFunction,Drillmap*%
%TF.FilePolarity,Positive*%
%FSLAX45Y45*%
G04 Gerber Fmt 4.5, Leading zero omitted, Abs format (unit mm)*
G04 Created by KiCad (PCBNEW (6.0.7)) date 2022-11-16 18:44:27*
%MOMM*%
%LPD*%
G01*
G04 APERTURE LIST*
%ADD10C,0.050000*%
%ADD11C,0.200000*%
G04 APERTURE END LIST*
D10*
X13095000Y-5200000D02*
G75*
G03*
X12895000Y-5000000I-200000J0D01*
G01*
X15000000Y-14360000D02*
G75*
G03*
X16000000Y-13360000I0J1000000D01*
G01*
X8000000Y-13360000D02*
G75*
G03*
X9000000Y-14360000I1000000J0D01*
G01*
X13095000Y-5200000D02*
G75*
G03*
X13295000Y-5400000I200000J0D01*
G01*
X16000000Y-6000000D02*
X16000000Y-13360000D01*
X16000000Y-6000000D02*
G75*
G03*
X15000000Y-5000000I-1000000J0D01*
G01*
X8000000Y-13360000D02*
X8000000Y-6000000D01*
X15000000Y-14360000D02*
X9000000Y-14360000D01*
X9000000Y-5000000D02*
G75*
G03*
X8000000Y-6000000I0J-1000000D01*
G01*
X13295000Y-5400000D02*
X14285000Y-5400000D01*
X14685000Y-5000000D02*
G75*
G03*
X14485000Y-5200000I0J-200000D01*
G01*
X14285000Y-5400000D02*
G75*
G03*
X14485000Y-5200000I0J200000D01*
G01*
X9000000Y-5000000D02*
X12895000Y-5000000D01*
X14685000Y-5000000D02*
X15000000Y-5000000D01*
X12118000Y-9680000D02*
G75*
G03*
X12118000Y-9680000I-800000J0D01*
G01*
D11*
X8255119Y-14672976D02*
X8255119Y-14472976D01*
X8302738Y-14472976D01*
X8331309Y-14482500D01*
X8350357Y-14501548D01*
X8359881Y-14520595D01*
X8369405Y-14558690D01*
X8369405Y-14587262D01*
X8359881Y-14625357D01*
X8350357Y-14644405D01*
X8331309Y-14663452D01*
X8302738Y-14672976D01*
X8255119Y-14672976D01*
X8455119Y-14672976D02*
X8455119Y-14539643D01*
X8455119Y-14577738D02*
X8464643Y-14558690D01*
X8474167Y-14549167D01*
X8493214Y-14539643D01*
X8512262Y-14539643D01*
X8578929Y-14672976D02*
X8578929Y-14539643D01*
X8578929Y-14472976D02*
X8569405Y-14482500D01*
X8578929Y-14492024D01*
X8588452Y-14482500D01*
X8578929Y-14472976D01*
X8578929Y-14492024D01*
X8702738Y-14672976D02*
X8683690Y-14663452D01*
X8674167Y-14644405D01*
X8674167Y-14472976D01*
X8807500Y-14672976D02*
X8788452Y-14663452D01*
X8778929Y-14644405D01*
X8778929Y-14472976D01*
X9036071Y-14672976D02*
X9036071Y-14472976D01*
X9102738Y-14615833D01*
X9169405Y-14472976D01*
X9169405Y-14672976D01*
X9350357Y-14672976D02*
X9350357Y-14568214D01*
X9340833Y-14549167D01*
X9321786Y-14539643D01*
X9283690Y-14539643D01*
X9264643Y-14549167D01*
X9350357Y-14663452D02*
X9331310Y-14672976D01*
X9283690Y-14672976D01*
X9264643Y-14663452D01*
X9255119Y-14644405D01*
X9255119Y-14625357D01*
X9264643Y-14606309D01*
X9283690Y-14596786D01*
X9331310Y-14596786D01*
X9350357Y-14587262D01*
X9445595Y-14539643D02*
X9445595Y-14739643D01*
X9445595Y-14549167D02*
X9464643Y-14539643D01*
X9502738Y-14539643D01*
X9521786Y-14549167D01*
X9531310Y-14558690D01*
X9540833Y-14577738D01*
X9540833Y-14634881D01*
X9531310Y-14653928D01*
X9521786Y-14663452D01*
X9502738Y-14672976D01*
X9464643Y-14672976D01*
X9445595Y-14663452D01*
X9626548Y-14653928D02*
X9636071Y-14663452D01*
X9626548Y-14672976D01*
X9617024Y-14663452D01*
X9626548Y-14653928D01*
X9626548Y-14672976D01*
X9626548Y-14549167D02*
X9636071Y-14558690D01*
X9626548Y-14568214D01*
X9617024Y-14558690D01*
X9626548Y-14549167D01*
X9626548Y-14568214D01*
M02*
