%TF.GenerationSoftware,KiCad,Pcbnew,(6.0.1)*%
%TF.CreationDate,2022-03-23T15:55:19-05:00*%
%TF.ProjectId,Telemetry_KiCAD_Project,54656c65-6d65-4747-9279-5f4b69434144,rev?*%
%TF.SameCoordinates,Original*%
%TF.FileFunction,Paste,Top*%
%TF.FilePolarity,Positive*%
%FSLAX46Y46*%
G04 Gerber Fmt 4.6, Leading zero omitted, Abs format (unit mm)*
G04 Created by KiCad (PCBNEW (6.0.1)) date 2022-03-23 15:55:19*
%MOMM*%
%LPD*%
G01*
G04 APERTURE LIST*
G04 Aperture macros list*
%AMRoundRect*
0 Rectangle with rounded corners*
0 $1 Rounding radius*
0 $2 $3 $4 $5 $6 $7 $8 $9 X,Y pos of 4 corners*
0 Add a 4 corners polygon primitive as box body*
4,1,4,$2,$3,$4,$5,$6,$7,$8,$9,$2,$3,0*
0 Add four circle primitives for the rounded corners*
1,1,$1+$1,$2,$3*
1,1,$1+$1,$4,$5*
1,1,$1+$1,$6,$7*
1,1,$1+$1,$8,$9*
0 Add four rect primitives between the rounded corners*
20,1,$1+$1,$2,$3,$4,$5,0*
20,1,$1+$1,$4,$5,$6,$7,0*
20,1,$1+$1,$6,$7,$8,$9,0*
20,1,$1+$1,$8,$9,$2,$3,0*%
%AMRotRect*
0 Rectangle, with rotation*
0 The origin of the aperture is its center*
0 $1 length*
0 $2 width*
0 $3 Rotation angle, in degrees counterclockwise*
0 Add horizontal line*
21,1,$1,$2,0,0,$3*%
G04 Aperture macros list end*
%ADD10RoundRect,0.237500X-0.044194X-0.380070X0.380070X0.044194X0.044194X0.380070X-0.380070X-0.044194X0*%
%ADD11RoundRect,0.237500X0.237500X-0.300000X0.237500X0.300000X-0.237500X0.300000X-0.237500X-0.300000X0*%
%ADD12RoundRect,0.237500X0.300000X0.237500X-0.300000X0.237500X-0.300000X-0.237500X0.300000X-0.237500X0*%
%ADD13RoundRect,0.237500X-0.300000X-0.237500X0.300000X-0.237500X0.300000X0.237500X-0.300000X0.237500X0*%
%ADD14RoundRect,0.237500X0.380070X-0.044194X-0.044194X0.380070X-0.380070X0.044194X0.044194X-0.380070X0*%
%ADD15RoundRect,0.237500X0.237500X-0.287500X0.237500X0.287500X-0.237500X0.287500X-0.237500X-0.287500X0*%
%ADD16RoundRect,0.075000X-1.131371X1.025305X1.025305X-1.131371X1.131371X-1.025305X-1.025305X1.131371X0*%
%ADD17RoundRect,0.075000X-1.131371X-1.025305X-1.025305X-1.131371X1.131371X1.025305X1.025305X1.131371X0*%
%ADD18R,0.340000X0.230000*%
%ADD19R,0.340000X0.620000*%
%ADD20R,0.340000X0.190000*%
%ADD21R,0.310000X0.230000*%
%ADD22RoundRect,0.150000X-0.512500X-0.150000X0.512500X-0.150000X0.512500X0.150000X-0.512500X0.150000X0*%
%ADD23RoundRect,0.237500X-0.237500X0.300000X-0.237500X-0.300000X0.237500X-0.300000X0.237500X0.300000X0*%
%ADD24RoundRect,0.140000X-0.170000X0.140000X-0.170000X-0.140000X0.170000X-0.140000X0.170000X0.140000X0*%
%ADD25RoundRect,0.140000X-0.140000X-0.170000X0.140000X-0.170000X0.140000X0.170000X-0.140000X0.170000X0*%
%ADD26RoundRect,0.250000X0.315000X-0.315000X0.315000X0.315000X-0.315000X0.315000X-0.315000X-0.315000X0*%
%ADD27RoundRect,0.062500X0.062500X-0.362500X0.062500X0.362500X-0.062500X0.362500X-0.062500X-0.362500X0*%
%ADD28RoundRect,0.062500X0.362500X-0.062500X0.362500X0.062500X-0.362500X0.062500X-0.362500X-0.062500X0*%
%ADD29RoundRect,0.147500X-0.147500X-0.172500X0.147500X-0.172500X0.147500X0.172500X-0.147500X0.172500X0*%
%ADD30R,2.600000X1.900000*%
%ADD31RoundRect,0.147500X-0.172500X0.147500X-0.172500X-0.147500X0.172500X-0.147500X0.172500X0.147500X0*%
%ADD32R,0.400000X1.350000*%
%ADD33R,1.500000X1.900000*%
%ADD34RoundRect,0.140000X0.140000X0.170000X-0.140000X0.170000X-0.140000X-0.170000X0.140000X-0.170000X0*%
%ADD35RoundRect,0.135000X0.185000X-0.135000X0.185000X0.135000X-0.185000X0.135000X-0.185000X-0.135000X0*%
%ADD36RoundRect,0.145000X-0.205000X0.145000X-0.205000X-0.145000X0.205000X-0.145000X0.205000X0.145000X0*%
%ADD37RoundRect,0.087500X-0.087500X0.200000X-0.087500X-0.200000X0.087500X-0.200000X0.087500X0.200000X0*%
%ADD38RoundRect,0.140000X0.170000X-0.140000X0.170000X0.140000X-0.170000X0.140000X-0.170000X-0.140000X0*%
%ADD39RoundRect,0.147500X0.147500X0.172500X-0.147500X0.172500X-0.147500X-0.172500X0.147500X-0.172500X0*%
%ADD40RoundRect,0.237500X0.287500X0.237500X-0.287500X0.237500X-0.287500X-0.237500X0.287500X-0.237500X0*%
%ADD41RoundRect,0.147500X0.172500X-0.147500X0.172500X0.147500X-0.172500X0.147500X-0.172500X-0.147500X0*%
%ADD42RotRect,1.900000X2.600000X225.000000*%
%ADD43RoundRect,0.237500X0.044194X0.380070X-0.380070X-0.044194X-0.044194X-0.380070X0.380070X0.044194X0*%
%ADD44RotRect,1.550000X1.300000X45.000000*%
%ADD45RoundRect,0.237500X0.237500X-0.250000X0.237500X0.250000X-0.237500X0.250000X-0.237500X-0.250000X0*%
%ADD46RoundRect,0.237500X0.344715X-0.008839X-0.008839X0.344715X-0.344715X0.008839X0.008839X-0.344715X0*%
%ADD47RoundRect,0.250000X-0.450000X0.325000X-0.450000X-0.325000X0.450000X-0.325000X0.450000X0.325000X0*%
%ADD48RoundRect,0.237500X-0.237500X0.250000X-0.237500X-0.250000X0.237500X-0.250000X0.237500X0.250000X0*%
%ADD49R,2.200000X1.000000*%
%ADD50R,1.800000X3.400000*%
G04 APERTURE END LIST*
D10*
%TO.C,C25*%
X100753707Y-57850000D03*
X101973467Y-56630240D03*
%TD*%
D11*
%TO.C,C27*%
X118600000Y-57562498D03*
X118600000Y-55837498D03*
%TD*%
D10*
%TO.C,C28*%
X129090120Y-74809880D03*
X130309880Y-73590120D03*
%TD*%
D12*
%TO.C,C30*%
X119285000Y-83350000D03*
X117560000Y-83350000D03*
%TD*%
D13*
%TO.C,C31*%
X113842944Y-83358210D03*
X115567944Y-83358210D03*
%TD*%
D14*
%TO.C,C32*%
X104100000Y-74100000D03*
X102880240Y-72880240D03*
%TD*%
D11*
%TO.C,C35*%
X113675000Y-57564999D03*
X113675000Y-55839999D03*
%TD*%
D15*
%TO.C,R4*%
X122430000Y-58374999D03*
X122430000Y-56624999D03*
%TD*%
%TO.C,R5*%
X120900000Y-57385000D03*
X120900000Y-55635000D03*
%TD*%
D16*
%TO.C,U7*%
X114749911Y-59939629D03*
X114396357Y-60293183D03*
X114042804Y-60646736D03*
X113689251Y-61000290D03*
X113335697Y-61353843D03*
X112982144Y-61707396D03*
X112628590Y-62060950D03*
X112275037Y-62414503D03*
X111921484Y-62768056D03*
X111567930Y-63121610D03*
X111214377Y-63475163D03*
X110860823Y-63828717D03*
X110507270Y-64182270D03*
X110153717Y-64535823D03*
X109800163Y-64889377D03*
X109446610Y-65242930D03*
X109093056Y-65596484D03*
X108739503Y-65950037D03*
X108385950Y-66303590D03*
X108032396Y-66657144D03*
X107678843Y-67010697D03*
X107325290Y-67364251D03*
X106971736Y-67717804D03*
X106618183Y-68071357D03*
X106264629Y-68424911D03*
D17*
X106264629Y-71925089D03*
X106618183Y-72278643D03*
X106971736Y-72632196D03*
X107325290Y-72985749D03*
X107678843Y-73339303D03*
X108032396Y-73692856D03*
X108385950Y-74046410D03*
X108739503Y-74399963D03*
X109093056Y-74753516D03*
X109446610Y-75107070D03*
X109800163Y-75460623D03*
X110153717Y-75814177D03*
X110507270Y-76167730D03*
X110860823Y-76521283D03*
X111214377Y-76874837D03*
X111567930Y-77228390D03*
X111921484Y-77581944D03*
X112275037Y-77935497D03*
X112628590Y-78289050D03*
X112982144Y-78642604D03*
X113335697Y-78996157D03*
X113689251Y-79349710D03*
X114042804Y-79703264D03*
X114396357Y-80056817D03*
X114749911Y-80410371D03*
D16*
X118250089Y-80410371D03*
X118603643Y-80056817D03*
X118957196Y-79703264D03*
X119310749Y-79349710D03*
X119664303Y-78996157D03*
X120017856Y-78642604D03*
X120371410Y-78289050D03*
X120724963Y-77935497D03*
X121078516Y-77581944D03*
X121432070Y-77228390D03*
X121785623Y-76874837D03*
X122139177Y-76521283D03*
X122492730Y-76167730D03*
X122846283Y-75814177D03*
X123199837Y-75460623D03*
X123553390Y-75107070D03*
X123906944Y-74753516D03*
X124260497Y-74399963D03*
X124614050Y-74046410D03*
X124967604Y-73692856D03*
X125321157Y-73339303D03*
X125674710Y-72985749D03*
X126028264Y-72632196D03*
X126381817Y-72278643D03*
X126735371Y-71925089D03*
D17*
X126735371Y-68424911D03*
X126381817Y-68071357D03*
X126028264Y-67717804D03*
X125674710Y-67364251D03*
X125321157Y-67010697D03*
X124967604Y-66657144D03*
X124614050Y-66303590D03*
X124260497Y-65950037D03*
X123906944Y-65596484D03*
X123553390Y-65242930D03*
X123199837Y-64889377D03*
X122846283Y-64535823D03*
X122492730Y-64182270D03*
X122139177Y-63828717D03*
X121785623Y-63475163D03*
X121432070Y-63121610D03*
X121078516Y-62768056D03*
X120724963Y-62414503D03*
X120371410Y-62060950D03*
X120017856Y-61707396D03*
X119664303Y-61353843D03*
X119310749Y-61000290D03*
X118957196Y-60646736D03*
X118603643Y-60293183D03*
X118250089Y-59939629D03*
%TD*%
D18*
%TO.C,U3*%
X141340000Y-122765000D03*
D19*
X141880000Y-122960000D03*
D18*
X142450000Y-122765000D03*
D20*
X142450000Y-123175000D03*
D18*
X142450000Y-123585000D03*
D21*
X141895000Y-123585000D03*
D18*
X141340000Y-123585000D03*
D20*
X141340000Y-123175000D03*
%TD*%
D11*
%TO.C,C34*%
X110900000Y-57569999D03*
X110900000Y-55844999D03*
%TD*%
%TO.C,C26*%
X115796250Y-57564999D03*
X115796250Y-55839999D03*
%TD*%
D13*
%TO.C,C29*%
X128980000Y-70110000D03*
X130705000Y-70110000D03*
%TD*%
D22*
%TO.C,U5*%
X129562500Y-58425000D03*
X129562500Y-59375000D03*
X129562500Y-60325000D03*
X131837500Y-60325000D03*
X131837500Y-59375000D03*
X131837500Y-58425000D03*
%TD*%
D23*
%TO.C,C2*%
X126720000Y-87445001D03*
X126720000Y-89170001D03*
%TD*%
D24*
%TO.C,C3*%
X137300000Y-87615000D03*
X137300000Y-88575000D03*
%TD*%
D25*
%TO.C,C12*%
X151130000Y-105915000D03*
X152090000Y-105915000D03*
%TD*%
D24*
%TO.C,C15*%
X152540000Y-85715000D03*
X152540000Y-86675000D03*
%TD*%
%TO.C,C17*%
X152540000Y-87615000D03*
X152540000Y-88575000D03*
%TD*%
D26*
%TO.C,U1*%
X133500000Y-88025000D03*
X133500000Y-86725000D03*
X134800000Y-88025000D03*
X134800000Y-86725000D03*
D27*
X133150000Y-89300000D03*
X133650000Y-89300000D03*
X134150000Y-89300000D03*
X134650000Y-89300000D03*
X135150000Y-89300000D03*
D28*
X136075000Y-88375000D03*
X136075000Y-87875000D03*
X136075000Y-87375000D03*
X136075000Y-86875000D03*
X136075000Y-86375000D03*
D27*
X135150000Y-85450000D03*
X134650000Y-85450000D03*
X134150000Y-85450000D03*
X133650000Y-85450000D03*
X133150000Y-85450000D03*
D28*
X132225000Y-86375000D03*
X132225000Y-86875000D03*
X132225000Y-87375000D03*
X132225000Y-87875000D03*
X132225000Y-88375000D03*
%TD*%
D29*
%TO.C,L1*%
X133437500Y-92525000D03*
X134407500Y-92525000D03*
%TD*%
D24*
%TO.C,C7*%
X133400000Y-93815000D03*
X133400000Y-94775000D03*
%TD*%
%TO.C,C8*%
X133900000Y-95765000D03*
X133900000Y-96725000D03*
%TD*%
%TO.C,C6*%
X135700000Y-91515000D03*
X135700000Y-92475000D03*
%TD*%
D30*
%TO.C,Y1*%
X129490000Y-88770000D03*
X129490000Y-84470000D03*
%TD*%
D31*
%TO.C,L2*%
X134420000Y-93810000D03*
X134420000Y-94780000D03*
%TD*%
D32*
%TO.C,J4*%
X139200000Y-57837500D03*
X138550000Y-57837500D03*
X137900000Y-57837500D03*
X137250000Y-57837500D03*
X136600000Y-57837500D03*
D33*
X138900000Y-55137500D03*
X136900000Y-55137500D03*
%TD*%
D11*
%TO.C,C18*%
X141970000Y-85795000D03*
X141970000Y-84070000D03*
%TD*%
%TO.C,C4*%
X126719999Y-85795000D03*
X126719999Y-84070000D03*
%TD*%
D25*
%TO.C,C11*%
X147960000Y-105295000D03*
X148920000Y-105295000D03*
%TD*%
D31*
%TO.C,L9*%
X149900000Y-99492501D03*
X149900000Y-100462501D03*
%TD*%
%TO.C,L4*%
X149900000Y-105285000D03*
X149900000Y-106255000D03*
%TD*%
D25*
%TO.C,C21*%
X150880000Y-100475000D03*
X151840000Y-100475000D03*
%TD*%
D31*
%TO.C,L11*%
X149900000Y-103345000D03*
X149900000Y-104315000D03*
%TD*%
D34*
%TO.C,C22*%
X148920000Y-102395000D03*
X147960000Y-102395000D03*
%TD*%
D35*
%TO.C,R1*%
X151980000Y-109085000D03*
X151980000Y-108065000D03*
%TD*%
D36*
%TO.C,U2*%
X150085000Y-108230000D03*
X149215000Y-108960000D03*
X149215000Y-108230000D03*
X150085000Y-108960000D03*
D37*
X150400000Y-107307500D03*
X149900000Y-107307500D03*
X149400000Y-107307500D03*
X148900000Y-107307500D03*
X148900000Y-109882500D03*
X149400000Y-109882500D03*
X149900000Y-109882500D03*
X150400000Y-109882500D03*
%TD*%
D38*
%TO.C,C9*%
X132890000Y-108885000D03*
X132890000Y-107925000D03*
%TD*%
D31*
%TO.C,L3*%
X133900000Y-108905000D03*
X133900000Y-109875000D03*
%TD*%
D38*
%TO.C,C10*%
X134910000Y-109745000D03*
X134910000Y-108785000D03*
%TD*%
D39*
%TO.C,L8*%
X148910000Y-95395000D03*
X147940000Y-95395000D03*
%TD*%
D29*
%TO.C,L6*%
X150880000Y-92525000D03*
X151850000Y-92525000D03*
%TD*%
D24*
%TO.C,C20*%
X149900000Y-92482500D03*
X149900000Y-93442500D03*
%TD*%
D31*
%TO.C,L7*%
X149900000Y-94395000D03*
X149900000Y-95365000D03*
%TD*%
D30*
%TO.C,Y2*%
X144740000Y-88770000D03*
X144740000Y-84470000D03*
%TD*%
D26*
%TO.C,U6*%
X150050000Y-86725000D03*
X150050000Y-88025000D03*
X148750000Y-86725000D03*
X148750000Y-88025000D03*
D27*
X148400000Y-89300000D03*
X148900000Y-89300000D03*
X149400000Y-89300000D03*
X149900000Y-89300000D03*
X150400000Y-89300000D03*
D28*
X151325000Y-88375000D03*
X151325000Y-87875000D03*
X151325000Y-87375000D03*
X151325000Y-86875000D03*
X151325000Y-86375000D03*
D27*
X150400000Y-85450000D03*
X149900000Y-85450000D03*
X149400000Y-85450000D03*
X148900000Y-85450000D03*
X148400000Y-85450000D03*
D28*
X147475000Y-86375000D03*
X147475000Y-86875000D03*
X147475000Y-87375000D03*
X147475000Y-87875000D03*
X147475000Y-88375000D03*
%TD*%
D23*
%TO.C,C16*%
X141970000Y-87455000D03*
X141970000Y-89180000D03*
%TD*%
D40*
%TO.C,D4*%
X99825000Y-100985000D03*
X98075000Y-100985000D03*
%TD*%
%TO.C,D6*%
X99825000Y-106970000D03*
X98075000Y-106970000D03*
%TD*%
%TO.C,R6*%
X103170000Y-106970000D03*
X101420000Y-106970000D03*
%TD*%
%TO.C,R8*%
X103170000Y-100985000D03*
X101420000Y-100985000D03*
%TD*%
%TO.C,R10*%
X103170000Y-95000000D03*
X101420000Y-95000000D03*
%TD*%
%TO.C,D3*%
X99825000Y-97992500D03*
X98075000Y-97992500D03*
%TD*%
%TO.C,R7*%
X103165000Y-104070000D03*
X101415000Y-104070000D03*
%TD*%
%TO.C,R9*%
X103170000Y-97992500D03*
X101420000Y-97992500D03*
%TD*%
%TO.C,D5*%
X99820000Y-104070000D03*
X98070000Y-104070000D03*
%TD*%
D41*
%TO.C,L5*%
X153030000Y-109075000D03*
X153030000Y-108105000D03*
%TD*%
D24*
%TO.C,C1*%
X137300000Y-85715000D03*
X137300000Y-86675000D03*
%TD*%
D42*
%TO.C,Y3*%
X106078060Y-56500646D03*
X103037500Y-59541206D03*
%TD*%
D43*
%TO.C,C24*%
X104378706Y-54225000D03*
X103158946Y-55444760D03*
%TD*%
D11*
%TO.C,C23*%
X99200000Y-64099999D03*
X99200000Y-62374999D03*
%TD*%
D44*
%TO.C,SW1*%
X103228570Y-80151430D03*
X97600000Y-85780000D03*
X106410550Y-83333410D03*
X100781980Y-88961980D03*
%TD*%
D40*
%TO.C,D2*%
X99825000Y-95000000D03*
X98075000Y-95000000D03*
%TD*%
D12*
%TO.C,C33*%
X103829999Y-70400000D03*
X102104999Y-70400000D03*
%TD*%
D38*
%TO.C,C5*%
X137300000Y-90455000D03*
X137300000Y-89495000D03*
%TD*%
D31*
%TO.C,L10*%
X149900000Y-101405000D03*
X149900000Y-102375000D03*
%TD*%
D38*
%TO.C,C19*%
X152540000Y-90485000D03*
X152540000Y-89525000D03*
%TD*%
D45*
%TO.C,R3*%
X144000000Y-60800000D03*
X144000000Y-58975000D03*
%TD*%
D46*
%TO.C,R12*%
X125095235Y-61015235D03*
X123804765Y-59724765D03*
%TD*%
D13*
%TO.C,C14*%
X144050000Y-62275000D03*
X145775000Y-62275000D03*
%TD*%
D47*
%TO.C,D1*%
X141900000Y-60375000D03*
X141900000Y-62425000D03*
%TD*%
D48*
%TO.C,R2*%
X145600000Y-58962500D03*
X145600000Y-60787500D03*
%TD*%
D12*
%TO.C,C13*%
X152225000Y-62275000D03*
X150500000Y-62275000D03*
%TD*%
D23*
%TO.C,C38*%
X102955635Y-66637500D03*
X102955635Y-68362500D03*
%TD*%
%TO.C,C37*%
X101400000Y-65300000D03*
X101400000Y-67025000D03*
%TD*%
D49*
%TO.C,U4*%
X147750000Y-55225000D03*
X147750000Y-56725000D03*
X147750000Y-58225000D03*
X147750000Y-59725000D03*
D50*
X154050000Y-57475000D03*
%TD*%
D12*
%TO.C,FB1*%
X139885000Y-60925000D03*
X138160000Y-60925000D03*
%TD*%
M02*
