M48
; DRILL file {KiCad (6.0.10)} date Mon Jan  2 18:32:17 2023
; FORMAT={-:-/ absolute / inch / decimal}
; #@! TF.CreationDate,2023-01-02T18:32:17-08:00
; #@! TF.GenerationSoftware,Kicad,Pcbnew,(6.0.10)
; #@! TF.FileFunction,Plated,1,4,PTH
FMAT,2
INCH
; #@! TA.AperFunction,Plated,PTH,ViaDrill
T1C0.0079
; #@! TA.AperFunction,Plated,PTH,ComponentDrill
T2C0.0079
; #@! TA.AperFunction,Plated,PTH,ViaDrill
T3C0.0157
; #@! TA.AperFunction,Plated,PTH,ViaDrill
T4C0.0197
; #@! TA.AperFunction,Plated,PTH,ComponentDrill
T5C0.0394
; #@! TA.AperFunction,Plated,PTH,ComponentDrill
T6C0.0433
; #@! TA.AperFunction,Plated,PTH,ComponentDrill
T7C0.0591
; #@! TA.AperFunction,Plated,PTH,ComponentDrill
T8C0.1260
%
G90
G05
T1
X3.3547Y-2.2441
X3.3547Y-2.4331
X3.3547Y-2.622
X3.3547Y-2.811
X3.3547Y-3.0
X3.3547Y-3.189
X3.3547Y-3.378
X3.3547Y-3.5669
X3.3547Y-3.7559
X3.3547Y-3.9449
X3.3547Y-4.1339
X3.3547Y-4.3228
X3.3547Y-4.5118
X3.3547Y-4.7008
X3.3547Y-4.8898
X3.3547Y-5.0787
X3.4496Y-5.2677
X3.45Y-5.4567
X3.5441Y-5.3622
X3.6386Y-5.2677
X3.639Y-5.4567
X3.7331Y-5.3622
X3.7657Y-3.1043
X3.7657Y-3.4705
X3.8268Y-4.3228
X3.8268Y-4.5118
X3.8272Y-4.7008
X3.8272Y-4.8898
X3.8272Y-5.0787
X3.8276Y-5.2677
X3.828Y-5.4567
X3.9213Y-4.4173
X3.9217Y-4.7953
X3.9217Y-4.9843
X3.9217Y-5.1732
X3.922Y-5.3622
X4.0161Y-4.7008
X4.0161Y-4.8898
X4.0161Y-5.0787
X4.0161Y-5.2677
X4.0165Y-5.4567
X4.1102Y-4.7953
X4.1106Y-4.9843
X4.1106Y-5.1732
X4.1106Y-5.3622
X4.1685Y-2.7429
X4.2051Y-4.7008
X4.2051Y-4.8898
X4.2051Y-5.0787
X4.2051Y-5.2677
X4.2055Y-5.4567
X4.2421Y-2.6713
X4.2441Y-2.9232
X4.2449Y-2.8283
X4.2996Y-4.7953
X4.2996Y-4.9843
X4.2996Y-5.1732
X4.2996Y-5.3622
X4.3383Y-2.7628
X4.3622Y-2.5531
X4.3941Y-4.7008
X4.3941Y-4.8898
X4.3941Y-5.0787
X4.3941Y-5.2677
X4.3945Y-5.4567
X4.4311Y-2.4665
X4.4333Y-2.6686
X4.4547Y-3.2657
X4.4646Y-3.2252
X4.4886Y-4.7953
X4.4886Y-4.9843
X4.4886Y-5.1732
X4.4886Y-5.3622
X4.5197Y-2.5787
X4.5433Y-2.9429
X4.5827Y-4.3228
X4.5827Y-4.5118
X4.5831Y-4.7008
X4.5831Y-4.8898
X4.5831Y-5.0787
X4.5831Y-5.2677
X4.5835Y-5.4567
X4.628Y-2.7028
X4.6634Y-2.8386
X4.6772Y-4.6063
X4.6776Y-4.4173
X4.6776Y-4.7953
X4.6776Y-4.9843
X4.6776Y-5.1732
X4.6776Y-5.3622
X4.6776Y-4.2287
X4.7717Y-4.1339
X4.772Y-4.3228
X4.772Y-4.5118
X4.772Y-4.7008
X4.772Y-4.8898
X4.772Y-5.0787
X4.772Y-5.2677
X4.7724Y-5.4567
X4.8484Y-2.8406
X4.8504Y-2.7343
X4.8583Y-2.2461
X4.8654Y-3.6996
X4.8661Y-3.85
X4.8661Y-4.039
X4.8665Y-4.2283
X4.8665Y-4.4173
X4.8665Y-4.6063
X4.8665Y-4.7953
X4.8665Y-4.9843
X4.8665Y-5.1732
X4.8665Y-5.3622
X4.8868Y-2.749
X4.9252Y-2.3406
X4.935Y-2.8425
X4.9598Y-3.7941
X4.9606Y-3.9445
X4.9606Y-4.1335
X4.961Y-4.3228
X4.961Y-4.5118
X4.961Y-4.7008
X4.961Y-4.8898
X4.961Y-5.0787
X4.961Y-5.2677
X4.9614Y-5.4567
X5.0402Y-2.4656
X5.0543Y-3.6996
X5.0551Y-3.85
X5.0551Y-4.039
X5.0551Y-4.228
X5.0555Y-4.6063
X5.0555Y-4.7953
X5.0555Y-4.9843
X5.0555Y-5.1732
X5.0555Y-5.3622
X5.0555Y-4.4173
X5.0618Y-2.9898
X5.063Y-2.6348
X5.0807Y-2.6033
X5.0984Y-2.5719
X5.1161Y-2.5384
X5.1203Y-2.4656
X5.1339Y-2.5049
X5.15Y-4.7008
X5.15Y-4.8898
X5.15Y-5.0787
X5.15Y-5.2677
X5.15Y-4.5118
X5.1504Y-5.4567
X5.1575Y-3.0148
X5.1701Y-3.1626
X5.1703Y-3.0768
X5.1878Y-3.1311
X5.2047Y-3.5167
X5.2055Y-3.0976
X5.2254Y-3.0354
X5.2418Y-2.7742
X5.2418Y-2.8538
X5.2445Y-4.7953
X5.2445Y-4.9843
X5.2445Y-5.1732
X5.2445Y-5.3622
X5.2449Y-3.0976
X5.2646Y-3.1311
X5.2648Y-2.4656
X5.2787Y-2.6742
X5.2843Y-3.1626
X5.339Y-4.8898
X5.339Y-5.0787
X5.339Y-5.2677
X5.3394Y-5.4567
X5.3449Y-2.4656
X5.3543Y-3.2638
X5.3563Y-3.5148
X5.3593Y-2.6742
X5.3661Y-3.3602
X5.425Y-2.4656
X5.4291Y-3.1171
X5.4335Y-5.3622
X5.439Y-3.2264
X5.4398Y-2.6742
X5.505Y-2.4656
X5.5204Y-2.6742
X5.528Y-3.7559
X5.528Y-3.9449
X5.528Y-4.1339
X5.528Y-4.3228
X5.528Y-4.5118
X5.5283Y-5.4567
X5.5335Y-2.3465
X5.549Y-3.1634
X5.6009Y-2.6742
X5.6224Y-3.8504
X5.6224Y-4.0394
X5.6224Y-4.2283
X5.6224Y-4.4173
X5.6224Y-5.3622
X5.6387Y-3.1634
X5.6814Y-2.6742
X5.7173Y-5.4567
X5.7283Y-3.1634
X5.762Y-2.6742
X5.8031Y-3.0114
X5.8051Y-3.5148
X5.8071Y-2.7285
X5.8071Y-2.8182
X5.8071Y-2.9079
X5.8071Y-3.0873
X5.8071Y-3.177
X5.8114Y-4.7953
X5.8114Y-4.9843
X5.8114Y-5.1732
X5.8114Y-5.3622
X5.8425Y-2.6348
X5.8425Y-3.1171
X5.8602Y-2.5384
X5.8799Y-2.5719
X5.8996Y-2.6033
X5.9055Y-4.7008
X5.9059Y-4.8898
X5.9059Y-5.0787
X5.9059Y-5.2677
X5.9063Y-5.4567
X5.9209Y-2.5051
X5.9488Y-3.0114
X5.9488Y-3.0874
X5.9488Y-3.177
X5.9528Y-2.7285
X5.9528Y-2.8183
X5.9528Y-2.908
X5.9559Y-3.2669
X5.9567Y-3.5148
X5.9575Y-2.5228
X5.9665Y-3.3602
X5.9992Y-4.6059
X6.0Y-4.7953
X6.0004Y-4.9843
X6.0004Y-5.1732
X6.0004Y-5.3622
X6.0469Y-2.6969
X6.0945Y-4.7008
X6.0945Y-4.8898
X6.0949Y-5.0787
X6.0949Y-5.2677
X6.1028Y-2.6713
T2
X5.2402Y-3.3986
X5.2402Y-3.4813
X5.3228Y-3.3986
X5.3228Y-3.4813
X5.8406Y-3.3986
X5.8406Y-3.4813
X5.9232Y-3.3986
X5.9232Y-3.4813
T3
X3.8661Y-2.8996
X3.8839Y-2.9921
X3.8937Y-2.1339
X3.9193Y-3.7402
X3.9305Y-3.1073
X3.9384Y-4.6157
X3.9606Y-2.1339
X3.9606Y-2.6161
X4.0079Y-2.7776
X4.0177Y-3.7421
X4.0374Y-2.7461
X4.0583Y-3.1173
X4.0866Y-2.7008
X4.0886Y-2.8406
X4.1004Y-2.9547
X4.1201Y-3.4547
X4.1555Y-3.0098
X4.2238Y-2.3084
X4.2258Y-2.1332
X4.2736Y-3.3524
X4.2913Y-2.6004
X4.2992Y-2.3071
X4.3622Y-3.065
X4.3675Y-2.1824
X4.3957Y-3.128
X4.4646Y-2.3583
X4.4685Y-3.3189
X4.4685Y-3.3839
X4.5254Y-4.6161
X4.5382Y-3.187
X4.5551Y-2.7618
X4.5634Y-2.1768
X4.6161Y-3.4213
X4.7295Y-2.6386
X4.7539Y-2.7343
X4.7579Y-3.498
X4.7783Y-3.3098
X4.7835Y-2.3917
X4.813Y-2.7067
X4.8228Y-2.435
X4.8484Y-2.9035
X4.8622Y-2.4783
X4.8728Y-3.3742
X4.8728Y-3.4463
X4.873Y-3.3022
X4.8736Y-3.5183
X4.9232Y-2.5492
X4.9248Y-3.5829
X4.9331Y-3.23
X4.939Y-3.3116
X4.9394Y-3.5102
X5.0093Y-3.2274
X5.0161Y-3.5919
X5.0308Y-2.9389
X5.0453Y-2.3376
X5.078Y-2.7051
X5.0827Y-2.8346
X5.0856Y-3.2274
X5.1024Y-3.602
X5.1449Y-3.6667
X5.1469Y-2.7051
X5.1535Y-3.747
X5.1535Y-3.8278
X5.1535Y-3.9085
X5.1535Y-3.9892
X5.1535Y-4.0699
X5.1535Y-4.1506
X5.1535Y-4.2313
X5.1535Y-4.312
X5.1618Y-3.2274
X5.1703Y-4.3688
X5.1981Y-3.5641
X5.2051Y-3.2829
X5.2092Y-4.4099
X5.2402Y-4.4644
X5.2461Y-2.3376
X5.2638Y-4.5423
X5.2907Y-4.5963
X5.321Y-4.4647
X5.325Y-4.6458
X5.3418Y-4.5241
X5.3459Y-4.4091
X5.3533Y-2.343
X5.3659Y-4.6901
X5.373Y-4.5787
X5.3792Y-4.3692
X5.3898Y-3.747
X5.3898Y-3.8278
X5.3898Y-3.9085
X5.3898Y-3.9892
X5.3898Y-4.0699
X5.3898Y-4.1506
X5.3898Y-4.2313
X5.3898Y-4.312
X5.398Y-3.6656
X5.4089Y-4.7325
X5.409Y-3.315
X5.4137Y-4.6267
X5.4518Y-4.7749
X5.4533Y-3.6094
X5.4555Y-5.062
X5.4585Y-4.6709
X5.4815Y-3.387
X5.4815Y-3.4591
X5.4817Y-3.315
X5.4823Y-3.5311
X5.4947Y-4.8173
X5.5033Y-4.7152
X5.5177Y-4.875
X5.5335Y-3.23
X5.5346Y-3.5904
X5.5398Y-3.5112
X5.5402Y-3.3093
X5.5482Y-4.7594
X5.5862Y-4.7974
X5.5866Y-5.1932
X5.6097Y-3.2274
X5.6243Y-4.7598
X5.6268Y-3.5906
X5.6555Y-4.875
X5.6688Y-4.716
X5.6835Y-4.8121
X5.686Y-3.2274
X5.7133Y-4.6723
X5.7177Y-5.0667
X5.7209Y-3.6028
X5.7318Y-4.7645
X5.7577Y-4.6285
X5.7622Y-3.2274
X5.7669Y-3.6656
X5.7756Y-3.7459
X5.7756Y-3.8254
X5.7756Y-3.9049
X5.7756Y-3.9844
X5.7756Y-4.064
X5.7756Y-4.1435
X5.7756Y-4.223
X5.7772Y-4.3026
X5.7802Y-4.7168
X5.7961Y-4.3577
X5.7969Y-2.4764
X5.798Y-3.5638
X5.7984Y-4.5812
X5.8055Y-3.2829
X5.8282Y-4.6689
X5.83Y-4.5275
X5.8303Y-4.3991
X5.8511Y-4.4689
X5.8704Y-4.6158
X5.9046Y-4.5534
X5.9343Y-4.4687
X5.9885Y-4.3994
X5.9984Y-2.7272
X6.0091Y-3.3152
X6.0248Y-4.1699
X6.0278Y-3.6426
X6.0433Y-3.1524
X6.0596Y-4.3598
X6.0909Y-3.3152
X6.0909Y-3.397
X6.0909Y-3.4789
X6.0909Y-3.5608
X6.0909Y-3.6427
X6.0909Y-3.7246
X6.0909Y-3.8065
X6.0909Y-3.8884
X6.0909Y-3.9703
X6.0909Y-4.0522
X6.0909Y-4.1341
X6.0909Y-4.2159
X6.0909Y-4.2978
X6.1624Y-4.1703
T4
X4.5793Y-3.1305
X4.6307Y-3.0732
X4.7051Y-3.048
X4.7559Y-2.9815
X5.6337Y-2.3094
X5.9014Y-2.2878
X5.9014Y-2.3793
X5.9516Y-2.3331
X6.0433Y-2.7882
X6.063Y-2.2264
X6.0638Y-2.4394
X6.1398Y-2.3327
T5
X4.9224Y-2.1681
X5.0224Y-2.1681
X5.1224Y-2.1681
X5.3406Y-2.7384
X5.3406Y-2.8384
X5.3406Y-2.9384
X5.3406Y-3.0384
X5.4406Y-2.7384
X5.4406Y-2.8384
X5.4406Y-2.9384
X5.4406Y-3.0384
X5.6043Y-2.7376
X5.6043Y-2.8376
X5.6043Y-2.9376
X5.6043Y-3.0376
X5.7043Y-2.7376
X5.7043Y-2.8376
X5.7043Y-2.9376
X5.7043Y-3.0376
T6
X3.5614Y-2.8813
X3.5614Y-2.9904
X3.5614Y-3.0994
X3.5614Y-3.2085
X3.5614Y-3.3175
X3.5614Y-3.4266
X3.5614Y-3.5356
X3.5614Y-3.6447
X3.5614Y-3.7537
X3.5614Y-3.8628
X3.5614Y-3.9719
X3.5614Y-4.0809
X3.5614Y-4.19
X3.5614Y-4.299
X3.5614Y-4.4081
X3.5614Y-4.5171
X3.5614Y-4.6262
X3.5614Y-4.7352
X3.6614Y-2.8268
X3.6614Y-2.9358
X3.6614Y-3.0449
X3.6614Y-3.1539
X3.6614Y-3.263
X3.6614Y-3.372
X3.6614Y-3.4811
X3.6614Y-3.5902
X3.6614Y-3.6992
X3.6614Y-3.8083
X3.6614Y-3.9173
X3.6614Y-4.0264
X3.6614Y-4.1354
X3.6614Y-4.2445
X3.6614Y-4.3535
X3.6614Y-4.4626
X3.6614Y-4.5717
X3.6614Y-4.6807
X3.6614Y-4.7898
T7
X5.4866Y-4.962
X5.4866Y-5.162
X5.5866Y-5.062
X5.6866Y-4.962
X5.6866Y-5.162
T8
X3.6114Y-2.5583
X3.6114Y-5.0583
T0
M30
