%TF.GenerationSoftware,KiCad,Pcbnew,(6.0.7)*%
%TF.CreationDate,2022-11-16T18:44:27-05:00*%
%TF.ProjectId,Telemetry_KiCAD_Project,54656c65-6d65-4747-9279-5f4b69434144,rev?*%
%TF.SameCoordinates,Original*%
%TF.FileFunction,Drillmap*%
%TF.FilePolarity,Positive*%
%FSLAX45Y45*%
G04 Gerber Fmt 4.5, Leading zero omitted, Abs format (unit mm)*
G04 Created by KiCad (PCBNEW (6.0.7)) date 2022-11-16 18:44:27*
%MOMM*%
%LPD*%
G01*
G04 APERTURE LIST*
%ADD10C,0.050000*%
%ADD11C,0.200000*%
%ADD12C,0.020000*%
%ADD13C,0.040000*%
%ADD14C,0.060000*%
%ADD15C,0.085000*%
%ADD16C,0.100000*%
%ADD17C,0.110000*%
%ADD18C,0.150000*%
%ADD19C,0.320000*%
G04 APERTURE END LIST*
D10*
X13095000Y-5200000D02*
G75*
G03*
X12895000Y-5000000I-200000J0D01*
G01*
X15000000Y-14360000D02*
G75*
G03*
X16000000Y-13360000I0J1000000D01*
G01*
X8000000Y-13360000D02*
G75*
G03*
X9000000Y-14360000I1000000J0D01*
G01*
X13095000Y-5200000D02*
G75*
G03*
X13295000Y-5400000I200000J0D01*
G01*
X16000000Y-6000000D02*
X16000000Y-13360000D01*
X16000000Y-6000000D02*
G75*
G03*
X15000000Y-5000000I-1000000J0D01*
G01*
X8000000Y-13360000D02*
X8000000Y-6000000D01*
X15000000Y-14360000D02*
X9000000Y-14360000D01*
X9000000Y-5000000D02*
G75*
G03*
X8000000Y-6000000I0J-1000000D01*
G01*
X13295000Y-5400000D02*
X14285000Y-5400000D01*
X14685000Y-5000000D02*
G75*
G03*
X14485000Y-5200000I0J-200000D01*
G01*
X14285000Y-5400000D02*
G75*
G03*
X14485000Y-5200000I0J200000D01*
G01*
X9000000Y-5000000D02*
X12895000Y-5000000D01*
X14685000Y-5000000D02*
X15000000Y-5000000D01*
X12118000Y-9680000D02*
G75*
G03*
X12118000Y-9680000I-800000J0D01*
G01*
D11*
D12*
X8511000Y-5690000D02*
X8531000Y-5710000D01*
X8531000Y-5690000D02*
X8511000Y-5710000D01*
X8511000Y-6170000D02*
X8531000Y-6190000D01*
X8531000Y-6170000D02*
X8511000Y-6190000D01*
X8511000Y-6650000D02*
X8531000Y-6670000D01*
X8531000Y-6650000D02*
X8511000Y-6670000D01*
X8511000Y-7130000D02*
X8531000Y-7150000D01*
X8531000Y-7130000D02*
X8511000Y-7150000D01*
X8511000Y-7610000D02*
X8531000Y-7630000D01*
X8531000Y-7610000D02*
X8511000Y-7630000D01*
X8511000Y-8090000D02*
X8531000Y-8110000D01*
X8531000Y-8090000D02*
X8511000Y-8110000D01*
X8511000Y-8570000D02*
X8531000Y-8590000D01*
X8531000Y-8570000D02*
X8511000Y-8590000D01*
X8511000Y-9050000D02*
X8531000Y-9070000D01*
X8531000Y-9050000D02*
X8511000Y-9070000D01*
X8511000Y-9530000D02*
X8531000Y-9550000D01*
X8531000Y-9530000D02*
X8511000Y-9550000D01*
X8511000Y-10010000D02*
X8531000Y-10030000D01*
X8531000Y-10010000D02*
X8511000Y-10030000D01*
X8511000Y-10490000D02*
X8531000Y-10510000D01*
X8531000Y-10490000D02*
X8511000Y-10510000D01*
X8511000Y-10970000D02*
X8531000Y-10990000D01*
X8531000Y-10970000D02*
X8511000Y-10990000D01*
X8511000Y-11450000D02*
X8531000Y-11470000D01*
X8531000Y-11450000D02*
X8511000Y-11470000D01*
X8511000Y-11930000D02*
X8531000Y-11950000D01*
X8531000Y-11930000D02*
X8511000Y-11950000D01*
X8511000Y-12410000D02*
X8531000Y-12430000D01*
X8531000Y-12410000D02*
X8511000Y-12430000D01*
X8511000Y-12890000D02*
X8531000Y-12910000D01*
X8531000Y-12890000D02*
X8511000Y-12910000D01*
X8752000Y-13370000D02*
X8772000Y-13390000D01*
X8772000Y-13370000D02*
X8752000Y-13390000D01*
X8753000Y-13850000D02*
X8773000Y-13870000D01*
X8773000Y-13850000D02*
X8753000Y-13870000D01*
X8992000Y-13610000D02*
X9012000Y-13630000D01*
X9012000Y-13610000D02*
X8992000Y-13630000D01*
X9232000Y-13370000D02*
X9252000Y-13390000D01*
X9252000Y-13370000D02*
X9232000Y-13390000D01*
X9233000Y-13850000D02*
X9253000Y-13870000D01*
X9253000Y-13850000D02*
X9233000Y-13870000D01*
X9461000Y-5704000D02*
X9481000Y-5724000D01*
X9481000Y-5704000D02*
X9461000Y-5724000D01*
X9472000Y-13610000D02*
X9492000Y-13630000D01*
X9492000Y-13610000D02*
X9472000Y-13630000D01*
X9532000Y-7204000D02*
X9552000Y-7224000D01*
X9552000Y-7204000D02*
X9532000Y-7224000D01*
X9590000Y-7940000D02*
X9610000Y-7960000D01*
X9610000Y-7940000D02*
X9590000Y-7960000D01*
X9595000Y-7128000D02*
X9615000Y-7148000D01*
X9615000Y-7128000D02*
X9595000Y-7148000D01*
X9595000Y-7335000D02*
X9615000Y-7355000D01*
X9615000Y-7335000D02*
X9595000Y-7355000D01*
X9600593Y-5884907D02*
X9620593Y-5904907D01*
X9620593Y-5884907D02*
X9600593Y-5904907D01*
X9665000Y-7521000D02*
X9685000Y-7541000D01*
X9685000Y-7521000D02*
X9665000Y-7541000D01*
X9711000Y-10970000D02*
X9731000Y-10990000D01*
X9731000Y-10970000D02*
X9711000Y-10990000D01*
X9711000Y-11450000D02*
X9731000Y-11470000D01*
X9731000Y-11450000D02*
X9711000Y-11470000D01*
X9711000Y-11930000D02*
X9731000Y-11950000D01*
X9731000Y-11930000D02*
X9711000Y-11950000D01*
X9711000Y-12410000D02*
X9731000Y-12430000D01*
X9731000Y-12410000D02*
X9711000Y-12430000D01*
X9711000Y-12890000D02*
X9731000Y-12910000D01*
X9731000Y-12890000D02*
X9711000Y-12910000D01*
X9712000Y-13370000D02*
X9732000Y-13390000D01*
X9732000Y-13370000D02*
X9712000Y-13390000D01*
X9713000Y-13850000D02*
X9733000Y-13870000D01*
X9733000Y-13850000D02*
X9713000Y-13870000D01*
X9718093Y-5767407D02*
X9738093Y-5787407D01*
X9738093Y-5767407D02*
X9718093Y-5787407D01*
X9739000Y-5520000D02*
X9759000Y-5540000D01*
X9759000Y-5520000D02*
X9739000Y-5540000D01*
X9781000Y-7080000D02*
X9801000Y-7100000D01*
X9801000Y-7080000D02*
X9781000Y-7100000D01*
X9951000Y-11210000D02*
X9971000Y-11230000D01*
X9971000Y-11210000D02*
X9951000Y-11230000D01*
X9951000Y-11690000D02*
X9971000Y-11710000D01*
X9971000Y-11690000D02*
X9951000Y-11710000D01*
X9951000Y-12170000D02*
X9971000Y-12190000D01*
X9971000Y-12170000D02*
X9951000Y-12190000D01*
X9951000Y-12650000D02*
X9971000Y-12670000D01*
X9971000Y-12650000D02*
X9951000Y-12670000D01*
X9951000Y-13130000D02*
X9971000Y-13150000D01*
X9971000Y-13130000D02*
X9951000Y-13150000D01*
X9952000Y-13610000D02*
X9972000Y-13630000D01*
X9972000Y-13610000D02*
X9952000Y-13630000D01*
X9970000Y-7564000D02*
X9990000Y-7584000D01*
X9990000Y-7564000D02*
X9970000Y-7584000D01*
X10013685Y-9070500D02*
X10033685Y-9090500D01*
X10033685Y-9070500D02*
X10013685Y-9090500D01*
X10103000Y-7909000D02*
X10123000Y-7929000D01*
X10123000Y-7909000D02*
X10103000Y-7929000D01*
X10191000Y-10970000D02*
X10211000Y-10990000D01*
X10211000Y-10970000D02*
X10191000Y-10990000D01*
X10191000Y-11450000D02*
X10211000Y-11470000D01*
X10211000Y-11450000D02*
X10191000Y-11470000D01*
X10191000Y-11930000D02*
X10211000Y-11950000D01*
X10211000Y-11930000D02*
X10191000Y-11950000D01*
X10191000Y-12410000D02*
X10211000Y-12430000D01*
X10211000Y-12410000D02*
X10191000Y-12430000D01*
X10191000Y-12890000D02*
X10211000Y-12910000D01*
X10211000Y-12890000D02*
X10191000Y-12910000D01*
X10191000Y-13370000D02*
X10211000Y-13390000D01*
X10211000Y-13370000D02*
X10191000Y-13390000D01*
X10192000Y-13850000D02*
X10212000Y-13870000D01*
X10212000Y-13850000D02*
X10192000Y-13870000D01*
X10242102Y-9070312D02*
X10262102Y-9090312D01*
X10262102Y-9070312D02*
X10242102Y-9090312D01*
X10344486Y-8939410D02*
X10364486Y-8959410D01*
X10364486Y-8939410D02*
X10344486Y-8959410D01*
X10431000Y-11210000D02*
X10451000Y-11230000D01*
X10451000Y-11210000D02*
X10431000Y-11230000D01*
X10431000Y-11690000D02*
X10451000Y-11710000D01*
X10451000Y-11690000D02*
X10431000Y-11710000D01*
X10431000Y-12170000D02*
X10451000Y-12190000D01*
X10451000Y-12170000D02*
X10431000Y-12190000D01*
X10431000Y-12650000D02*
X10451000Y-12670000D01*
X10451000Y-12650000D02*
X10431000Y-12670000D01*
X10431000Y-13130000D02*
X10451000Y-13150000D01*
X10451000Y-13130000D02*
X10431000Y-13150000D01*
X10431000Y-13610000D02*
X10451000Y-13630000D01*
X10451000Y-13610000D02*
X10431000Y-13630000D01*
X10438000Y-8827000D02*
X10458000Y-8847000D01*
X10458000Y-8827000D02*
X10438000Y-8847000D01*
X10578000Y-6957000D02*
X10598000Y-6977000D01*
X10598000Y-6957000D02*
X10578000Y-6977000D01*
X10671000Y-10970000D02*
X10691000Y-10990000D01*
X10691000Y-10970000D02*
X10671000Y-10990000D01*
X10671000Y-11450000D02*
X10691000Y-11470000D01*
X10691000Y-11450000D02*
X10671000Y-11470000D01*
X10671000Y-11930000D02*
X10691000Y-11950000D01*
X10691000Y-11930000D02*
X10671000Y-11950000D01*
X10671000Y-12410000D02*
X10691000Y-12430000D01*
X10691000Y-12410000D02*
X10671000Y-12430000D01*
X10671000Y-12890000D02*
X10691000Y-12910000D01*
X10691000Y-12890000D02*
X10671000Y-12910000D01*
X10671000Y-13370000D02*
X10691000Y-13390000D01*
X10691000Y-13370000D02*
X10671000Y-13390000D01*
X10672000Y-13850000D02*
X10692000Y-13870000D01*
X10692000Y-13850000D02*
X10672000Y-13870000D01*
X10772000Y-7174000D02*
X10792000Y-7194000D01*
X10792000Y-7174000D02*
X10772000Y-7194000D01*
X10802000Y-6755000D02*
X10822000Y-6775000D01*
X10822000Y-6755000D02*
X10802000Y-6775000D01*
X10911000Y-10730000D02*
X10931000Y-10750000D01*
X10931000Y-10730000D02*
X10911000Y-10750000D01*
X10911000Y-11210000D02*
X10931000Y-11230000D01*
X10931000Y-11210000D02*
X10911000Y-11230000D01*
X10911000Y-11690000D02*
X10931000Y-11710000D01*
X10931000Y-11690000D02*
X10911000Y-11710000D01*
X10911000Y-12170000D02*
X10931000Y-12190000D01*
X10931000Y-12170000D02*
X10911000Y-12190000D01*
X10911000Y-12650000D02*
X10931000Y-12670000D01*
X10931000Y-12650000D02*
X10911000Y-12670000D01*
X10911000Y-13130000D02*
X10931000Y-13150000D01*
X10931000Y-13130000D02*
X10911000Y-13150000D01*
X10911000Y-13610000D02*
X10931000Y-13630000D01*
X10931000Y-13610000D02*
X10911000Y-13630000D01*
X11009293Y-7007618D02*
X11029293Y-7027618D01*
X11029293Y-7007618D02*
X11009293Y-7027618D01*
X11046000Y-6508000D02*
X11066000Y-6528000D01*
X11066000Y-6508000D02*
X11046000Y-6528000D01*
X11151000Y-10970000D02*
X11171000Y-10990000D01*
X11171000Y-10970000D02*
X11151000Y-10990000D01*
X11151000Y-11450000D02*
X11171000Y-11470000D01*
X11171000Y-11450000D02*
X11151000Y-11470000D01*
X11151000Y-11930000D02*
X11171000Y-11950000D01*
X11171000Y-11930000D02*
X11151000Y-11950000D01*
X11151000Y-12410000D02*
X11171000Y-12430000D01*
X11171000Y-12410000D02*
X11151000Y-12430000D01*
X11151000Y-12890000D02*
X11171000Y-12910000D01*
X11171000Y-12890000D02*
X11151000Y-12910000D01*
X11151000Y-13370000D02*
X11171000Y-13390000D01*
X11171000Y-13370000D02*
X11151000Y-13390000D01*
X11152000Y-13850000D02*
X11172000Y-13870000D01*
X11172000Y-13850000D02*
X11152000Y-13870000D01*
X11170000Y-7267500D02*
X11190000Y-7287500D01*
X11190000Y-7267500D02*
X11170000Y-7287500D01*
X11250707Y-6768207D02*
X11270707Y-6788207D01*
X11270707Y-6768207D02*
X11250707Y-6788207D01*
X11287414Y-6268589D02*
X11307414Y-6288589D01*
X11307414Y-6268589D02*
X11287414Y-6288589D01*
X11304000Y-8020000D02*
X11324000Y-8040000D01*
X11324000Y-8020000D02*
X11304000Y-8040000D01*
X11348704Y-7007618D02*
X11368704Y-7027618D01*
X11368704Y-7007618D02*
X11348704Y-7027618D01*
X11391000Y-11210000D02*
X11411000Y-11230000D01*
X11411000Y-11210000D02*
X11391000Y-11230000D01*
X11391000Y-11690000D02*
X11411000Y-11710000D01*
X11411000Y-11690000D02*
X11391000Y-11710000D01*
X11391000Y-12170000D02*
X11411000Y-12190000D01*
X11411000Y-12170000D02*
X11391000Y-12190000D01*
X11391000Y-12650000D02*
X11411000Y-12670000D01*
X11411000Y-12650000D02*
X11391000Y-12670000D01*
X11391000Y-13130000D02*
X11411000Y-13150000D01*
X11411000Y-13130000D02*
X11391000Y-13150000D01*
X11391000Y-13610000D02*
X11411000Y-13630000D01*
X11411000Y-13610000D02*
X11391000Y-13630000D01*
X11391000Y-10731000D02*
X11411000Y-10751000D01*
X11411000Y-10731000D02*
X11391000Y-10751000D01*
X11494707Y-6521207D02*
X11514707Y-6541207D01*
X11514707Y-6521207D02*
X11494707Y-6541207D01*
X11590118Y-6768207D02*
X11610118Y-6788207D01*
X11610118Y-6768207D02*
X11590118Y-6788207D01*
X11610000Y-7498500D02*
X11630000Y-7518500D01*
X11630000Y-7498500D02*
X11610000Y-7518500D01*
X11631000Y-10970000D02*
X11651000Y-10990000D01*
X11651000Y-10970000D02*
X11631000Y-10990000D01*
X11631000Y-11450000D02*
X11651000Y-11470000D01*
X11651000Y-11450000D02*
X11631000Y-11470000D01*
X11631000Y-11930000D02*
X11651000Y-11950000D01*
X11651000Y-11930000D02*
X11631000Y-11950000D01*
X11631000Y-12410000D02*
X11651000Y-12430000D01*
X11651000Y-12410000D02*
X11631000Y-12430000D01*
X11631000Y-12890000D02*
X11651000Y-12910000D01*
X11651000Y-12890000D02*
X11631000Y-12910000D01*
X11631000Y-13370000D02*
X11651000Y-13390000D01*
X11651000Y-13370000D02*
X11631000Y-13390000D01*
X11632000Y-13850000D02*
X11652000Y-13870000D01*
X11652000Y-13850000D02*
X11632000Y-13870000D01*
X11780000Y-6907500D02*
X11800000Y-6927500D01*
X11800000Y-6907500D02*
X11780000Y-6927500D01*
X11816000Y-7144000D02*
X11836000Y-7164000D01*
X11836000Y-7144000D02*
X11816000Y-7164000D01*
X11860000Y-6707500D02*
X11880000Y-6727500D01*
X11880000Y-6707500D02*
X11860000Y-6727500D01*
X11871000Y-11210000D02*
X11891000Y-11230000D01*
X11891000Y-11210000D02*
X11871000Y-11230000D01*
X11871000Y-11690000D02*
X11891000Y-11710000D01*
X11891000Y-11690000D02*
X11871000Y-11710000D01*
X11871000Y-12170000D02*
X11891000Y-12190000D01*
X11891000Y-12170000D02*
X11871000Y-12190000D01*
X11871000Y-12650000D02*
X11891000Y-12670000D01*
X11891000Y-12650000D02*
X11871000Y-12670000D01*
X11871000Y-13130000D02*
X11891000Y-13150000D01*
X11891000Y-13130000D02*
X11871000Y-13150000D01*
X11871000Y-13610000D02*
X11891000Y-13630000D01*
X11891000Y-13610000D02*
X11871000Y-13630000D01*
X11871000Y-10731000D02*
X11891000Y-10751000D01*
X11891000Y-10731000D02*
X11871000Y-10751000D01*
X11940000Y-6597500D02*
X11960000Y-6617500D01*
X11960000Y-6597500D02*
X11940000Y-6617500D01*
X12110000Y-10490000D02*
X12130000Y-10510000D01*
X12130000Y-10490000D02*
X12110000Y-10510000D01*
X12111000Y-10970000D02*
X12131000Y-10990000D01*
X12131000Y-10970000D02*
X12111000Y-10990000D01*
X12111000Y-11450000D02*
X12131000Y-11470000D01*
X12131000Y-11450000D02*
X12111000Y-11470000D01*
X12111000Y-11930000D02*
X12131000Y-11950000D01*
X12131000Y-11930000D02*
X12111000Y-11950000D01*
X12111000Y-12410000D02*
X12131000Y-12430000D01*
X12131000Y-12410000D02*
X12111000Y-12430000D01*
X12111000Y-12890000D02*
X12131000Y-12910000D01*
X12131000Y-12890000D02*
X12111000Y-12910000D01*
X12111000Y-13370000D02*
X12131000Y-13390000D01*
X12131000Y-13370000D02*
X12111000Y-13390000D01*
X12112000Y-13850000D02*
X12132000Y-13870000D01*
X12132000Y-13850000D02*
X12112000Y-13870000D01*
X12317000Y-7341000D02*
X12337000Y-7361000D01*
X12337000Y-7341000D02*
X12317000Y-7361000D01*
X12343000Y-5347000D02*
X12363000Y-5367000D01*
X12363000Y-5347000D02*
X12343000Y-5367000D01*
X12348000Y-9387000D02*
X12368000Y-9407000D01*
X12368000Y-9387000D02*
X12348000Y-9407000D01*
X12350000Y-9769000D02*
X12370000Y-9789000D01*
X12370000Y-9769000D02*
X12350000Y-9789000D01*
X12350000Y-10249000D02*
X12370000Y-10269000D01*
X12370000Y-10249000D02*
X12350000Y-10269000D01*
X12351000Y-10730000D02*
X12371000Y-10750000D01*
X12371000Y-10730000D02*
X12351000Y-10750000D01*
X12351000Y-11210000D02*
X12371000Y-11230000D01*
X12371000Y-11210000D02*
X12351000Y-11230000D01*
X12351000Y-11690000D02*
X12371000Y-11710000D01*
X12371000Y-11690000D02*
X12351000Y-11710000D01*
X12351000Y-12170000D02*
X12371000Y-12190000D01*
X12371000Y-12170000D02*
X12351000Y-12190000D01*
X12351000Y-12650000D02*
X12371000Y-12670000D01*
X12371000Y-12650000D02*
X12351000Y-12670000D01*
X12351000Y-13130000D02*
X12371000Y-13150000D01*
X12371000Y-13130000D02*
X12351000Y-13150000D01*
X12351000Y-13610000D02*
X12371000Y-13630000D01*
X12371000Y-13610000D02*
X12351000Y-13630000D01*
X12402500Y-6972500D02*
X12422500Y-6992500D01*
X12422500Y-6972500D02*
X12402500Y-6992500D01*
X12458000Y-6493000D02*
X12478000Y-6513000D01*
X12478000Y-6493000D02*
X12458000Y-6513000D01*
X12535000Y-8401500D02*
X12555000Y-8421500D01*
X12555000Y-8401500D02*
X12535000Y-8421500D01*
X12536000Y-8906000D02*
X12556000Y-8926000D01*
X12556000Y-8906000D02*
X12536000Y-8926000D01*
X12588000Y-9627000D02*
X12608000Y-9647000D01*
X12608000Y-9627000D02*
X12588000Y-9647000D01*
X12590000Y-10009000D02*
X12610000Y-10029000D01*
X12610000Y-10009000D02*
X12590000Y-10029000D01*
X12590000Y-10489000D02*
X12610000Y-10509000D01*
X12610000Y-10489000D02*
X12590000Y-10509000D01*
X12591000Y-10970000D02*
X12611000Y-10990000D01*
X12611000Y-10970000D02*
X12591000Y-10990000D01*
X12591000Y-11450000D02*
X12611000Y-11470000D01*
X12611000Y-11450000D02*
X12591000Y-11470000D01*
X12591000Y-11930000D02*
X12611000Y-11950000D01*
X12611000Y-11930000D02*
X12591000Y-11950000D01*
X12591000Y-12410000D02*
X12611000Y-12430000D01*
X12611000Y-12410000D02*
X12591000Y-12430000D01*
X12591000Y-12890000D02*
X12611000Y-12910000D01*
X12611000Y-12890000D02*
X12591000Y-12910000D01*
X12591000Y-13370000D02*
X12611000Y-13390000D01*
X12611000Y-13370000D02*
X12591000Y-13390000D01*
X12592000Y-13850000D02*
X12612000Y-13870000D01*
X12612000Y-13850000D02*
X12592000Y-13870000D01*
X12792218Y-6252500D02*
X12812218Y-6272500D01*
X12812218Y-6252500D02*
X12792218Y-6272500D01*
X12828000Y-9387000D02*
X12848000Y-9407000D01*
X12848000Y-9387000D02*
X12828000Y-9407000D01*
X12830000Y-9769000D02*
X12850000Y-9789000D01*
X12850000Y-9769000D02*
X12830000Y-9789000D01*
X12830000Y-10249000D02*
X12850000Y-10269000D01*
X12850000Y-10249000D02*
X12830000Y-10269000D01*
X12830000Y-10729000D02*
X12850000Y-10749000D01*
X12850000Y-10729000D02*
X12830000Y-10749000D01*
X12831000Y-11690000D02*
X12851000Y-11710000D01*
X12851000Y-11690000D02*
X12831000Y-11710000D01*
X12831000Y-12170000D02*
X12851000Y-12190000D01*
X12851000Y-12170000D02*
X12831000Y-12190000D01*
X12831000Y-12650000D02*
X12851000Y-12670000D01*
X12851000Y-12650000D02*
X12831000Y-12670000D01*
X12831000Y-13130000D02*
X12851000Y-13150000D01*
X12851000Y-13130000D02*
X12831000Y-13150000D01*
X12831000Y-13610000D02*
X12851000Y-13630000D01*
X12851000Y-13610000D02*
X12831000Y-13630000D01*
X12831000Y-11210000D02*
X12851000Y-11230000D01*
X12851000Y-11210000D02*
X12831000Y-11230000D01*
X12847000Y-7584000D02*
X12867000Y-7604000D01*
X12867000Y-7584000D02*
X12847000Y-7604000D01*
X12850000Y-6682500D02*
X12870000Y-6702500D01*
X12870000Y-6682500D02*
X12850000Y-6702500D01*
X12883000Y-5337000D02*
X12903000Y-5357000D01*
X12903000Y-5337000D02*
X12883000Y-5357000D01*
X12895000Y-6602500D02*
X12915000Y-6622500D01*
X12915000Y-6602500D02*
X12895000Y-6622500D01*
X12940000Y-6522500D02*
X12960000Y-6542500D01*
X12960000Y-6522500D02*
X12940000Y-6542500D01*
X12985000Y-6437500D02*
X13005000Y-6457500D01*
X13005000Y-6437500D02*
X12985000Y-6457500D01*
X12988815Y-6782500D02*
X13008815Y-6802500D01*
X13008815Y-6782500D02*
X12988815Y-6802500D01*
X12995653Y-6252500D02*
X13015653Y-6272500D01*
X13015653Y-6252500D02*
X12995653Y-6272500D01*
X13030000Y-6352500D02*
X13050000Y-6372500D01*
X13050000Y-6352500D02*
X13030000Y-6372500D01*
X13071000Y-11930000D02*
X13091000Y-11950000D01*
X13091000Y-11930000D02*
X13071000Y-11950000D01*
X13071000Y-12410000D02*
X13091000Y-12430000D01*
X13091000Y-12410000D02*
X13071000Y-12430000D01*
X13071000Y-12890000D02*
X13091000Y-12910000D01*
X13091000Y-12890000D02*
X13071000Y-12910000D01*
X13071000Y-13370000D02*
X13091000Y-13390000D01*
X13091000Y-13370000D02*
X13071000Y-13390000D01*
X13071000Y-11450000D02*
X13091000Y-11470000D01*
X13091000Y-11450000D02*
X13071000Y-11470000D01*
X13072000Y-13850000D02*
X13092000Y-13870000D01*
X13092000Y-13850000D02*
X13072000Y-13870000D01*
X13088000Y-6764950D02*
X13108000Y-6784950D01*
X13108000Y-6764950D02*
X13088000Y-6784950D01*
X13090000Y-7647500D02*
X13110000Y-7667500D01*
X13110000Y-7647500D02*
X13090000Y-7667500D01*
X13122000Y-8023000D02*
X13142000Y-8043000D01*
X13142000Y-8023000D02*
X13122000Y-8043000D01*
X13122500Y-7805000D02*
X13142500Y-7825000D01*
X13142500Y-7805000D02*
X13122500Y-7825000D01*
X13167000Y-7943000D02*
X13187000Y-7963000D01*
X13187000Y-7943000D02*
X13167000Y-7963000D01*
X13210000Y-8922500D02*
X13230000Y-8942500D01*
X13230000Y-8922500D02*
X13210000Y-8942500D01*
X13212000Y-7858000D02*
X13232000Y-7878000D01*
X13232000Y-7858000D02*
X13212000Y-7878000D01*
X13262500Y-7700000D02*
X13282500Y-7720000D01*
X13282500Y-7700000D02*
X13262500Y-7720000D01*
X13304063Y-7036483D02*
X13324063Y-7056483D01*
X13324063Y-7036483D02*
X13304063Y-7056483D01*
X13304063Y-7238700D02*
X13324063Y-7258700D01*
X13324063Y-7238700D02*
X13304063Y-7258700D01*
X13311000Y-12170000D02*
X13331000Y-12190000D01*
X13331000Y-12170000D02*
X13311000Y-12190000D01*
X13311000Y-12650000D02*
X13331000Y-12670000D01*
X13331000Y-12650000D02*
X13311000Y-12670000D01*
X13311000Y-13130000D02*
X13331000Y-13150000D01*
X13331000Y-13130000D02*
X13311000Y-13150000D01*
X13311000Y-13610000D02*
X13331000Y-13630000D01*
X13331000Y-13610000D02*
X13311000Y-13630000D01*
X13312000Y-7858000D02*
X13332000Y-7878000D01*
X13332000Y-7858000D02*
X13312000Y-7878000D01*
X13362000Y-7943000D02*
X13382000Y-7963000D01*
X13382000Y-7943000D02*
X13362000Y-7963000D01*
X13362522Y-6252500D02*
X13382522Y-6272500D01*
X13382522Y-6252500D02*
X13362522Y-6272500D01*
X13397967Y-6782500D02*
X13417967Y-6802500D01*
X13417967Y-6782500D02*
X13397967Y-6802500D01*
X13412000Y-8023000D02*
X13432000Y-8043000D01*
X13432000Y-8023000D02*
X13412000Y-8043000D01*
X13551000Y-12410000D02*
X13571000Y-12430000D01*
X13571000Y-12410000D02*
X13551000Y-12430000D01*
X13551000Y-12890000D02*
X13571000Y-12910000D01*
X13571000Y-12890000D02*
X13551000Y-12910000D01*
X13551000Y-13370000D02*
X13571000Y-13390000D01*
X13571000Y-13370000D02*
X13551000Y-13390000D01*
X13552000Y-13850000D02*
X13572000Y-13870000D01*
X13572000Y-13850000D02*
X13552000Y-13870000D01*
X13565957Y-6252500D02*
X13585957Y-6272500D01*
X13585957Y-6252500D02*
X13565957Y-6272500D01*
X13600000Y-8897500D02*
X13620000Y-8917500D01*
X13620000Y-8897500D02*
X13600000Y-8917500D01*
X13602543Y-6782500D02*
X13622543Y-6802500D01*
X13622543Y-6782500D02*
X13602543Y-6802500D01*
X13630000Y-8567500D02*
X13650000Y-8587500D01*
X13650000Y-8567500D02*
X13630000Y-8587500D01*
X13769392Y-6252500D02*
X13789392Y-6272500D01*
X13789392Y-6252500D02*
X13769392Y-6272500D01*
X13791000Y-13610000D02*
X13811000Y-13630000D01*
X13811000Y-13610000D02*
X13791000Y-13630000D01*
X13807119Y-6782500D02*
X13827119Y-6802500D01*
X13827119Y-6782500D02*
X13807119Y-6802500D01*
X13860000Y-7907500D02*
X13880000Y-7927500D01*
X13880000Y-7907500D02*
X13860000Y-7927500D01*
X13972826Y-6252500D02*
X13992826Y-6272500D01*
X13992826Y-6252500D02*
X13972826Y-6272500D01*
X14011695Y-6782500D02*
X14031695Y-6802500D01*
X14031695Y-6782500D02*
X14011695Y-6802500D01*
X14031000Y-9530000D02*
X14051000Y-9550000D01*
X14051000Y-9530000D02*
X14031000Y-9550000D01*
X14031000Y-10010000D02*
X14051000Y-10030000D01*
X14051000Y-10010000D02*
X14031000Y-10030000D01*
X14031000Y-10490000D02*
X14051000Y-10510000D01*
X14051000Y-10490000D02*
X14031000Y-10510000D01*
X14031000Y-10970000D02*
X14051000Y-10990000D01*
X14051000Y-10970000D02*
X14031000Y-10990000D01*
X14031000Y-11450000D02*
X14051000Y-11470000D01*
X14051000Y-11450000D02*
X14031000Y-11470000D01*
X14032000Y-13850000D02*
X14052000Y-13870000D01*
X14052000Y-13850000D02*
X14032000Y-13870000D01*
X14061000Y-8908500D02*
X14081000Y-8928500D01*
X14081000Y-8908500D02*
X14061000Y-8928500D01*
X14062000Y-8395500D02*
X14082000Y-8415500D01*
X14082000Y-8395500D02*
X14062000Y-8415500D01*
X14216272Y-6782500D02*
X14236272Y-6802500D01*
X14236272Y-6782500D02*
X14216272Y-6802500D01*
X14271000Y-9770000D02*
X14291000Y-9790000D01*
X14291000Y-9770000D02*
X14271000Y-9790000D01*
X14271000Y-10250000D02*
X14291000Y-10270000D01*
X14291000Y-10250000D02*
X14271000Y-10270000D01*
X14271000Y-10730000D02*
X14291000Y-10750000D01*
X14291000Y-10730000D02*
X14271000Y-10750000D01*
X14271000Y-11210000D02*
X14291000Y-11230000D01*
X14291000Y-11210000D02*
X14271000Y-11230000D01*
X14271000Y-13610000D02*
X14291000Y-13630000D01*
X14291000Y-13610000D02*
X14271000Y-13630000D01*
X14420848Y-6782500D02*
X14440848Y-6802500D01*
X14440848Y-6782500D02*
X14420848Y-6802500D01*
X14512000Y-13850000D02*
X14532000Y-13870000D01*
X14532000Y-13850000D02*
X14512000Y-13870000D01*
X14540000Y-7984643D02*
X14560000Y-8004643D01*
X14560000Y-7984643D02*
X14540000Y-8004643D01*
X14625424Y-6782500D02*
X14645424Y-6802500D01*
X14645424Y-6782500D02*
X14625424Y-6802500D01*
X14730000Y-7638928D02*
X14750000Y-7658928D01*
X14750000Y-7638928D02*
X14730000Y-7658928D01*
X14735000Y-8917500D02*
X14755000Y-8937500D01*
X14755000Y-8917500D02*
X14735000Y-8937500D01*
X14740000Y-6920357D02*
X14760000Y-6940357D01*
X14760000Y-6920357D02*
X14740000Y-6940357D01*
X14740000Y-7148214D02*
X14760000Y-7168214D01*
X14760000Y-7148214D02*
X14740000Y-7168214D01*
X14740000Y-7376071D02*
X14760000Y-7396071D01*
X14760000Y-7376071D02*
X14740000Y-7396071D01*
X14740000Y-7831786D02*
X14760000Y-7851786D01*
X14760000Y-7831786D02*
X14740000Y-7851786D01*
X14740000Y-8059643D02*
X14760000Y-8079643D01*
X14760000Y-8059643D02*
X14740000Y-8079643D01*
X14751000Y-12170000D02*
X14771000Y-12190000D01*
X14771000Y-12170000D02*
X14751000Y-12190000D01*
X14751000Y-12650000D02*
X14771000Y-12670000D01*
X14771000Y-12650000D02*
X14751000Y-12670000D01*
X14751000Y-13130000D02*
X14771000Y-13150000D01*
X14771000Y-13130000D02*
X14751000Y-13150000D01*
X14751000Y-13610000D02*
X14771000Y-13630000D01*
X14771000Y-13610000D02*
X14751000Y-13630000D01*
X14830000Y-6682500D02*
X14850000Y-6702500D01*
X14850000Y-6682500D02*
X14830000Y-6702500D01*
X14830000Y-7907500D02*
X14850000Y-7927500D01*
X14850000Y-7907500D02*
X14830000Y-7927500D01*
X14875000Y-6437500D02*
X14895000Y-6457500D01*
X14895000Y-6437500D02*
X14875000Y-6457500D01*
X14925000Y-6522500D02*
X14945000Y-6542500D01*
X14945000Y-6522500D02*
X14925000Y-6542500D01*
X14975000Y-6602500D02*
X14995000Y-6622500D01*
X14995000Y-6602500D02*
X14975000Y-6622500D01*
X14990000Y-11930000D02*
X15010000Y-11950000D01*
X15010000Y-11930000D02*
X14990000Y-11950000D01*
X14991000Y-12410000D02*
X15011000Y-12430000D01*
X15011000Y-12410000D02*
X14991000Y-12430000D01*
X14991000Y-12890000D02*
X15011000Y-12910000D01*
X15011000Y-12890000D02*
X14991000Y-12910000D01*
X14991000Y-13370000D02*
X15011000Y-13390000D01*
X15011000Y-13370000D02*
X14991000Y-13390000D01*
X14992000Y-13850000D02*
X15012000Y-13870000D01*
X15012000Y-13850000D02*
X14992000Y-13870000D01*
X15030000Y-6352500D02*
X15050000Y-6372500D01*
X15050000Y-6352500D02*
X15030000Y-6372500D01*
X15100000Y-7639071D02*
X15120000Y-7659071D01*
X15120000Y-7639071D02*
X15100000Y-7659071D01*
X15100000Y-7831929D02*
X15120000Y-7851929D01*
X15120000Y-7831929D02*
X15100000Y-7851929D01*
X15100000Y-8059643D02*
X15120000Y-8079643D01*
X15120000Y-8059643D02*
X15100000Y-8079643D01*
X15110000Y-6920500D02*
X15130000Y-6940500D01*
X15130000Y-6920500D02*
X15110000Y-6940500D01*
X15110000Y-7148357D02*
X15130000Y-7168357D01*
X15130000Y-7148357D02*
X15110000Y-7168357D01*
X15110000Y-7376214D02*
X15130000Y-7396214D01*
X15130000Y-7376214D02*
X15110000Y-7396214D01*
X15118000Y-8288000D02*
X15138000Y-8308000D01*
X15138000Y-8288000D02*
X15118000Y-8308000D01*
X15120000Y-8917500D02*
X15140000Y-8937500D01*
X15140000Y-8917500D02*
X15120000Y-8937500D01*
X15153000Y-6438000D02*
X15173000Y-6458000D01*
X15173000Y-6438000D02*
X15153000Y-6458000D01*
X15160000Y-8567500D02*
X15180000Y-8587500D01*
X15180000Y-8567500D02*
X15160000Y-8587500D01*
X15228000Y-11689000D02*
X15248000Y-11709000D01*
X15248000Y-11689000D02*
X15228000Y-11709000D01*
X15230000Y-12170000D02*
X15250000Y-12190000D01*
X15250000Y-12170000D02*
X15230000Y-12190000D01*
X15231000Y-12650000D02*
X15251000Y-12670000D01*
X15251000Y-12650000D02*
X15231000Y-12670000D01*
X15231000Y-13130000D02*
X15251000Y-13150000D01*
X15251000Y-13130000D02*
X15231000Y-13150000D01*
X15231000Y-13610000D02*
X15251000Y-13630000D01*
X15251000Y-13610000D02*
X15231000Y-13630000D01*
X15280000Y-6547500D02*
X15300000Y-6567500D01*
X15300000Y-6547500D02*
X15280000Y-6567500D01*
X15280000Y-6775357D02*
X15300000Y-6795357D01*
X15300000Y-6775357D02*
X15280000Y-6795357D01*
X15470000Y-11930000D02*
X15490000Y-11950000D01*
X15490000Y-11930000D02*
X15470000Y-11950000D01*
X15470000Y-12410000D02*
X15490000Y-12430000D01*
X15490000Y-12410000D02*
X15470000Y-12430000D01*
X15471000Y-12890000D02*
X15491000Y-12910000D01*
X15491000Y-12890000D02*
X15471000Y-12910000D01*
X15471000Y-13370000D02*
X15491000Y-13390000D01*
X15491000Y-13370000D02*
X15471000Y-13390000D01*
X13320000Y-8632500D02*
G75*
G03*
X13320000Y-8632500I-10000J0D01*
G01*
X13320000Y-8842500D02*
G75*
G03*
X13320000Y-8842500I-10000J0D01*
G01*
X13530000Y-8632500D02*
G75*
G03*
X13530000Y-8632500I-10000J0D01*
G01*
X13530000Y-8842500D02*
G75*
G03*
X13530000Y-8842500I-10000J0D01*
G01*
X14845000Y-8632500D02*
G75*
G03*
X14845000Y-8632500I-10000J0D01*
G01*
X14845000Y-8842500D02*
G75*
G03*
X14845000Y-8842500I-10000J0D01*
G01*
X15055000Y-8632500D02*
G75*
G03*
X15055000Y-8632500I-10000J0D01*
G01*
X15055000Y-8842500D02*
G75*
G03*
X15055000Y-8842500I-10000J0D01*
G01*
D13*
X9534696Y-7574000D02*
X9534696Y-7614000D01*
X9514696Y-7594000D02*
X9554696Y-7594000D01*
X9534696Y-7715000D02*
X9534696Y-7755000D01*
X9514696Y-7735000D02*
X9554696Y-7735000D01*
X9674646Y-7753359D02*
X9674646Y-7793359D01*
X9654646Y-7773359D02*
X9694646Y-7773359D01*
X10116000Y-7672000D02*
X10116000Y-7712000D01*
X10096000Y-7692000D02*
X10136000Y-7692000D01*
X10565000Y-8901000D02*
X10565000Y-8941000D01*
X10545000Y-8921000D02*
X10585000Y-8921000D01*
X11077000Y-8070000D02*
X11077000Y-8110000D01*
X11057000Y-8090000D02*
X11097000Y-8090000D01*
X11527000Y-8075000D02*
X11527000Y-8115000D01*
X11507000Y-8095000D02*
X11547000Y-8095000D01*
X11836000Y-8800000D02*
X11836000Y-8840000D01*
X11816000Y-8820000D02*
X11856000Y-8820000D01*
X12377000Y-8550500D02*
X12377000Y-8590500D01*
X12357000Y-8570500D02*
X12397000Y-8570500D01*
X12377000Y-8733500D02*
X12377000Y-8773500D01*
X12357000Y-8753500D02*
X12397000Y-8753500D01*
X12377500Y-8367500D02*
X12377500Y-8407500D01*
X12357500Y-8387500D02*
X12397500Y-8387500D01*
X12379000Y-8916500D02*
X12379000Y-8956500D01*
X12359000Y-8936500D02*
X12399000Y-8936500D01*
X12509000Y-9080500D02*
X12509000Y-9120500D01*
X12489000Y-9100500D02*
X12529000Y-9100500D01*
X12530012Y-8184081D02*
X12530012Y-8224081D01*
X12510012Y-8204081D02*
X12550012Y-8204081D01*
X12541847Y-6309847D02*
X12541847Y-6349847D01*
X12521847Y-6329847D02*
X12561847Y-6329847D01*
X12723675Y-8177500D02*
X12723675Y-8217500D01*
X12703675Y-8197500D02*
X12743675Y-8197500D01*
X12741000Y-9103500D02*
X12741000Y-9143500D01*
X12721000Y-9123500D02*
X12761000Y-9123500D01*
X12778115Y-7444885D02*
X12778115Y-7484885D01*
X12758115Y-7464885D02*
X12798115Y-7464885D01*
X12815000Y-5917500D02*
X12815000Y-5957500D01*
X12795000Y-5937500D02*
X12835000Y-5937500D01*
X12898000Y-6851000D02*
X12898000Y-6891000D01*
X12878000Y-6871000D02*
X12918000Y-6871000D01*
X12917337Y-8177500D02*
X12917337Y-8217500D01*
X12897337Y-8197500D02*
X12937337Y-8197500D01*
X12973000Y-9103500D02*
X12973000Y-9143500D01*
X12953000Y-9123500D02*
X12993000Y-9123500D01*
X13068000Y-9293500D02*
X13068000Y-9333500D01*
X13048000Y-9313500D02*
X13088000Y-9313500D01*
X13073000Y-6851000D02*
X13073000Y-6891000D01*
X13053000Y-6871000D02*
X13093000Y-6871000D01*
X13090000Y-9497500D02*
X13090000Y-9537500D01*
X13070000Y-9517500D02*
X13110000Y-9517500D01*
X13090000Y-9702500D02*
X13090000Y-9742500D01*
X13070000Y-9722500D02*
X13110000Y-9722500D01*
X13090000Y-9907500D02*
X13090000Y-9947500D01*
X13070000Y-9927500D02*
X13110000Y-9927500D01*
X13090000Y-10112500D02*
X13090000Y-10152500D01*
X13070000Y-10132500D02*
X13110000Y-10132500D01*
X13090000Y-10317500D02*
X13090000Y-10357500D01*
X13070000Y-10337500D02*
X13110000Y-10337500D01*
X13090000Y-10522500D02*
X13090000Y-10562500D01*
X13070000Y-10542500D02*
X13110000Y-10542500D01*
X13090000Y-10727500D02*
X13090000Y-10767500D01*
X13070000Y-10747500D02*
X13110000Y-10747500D01*
X13090000Y-10932500D02*
X13090000Y-10972500D01*
X13070000Y-10952500D02*
X13110000Y-10952500D01*
X13111000Y-8177500D02*
X13111000Y-8217500D01*
X13091000Y-8197500D02*
X13131000Y-8197500D01*
X13132682Y-11076818D02*
X13132682Y-11116818D01*
X13112682Y-11096818D02*
X13152682Y-11096818D01*
X13205000Y-9103500D02*
X13205000Y-9143500D01*
X13185000Y-9123500D02*
X13225000Y-9123500D01*
X13221000Y-8318500D02*
X13221000Y-8358500D01*
X13201000Y-8338500D02*
X13241000Y-8338500D01*
X13231250Y-11181250D02*
X13231250Y-11221250D01*
X13211250Y-11201250D02*
X13251250Y-11201250D01*
X13273000Y-10646500D02*
X13273000Y-10686500D01*
X13253000Y-10666500D02*
X13293000Y-10666500D01*
X13310000Y-11319500D02*
X13310000Y-11359500D01*
X13290000Y-11339500D02*
X13330000Y-11339500D01*
X13325000Y-5917500D02*
X13325000Y-5957500D01*
X13305000Y-5937500D02*
X13345000Y-5937500D01*
X13369991Y-11517476D02*
X13369991Y-11557476D01*
X13349991Y-11537476D02*
X13389991Y-11537476D01*
X13438286Y-11654554D02*
X13438286Y-11694554D01*
X13418286Y-11674554D02*
X13458286Y-11674554D01*
X13509000Y-10732500D02*
X13509000Y-10772500D01*
X13489000Y-10752500D02*
X13529000Y-10752500D01*
X13515404Y-11320304D02*
X13515404Y-11360304D01*
X13495404Y-11340304D02*
X13535404Y-11340304D01*
X13525510Y-11780426D02*
X13525510Y-11820426D01*
X13505510Y-11800426D02*
X13545510Y-11800426D01*
X13568062Y-11471154D02*
X13568062Y-11511154D01*
X13548062Y-11491154D02*
X13588062Y-11491154D01*
X13578500Y-11179000D02*
X13578500Y-11219000D01*
X13558500Y-11199000D02*
X13598500Y-11199000D01*
X13588000Y-9005500D02*
X13588000Y-9045500D01*
X13568000Y-9025500D02*
X13608000Y-9025500D01*
X13601000Y-5903500D02*
X13601000Y-5943500D01*
X13581000Y-5923500D02*
X13621000Y-5923500D01*
X13629401Y-11892972D02*
X13629401Y-11932972D01*
X13609401Y-11912972D02*
X13649401Y-11912972D01*
X13647442Y-11609793D02*
X13647442Y-11649793D01*
X13627442Y-11629793D02*
X13667442Y-11629793D01*
X13663199Y-11077699D02*
X13663199Y-11117699D01*
X13643199Y-11097699D02*
X13683199Y-11097699D01*
X13690000Y-9497500D02*
X13690000Y-9537500D01*
X13670000Y-9517500D02*
X13710000Y-9517500D01*
X13690000Y-9702500D02*
X13690000Y-9742500D01*
X13670000Y-9722500D02*
X13710000Y-9722500D01*
X13690000Y-9907500D02*
X13690000Y-9947500D01*
X13670000Y-9927500D02*
X13710000Y-9927500D01*
X13690000Y-10112500D02*
X13690000Y-10152500D01*
X13670000Y-10132500D02*
X13710000Y-10132500D01*
X13690000Y-10317500D02*
X13690000Y-10357500D01*
X13670000Y-10337500D02*
X13710000Y-10337500D01*
X13690000Y-10522500D02*
X13690000Y-10562500D01*
X13670000Y-10542500D02*
X13710000Y-10542500D01*
X13690000Y-10727500D02*
X13690000Y-10767500D01*
X13670000Y-10747500D02*
X13710000Y-10747500D01*
X13690000Y-10932500D02*
X13690000Y-10972500D01*
X13670000Y-10952500D02*
X13710000Y-10952500D01*
X13711000Y-9290500D02*
X13711000Y-9330500D01*
X13691000Y-9310500D02*
X13731000Y-9310500D01*
X13738488Y-12000646D02*
X13738488Y-12040646D01*
X13718488Y-12020646D02*
X13758488Y-12020646D01*
X13750722Y-11731704D02*
X13750722Y-11771704D01*
X13730722Y-11751704D02*
X13770722Y-11751704D01*
X13847576Y-12108321D02*
X13847576Y-12148321D01*
X13827576Y-12128321D02*
X13867576Y-12128321D01*
X13851456Y-9147957D02*
X13851456Y-9187957D01*
X13831456Y-9167957D02*
X13871456Y-9167957D01*
X13856880Y-12837500D02*
X13856880Y-12877500D01*
X13836880Y-12857500D02*
X13876880Y-12857500D01*
X13864603Y-11844111D02*
X13864603Y-11884111D01*
X13844603Y-11864111D02*
X13884603Y-11864111D01*
X13902000Y-8550500D02*
X13902000Y-8590500D01*
X13882000Y-8570500D02*
X13922000Y-8570500D01*
X13902000Y-8733500D02*
X13902000Y-8773500D01*
X13882000Y-8753500D02*
X13922000Y-8753500D01*
X13902500Y-8367500D02*
X13902500Y-8407500D01*
X13882500Y-8387500D02*
X13922500Y-8387500D01*
X13904000Y-8916500D02*
X13904000Y-8956500D01*
X13884000Y-8936500D02*
X13924000Y-8936500D01*
X13956664Y-12215995D02*
X13956664Y-12255995D01*
X13936664Y-12235995D02*
X13976664Y-12235995D01*
X13978485Y-11956517D02*
X13978485Y-11996517D01*
X13958485Y-11976517D02*
X13998485Y-11976517D01*
X14015000Y-12362500D02*
X14015000Y-12402500D01*
X13995000Y-12382500D02*
X14035000Y-12382500D01*
X14055012Y-8184081D02*
X14055012Y-8224081D01*
X14035012Y-8204081D02*
X14075012Y-8204081D01*
X14058000Y-9099500D02*
X14058000Y-9139500D01*
X14038000Y-9119500D02*
X14078000Y-9119500D01*
X14092366Y-12068923D02*
X14092366Y-12108923D01*
X14072366Y-12088923D02*
X14112366Y-12088923D01*
X14189000Y-12165500D02*
X14189000Y-12205500D01*
X14169000Y-12185500D02*
X14209000Y-12185500D01*
X14190000Y-13170619D02*
X14190000Y-13210619D01*
X14170000Y-13190619D02*
X14210000Y-13190619D01*
X14248675Y-8177500D02*
X14248675Y-8217500D01*
X14228675Y-8197500D02*
X14268675Y-8197500D01*
X14285776Y-12070010D02*
X14285776Y-12110010D01*
X14265776Y-12090010D02*
X14305776Y-12090010D01*
X14365000Y-12362500D02*
X14365000Y-12402500D01*
X14345000Y-12382500D02*
X14385000Y-12382500D01*
X14398724Y-11958765D02*
X14398724Y-11998765D01*
X14378724Y-11978765D02*
X14418724Y-11978765D01*
X14436012Y-12202758D02*
X14436012Y-12242758D01*
X14416012Y-12222758D02*
X14456012Y-12222758D01*
X14442337Y-8177500D02*
X14442337Y-8217500D01*
X14422337Y-8197500D02*
X14462337Y-8197500D01*
X14511672Y-11847520D02*
X14511672Y-11887520D01*
X14491672Y-11867520D02*
X14531672Y-11867520D01*
X14513319Y-9150819D02*
X14513319Y-9190819D01*
X14493319Y-9170819D02*
X14533319Y-9170819D01*
X14523021Y-12849479D02*
X14523021Y-12889479D01*
X14503021Y-12869479D02*
X14543021Y-12869479D01*
X14558853Y-12081770D02*
X14558853Y-12121770D01*
X14538853Y-12101770D02*
X14578853Y-12101770D01*
X14624620Y-11736276D02*
X14624620Y-11776276D01*
X14604620Y-11756276D02*
X14644620Y-11756276D01*
X14636000Y-8177500D02*
X14636000Y-8217500D01*
X14616000Y-8197500D02*
X14656000Y-8197500D01*
X14648000Y-9290500D02*
X14648000Y-9330500D01*
X14628000Y-9310500D02*
X14668000Y-9310500D01*
X14670000Y-9494500D02*
X14670000Y-9534500D01*
X14650000Y-9514500D02*
X14690000Y-9514500D01*
X14670000Y-9696500D02*
X14670000Y-9736500D01*
X14650000Y-9716500D02*
X14690000Y-9716500D01*
X14670000Y-9898500D02*
X14670000Y-9938500D01*
X14650000Y-9918500D02*
X14690000Y-9918500D01*
X14670000Y-10100500D02*
X14670000Y-10140500D01*
X14650000Y-10120500D02*
X14690000Y-10120500D01*
X14670000Y-10302500D02*
X14670000Y-10342500D01*
X14650000Y-10322500D02*
X14690000Y-10322500D01*
X14670000Y-10504500D02*
X14670000Y-10544500D01*
X14650000Y-10524500D02*
X14690000Y-10524500D01*
X14670000Y-10706500D02*
X14670000Y-10746500D01*
X14650000Y-10726500D02*
X14690000Y-10726500D01*
X14674000Y-10908500D02*
X14674000Y-10948500D01*
X14654000Y-10928500D02*
X14694000Y-10928500D01*
X14681693Y-11960781D02*
X14681693Y-12000781D01*
X14661693Y-11980781D02*
X14701693Y-11980781D01*
X14712500Y-6132500D02*
X14712500Y-6172500D01*
X14692500Y-6152500D02*
X14732500Y-6152500D01*
X14722055Y-11048445D02*
X14722055Y-11088445D01*
X14702055Y-11068445D02*
X14742055Y-11068445D01*
X14727947Y-11616339D02*
X14727947Y-11656339D01*
X14707947Y-11636339D02*
X14747947Y-11636339D01*
X14730000Y-9103500D02*
X14730000Y-9143500D01*
X14710000Y-9123500D02*
X14750000Y-9123500D01*
X14746000Y-8318500D02*
X14746000Y-8358500D01*
X14726000Y-8338500D02*
X14766000Y-8338500D01*
X14800000Y-10837500D02*
X14800000Y-10877500D01*
X14780000Y-10857500D02*
X14820000Y-10857500D01*
X14803696Y-11838969D02*
X14803696Y-11878969D01*
X14783696Y-11858969D02*
X14823696Y-11858969D01*
X14808093Y-11479828D02*
X14808093Y-11519828D01*
X14788093Y-11499828D02*
X14828093Y-11499828D01*
X14808882Y-11153618D02*
X14808882Y-11193618D01*
X14788882Y-11173618D02*
X14828882Y-11173618D01*
X14810500Y-9397500D02*
X14810500Y-9437500D01*
X14790500Y-9417500D02*
X14830500Y-9417500D01*
X14811000Y-10096500D02*
X14811000Y-10136500D01*
X14791000Y-10116500D02*
X14831000Y-10116500D01*
X14811000Y-10386500D02*
X14811000Y-10426500D01*
X14791000Y-10406500D02*
X14831000Y-10406500D01*
X14861794Y-11330906D02*
X14861794Y-11370906D01*
X14841794Y-11350906D02*
X14881794Y-11350906D01*
X14905000Y-6207500D02*
X14905000Y-6247500D01*
X14885000Y-6227500D02*
X14925000Y-6227500D01*
X14910740Y-11704050D02*
X14910740Y-11744050D01*
X14890740Y-11724050D02*
X14930740Y-11724050D01*
X14997648Y-11545731D02*
X14997648Y-11585731D01*
X14977648Y-11565731D02*
X15017648Y-11565731D01*
X15073000Y-11330500D02*
X15073000Y-11370500D01*
X15053000Y-11350500D02*
X15093000Y-11350500D01*
X15113000Y-10449500D02*
X15113000Y-10489500D01*
X15093000Y-10469500D02*
X15133000Y-10469500D01*
X15199000Y-10151500D02*
X15199000Y-10191500D01*
X15179000Y-10171500D02*
X15219000Y-10171500D01*
X15201500Y-9356500D02*
X15201500Y-9396500D01*
X15181500Y-9376500D02*
X15221500Y-9376500D01*
X15210914Y-11154414D02*
X15210914Y-11194414D01*
X15190914Y-11174414D02*
X15230914Y-11174414D01*
X15263000Y-8400500D02*
X15263000Y-8440500D01*
X15243000Y-8420500D02*
X15283000Y-8420500D01*
X15303000Y-10571500D02*
X15303000Y-10611500D01*
X15283000Y-10591500D02*
X15323000Y-10591500D01*
X15391298Y-11053798D02*
X15391298Y-11093798D01*
X15371298Y-11073798D02*
X15411298Y-11073798D01*
X15471000Y-8400500D02*
X15471000Y-8440500D01*
X15451000Y-8420500D02*
X15491000Y-8420500D01*
X15471000Y-8608500D02*
X15471000Y-8648500D01*
X15451000Y-8628500D02*
X15491000Y-8628500D01*
X15471000Y-8816500D02*
X15471000Y-8856500D01*
X15451000Y-8836500D02*
X15491000Y-8836500D01*
X15471000Y-9024500D02*
X15471000Y-9064500D01*
X15451000Y-9044500D02*
X15491000Y-9044500D01*
X15471000Y-9232500D02*
X15471000Y-9272500D01*
X15451000Y-9252500D02*
X15491000Y-9252500D01*
X15471000Y-9440500D02*
X15471000Y-9480500D01*
X15451000Y-9460500D02*
X15491000Y-9460500D01*
X15471000Y-9648500D02*
X15471000Y-9688500D01*
X15451000Y-9668500D02*
X15491000Y-9668500D01*
X15471000Y-9856500D02*
X15471000Y-9896500D01*
X15451000Y-9876500D02*
X15491000Y-9876500D01*
X15471000Y-10064500D02*
X15471000Y-10104500D01*
X15451000Y-10084500D02*
X15491000Y-10084500D01*
X15471000Y-10272500D02*
X15471000Y-10312500D01*
X15451000Y-10292500D02*
X15491000Y-10292500D01*
X15471000Y-10480500D02*
X15471000Y-10520500D01*
X15451000Y-10500500D02*
X15491000Y-10500500D01*
X15471000Y-10688500D02*
X15471000Y-10728500D01*
X15451000Y-10708500D02*
X15491000Y-10708500D01*
X15471000Y-10896500D02*
X15471000Y-10936500D01*
X15451000Y-10916500D02*
X15491000Y-10916500D01*
X15652500Y-10572500D02*
X15652500Y-10612500D01*
X15632500Y-10592500D02*
X15672500Y-10592500D01*
D10*
X9707428Y-6577428D02*
X9707428Y-6542072D01*
X9672072Y-6542072D01*
X9672072Y-6577428D01*
X9707428Y-6577428D01*
X10091032Y-6715678D02*
X10091032Y-6680322D01*
X10055677Y-6680322D01*
X10055677Y-6715678D01*
X10091032Y-6715678D01*
X10281678Y-7168678D02*
X10281678Y-7133322D01*
X10246322Y-7133322D01*
X10246322Y-7168678D01*
X10281678Y-7168678D01*
X10333678Y-10862678D02*
X10333678Y-10827322D01*
X10298322Y-10827322D01*
X10298322Y-10862678D01*
X10333678Y-10862678D01*
X10337678Y-9368678D02*
X10337678Y-9333322D01*
X10302322Y-9333322D01*
X10302322Y-9368678D01*
X10337678Y-9368678D01*
X10446678Y-5873678D02*
X10446678Y-5838322D01*
X10411322Y-5838322D01*
X10411322Y-5873678D01*
X10446678Y-5873678D01*
X10520678Y-8494678D02*
X10520678Y-8459322D01*
X10485322Y-8459322D01*
X10485322Y-8494678D01*
X10520678Y-8494678D01*
X10577678Y-7600678D02*
X10577678Y-7565322D01*
X10542322Y-7565322D01*
X10542322Y-7600678D01*
X10577678Y-7600678D01*
X10617678Y-8810678D02*
X10617678Y-8775322D01*
X10582322Y-8775322D01*
X10582322Y-8810678D01*
X10617678Y-8810678D01*
X10661678Y-5442678D02*
X10661678Y-5407322D01*
X10626322Y-5407322D01*
X10626322Y-5442678D01*
X10661678Y-5442678D01*
X10743678Y-5959678D02*
X10743678Y-5924322D01*
X10708322Y-5924322D01*
X10708322Y-5959678D01*
X10743678Y-5959678D01*
X10871678Y-8454678D02*
X10871678Y-8419322D01*
X10836322Y-8419322D01*
X10836322Y-8454678D01*
X10871678Y-8454678D01*
X10923678Y-8577728D02*
X10923678Y-8542372D01*
X10888322Y-8542372D01*
X10888322Y-8577728D01*
X10923678Y-8577728D01*
X11052678Y-7953678D02*
X11052678Y-7918322D01*
X11017322Y-7918322D01*
X11017322Y-7953678D01*
X11052678Y-7953678D01*
X11368678Y-5701678D02*
X11368678Y-5666322D01*
X11333322Y-5666322D01*
X11333322Y-5701678D01*
X11368678Y-5701678D01*
X11627678Y-7969678D02*
X11627678Y-7934322D01*
X11592322Y-7934322D01*
X11592322Y-7969678D01*
X11627678Y-7969678D01*
X11779678Y-7823678D02*
X11779678Y-7788322D01*
X11744322Y-7788322D01*
X11744322Y-7823678D01*
X11779678Y-7823678D01*
X11812678Y-5436678D02*
X11812678Y-5401322D01*
X11777322Y-5401322D01*
X11777322Y-5436678D01*
X11812678Y-5436678D01*
X11968678Y-7759678D02*
X11968678Y-7724322D01*
X11933322Y-7724322D01*
X11933322Y-7759678D01*
X11968678Y-7759678D01*
X12097678Y-7590678D02*
X12097678Y-7555322D01*
X12062322Y-7555322D01*
X12062322Y-7590678D01*
X12097678Y-7590678D01*
X12241678Y-8390678D02*
X12241678Y-8355322D01*
X12206322Y-8355322D01*
X12206322Y-8390678D01*
X12241678Y-8390678D01*
X12300678Y-5580678D02*
X12300678Y-5545322D01*
X12265322Y-5545322D01*
X12265322Y-5580678D01*
X12300678Y-5580678D01*
X12309678Y-6322678D02*
X12309678Y-6287322D01*
X12274322Y-6287322D01*
X12274322Y-6322678D01*
X12309678Y-6322678D01*
X12946690Y-7268666D02*
X12946690Y-7233310D01*
X12911334Y-7233310D01*
X12911334Y-7268666D01*
X12946690Y-7268666D01*
X14325178Y-5705178D02*
X14325178Y-5669822D01*
X14289822Y-5669822D01*
X14289822Y-5705178D01*
X14325178Y-5705178D01*
X15005178Y-5650178D02*
X15005178Y-5614822D01*
X14969822Y-5614822D01*
X14969822Y-5650178D01*
X15005178Y-5650178D01*
X15005178Y-5882678D02*
X15005178Y-5847322D01*
X14969822Y-5847322D01*
X14969822Y-5882678D01*
X15005178Y-5882678D01*
X15132678Y-5765178D02*
X15132678Y-5729822D01*
X15097322Y-5729822D01*
X15097322Y-5765178D01*
X15132678Y-5765178D01*
X15417678Y-6035178D02*
X15417678Y-5999822D01*
X15382322Y-5999822D01*
X15382322Y-6035178D01*
X15417678Y-6035178D01*
D14*
X13440000Y-5543750D02*
X13470000Y-5513750D01*
X13440000Y-5483750D01*
X13410000Y-5513750D01*
X13440000Y-5543750D01*
D11*
X13470000Y-5548750D02*
X13470000Y-5478750D01*
X13410000Y-5548750D02*
X13410000Y-5478750D01*
X13470000Y-5478750D02*
G75*
G03*
X13410000Y-5478750I-30000J0D01*
G01*
X13410000Y-5548750D02*
G75*
G03*
X13470000Y-5548750I30000J0D01*
G01*
D14*
X14140000Y-5543750D02*
X14170000Y-5513750D01*
X14140000Y-5483750D01*
X14110000Y-5513750D01*
X14140000Y-5543750D01*
D11*
X14110000Y-5478750D02*
X14110000Y-5548750D01*
X14170000Y-5478750D02*
X14170000Y-5548750D01*
X14110000Y-5548750D02*
G75*
G03*
X14170000Y-5548750I30000J0D01*
G01*
X14170000Y-5478750D02*
G75*
G03*
X14110000Y-5478750I-30000J0D01*
G01*
D15*
X13497500Y-5741250D02*
X13582500Y-5826250D01*
X13582500Y-5741250D02*
X13497500Y-5826250D01*
X13582500Y-5783750D02*
G75*
G03*
X13582500Y-5783750I-42500J0D01*
G01*
X13997500Y-5741250D02*
X14082500Y-5826250D01*
X14082500Y-5741250D02*
X13997500Y-5826250D01*
X14082500Y-5783750D02*
G75*
G03*
X14082500Y-5783750I-42500J0D01*
G01*
D16*
X12453000Y-5457000D02*
X12553000Y-5557000D01*
X12553000Y-5457000D02*
X12453000Y-5557000D01*
X12503000Y-5457000D02*
X12503000Y-5557000D01*
X12453000Y-5507000D02*
X12553000Y-5507000D01*
X12707000Y-5457000D02*
X12807000Y-5557000D01*
X12807000Y-5457000D02*
X12707000Y-5557000D01*
X12757000Y-5457000D02*
X12757000Y-5557000D01*
X12707000Y-5507000D02*
X12807000Y-5507000D01*
X12961000Y-5457000D02*
X13061000Y-5557000D01*
X13061000Y-5457000D02*
X12961000Y-5557000D01*
X13011000Y-5457000D02*
X13011000Y-5557000D01*
X12961000Y-5507000D02*
X13061000Y-5507000D01*
X13515000Y-6905500D02*
X13615000Y-7005500D01*
X13615000Y-6905500D02*
X13515000Y-7005500D01*
X13565000Y-6905500D02*
X13565000Y-7005500D01*
X13515000Y-6955500D02*
X13615000Y-6955500D01*
X13515000Y-7159500D02*
X13615000Y-7259500D01*
X13615000Y-7159500D02*
X13515000Y-7259500D01*
X13565000Y-7159500D02*
X13565000Y-7259500D01*
X13515000Y-7209500D02*
X13615000Y-7209500D01*
X13515000Y-7413500D02*
X13615000Y-7513500D01*
X13615000Y-7413500D02*
X13515000Y-7513500D01*
X13565000Y-7413500D02*
X13565000Y-7513500D01*
X13515000Y-7463500D02*
X13615000Y-7463500D01*
X13515000Y-7667500D02*
X13615000Y-7767500D01*
X13615000Y-7667500D02*
X13515000Y-7767500D01*
X13565000Y-7667500D02*
X13565000Y-7767500D01*
X13515000Y-7717500D02*
X13615000Y-7717500D01*
X13769000Y-6905500D02*
X13869000Y-7005500D01*
X13869000Y-6905500D02*
X13769000Y-7005500D01*
X13819000Y-6905500D02*
X13819000Y-7005500D01*
X13769000Y-6955500D02*
X13869000Y-6955500D01*
X13769000Y-7159500D02*
X13869000Y-7259500D01*
X13869000Y-7159500D02*
X13769000Y-7259500D01*
X13819000Y-7159500D02*
X13819000Y-7259500D01*
X13769000Y-7209500D02*
X13869000Y-7209500D01*
X13769000Y-7413500D02*
X13869000Y-7513500D01*
X13869000Y-7413500D02*
X13769000Y-7513500D01*
X13819000Y-7413500D02*
X13819000Y-7513500D01*
X13769000Y-7463500D02*
X13869000Y-7463500D01*
X13769000Y-7667500D02*
X13869000Y-7767500D01*
X13869000Y-7667500D02*
X13769000Y-7767500D01*
X13819000Y-7667500D02*
X13819000Y-7767500D01*
X13769000Y-7717500D02*
X13869000Y-7717500D01*
X14185000Y-6903500D02*
X14285000Y-7003500D01*
X14285000Y-6903500D02*
X14185000Y-7003500D01*
X14235000Y-6903500D02*
X14235000Y-7003500D01*
X14185000Y-6953500D02*
X14285000Y-6953500D01*
X14185000Y-7157500D02*
X14285000Y-7257500D01*
X14285000Y-7157500D02*
X14185000Y-7257500D01*
X14235000Y-7157500D02*
X14235000Y-7257500D01*
X14185000Y-7207500D02*
X14285000Y-7207500D01*
X14185000Y-7411500D02*
X14285000Y-7511500D01*
X14285000Y-7411500D02*
X14185000Y-7511500D01*
X14235000Y-7411500D02*
X14235000Y-7511500D01*
X14185000Y-7461500D02*
X14285000Y-7461500D01*
X14185000Y-7665500D02*
X14285000Y-7765500D01*
X14285000Y-7665500D02*
X14185000Y-7765500D01*
X14235000Y-7665500D02*
X14235000Y-7765500D01*
X14185000Y-7715500D02*
X14285000Y-7715500D01*
X14439000Y-6903500D02*
X14539000Y-7003500D01*
X14539000Y-6903500D02*
X14439000Y-7003500D01*
X14489000Y-6903500D02*
X14489000Y-7003500D01*
X14439000Y-6953500D02*
X14539000Y-6953500D01*
X14439000Y-7157500D02*
X14539000Y-7257500D01*
X14539000Y-7157500D02*
X14439000Y-7257500D01*
X14489000Y-7157500D02*
X14489000Y-7257500D01*
X14439000Y-7207500D02*
X14539000Y-7207500D01*
X14439000Y-7411500D02*
X14539000Y-7511500D01*
X14539000Y-7411500D02*
X14439000Y-7511500D01*
X14489000Y-7411500D02*
X14489000Y-7511500D01*
X14439000Y-7461500D02*
X14539000Y-7461500D01*
X14439000Y-7665500D02*
X14539000Y-7765500D01*
X14539000Y-7665500D02*
X14439000Y-7765500D01*
X14489000Y-7665500D02*
X14489000Y-7765500D01*
X14439000Y-7715500D02*
X14539000Y-7715500D01*
D17*
X8991000Y-7263500D02*
X9101000Y-7373500D01*
X9101000Y-7263500D02*
X8991000Y-7373500D01*
X9084891Y-7357391D02*
X9084891Y-7279609D01*
X9007109Y-7279609D01*
X9007109Y-7357391D01*
X9084891Y-7357391D01*
X8991000Y-7540500D02*
X9101000Y-7650500D01*
X9101000Y-7540500D02*
X8991000Y-7650500D01*
X9084891Y-7634391D02*
X9084891Y-7556609D01*
X9007109Y-7556609D01*
X9007109Y-7634391D01*
X9084891Y-7634391D01*
X8991000Y-7817500D02*
X9101000Y-7927500D01*
X9101000Y-7817500D02*
X8991000Y-7927500D01*
X9084891Y-7911391D02*
X9084891Y-7833609D01*
X9007109Y-7833609D01*
X9007109Y-7911391D01*
X9084891Y-7911391D01*
X8991000Y-8094500D02*
X9101000Y-8204500D01*
X9101000Y-8094500D02*
X8991000Y-8204500D01*
X9084891Y-8188391D02*
X9084891Y-8110609D01*
X9007109Y-8110609D01*
X9007109Y-8188391D01*
X9084891Y-8188391D01*
X8991000Y-8371500D02*
X9101000Y-8481500D01*
X9101000Y-8371500D02*
X8991000Y-8481500D01*
X9084891Y-8465391D02*
X9084891Y-8387609D01*
X9007109Y-8387609D01*
X9007109Y-8465391D01*
X9084891Y-8465391D01*
X8991000Y-8648500D02*
X9101000Y-8758500D01*
X9101000Y-8648500D02*
X8991000Y-8758500D01*
X9084891Y-8742391D02*
X9084891Y-8664609D01*
X9007109Y-8664609D01*
X9007109Y-8742391D01*
X9084891Y-8742391D01*
X8991000Y-8925500D02*
X9101000Y-9035500D01*
X9101000Y-8925500D02*
X8991000Y-9035500D01*
X9084891Y-9019391D02*
X9084891Y-8941609D01*
X9007109Y-8941609D01*
X9007109Y-9019391D01*
X9084891Y-9019391D01*
X8991000Y-9202500D02*
X9101000Y-9312500D01*
X9101000Y-9202500D02*
X8991000Y-9312500D01*
X9084891Y-9296391D02*
X9084891Y-9218609D01*
X9007109Y-9218609D01*
X9007109Y-9296391D01*
X9084891Y-9296391D01*
X8991000Y-9479500D02*
X9101000Y-9589500D01*
X9101000Y-9479500D02*
X8991000Y-9589500D01*
X9084891Y-9573391D02*
X9084891Y-9495609D01*
X9007109Y-9495609D01*
X9007109Y-9573391D01*
X9084891Y-9573391D01*
X8991000Y-9756500D02*
X9101000Y-9866500D01*
X9101000Y-9756500D02*
X8991000Y-9866500D01*
X9084891Y-9850391D02*
X9084891Y-9772609D01*
X9007109Y-9772609D01*
X9007109Y-9850391D01*
X9084891Y-9850391D01*
X8991000Y-10033500D02*
X9101000Y-10143500D01*
X9101000Y-10033500D02*
X8991000Y-10143500D01*
X9084891Y-10127391D02*
X9084891Y-10049609D01*
X9007109Y-10049609D01*
X9007109Y-10127391D01*
X9084891Y-10127391D01*
X8991000Y-10310500D02*
X9101000Y-10420500D01*
X9101000Y-10310500D02*
X8991000Y-10420500D01*
X9084891Y-10404391D02*
X9084891Y-10326609D01*
X9007109Y-10326609D01*
X9007109Y-10404391D01*
X9084891Y-10404391D01*
X8991000Y-10587500D02*
X9101000Y-10697500D01*
X9101000Y-10587500D02*
X8991000Y-10697500D01*
X9084891Y-10681391D02*
X9084891Y-10603609D01*
X9007109Y-10603609D01*
X9007109Y-10681391D01*
X9084891Y-10681391D01*
X8991000Y-10864500D02*
X9101000Y-10974500D01*
X9101000Y-10864500D02*
X8991000Y-10974500D01*
X9084891Y-10958391D02*
X9084891Y-10880609D01*
X9007109Y-10880609D01*
X9007109Y-10958391D01*
X9084891Y-10958391D01*
X8991000Y-11141500D02*
X9101000Y-11251500D01*
X9101000Y-11141500D02*
X8991000Y-11251500D01*
X9084891Y-11235391D02*
X9084891Y-11157609D01*
X9007109Y-11157609D01*
X9007109Y-11235391D01*
X9084891Y-11235391D01*
X8991000Y-11418500D02*
X9101000Y-11528500D01*
X9101000Y-11418500D02*
X8991000Y-11528500D01*
X9084891Y-11512391D02*
X9084891Y-11434609D01*
X9007109Y-11434609D01*
X9007109Y-11512391D01*
X9084891Y-11512391D01*
X8991000Y-11695500D02*
X9101000Y-11805500D01*
X9101000Y-11695500D02*
X8991000Y-11805500D01*
X9084891Y-11789391D02*
X9084891Y-11711609D01*
X9007109Y-11711609D01*
X9007109Y-11789391D01*
X9084891Y-11789391D01*
X8991000Y-11972500D02*
X9101000Y-12082500D01*
X9101000Y-11972500D02*
X8991000Y-12082500D01*
X9084891Y-12066391D02*
X9084891Y-11988609D01*
X9007109Y-11988609D01*
X9007109Y-12066391D01*
X9084891Y-12066391D01*
X9245000Y-7125000D02*
X9355000Y-7235000D01*
X9355000Y-7125000D02*
X9245000Y-7235000D01*
X9338891Y-7218891D02*
X9338891Y-7141109D01*
X9261109Y-7141109D01*
X9261109Y-7218891D01*
X9338891Y-7218891D01*
X9245000Y-7402000D02*
X9355000Y-7512000D01*
X9355000Y-7402000D02*
X9245000Y-7512000D01*
X9338891Y-7495891D02*
X9338891Y-7418109D01*
X9261109Y-7418109D01*
X9261109Y-7495891D01*
X9338891Y-7495891D01*
X9245000Y-7679000D02*
X9355000Y-7789000D01*
X9355000Y-7679000D02*
X9245000Y-7789000D01*
X9338891Y-7772891D02*
X9338891Y-7695109D01*
X9261109Y-7695109D01*
X9261109Y-7772891D01*
X9338891Y-7772891D01*
X9245000Y-7956000D02*
X9355000Y-8066000D01*
X9355000Y-7956000D02*
X9245000Y-8066000D01*
X9338891Y-8049891D02*
X9338891Y-7972109D01*
X9261109Y-7972109D01*
X9261109Y-8049891D01*
X9338891Y-8049891D01*
X9245000Y-8233000D02*
X9355000Y-8343000D01*
X9355000Y-8233000D02*
X9245000Y-8343000D01*
X9338891Y-8326891D02*
X9338891Y-8249109D01*
X9261109Y-8249109D01*
X9261109Y-8326891D01*
X9338891Y-8326891D01*
X9245000Y-8510000D02*
X9355000Y-8620000D01*
X9355000Y-8510000D02*
X9245000Y-8620000D01*
X9338891Y-8603891D02*
X9338891Y-8526109D01*
X9261109Y-8526109D01*
X9261109Y-8603891D01*
X9338891Y-8603891D01*
X9245000Y-8787000D02*
X9355000Y-8897000D01*
X9355000Y-8787000D02*
X9245000Y-8897000D01*
X9338891Y-8880891D02*
X9338891Y-8803109D01*
X9261109Y-8803109D01*
X9261109Y-8880891D01*
X9338891Y-8880891D01*
X9245000Y-9064000D02*
X9355000Y-9174000D01*
X9355000Y-9064000D02*
X9245000Y-9174000D01*
X9338891Y-9157891D02*
X9338891Y-9080109D01*
X9261109Y-9080109D01*
X9261109Y-9157891D01*
X9338891Y-9157891D01*
X9245000Y-9341000D02*
X9355000Y-9451000D01*
X9355000Y-9341000D02*
X9245000Y-9451000D01*
X9338891Y-9434891D02*
X9338891Y-9357109D01*
X9261109Y-9357109D01*
X9261109Y-9434891D01*
X9338891Y-9434891D01*
X9245000Y-9618000D02*
X9355000Y-9728000D01*
X9355000Y-9618000D02*
X9245000Y-9728000D01*
X9338891Y-9711891D02*
X9338891Y-9634109D01*
X9261109Y-9634109D01*
X9261109Y-9711891D01*
X9338891Y-9711891D01*
X9245000Y-9895000D02*
X9355000Y-10005000D01*
X9355000Y-9895000D02*
X9245000Y-10005000D01*
X9338891Y-9988891D02*
X9338891Y-9911109D01*
X9261109Y-9911109D01*
X9261109Y-9988891D01*
X9338891Y-9988891D01*
X9245000Y-10172000D02*
X9355000Y-10282000D01*
X9355000Y-10172000D02*
X9245000Y-10282000D01*
X9338891Y-10265891D02*
X9338891Y-10188109D01*
X9261109Y-10188109D01*
X9261109Y-10265891D01*
X9338891Y-10265891D01*
X9245000Y-10449000D02*
X9355000Y-10559000D01*
X9355000Y-10449000D02*
X9245000Y-10559000D01*
X9338891Y-10542891D02*
X9338891Y-10465109D01*
X9261109Y-10465109D01*
X9261109Y-10542891D01*
X9338891Y-10542891D01*
X9245000Y-10726000D02*
X9355000Y-10836000D01*
X9355000Y-10726000D02*
X9245000Y-10836000D01*
X9338891Y-10819891D02*
X9338891Y-10742109D01*
X9261109Y-10742109D01*
X9261109Y-10819891D01*
X9338891Y-10819891D01*
X9245000Y-11003000D02*
X9355000Y-11113000D01*
X9355000Y-11003000D02*
X9245000Y-11113000D01*
X9338891Y-11096891D02*
X9338891Y-11019109D01*
X9261109Y-11019109D01*
X9261109Y-11096891D01*
X9338891Y-11096891D01*
X9245000Y-11280000D02*
X9355000Y-11390000D01*
X9355000Y-11280000D02*
X9245000Y-11390000D01*
X9338891Y-11373891D02*
X9338891Y-11296109D01*
X9261109Y-11296109D01*
X9261109Y-11373891D01*
X9338891Y-11373891D01*
X9245000Y-11557000D02*
X9355000Y-11667000D01*
X9355000Y-11557000D02*
X9245000Y-11667000D01*
X9338891Y-11650891D02*
X9338891Y-11573109D01*
X9261109Y-11573109D01*
X9261109Y-11650891D01*
X9338891Y-11650891D01*
X9245000Y-11834000D02*
X9355000Y-11944000D01*
X9355000Y-11834000D02*
X9245000Y-11944000D01*
X9338891Y-11927891D02*
X9338891Y-11850109D01*
X9261109Y-11850109D01*
X9261109Y-11927891D01*
X9338891Y-11927891D01*
X9245000Y-12111000D02*
X9355000Y-12221000D01*
X9355000Y-12111000D02*
X9245000Y-12221000D01*
X9338891Y-12204891D02*
X9338891Y-12127109D01*
X9261109Y-12127109D01*
X9261109Y-12204891D01*
X9338891Y-12204891D01*
D18*
X13861000Y-12528500D02*
X14011000Y-12678500D01*
X14011000Y-12528500D02*
X13861000Y-12678500D01*
X13936000Y-12678500D02*
X14011000Y-12603500D01*
X13936000Y-12528500D01*
X13861000Y-12603500D01*
X13936000Y-12678500D01*
X13861000Y-13036500D02*
X14011000Y-13186500D01*
X14011000Y-13036500D02*
X13861000Y-13186500D01*
X13936000Y-13186500D02*
X14011000Y-13111500D01*
X13936000Y-13036500D01*
X13861000Y-13111500D01*
X13936000Y-13186500D01*
X14115000Y-12782500D02*
X14265000Y-12932500D01*
X14265000Y-12782500D02*
X14115000Y-12932500D01*
X14190000Y-12932500D02*
X14265000Y-12857500D01*
X14190000Y-12782500D01*
X14115000Y-12857500D01*
X14190000Y-12932500D01*
X14369000Y-12528500D02*
X14519000Y-12678500D01*
X14519000Y-12528500D02*
X14369000Y-12678500D01*
X14444000Y-12678500D02*
X14519000Y-12603500D01*
X14444000Y-12528500D01*
X14369000Y-12603500D01*
X14444000Y-12678500D01*
X14369000Y-13036500D02*
X14519000Y-13186500D01*
X14519000Y-13036500D02*
X14369000Y-13186500D01*
X14444000Y-13186500D02*
X14519000Y-13111500D01*
X14444000Y-13036500D01*
X14369000Y-13111500D01*
X14444000Y-13186500D01*
D19*
X9173000Y-6338000D02*
X9173000Y-6658000D01*
X9013000Y-6498000D02*
X9333000Y-6498000D01*
X9333000Y-6498000D02*
G75*
G03*
X9333000Y-6498000I-160000J0D01*
G01*
X9173000Y-12688000D02*
X9173000Y-13008000D01*
X9013000Y-12848000D02*
X9333000Y-12848000D01*
X9333000Y-12848000D02*
G75*
G03*
X9333000Y-12848000I-160000J0D01*
G01*
D11*
X8255119Y-14672976D02*
X8255119Y-14472976D01*
X8302738Y-14472976D01*
X8331309Y-14482500D01*
X8350357Y-14501548D01*
X8359881Y-14520595D01*
X8369405Y-14558690D01*
X8369405Y-14587262D01*
X8359881Y-14625357D01*
X8350357Y-14644405D01*
X8331309Y-14663452D01*
X8302738Y-14672976D01*
X8255119Y-14672976D01*
X8455119Y-14672976D02*
X8455119Y-14539643D01*
X8455119Y-14577738D02*
X8464643Y-14558690D01*
X8474167Y-14549167D01*
X8493214Y-14539643D01*
X8512262Y-14539643D01*
X8578929Y-14672976D02*
X8578929Y-14539643D01*
X8578929Y-14472976D02*
X8569405Y-14482500D01*
X8578929Y-14492024D01*
X8588452Y-14482500D01*
X8578929Y-14472976D01*
X8578929Y-14492024D01*
X8702738Y-14672976D02*
X8683690Y-14663452D01*
X8674167Y-14644405D01*
X8674167Y-14472976D01*
X8807500Y-14672976D02*
X8788452Y-14663452D01*
X8778929Y-14644405D01*
X8778929Y-14472976D01*
X9036071Y-14672976D02*
X9036071Y-14472976D01*
X9102738Y-14615833D01*
X9169405Y-14472976D01*
X9169405Y-14672976D01*
X9350357Y-14672976D02*
X9350357Y-14568214D01*
X9340833Y-14549167D01*
X9321786Y-14539643D01*
X9283690Y-14539643D01*
X9264643Y-14549167D01*
X9350357Y-14663452D02*
X9331310Y-14672976D01*
X9283690Y-14672976D01*
X9264643Y-14663452D01*
X9255119Y-14644405D01*
X9255119Y-14625357D01*
X9264643Y-14606309D01*
X9283690Y-14596786D01*
X9331310Y-14596786D01*
X9350357Y-14587262D01*
X9445595Y-14539643D02*
X9445595Y-14739643D01*
X9445595Y-14549167D02*
X9464643Y-14539643D01*
X9502738Y-14539643D01*
X9521786Y-14549167D01*
X9531310Y-14558690D01*
X9540833Y-14577738D01*
X9540833Y-14634881D01*
X9531310Y-14653928D01*
X9521786Y-14663452D01*
X9502738Y-14672976D01*
X9464643Y-14672976D01*
X9445595Y-14663452D01*
X9626548Y-14653928D02*
X9636071Y-14663452D01*
X9626548Y-14672976D01*
X9617024Y-14663452D01*
X9626548Y-14653928D01*
X9626548Y-14672976D01*
X9626548Y-14549167D02*
X9636071Y-14558690D01*
X9626548Y-14568214D01*
X9617024Y-14558690D01*
X9626548Y-14549167D01*
X9626548Y-14568214D01*
D12*
X7977500Y-14992500D02*
X7997500Y-15012500D01*
X7997500Y-14992500D02*
X7977500Y-15012500D01*
D11*
X8293214Y-14892976D02*
X8312262Y-14892976D01*
X8331309Y-14902500D01*
X8340833Y-14912024D01*
X8350357Y-14931071D01*
X8359881Y-14969167D01*
X8359881Y-15016786D01*
X8350357Y-15054881D01*
X8340833Y-15073928D01*
X8331309Y-15083452D01*
X8312262Y-15092976D01*
X8293214Y-15092976D01*
X8274167Y-15083452D01*
X8264643Y-15073928D01*
X8255119Y-15054881D01*
X8245595Y-15016786D01*
X8245595Y-14969167D01*
X8255119Y-14931071D01*
X8264643Y-14912024D01*
X8274167Y-14902500D01*
X8293214Y-14892976D01*
X8445595Y-15073928D02*
X8455119Y-15083452D01*
X8445595Y-15092976D01*
X8436071Y-15083452D01*
X8445595Y-15073928D01*
X8445595Y-15092976D01*
X8531310Y-14912024D02*
X8540833Y-14902500D01*
X8559881Y-14892976D01*
X8607500Y-14892976D01*
X8626548Y-14902500D01*
X8636071Y-14912024D01*
X8645595Y-14931071D01*
X8645595Y-14950119D01*
X8636071Y-14978690D01*
X8521786Y-15092976D01*
X8645595Y-15092976D01*
X8769405Y-14892976D02*
X8788452Y-14892976D01*
X8807500Y-14902500D01*
X8817024Y-14912024D01*
X8826548Y-14931071D01*
X8836071Y-14969167D01*
X8836071Y-15016786D01*
X8826548Y-15054881D01*
X8817024Y-15073928D01*
X8807500Y-15083452D01*
X8788452Y-15092976D01*
X8769405Y-15092976D01*
X8750357Y-15083452D01*
X8740833Y-15073928D01*
X8731310Y-15054881D01*
X8721786Y-15016786D01*
X8721786Y-14969167D01*
X8731310Y-14931071D01*
X8740833Y-14912024D01*
X8750357Y-14902500D01*
X8769405Y-14892976D01*
X8959881Y-14892976D02*
X8978929Y-14892976D01*
X8997976Y-14902500D01*
X9007500Y-14912024D01*
X9017024Y-14931071D01*
X9026548Y-14969167D01*
X9026548Y-15016786D01*
X9017024Y-15054881D01*
X9007500Y-15073928D01*
X8997976Y-15083452D01*
X8978929Y-15092976D01*
X8959881Y-15092976D01*
X8940833Y-15083452D01*
X8931310Y-15073928D01*
X8921786Y-15054881D01*
X8912262Y-15016786D01*
X8912262Y-14969167D01*
X8921786Y-14931071D01*
X8931310Y-14912024D01*
X8940833Y-14902500D01*
X8959881Y-14892976D01*
X9112262Y-15092976D02*
X9112262Y-14959643D01*
X9112262Y-14978690D02*
X9121786Y-14969167D01*
X9140833Y-14959643D01*
X9169405Y-14959643D01*
X9188452Y-14969167D01*
X9197976Y-14988214D01*
X9197976Y-15092976D01*
X9197976Y-14988214D02*
X9207500Y-14969167D01*
X9226548Y-14959643D01*
X9255119Y-14959643D01*
X9274167Y-14969167D01*
X9283690Y-14988214D01*
X9283690Y-15092976D01*
X9378929Y-15092976D02*
X9378929Y-14959643D01*
X9378929Y-14978690D02*
X9388452Y-14969167D01*
X9407500Y-14959643D01*
X9436071Y-14959643D01*
X9455119Y-14969167D01*
X9464643Y-14988214D01*
X9464643Y-15092976D01*
X9464643Y-14988214D02*
X9474167Y-14969167D01*
X9493214Y-14959643D01*
X9521786Y-14959643D01*
X9540833Y-14969167D01*
X9550357Y-14988214D01*
X9550357Y-15092976D01*
X9940833Y-14883452D02*
X9769405Y-15140595D01*
X10197976Y-14892976D02*
X10217024Y-14892976D01*
X10236071Y-14902500D01*
X10245595Y-14912024D01*
X10255119Y-14931071D01*
X10264643Y-14969167D01*
X10264643Y-15016786D01*
X10255119Y-15054881D01*
X10245595Y-15073928D01*
X10236071Y-15083452D01*
X10217024Y-15092976D01*
X10197976Y-15092976D01*
X10178929Y-15083452D01*
X10169405Y-15073928D01*
X10159881Y-15054881D01*
X10150357Y-15016786D01*
X10150357Y-14969167D01*
X10159881Y-14931071D01*
X10169405Y-14912024D01*
X10178929Y-14902500D01*
X10197976Y-14892976D01*
X10350357Y-15073928D02*
X10359881Y-15083452D01*
X10350357Y-15092976D01*
X10340833Y-15083452D01*
X10350357Y-15073928D01*
X10350357Y-15092976D01*
X10483690Y-14892976D02*
X10502738Y-14892976D01*
X10521786Y-14902500D01*
X10531310Y-14912024D01*
X10540833Y-14931071D01*
X10550357Y-14969167D01*
X10550357Y-15016786D01*
X10540833Y-15054881D01*
X10531310Y-15073928D01*
X10521786Y-15083452D01*
X10502738Y-15092976D01*
X10483690Y-15092976D01*
X10464643Y-15083452D01*
X10455119Y-15073928D01*
X10445595Y-15054881D01*
X10436071Y-15016786D01*
X10436071Y-14969167D01*
X10445595Y-14931071D01*
X10455119Y-14912024D01*
X10464643Y-14902500D01*
X10483690Y-14892976D01*
X10674167Y-14892976D02*
X10693214Y-14892976D01*
X10712262Y-14902500D01*
X10721786Y-14912024D01*
X10731310Y-14931071D01*
X10740833Y-14969167D01*
X10740833Y-15016786D01*
X10731310Y-15054881D01*
X10721786Y-15073928D01*
X10712262Y-15083452D01*
X10693214Y-15092976D01*
X10674167Y-15092976D01*
X10655119Y-15083452D01*
X10645595Y-15073928D01*
X10636071Y-15054881D01*
X10626548Y-15016786D01*
X10626548Y-14969167D01*
X10636071Y-14931071D01*
X10645595Y-14912024D01*
X10655119Y-14902500D01*
X10674167Y-14892976D01*
X10807500Y-14892976D02*
X10940833Y-14892976D01*
X10855119Y-15092976D01*
X11026548Y-15092976D02*
X11064643Y-15092976D01*
X11083690Y-15083452D01*
X11093214Y-15073928D01*
X11112262Y-15045357D01*
X11121786Y-15007262D01*
X11121786Y-14931071D01*
X11112262Y-14912024D01*
X11102738Y-14902500D01*
X11083690Y-14892976D01*
X11045595Y-14892976D01*
X11026548Y-14902500D01*
X11017024Y-14912024D01*
X11007500Y-14931071D01*
X11007500Y-14978690D01*
X11017024Y-14997738D01*
X11026548Y-15007262D01*
X11045595Y-15016786D01*
X11083690Y-15016786D01*
X11102738Y-15007262D01*
X11112262Y-14997738D01*
X11121786Y-14978690D01*
X11197976Y-14892976D02*
X11197976Y-14931071D01*
X11274167Y-14892976D02*
X11274167Y-14931071D01*
X11569405Y-15169167D02*
X11559881Y-15159643D01*
X11540833Y-15131071D01*
X11531309Y-15112024D01*
X11521786Y-15083452D01*
X11512262Y-15035833D01*
X11512262Y-14997738D01*
X11521786Y-14950119D01*
X11531309Y-14921548D01*
X11540833Y-14902500D01*
X11559881Y-14873928D01*
X11569405Y-14864405D01*
X11636071Y-14912024D02*
X11645595Y-14902500D01*
X11664643Y-14892976D01*
X11712262Y-14892976D01*
X11731309Y-14902500D01*
X11740833Y-14912024D01*
X11750357Y-14931071D01*
X11750357Y-14950119D01*
X11740833Y-14978690D01*
X11626548Y-15092976D01*
X11750357Y-15092976D01*
X11817024Y-14892976D02*
X11950357Y-14892976D01*
X11864643Y-15092976D01*
X12007500Y-14892976D02*
X12140833Y-14892976D01*
X12055119Y-15092976D01*
X12369405Y-15092976D02*
X12369405Y-14892976D01*
X12455119Y-15092976D02*
X12455119Y-14988214D01*
X12445595Y-14969167D01*
X12426548Y-14959643D01*
X12397976Y-14959643D01*
X12378928Y-14969167D01*
X12369405Y-14978690D01*
X12578928Y-15092976D02*
X12559881Y-15083452D01*
X12550357Y-15073928D01*
X12540833Y-15054881D01*
X12540833Y-14997738D01*
X12550357Y-14978690D01*
X12559881Y-14969167D01*
X12578928Y-14959643D01*
X12607500Y-14959643D01*
X12626548Y-14969167D01*
X12636071Y-14978690D01*
X12645595Y-14997738D01*
X12645595Y-15054881D01*
X12636071Y-15073928D01*
X12626548Y-15083452D01*
X12607500Y-15092976D01*
X12578928Y-15092976D01*
X12759881Y-15092976D02*
X12740833Y-15083452D01*
X12731309Y-15064405D01*
X12731309Y-14892976D01*
X12912262Y-15083452D02*
X12893214Y-15092976D01*
X12855119Y-15092976D01*
X12836071Y-15083452D01*
X12826548Y-15064405D01*
X12826548Y-14988214D01*
X12836071Y-14969167D01*
X12855119Y-14959643D01*
X12893214Y-14959643D01*
X12912262Y-14969167D01*
X12921786Y-14988214D01*
X12921786Y-15007262D01*
X12826548Y-15026309D01*
X12997976Y-15083452D02*
X13017024Y-15092976D01*
X13055119Y-15092976D01*
X13074167Y-15083452D01*
X13083690Y-15064405D01*
X13083690Y-15054881D01*
X13074167Y-15035833D01*
X13055119Y-15026309D01*
X13026548Y-15026309D01*
X13007500Y-15016786D01*
X12997976Y-14997738D01*
X12997976Y-14988214D01*
X13007500Y-14969167D01*
X13026548Y-14959643D01*
X13055119Y-14959643D01*
X13074167Y-14969167D01*
X13150357Y-15169167D02*
X13159881Y-15159643D01*
X13178928Y-15131071D01*
X13188452Y-15112024D01*
X13197976Y-15083452D01*
X13207500Y-15035833D01*
X13207500Y-14997738D01*
X13197976Y-14950119D01*
X13188452Y-14921548D01*
X13178928Y-14902500D01*
X13159881Y-14873928D01*
X13150357Y-14864405D01*
D12*
X7997500Y-15266500D02*
G75*
G03*
X7997500Y-15266500I-10000J0D01*
G01*
D11*
X8293214Y-15156976D02*
X8312262Y-15156976D01*
X8331309Y-15166500D01*
X8340833Y-15176024D01*
X8350357Y-15195071D01*
X8359881Y-15233167D01*
X8359881Y-15280786D01*
X8350357Y-15318881D01*
X8340833Y-15337928D01*
X8331309Y-15347452D01*
X8312262Y-15356976D01*
X8293214Y-15356976D01*
X8274167Y-15347452D01*
X8264643Y-15337928D01*
X8255119Y-15318881D01*
X8245595Y-15280786D01*
X8245595Y-15233167D01*
X8255119Y-15195071D01*
X8264643Y-15176024D01*
X8274167Y-15166500D01*
X8293214Y-15156976D01*
X8445595Y-15337928D02*
X8455119Y-15347452D01*
X8445595Y-15356976D01*
X8436071Y-15347452D01*
X8445595Y-15337928D01*
X8445595Y-15356976D01*
X8531310Y-15176024D02*
X8540833Y-15166500D01*
X8559881Y-15156976D01*
X8607500Y-15156976D01*
X8626548Y-15166500D01*
X8636071Y-15176024D01*
X8645595Y-15195071D01*
X8645595Y-15214119D01*
X8636071Y-15242690D01*
X8521786Y-15356976D01*
X8645595Y-15356976D01*
X8769405Y-15156976D02*
X8788452Y-15156976D01*
X8807500Y-15166500D01*
X8817024Y-15176024D01*
X8826548Y-15195071D01*
X8836071Y-15233167D01*
X8836071Y-15280786D01*
X8826548Y-15318881D01*
X8817024Y-15337928D01*
X8807500Y-15347452D01*
X8788452Y-15356976D01*
X8769405Y-15356976D01*
X8750357Y-15347452D01*
X8740833Y-15337928D01*
X8731310Y-15318881D01*
X8721786Y-15280786D01*
X8721786Y-15233167D01*
X8731310Y-15195071D01*
X8740833Y-15176024D01*
X8750357Y-15166500D01*
X8769405Y-15156976D01*
X8959881Y-15156976D02*
X8978929Y-15156976D01*
X8997976Y-15166500D01*
X9007500Y-15176024D01*
X9017024Y-15195071D01*
X9026548Y-15233167D01*
X9026548Y-15280786D01*
X9017024Y-15318881D01*
X9007500Y-15337928D01*
X8997976Y-15347452D01*
X8978929Y-15356976D01*
X8959881Y-15356976D01*
X8940833Y-15347452D01*
X8931310Y-15337928D01*
X8921786Y-15318881D01*
X8912262Y-15280786D01*
X8912262Y-15233167D01*
X8921786Y-15195071D01*
X8931310Y-15176024D01*
X8940833Y-15166500D01*
X8959881Y-15156976D01*
X9112262Y-15356976D02*
X9112262Y-15223643D01*
X9112262Y-15242690D02*
X9121786Y-15233167D01*
X9140833Y-15223643D01*
X9169405Y-15223643D01*
X9188452Y-15233167D01*
X9197976Y-15252214D01*
X9197976Y-15356976D01*
X9197976Y-15252214D02*
X9207500Y-15233167D01*
X9226548Y-15223643D01*
X9255119Y-15223643D01*
X9274167Y-15233167D01*
X9283690Y-15252214D01*
X9283690Y-15356976D01*
X9378929Y-15356976D02*
X9378929Y-15223643D01*
X9378929Y-15242690D02*
X9388452Y-15233167D01*
X9407500Y-15223643D01*
X9436071Y-15223643D01*
X9455119Y-15233167D01*
X9464643Y-15252214D01*
X9464643Y-15356976D01*
X9464643Y-15252214D02*
X9474167Y-15233167D01*
X9493214Y-15223643D01*
X9521786Y-15223643D01*
X9540833Y-15233167D01*
X9550357Y-15252214D01*
X9550357Y-15356976D01*
X9940833Y-15147452D02*
X9769405Y-15404595D01*
X10197976Y-15156976D02*
X10217024Y-15156976D01*
X10236071Y-15166500D01*
X10245595Y-15176024D01*
X10255119Y-15195071D01*
X10264643Y-15233167D01*
X10264643Y-15280786D01*
X10255119Y-15318881D01*
X10245595Y-15337928D01*
X10236071Y-15347452D01*
X10217024Y-15356976D01*
X10197976Y-15356976D01*
X10178929Y-15347452D01*
X10169405Y-15337928D01*
X10159881Y-15318881D01*
X10150357Y-15280786D01*
X10150357Y-15233167D01*
X10159881Y-15195071D01*
X10169405Y-15176024D01*
X10178929Y-15166500D01*
X10197976Y-15156976D01*
X10350357Y-15337928D02*
X10359881Y-15347452D01*
X10350357Y-15356976D01*
X10340833Y-15347452D01*
X10350357Y-15337928D01*
X10350357Y-15356976D01*
X10483690Y-15156976D02*
X10502738Y-15156976D01*
X10521786Y-15166500D01*
X10531310Y-15176024D01*
X10540833Y-15195071D01*
X10550357Y-15233167D01*
X10550357Y-15280786D01*
X10540833Y-15318881D01*
X10531310Y-15337928D01*
X10521786Y-15347452D01*
X10502738Y-15356976D01*
X10483690Y-15356976D01*
X10464643Y-15347452D01*
X10455119Y-15337928D01*
X10445595Y-15318881D01*
X10436071Y-15280786D01*
X10436071Y-15233167D01*
X10445595Y-15195071D01*
X10455119Y-15176024D01*
X10464643Y-15166500D01*
X10483690Y-15156976D01*
X10674167Y-15156976D02*
X10693214Y-15156976D01*
X10712262Y-15166500D01*
X10721786Y-15176024D01*
X10731310Y-15195071D01*
X10740833Y-15233167D01*
X10740833Y-15280786D01*
X10731310Y-15318881D01*
X10721786Y-15337928D01*
X10712262Y-15347452D01*
X10693214Y-15356976D01*
X10674167Y-15356976D01*
X10655119Y-15347452D01*
X10645595Y-15337928D01*
X10636071Y-15318881D01*
X10626548Y-15280786D01*
X10626548Y-15233167D01*
X10636071Y-15195071D01*
X10645595Y-15176024D01*
X10655119Y-15166500D01*
X10674167Y-15156976D01*
X10807500Y-15156976D02*
X10940833Y-15156976D01*
X10855119Y-15356976D01*
X11026548Y-15356976D02*
X11064643Y-15356976D01*
X11083690Y-15347452D01*
X11093214Y-15337928D01*
X11112262Y-15309357D01*
X11121786Y-15271262D01*
X11121786Y-15195071D01*
X11112262Y-15176024D01*
X11102738Y-15166500D01*
X11083690Y-15156976D01*
X11045595Y-15156976D01*
X11026548Y-15166500D01*
X11017024Y-15176024D01*
X11007500Y-15195071D01*
X11007500Y-15242690D01*
X11017024Y-15261738D01*
X11026548Y-15271262D01*
X11045595Y-15280786D01*
X11083690Y-15280786D01*
X11102738Y-15271262D01*
X11112262Y-15261738D01*
X11121786Y-15242690D01*
X11197976Y-15156976D02*
X11197976Y-15195071D01*
X11274167Y-15156976D02*
X11274167Y-15195071D01*
X11569405Y-15433167D02*
X11559881Y-15423643D01*
X11540833Y-15395071D01*
X11531309Y-15376024D01*
X11521786Y-15347452D01*
X11512262Y-15299833D01*
X11512262Y-15261738D01*
X11521786Y-15214119D01*
X11531309Y-15185548D01*
X11540833Y-15166500D01*
X11559881Y-15137928D01*
X11569405Y-15128405D01*
X11674167Y-15242690D02*
X11655119Y-15233167D01*
X11645595Y-15223643D01*
X11636071Y-15204595D01*
X11636071Y-15195071D01*
X11645595Y-15176024D01*
X11655119Y-15166500D01*
X11674167Y-15156976D01*
X11712262Y-15156976D01*
X11731309Y-15166500D01*
X11740833Y-15176024D01*
X11750357Y-15195071D01*
X11750357Y-15204595D01*
X11740833Y-15223643D01*
X11731309Y-15233167D01*
X11712262Y-15242690D01*
X11674167Y-15242690D01*
X11655119Y-15252214D01*
X11645595Y-15261738D01*
X11636071Y-15280786D01*
X11636071Y-15318881D01*
X11645595Y-15337928D01*
X11655119Y-15347452D01*
X11674167Y-15356976D01*
X11712262Y-15356976D01*
X11731309Y-15347452D01*
X11740833Y-15337928D01*
X11750357Y-15318881D01*
X11750357Y-15280786D01*
X11740833Y-15261738D01*
X11731309Y-15252214D01*
X11712262Y-15242690D01*
X11988452Y-15356976D02*
X11988452Y-15156976D01*
X12074167Y-15356976D02*
X12074167Y-15252214D01*
X12064643Y-15233167D01*
X12045595Y-15223643D01*
X12017024Y-15223643D01*
X11997976Y-15233167D01*
X11988452Y-15242690D01*
X12197976Y-15356976D02*
X12178928Y-15347452D01*
X12169405Y-15337928D01*
X12159881Y-15318881D01*
X12159881Y-15261738D01*
X12169405Y-15242690D01*
X12178928Y-15233167D01*
X12197976Y-15223643D01*
X12226548Y-15223643D01*
X12245595Y-15233167D01*
X12255119Y-15242690D01*
X12264643Y-15261738D01*
X12264643Y-15318881D01*
X12255119Y-15337928D01*
X12245595Y-15347452D01*
X12226548Y-15356976D01*
X12197976Y-15356976D01*
X12378928Y-15356976D02*
X12359881Y-15347452D01*
X12350357Y-15328405D01*
X12350357Y-15156976D01*
X12531309Y-15347452D02*
X12512262Y-15356976D01*
X12474167Y-15356976D01*
X12455119Y-15347452D01*
X12445595Y-15328405D01*
X12445595Y-15252214D01*
X12455119Y-15233167D01*
X12474167Y-15223643D01*
X12512262Y-15223643D01*
X12531309Y-15233167D01*
X12540833Y-15252214D01*
X12540833Y-15271262D01*
X12445595Y-15290309D01*
X12617024Y-15347452D02*
X12636071Y-15356976D01*
X12674167Y-15356976D01*
X12693214Y-15347452D01*
X12702738Y-15328405D01*
X12702738Y-15318881D01*
X12693214Y-15299833D01*
X12674167Y-15290309D01*
X12645595Y-15290309D01*
X12626548Y-15280786D01*
X12617024Y-15261738D01*
X12617024Y-15252214D01*
X12626548Y-15233167D01*
X12645595Y-15223643D01*
X12674167Y-15223643D01*
X12693214Y-15233167D01*
X12769405Y-15433167D02*
X12778928Y-15423643D01*
X12797976Y-15395071D01*
X12807500Y-15376024D01*
X12817024Y-15347452D01*
X12826548Y-15299833D01*
X12826548Y-15261738D01*
X12817024Y-15214119D01*
X12807500Y-15185548D01*
X12797976Y-15166500D01*
X12778928Y-15137928D01*
X12769405Y-15128405D01*
D13*
X7977500Y-15510500D02*
X7977500Y-15550500D01*
X7957500Y-15530500D02*
X7997500Y-15530500D01*
D11*
X8293214Y-15420976D02*
X8312262Y-15420976D01*
X8331309Y-15430500D01*
X8340833Y-15440024D01*
X8350357Y-15459071D01*
X8359881Y-15497167D01*
X8359881Y-15544786D01*
X8350357Y-15582881D01*
X8340833Y-15601928D01*
X8331309Y-15611452D01*
X8312262Y-15620976D01*
X8293214Y-15620976D01*
X8274167Y-15611452D01*
X8264643Y-15601928D01*
X8255119Y-15582881D01*
X8245595Y-15544786D01*
X8245595Y-15497167D01*
X8255119Y-15459071D01*
X8264643Y-15440024D01*
X8274167Y-15430500D01*
X8293214Y-15420976D01*
X8445595Y-15601928D02*
X8455119Y-15611452D01*
X8445595Y-15620976D01*
X8436071Y-15611452D01*
X8445595Y-15601928D01*
X8445595Y-15620976D01*
X8626548Y-15487643D02*
X8626548Y-15620976D01*
X8578929Y-15411452D02*
X8531310Y-15554309D01*
X8655119Y-15554309D01*
X8769405Y-15420976D02*
X8788452Y-15420976D01*
X8807500Y-15430500D01*
X8817024Y-15440024D01*
X8826548Y-15459071D01*
X8836071Y-15497167D01*
X8836071Y-15544786D01*
X8826548Y-15582881D01*
X8817024Y-15601928D01*
X8807500Y-15611452D01*
X8788452Y-15620976D01*
X8769405Y-15620976D01*
X8750357Y-15611452D01*
X8740833Y-15601928D01*
X8731310Y-15582881D01*
X8721786Y-15544786D01*
X8721786Y-15497167D01*
X8731310Y-15459071D01*
X8740833Y-15440024D01*
X8750357Y-15430500D01*
X8769405Y-15420976D01*
X8959881Y-15420976D02*
X8978929Y-15420976D01*
X8997976Y-15430500D01*
X9007500Y-15440024D01*
X9017024Y-15459071D01*
X9026548Y-15497167D01*
X9026548Y-15544786D01*
X9017024Y-15582881D01*
X9007500Y-15601928D01*
X8997976Y-15611452D01*
X8978929Y-15620976D01*
X8959881Y-15620976D01*
X8940833Y-15611452D01*
X8931310Y-15601928D01*
X8921786Y-15582881D01*
X8912262Y-15544786D01*
X8912262Y-15497167D01*
X8921786Y-15459071D01*
X8931310Y-15440024D01*
X8940833Y-15430500D01*
X8959881Y-15420976D01*
X9112262Y-15620976D02*
X9112262Y-15487643D01*
X9112262Y-15506690D02*
X9121786Y-15497167D01*
X9140833Y-15487643D01*
X9169405Y-15487643D01*
X9188452Y-15497167D01*
X9197976Y-15516214D01*
X9197976Y-15620976D01*
X9197976Y-15516214D02*
X9207500Y-15497167D01*
X9226548Y-15487643D01*
X9255119Y-15487643D01*
X9274167Y-15497167D01*
X9283690Y-15516214D01*
X9283690Y-15620976D01*
X9378929Y-15620976D02*
X9378929Y-15487643D01*
X9378929Y-15506690D02*
X9388452Y-15497167D01*
X9407500Y-15487643D01*
X9436071Y-15487643D01*
X9455119Y-15497167D01*
X9464643Y-15516214D01*
X9464643Y-15620976D01*
X9464643Y-15516214D02*
X9474167Y-15497167D01*
X9493214Y-15487643D01*
X9521786Y-15487643D01*
X9540833Y-15497167D01*
X9550357Y-15516214D01*
X9550357Y-15620976D01*
X9940833Y-15411452D02*
X9769405Y-15668595D01*
X10197976Y-15420976D02*
X10217024Y-15420976D01*
X10236071Y-15430500D01*
X10245595Y-15440024D01*
X10255119Y-15459071D01*
X10264643Y-15497167D01*
X10264643Y-15544786D01*
X10255119Y-15582881D01*
X10245595Y-15601928D01*
X10236071Y-15611452D01*
X10217024Y-15620976D01*
X10197976Y-15620976D01*
X10178929Y-15611452D01*
X10169405Y-15601928D01*
X10159881Y-15582881D01*
X10150357Y-15544786D01*
X10150357Y-15497167D01*
X10159881Y-15459071D01*
X10169405Y-15440024D01*
X10178929Y-15430500D01*
X10197976Y-15420976D01*
X10350357Y-15601928D02*
X10359881Y-15611452D01*
X10350357Y-15620976D01*
X10340833Y-15611452D01*
X10350357Y-15601928D01*
X10350357Y-15620976D01*
X10483690Y-15420976D02*
X10502738Y-15420976D01*
X10521786Y-15430500D01*
X10531310Y-15440024D01*
X10540833Y-15459071D01*
X10550357Y-15497167D01*
X10550357Y-15544786D01*
X10540833Y-15582881D01*
X10531310Y-15601928D01*
X10521786Y-15611452D01*
X10502738Y-15620976D01*
X10483690Y-15620976D01*
X10464643Y-15611452D01*
X10455119Y-15601928D01*
X10445595Y-15582881D01*
X10436071Y-15544786D01*
X10436071Y-15497167D01*
X10445595Y-15459071D01*
X10455119Y-15440024D01*
X10464643Y-15430500D01*
X10483690Y-15420976D01*
X10740833Y-15620976D02*
X10626548Y-15620976D01*
X10683690Y-15620976D02*
X10683690Y-15420976D01*
X10664643Y-15449548D01*
X10645595Y-15468595D01*
X10626548Y-15478119D01*
X10921786Y-15420976D02*
X10826548Y-15420976D01*
X10817024Y-15516214D01*
X10826548Y-15506690D01*
X10845595Y-15497167D01*
X10893214Y-15497167D01*
X10912262Y-15506690D01*
X10921786Y-15516214D01*
X10931310Y-15535262D01*
X10931310Y-15582881D01*
X10921786Y-15601928D01*
X10912262Y-15611452D01*
X10893214Y-15620976D01*
X10845595Y-15620976D01*
X10826548Y-15611452D01*
X10817024Y-15601928D01*
X10997976Y-15420976D02*
X11131310Y-15420976D01*
X11045595Y-15620976D01*
X11197976Y-15420976D02*
X11197976Y-15459071D01*
X11274167Y-15420976D02*
X11274167Y-15459071D01*
X11569405Y-15697167D02*
X11559881Y-15687643D01*
X11540833Y-15659071D01*
X11531309Y-15640024D01*
X11521786Y-15611452D01*
X11512262Y-15563833D01*
X11512262Y-15525738D01*
X11521786Y-15478119D01*
X11531309Y-15449548D01*
X11540833Y-15430500D01*
X11559881Y-15401928D01*
X11569405Y-15392405D01*
X11750357Y-15620976D02*
X11636071Y-15620976D01*
X11693214Y-15620976D02*
X11693214Y-15420976D01*
X11674167Y-15449548D01*
X11655119Y-15468595D01*
X11636071Y-15478119D01*
X11817024Y-15420976D02*
X11940833Y-15420976D01*
X11874167Y-15497167D01*
X11902738Y-15497167D01*
X11921786Y-15506690D01*
X11931309Y-15516214D01*
X11940833Y-15535262D01*
X11940833Y-15582881D01*
X11931309Y-15601928D01*
X11921786Y-15611452D01*
X11902738Y-15620976D01*
X11845595Y-15620976D01*
X11826548Y-15611452D01*
X11817024Y-15601928D01*
X12036071Y-15620976D02*
X12074167Y-15620976D01*
X12093214Y-15611452D01*
X12102738Y-15601928D01*
X12121786Y-15573357D01*
X12131309Y-15535262D01*
X12131309Y-15459071D01*
X12121786Y-15440024D01*
X12112262Y-15430500D01*
X12093214Y-15420976D01*
X12055119Y-15420976D01*
X12036071Y-15430500D01*
X12026548Y-15440024D01*
X12017024Y-15459071D01*
X12017024Y-15506690D01*
X12026548Y-15525738D01*
X12036071Y-15535262D01*
X12055119Y-15544786D01*
X12093214Y-15544786D01*
X12112262Y-15535262D01*
X12121786Y-15525738D01*
X12131309Y-15506690D01*
X12369405Y-15620976D02*
X12369405Y-15420976D01*
X12455119Y-15620976D02*
X12455119Y-15516214D01*
X12445595Y-15497167D01*
X12426548Y-15487643D01*
X12397976Y-15487643D01*
X12378928Y-15497167D01*
X12369405Y-15506690D01*
X12578928Y-15620976D02*
X12559881Y-15611452D01*
X12550357Y-15601928D01*
X12540833Y-15582881D01*
X12540833Y-15525738D01*
X12550357Y-15506690D01*
X12559881Y-15497167D01*
X12578928Y-15487643D01*
X12607500Y-15487643D01*
X12626548Y-15497167D01*
X12636071Y-15506690D01*
X12645595Y-15525738D01*
X12645595Y-15582881D01*
X12636071Y-15601928D01*
X12626548Y-15611452D01*
X12607500Y-15620976D01*
X12578928Y-15620976D01*
X12759881Y-15620976D02*
X12740833Y-15611452D01*
X12731309Y-15592405D01*
X12731309Y-15420976D01*
X12912262Y-15611452D02*
X12893214Y-15620976D01*
X12855119Y-15620976D01*
X12836071Y-15611452D01*
X12826548Y-15592405D01*
X12826548Y-15516214D01*
X12836071Y-15497167D01*
X12855119Y-15487643D01*
X12893214Y-15487643D01*
X12912262Y-15497167D01*
X12921786Y-15516214D01*
X12921786Y-15535262D01*
X12826548Y-15554309D01*
X12997976Y-15611452D02*
X13017024Y-15620976D01*
X13055119Y-15620976D01*
X13074167Y-15611452D01*
X13083690Y-15592405D01*
X13083690Y-15582881D01*
X13074167Y-15563833D01*
X13055119Y-15554309D01*
X13026548Y-15554309D01*
X13007500Y-15544786D01*
X12997976Y-15525738D01*
X12997976Y-15516214D01*
X13007500Y-15497167D01*
X13026548Y-15487643D01*
X13055119Y-15487643D01*
X13074167Y-15497167D01*
X13150357Y-15697167D02*
X13159881Y-15687643D01*
X13178928Y-15659071D01*
X13188452Y-15640024D01*
X13197976Y-15611452D01*
X13207500Y-15563833D01*
X13207500Y-15525738D01*
X13197976Y-15478119D01*
X13188452Y-15449548D01*
X13178928Y-15430500D01*
X13159881Y-15401928D01*
X13150357Y-15392405D01*
D10*
X7990178Y-15812178D02*
X7990178Y-15776822D01*
X7954822Y-15776822D01*
X7954822Y-15812178D01*
X7990178Y-15812178D01*
D11*
X8293214Y-15684976D02*
X8312262Y-15684976D01*
X8331309Y-15694500D01*
X8340833Y-15704024D01*
X8350357Y-15723071D01*
X8359881Y-15761167D01*
X8359881Y-15808786D01*
X8350357Y-15846881D01*
X8340833Y-15865928D01*
X8331309Y-15875452D01*
X8312262Y-15884976D01*
X8293214Y-15884976D01*
X8274167Y-15875452D01*
X8264643Y-15865928D01*
X8255119Y-15846881D01*
X8245595Y-15808786D01*
X8245595Y-15761167D01*
X8255119Y-15723071D01*
X8264643Y-15704024D01*
X8274167Y-15694500D01*
X8293214Y-15684976D01*
X8445595Y-15865928D02*
X8455119Y-15875452D01*
X8445595Y-15884976D01*
X8436071Y-15875452D01*
X8445595Y-15865928D01*
X8445595Y-15884976D01*
X8636071Y-15684976D02*
X8540833Y-15684976D01*
X8531310Y-15780214D01*
X8540833Y-15770690D01*
X8559881Y-15761167D01*
X8607500Y-15761167D01*
X8626548Y-15770690D01*
X8636071Y-15780214D01*
X8645595Y-15799262D01*
X8645595Y-15846881D01*
X8636071Y-15865928D01*
X8626548Y-15875452D01*
X8607500Y-15884976D01*
X8559881Y-15884976D01*
X8540833Y-15875452D01*
X8531310Y-15865928D01*
X8769405Y-15684976D02*
X8788452Y-15684976D01*
X8807500Y-15694500D01*
X8817024Y-15704024D01*
X8826548Y-15723071D01*
X8836071Y-15761167D01*
X8836071Y-15808786D01*
X8826548Y-15846881D01*
X8817024Y-15865928D01*
X8807500Y-15875452D01*
X8788452Y-15884976D01*
X8769405Y-15884976D01*
X8750357Y-15875452D01*
X8740833Y-15865928D01*
X8731310Y-15846881D01*
X8721786Y-15808786D01*
X8721786Y-15761167D01*
X8731310Y-15723071D01*
X8740833Y-15704024D01*
X8750357Y-15694500D01*
X8769405Y-15684976D01*
X8959881Y-15684976D02*
X8978929Y-15684976D01*
X8997976Y-15694500D01*
X9007500Y-15704024D01*
X9017024Y-15723071D01*
X9026548Y-15761167D01*
X9026548Y-15808786D01*
X9017024Y-15846881D01*
X9007500Y-15865928D01*
X8997976Y-15875452D01*
X8978929Y-15884976D01*
X8959881Y-15884976D01*
X8940833Y-15875452D01*
X8931310Y-15865928D01*
X8921786Y-15846881D01*
X8912262Y-15808786D01*
X8912262Y-15761167D01*
X8921786Y-15723071D01*
X8931310Y-15704024D01*
X8940833Y-15694500D01*
X8959881Y-15684976D01*
X9112262Y-15884976D02*
X9112262Y-15751643D01*
X9112262Y-15770690D02*
X9121786Y-15761167D01*
X9140833Y-15751643D01*
X9169405Y-15751643D01*
X9188452Y-15761167D01*
X9197976Y-15780214D01*
X9197976Y-15884976D01*
X9197976Y-15780214D02*
X9207500Y-15761167D01*
X9226548Y-15751643D01*
X9255119Y-15751643D01*
X9274167Y-15761167D01*
X9283690Y-15780214D01*
X9283690Y-15884976D01*
X9378929Y-15884976D02*
X9378929Y-15751643D01*
X9378929Y-15770690D02*
X9388452Y-15761167D01*
X9407500Y-15751643D01*
X9436071Y-15751643D01*
X9455119Y-15761167D01*
X9464643Y-15780214D01*
X9464643Y-15884976D01*
X9464643Y-15780214D02*
X9474167Y-15761167D01*
X9493214Y-15751643D01*
X9521786Y-15751643D01*
X9540833Y-15761167D01*
X9550357Y-15780214D01*
X9550357Y-15884976D01*
X9940833Y-15675452D02*
X9769405Y-15932595D01*
X10197976Y-15684976D02*
X10217024Y-15684976D01*
X10236071Y-15694500D01*
X10245595Y-15704024D01*
X10255119Y-15723071D01*
X10264643Y-15761167D01*
X10264643Y-15808786D01*
X10255119Y-15846881D01*
X10245595Y-15865928D01*
X10236071Y-15875452D01*
X10217024Y-15884976D01*
X10197976Y-15884976D01*
X10178929Y-15875452D01*
X10169405Y-15865928D01*
X10159881Y-15846881D01*
X10150357Y-15808786D01*
X10150357Y-15761167D01*
X10159881Y-15723071D01*
X10169405Y-15704024D01*
X10178929Y-15694500D01*
X10197976Y-15684976D01*
X10350357Y-15865928D02*
X10359881Y-15875452D01*
X10350357Y-15884976D01*
X10340833Y-15875452D01*
X10350357Y-15865928D01*
X10350357Y-15884976D01*
X10483690Y-15684976D02*
X10502738Y-15684976D01*
X10521786Y-15694500D01*
X10531310Y-15704024D01*
X10540833Y-15723071D01*
X10550357Y-15761167D01*
X10550357Y-15808786D01*
X10540833Y-15846881D01*
X10531310Y-15865928D01*
X10521786Y-15875452D01*
X10502738Y-15884976D01*
X10483690Y-15884976D01*
X10464643Y-15875452D01*
X10455119Y-15865928D01*
X10445595Y-15846881D01*
X10436071Y-15808786D01*
X10436071Y-15761167D01*
X10445595Y-15723071D01*
X10455119Y-15704024D01*
X10464643Y-15694500D01*
X10483690Y-15684976D01*
X10740833Y-15884976D02*
X10626548Y-15884976D01*
X10683690Y-15884976D02*
X10683690Y-15684976D01*
X10664643Y-15713548D01*
X10645595Y-15732595D01*
X10626548Y-15742119D01*
X10836071Y-15884976D02*
X10874167Y-15884976D01*
X10893214Y-15875452D01*
X10902738Y-15865928D01*
X10921786Y-15837357D01*
X10931310Y-15799262D01*
X10931310Y-15723071D01*
X10921786Y-15704024D01*
X10912262Y-15694500D01*
X10893214Y-15684976D01*
X10855119Y-15684976D01*
X10836071Y-15694500D01*
X10826548Y-15704024D01*
X10817024Y-15723071D01*
X10817024Y-15770690D01*
X10826548Y-15789738D01*
X10836071Y-15799262D01*
X10855119Y-15808786D01*
X10893214Y-15808786D01*
X10912262Y-15799262D01*
X10921786Y-15789738D01*
X10931310Y-15770690D01*
X10997976Y-15684976D02*
X11131310Y-15684976D01*
X11045595Y-15884976D01*
X11197976Y-15684976D02*
X11197976Y-15723071D01*
X11274167Y-15684976D02*
X11274167Y-15723071D01*
X11569405Y-15961167D02*
X11559881Y-15951643D01*
X11540833Y-15923071D01*
X11531309Y-15904024D01*
X11521786Y-15875452D01*
X11512262Y-15827833D01*
X11512262Y-15789738D01*
X11521786Y-15742119D01*
X11531309Y-15713548D01*
X11540833Y-15694500D01*
X11559881Y-15665928D01*
X11569405Y-15656405D01*
X11636071Y-15704024D02*
X11645595Y-15694500D01*
X11664643Y-15684976D01*
X11712262Y-15684976D01*
X11731309Y-15694500D01*
X11740833Y-15704024D01*
X11750357Y-15723071D01*
X11750357Y-15742119D01*
X11740833Y-15770690D01*
X11626548Y-15884976D01*
X11750357Y-15884976D01*
X11845595Y-15884976D02*
X11883690Y-15884976D01*
X11902738Y-15875452D01*
X11912262Y-15865928D01*
X11931309Y-15837357D01*
X11940833Y-15799262D01*
X11940833Y-15723071D01*
X11931309Y-15704024D01*
X11921786Y-15694500D01*
X11902738Y-15684976D01*
X11864643Y-15684976D01*
X11845595Y-15694500D01*
X11836071Y-15704024D01*
X11826548Y-15723071D01*
X11826548Y-15770690D01*
X11836071Y-15789738D01*
X11845595Y-15799262D01*
X11864643Y-15808786D01*
X11902738Y-15808786D01*
X11921786Y-15799262D01*
X11931309Y-15789738D01*
X11940833Y-15770690D01*
X12178928Y-15884976D02*
X12178928Y-15684976D01*
X12264643Y-15884976D02*
X12264643Y-15780214D01*
X12255119Y-15761167D01*
X12236071Y-15751643D01*
X12207500Y-15751643D01*
X12188452Y-15761167D01*
X12178928Y-15770690D01*
X12388452Y-15884976D02*
X12369405Y-15875452D01*
X12359881Y-15865928D01*
X12350357Y-15846881D01*
X12350357Y-15789738D01*
X12359881Y-15770690D01*
X12369405Y-15761167D01*
X12388452Y-15751643D01*
X12417024Y-15751643D01*
X12436071Y-15761167D01*
X12445595Y-15770690D01*
X12455119Y-15789738D01*
X12455119Y-15846881D01*
X12445595Y-15865928D01*
X12436071Y-15875452D01*
X12417024Y-15884976D01*
X12388452Y-15884976D01*
X12569405Y-15884976D02*
X12550357Y-15875452D01*
X12540833Y-15856405D01*
X12540833Y-15684976D01*
X12721786Y-15875452D02*
X12702738Y-15884976D01*
X12664643Y-15884976D01*
X12645595Y-15875452D01*
X12636071Y-15856405D01*
X12636071Y-15780214D01*
X12645595Y-15761167D01*
X12664643Y-15751643D01*
X12702738Y-15751643D01*
X12721786Y-15761167D01*
X12731309Y-15780214D01*
X12731309Y-15799262D01*
X12636071Y-15818309D01*
X12807500Y-15875452D02*
X12826548Y-15884976D01*
X12864643Y-15884976D01*
X12883690Y-15875452D01*
X12893214Y-15856405D01*
X12893214Y-15846881D01*
X12883690Y-15827833D01*
X12864643Y-15818309D01*
X12836071Y-15818309D01*
X12817024Y-15808786D01*
X12807500Y-15789738D01*
X12807500Y-15780214D01*
X12817024Y-15761167D01*
X12836071Y-15751643D01*
X12864643Y-15751643D01*
X12883690Y-15761167D01*
X12959881Y-15961167D02*
X12969405Y-15951643D01*
X12988452Y-15923071D01*
X12997976Y-15904024D01*
X13007500Y-15875452D01*
X13017024Y-15827833D01*
X13017024Y-15789738D01*
X13007500Y-15742119D01*
X12997976Y-15713548D01*
X12988452Y-15694500D01*
X12969405Y-15665928D01*
X12959881Y-15656405D01*
D14*
X7967500Y-16088500D02*
X7997500Y-16058500D01*
X7967500Y-16028500D01*
X7937500Y-16058500D01*
X7967500Y-16088500D01*
D11*
X8293214Y-15948976D02*
X8312262Y-15948976D01*
X8331309Y-15958500D01*
X8340833Y-15968024D01*
X8350357Y-15987071D01*
X8359881Y-16025167D01*
X8359881Y-16072786D01*
X8350357Y-16110881D01*
X8340833Y-16129928D01*
X8331309Y-16139452D01*
X8312262Y-16148976D01*
X8293214Y-16148976D01*
X8274167Y-16139452D01*
X8264643Y-16129928D01*
X8255119Y-16110881D01*
X8245595Y-16072786D01*
X8245595Y-16025167D01*
X8255119Y-15987071D01*
X8264643Y-15968024D01*
X8274167Y-15958500D01*
X8293214Y-15948976D01*
X8445595Y-16129928D02*
X8455119Y-16139452D01*
X8445595Y-16148976D01*
X8436071Y-16139452D01*
X8445595Y-16129928D01*
X8445595Y-16148976D01*
X8626548Y-15948976D02*
X8588452Y-15948976D01*
X8569405Y-15958500D01*
X8559881Y-15968024D01*
X8540833Y-15996595D01*
X8531310Y-16034690D01*
X8531310Y-16110881D01*
X8540833Y-16129928D01*
X8550357Y-16139452D01*
X8569405Y-16148976D01*
X8607500Y-16148976D01*
X8626548Y-16139452D01*
X8636071Y-16129928D01*
X8645595Y-16110881D01*
X8645595Y-16063262D01*
X8636071Y-16044214D01*
X8626548Y-16034690D01*
X8607500Y-16025167D01*
X8569405Y-16025167D01*
X8550357Y-16034690D01*
X8540833Y-16044214D01*
X8531310Y-16063262D01*
X8769405Y-15948976D02*
X8788452Y-15948976D01*
X8807500Y-15958500D01*
X8817024Y-15968024D01*
X8826548Y-15987071D01*
X8836071Y-16025167D01*
X8836071Y-16072786D01*
X8826548Y-16110881D01*
X8817024Y-16129928D01*
X8807500Y-16139452D01*
X8788452Y-16148976D01*
X8769405Y-16148976D01*
X8750357Y-16139452D01*
X8740833Y-16129928D01*
X8731310Y-16110881D01*
X8721786Y-16072786D01*
X8721786Y-16025167D01*
X8731310Y-15987071D01*
X8740833Y-15968024D01*
X8750357Y-15958500D01*
X8769405Y-15948976D01*
X8959881Y-15948976D02*
X8978929Y-15948976D01*
X8997976Y-15958500D01*
X9007500Y-15968024D01*
X9017024Y-15987071D01*
X9026548Y-16025167D01*
X9026548Y-16072786D01*
X9017024Y-16110881D01*
X9007500Y-16129928D01*
X8997976Y-16139452D01*
X8978929Y-16148976D01*
X8959881Y-16148976D01*
X8940833Y-16139452D01*
X8931310Y-16129928D01*
X8921786Y-16110881D01*
X8912262Y-16072786D01*
X8912262Y-16025167D01*
X8921786Y-15987071D01*
X8931310Y-15968024D01*
X8940833Y-15958500D01*
X8959881Y-15948976D01*
X9112262Y-16148976D02*
X9112262Y-16015643D01*
X9112262Y-16034690D02*
X9121786Y-16025167D01*
X9140833Y-16015643D01*
X9169405Y-16015643D01*
X9188452Y-16025167D01*
X9197976Y-16044214D01*
X9197976Y-16148976D01*
X9197976Y-16044214D02*
X9207500Y-16025167D01*
X9226548Y-16015643D01*
X9255119Y-16015643D01*
X9274167Y-16025167D01*
X9283690Y-16044214D01*
X9283690Y-16148976D01*
X9378929Y-16148976D02*
X9378929Y-16015643D01*
X9378929Y-16034690D02*
X9388452Y-16025167D01*
X9407500Y-16015643D01*
X9436071Y-16015643D01*
X9455119Y-16025167D01*
X9464643Y-16044214D01*
X9464643Y-16148976D01*
X9464643Y-16044214D02*
X9474167Y-16025167D01*
X9493214Y-16015643D01*
X9521786Y-16015643D01*
X9540833Y-16025167D01*
X9550357Y-16044214D01*
X9550357Y-16148976D01*
X9940833Y-15939452D02*
X9769405Y-16196595D01*
X10197976Y-15948976D02*
X10217024Y-15948976D01*
X10236071Y-15958500D01*
X10245595Y-15968024D01*
X10255119Y-15987071D01*
X10264643Y-16025167D01*
X10264643Y-16072786D01*
X10255119Y-16110881D01*
X10245595Y-16129928D01*
X10236071Y-16139452D01*
X10217024Y-16148976D01*
X10197976Y-16148976D01*
X10178929Y-16139452D01*
X10169405Y-16129928D01*
X10159881Y-16110881D01*
X10150357Y-16072786D01*
X10150357Y-16025167D01*
X10159881Y-15987071D01*
X10169405Y-15968024D01*
X10178929Y-15958500D01*
X10197976Y-15948976D01*
X10350357Y-16129928D02*
X10359881Y-16139452D01*
X10350357Y-16148976D01*
X10340833Y-16139452D01*
X10350357Y-16129928D01*
X10350357Y-16148976D01*
X10483690Y-15948976D02*
X10502738Y-15948976D01*
X10521786Y-15958500D01*
X10531310Y-15968024D01*
X10540833Y-15987071D01*
X10550357Y-16025167D01*
X10550357Y-16072786D01*
X10540833Y-16110881D01*
X10531310Y-16129928D01*
X10521786Y-16139452D01*
X10502738Y-16148976D01*
X10483690Y-16148976D01*
X10464643Y-16139452D01*
X10455119Y-16129928D01*
X10445595Y-16110881D01*
X10436071Y-16072786D01*
X10436071Y-16025167D01*
X10445595Y-15987071D01*
X10455119Y-15968024D01*
X10464643Y-15958500D01*
X10483690Y-15948976D01*
X10626548Y-15968024D02*
X10636071Y-15958500D01*
X10655119Y-15948976D01*
X10702738Y-15948976D01*
X10721786Y-15958500D01*
X10731310Y-15968024D01*
X10740833Y-15987071D01*
X10740833Y-16006119D01*
X10731310Y-16034690D01*
X10617024Y-16148976D01*
X10740833Y-16148976D01*
X10807500Y-15948976D02*
X10931310Y-15948976D01*
X10864643Y-16025167D01*
X10893214Y-16025167D01*
X10912262Y-16034690D01*
X10921786Y-16044214D01*
X10931310Y-16063262D01*
X10931310Y-16110881D01*
X10921786Y-16129928D01*
X10912262Y-16139452D01*
X10893214Y-16148976D01*
X10836071Y-16148976D01*
X10817024Y-16139452D01*
X10807500Y-16129928D01*
X11102738Y-15948976D02*
X11064643Y-15948976D01*
X11045595Y-15958500D01*
X11036071Y-15968024D01*
X11017024Y-15996595D01*
X11007500Y-16034690D01*
X11007500Y-16110881D01*
X11017024Y-16129928D01*
X11026548Y-16139452D01*
X11045595Y-16148976D01*
X11083690Y-16148976D01*
X11102738Y-16139452D01*
X11112262Y-16129928D01*
X11121786Y-16110881D01*
X11121786Y-16063262D01*
X11112262Y-16044214D01*
X11102738Y-16034690D01*
X11083690Y-16025167D01*
X11045595Y-16025167D01*
X11026548Y-16034690D01*
X11017024Y-16044214D01*
X11007500Y-16063262D01*
X11197976Y-15948976D02*
X11197976Y-15987071D01*
X11274167Y-15948976D02*
X11274167Y-15987071D01*
X11569405Y-16225167D02*
X11559881Y-16215643D01*
X11540833Y-16187071D01*
X11531309Y-16168024D01*
X11521786Y-16139452D01*
X11512262Y-16091833D01*
X11512262Y-16053738D01*
X11521786Y-16006119D01*
X11531309Y-15977548D01*
X11540833Y-15958500D01*
X11559881Y-15929928D01*
X11569405Y-15920405D01*
X11683690Y-15948976D02*
X11702738Y-15948976D01*
X11721786Y-15958500D01*
X11731309Y-15968024D01*
X11740833Y-15987071D01*
X11750357Y-16025167D01*
X11750357Y-16072786D01*
X11740833Y-16110881D01*
X11731309Y-16129928D01*
X11721786Y-16139452D01*
X11702738Y-16148976D01*
X11683690Y-16148976D01*
X11664643Y-16139452D01*
X11655119Y-16129928D01*
X11645595Y-16110881D01*
X11636071Y-16072786D01*
X11636071Y-16025167D01*
X11645595Y-15987071D01*
X11655119Y-15968024D01*
X11664643Y-15958500D01*
X11683690Y-15948976D01*
X11988452Y-16148976D02*
X11988452Y-15948976D01*
X12074167Y-16148976D02*
X12074167Y-16044214D01*
X12064643Y-16025167D01*
X12045595Y-16015643D01*
X12017024Y-16015643D01*
X11997976Y-16025167D01*
X11988452Y-16034690D01*
X12197976Y-16148976D02*
X12178928Y-16139452D01*
X12169405Y-16129928D01*
X12159881Y-16110881D01*
X12159881Y-16053738D01*
X12169405Y-16034690D01*
X12178928Y-16025167D01*
X12197976Y-16015643D01*
X12226548Y-16015643D01*
X12245595Y-16025167D01*
X12255119Y-16034690D01*
X12264643Y-16053738D01*
X12264643Y-16110881D01*
X12255119Y-16129928D01*
X12245595Y-16139452D01*
X12226548Y-16148976D01*
X12197976Y-16148976D01*
X12378928Y-16148976D02*
X12359881Y-16139452D01*
X12350357Y-16120405D01*
X12350357Y-15948976D01*
X12531309Y-16139452D02*
X12512262Y-16148976D01*
X12474167Y-16148976D01*
X12455119Y-16139452D01*
X12445595Y-16120405D01*
X12445595Y-16044214D01*
X12455119Y-16025167D01*
X12474167Y-16015643D01*
X12512262Y-16015643D01*
X12531309Y-16025167D01*
X12540833Y-16044214D01*
X12540833Y-16063262D01*
X12445595Y-16082309D01*
X12617024Y-16139452D02*
X12636071Y-16148976D01*
X12674167Y-16148976D01*
X12693214Y-16139452D01*
X12702738Y-16120405D01*
X12702738Y-16110881D01*
X12693214Y-16091833D01*
X12674167Y-16082309D01*
X12645595Y-16082309D01*
X12626548Y-16072786D01*
X12617024Y-16053738D01*
X12617024Y-16044214D01*
X12626548Y-16025167D01*
X12645595Y-16015643D01*
X12674167Y-16015643D01*
X12693214Y-16025167D01*
X12940833Y-16072786D02*
X13093214Y-16072786D01*
X13017024Y-16148976D02*
X13017024Y-15996595D01*
X13331309Y-15968024D02*
X13340833Y-15958500D01*
X13359881Y-15948976D01*
X13407500Y-15948976D01*
X13426548Y-15958500D01*
X13436071Y-15968024D01*
X13445595Y-15987071D01*
X13445595Y-16006119D01*
X13436071Y-16034690D01*
X13321786Y-16148976D01*
X13445595Y-16148976D01*
X13674167Y-16139452D02*
X13693214Y-16148976D01*
X13731309Y-16148976D01*
X13750357Y-16139452D01*
X13759881Y-16120405D01*
X13759881Y-16110881D01*
X13750357Y-16091833D01*
X13731309Y-16082309D01*
X13702738Y-16082309D01*
X13683690Y-16072786D01*
X13674167Y-16053738D01*
X13674167Y-16044214D01*
X13683690Y-16025167D01*
X13702738Y-16015643D01*
X13731309Y-16015643D01*
X13750357Y-16025167D01*
X13874167Y-16148976D02*
X13855119Y-16139452D01*
X13845595Y-16120405D01*
X13845595Y-15948976D01*
X13978928Y-16148976D02*
X13959881Y-16139452D01*
X13950357Y-16129928D01*
X13940833Y-16110881D01*
X13940833Y-16053738D01*
X13950357Y-16034690D01*
X13959881Y-16025167D01*
X13978928Y-16015643D01*
X14007500Y-16015643D01*
X14026548Y-16025167D01*
X14036071Y-16034690D01*
X14045595Y-16053738D01*
X14045595Y-16110881D01*
X14036071Y-16129928D01*
X14026548Y-16139452D01*
X14007500Y-16148976D01*
X13978928Y-16148976D01*
X14102738Y-16015643D02*
X14178928Y-16015643D01*
X14131309Y-15948976D02*
X14131309Y-16120405D01*
X14140833Y-16139452D01*
X14159881Y-16148976D01*
X14178928Y-16148976D01*
X14236071Y-16139452D02*
X14255119Y-16148976D01*
X14293214Y-16148976D01*
X14312262Y-16139452D01*
X14321786Y-16120405D01*
X14321786Y-16110881D01*
X14312262Y-16091833D01*
X14293214Y-16082309D01*
X14264643Y-16082309D01*
X14245595Y-16072786D01*
X14236071Y-16053738D01*
X14236071Y-16044214D01*
X14245595Y-16025167D01*
X14264643Y-16015643D01*
X14293214Y-16015643D01*
X14312262Y-16025167D01*
X14388452Y-16225167D02*
X14397976Y-16215643D01*
X14417024Y-16187071D01*
X14426548Y-16168024D01*
X14436071Y-16139452D01*
X14445595Y-16091833D01*
X14445595Y-16053738D01*
X14436071Y-16006119D01*
X14426548Y-15977548D01*
X14417024Y-15958500D01*
X14397976Y-15929928D01*
X14388452Y-15920405D01*
D15*
X7912500Y-16280000D02*
X7997500Y-16365000D01*
X7997500Y-16280000D02*
X7912500Y-16365000D01*
X7997500Y-16322500D02*
G75*
G03*
X7997500Y-16322500I-42500J0D01*
G01*
D11*
X8293214Y-16212976D02*
X8312262Y-16212976D01*
X8331309Y-16222500D01*
X8340833Y-16232024D01*
X8350357Y-16251071D01*
X8359881Y-16289167D01*
X8359881Y-16336786D01*
X8350357Y-16374881D01*
X8340833Y-16393928D01*
X8331309Y-16403452D01*
X8312262Y-16412976D01*
X8293214Y-16412976D01*
X8274167Y-16403452D01*
X8264643Y-16393928D01*
X8255119Y-16374881D01*
X8245595Y-16336786D01*
X8245595Y-16289167D01*
X8255119Y-16251071D01*
X8264643Y-16232024D01*
X8274167Y-16222500D01*
X8293214Y-16212976D01*
X8445595Y-16393928D02*
X8455119Y-16403452D01*
X8445595Y-16412976D01*
X8436071Y-16403452D01*
X8445595Y-16393928D01*
X8445595Y-16412976D01*
X8569405Y-16298690D02*
X8550357Y-16289167D01*
X8540833Y-16279643D01*
X8531310Y-16260595D01*
X8531310Y-16251071D01*
X8540833Y-16232024D01*
X8550357Y-16222500D01*
X8569405Y-16212976D01*
X8607500Y-16212976D01*
X8626548Y-16222500D01*
X8636071Y-16232024D01*
X8645595Y-16251071D01*
X8645595Y-16260595D01*
X8636071Y-16279643D01*
X8626548Y-16289167D01*
X8607500Y-16298690D01*
X8569405Y-16298690D01*
X8550357Y-16308214D01*
X8540833Y-16317738D01*
X8531310Y-16336786D01*
X8531310Y-16374881D01*
X8540833Y-16393928D01*
X8550357Y-16403452D01*
X8569405Y-16412976D01*
X8607500Y-16412976D01*
X8626548Y-16403452D01*
X8636071Y-16393928D01*
X8645595Y-16374881D01*
X8645595Y-16336786D01*
X8636071Y-16317738D01*
X8626548Y-16308214D01*
X8607500Y-16298690D01*
X8826548Y-16212976D02*
X8731310Y-16212976D01*
X8721786Y-16308214D01*
X8731310Y-16298690D01*
X8750357Y-16289167D01*
X8797976Y-16289167D01*
X8817024Y-16298690D01*
X8826548Y-16308214D01*
X8836071Y-16327262D01*
X8836071Y-16374881D01*
X8826548Y-16393928D01*
X8817024Y-16403452D01*
X8797976Y-16412976D01*
X8750357Y-16412976D01*
X8731310Y-16403452D01*
X8721786Y-16393928D01*
X8959881Y-16212976D02*
X8978929Y-16212976D01*
X8997976Y-16222500D01*
X9007500Y-16232024D01*
X9017024Y-16251071D01*
X9026548Y-16289167D01*
X9026548Y-16336786D01*
X9017024Y-16374881D01*
X9007500Y-16393928D01*
X8997976Y-16403452D01*
X8978929Y-16412976D01*
X8959881Y-16412976D01*
X8940833Y-16403452D01*
X8931310Y-16393928D01*
X8921786Y-16374881D01*
X8912262Y-16336786D01*
X8912262Y-16289167D01*
X8921786Y-16251071D01*
X8931310Y-16232024D01*
X8940833Y-16222500D01*
X8959881Y-16212976D01*
X9112262Y-16412976D02*
X9112262Y-16279643D01*
X9112262Y-16298690D02*
X9121786Y-16289167D01*
X9140833Y-16279643D01*
X9169405Y-16279643D01*
X9188452Y-16289167D01*
X9197976Y-16308214D01*
X9197976Y-16412976D01*
X9197976Y-16308214D02*
X9207500Y-16289167D01*
X9226548Y-16279643D01*
X9255119Y-16279643D01*
X9274167Y-16289167D01*
X9283690Y-16308214D01*
X9283690Y-16412976D01*
X9378929Y-16412976D02*
X9378929Y-16279643D01*
X9378929Y-16298690D02*
X9388452Y-16289167D01*
X9407500Y-16279643D01*
X9436071Y-16279643D01*
X9455119Y-16289167D01*
X9464643Y-16308214D01*
X9464643Y-16412976D01*
X9464643Y-16308214D02*
X9474167Y-16289167D01*
X9493214Y-16279643D01*
X9521786Y-16279643D01*
X9540833Y-16289167D01*
X9550357Y-16308214D01*
X9550357Y-16412976D01*
X9940833Y-16203452D02*
X9769405Y-16460595D01*
X10197976Y-16212976D02*
X10217024Y-16212976D01*
X10236071Y-16222500D01*
X10245595Y-16232024D01*
X10255119Y-16251071D01*
X10264643Y-16289167D01*
X10264643Y-16336786D01*
X10255119Y-16374881D01*
X10245595Y-16393928D01*
X10236071Y-16403452D01*
X10217024Y-16412976D01*
X10197976Y-16412976D01*
X10178929Y-16403452D01*
X10169405Y-16393928D01*
X10159881Y-16374881D01*
X10150357Y-16336786D01*
X10150357Y-16289167D01*
X10159881Y-16251071D01*
X10169405Y-16232024D01*
X10178929Y-16222500D01*
X10197976Y-16212976D01*
X10350357Y-16393928D02*
X10359881Y-16403452D01*
X10350357Y-16412976D01*
X10340833Y-16403452D01*
X10350357Y-16393928D01*
X10350357Y-16412976D01*
X10483690Y-16212976D02*
X10502738Y-16212976D01*
X10521786Y-16222500D01*
X10531310Y-16232024D01*
X10540833Y-16251071D01*
X10550357Y-16289167D01*
X10550357Y-16336786D01*
X10540833Y-16374881D01*
X10531310Y-16393928D01*
X10521786Y-16403452D01*
X10502738Y-16412976D01*
X10483690Y-16412976D01*
X10464643Y-16403452D01*
X10455119Y-16393928D01*
X10445595Y-16374881D01*
X10436071Y-16336786D01*
X10436071Y-16289167D01*
X10445595Y-16251071D01*
X10455119Y-16232024D01*
X10464643Y-16222500D01*
X10483690Y-16212976D01*
X10617024Y-16212976D02*
X10740833Y-16212976D01*
X10674167Y-16289167D01*
X10702738Y-16289167D01*
X10721786Y-16298690D01*
X10731310Y-16308214D01*
X10740833Y-16327262D01*
X10740833Y-16374881D01*
X10731310Y-16393928D01*
X10721786Y-16403452D01*
X10702738Y-16412976D01*
X10645595Y-16412976D01*
X10626548Y-16403452D01*
X10617024Y-16393928D01*
X10807500Y-16212976D02*
X10931310Y-16212976D01*
X10864643Y-16289167D01*
X10893214Y-16289167D01*
X10912262Y-16298690D01*
X10921786Y-16308214D01*
X10931310Y-16327262D01*
X10931310Y-16374881D01*
X10921786Y-16393928D01*
X10912262Y-16403452D01*
X10893214Y-16412976D01*
X10836071Y-16412976D01*
X10817024Y-16403452D01*
X10807500Y-16393928D01*
X11112262Y-16212976D02*
X11017024Y-16212976D01*
X11007500Y-16308214D01*
X11017024Y-16298690D01*
X11036071Y-16289167D01*
X11083690Y-16289167D01*
X11102738Y-16298690D01*
X11112262Y-16308214D01*
X11121786Y-16327262D01*
X11121786Y-16374881D01*
X11112262Y-16393928D01*
X11102738Y-16403452D01*
X11083690Y-16412976D01*
X11036071Y-16412976D01*
X11017024Y-16403452D01*
X11007500Y-16393928D01*
X11197976Y-16212976D02*
X11197976Y-16251071D01*
X11274167Y-16212976D02*
X11274167Y-16251071D01*
X11569405Y-16489167D02*
X11559881Y-16479643D01*
X11540833Y-16451071D01*
X11531309Y-16432024D01*
X11521786Y-16403452D01*
X11512262Y-16355833D01*
X11512262Y-16317738D01*
X11521786Y-16270119D01*
X11531309Y-16241548D01*
X11540833Y-16222500D01*
X11559881Y-16193928D01*
X11569405Y-16184405D01*
X11636071Y-16232024D02*
X11645595Y-16222500D01*
X11664643Y-16212976D01*
X11712262Y-16212976D01*
X11731309Y-16222500D01*
X11740833Y-16232024D01*
X11750357Y-16251071D01*
X11750357Y-16270119D01*
X11740833Y-16298690D01*
X11626548Y-16412976D01*
X11750357Y-16412976D01*
X11988452Y-16412976D02*
X11988452Y-16212976D01*
X12074167Y-16412976D02*
X12074167Y-16308214D01*
X12064643Y-16289167D01*
X12045595Y-16279643D01*
X12017024Y-16279643D01*
X11997976Y-16289167D01*
X11988452Y-16298690D01*
X12197976Y-16412976D02*
X12178928Y-16403452D01*
X12169405Y-16393928D01*
X12159881Y-16374881D01*
X12159881Y-16317738D01*
X12169405Y-16298690D01*
X12178928Y-16289167D01*
X12197976Y-16279643D01*
X12226548Y-16279643D01*
X12245595Y-16289167D01*
X12255119Y-16298690D01*
X12264643Y-16317738D01*
X12264643Y-16374881D01*
X12255119Y-16393928D01*
X12245595Y-16403452D01*
X12226548Y-16412976D01*
X12197976Y-16412976D01*
X12378928Y-16412976D02*
X12359881Y-16403452D01*
X12350357Y-16384405D01*
X12350357Y-16212976D01*
X12531309Y-16403452D02*
X12512262Y-16412976D01*
X12474167Y-16412976D01*
X12455119Y-16403452D01*
X12445595Y-16384405D01*
X12445595Y-16308214D01*
X12455119Y-16289167D01*
X12474167Y-16279643D01*
X12512262Y-16279643D01*
X12531309Y-16289167D01*
X12540833Y-16308214D01*
X12540833Y-16327262D01*
X12445595Y-16346309D01*
X12617024Y-16403452D02*
X12636071Y-16412976D01*
X12674167Y-16412976D01*
X12693214Y-16403452D01*
X12702738Y-16384405D01*
X12702738Y-16374881D01*
X12693214Y-16355833D01*
X12674167Y-16346309D01*
X12645595Y-16346309D01*
X12626548Y-16336786D01*
X12617024Y-16317738D01*
X12617024Y-16308214D01*
X12626548Y-16289167D01*
X12645595Y-16279643D01*
X12674167Y-16279643D01*
X12693214Y-16289167D01*
X12769405Y-16489167D02*
X12778928Y-16479643D01*
X12797976Y-16451071D01*
X12807500Y-16432024D01*
X12817024Y-16403452D01*
X12826548Y-16355833D01*
X12826548Y-16317738D01*
X12817024Y-16270119D01*
X12807500Y-16241548D01*
X12797976Y-16222500D01*
X12778928Y-16193928D01*
X12769405Y-16184405D01*
D16*
X7897500Y-16536500D02*
X7997500Y-16636500D01*
X7997500Y-16536500D02*
X7897500Y-16636500D01*
X7947500Y-16536500D02*
X7947500Y-16636500D01*
X7897500Y-16586500D02*
X7997500Y-16586500D01*
D11*
X8359881Y-16676976D02*
X8245595Y-16676976D01*
X8302738Y-16676976D02*
X8302738Y-16476976D01*
X8283690Y-16505548D01*
X8264643Y-16524595D01*
X8245595Y-16534119D01*
X8445595Y-16657928D02*
X8455119Y-16667452D01*
X8445595Y-16676976D01*
X8436071Y-16667452D01*
X8445595Y-16657928D01*
X8445595Y-16676976D01*
X8578929Y-16476976D02*
X8597976Y-16476976D01*
X8617024Y-16486500D01*
X8626548Y-16496024D01*
X8636071Y-16515071D01*
X8645595Y-16553167D01*
X8645595Y-16600786D01*
X8636071Y-16638881D01*
X8626548Y-16657928D01*
X8617024Y-16667452D01*
X8597976Y-16676976D01*
X8578929Y-16676976D01*
X8559881Y-16667452D01*
X8550357Y-16657928D01*
X8540833Y-16638881D01*
X8531310Y-16600786D01*
X8531310Y-16553167D01*
X8540833Y-16515071D01*
X8550357Y-16496024D01*
X8559881Y-16486500D01*
X8578929Y-16476976D01*
X8769405Y-16476976D02*
X8788452Y-16476976D01*
X8807500Y-16486500D01*
X8817024Y-16496024D01*
X8826548Y-16515071D01*
X8836071Y-16553167D01*
X8836071Y-16600786D01*
X8826548Y-16638881D01*
X8817024Y-16657928D01*
X8807500Y-16667452D01*
X8788452Y-16676976D01*
X8769405Y-16676976D01*
X8750357Y-16667452D01*
X8740833Y-16657928D01*
X8731310Y-16638881D01*
X8721786Y-16600786D01*
X8721786Y-16553167D01*
X8731310Y-16515071D01*
X8740833Y-16496024D01*
X8750357Y-16486500D01*
X8769405Y-16476976D01*
X8959881Y-16476976D02*
X8978929Y-16476976D01*
X8997976Y-16486500D01*
X9007500Y-16496024D01*
X9017024Y-16515071D01*
X9026548Y-16553167D01*
X9026548Y-16600786D01*
X9017024Y-16638881D01*
X9007500Y-16657928D01*
X8997976Y-16667452D01*
X8978929Y-16676976D01*
X8959881Y-16676976D01*
X8940833Y-16667452D01*
X8931310Y-16657928D01*
X8921786Y-16638881D01*
X8912262Y-16600786D01*
X8912262Y-16553167D01*
X8921786Y-16515071D01*
X8931310Y-16496024D01*
X8940833Y-16486500D01*
X8959881Y-16476976D01*
X9112262Y-16676976D02*
X9112262Y-16543643D01*
X9112262Y-16562690D02*
X9121786Y-16553167D01*
X9140833Y-16543643D01*
X9169405Y-16543643D01*
X9188452Y-16553167D01*
X9197976Y-16572214D01*
X9197976Y-16676976D01*
X9197976Y-16572214D02*
X9207500Y-16553167D01*
X9226548Y-16543643D01*
X9255119Y-16543643D01*
X9274167Y-16553167D01*
X9283690Y-16572214D01*
X9283690Y-16676976D01*
X9378929Y-16676976D02*
X9378929Y-16543643D01*
X9378929Y-16562690D02*
X9388452Y-16553167D01*
X9407500Y-16543643D01*
X9436071Y-16543643D01*
X9455119Y-16553167D01*
X9464643Y-16572214D01*
X9464643Y-16676976D01*
X9464643Y-16572214D02*
X9474167Y-16553167D01*
X9493214Y-16543643D01*
X9521786Y-16543643D01*
X9540833Y-16553167D01*
X9550357Y-16572214D01*
X9550357Y-16676976D01*
X9940833Y-16467452D02*
X9769405Y-16724595D01*
X10197976Y-16476976D02*
X10217024Y-16476976D01*
X10236071Y-16486500D01*
X10245595Y-16496024D01*
X10255119Y-16515071D01*
X10264643Y-16553167D01*
X10264643Y-16600786D01*
X10255119Y-16638881D01*
X10245595Y-16657928D01*
X10236071Y-16667452D01*
X10217024Y-16676976D01*
X10197976Y-16676976D01*
X10178929Y-16667452D01*
X10169405Y-16657928D01*
X10159881Y-16638881D01*
X10150357Y-16600786D01*
X10150357Y-16553167D01*
X10159881Y-16515071D01*
X10169405Y-16496024D01*
X10178929Y-16486500D01*
X10197976Y-16476976D01*
X10350357Y-16657928D02*
X10359881Y-16667452D01*
X10350357Y-16676976D01*
X10340833Y-16667452D01*
X10350357Y-16657928D01*
X10350357Y-16676976D01*
X10483690Y-16476976D02*
X10502738Y-16476976D01*
X10521786Y-16486500D01*
X10531310Y-16496024D01*
X10540833Y-16515071D01*
X10550357Y-16553167D01*
X10550357Y-16600786D01*
X10540833Y-16638881D01*
X10531310Y-16657928D01*
X10521786Y-16667452D01*
X10502738Y-16676976D01*
X10483690Y-16676976D01*
X10464643Y-16667452D01*
X10455119Y-16657928D01*
X10445595Y-16638881D01*
X10436071Y-16600786D01*
X10436071Y-16553167D01*
X10445595Y-16515071D01*
X10455119Y-16496024D01*
X10464643Y-16486500D01*
X10483690Y-16476976D01*
X10617024Y-16476976D02*
X10740833Y-16476976D01*
X10674167Y-16553167D01*
X10702738Y-16553167D01*
X10721786Y-16562690D01*
X10731310Y-16572214D01*
X10740833Y-16591262D01*
X10740833Y-16638881D01*
X10731310Y-16657928D01*
X10721786Y-16667452D01*
X10702738Y-16676976D01*
X10645595Y-16676976D01*
X10626548Y-16667452D01*
X10617024Y-16657928D01*
X10836071Y-16676976D02*
X10874167Y-16676976D01*
X10893214Y-16667452D01*
X10902738Y-16657928D01*
X10921786Y-16629357D01*
X10931310Y-16591262D01*
X10931310Y-16515071D01*
X10921786Y-16496024D01*
X10912262Y-16486500D01*
X10893214Y-16476976D01*
X10855119Y-16476976D01*
X10836071Y-16486500D01*
X10826548Y-16496024D01*
X10817024Y-16515071D01*
X10817024Y-16562690D01*
X10826548Y-16581738D01*
X10836071Y-16591262D01*
X10855119Y-16600786D01*
X10893214Y-16600786D01*
X10912262Y-16591262D01*
X10921786Y-16581738D01*
X10931310Y-16562690D01*
X11102738Y-16543643D02*
X11102738Y-16676976D01*
X11055119Y-16467452D02*
X11007500Y-16610309D01*
X11131310Y-16610309D01*
X11197976Y-16476976D02*
X11197976Y-16515071D01*
X11274167Y-16476976D02*
X11274167Y-16515071D01*
X11569405Y-16753167D02*
X11559881Y-16743643D01*
X11540833Y-16715071D01*
X11531309Y-16696024D01*
X11521786Y-16667452D01*
X11512262Y-16619833D01*
X11512262Y-16581738D01*
X11521786Y-16534119D01*
X11531309Y-16505548D01*
X11540833Y-16486500D01*
X11559881Y-16457928D01*
X11569405Y-16448405D01*
X11750357Y-16676976D02*
X11636071Y-16676976D01*
X11693214Y-16676976D02*
X11693214Y-16476976D01*
X11674167Y-16505548D01*
X11655119Y-16524595D01*
X11636071Y-16534119D01*
X11845595Y-16676976D02*
X11883690Y-16676976D01*
X11902738Y-16667452D01*
X11912262Y-16657928D01*
X11931309Y-16629357D01*
X11940833Y-16591262D01*
X11940833Y-16515071D01*
X11931309Y-16496024D01*
X11921786Y-16486500D01*
X11902738Y-16476976D01*
X11864643Y-16476976D01*
X11845595Y-16486500D01*
X11836071Y-16496024D01*
X11826548Y-16515071D01*
X11826548Y-16562690D01*
X11836071Y-16581738D01*
X11845595Y-16591262D01*
X11864643Y-16600786D01*
X11902738Y-16600786D01*
X11921786Y-16591262D01*
X11931309Y-16581738D01*
X11940833Y-16562690D01*
X12178928Y-16676976D02*
X12178928Y-16476976D01*
X12264643Y-16676976D02*
X12264643Y-16572214D01*
X12255119Y-16553167D01*
X12236071Y-16543643D01*
X12207500Y-16543643D01*
X12188452Y-16553167D01*
X12178928Y-16562690D01*
X12388452Y-16676976D02*
X12369405Y-16667452D01*
X12359881Y-16657928D01*
X12350357Y-16638881D01*
X12350357Y-16581738D01*
X12359881Y-16562690D01*
X12369405Y-16553167D01*
X12388452Y-16543643D01*
X12417024Y-16543643D01*
X12436071Y-16553167D01*
X12445595Y-16562690D01*
X12455119Y-16581738D01*
X12455119Y-16638881D01*
X12445595Y-16657928D01*
X12436071Y-16667452D01*
X12417024Y-16676976D01*
X12388452Y-16676976D01*
X12569405Y-16676976D02*
X12550357Y-16667452D01*
X12540833Y-16648405D01*
X12540833Y-16476976D01*
X12721786Y-16667452D02*
X12702738Y-16676976D01*
X12664643Y-16676976D01*
X12645595Y-16667452D01*
X12636071Y-16648405D01*
X12636071Y-16572214D01*
X12645595Y-16553167D01*
X12664643Y-16543643D01*
X12702738Y-16543643D01*
X12721786Y-16553167D01*
X12731309Y-16572214D01*
X12731309Y-16591262D01*
X12636071Y-16610309D01*
X12807500Y-16667452D02*
X12826548Y-16676976D01*
X12864643Y-16676976D01*
X12883690Y-16667452D01*
X12893214Y-16648405D01*
X12893214Y-16638881D01*
X12883690Y-16619833D01*
X12864643Y-16610309D01*
X12836071Y-16610309D01*
X12817024Y-16600786D01*
X12807500Y-16581738D01*
X12807500Y-16572214D01*
X12817024Y-16553167D01*
X12836071Y-16543643D01*
X12864643Y-16543643D01*
X12883690Y-16553167D01*
X12959881Y-16753167D02*
X12969405Y-16743643D01*
X12988452Y-16715071D01*
X12997976Y-16696024D01*
X13007500Y-16667452D01*
X13017024Y-16619833D01*
X13017024Y-16581738D01*
X13007500Y-16534119D01*
X12997976Y-16505548D01*
X12988452Y-16486500D01*
X12969405Y-16457928D01*
X12959881Y-16448405D01*
D17*
X7887500Y-16795500D02*
X7997500Y-16905500D01*
X7997500Y-16795500D02*
X7887500Y-16905500D01*
X7981391Y-16889391D02*
X7981391Y-16811609D01*
X7903609Y-16811609D01*
X7903609Y-16889391D01*
X7981391Y-16889391D01*
D11*
X8359881Y-16940976D02*
X8245595Y-16940976D01*
X8302738Y-16940976D02*
X8302738Y-16740976D01*
X8283690Y-16769548D01*
X8264643Y-16788595D01*
X8245595Y-16798119D01*
X8445595Y-16921929D02*
X8455119Y-16931452D01*
X8445595Y-16940976D01*
X8436071Y-16931452D01*
X8445595Y-16921929D01*
X8445595Y-16940976D01*
X8645595Y-16940976D02*
X8531310Y-16940976D01*
X8588452Y-16940976D02*
X8588452Y-16740976D01*
X8569405Y-16769548D01*
X8550357Y-16788595D01*
X8531310Y-16798119D01*
X8769405Y-16740976D02*
X8788452Y-16740976D01*
X8807500Y-16750500D01*
X8817024Y-16760024D01*
X8826548Y-16779071D01*
X8836071Y-16817167D01*
X8836071Y-16864786D01*
X8826548Y-16902881D01*
X8817024Y-16921929D01*
X8807500Y-16931452D01*
X8788452Y-16940976D01*
X8769405Y-16940976D01*
X8750357Y-16931452D01*
X8740833Y-16921929D01*
X8731310Y-16902881D01*
X8721786Y-16864786D01*
X8721786Y-16817167D01*
X8731310Y-16779071D01*
X8740833Y-16760024D01*
X8750357Y-16750500D01*
X8769405Y-16740976D01*
X8959881Y-16740976D02*
X8978929Y-16740976D01*
X8997976Y-16750500D01*
X9007500Y-16760024D01*
X9017024Y-16779071D01*
X9026548Y-16817167D01*
X9026548Y-16864786D01*
X9017024Y-16902881D01*
X9007500Y-16921929D01*
X8997976Y-16931452D01*
X8978929Y-16940976D01*
X8959881Y-16940976D01*
X8940833Y-16931452D01*
X8931310Y-16921929D01*
X8921786Y-16902881D01*
X8912262Y-16864786D01*
X8912262Y-16817167D01*
X8921786Y-16779071D01*
X8931310Y-16760024D01*
X8940833Y-16750500D01*
X8959881Y-16740976D01*
X9112262Y-16940976D02*
X9112262Y-16807643D01*
X9112262Y-16826690D02*
X9121786Y-16817167D01*
X9140833Y-16807643D01*
X9169405Y-16807643D01*
X9188452Y-16817167D01*
X9197976Y-16836214D01*
X9197976Y-16940976D01*
X9197976Y-16836214D02*
X9207500Y-16817167D01*
X9226548Y-16807643D01*
X9255119Y-16807643D01*
X9274167Y-16817167D01*
X9283690Y-16836214D01*
X9283690Y-16940976D01*
X9378929Y-16940976D02*
X9378929Y-16807643D01*
X9378929Y-16826690D02*
X9388452Y-16817167D01*
X9407500Y-16807643D01*
X9436071Y-16807643D01*
X9455119Y-16817167D01*
X9464643Y-16836214D01*
X9464643Y-16940976D01*
X9464643Y-16836214D02*
X9474167Y-16817167D01*
X9493214Y-16807643D01*
X9521786Y-16807643D01*
X9540833Y-16817167D01*
X9550357Y-16836214D01*
X9550357Y-16940976D01*
X9940833Y-16731452D02*
X9769405Y-16988595D01*
X10197976Y-16740976D02*
X10217024Y-16740976D01*
X10236071Y-16750500D01*
X10245595Y-16760024D01*
X10255119Y-16779071D01*
X10264643Y-16817167D01*
X10264643Y-16864786D01*
X10255119Y-16902881D01*
X10245595Y-16921929D01*
X10236071Y-16931452D01*
X10217024Y-16940976D01*
X10197976Y-16940976D01*
X10178929Y-16931452D01*
X10169405Y-16921929D01*
X10159881Y-16902881D01*
X10150357Y-16864786D01*
X10150357Y-16817167D01*
X10159881Y-16779071D01*
X10169405Y-16760024D01*
X10178929Y-16750500D01*
X10197976Y-16740976D01*
X10350357Y-16921929D02*
X10359881Y-16931452D01*
X10350357Y-16940976D01*
X10340833Y-16931452D01*
X10350357Y-16921929D01*
X10350357Y-16940976D01*
X10483690Y-16740976D02*
X10502738Y-16740976D01*
X10521786Y-16750500D01*
X10531310Y-16760024D01*
X10540833Y-16779071D01*
X10550357Y-16817167D01*
X10550357Y-16864786D01*
X10540833Y-16902881D01*
X10531310Y-16921929D01*
X10521786Y-16931452D01*
X10502738Y-16940976D01*
X10483690Y-16940976D01*
X10464643Y-16931452D01*
X10455119Y-16921929D01*
X10445595Y-16902881D01*
X10436071Y-16864786D01*
X10436071Y-16817167D01*
X10445595Y-16779071D01*
X10455119Y-16760024D01*
X10464643Y-16750500D01*
X10483690Y-16740976D01*
X10721786Y-16807643D02*
X10721786Y-16940976D01*
X10674167Y-16731452D02*
X10626548Y-16874310D01*
X10750357Y-16874310D01*
X10807500Y-16740976D02*
X10931310Y-16740976D01*
X10864643Y-16817167D01*
X10893214Y-16817167D01*
X10912262Y-16826690D01*
X10921786Y-16836214D01*
X10931310Y-16855262D01*
X10931310Y-16902881D01*
X10921786Y-16921929D01*
X10912262Y-16931452D01*
X10893214Y-16940976D01*
X10836071Y-16940976D01*
X10817024Y-16931452D01*
X10807500Y-16921929D01*
X10997976Y-16740976D02*
X11121786Y-16740976D01*
X11055119Y-16817167D01*
X11083690Y-16817167D01*
X11102738Y-16826690D01*
X11112262Y-16836214D01*
X11121786Y-16855262D01*
X11121786Y-16902881D01*
X11112262Y-16921929D01*
X11102738Y-16931452D01*
X11083690Y-16940976D01*
X11026548Y-16940976D01*
X11007500Y-16931452D01*
X10997976Y-16921929D01*
X11197976Y-16740976D02*
X11197976Y-16779071D01*
X11274167Y-16740976D02*
X11274167Y-16779071D01*
X11569405Y-17017167D02*
X11559881Y-17007643D01*
X11540833Y-16979071D01*
X11531309Y-16960024D01*
X11521786Y-16931452D01*
X11512262Y-16883833D01*
X11512262Y-16845738D01*
X11521786Y-16798119D01*
X11531309Y-16769548D01*
X11540833Y-16750500D01*
X11559881Y-16721928D01*
X11569405Y-16712405D01*
X11626548Y-16740976D02*
X11750357Y-16740976D01*
X11683690Y-16817167D01*
X11712262Y-16817167D01*
X11731309Y-16826690D01*
X11740833Y-16836214D01*
X11750357Y-16855262D01*
X11750357Y-16902881D01*
X11740833Y-16921929D01*
X11731309Y-16931452D01*
X11712262Y-16940976D01*
X11655119Y-16940976D01*
X11636071Y-16931452D01*
X11626548Y-16921929D01*
X11817024Y-16740976D02*
X11950357Y-16740976D01*
X11864643Y-16940976D01*
X12178928Y-16940976D02*
X12178928Y-16740976D01*
X12264643Y-16940976D02*
X12264643Y-16836214D01*
X12255119Y-16817167D01*
X12236071Y-16807643D01*
X12207500Y-16807643D01*
X12188452Y-16817167D01*
X12178928Y-16826690D01*
X12388452Y-16940976D02*
X12369405Y-16931452D01*
X12359881Y-16921929D01*
X12350357Y-16902881D01*
X12350357Y-16845738D01*
X12359881Y-16826690D01*
X12369405Y-16817167D01*
X12388452Y-16807643D01*
X12417024Y-16807643D01*
X12436071Y-16817167D01*
X12445595Y-16826690D01*
X12455119Y-16845738D01*
X12455119Y-16902881D01*
X12445595Y-16921929D01*
X12436071Y-16931452D01*
X12417024Y-16940976D01*
X12388452Y-16940976D01*
X12569405Y-16940976D02*
X12550357Y-16931452D01*
X12540833Y-16912405D01*
X12540833Y-16740976D01*
X12721786Y-16931452D02*
X12702738Y-16940976D01*
X12664643Y-16940976D01*
X12645595Y-16931452D01*
X12636071Y-16912405D01*
X12636071Y-16836214D01*
X12645595Y-16817167D01*
X12664643Y-16807643D01*
X12702738Y-16807643D01*
X12721786Y-16817167D01*
X12731309Y-16836214D01*
X12731309Y-16855262D01*
X12636071Y-16874310D01*
X12807500Y-16931452D02*
X12826548Y-16940976D01*
X12864643Y-16940976D01*
X12883690Y-16931452D01*
X12893214Y-16912405D01*
X12893214Y-16902881D01*
X12883690Y-16883833D01*
X12864643Y-16874310D01*
X12836071Y-16874310D01*
X12817024Y-16864786D01*
X12807500Y-16845738D01*
X12807500Y-16836214D01*
X12817024Y-16817167D01*
X12836071Y-16807643D01*
X12864643Y-16807643D01*
X12883690Y-16817167D01*
X12959881Y-17017167D02*
X12969405Y-17007643D01*
X12988452Y-16979071D01*
X12997976Y-16960024D01*
X13007500Y-16931452D01*
X13017024Y-16883833D01*
X13017024Y-16845738D01*
X13007500Y-16798119D01*
X12997976Y-16769548D01*
X12988452Y-16750500D01*
X12969405Y-16721928D01*
X12959881Y-16712405D01*
D18*
X7847500Y-17039500D02*
X7997500Y-17189500D01*
X7997500Y-17039500D02*
X7847500Y-17189500D01*
X7922500Y-17189500D02*
X7997500Y-17114500D01*
X7922500Y-17039500D01*
X7847500Y-17114500D01*
X7922500Y-17189500D01*
D11*
X8359881Y-17204976D02*
X8245595Y-17204976D01*
X8302738Y-17204976D02*
X8302738Y-17004976D01*
X8283690Y-17033548D01*
X8264643Y-17052595D01*
X8245595Y-17062119D01*
X8445595Y-17185929D02*
X8455119Y-17195452D01*
X8445595Y-17204976D01*
X8436071Y-17195452D01*
X8445595Y-17185929D01*
X8445595Y-17204976D01*
X8636071Y-17004976D02*
X8540833Y-17004976D01*
X8531310Y-17100214D01*
X8540833Y-17090690D01*
X8559881Y-17081167D01*
X8607500Y-17081167D01*
X8626548Y-17090690D01*
X8636071Y-17100214D01*
X8645595Y-17119262D01*
X8645595Y-17166881D01*
X8636071Y-17185929D01*
X8626548Y-17195452D01*
X8607500Y-17204976D01*
X8559881Y-17204976D01*
X8540833Y-17195452D01*
X8531310Y-17185929D01*
X8769405Y-17004976D02*
X8788452Y-17004976D01*
X8807500Y-17014500D01*
X8817024Y-17024024D01*
X8826548Y-17043071D01*
X8836071Y-17081167D01*
X8836071Y-17128786D01*
X8826548Y-17166881D01*
X8817024Y-17185929D01*
X8807500Y-17195452D01*
X8788452Y-17204976D01*
X8769405Y-17204976D01*
X8750357Y-17195452D01*
X8740833Y-17185929D01*
X8731310Y-17166881D01*
X8721786Y-17128786D01*
X8721786Y-17081167D01*
X8731310Y-17043071D01*
X8740833Y-17024024D01*
X8750357Y-17014500D01*
X8769405Y-17004976D01*
X8959881Y-17004976D02*
X8978929Y-17004976D01*
X8997976Y-17014500D01*
X9007500Y-17024024D01*
X9017024Y-17043071D01*
X9026548Y-17081167D01*
X9026548Y-17128786D01*
X9017024Y-17166881D01*
X9007500Y-17185929D01*
X8997976Y-17195452D01*
X8978929Y-17204976D01*
X8959881Y-17204976D01*
X8940833Y-17195452D01*
X8931310Y-17185929D01*
X8921786Y-17166881D01*
X8912262Y-17128786D01*
X8912262Y-17081167D01*
X8921786Y-17043071D01*
X8931310Y-17024024D01*
X8940833Y-17014500D01*
X8959881Y-17004976D01*
X9112262Y-17204976D02*
X9112262Y-17071643D01*
X9112262Y-17090690D02*
X9121786Y-17081167D01*
X9140833Y-17071643D01*
X9169405Y-17071643D01*
X9188452Y-17081167D01*
X9197976Y-17100214D01*
X9197976Y-17204976D01*
X9197976Y-17100214D02*
X9207500Y-17081167D01*
X9226548Y-17071643D01*
X9255119Y-17071643D01*
X9274167Y-17081167D01*
X9283690Y-17100214D01*
X9283690Y-17204976D01*
X9378929Y-17204976D02*
X9378929Y-17071643D01*
X9378929Y-17090690D02*
X9388452Y-17081167D01*
X9407500Y-17071643D01*
X9436071Y-17071643D01*
X9455119Y-17081167D01*
X9464643Y-17100214D01*
X9464643Y-17204976D01*
X9464643Y-17100214D02*
X9474167Y-17081167D01*
X9493214Y-17071643D01*
X9521786Y-17071643D01*
X9540833Y-17081167D01*
X9550357Y-17100214D01*
X9550357Y-17204976D01*
X9940833Y-16995452D02*
X9769405Y-17252595D01*
X10197976Y-17004976D02*
X10217024Y-17004976D01*
X10236071Y-17014500D01*
X10245595Y-17024024D01*
X10255119Y-17043071D01*
X10264643Y-17081167D01*
X10264643Y-17128786D01*
X10255119Y-17166881D01*
X10245595Y-17185929D01*
X10236071Y-17195452D01*
X10217024Y-17204976D01*
X10197976Y-17204976D01*
X10178929Y-17195452D01*
X10169405Y-17185929D01*
X10159881Y-17166881D01*
X10150357Y-17128786D01*
X10150357Y-17081167D01*
X10159881Y-17043071D01*
X10169405Y-17024024D01*
X10178929Y-17014500D01*
X10197976Y-17004976D01*
X10350357Y-17185929D02*
X10359881Y-17195452D01*
X10350357Y-17204976D01*
X10340833Y-17195452D01*
X10350357Y-17185929D01*
X10350357Y-17204976D01*
X10483690Y-17004976D02*
X10502738Y-17004976D01*
X10521786Y-17014500D01*
X10531310Y-17024024D01*
X10540833Y-17043071D01*
X10550357Y-17081167D01*
X10550357Y-17128786D01*
X10540833Y-17166881D01*
X10531310Y-17185929D01*
X10521786Y-17195452D01*
X10502738Y-17204976D01*
X10483690Y-17204976D01*
X10464643Y-17195452D01*
X10455119Y-17185929D01*
X10445595Y-17166881D01*
X10436071Y-17128786D01*
X10436071Y-17081167D01*
X10445595Y-17043071D01*
X10455119Y-17024024D01*
X10464643Y-17014500D01*
X10483690Y-17004976D01*
X10731310Y-17004976D02*
X10636071Y-17004976D01*
X10626548Y-17100214D01*
X10636071Y-17090690D01*
X10655119Y-17081167D01*
X10702738Y-17081167D01*
X10721786Y-17090690D01*
X10731310Y-17100214D01*
X10740833Y-17119262D01*
X10740833Y-17166881D01*
X10731310Y-17185929D01*
X10721786Y-17195452D01*
X10702738Y-17204976D01*
X10655119Y-17204976D01*
X10636071Y-17195452D01*
X10626548Y-17185929D01*
X10836071Y-17204976D02*
X10874167Y-17204976D01*
X10893214Y-17195452D01*
X10902738Y-17185929D01*
X10921786Y-17157357D01*
X10931310Y-17119262D01*
X10931310Y-17043071D01*
X10921786Y-17024024D01*
X10912262Y-17014500D01*
X10893214Y-17004976D01*
X10855119Y-17004976D01*
X10836071Y-17014500D01*
X10826548Y-17024024D01*
X10817024Y-17043071D01*
X10817024Y-17090690D01*
X10826548Y-17109738D01*
X10836071Y-17119262D01*
X10855119Y-17128786D01*
X10893214Y-17128786D01*
X10912262Y-17119262D01*
X10921786Y-17109738D01*
X10931310Y-17090690D01*
X11121786Y-17204976D02*
X11007500Y-17204976D01*
X11064643Y-17204976D02*
X11064643Y-17004976D01*
X11045595Y-17033548D01*
X11026548Y-17052595D01*
X11007500Y-17062119D01*
X11197976Y-17004976D02*
X11197976Y-17043071D01*
X11274167Y-17004976D02*
X11274167Y-17043071D01*
X11569405Y-17281167D02*
X11559881Y-17271643D01*
X11540833Y-17243071D01*
X11531309Y-17224024D01*
X11521786Y-17195452D01*
X11512262Y-17147833D01*
X11512262Y-17109738D01*
X11521786Y-17062119D01*
X11531309Y-17033548D01*
X11540833Y-17014500D01*
X11559881Y-16985929D01*
X11569405Y-16976405D01*
X11740833Y-17004976D02*
X11645595Y-17004976D01*
X11636071Y-17100214D01*
X11645595Y-17090690D01*
X11664643Y-17081167D01*
X11712262Y-17081167D01*
X11731309Y-17090690D01*
X11740833Y-17100214D01*
X11750357Y-17119262D01*
X11750357Y-17166881D01*
X11740833Y-17185929D01*
X11731309Y-17195452D01*
X11712262Y-17204976D01*
X11664643Y-17204976D01*
X11645595Y-17195452D01*
X11636071Y-17185929D01*
X11988452Y-17204976D02*
X11988452Y-17004976D01*
X12074167Y-17204976D02*
X12074167Y-17100214D01*
X12064643Y-17081167D01*
X12045595Y-17071643D01*
X12017024Y-17071643D01*
X11997976Y-17081167D01*
X11988452Y-17090690D01*
X12197976Y-17204976D02*
X12178928Y-17195452D01*
X12169405Y-17185929D01*
X12159881Y-17166881D01*
X12159881Y-17109738D01*
X12169405Y-17090690D01*
X12178928Y-17081167D01*
X12197976Y-17071643D01*
X12226548Y-17071643D01*
X12245595Y-17081167D01*
X12255119Y-17090690D01*
X12264643Y-17109738D01*
X12264643Y-17166881D01*
X12255119Y-17185929D01*
X12245595Y-17195452D01*
X12226548Y-17204976D01*
X12197976Y-17204976D01*
X12378928Y-17204976D02*
X12359881Y-17195452D01*
X12350357Y-17176405D01*
X12350357Y-17004976D01*
X12531309Y-17195452D02*
X12512262Y-17204976D01*
X12474167Y-17204976D01*
X12455119Y-17195452D01*
X12445595Y-17176405D01*
X12445595Y-17100214D01*
X12455119Y-17081167D01*
X12474167Y-17071643D01*
X12512262Y-17071643D01*
X12531309Y-17081167D01*
X12540833Y-17100214D01*
X12540833Y-17119262D01*
X12445595Y-17138310D01*
X12617024Y-17195452D02*
X12636071Y-17204976D01*
X12674167Y-17204976D01*
X12693214Y-17195452D01*
X12702738Y-17176405D01*
X12702738Y-17166881D01*
X12693214Y-17147833D01*
X12674167Y-17138310D01*
X12645595Y-17138310D01*
X12626548Y-17128786D01*
X12617024Y-17109738D01*
X12617024Y-17100214D01*
X12626548Y-17081167D01*
X12645595Y-17071643D01*
X12674167Y-17071643D01*
X12693214Y-17081167D01*
X12769405Y-17281167D02*
X12778928Y-17271643D01*
X12797976Y-17243071D01*
X12807500Y-17224024D01*
X12817024Y-17195452D01*
X12826548Y-17147833D01*
X12826548Y-17109738D01*
X12817024Y-17062119D01*
X12807500Y-17033548D01*
X12797976Y-17014500D01*
X12778928Y-16985929D01*
X12769405Y-16976405D01*
X7897500Y-17284500D02*
X7897500Y-17484500D01*
X7797500Y-17384500D02*
X7997500Y-17384500D01*
X7997500Y-17384500D02*
G75*
G03*
X7997500Y-17384500I-100000J0D01*
G01*
X8236071Y-17274976D02*
X8359881Y-17274976D01*
X8293214Y-17351167D01*
X8321786Y-17351167D01*
X8340833Y-17360690D01*
X8350357Y-17370214D01*
X8359881Y-17389262D01*
X8359881Y-17436881D01*
X8350357Y-17455929D01*
X8340833Y-17465452D01*
X8321786Y-17474976D01*
X8264643Y-17474976D01*
X8245595Y-17465452D01*
X8236071Y-17455929D01*
X8445595Y-17455929D02*
X8455119Y-17465452D01*
X8445595Y-17474976D01*
X8436071Y-17465452D01*
X8445595Y-17455929D01*
X8445595Y-17474976D01*
X8531310Y-17294024D02*
X8540833Y-17284500D01*
X8559881Y-17274976D01*
X8607500Y-17274976D01*
X8626548Y-17284500D01*
X8636071Y-17294024D01*
X8645595Y-17313071D01*
X8645595Y-17332119D01*
X8636071Y-17360690D01*
X8521786Y-17474976D01*
X8645595Y-17474976D01*
X8769405Y-17274976D02*
X8788452Y-17274976D01*
X8807500Y-17284500D01*
X8817024Y-17294024D01*
X8826548Y-17313071D01*
X8836071Y-17351167D01*
X8836071Y-17398786D01*
X8826548Y-17436881D01*
X8817024Y-17455929D01*
X8807500Y-17465452D01*
X8788452Y-17474976D01*
X8769405Y-17474976D01*
X8750357Y-17465452D01*
X8740833Y-17455929D01*
X8731310Y-17436881D01*
X8721786Y-17398786D01*
X8721786Y-17351167D01*
X8731310Y-17313071D01*
X8740833Y-17294024D01*
X8750357Y-17284500D01*
X8769405Y-17274976D01*
X8959881Y-17274976D02*
X8978929Y-17274976D01*
X8997976Y-17284500D01*
X9007500Y-17294024D01*
X9017024Y-17313071D01*
X9026548Y-17351167D01*
X9026548Y-17398786D01*
X9017024Y-17436881D01*
X9007500Y-17455929D01*
X8997976Y-17465452D01*
X8978929Y-17474976D01*
X8959881Y-17474976D01*
X8940833Y-17465452D01*
X8931310Y-17455929D01*
X8921786Y-17436881D01*
X8912262Y-17398786D01*
X8912262Y-17351167D01*
X8921786Y-17313071D01*
X8931310Y-17294024D01*
X8940833Y-17284500D01*
X8959881Y-17274976D01*
X9112262Y-17474976D02*
X9112262Y-17341643D01*
X9112262Y-17360690D02*
X9121786Y-17351167D01*
X9140833Y-17341643D01*
X9169405Y-17341643D01*
X9188452Y-17351167D01*
X9197976Y-17370214D01*
X9197976Y-17474976D01*
X9197976Y-17370214D02*
X9207500Y-17351167D01*
X9226548Y-17341643D01*
X9255119Y-17341643D01*
X9274167Y-17351167D01*
X9283690Y-17370214D01*
X9283690Y-17474976D01*
X9378929Y-17474976D02*
X9378929Y-17341643D01*
X9378929Y-17360690D02*
X9388452Y-17351167D01*
X9407500Y-17341643D01*
X9436071Y-17341643D01*
X9455119Y-17351167D01*
X9464643Y-17370214D01*
X9464643Y-17474976D01*
X9464643Y-17370214D02*
X9474167Y-17351167D01*
X9493214Y-17341643D01*
X9521786Y-17341643D01*
X9540833Y-17351167D01*
X9550357Y-17370214D01*
X9550357Y-17474976D01*
X9940833Y-17265452D02*
X9769405Y-17522595D01*
X10197976Y-17274976D02*
X10217024Y-17274976D01*
X10236071Y-17284500D01*
X10245595Y-17294024D01*
X10255119Y-17313071D01*
X10264643Y-17351167D01*
X10264643Y-17398786D01*
X10255119Y-17436881D01*
X10245595Y-17455929D01*
X10236071Y-17465452D01*
X10217024Y-17474976D01*
X10197976Y-17474976D01*
X10178929Y-17465452D01*
X10169405Y-17455929D01*
X10159881Y-17436881D01*
X10150357Y-17398786D01*
X10150357Y-17351167D01*
X10159881Y-17313071D01*
X10169405Y-17294024D01*
X10178929Y-17284500D01*
X10197976Y-17274976D01*
X10350357Y-17455929D02*
X10359881Y-17465452D01*
X10350357Y-17474976D01*
X10340833Y-17465452D01*
X10350357Y-17455929D01*
X10350357Y-17474976D01*
X10550357Y-17474976D02*
X10436071Y-17474976D01*
X10493214Y-17474976D02*
X10493214Y-17274976D01*
X10474167Y-17303548D01*
X10455119Y-17322595D01*
X10436071Y-17332119D01*
X10626548Y-17294024D02*
X10636071Y-17284500D01*
X10655119Y-17274976D01*
X10702738Y-17274976D01*
X10721786Y-17284500D01*
X10731310Y-17294024D01*
X10740833Y-17313071D01*
X10740833Y-17332119D01*
X10731310Y-17360690D01*
X10617024Y-17474976D01*
X10740833Y-17474976D01*
X10912262Y-17274976D02*
X10874167Y-17274976D01*
X10855119Y-17284500D01*
X10845595Y-17294024D01*
X10826548Y-17322595D01*
X10817024Y-17360690D01*
X10817024Y-17436881D01*
X10826548Y-17455929D01*
X10836071Y-17465452D01*
X10855119Y-17474976D01*
X10893214Y-17474976D01*
X10912262Y-17465452D01*
X10921786Y-17455929D01*
X10931310Y-17436881D01*
X10931310Y-17389262D01*
X10921786Y-17370214D01*
X10912262Y-17360690D01*
X10893214Y-17351167D01*
X10855119Y-17351167D01*
X10836071Y-17360690D01*
X10826548Y-17370214D01*
X10817024Y-17389262D01*
X11055119Y-17274976D02*
X11074167Y-17274976D01*
X11093214Y-17284500D01*
X11102738Y-17294024D01*
X11112262Y-17313071D01*
X11121786Y-17351167D01*
X11121786Y-17398786D01*
X11112262Y-17436881D01*
X11102738Y-17455929D01*
X11093214Y-17465452D01*
X11074167Y-17474976D01*
X11055119Y-17474976D01*
X11036071Y-17465452D01*
X11026548Y-17455929D01*
X11017024Y-17436881D01*
X11007500Y-17398786D01*
X11007500Y-17351167D01*
X11017024Y-17313071D01*
X11026548Y-17294024D01*
X11036071Y-17284500D01*
X11055119Y-17274976D01*
X11197976Y-17274976D02*
X11197976Y-17313071D01*
X11274167Y-17274976D02*
X11274167Y-17313071D01*
X11569405Y-17551167D02*
X11559881Y-17541643D01*
X11540833Y-17513071D01*
X11531309Y-17494024D01*
X11521786Y-17465452D01*
X11512262Y-17417833D01*
X11512262Y-17379738D01*
X11521786Y-17332119D01*
X11531309Y-17303548D01*
X11540833Y-17284500D01*
X11559881Y-17255929D01*
X11569405Y-17246405D01*
X11636071Y-17294024D02*
X11645595Y-17284500D01*
X11664643Y-17274976D01*
X11712262Y-17274976D01*
X11731309Y-17284500D01*
X11740833Y-17294024D01*
X11750357Y-17313071D01*
X11750357Y-17332119D01*
X11740833Y-17360690D01*
X11626548Y-17474976D01*
X11750357Y-17474976D01*
X11988452Y-17474976D02*
X11988452Y-17274976D01*
X12074167Y-17474976D02*
X12074167Y-17370214D01*
X12064643Y-17351167D01*
X12045595Y-17341643D01*
X12017024Y-17341643D01*
X11997976Y-17351167D01*
X11988452Y-17360690D01*
X12197976Y-17474976D02*
X12178928Y-17465452D01*
X12169405Y-17455929D01*
X12159881Y-17436881D01*
X12159881Y-17379738D01*
X12169405Y-17360690D01*
X12178928Y-17351167D01*
X12197976Y-17341643D01*
X12226548Y-17341643D01*
X12245595Y-17351167D01*
X12255119Y-17360690D01*
X12264643Y-17379738D01*
X12264643Y-17436881D01*
X12255119Y-17455929D01*
X12245595Y-17465452D01*
X12226548Y-17474976D01*
X12197976Y-17474976D01*
X12378928Y-17474976D02*
X12359881Y-17465452D01*
X12350357Y-17446405D01*
X12350357Y-17274976D01*
X12531309Y-17465452D02*
X12512262Y-17474976D01*
X12474167Y-17474976D01*
X12455119Y-17465452D01*
X12445595Y-17446405D01*
X12445595Y-17370214D01*
X12455119Y-17351167D01*
X12474167Y-17341643D01*
X12512262Y-17341643D01*
X12531309Y-17351167D01*
X12540833Y-17370214D01*
X12540833Y-17389262D01*
X12445595Y-17408310D01*
X12617024Y-17465452D02*
X12636071Y-17474976D01*
X12674167Y-17474976D01*
X12693214Y-17465452D01*
X12702738Y-17446405D01*
X12702738Y-17436881D01*
X12693214Y-17417833D01*
X12674167Y-17408310D01*
X12645595Y-17408310D01*
X12626548Y-17398786D01*
X12617024Y-17379738D01*
X12617024Y-17370214D01*
X12626548Y-17351167D01*
X12645595Y-17341643D01*
X12674167Y-17341643D01*
X12693214Y-17351167D01*
X12769405Y-17551167D02*
X12778928Y-17541643D01*
X12797976Y-17513071D01*
X12807500Y-17494024D01*
X12817024Y-17465452D01*
X12826548Y-17417833D01*
X12826548Y-17379738D01*
X12817024Y-17332119D01*
X12807500Y-17303548D01*
X12797976Y-17284500D01*
X12778928Y-17255929D01*
X12769405Y-17246405D01*
M02*
