%TF.GenerationSoftware,KiCad,Pcbnew,(6.0.7)*%
%TF.CreationDate,2022-11-16T18:44:32-05:00*%
%TF.ProjectId,Telemetry_KiCAD_Project,54656c65-6d65-4747-9279-5f4b69434144,rev?*%
%TF.SameCoordinates,Original*%
%TF.FileFunction,Soldermask,Bot*%
%TF.FilePolarity,Negative*%
%FSLAX46Y46*%
G04 Gerber Fmt 4.6, Leading zero omitted, Abs format (unit mm)*
G04 Created by KiCad (PCBNEW (6.0.7)) date 2022-11-16 18:44:32*
%MOMM*%
%LPD*%
G01*
G04 APERTURE LIST*
G04 Aperture macros list*
%AMRoundRect*
0 Rectangle with rounded corners*
0 $1 Rounding radius*
0 $2 $3 $4 $5 $6 $7 $8 $9 X,Y pos of 4 corners*
0 Add a 4 corners polygon primitive as box body*
4,1,4,$2,$3,$4,$5,$6,$7,$8,$9,$2,$3,0*
0 Add four circle primitives for the rounded corners*
1,1,$1+$1,$2,$3*
1,1,$1+$1,$4,$5*
1,1,$1+$1,$6,$7*
1,1,$1+$1,$8,$9*
0 Add four rect primitives between the rounded corners*
20,1,$1+$1,$2,$3,$4,$5,0*
20,1,$1+$1,$4,$5,$6,$7,0*
20,1,$1+$1,$6,$7,$8,$9,0*
20,1,$1+$1,$8,$9,$2,$3,0*%
G04 Aperture macros list end*
%ADD10C,2.352000*%
%ADD11C,4.902000*%
%ADD12RoundRect,0.051000X-0.825000X0.825000X-0.825000X-0.825000X0.825000X-0.825000X0.825000X0.825000X0*%
%ADD13C,1.752000*%
%ADD14O,1.302000X2.002000*%
%ADD15C,1.552000*%
%ADD16RoundRect,0.051000X0.850000X0.850000X-0.850000X0.850000X-0.850000X-0.850000X0.850000X-0.850000X0*%
%ADD17O,1.802000X1.802000*%
%ADD18RoundRect,0.051000X0.850000X-0.850000X0.850000X0.850000X-0.850000X0.850000X-0.850000X-0.850000X0*%
G04 APERTURE END LIST*
D10*
%TO.C,J3*%
X141900000Y-128575000D03*
X144440000Y-126035000D03*
X139360000Y-126035000D03*
X139360000Y-131115000D03*
X144440000Y-131115000D03*
%TD*%
D11*
%TO.C,J5*%
X91730000Y-128480000D03*
X91730000Y-64980000D03*
D12*
X93000000Y-71800000D03*
D13*
X93000000Y-74570000D03*
X93000000Y-77340000D03*
X93000000Y-80110000D03*
X93000000Y-82880000D03*
X93000000Y-85650000D03*
X93000000Y-88420000D03*
X93000000Y-91190000D03*
X93000000Y-93960000D03*
X93000000Y-96730000D03*
X93000000Y-99500000D03*
X93000000Y-102270000D03*
X93000000Y-105040000D03*
X93000000Y-107810000D03*
X93000000Y-110580000D03*
X93000000Y-113350000D03*
X93000000Y-116120000D03*
X93000000Y-118890000D03*
X93000000Y-121660000D03*
X90460000Y-73185000D03*
X90460000Y-75955000D03*
X90460000Y-78725000D03*
X90460000Y-81495000D03*
X90460000Y-84265000D03*
X90460000Y-87035000D03*
X90460000Y-89805000D03*
X90460000Y-92575000D03*
X90460000Y-95345000D03*
X90460000Y-98115000D03*
X90460000Y-100885000D03*
X90460000Y-103655000D03*
X90460000Y-106425000D03*
X90460000Y-109195000D03*
X90460000Y-111965000D03*
X90460000Y-114735000D03*
X90460000Y-117505000D03*
X90460000Y-120275000D03*
%TD*%
D14*
%TO.C,J4*%
X134400000Y-55137500D03*
D15*
X140400000Y-57837500D03*
X135400000Y-57837500D03*
D14*
X141400000Y-55137500D03*
%TD*%
D16*
%TO.C,J2*%
X138190000Y-77175000D03*
D17*
X135650000Y-77175000D03*
X138190000Y-74635000D03*
X135650000Y-74635000D03*
X138190000Y-72095000D03*
X135650000Y-72095000D03*
X138190000Y-69555000D03*
X135650000Y-69555000D03*
%TD*%
D16*
%TO.C,J1*%
X144890000Y-77155001D03*
D17*
X142350000Y-77155001D03*
X144890000Y-74615001D03*
X142350000Y-74615001D03*
X144890000Y-72075001D03*
X142350000Y-72075001D03*
X144890000Y-69535001D03*
X142350000Y-69535001D03*
%TD*%
D18*
%TO.C,JP1*%
X125030000Y-55070000D03*
D17*
X127570000Y-55070000D03*
X130110000Y-55070000D03*
%TD*%
M02*
