%TF.GenerationSoftware,KiCad,Pcbnew,(6.0.10)*%
%TF.CreationDate,2023-01-02T18:32:18-08:00*%
%TF.ProjectId,Telemetry_KiCAD_Project,54656c65-6d65-4747-9279-5f4b69434144,3*%
%TF.SameCoordinates,Original*%
%TF.FileFunction,Drillmap*%
%TF.FilePolarity,Positive*%
%FSLAX45Y45*%
G04 Gerber Fmt 4.5, Leading zero omitted, Abs format (unit mm)*
G04 Created by KiCad (PCBNEW (6.0.10)) date 2023-01-02 18:32:18*
%MOMM*%
%LPD*%
G01*
G04 APERTURE LIST*
%ADD10C,0.050000*%
%ADD11C,0.200000*%
%ADD12C,0.020000*%
%ADD13C,0.040000*%
%ADD14C,0.100000*%
%ADD15C,0.110000*%
%ADD16C,0.150000*%
%ADD17C,0.320000*%
G04 APERTURE END LIST*
D10*
X15000000Y-14360000D02*
G75*
G03*
X16000000Y-13360000I0J1000000D01*
G01*
X8000000Y-13360000D02*
G75*
G03*
X9000000Y-14360000I1000000J0D01*
G01*
X13095000Y-5141421D02*
G75*
G03*
X13295000Y-5345000I201790J-1789D01*
G01*
X16000000Y-6000000D02*
X16000000Y-13360000D01*
X16000002Y-6000000D02*
G75*
G03*
X15000000Y-4998000I-1002002J0D01*
G01*
X8000000Y-13360000D02*
X8000000Y-6000000D01*
X15000000Y-14360000D02*
X9000000Y-14360000D01*
X9000000Y-5000000D02*
G75*
G03*
X8000000Y-6000000I0J-1000000D01*
G01*
X13295000Y-5345000D02*
X14285000Y-5345000D01*
X14626000Y-4998007D02*
G75*
G03*
X14485000Y-5141421I2220J-143203D01*
G01*
X14285000Y-5345000D02*
G75*
G03*
X14485000Y-5141421I-1790J201790D01*
G01*
X9000000Y-5000000D02*
X12953087Y-4998789D01*
X14626000Y-4998000D02*
X15000000Y-4998000D01*
X13094998Y-5141421D02*
G75*
G03*
X12953087Y-4998789I-141698J931D01*
G01*
X12118000Y-9680000D02*
G75*
G03*
X12118000Y-9680000I-800000J0D01*
G01*
D11*
D12*
X8511000Y-5690000D02*
X8531000Y-5710000D01*
X8531000Y-5690000D02*
X8511000Y-5710000D01*
X8511000Y-6170000D02*
X8531000Y-6190000D01*
X8531000Y-6170000D02*
X8511000Y-6190000D01*
X8511000Y-6650000D02*
X8531000Y-6670000D01*
X8531000Y-6650000D02*
X8511000Y-6670000D01*
X8511000Y-7130000D02*
X8531000Y-7150000D01*
X8531000Y-7130000D02*
X8511000Y-7150000D01*
X8511000Y-7610000D02*
X8531000Y-7630000D01*
X8531000Y-7610000D02*
X8511000Y-7630000D01*
X8511000Y-8090000D02*
X8531000Y-8110000D01*
X8531000Y-8090000D02*
X8511000Y-8110000D01*
X8511000Y-8570000D02*
X8531000Y-8590000D01*
X8531000Y-8570000D02*
X8511000Y-8590000D01*
X8511000Y-9050000D02*
X8531000Y-9070000D01*
X8531000Y-9050000D02*
X8511000Y-9070000D01*
X8511000Y-9530000D02*
X8531000Y-9550000D01*
X8531000Y-9530000D02*
X8511000Y-9550000D01*
X8511000Y-10010000D02*
X8531000Y-10030000D01*
X8531000Y-10010000D02*
X8511000Y-10030000D01*
X8511000Y-10490000D02*
X8531000Y-10510000D01*
X8531000Y-10490000D02*
X8511000Y-10510000D01*
X8511000Y-10970000D02*
X8531000Y-10990000D01*
X8531000Y-10970000D02*
X8511000Y-10990000D01*
X8511000Y-11450000D02*
X8531000Y-11470000D01*
X8531000Y-11450000D02*
X8511000Y-11470000D01*
X8511000Y-11930000D02*
X8531000Y-11950000D01*
X8531000Y-11930000D02*
X8511000Y-11950000D01*
X8511000Y-12410000D02*
X8531000Y-12430000D01*
X8531000Y-12410000D02*
X8511000Y-12430000D01*
X8511000Y-12890000D02*
X8531000Y-12910000D01*
X8531000Y-12890000D02*
X8511000Y-12910000D01*
X8752000Y-13370000D02*
X8772000Y-13390000D01*
X8772000Y-13370000D02*
X8752000Y-13390000D01*
X8753000Y-13850000D02*
X8773000Y-13870000D01*
X8773000Y-13850000D02*
X8753000Y-13870000D01*
X8992000Y-13610000D02*
X9012000Y-13630000D01*
X9012000Y-13610000D02*
X8992000Y-13630000D01*
X9232000Y-13370000D02*
X9252000Y-13390000D01*
X9252000Y-13370000D02*
X9232000Y-13390000D01*
X9233000Y-13850000D02*
X9253000Y-13870000D01*
X9253000Y-13850000D02*
X9233000Y-13870000D01*
X9472000Y-13610000D02*
X9492000Y-13630000D01*
X9492000Y-13610000D02*
X9472000Y-13630000D01*
X9555000Y-7875000D02*
X9575000Y-7895000D01*
X9575000Y-7875000D02*
X9555000Y-7895000D01*
X9555000Y-8805000D02*
X9575000Y-8825000D01*
X9575000Y-8805000D02*
X9555000Y-8825000D01*
X9710000Y-10970000D02*
X9730000Y-10990000D01*
X9730000Y-10970000D02*
X9710000Y-10990000D01*
X9710000Y-11450000D02*
X9730000Y-11470000D01*
X9730000Y-11450000D02*
X9710000Y-11470000D01*
X9711000Y-11930000D02*
X9731000Y-11950000D01*
X9731000Y-11930000D02*
X9711000Y-11950000D01*
X9711000Y-12410000D02*
X9731000Y-12430000D01*
X9731000Y-12410000D02*
X9711000Y-12430000D01*
X9711000Y-12890000D02*
X9731000Y-12910000D01*
X9731000Y-12890000D02*
X9711000Y-12910000D01*
X9712000Y-13370000D02*
X9732000Y-13390000D01*
X9732000Y-13370000D02*
X9712000Y-13390000D01*
X9713000Y-13850000D02*
X9733000Y-13870000D01*
X9733000Y-13850000D02*
X9713000Y-13870000D01*
X9950000Y-11210000D02*
X9970000Y-11230000D01*
X9970000Y-11210000D02*
X9950000Y-11230000D01*
X9951000Y-12170000D02*
X9971000Y-12190000D01*
X9971000Y-12170000D02*
X9951000Y-12190000D01*
X9951000Y-12650000D02*
X9971000Y-12670000D01*
X9971000Y-12650000D02*
X9951000Y-12670000D01*
X9951000Y-13130000D02*
X9971000Y-13150000D01*
X9971000Y-13130000D02*
X9951000Y-13150000D01*
X9952000Y-13610000D02*
X9972000Y-13630000D01*
X9972000Y-13610000D02*
X9952000Y-13630000D01*
X10191000Y-11930000D02*
X10211000Y-11950000D01*
X10211000Y-11930000D02*
X10191000Y-11950000D01*
X10191000Y-12410000D02*
X10211000Y-12430000D01*
X10211000Y-12410000D02*
X10191000Y-12430000D01*
X10191000Y-12890000D02*
X10211000Y-12910000D01*
X10211000Y-12890000D02*
X10191000Y-12910000D01*
X10191000Y-13370000D02*
X10211000Y-13390000D01*
X10211000Y-13370000D02*
X10191000Y-13390000D01*
X10192000Y-13850000D02*
X10212000Y-13870000D01*
X10212000Y-13850000D02*
X10192000Y-13870000D01*
X10430000Y-12170000D02*
X10450000Y-12190000D01*
X10450000Y-12170000D02*
X10430000Y-12190000D01*
X10431000Y-12650000D02*
X10451000Y-12670000D01*
X10451000Y-12650000D02*
X10431000Y-12670000D01*
X10431000Y-13130000D02*
X10451000Y-13150000D01*
X10451000Y-13130000D02*
X10431000Y-13150000D01*
X10431000Y-13610000D02*
X10451000Y-13630000D01*
X10451000Y-13610000D02*
X10431000Y-13630000D01*
X10578000Y-6957000D02*
X10598000Y-6977000D01*
X10598000Y-6957000D02*
X10578000Y-6977000D01*
X10671000Y-11930000D02*
X10691000Y-11950000D01*
X10691000Y-11930000D02*
X10671000Y-11950000D01*
X10671000Y-12410000D02*
X10691000Y-12430000D01*
X10691000Y-12410000D02*
X10671000Y-12430000D01*
X10671000Y-12890000D02*
X10691000Y-12910000D01*
X10691000Y-12890000D02*
X10671000Y-12910000D01*
X10671000Y-13370000D02*
X10691000Y-13390000D01*
X10691000Y-13370000D02*
X10671000Y-13390000D01*
X10672000Y-13850000D02*
X10692000Y-13870000D01*
X10692000Y-13850000D02*
X10672000Y-13870000D01*
X10765000Y-6775000D02*
X10785000Y-6795000D01*
X10785000Y-6775000D02*
X10765000Y-6795000D01*
X10770000Y-7415000D02*
X10790000Y-7435000D01*
X10790000Y-7415000D02*
X10770000Y-7435000D01*
X10772000Y-7174000D02*
X10792000Y-7194000D01*
X10792000Y-7174000D02*
X10772000Y-7194000D01*
X10911000Y-12170000D02*
X10931000Y-12190000D01*
X10931000Y-12170000D02*
X10911000Y-12190000D01*
X10911000Y-12650000D02*
X10931000Y-12670000D01*
X10931000Y-12650000D02*
X10911000Y-12670000D01*
X10911000Y-13130000D02*
X10931000Y-13150000D01*
X10931000Y-13130000D02*
X10911000Y-13150000D01*
X10911000Y-13610000D02*
X10931000Y-13630000D01*
X10931000Y-13610000D02*
X10911000Y-13630000D01*
X11009293Y-7007618D02*
X11029293Y-7027618D01*
X11029293Y-7007618D02*
X11009293Y-7027618D01*
X11070000Y-6475000D02*
X11090000Y-6495000D01*
X11090000Y-6475000D02*
X11070000Y-6495000D01*
X11151000Y-11930000D02*
X11171000Y-11950000D01*
X11171000Y-11930000D02*
X11151000Y-11950000D01*
X11151000Y-12410000D02*
X11171000Y-12430000D01*
X11171000Y-12410000D02*
X11151000Y-12430000D01*
X11151000Y-12890000D02*
X11171000Y-12910000D01*
X11171000Y-12890000D02*
X11151000Y-12910000D01*
X11151000Y-13370000D02*
X11171000Y-13390000D01*
X11171000Y-13370000D02*
X11151000Y-13390000D01*
X11152000Y-13850000D02*
X11172000Y-13870000D01*
X11172000Y-13850000D02*
X11152000Y-13870000D01*
X11245000Y-6255000D02*
X11265000Y-6275000D01*
X11265000Y-6255000D02*
X11245000Y-6275000D01*
X11250707Y-6768207D02*
X11270707Y-6788207D01*
X11270707Y-6768207D02*
X11250707Y-6788207D01*
X11305000Y-8285000D02*
X11325000Y-8305000D01*
X11325000Y-8285000D02*
X11305000Y-8305000D01*
X11330000Y-8182000D02*
X11350000Y-8202000D01*
X11350000Y-8182000D02*
X11330000Y-8202000D01*
X11391000Y-12170000D02*
X11411000Y-12190000D01*
X11411000Y-12170000D02*
X11391000Y-12190000D01*
X11391000Y-12650000D02*
X11411000Y-12670000D01*
X11411000Y-12650000D02*
X11391000Y-12670000D01*
X11391000Y-13130000D02*
X11411000Y-13150000D01*
X11411000Y-13130000D02*
X11391000Y-13150000D01*
X11391000Y-13610000D02*
X11411000Y-13630000D01*
X11411000Y-13610000D02*
X11391000Y-13630000D01*
X11470000Y-6540000D02*
X11490000Y-6560000D01*
X11490000Y-6540000D02*
X11470000Y-6560000D01*
X11530000Y-7465000D02*
X11550000Y-7485000D01*
X11550000Y-7465000D02*
X11530000Y-7485000D01*
X11630000Y-10970000D02*
X11650000Y-10990000D01*
X11650000Y-10970000D02*
X11630000Y-10990000D01*
X11630000Y-11450000D02*
X11650000Y-11470000D01*
X11650000Y-11450000D02*
X11630000Y-11470000D01*
X11631000Y-11930000D02*
X11651000Y-11950000D01*
X11651000Y-11930000D02*
X11631000Y-11950000D01*
X11631000Y-12410000D02*
X11651000Y-12430000D01*
X11651000Y-12410000D02*
X11631000Y-12430000D01*
X11631000Y-12890000D02*
X11651000Y-12910000D01*
X11651000Y-12890000D02*
X11631000Y-12910000D01*
X11631000Y-13370000D02*
X11651000Y-13390000D01*
X11651000Y-13370000D02*
X11631000Y-13390000D01*
X11632000Y-13850000D02*
X11652000Y-13870000D01*
X11652000Y-13850000D02*
X11632000Y-13870000D01*
X11745000Y-6855000D02*
X11765000Y-6875000D01*
X11765000Y-6855000D02*
X11745000Y-6875000D01*
X11835000Y-7200000D02*
X11855000Y-7220000D01*
X11855000Y-7200000D02*
X11835000Y-7220000D01*
X11870000Y-11690000D02*
X11890000Y-11710000D01*
X11890000Y-11690000D02*
X11870000Y-11710000D01*
X11871000Y-11210000D02*
X11891000Y-11230000D01*
X11891000Y-11210000D02*
X11871000Y-11230000D01*
X11871000Y-12170000D02*
X11891000Y-12190000D01*
X11891000Y-12170000D02*
X11871000Y-12190000D01*
X11871000Y-12650000D02*
X11891000Y-12670000D01*
X11891000Y-12650000D02*
X11871000Y-12670000D01*
X11871000Y-13130000D02*
X11891000Y-13150000D01*
X11891000Y-13130000D02*
X11871000Y-13150000D01*
X11871000Y-13610000D02*
X11891000Y-13630000D01*
X11891000Y-13610000D02*
X11871000Y-13630000D01*
X11871000Y-10731000D02*
X11891000Y-10751000D01*
X11891000Y-10731000D02*
X11871000Y-10751000D01*
X12110000Y-10490000D02*
X12130000Y-10510000D01*
X12130000Y-10490000D02*
X12110000Y-10510000D01*
X12111000Y-10970000D02*
X12131000Y-10990000D01*
X12131000Y-10970000D02*
X12111000Y-10990000D01*
X12111000Y-11450000D02*
X12131000Y-11470000D01*
X12131000Y-11450000D02*
X12111000Y-11470000D01*
X12111000Y-11930000D02*
X12131000Y-11950000D01*
X12131000Y-11930000D02*
X12111000Y-11950000D01*
X12111000Y-12410000D02*
X12131000Y-12430000D01*
X12131000Y-12410000D02*
X12111000Y-12430000D01*
X12111000Y-12890000D02*
X12131000Y-12910000D01*
X12131000Y-12890000D02*
X12111000Y-12910000D01*
X12111000Y-13370000D02*
X12131000Y-13390000D01*
X12131000Y-13370000D02*
X12111000Y-13390000D01*
X12112000Y-13850000D02*
X12132000Y-13870000D01*
X12132000Y-13850000D02*
X12112000Y-13870000D01*
X12305000Y-7205000D02*
X12325000Y-7225000D01*
X12325000Y-7205000D02*
X12305000Y-7225000D01*
X12310000Y-6935000D02*
X12330000Y-6955000D01*
X12330000Y-6935000D02*
X12310000Y-6955000D01*
X12330000Y-5695000D02*
X12350000Y-5715000D01*
X12350000Y-5695000D02*
X12330000Y-5715000D01*
X12348000Y-9387000D02*
X12368000Y-9407000D01*
X12368000Y-9387000D02*
X12348000Y-9407000D01*
X12350000Y-9769000D02*
X12370000Y-9789000D01*
X12370000Y-9769000D02*
X12350000Y-9789000D01*
X12350000Y-10249000D02*
X12370000Y-10269000D01*
X12370000Y-10249000D02*
X12350000Y-10269000D01*
X12351000Y-10730000D02*
X12371000Y-10750000D01*
X12371000Y-10730000D02*
X12351000Y-10750000D01*
X12351000Y-11210000D02*
X12371000Y-11230000D01*
X12371000Y-11210000D02*
X12351000Y-11230000D01*
X12351000Y-11690000D02*
X12371000Y-11710000D01*
X12371000Y-11690000D02*
X12351000Y-11710000D01*
X12351000Y-12170000D02*
X12371000Y-12190000D01*
X12371000Y-12170000D02*
X12351000Y-12190000D01*
X12351000Y-12650000D02*
X12371000Y-12670000D01*
X12371000Y-12650000D02*
X12351000Y-12670000D01*
X12351000Y-13130000D02*
X12371000Y-13150000D01*
X12371000Y-13130000D02*
X12351000Y-13150000D01*
X12351000Y-13610000D02*
X12371000Y-13630000D01*
X12371000Y-13610000D02*
X12351000Y-13630000D01*
X12402500Y-6972500D02*
X12422500Y-6992500D01*
X12422500Y-6972500D02*
X12402500Y-6992500D01*
X12500000Y-5935000D02*
X12520000Y-5955000D01*
X12520000Y-5935000D02*
X12500000Y-5955000D01*
X12525000Y-7210000D02*
X12545000Y-7230000D01*
X12545000Y-7210000D02*
X12525000Y-7230000D01*
X12588000Y-9627000D02*
X12608000Y-9647000D01*
X12608000Y-9627000D02*
X12588000Y-9647000D01*
X12590000Y-10009000D02*
X12610000Y-10029000D01*
X12610000Y-10009000D02*
X12590000Y-10029000D01*
X12590000Y-10489000D02*
X12610000Y-10509000D01*
X12610000Y-10489000D02*
X12590000Y-10509000D01*
X12591000Y-10970000D02*
X12611000Y-10990000D01*
X12611000Y-10970000D02*
X12591000Y-10990000D01*
X12591000Y-11450000D02*
X12611000Y-11470000D01*
X12611000Y-11450000D02*
X12591000Y-11470000D01*
X12591000Y-11930000D02*
X12611000Y-11950000D01*
X12611000Y-11930000D02*
X12591000Y-11950000D01*
X12591000Y-12410000D02*
X12611000Y-12430000D01*
X12611000Y-12410000D02*
X12591000Y-12430000D01*
X12591000Y-12890000D02*
X12611000Y-12910000D01*
X12611000Y-12890000D02*
X12591000Y-12910000D01*
X12591000Y-13370000D02*
X12611000Y-13390000D01*
X12611000Y-13370000D02*
X12591000Y-13390000D01*
X12592000Y-13850000D02*
X12612000Y-13870000D01*
X12612000Y-13850000D02*
X12592000Y-13870000D01*
X12792218Y-6252500D02*
X12812218Y-6272500D01*
X12812218Y-6252500D02*
X12792218Y-6272500D01*
X12828000Y-9387000D02*
X12848000Y-9407000D01*
X12848000Y-9387000D02*
X12828000Y-9407000D01*
X12830000Y-9769000D02*
X12850000Y-9789000D01*
X12850000Y-9769000D02*
X12830000Y-9789000D01*
X12830000Y-10249000D02*
X12850000Y-10269000D01*
X12850000Y-10249000D02*
X12830000Y-10269000D01*
X12830000Y-10729000D02*
X12850000Y-10749000D01*
X12850000Y-10729000D02*
X12830000Y-10749000D01*
X12831000Y-11690000D02*
X12851000Y-11710000D01*
X12851000Y-11690000D02*
X12831000Y-11710000D01*
X12831000Y-12170000D02*
X12851000Y-12190000D01*
X12851000Y-12170000D02*
X12831000Y-12190000D01*
X12831000Y-12650000D02*
X12851000Y-12670000D01*
X12851000Y-12650000D02*
X12831000Y-12670000D01*
X12831000Y-13130000D02*
X12851000Y-13150000D01*
X12851000Y-13130000D02*
X12831000Y-13150000D01*
X12831000Y-13610000D02*
X12851000Y-13630000D01*
X12851000Y-13610000D02*
X12831000Y-13630000D01*
X12831000Y-11210000D02*
X12851000Y-11230000D01*
X12851000Y-11210000D02*
X12831000Y-11230000D01*
X12847000Y-7584000D02*
X12867000Y-7604000D01*
X12867000Y-7584000D02*
X12847000Y-7604000D01*
X12850000Y-6682500D02*
X12870000Y-6702500D01*
X12870000Y-6682500D02*
X12850000Y-6702500D01*
X12895000Y-6602500D02*
X12915000Y-6622500D01*
X12915000Y-6602500D02*
X12895000Y-6622500D01*
X12940000Y-6522500D02*
X12960000Y-6542500D01*
X12960000Y-6522500D02*
X12940000Y-6542500D01*
X12985000Y-6437500D02*
X13005000Y-6457500D01*
X13005000Y-6437500D02*
X12985000Y-6457500D01*
X12995653Y-6252500D02*
X13015653Y-6272500D01*
X13015653Y-6252500D02*
X12995653Y-6272500D01*
X13030000Y-6352500D02*
X13050000Y-6372500D01*
X13050000Y-6352500D02*
X13030000Y-6372500D01*
X13071000Y-11930000D02*
X13091000Y-11950000D01*
X13091000Y-11930000D02*
X13071000Y-11950000D01*
X13071000Y-12410000D02*
X13091000Y-12430000D01*
X13091000Y-12410000D02*
X13071000Y-12430000D01*
X13071000Y-12890000D02*
X13091000Y-12910000D01*
X13091000Y-12890000D02*
X13071000Y-12910000D01*
X13071000Y-13370000D02*
X13091000Y-13390000D01*
X13091000Y-13370000D02*
X13071000Y-13390000D01*
X13071000Y-11450000D02*
X13091000Y-11470000D01*
X13091000Y-11450000D02*
X13071000Y-11470000D01*
X13072000Y-13850000D02*
X13092000Y-13870000D01*
X13092000Y-13850000D02*
X13072000Y-13870000D01*
X13090000Y-7647500D02*
X13110000Y-7667500D01*
X13110000Y-7647500D02*
X13090000Y-7667500D01*
X13122000Y-8023000D02*
X13142000Y-8043000D01*
X13142000Y-8023000D02*
X13122000Y-8043000D01*
X13122500Y-7805000D02*
X13142500Y-7825000D01*
X13142500Y-7805000D02*
X13122500Y-7825000D01*
X13167000Y-7943000D02*
X13187000Y-7963000D01*
X13187000Y-7943000D02*
X13167000Y-7963000D01*
X13210000Y-8922500D02*
X13230000Y-8942500D01*
X13230000Y-8922500D02*
X13210000Y-8942500D01*
X13212000Y-7858000D02*
X13232000Y-7878000D01*
X13232000Y-7858000D02*
X13212000Y-7878000D01*
X13262500Y-7700000D02*
X13282500Y-7720000D01*
X13282500Y-7700000D02*
X13262500Y-7720000D01*
X13304063Y-7036483D02*
X13324063Y-7056483D01*
X13324063Y-7036483D02*
X13304063Y-7056483D01*
X13304063Y-7238700D02*
X13324063Y-7258700D01*
X13324063Y-7238700D02*
X13304063Y-7258700D01*
X13311000Y-12170000D02*
X13331000Y-12190000D01*
X13331000Y-12170000D02*
X13311000Y-12190000D01*
X13311000Y-12650000D02*
X13331000Y-12670000D01*
X13331000Y-12650000D02*
X13311000Y-12670000D01*
X13311000Y-13130000D02*
X13331000Y-13150000D01*
X13331000Y-13130000D02*
X13311000Y-13150000D01*
X13311000Y-13610000D02*
X13331000Y-13630000D01*
X13331000Y-13610000D02*
X13311000Y-13630000D01*
X13312000Y-7858000D02*
X13332000Y-7878000D01*
X13332000Y-7858000D02*
X13312000Y-7878000D01*
X13362000Y-7943000D02*
X13382000Y-7963000D01*
X13382000Y-7943000D02*
X13362000Y-7963000D01*
X13362522Y-6252500D02*
X13382522Y-6272500D01*
X13382522Y-6252500D02*
X13362522Y-6272500D01*
X13397967Y-6782500D02*
X13417967Y-6802500D01*
X13417967Y-6782500D02*
X13397967Y-6802500D01*
X13412000Y-8023000D02*
X13432000Y-8043000D01*
X13432000Y-8023000D02*
X13412000Y-8043000D01*
X13551000Y-12410000D02*
X13571000Y-12430000D01*
X13571000Y-12410000D02*
X13551000Y-12430000D01*
X13551000Y-12890000D02*
X13571000Y-12910000D01*
X13571000Y-12890000D02*
X13551000Y-12910000D01*
X13551000Y-13370000D02*
X13571000Y-13390000D01*
X13571000Y-13370000D02*
X13551000Y-13390000D01*
X13552000Y-13850000D02*
X13572000Y-13870000D01*
X13572000Y-13850000D02*
X13552000Y-13870000D01*
X13565957Y-6252500D02*
X13585957Y-6272500D01*
X13585957Y-6252500D02*
X13565957Y-6272500D01*
X13590000Y-8280000D02*
X13610000Y-8300000D01*
X13610000Y-8280000D02*
X13590000Y-8300000D01*
X13595000Y-8917595D02*
X13615000Y-8937595D01*
X13615000Y-8917595D02*
X13595000Y-8937595D01*
X13602543Y-6782500D02*
X13622543Y-6802500D01*
X13622543Y-6782500D02*
X13602543Y-6802500D01*
X13619771Y-8524905D02*
X13639771Y-8544905D01*
X13639771Y-8524905D02*
X13619771Y-8544905D01*
X13769392Y-6252500D02*
X13789392Y-6272500D01*
X13789392Y-6252500D02*
X13769392Y-6272500D01*
X13780000Y-7907500D02*
X13800000Y-7927500D01*
X13800000Y-7907500D02*
X13780000Y-7927500D01*
X13791000Y-13610000D02*
X13811000Y-13630000D01*
X13811000Y-13610000D02*
X13791000Y-13630000D01*
X13805000Y-8185000D02*
X13825000Y-8205000D01*
X13825000Y-8185000D02*
X13805000Y-8205000D01*
X13807119Y-6782500D02*
X13827119Y-6802500D01*
X13827119Y-6782500D02*
X13807119Y-6802500D01*
X13972826Y-6252500D02*
X13992826Y-6272500D01*
X13992826Y-6252500D02*
X13972826Y-6272500D01*
X14011695Y-6782500D02*
X14031695Y-6802500D01*
X14031695Y-6782500D02*
X14011695Y-6802500D01*
X14031000Y-9530000D02*
X14051000Y-9550000D01*
X14051000Y-9530000D02*
X14031000Y-9550000D01*
X14031000Y-10010000D02*
X14051000Y-10030000D01*
X14051000Y-10010000D02*
X14031000Y-10030000D01*
X14031000Y-10490000D02*
X14051000Y-10510000D01*
X14051000Y-10490000D02*
X14031000Y-10510000D01*
X14031000Y-10970000D02*
X14051000Y-10990000D01*
X14051000Y-10970000D02*
X14031000Y-10990000D01*
X14031000Y-11450000D02*
X14051000Y-11470000D01*
X14051000Y-11450000D02*
X14031000Y-11470000D01*
X14032000Y-13850000D02*
X14052000Y-13870000D01*
X14052000Y-13850000D02*
X14032000Y-13870000D01*
X14045000Y-5950000D02*
X14065000Y-5970000D01*
X14065000Y-5950000D02*
X14045000Y-5970000D01*
X14084437Y-8025000D02*
X14104437Y-8045000D01*
X14104437Y-8025000D02*
X14084437Y-8045000D01*
X14216272Y-6782500D02*
X14236272Y-6802500D01*
X14236272Y-6782500D02*
X14216272Y-6802500D01*
X14271000Y-9770000D02*
X14291000Y-9790000D01*
X14291000Y-9770000D02*
X14271000Y-9790000D01*
X14271000Y-10250000D02*
X14291000Y-10270000D01*
X14291000Y-10250000D02*
X14271000Y-10270000D01*
X14271000Y-10730000D02*
X14291000Y-10750000D01*
X14291000Y-10730000D02*
X14271000Y-10750000D01*
X14271000Y-11210000D02*
X14291000Y-11230000D01*
X14291000Y-11210000D02*
X14271000Y-11230000D01*
X14271000Y-13610000D02*
X14291000Y-13630000D01*
X14291000Y-13610000D02*
X14271000Y-13630000D01*
X14312286Y-8025000D02*
X14332286Y-8045000D01*
X14332286Y-8025000D02*
X14312286Y-8045000D01*
X14420848Y-6782500D02*
X14440848Y-6802500D01*
X14440848Y-6782500D02*
X14420848Y-6802500D01*
X14512000Y-13850000D02*
X14532000Y-13870000D01*
X14532000Y-13850000D02*
X14512000Y-13870000D01*
X14540000Y-8025000D02*
X14560000Y-8045000D01*
X14560000Y-8025000D02*
X14540000Y-8045000D01*
X14625424Y-6782500D02*
X14645424Y-6802500D01*
X14645424Y-6782500D02*
X14625424Y-6802500D01*
X14730000Y-7638928D02*
X14750000Y-7658928D01*
X14750000Y-7638928D02*
X14730000Y-7658928D01*
X14735000Y-8917500D02*
X14755000Y-8937500D01*
X14755000Y-8917500D02*
X14735000Y-8937500D01*
X14740000Y-6920357D02*
X14760000Y-6940357D01*
X14760000Y-6920357D02*
X14740000Y-6940357D01*
X14740000Y-7148214D02*
X14760000Y-7168214D01*
X14760000Y-7148214D02*
X14740000Y-7168214D01*
X14740000Y-7376071D02*
X14760000Y-7396071D01*
X14760000Y-7376071D02*
X14740000Y-7396071D01*
X14740000Y-7831786D02*
X14760000Y-7851786D01*
X14760000Y-7831786D02*
X14740000Y-7851786D01*
X14740000Y-8059643D02*
X14760000Y-8079643D01*
X14760000Y-8059643D02*
X14740000Y-8079643D01*
X14751000Y-12170000D02*
X14771000Y-12190000D01*
X14771000Y-12170000D02*
X14751000Y-12190000D01*
X14751000Y-12650000D02*
X14771000Y-12670000D01*
X14771000Y-12650000D02*
X14751000Y-12670000D01*
X14751000Y-13130000D02*
X14771000Y-13150000D01*
X14771000Y-13130000D02*
X14751000Y-13150000D01*
X14751000Y-13610000D02*
X14771000Y-13630000D01*
X14771000Y-13610000D02*
X14751000Y-13630000D01*
X14830000Y-6682500D02*
X14850000Y-6702500D01*
X14850000Y-6682500D02*
X14830000Y-6702500D01*
X14830000Y-7907500D02*
X14850000Y-7927500D01*
X14850000Y-7907500D02*
X14830000Y-7927500D01*
X14875000Y-6437500D02*
X14895000Y-6457500D01*
X14895000Y-6437500D02*
X14875000Y-6457500D01*
X14925000Y-6522500D02*
X14945000Y-6542500D01*
X14945000Y-6522500D02*
X14925000Y-6542500D01*
X14975000Y-6602500D02*
X14995000Y-6622500D01*
X14995000Y-6602500D02*
X14975000Y-6622500D01*
X14990000Y-11930000D02*
X15010000Y-11950000D01*
X15010000Y-11930000D02*
X14990000Y-11950000D01*
X14991000Y-12410000D02*
X15011000Y-12430000D01*
X15011000Y-12410000D02*
X14991000Y-12430000D01*
X14991000Y-12890000D02*
X15011000Y-12910000D01*
X15011000Y-12890000D02*
X14991000Y-12910000D01*
X14991000Y-13370000D02*
X15011000Y-13390000D01*
X15011000Y-13370000D02*
X14991000Y-13390000D01*
X14992000Y-13850000D02*
X15012000Y-13870000D01*
X15012000Y-13850000D02*
X14992000Y-13870000D01*
X15029000Y-6353000D02*
X15049000Y-6373000D01*
X15049000Y-6353000D02*
X15029000Y-6373000D01*
X15100000Y-7639071D02*
X15120000Y-7659071D01*
X15120000Y-7639071D02*
X15100000Y-7659071D01*
X15100000Y-7831929D02*
X15120000Y-7851929D01*
X15120000Y-7831929D02*
X15100000Y-7851929D01*
X15100000Y-8059643D02*
X15120000Y-8079643D01*
X15120000Y-8059643D02*
X15100000Y-8079643D01*
X15110000Y-6920500D02*
X15130000Y-6940500D01*
X15130000Y-6920500D02*
X15110000Y-6940500D01*
X15110000Y-7148357D02*
X15130000Y-7168357D01*
X15130000Y-7148357D02*
X15110000Y-7168357D01*
X15110000Y-7376214D02*
X15130000Y-7396214D01*
X15130000Y-7376214D02*
X15110000Y-7396214D01*
X15118000Y-8288000D02*
X15138000Y-8308000D01*
X15138000Y-8288000D02*
X15118000Y-8308000D01*
X15120000Y-8917500D02*
X15140000Y-8937500D01*
X15140000Y-8917500D02*
X15120000Y-8937500D01*
X15122000Y-6398000D02*
X15142000Y-6418000D01*
X15142000Y-6398000D02*
X15122000Y-6418000D01*
X15145000Y-8525000D02*
X15165000Y-8545000D01*
X15165000Y-8525000D02*
X15145000Y-8545000D01*
X15228000Y-11689000D02*
X15248000Y-11709000D01*
X15248000Y-11689000D02*
X15228000Y-11709000D01*
X15230000Y-12170000D02*
X15250000Y-12190000D01*
X15250000Y-12170000D02*
X15230000Y-12190000D01*
X15231000Y-12650000D02*
X15251000Y-12670000D01*
X15251000Y-12650000D02*
X15231000Y-12670000D01*
X15231000Y-13130000D02*
X15251000Y-13150000D01*
X15251000Y-13130000D02*
X15231000Y-13150000D01*
X15231000Y-13610000D02*
X15251000Y-13630000D01*
X15251000Y-13610000D02*
X15231000Y-13630000D01*
X15349000Y-6840000D02*
X15369000Y-6860000D01*
X15369000Y-6840000D02*
X15349000Y-6860000D01*
X15470000Y-11930000D02*
X15490000Y-11950000D01*
X15490000Y-11930000D02*
X15470000Y-11950000D01*
X15470000Y-12410000D02*
X15490000Y-12430000D01*
X15490000Y-12410000D02*
X15470000Y-12430000D01*
X15471000Y-12890000D02*
X15491000Y-12910000D01*
X15491000Y-12890000D02*
X15471000Y-12910000D01*
X15471000Y-13370000D02*
X15491000Y-13390000D01*
X15491000Y-13370000D02*
X15471000Y-13390000D01*
X15491000Y-6775000D02*
X15511000Y-6795000D01*
X15511000Y-6775000D02*
X15491000Y-6795000D01*
X13320000Y-8632500D02*
G75*
G03*
X13320000Y-8632500I-10000J0D01*
G01*
X13320000Y-8842500D02*
G75*
G03*
X13320000Y-8842500I-10000J0D01*
G01*
X13530000Y-8632500D02*
G75*
G03*
X13530000Y-8632500I-10000J0D01*
G01*
X13530000Y-8842500D02*
G75*
G03*
X13530000Y-8842500I-10000J0D01*
G01*
X14845000Y-8632500D02*
G75*
G03*
X14845000Y-8632500I-10000J0D01*
G01*
X14845000Y-8842500D02*
G75*
G03*
X14845000Y-8842500I-10000J0D01*
G01*
X15055000Y-8632500D02*
G75*
G03*
X15055000Y-8632500I-10000J0D01*
G01*
X15055000Y-8842500D02*
G75*
G03*
X15055000Y-8842500I-10000J0D01*
G01*
D13*
X9820000Y-7345000D02*
X9820000Y-7385000D01*
X9800000Y-7365000D02*
X9840000Y-7365000D01*
X9865000Y-7580000D02*
X9865000Y-7620000D01*
X9845000Y-7600000D02*
X9885000Y-7600000D01*
X9890000Y-5400000D02*
X9890000Y-5440000D01*
X9870000Y-5420000D02*
X9910000Y-5420000D01*
X9955000Y-9480000D02*
X9955000Y-9520000D01*
X9935000Y-9500000D02*
X9975000Y-9500000D01*
X9983500Y-7872476D02*
X9983500Y-7912476D01*
X9963500Y-7892476D02*
X10003500Y-7892476D01*
X10003500Y-11704000D02*
X10003500Y-11744000D01*
X9983500Y-11724000D02*
X10023500Y-11724000D01*
X10060000Y-5400000D02*
X10060000Y-5440000D01*
X10040000Y-5420000D02*
X10080000Y-5420000D01*
X10060000Y-6625000D02*
X10060000Y-6665000D01*
X10040000Y-6645000D02*
X10080000Y-6645000D01*
X10180000Y-7035000D02*
X10180000Y-7075000D01*
X10160000Y-7055000D02*
X10200000Y-7055000D01*
X10205000Y-9485000D02*
X10205000Y-9525000D01*
X10185000Y-9505000D02*
X10225000Y-9505000D01*
X10255000Y-6955000D02*
X10255000Y-6995000D01*
X10235000Y-6975000D02*
X10275000Y-6975000D01*
X10308000Y-7898000D02*
X10308000Y-7938000D01*
X10288000Y-7918000D02*
X10328000Y-7918000D01*
X10380000Y-6840000D02*
X10380000Y-6880000D01*
X10360000Y-6860000D02*
X10400000Y-6860000D01*
X10385000Y-7195000D02*
X10385000Y-7235000D01*
X10365000Y-7215000D02*
X10405000Y-7215000D01*
X10415000Y-7485000D02*
X10415000Y-7525000D01*
X10395000Y-7505000D02*
X10435000Y-7505000D01*
X10465000Y-8755000D02*
X10465000Y-8795000D01*
X10445000Y-8775000D02*
X10485000Y-8775000D01*
X10555000Y-7625000D02*
X10555000Y-7665000D01*
X10535000Y-7645000D02*
X10575000Y-7645000D01*
X10728500Y-5843250D02*
X10728500Y-5883250D01*
X10708500Y-5863250D02*
X10748500Y-5863250D01*
X10733500Y-5398250D02*
X10733500Y-5438250D01*
X10713500Y-5418250D02*
X10753500Y-5418250D01*
X10855000Y-8495000D02*
X10855000Y-8535000D01*
X10835000Y-8515000D02*
X10875000Y-8515000D01*
X10900000Y-6585000D02*
X10900000Y-6625000D01*
X10880000Y-6605000D02*
X10920000Y-6605000D01*
X10920000Y-5840000D02*
X10920000Y-5880000D01*
X10900000Y-5860000D02*
X10940000Y-5860000D01*
X11080000Y-7765000D02*
X11080000Y-7805000D01*
X11060000Y-7785000D02*
X11100000Y-7785000D01*
X11093500Y-5523250D02*
X11093500Y-5563250D01*
X11073500Y-5543250D02*
X11113500Y-5543250D01*
X11165000Y-7925000D02*
X11165000Y-7965000D01*
X11145000Y-7945000D02*
X11185000Y-7945000D01*
X11340000Y-5970000D02*
X11340000Y-6010000D01*
X11320000Y-5990000D02*
X11360000Y-5990000D01*
X11350000Y-8410000D02*
X11350000Y-8450000D01*
X11330000Y-8430000D02*
X11370000Y-8430000D01*
X11350000Y-8575000D02*
X11350000Y-8615000D01*
X11330000Y-8595000D02*
X11370000Y-8595000D01*
X11494500Y-11705000D02*
X11494500Y-11745000D01*
X11474500Y-11725000D02*
X11514500Y-11725000D01*
X11527000Y-8075000D02*
X11527000Y-8115000D01*
X11507000Y-8095000D02*
X11547000Y-8095000D01*
X11570000Y-6995000D02*
X11570000Y-7035000D01*
X11550000Y-7015000D02*
X11590000Y-7015000D01*
X11591000Y-5509000D02*
X11591000Y-5549000D01*
X11571000Y-5529000D02*
X11611000Y-5529000D01*
X11725000Y-8670000D02*
X11725000Y-8710000D01*
X11705000Y-8690000D02*
X11745000Y-8690000D01*
X12013000Y-6682000D02*
X12013000Y-6722000D01*
X11993000Y-6702000D02*
X12033000Y-6702000D01*
X12075000Y-6925000D02*
X12075000Y-6965000D01*
X12055000Y-6945000D02*
X12095000Y-6945000D01*
X12085000Y-8865000D02*
X12085000Y-8905000D01*
X12065000Y-8885000D02*
X12105000Y-8885000D01*
X12137000Y-8387000D02*
X12137000Y-8427000D01*
X12117000Y-8407000D02*
X12157000Y-8407000D01*
X12150000Y-6055000D02*
X12150000Y-6095000D01*
X12130000Y-6075000D02*
X12170000Y-6075000D01*
X12225000Y-6855000D02*
X12225000Y-6895000D01*
X12205000Y-6875000D02*
X12245000Y-6875000D01*
X12250000Y-6165000D02*
X12250000Y-6205000D01*
X12230000Y-6185000D02*
X12270000Y-6185000D01*
X12315000Y-7355000D02*
X12315000Y-7395000D01*
X12295000Y-7375000D02*
X12335000Y-7375000D01*
X12350000Y-6275000D02*
X12350000Y-6315000D01*
X12330000Y-6295000D02*
X12370000Y-6295000D01*
X12377000Y-8550500D02*
X12377000Y-8590500D01*
X12357000Y-8570500D02*
X12397000Y-8570500D01*
X12377000Y-8733500D02*
X12377000Y-8773500D01*
X12357000Y-8753500D02*
X12397000Y-8753500D01*
X12377500Y-8367500D02*
X12377500Y-8407500D01*
X12357500Y-8387500D02*
X12397500Y-8387500D01*
X12379000Y-8916500D02*
X12379000Y-8956500D01*
X12359000Y-8936500D02*
X12399000Y-8936500D01*
X12505000Y-6455000D02*
X12505000Y-6495000D01*
X12485000Y-6475000D02*
X12525000Y-6475000D01*
X12509000Y-9080500D02*
X12509000Y-9120500D01*
X12489000Y-9100500D02*
X12529000Y-9100500D01*
X12530012Y-8184081D02*
X12530012Y-8224081D01*
X12510012Y-8204081D02*
X12550012Y-8204081D01*
X12545000Y-8391500D02*
X12545000Y-8431500D01*
X12525000Y-8411500D02*
X12565000Y-8411500D01*
X12546000Y-8896000D02*
X12546000Y-8936000D01*
X12526000Y-8916000D02*
X12566000Y-8916000D01*
X12723675Y-8177500D02*
X12723675Y-8217500D01*
X12703675Y-8197500D02*
X12743675Y-8197500D01*
X12741000Y-9103500D02*
X12741000Y-9143500D01*
X12721000Y-9123500D02*
X12761000Y-9123500D01*
X12778115Y-7444885D02*
X12778115Y-7484885D01*
X12758115Y-7464885D02*
X12798115Y-7464885D01*
X12815000Y-5917500D02*
X12815000Y-5957500D01*
X12795000Y-5937500D02*
X12835000Y-5937500D01*
X12898000Y-6851000D02*
X12898000Y-6891000D01*
X12878000Y-6871000D02*
X12918000Y-6871000D01*
X12910000Y-7180000D02*
X12910000Y-7220000D01*
X12890000Y-7200000D02*
X12930000Y-7200000D01*
X12917337Y-8177500D02*
X12917337Y-8217500D01*
X12897337Y-8197500D02*
X12937337Y-8197500D01*
X12960000Y-9129000D02*
X12960000Y-9169000D01*
X12940000Y-9149000D02*
X12980000Y-9149000D01*
X13068000Y-9293500D02*
X13068000Y-9333500D01*
X13048000Y-9313500D02*
X13088000Y-9313500D01*
X13073000Y-6851000D02*
X13073000Y-6891000D01*
X13053000Y-6871000D02*
X13093000Y-6871000D01*
X13090000Y-9497500D02*
X13090000Y-9537500D01*
X13070000Y-9517500D02*
X13110000Y-9517500D01*
X13090000Y-9702500D02*
X13090000Y-9742500D01*
X13070000Y-9722500D02*
X13110000Y-9722500D01*
X13090000Y-9907500D02*
X13090000Y-9947500D01*
X13070000Y-9927500D02*
X13110000Y-9927500D01*
X13090000Y-10112500D02*
X13090000Y-10152500D01*
X13070000Y-10132500D02*
X13110000Y-10132500D01*
X13090000Y-10317500D02*
X13090000Y-10357500D01*
X13070000Y-10337500D02*
X13110000Y-10337500D01*
X13090000Y-10522500D02*
X13090000Y-10562500D01*
X13070000Y-10542500D02*
X13110000Y-10542500D01*
X13090000Y-10727500D02*
X13090000Y-10767500D01*
X13070000Y-10747500D02*
X13110000Y-10747500D01*
X13090000Y-10932500D02*
X13090000Y-10972500D01*
X13070000Y-10952500D02*
X13110000Y-10952500D01*
X13111000Y-8177500D02*
X13111000Y-8217500D01*
X13091000Y-8197500D02*
X13131000Y-8197500D01*
X13132682Y-11076818D02*
X13132682Y-11116818D01*
X13112682Y-11096818D02*
X13152682Y-11096818D01*
X13203264Y-9032857D02*
X13203264Y-9072857D01*
X13183264Y-9052857D02*
X13223264Y-9052857D01*
X13221000Y-8318500D02*
X13221000Y-8358500D01*
X13201000Y-8338500D02*
X13241000Y-8338500D01*
X13231250Y-11181250D02*
X13231250Y-11221250D01*
X13211250Y-11201250D02*
X13251250Y-11201250D01*
X13310000Y-11319500D02*
X13310000Y-11359500D01*
X13290000Y-11339500D02*
X13330000Y-11339500D01*
X13325000Y-5917500D02*
X13325000Y-5957500D01*
X13305000Y-5937500D02*
X13345000Y-5937500D01*
X13369991Y-11517476D02*
X13369991Y-11557476D01*
X13349991Y-11537476D02*
X13389991Y-11537476D01*
X13438286Y-11654554D02*
X13438286Y-11694554D01*
X13418286Y-11674554D02*
X13458286Y-11674554D01*
X13515404Y-11320304D02*
X13515404Y-11360304D01*
X13495404Y-11340304D02*
X13535404Y-11340304D01*
X13525510Y-11780426D02*
X13525510Y-11820426D01*
X13505510Y-11800426D02*
X13545510Y-11800426D01*
X13568062Y-11471154D02*
X13568062Y-11511154D01*
X13548062Y-11491154D02*
X13588062Y-11491154D01*
X13578500Y-11179000D02*
X13578500Y-11219000D01*
X13558500Y-11199000D02*
X13598500Y-11199000D01*
X13597500Y-5931266D02*
X13597500Y-5971266D01*
X13577500Y-5951266D02*
X13617500Y-5951266D01*
X13629401Y-11892972D02*
X13629401Y-11932972D01*
X13609401Y-11912972D02*
X13649401Y-11912972D01*
X13647442Y-11609793D02*
X13647442Y-11649793D01*
X13627442Y-11629793D02*
X13667442Y-11629793D01*
X13663199Y-11077699D02*
X13663199Y-11117699D01*
X13643199Y-11097699D02*
X13683199Y-11097699D01*
X13690000Y-9497500D02*
X13690000Y-9537500D01*
X13670000Y-9517500D02*
X13710000Y-9517500D01*
X13690000Y-9702500D02*
X13690000Y-9742500D01*
X13670000Y-9722500D02*
X13710000Y-9722500D01*
X13690000Y-9907500D02*
X13690000Y-9947500D01*
X13670000Y-9927500D02*
X13710000Y-9927500D01*
X13690000Y-10112500D02*
X13690000Y-10152500D01*
X13670000Y-10132500D02*
X13710000Y-10132500D01*
X13690000Y-10317500D02*
X13690000Y-10357500D01*
X13670000Y-10337500D02*
X13710000Y-10337500D01*
X13690000Y-10522500D02*
X13690000Y-10562500D01*
X13670000Y-10542500D02*
X13710000Y-10542500D01*
X13690000Y-10727500D02*
X13690000Y-10767500D01*
X13670000Y-10747500D02*
X13710000Y-10747500D01*
X13690000Y-10932500D02*
X13690000Y-10972500D01*
X13670000Y-10952500D02*
X13710000Y-10952500D01*
X13711000Y-9290500D02*
X13711000Y-9330500D01*
X13691000Y-9310500D02*
X13731000Y-9310500D01*
X13738488Y-12000646D02*
X13738488Y-12040646D01*
X13718488Y-12020646D02*
X13758488Y-12020646D01*
X13738951Y-8400000D02*
X13738951Y-8440000D01*
X13718951Y-8420000D02*
X13758951Y-8420000D01*
X13750722Y-11731704D02*
X13750722Y-11771704D01*
X13730722Y-11751704D02*
X13770722Y-11751704D01*
X13847576Y-12108321D02*
X13847576Y-12148321D01*
X13827576Y-12128321D02*
X13867576Y-12128321D01*
X13851456Y-9147957D02*
X13851456Y-9187957D01*
X13831456Y-9167957D02*
X13871456Y-9167957D01*
X13856880Y-12837500D02*
X13856880Y-12877500D01*
X13836880Y-12857500D02*
X13876880Y-12857500D01*
X13864603Y-11844111D02*
X13864603Y-11884111D01*
X13844603Y-11864111D02*
X13884603Y-11864111D01*
X13923000Y-8583000D02*
X13923000Y-8623000D01*
X13903000Y-8603000D02*
X13943000Y-8603000D01*
X13923000Y-8766000D02*
X13923000Y-8806000D01*
X13903000Y-8786000D02*
X13943000Y-8786000D01*
X13923500Y-8400000D02*
X13923500Y-8440000D01*
X13903500Y-8420000D02*
X13943500Y-8420000D01*
X13925000Y-8949000D02*
X13925000Y-8989000D01*
X13905000Y-8969000D02*
X13945000Y-8969000D01*
X13956664Y-12215995D02*
X13956664Y-12255995D01*
X13936664Y-12235995D02*
X13976664Y-12235995D01*
X13978485Y-11956517D02*
X13978485Y-11996517D01*
X13958485Y-11976517D02*
X13998485Y-11976517D01*
X14015000Y-12362500D02*
X14015000Y-12402500D01*
X13995000Y-12382500D02*
X14035000Y-12382500D01*
X14055012Y-8184081D02*
X14055012Y-8224081D01*
X14035012Y-8204081D02*
X14075012Y-8204081D01*
X14058000Y-9099500D02*
X14058000Y-9139500D01*
X14038000Y-9119500D02*
X14078000Y-9119500D01*
X14071000Y-8898500D02*
X14071000Y-8938500D01*
X14051000Y-8918500D02*
X14091000Y-8918500D01*
X14072000Y-8385500D02*
X14072000Y-8425500D01*
X14052000Y-8405500D02*
X14092000Y-8405500D01*
X14092366Y-12068923D02*
X14092366Y-12108923D01*
X14072366Y-12088923D02*
X14112366Y-12088923D01*
X14189000Y-12165500D02*
X14189000Y-12205500D01*
X14169000Y-12185500D02*
X14209000Y-12185500D01*
X14190000Y-13170619D02*
X14190000Y-13210619D01*
X14170000Y-13190619D02*
X14210000Y-13190619D01*
X14248675Y-8177500D02*
X14248675Y-8217500D01*
X14228675Y-8197500D02*
X14268675Y-8197500D01*
X14285776Y-12070010D02*
X14285776Y-12110010D01*
X14265776Y-12090010D02*
X14305776Y-12090010D01*
X14292000Y-9100000D02*
X14292000Y-9140000D01*
X14272000Y-9120000D02*
X14312000Y-9120000D01*
X14365000Y-12362500D02*
X14365000Y-12402500D01*
X14345000Y-12382500D02*
X14385000Y-12382500D01*
X14398724Y-11958765D02*
X14398724Y-11998765D01*
X14378724Y-11978765D02*
X14418724Y-11978765D01*
X14436012Y-12202758D02*
X14436012Y-12242758D01*
X14416012Y-12222758D02*
X14456012Y-12222758D01*
X14442337Y-8177500D02*
X14442337Y-8217500D01*
X14422337Y-8197500D02*
X14462337Y-8197500D01*
X14511672Y-11847520D02*
X14511672Y-11887520D01*
X14491672Y-11867520D02*
X14531672Y-11867520D01*
X14523021Y-12849479D02*
X14523021Y-12889479D01*
X14503021Y-12869479D02*
X14543021Y-12869479D01*
X14531000Y-9131000D02*
X14531000Y-9171000D01*
X14511000Y-9151000D02*
X14551000Y-9151000D01*
X14558853Y-12081770D02*
X14558853Y-12121770D01*
X14538853Y-12101770D02*
X14578853Y-12101770D01*
X14624620Y-11736276D02*
X14624620Y-11776276D01*
X14604620Y-11756276D02*
X14644620Y-11756276D01*
X14636000Y-8177500D02*
X14636000Y-8217500D01*
X14616000Y-8197500D02*
X14656000Y-8197500D01*
X14648000Y-9290500D02*
X14648000Y-9330500D01*
X14628000Y-9310500D02*
X14668000Y-9310500D01*
X14670000Y-9494500D02*
X14670000Y-9534500D01*
X14650000Y-9514500D02*
X14690000Y-9514500D01*
X14670000Y-9696500D02*
X14670000Y-9736500D01*
X14650000Y-9716500D02*
X14690000Y-9716500D01*
X14670000Y-9898500D02*
X14670000Y-9938500D01*
X14650000Y-9918500D02*
X14690000Y-9918500D01*
X14670000Y-10100500D02*
X14670000Y-10140500D01*
X14650000Y-10120500D02*
X14690000Y-10120500D01*
X14670000Y-10302500D02*
X14670000Y-10342500D01*
X14650000Y-10322500D02*
X14690000Y-10322500D01*
X14670000Y-10504500D02*
X14670000Y-10544500D01*
X14650000Y-10524500D02*
X14690000Y-10524500D01*
X14670000Y-10706500D02*
X14670000Y-10746500D01*
X14650000Y-10726500D02*
X14690000Y-10726500D01*
X14674000Y-10908500D02*
X14674000Y-10948500D01*
X14654000Y-10928500D02*
X14694000Y-10928500D01*
X14681693Y-11960781D02*
X14681693Y-12000781D01*
X14661693Y-11980781D02*
X14701693Y-11980781D01*
X14722055Y-11048445D02*
X14722055Y-11088445D01*
X14702055Y-11068445D02*
X14742055Y-11068445D01*
X14724000Y-6270050D02*
X14724000Y-6310050D01*
X14704000Y-6290050D02*
X14744000Y-6290050D01*
X14727000Y-9032000D02*
X14727000Y-9072000D01*
X14707000Y-9052000D02*
X14747000Y-9052000D01*
X14727947Y-11616339D02*
X14727947Y-11656339D01*
X14707947Y-11636339D02*
X14747947Y-11636339D01*
X14746000Y-8318500D02*
X14746000Y-8358500D01*
X14726000Y-8338500D02*
X14766000Y-8338500D01*
X14803696Y-11838969D02*
X14803696Y-11878969D01*
X14783696Y-11858969D02*
X14823696Y-11858969D01*
X14808093Y-11479828D02*
X14808093Y-11519828D01*
X14788093Y-11499828D02*
X14828093Y-11499828D01*
X14808882Y-11153618D02*
X14808882Y-11193618D01*
X14788882Y-11173618D02*
X14828882Y-11173618D01*
X14861794Y-11330906D02*
X14861794Y-11370906D01*
X14841794Y-11350906D02*
X14881794Y-11350906D01*
X14910740Y-11704050D02*
X14910740Y-11744050D01*
X14890740Y-11724050D02*
X14930740Y-11724050D01*
X14997648Y-11545731D02*
X14997648Y-11585731D01*
X14977648Y-11565731D02*
X15017648Y-11565731D01*
X15073000Y-11330500D02*
X15073000Y-11370500D01*
X15053000Y-11350500D02*
X15093000Y-11350500D01*
X15210914Y-11154414D02*
X15210914Y-11194414D01*
X15190914Y-11174414D02*
X15230914Y-11174414D01*
X15236000Y-6907000D02*
X15236000Y-6947000D01*
X15216000Y-6927000D02*
X15256000Y-6927000D01*
X15263000Y-8400500D02*
X15263000Y-8440500D01*
X15243000Y-8420500D02*
X15283000Y-8420500D01*
X15303000Y-10571500D02*
X15303000Y-10611500D01*
X15283000Y-10591500D02*
X15323000Y-10591500D01*
X15310712Y-9232151D02*
X15310712Y-9272151D01*
X15290712Y-9252151D02*
X15330712Y-9252151D01*
X15350000Y-7987000D02*
X15350000Y-8027000D01*
X15330000Y-8007000D02*
X15370000Y-8007000D01*
X15391298Y-11053798D02*
X15391298Y-11093798D01*
X15371298Y-11073798D02*
X15411298Y-11073798D01*
X15471000Y-8400500D02*
X15471000Y-8440500D01*
X15451000Y-8420500D02*
X15491000Y-8420500D01*
X15471000Y-8608500D02*
X15471000Y-8648500D01*
X15451000Y-8628500D02*
X15491000Y-8628500D01*
X15471000Y-8816500D02*
X15471000Y-8856500D01*
X15451000Y-8836500D02*
X15491000Y-8836500D01*
X15471000Y-9024500D02*
X15471000Y-9064500D01*
X15451000Y-9044500D02*
X15491000Y-9044500D01*
X15471000Y-9232500D02*
X15471000Y-9272500D01*
X15451000Y-9252500D02*
X15491000Y-9252500D01*
X15471000Y-9440500D02*
X15471000Y-9480500D01*
X15451000Y-9460500D02*
X15491000Y-9460500D01*
X15471000Y-9648500D02*
X15471000Y-9688500D01*
X15451000Y-9668500D02*
X15491000Y-9668500D01*
X15471000Y-9856500D02*
X15471000Y-9896500D01*
X15451000Y-9876500D02*
X15491000Y-9876500D01*
X15471000Y-10064500D02*
X15471000Y-10104500D01*
X15451000Y-10084500D02*
X15491000Y-10084500D01*
X15471000Y-10272500D02*
X15471000Y-10312500D01*
X15451000Y-10292500D02*
X15491000Y-10292500D01*
X15471000Y-10480500D02*
X15471000Y-10520500D01*
X15451000Y-10500500D02*
X15491000Y-10500500D01*
X15471000Y-10688500D02*
X15471000Y-10728500D01*
X15451000Y-10708500D02*
X15491000Y-10708500D01*
X15471000Y-10896500D02*
X15471000Y-10936500D01*
X15451000Y-10916500D02*
X15491000Y-10916500D01*
X15652500Y-10572500D02*
X15652500Y-10612500D01*
X15632500Y-10592500D02*
X15672500Y-10592500D01*
D10*
X11649014Y-7969031D02*
X11649014Y-7933675D01*
X11613658Y-7933675D01*
X11613658Y-7969031D01*
X11649014Y-7969031D01*
X11779678Y-7823678D02*
X11779678Y-7788322D01*
X11744322Y-7788322D01*
X11744322Y-7823678D01*
X11779678Y-7823678D01*
X11968678Y-7759678D02*
X11968678Y-7724322D01*
X11933322Y-7724322D01*
X11933322Y-7759678D01*
X11968678Y-7759678D01*
X12097678Y-7590678D02*
X12097678Y-7555322D01*
X12062322Y-7555322D01*
X12062322Y-7590678D01*
X12097678Y-7590678D01*
X14327178Y-5883678D02*
X14327178Y-5848322D01*
X14291822Y-5848322D01*
X14291822Y-5883678D01*
X14327178Y-5883678D01*
X15007178Y-5828678D02*
X15007178Y-5793322D01*
X14971822Y-5793322D01*
X14971822Y-5828678D01*
X15007178Y-5828678D01*
X15007178Y-6061178D02*
X15007178Y-6025822D01*
X14971822Y-6025822D01*
X14971822Y-6061178D01*
X15007178Y-6061178D01*
X15134678Y-5943678D02*
X15134678Y-5908322D01*
X15099322Y-5908322D01*
X15099322Y-5943678D01*
X15134678Y-5943678D01*
X15367678Y-7099678D02*
X15367678Y-7064322D01*
X15332322Y-7064322D01*
X15332322Y-7099678D01*
X15367678Y-7099678D01*
X15417678Y-5672678D02*
X15417678Y-5637322D01*
X15382322Y-5637322D01*
X15382322Y-5672678D01*
X15417678Y-5672678D01*
X15419678Y-6213678D02*
X15419678Y-6178322D01*
X15384322Y-6178322D01*
X15384322Y-6213678D01*
X15419678Y-6213678D01*
X15612678Y-5942678D02*
X15612678Y-5907322D01*
X15577322Y-5907322D01*
X15577322Y-5942678D01*
X15612678Y-5942678D01*
D14*
X12503000Y-5557000D02*
X12553000Y-5507000D01*
X12503000Y-5457000D01*
X12453000Y-5507000D01*
X12503000Y-5557000D01*
X12757000Y-5557000D02*
X12807000Y-5507000D01*
X12757000Y-5457000D01*
X12707000Y-5507000D01*
X12757000Y-5557000D01*
X13011000Y-5557000D02*
X13061000Y-5507000D01*
X13011000Y-5457000D01*
X12961000Y-5507000D01*
X13011000Y-5557000D01*
X13565000Y-7005500D02*
X13615000Y-6955500D01*
X13565000Y-6905500D01*
X13515000Y-6955500D01*
X13565000Y-7005500D01*
X13565000Y-7259500D02*
X13615000Y-7209500D01*
X13565000Y-7159500D01*
X13515000Y-7209500D01*
X13565000Y-7259500D01*
X13565000Y-7513500D02*
X13615000Y-7463500D01*
X13565000Y-7413500D01*
X13515000Y-7463500D01*
X13565000Y-7513500D01*
X13565000Y-7767500D02*
X13615000Y-7717500D01*
X13565000Y-7667500D01*
X13515000Y-7717500D01*
X13565000Y-7767500D01*
X13819000Y-7005500D02*
X13869000Y-6955500D01*
X13819000Y-6905500D01*
X13769000Y-6955500D01*
X13819000Y-7005500D01*
X13819000Y-7259500D02*
X13869000Y-7209500D01*
X13819000Y-7159500D01*
X13769000Y-7209500D01*
X13819000Y-7259500D01*
X13819000Y-7513500D02*
X13869000Y-7463500D01*
X13819000Y-7413500D01*
X13769000Y-7463500D01*
X13819000Y-7513500D01*
X13819000Y-7767500D02*
X13869000Y-7717500D01*
X13819000Y-7667500D01*
X13769000Y-7717500D01*
X13819000Y-7767500D01*
X14235000Y-7003500D02*
X14285000Y-6953500D01*
X14235000Y-6903500D01*
X14185000Y-6953500D01*
X14235000Y-7003500D01*
X14235000Y-7257500D02*
X14285000Y-7207500D01*
X14235000Y-7157500D01*
X14185000Y-7207500D01*
X14235000Y-7257500D01*
X14235000Y-7511500D02*
X14285000Y-7461500D01*
X14235000Y-7411500D01*
X14185000Y-7461500D01*
X14235000Y-7511500D01*
X14235000Y-7765500D02*
X14285000Y-7715500D01*
X14235000Y-7665500D01*
X14185000Y-7715500D01*
X14235000Y-7765500D01*
X14489000Y-7003500D02*
X14539000Y-6953500D01*
X14489000Y-6903500D01*
X14439000Y-6953500D01*
X14489000Y-7003500D01*
X14489000Y-7257500D02*
X14539000Y-7207500D01*
X14489000Y-7157500D01*
X14439000Y-7207500D01*
X14489000Y-7257500D01*
X14489000Y-7511500D02*
X14539000Y-7461500D01*
X14489000Y-7411500D01*
X14439000Y-7461500D01*
X14489000Y-7511500D01*
X14489000Y-7765500D02*
X14539000Y-7715500D01*
X14489000Y-7665500D01*
X14439000Y-7715500D01*
X14489000Y-7765500D01*
D15*
X8991000Y-7263500D02*
X9101000Y-7373500D01*
X9101000Y-7263500D02*
X8991000Y-7373500D01*
X9101000Y-7318500D02*
G75*
G03*
X9101000Y-7318500I-55000J0D01*
G01*
X8991000Y-7540500D02*
X9101000Y-7650500D01*
X9101000Y-7540500D02*
X8991000Y-7650500D01*
X9101000Y-7595500D02*
G75*
G03*
X9101000Y-7595500I-55000J0D01*
G01*
X8991000Y-7817500D02*
X9101000Y-7927500D01*
X9101000Y-7817500D02*
X8991000Y-7927500D01*
X9101000Y-7872500D02*
G75*
G03*
X9101000Y-7872500I-55000J0D01*
G01*
X8991000Y-8094500D02*
X9101000Y-8204500D01*
X9101000Y-8094500D02*
X8991000Y-8204500D01*
X9101000Y-8149500D02*
G75*
G03*
X9101000Y-8149500I-55000J0D01*
G01*
X8991000Y-8371500D02*
X9101000Y-8481500D01*
X9101000Y-8371500D02*
X8991000Y-8481500D01*
X9101000Y-8426500D02*
G75*
G03*
X9101000Y-8426500I-55000J0D01*
G01*
X8991000Y-8648500D02*
X9101000Y-8758500D01*
X9101000Y-8648500D02*
X8991000Y-8758500D01*
X9101000Y-8703500D02*
G75*
G03*
X9101000Y-8703500I-55000J0D01*
G01*
X8991000Y-8925500D02*
X9101000Y-9035500D01*
X9101000Y-8925500D02*
X8991000Y-9035500D01*
X9101000Y-8980500D02*
G75*
G03*
X9101000Y-8980500I-55000J0D01*
G01*
X8991000Y-9202500D02*
X9101000Y-9312500D01*
X9101000Y-9202500D02*
X8991000Y-9312500D01*
X9101000Y-9257500D02*
G75*
G03*
X9101000Y-9257500I-55000J0D01*
G01*
X8991000Y-9479500D02*
X9101000Y-9589500D01*
X9101000Y-9479500D02*
X8991000Y-9589500D01*
X9101000Y-9534500D02*
G75*
G03*
X9101000Y-9534500I-55000J0D01*
G01*
X8991000Y-9756500D02*
X9101000Y-9866500D01*
X9101000Y-9756500D02*
X8991000Y-9866500D01*
X9101000Y-9811500D02*
G75*
G03*
X9101000Y-9811500I-55000J0D01*
G01*
X8991000Y-10033500D02*
X9101000Y-10143500D01*
X9101000Y-10033500D02*
X8991000Y-10143500D01*
X9101000Y-10088500D02*
G75*
G03*
X9101000Y-10088500I-55000J0D01*
G01*
X8991000Y-10310500D02*
X9101000Y-10420500D01*
X9101000Y-10310500D02*
X8991000Y-10420500D01*
X9101000Y-10365500D02*
G75*
G03*
X9101000Y-10365500I-55000J0D01*
G01*
X8991000Y-10587500D02*
X9101000Y-10697500D01*
X9101000Y-10587500D02*
X8991000Y-10697500D01*
X9101000Y-10642500D02*
G75*
G03*
X9101000Y-10642500I-55000J0D01*
G01*
X8991000Y-10864500D02*
X9101000Y-10974500D01*
X9101000Y-10864500D02*
X8991000Y-10974500D01*
X9101000Y-10919500D02*
G75*
G03*
X9101000Y-10919500I-55000J0D01*
G01*
X8991000Y-11141500D02*
X9101000Y-11251500D01*
X9101000Y-11141500D02*
X8991000Y-11251500D01*
X9101000Y-11196500D02*
G75*
G03*
X9101000Y-11196500I-55000J0D01*
G01*
X8991000Y-11418500D02*
X9101000Y-11528500D01*
X9101000Y-11418500D02*
X8991000Y-11528500D01*
X9101000Y-11473500D02*
G75*
G03*
X9101000Y-11473500I-55000J0D01*
G01*
X8991000Y-11695500D02*
X9101000Y-11805500D01*
X9101000Y-11695500D02*
X8991000Y-11805500D01*
X9101000Y-11750500D02*
G75*
G03*
X9101000Y-11750500I-55000J0D01*
G01*
X8991000Y-11972500D02*
X9101000Y-12082500D01*
X9101000Y-11972500D02*
X8991000Y-12082500D01*
X9101000Y-12027500D02*
G75*
G03*
X9101000Y-12027500I-55000J0D01*
G01*
X9245000Y-7125000D02*
X9355000Y-7235000D01*
X9355000Y-7125000D02*
X9245000Y-7235000D01*
X9355000Y-7180000D02*
G75*
G03*
X9355000Y-7180000I-55000J0D01*
G01*
X9245000Y-7402000D02*
X9355000Y-7512000D01*
X9355000Y-7402000D02*
X9245000Y-7512000D01*
X9355000Y-7457000D02*
G75*
G03*
X9355000Y-7457000I-55000J0D01*
G01*
X9245000Y-7679000D02*
X9355000Y-7789000D01*
X9355000Y-7679000D02*
X9245000Y-7789000D01*
X9355000Y-7734000D02*
G75*
G03*
X9355000Y-7734000I-55000J0D01*
G01*
X9245000Y-7956000D02*
X9355000Y-8066000D01*
X9355000Y-7956000D02*
X9245000Y-8066000D01*
X9355000Y-8011000D02*
G75*
G03*
X9355000Y-8011000I-55000J0D01*
G01*
X9245000Y-8233000D02*
X9355000Y-8343000D01*
X9355000Y-8233000D02*
X9245000Y-8343000D01*
X9355000Y-8288000D02*
G75*
G03*
X9355000Y-8288000I-55000J0D01*
G01*
X9245000Y-8510000D02*
X9355000Y-8620000D01*
X9355000Y-8510000D02*
X9245000Y-8620000D01*
X9355000Y-8565000D02*
G75*
G03*
X9355000Y-8565000I-55000J0D01*
G01*
X9245000Y-8787000D02*
X9355000Y-8897000D01*
X9355000Y-8787000D02*
X9245000Y-8897000D01*
X9355000Y-8842000D02*
G75*
G03*
X9355000Y-8842000I-55000J0D01*
G01*
X9245000Y-9064000D02*
X9355000Y-9174000D01*
X9355000Y-9064000D02*
X9245000Y-9174000D01*
X9355000Y-9119000D02*
G75*
G03*
X9355000Y-9119000I-55000J0D01*
G01*
X9245000Y-9341000D02*
X9355000Y-9451000D01*
X9355000Y-9341000D02*
X9245000Y-9451000D01*
X9355000Y-9396000D02*
G75*
G03*
X9355000Y-9396000I-55000J0D01*
G01*
X9245000Y-9618000D02*
X9355000Y-9728000D01*
X9355000Y-9618000D02*
X9245000Y-9728000D01*
X9355000Y-9673000D02*
G75*
G03*
X9355000Y-9673000I-55000J0D01*
G01*
X9245000Y-9895000D02*
X9355000Y-10005000D01*
X9355000Y-9895000D02*
X9245000Y-10005000D01*
X9355000Y-9950000D02*
G75*
G03*
X9355000Y-9950000I-55000J0D01*
G01*
X9245000Y-10172000D02*
X9355000Y-10282000D01*
X9355000Y-10172000D02*
X9245000Y-10282000D01*
X9355000Y-10227000D02*
G75*
G03*
X9355000Y-10227000I-55000J0D01*
G01*
X9245000Y-10449000D02*
X9355000Y-10559000D01*
X9355000Y-10449000D02*
X9245000Y-10559000D01*
X9355000Y-10504000D02*
G75*
G03*
X9355000Y-10504000I-55000J0D01*
G01*
X9245000Y-10726000D02*
X9355000Y-10836000D01*
X9355000Y-10726000D02*
X9245000Y-10836000D01*
X9355000Y-10781000D02*
G75*
G03*
X9355000Y-10781000I-55000J0D01*
G01*
X9245000Y-11003000D02*
X9355000Y-11113000D01*
X9355000Y-11003000D02*
X9245000Y-11113000D01*
X9355000Y-11058000D02*
G75*
G03*
X9355000Y-11058000I-55000J0D01*
G01*
X9245000Y-11280000D02*
X9355000Y-11390000D01*
X9355000Y-11280000D02*
X9245000Y-11390000D01*
X9355000Y-11335000D02*
G75*
G03*
X9355000Y-11335000I-55000J0D01*
G01*
X9245000Y-11557000D02*
X9355000Y-11667000D01*
X9355000Y-11557000D02*
X9245000Y-11667000D01*
X9355000Y-11612000D02*
G75*
G03*
X9355000Y-11612000I-55000J0D01*
G01*
X9245000Y-11834000D02*
X9355000Y-11944000D01*
X9355000Y-11834000D02*
X9245000Y-11944000D01*
X9355000Y-11889000D02*
G75*
G03*
X9355000Y-11889000I-55000J0D01*
G01*
X9245000Y-12111000D02*
X9355000Y-12221000D01*
X9355000Y-12111000D02*
X9245000Y-12221000D01*
X9355000Y-12166000D02*
G75*
G03*
X9355000Y-12166000I-55000J0D01*
G01*
D16*
X13861000Y-12528500D02*
X14011000Y-12678500D01*
X14011000Y-12528500D02*
X13861000Y-12678500D01*
X13936000Y-12528500D02*
X13936000Y-12678500D01*
X13861000Y-12603500D02*
X14011000Y-12603500D01*
X13861000Y-13036500D02*
X14011000Y-13186500D01*
X14011000Y-13036500D02*
X13861000Y-13186500D01*
X13936000Y-13036500D02*
X13936000Y-13186500D01*
X13861000Y-13111500D02*
X14011000Y-13111500D01*
X14115000Y-12782500D02*
X14265000Y-12932500D01*
X14265000Y-12782500D02*
X14115000Y-12932500D01*
X14190000Y-12782500D02*
X14190000Y-12932500D01*
X14115000Y-12857500D02*
X14265000Y-12857500D01*
X14369000Y-12528500D02*
X14519000Y-12678500D01*
X14519000Y-12528500D02*
X14369000Y-12678500D01*
X14444000Y-12528500D02*
X14444000Y-12678500D01*
X14369000Y-12603500D02*
X14519000Y-12603500D01*
X14369000Y-13036500D02*
X14519000Y-13186500D01*
X14519000Y-13036500D02*
X14369000Y-13186500D01*
X14444000Y-13036500D02*
X14444000Y-13186500D01*
X14369000Y-13111500D02*
X14519000Y-13111500D01*
D17*
X9013000Y-6338000D02*
X9333000Y-6658000D01*
X9333000Y-6338000D02*
X9013000Y-6658000D01*
X9286138Y-6611138D02*
X9286138Y-6384862D01*
X9059862Y-6384862D01*
X9059862Y-6611138D01*
X9286138Y-6611138D01*
X9013000Y-12688000D02*
X9333000Y-13008000D01*
X9333000Y-12688000D02*
X9013000Y-13008000D01*
X9286138Y-12961138D02*
X9286138Y-12734862D01*
X9059862Y-12734862D01*
X9059862Y-12961138D01*
X9286138Y-12961138D01*
D11*
X8255119Y-14672976D02*
X8255119Y-14472976D01*
X8302738Y-14472976D01*
X8331309Y-14482500D01*
X8350357Y-14501548D01*
X8359881Y-14520595D01*
X8369405Y-14558690D01*
X8369405Y-14587262D01*
X8359881Y-14625357D01*
X8350357Y-14644405D01*
X8331309Y-14663452D01*
X8302738Y-14672976D01*
X8255119Y-14672976D01*
X8455119Y-14672976D02*
X8455119Y-14539643D01*
X8455119Y-14577738D02*
X8464643Y-14558690D01*
X8474167Y-14549167D01*
X8493214Y-14539643D01*
X8512262Y-14539643D01*
X8578929Y-14672976D02*
X8578929Y-14539643D01*
X8578929Y-14472976D02*
X8569405Y-14482500D01*
X8578929Y-14492024D01*
X8588452Y-14482500D01*
X8578929Y-14472976D01*
X8578929Y-14492024D01*
X8702738Y-14672976D02*
X8683690Y-14663452D01*
X8674167Y-14644405D01*
X8674167Y-14472976D01*
X8807500Y-14672976D02*
X8788452Y-14663452D01*
X8778929Y-14644405D01*
X8778929Y-14472976D01*
X9036071Y-14672976D02*
X9036071Y-14472976D01*
X9102738Y-14615833D01*
X9169405Y-14472976D01*
X9169405Y-14672976D01*
X9350357Y-14672976D02*
X9350357Y-14568214D01*
X9340833Y-14549167D01*
X9321786Y-14539643D01*
X9283690Y-14539643D01*
X9264643Y-14549167D01*
X9350357Y-14663452D02*
X9331310Y-14672976D01*
X9283690Y-14672976D01*
X9264643Y-14663452D01*
X9255119Y-14644405D01*
X9255119Y-14625357D01*
X9264643Y-14606309D01*
X9283690Y-14596786D01*
X9331310Y-14596786D01*
X9350357Y-14587262D01*
X9445595Y-14539643D02*
X9445595Y-14739643D01*
X9445595Y-14549167D02*
X9464643Y-14539643D01*
X9502738Y-14539643D01*
X9521786Y-14549167D01*
X9531310Y-14558690D01*
X9540833Y-14577738D01*
X9540833Y-14634881D01*
X9531310Y-14653928D01*
X9521786Y-14663452D01*
X9502738Y-14672976D01*
X9464643Y-14672976D01*
X9445595Y-14663452D01*
X9626548Y-14653928D02*
X9636071Y-14663452D01*
X9626548Y-14672976D01*
X9617024Y-14663452D01*
X9626548Y-14653928D01*
X9626548Y-14672976D01*
X9626548Y-14549167D02*
X9636071Y-14558690D01*
X9626548Y-14568214D01*
X9617024Y-14558690D01*
X9626548Y-14549167D01*
X9626548Y-14568214D01*
D12*
X7977500Y-14992500D02*
X7997500Y-15012500D01*
X7997500Y-14992500D02*
X7977500Y-15012500D01*
D11*
X8293214Y-14892976D02*
X8312262Y-14892976D01*
X8331309Y-14902500D01*
X8340833Y-14912024D01*
X8350357Y-14931071D01*
X8359881Y-14969167D01*
X8359881Y-15016786D01*
X8350357Y-15054881D01*
X8340833Y-15073928D01*
X8331309Y-15083452D01*
X8312262Y-15092976D01*
X8293214Y-15092976D01*
X8274167Y-15083452D01*
X8264643Y-15073928D01*
X8255119Y-15054881D01*
X8245595Y-15016786D01*
X8245595Y-14969167D01*
X8255119Y-14931071D01*
X8264643Y-14912024D01*
X8274167Y-14902500D01*
X8293214Y-14892976D01*
X8445595Y-15073928D02*
X8455119Y-15083452D01*
X8445595Y-15092976D01*
X8436071Y-15083452D01*
X8445595Y-15073928D01*
X8445595Y-15092976D01*
X8531310Y-14912024D02*
X8540833Y-14902500D01*
X8559881Y-14892976D01*
X8607500Y-14892976D01*
X8626548Y-14902500D01*
X8636071Y-14912024D01*
X8645595Y-14931071D01*
X8645595Y-14950119D01*
X8636071Y-14978690D01*
X8521786Y-15092976D01*
X8645595Y-15092976D01*
X8769405Y-14892976D02*
X8788452Y-14892976D01*
X8807500Y-14902500D01*
X8817024Y-14912024D01*
X8826548Y-14931071D01*
X8836071Y-14969167D01*
X8836071Y-15016786D01*
X8826548Y-15054881D01*
X8817024Y-15073928D01*
X8807500Y-15083452D01*
X8788452Y-15092976D01*
X8769405Y-15092976D01*
X8750357Y-15083452D01*
X8740833Y-15073928D01*
X8731310Y-15054881D01*
X8721786Y-15016786D01*
X8721786Y-14969167D01*
X8731310Y-14931071D01*
X8740833Y-14912024D01*
X8750357Y-14902500D01*
X8769405Y-14892976D01*
X8959881Y-14892976D02*
X8978929Y-14892976D01*
X8997976Y-14902500D01*
X9007500Y-14912024D01*
X9017024Y-14931071D01*
X9026548Y-14969167D01*
X9026548Y-15016786D01*
X9017024Y-15054881D01*
X9007500Y-15073928D01*
X8997976Y-15083452D01*
X8978929Y-15092976D01*
X8959881Y-15092976D01*
X8940833Y-15083452D01*
X8931310Y-15073928D01*
X8921786Y-15054881D01*
X8912262Y-15016786D01*
X8912262Y-14969167D01*
X8921786Y-14931071D01*
X8931310Y-14912024D01*
X8940833Y-14902500D01*
X8959881Y-14892976D01*
X9112262Y-15092976D02*
X9112262Y-14959643D01*
X9112262Y-14978690D02*
X9121786Y-14969167D01*
X9140833Y-14959643D01*
X9169405Y-14959643D01*
X9188452Y-14969167D01*
X9197976Y-14988214D01*
X9197976Y-15092976D01*
X9197976Y-14988214D02*
X9207500Y-14969167D01*
X9226548Y-14959643D01*
X9255119Y-14959643D01*
X9274167Y-14969167D01*
X9283690Y-14988214D01*
X9283690Y-15092976D01*
X9378929Y-15092976D02*
X9378929Y-14959643D01*
X9378929Y-14978690D02*
X9388452Y-14969167D01*
X9407500Y-14959643D01*
X9436071Y-14959643D01*
X9455119Y-14969167D01*
X9464643Y-14988214D01*
X9464643Y-15092976D01*
X9464643Y-14988214D02*
X9474167Y-14969167D01*
X9493214Y-14959643D01*
X9521786Y-14959643D01*
X9540833Y-14969167D01*
X9550357Y-14988214D01*
X9550357Y-15092976D01*
X9940833Y-14883452D02*
X9769405Y-15140595D01*
X10197976Y-14892976D02*
X10217024Y-14892976D01*
X10236071Y-14902500D01*
X10245595Y-14912024D01*
X10255119Y-14931071D01*
X10264643Y-14969167D01*
X10264643Y-15016786D01*
X10255119Y-15054881D01*
X10245595Y-15073928D01*
X10236071Y-15083452D01*
X10217024Y-15092976D01*
X10197976Y-15092976D01*
X10178929Y-15083452D01*
X10169405Y-15073928D01*
X10159881Y-15054881D01*
X10150357Y-15016786D01*
X10150357Y-14969167D01*
X10159881Y-14931071D01*
X10169405Y-14912024D01*
X10178929Y-14902500D01*
X10197976Y-14892976D01*
X10350357Y-15073928D02*
X10359881Y-15083452D01*
X10350357Y-15092976D01*
X10340833Y-15083452D01*
X10350357Y-15073928D01*
X10350357Y-15092976D01*
X10483690Y-14892976D02*
X10502738Y-14892976D01*
X10521786Y-14902500D01*
X10531310Y-14912024D01*
X10540833Y-14931071D01*
X10550357Y-14969167D01*
X10550357Y-15016786D01*
X10540833Y-15054881D01*
X10531310Y-15073928D01*
X10521786Y-15083452D01*
X10502738Y-15092976D01*
X10483690Y-15092976D01*
X10464643Y-15083452D01*
X10455119Y-15073928D01*
X10445595Y-15054881D01*
X10436071Y-15016786D01*
X10436071Y-14969167D01*
X10445595Y-14931071D01*
X10455119Y-14912024D01*
X10464643Y-14902500D01*
X10483690Y-14892976D01*
X10674167Y-14892976D02*
X10693214Y-14892976D01*
X10712262Y-14902500D01*
X10721786Y-14912024D01*
X10731310Y-14931071D01*
X10740833Y-14969167D01*
X10740833Y-15016786D01*
X10731310Y-15054881D01*
X10721786Y-15073928D01*
X10712262Y-15083452D01*
X10693214Y-15092976D01*
X10674167Y-15092976D01*
X10655119Y-15083452D01*
X10645595Y-15073928D01*
X10636071Y-15054881D01*
X10626548Y-15016786D01*
X10626548Y-14969167D01*
X10636071Y-14931071D01*
X10645595Y-14912024D01*
X10655119Y-14902500D01*
X10674167Y-14892976D01*
X10807500Y-14892976D02*
X10940833Y-14892976D01*
X10855119Y-15092976D01*
X11026548Y-15092976D02*
X11064643Y-15092976D01*
X11083690Y-15083452D01*
X11093214Y-15073928D01*
X11112262Y-15045357D01*
X11121786Y-15007262D01*
X11121786Y-14931071D01*
X11112262Y-14912024D01*
X11102738Y-14902500D01*
X11083690Y-14892976D01*
X11045595Y-14892976D01*
X11026548Y-14902500D01*
X11017024Y-14912024D01*
X11007500Y-14931071D01*
X11007500Y-14978690D01*
X11017024Y-14997738D01*
X11026548Y-15007262D01*
X11045595Y-15016786D01*
X11083690Y-15016786D01*
X11102738Y-15007262D01*
X11112262Y-14997738D01*
X11121786Y-14978690D01*
X11197976Y-14892976D02*
X11197976Y-14931071D01*
X11274167Y-14892976D02*
X11274167Y-14931071D01*
X11569405Y-15169167D02*
X11559881Y-15159643D01*
X11540833Y-15131071D01*
X11531309Y-15112024D01*
X11521786Y-15083452D01*
X11512262Y-15035833D01*
X11512262Y-14997738D01*
X11521786Y-14950119D01*
X11531309Y-14921548D01*
X11540833Y-14902500D01*
X11559881Y-14873928D01*
X11569405Y-14864405D01*
X11636071Y-14912024D02*
X11645595Y-14902500D01*
X11664643Y-14892976D01*
X11712262Y-14892976D01*
X11731309Y-14902500D01*
X11740833Y-14912024D01*
X11750357Y-14931071D01*
X11750357Y-14950119D01*
X11740833Y-14978690D01*
X11626548Y-15092976D01*
X11750357Y-15092976D01*
X11921786Y-14959643D02*
X11921786Y-15092976D01*
X11874167Y-14883452D02*
X11826548Y-15026309D01*
X11950357Y-15026309D01*
X12121786Y-14892976D02*
X12026548Y-14892976D01*
X12017024Y-14988214D01*
X12026548Y-14978690D01*
X12045595Y-14969167D01*
X12093214Y-14969167D01*
X12112262Y-14978690D01*
X12121786Y-14988214D01*
X12131309Y-15007262D01*
X12131309Y-15054881D01*
X12121786Y-15073928D01*
X12112262Y-15083452D01*
X12093214Y-15092976D01*
X12045595Y-15092976D01*
X12026548Y-15083452D01*
X12017024Y-15073928D01*
X12369405Y-15092976D02*
X12369405Y-14892976D01*
X12455119Y-15092976D02*
X12455119Y-14988214D01*
X12445595Y-14969167D01*
X12426548Y-14959643D01*
X12397976Y-14959643D01*
X12378928Y-14969167D01*
X12369405Y-14978690D01*
X12578928Y-15092976D02*
X12559881Y-15083452D01*
X12550357Y-15073928D01*
X12540833Y-15054881D01*
X12540833Y-14997738D01*
X12550357Y-14978690D01*
X12559881Y-14969167D01*
X12578928Y-14959643D01*
X12607500Y-14959643D01*
X12626548Y-14969167D01*
X12636071Y-14978690D01*
X12645595Y-14997738D01*
X12645595Y-15054881D01*
X12636071Y-15073928D01*
X12626548Y-15083452D01*
X12607500Y-15092976D01*
X12578928Y-15092976D01*
X12759881Y-15092976D02*
X12740833Y-15083452D01*
X12731309Y-15064405D01*
X12731309Y-14892976D01*
X12912262Y-15083452D02*
X12893214Y-15092976D01*
X12855119Y-15092976D01*
X12836071Y-15083452D01*
X12826548Y-15064405D01*
X12826548Y-14988214D01*
X12836071Y-14969167D01*
X12855119Y-14959643D01*
X12893214Y-14959643D01*
X12912262Y-14969167D01*
X12921786Y-14988214D01*
X12921786Y-15007262D01*
X12826548Y-15026309D01*
X12997976Y-15083452D02*
X13017024Y-15092976D01*
X13055119Y-15092976D01*
X13074167Y-15083452D01*
X13083690Y-15064405D01*
X13083690Y-15054881D01*
X13074167Y-15035833D01*
X13055119Y-15026309D01*
X13026548Y-15026309D01*
X13007500Y-15016786D01*
X12997976Y-14997738D01*
X12997976Y-14988214D01*
X13007500Y-14969167D01*
X13026548Y-14959643D01*
X13055119Y-14959643D01*
X13074167Y-14969167D01*
X13150357Y-15169167D02*
X13159881Y-15159643D01*
X13178928Y-15131071D01*
X13188452Y-15112024D01*
X13197976Y-15083452D01*
X13207500Y-15035833D01*
X13207500Y-14997738D01*
X13197976Y-14950119D01*
X13188452Y-14921548D01*
X13178928Y-14902500D01*
X13159881Y-14873928D01*
X13150357Y-14864405D01*
D12*
X7997500Y-15266500D02*
G75*
G03*
X7997500Y-15266500I-10000J0D01*
G01*
D11*
X8293214Y-15156976D02*
X8312262Y-15156976D01*
X8331309Y-15166500D01*
X8340833Y-15176024D01*
X8350357Y-15195071D01*
X8359881Y-15233167D01*
X8359881Y-15280786D01*
X8350357Y-15318881D01*
X8340833Y-15337928D01*
X8331309Y-15347452D01*
X8312262Y-15356976D01*
X8293214Y-15356976D01*
X8274167Y-15347452D01*
X8264643Y-15337928D01*
X8255119Y-15318881D01*
X8245595Y-15280786D01*
X8245595Y-15233167D01*
X8255119Y-15195071D01*
X8264643Y-15176024D01*
X8274167Y-15166500D01*
X8293214Y-15156976D01*
X8445595Y-15337928D02*
X8455119Y-15347452D01*
X8445595Y-15356976D01*
X8436071Y-15347452D01*
X8445595Y-15337928D01*
X8445595Y-15356976D01*
X8531310Y-15176024D02*
X8540833Y-15166500D01*
X8559881Y-15156976D01*
X8607500Y-15156976D01*
X8626548Y-15166500D01*
X8636071Y-15176024D01*
X8645595Y-15195071D01*
X8645595Y-15214119D01*
X8636071Y-15242690D01*
X8521786Y-15356976D01*
X8645595Y-15356976D01*
X8769405Y-15156976D02*
X8788452Y-15156976D01*
X8807500Y-15166500D01*
X8817024Y-15176024D01*
X8826548Y-15195071D01*
X8836071Y-15233167D01*
X8836071Y-15280786D01*
X8826548Y-15318881D01*
X8817024Y-15337928D01*
X8807500Y-15347452D01*
X8788452Y-15356976D01*
X8769405Y-15356976D01*
X8750357Y-15347452D01*
X8740833Y-15337928D01*
X8731310Y-15318881D01*
X8721786Y-15280786D01*
X8721786Y-15233167D01*
X8731310Y-15195071D01*
X8740833Y-15176024D01*
X8750357Y-15166500D01*
X8769405Y-15156976D01*
X8959881Y-15156976D02*
X8978929Y-15156976D01*
X8997976Y-15166500D01*
X9007500Y-15176024D01*
X9017024Y-15195071D01*
X9026548Y-15233167D01*
X9026548Y-15280786D01*
X9017024Y-15318881D01*
X9007500Y-15337928D01*
X8997976Y-15347452D01*
X8978929Y-15356976D01*
X8959881Y-15356976D01*
X8940833Y-15347452D01*
X8931310Y-15337928D01*
X8921786Y-15318881D01*
X8912262Y-15280786D01*
X8912262Y-15233167D01*
X8921786Y-15195071D01*
X8931310Y-15176024D01*
X8940833Y-15166500D01*
X8959881Y-15156976D01*
X9112262Y-15356976D02*
X9112262Y-15223643D01*
X9112262Y-15242690D02*
X9121786Y-15233167D01*
X9140833Y-15223643D01*
X9169405Y-15223643D01*
X9188452Y-15233167D01*
X9197976Y-15252214D01*
X9197976Y-15356976D01*
X9197976Y-15252214D02*
X9207500Y-15233167D01*
X9226548Y-15223643D01*
X9255119Y-15223643D01*
X9274167Y-15233167D01*
X9283690Y-15252214D01*
X9283690Y-15356976D01*
X9378929Y-15356976D02*
X9378929Y-15223643D01*
X9378929Y-15242690D02*
X9388452Y-15233167D01*
X9407500Y-15223643D01*
X9436071Y-15223643D01*
X9455119Y-15233167D01*
X9464643Y-15252214D01*
X9464643Y-15356976D01*
X9464643Y-15252214D02*
X9474167Y-15233167D01*
X9493214Y-15223643D01*
X9521786Y-15223643D01*
X9540833Y-15233167D01*
X9550357Y-15252214D01*
X9550357Y-15356976D01*
X9940833Y-15147452D02*
X9769405Y-15404595D01*
X10197976Y-15156976D02*
X10217024Y-15156976D01*
X10236071Y-15166500D01*
X10245595Y-15176024D01*
X10255119Y-15195071D01*
X10264643Y-15233167D01*
X10264643Y-15280786D01*
X10255119Y-15318881D01*
X10245595Y-15337928D01*
X10236071Y-15347452D01*
X10217024Y-15356976D01*
X10197976Y-15356976D01*
X10178929Y-15347452D01*
X10169405Y-15337928D01*
X10159881Y-15318881D01*
X10150357Y-15280786D01*
X10150357Y-15233167D01*
X10159881Y-15195071D01*
X10169405Y-15176024D01*
X10178929Y-15166500D01*
X10197976Y-15156976D01*
X10350357Y-15337928D02*
X10359881Y-15347452D01*
X10350357Y-15356976D01*
X10340833Y-15347452D01*
X10350357Y-15337928D01*
X10350357Y-15356976D01*
X10483690Y-15156976D02*
X10502738Y-15156976D01*
X10521786Y-15166500D01*
X10531310Y-15176024D01*
X10540833Y-15195071D01*
X10550357Y-15233167D01*
X10550357Y-15280786D01*
X10540833Y-15318881D01*
X10531310Y-15337928D01*
X10521786Y-15347452D01*
X10502738Y-15356976D01*
X10483690Y-15356976D01*
X10464643Y-15347452D01*
X10455119Y-15337928D01*
X10445595Y-15318881D01*
X10436071Y-15280786D01*
X10436071Y-15233167D01*
X10445595Y-15195071D01*
X10455119Y-15176024D01*
X10464643Y-15166500D01*
X10483690Y-15156976D01*
X10674167Y-15156976D02*
X10693214Y-15156976D01*
X10712262Y-15166500D01*
X10721786Y-15176024D01*
X10731310Y-15195071D01*
X10740833Y-15233167D01*
X10740833Y-15280786D01*
X10731310Y-15318881D01*
X10721786Y-15337928D01*
X10712262Y-15347452D01*
X10693214Y-15356976D01*
X10674167Y-15356976D01*
X10655119Y-15347452D01*
X10645595Y-15337928D01*
X10636071Y-15318881D01*
X10626548Y-15280786D01*
X10626548Y-15233167D01*
X10636071Y-15195071D01*
X10645595Y-15176024D01*
X10655119Y-15166500D01*
X10674167Y-15156976D01*
X10807500Y-15156976D02*
X10940833Y-15156976D01*
X10855119Y-15356976D01*
X11026548Y-15356976D02*
X11064643Y-15356976D01*
X11083690Y-15347452D01*
X11093214Y-15337928D01*
X11112262Y-15309357D01*
X11121786Y-15271262D01*
X11121786Y-15195071D01*
X11112262Y-15176024D01*
X11102738Y-15166500D01*
X11083690Y-15156976D01*
X11045595Y-15156976D01*
X11026548Y-15166500D01*
X11017024Y-15176024D01*
X11007500Y-15195071D01*
X11007500Y-15242690D01*
X11017024Y-15261738D01*
X11026548Y-15271262D01*
X11045595Y-15280786D01*
X11083690Y-15280786D01*
X11102738Y-15271262D01*
X11112262Y-15261738D01*
X11121786Y-15242690D01*
X11197976Y-15156976D02*
X11197976Y-15195071D01*
X11274167Y-15156976D02*
X11274167Y-15195071D01*
X11569405Y-15433167D02*
X11559881Y-15423643D01*
X11540833Y-15395071D01*
X11531309Y-15376024D01*
X11521786Y-15347452D01*
X11512262Y-15299833D01*
X11512262Y-15261738D01*
X11521786Y-15214119D01*
X11531309Y-15185548D01*
X11540833Y-15166500D01*
X11559881Y-15137928D01*
X11569405Y-15128405D01*
X11674167Y-15242690D02*
X11655119Y-15233167D01*
X11645595Y-15223643D01*
X11636071Y-15204595D01*
X11636071Y-15195071D01*
X11645595Y-15176024D01*
X11655119Y-15166500D01*
X11674167Y-15156976D01*
X11712262Y-15156976D01*
X11731309Y-15166500D01*
X11740833Y-15176024D01*
X11750357Y-15195071D01*
X11750357Y-15204595D01*
X11740833Y-15223643D01*
X11731309Y-15233167D01*
X11712262Y-15242690D01*
X11674167Y-15242690D01*
X11655119Y-15252214D01*
X11645595Y-15261738D01*
X11636071Y-15280786D01*
X11636071Y-15318881D01*
X11645595Y-15337928D01*
X11655119Y-15347452D01*
X11674167Y-15356976D01*
X11712262Y-15356976D01*
X11731309Y-15347452D01*
X11740833Y-15337928D01*
X11750357Y-15318881D01*
X11750357Y-15280786D01*
X11740833Y-15261738D01*
X11731309Y-15252214D01*
X11712262Y-15242690D01*
X11988452Y-15356976D02*
X11988452Y-15156976D01*
X12074167Y-15356976D02*
X12074167Y-15252214D01*
X12064643Y-15233167D01*
X12045595Y-15223643D01*
X12017024Y-15223643D01*
X11997976Y-15233167D01*
X11988452Y-15242690D01*
X12197976Y-15356976D02*
X12178928Y-15347452D01*
X12169405Y-15337928D01*
X12159881Y-15318881D01*
X12159881Y-15261738D01*
X12169405Y-15242690D01*
X12178928Y-15233167D01*
X12197976Y-15223643D01*
X12226548Y-15223643D01*
X12245595Y-15233167D01*
X12255119Y-15242690D01*
X12264643Y-15261738D01*
X12264643Y-15318881D01*
X12255119Y-15337928D01*
X12245595Y-15347452D01*
X12226548Y-15356976D01*
X12197976Y-15356976D01*
X12378928Y-15356976D02*
X12359881Y-15347452D01*
X12350357Y-15328405D01*
X12350357Y-15156976D01*
X12531309Y-15347452D02*
X12512262Y-15356976D01*
X12474167Y-15356976D01*
X12455119Y-15347452D01*
X12445595Y-15328405D01*
X12445595Y-15252214D01*
X12455119Y-15233167D01*
X12474167Y-15223643D01*
X12512262Y-15223643D01*
X12531309Y-15233167D01*
X12540833Y-15252214D01*
X12540833Y-15271262D01*
X12445595Y-15290309D01*
X12617024Y-15347452D02*
X12636071Y-15356976D01*
X12674167Y-15356976D01*
X12693214Y-15347452D01*
X12702738Y-15328405D01*
X12702738Y-15318881D01*
X12693214Y-15299833D01*
X12674167Y-15290309D01*
X12645595Y-15290309D01*
X12626548Y-15280786D01*
X12617024Y-15261738D01*
X12617024Y-15252214D01*
X12626548Y-15233167D01*
X12645595Y-15223643D01*
X12674167Y-15223643D01*
X12693214Y-15233167D01*
X12769405Y-15433167D02*
X12778928Y-15423643D01*
X12797976Y-15395071D01*
X12807500Y-15376024D01*
X12817024Y-15347452D01*
X12826548Y-15299833D01*
X12826548Y-15261738D01*
X12817024Y-15214119D01*
X12807500Y-15185548D01*
X12797976Y-15166500D01*
X12778928Y-15137928D01*
X12769405Y-15128405D01*
D13*
X7977500Y-15510500D02*
X7977500Y-15550500D01*
X7957500Y-15530500D02*
X7997500Y-15530500D01*
D11*
X8293214Y-15420976D02*
X8312262Y-15420976D01*
X8331309Y-15430500D01*
X8340833Y-15440024D01*
X8350357Y-15459071D01*
X8359881Y-15497167D01*
X8359881Y-15544786D01*
X8350357Y-15582881D01*
X8340833Y-15601928D01*
X8331309Y-15611452D01*
X8312262Y-15620976D01*
X8293214Y-15620976D01*
X8274167Y-15611452D01*
X8264643Y-15601928D01*
X8255119Y-15582881D01*
X8245595Y-15544786D01*
X8245595Y-15497167D01*
X8255119Y-15459071D01*
X8264643Y-15440024D01*
X8274167Y-15430500D01*
X8293214Y-15420976D01*
X8445595Y-15601928D02*
X8455119Y-15611452D01*
X8445595Y-15620976D01*
X8436071Y-15611452D01*
X8445595Y-15601928D01*
X8445595Y-15620976D01*
X8626548Y-15487643D02*
X8626548Y-15620976D01*
X8578929Y-15411452D02*
X8531310Y-15554309D01*
X8655119Y-15554309D01*
X8769405Y-15420976D02*
X8788452Y-15420976D01*
X8807500Y-15430500D01*
X8817024Y-15440024D01*
X8826548Y-15459071D01*
X8836071Y-15497167D01*
X8836071Y-15544786D01*
X8826548Y-15582881D01*
X8817024Y-15601928D01*
X8807500Y-15611452D01*
X8788452Y-15620976D01*
X8769405Y-15620976D01*
X8750357Y-15611452D01*
X8740833Y-15601928D01*
X8731310Y-15582881D01*
X8721786Y-15544786D01*
X8721786Y-15497167D01*
X8731310Y-15459071D01*
X8740833Y-15440024D01*
X8750357Y-15430500D01*
X8769405Y-15420976D01*
X8959881Y-15420976D02*
X8978929Y-15420976D01*
X8997976Y-15430500D01*
X9007500Y-15440024D01*
X9017024Y-15459071D01*
X9026548Y-15497167D01*
X9026548Y-15544786D01*
X9017024Y-15582881D01*
X9007500Y-15601928D01*
X8997976Y-15611452D01*
X8978929Y-15620976D01*
X8959881Y-15620976D01*
X8940833Y-15611452D01*
X8931310Y-15601928D01*
X8921786Y-15582881D01*
X8912262Y-15544786D01*
X8912262Y-15497167D01*
X8921786Y-15459071D01*
X8931310Y-15440024D01*
X8940833Y-15430500D01*
X8959881Y-15420976D01*
X9112262Y-15620976D02*
X9112262Y-15487643D01*
X9112262Y-15506690D02*
X9121786Y-15497167D01*
X9140833Y-15487643D01*
X9169405Y-15487643D01*
X9188452Y-15497167D01*
X9197976Y-15516214D01*
X9197976Y-15620976D01*
X9197976Y-15516214D02*
X9207500Y-15497167D01*
X9226548Y-15487643D01*
X9255119Y-15487643D01*
X9274167Y-15497167D01*
X9283690Y-15516214D01*
X9283690Y-15620976D01*
X9378929Y-15620976D02*
X9378929Y-15487643D01*
X9378929Y-15506690D02*
X9388452Y-15497167D01*
X9407500Y-15487643D01*
X9436071Y-15487643D01*
X9455119Y-15497167D01*
X9464643Y-15516214D01*
X9464643Y-15620976D01*
X9464643Y-15516214D02*
X9474167Y-15497167D01*
X9493214Y-15487643D01*
X9521786Y-15487643D01*
X9540833Y-15497167D01*
X9550357Y-15516214D01*
X9550357Y-15620976D01*
X9940833Y-15411452D02*
X9769405Y-15668595D01*
X10197976Y-15420976D02*
X10217024Y-15420976D01*
X10236071Y-15430500D01*
X10245595Y-15440024D01*
X10255119Y-15459071D01*
X10264643Y-15497167D01*
X10264643Y-15544786D01*
X10255119Y-15582881D01*
X10245595Y-15601928D01*
X10236071Y-15611452D01*
X10217024Y-15620976D01*
X10197976Y-15620976D01*
X10178929Y-15611452D01*
X10169405Y-15601928D01*
X10159881Y-15582881D01*
X10150357Y-15544786D01*
X10150357Y-15497167D01*
X10159881Y-15459071D01*
X10169405Y-15440024D01*
X10178929Y-15430500D01*
X10197976Y-15420976D01*
X10350357Y-15601928D02*
X10359881Y-15611452D01*
X10350357Y-15620976D01*
X10340833Y-15611452D01*
X10350357Y-15601928D01*
X10350357Y-15620976D01*
X10483690Y-15420976D02*
X10502738Y-15420976D01*
X10521786Y-15430500D01*
X10531310Y-15440024D01*
X10540833Y-15459071D01*
X10550357Y-15497167D01*
X10550357Y-15544786D01*
X10540833Y-15582881D01*
X10531310Y-15601928D01*
X10521786Y-15611452D01*
X10502738Y-15620976D01*
X10483690Y-15620976D01*
X10464643Y-15611452D01*
X10455119Y-15601928D01*
X10445595Y-15582881D01*
X10436071Y-15544786D01*
X10436071Y-15497167D01*
X10445595Y-15459071D01*
X10455119Y-15440024D01*
X10464643Y-15430500D01*
X10483690Y-15420976D01*
X10740833Y-15620976D02*
X10626548Y-15620976D01*
X10683690Y-15620976D02*
X10683690Y-15420976D01*
X10664643Y-15449548D01*
X10645595Y-15468595D01*
X10626548Y-15478119D01*
X10921786Y-15420976D02*
X10826548Y-15420976D01*
X10817024Y-15516214D01*
X10826548Y-15506690D01*
X10845595Y-15497167D01*
X10893214Y-15497167D01*
X10912262Y-15506690D01*
X10921786Y-15516214D01*
X10931310Y-15535262D01*
X10931310Y-15582881D01*
X10921786Y-15601928D01*
X10912262Y-15611452D01*
X10893214Y-15620976D01*
X10845595Y-15620976D01*
X10826548Y-15611452D01*
X10817024Y-15601928D01*
X10997976Y-15420976D02*
X11131310Y-15420976D01*
X11045595Y-15620976D01*
X11197976Y-15420976D02*
X11197976Y-15459071D01*
X11274167Y-15420976D02*
X11274167Y-15459071D01*
X11569405Y-15697167D02*
X11559881Y-15687643D01*
X11540833Y-15659071D01*
X11531309Y-15640024D01*
X11521786Y-15611452D01*
X11512262Y-15563833D01*
X11512262Y-15525738D01*
X11521786Y-15478119D01*
X11531309Y-15449548D01*
X11540833Y-15430500D01*
X11559881Y-15401928D01*
X11569405Y-15392405D01*
X11750357Y-15620976D02*
X11636071Y-15620976D01*
X11693214Y-15620976D02*
X11693214Y-15420976D01*
X11674167Y-15449548D01*
X11655119Y-15468595D01*
X11636071Y-15478119D01*
X11817024Y-15420976D02*
X11950357Y-15420976D01*
X11864643Y-15620976D01*
X12017024Y-15440024D02*
X12026548Y-15430500D01*
X12045595Y-15420976D01*
X12093214Y-15420976D01*
X12112262Y-15430500D01*
X12121786Y-15440024D01*
X12131309Y-15459071D01*
X12131309Y-15478119D01*
X12121786Y-15506690D01*
X12007500Y-15620976D01*
X12131309Y-15620976D01*
X12369405Y-15620976D02*
X12369405Y-15420976D01*
X12455119Y-15620976D02*
X12455119Y-15516214D01*
X12445595Y-15497167D01*
X12426548Y-15487643D01*
X12397976Y-15487643D01*
X12378928Y-15497167D01*
X12369405Y-15506690D01*
X12578928Y-15620976D02*
X12559881Y-15611452D01*
X12550357Y-15601928D01*
X12540833Y-15582881D01*
X12540833Y-15525738D01*
X12550357Y-15506690D01*
X12559881Y-15497167D01*
X12578928Y-15487643D01*
X12607500Y-15487643D01*
X12626548Y-15497167D01*
X12636071Y-15506690D01*
X12645595Y-15525738D01*
X12645595Y-15582881D01*
X12636071Y-15601928D01*
X12626548Y-15611452D01*
X12607500Y-15620976D01*
X12578928Y-15620976D01*
X12759881Y-15620976D02*
X12740833Y-15611452D01*
X12731309Y-15592405D01*
X12731309Y-15420976D01*
X12912262Y-15611452D02*
X12893214Y-15620976D01*
X12855119Y-15620976D01*
X12836071Y-15611452D01*
X12826548Y-15592405D01*
X12826548Y-15516214D01*
X12836071Y-15497167D01*
X12855119Y-15487643D01*
X12893214Y-15487643D01*
X12912262Y-15497167D01*
X12921786Y-15516214D01*
X12921786Y-15535262D01*
X12826548Y-15554309D01*
X12997976Y-15611452D02*
X13017024Y-15620976D01*
X13055119Y-15620976D01*
X13074167Y-15611452D01*
X13083690Y-15592405D01*
X13083690Y-15582881D01*
X13074167Y-15563833D01*
X13055119Y-15554309D01*
X13026548Y-15554309D01*
X13007500Y-15544786D01*
X12997976Y-15525738D01*
X12997976Y-15516214D01*
X13007500Y-15497167D01*
X13026548Y-15487643D01*
X13055119Y-15487643D01*
X13074167Y-15497167D01*
X13150357Y-15697167D02*
X13159881Y-15687643D01*
X13178928Y-15659071D01*
X13188452Y-15640024D01*
X13197976Y-15611452D01*
X13207500Y-15563833D01*
X13207500Y-15525738D01*
X13197976Y-15478119D01*
X13188452Y-15449548D01*
X13178928Y-15430500D01*
X13159881Y-15401928D01*
X13150357Y-15392405D01*
D10*
X7990178Y-15812178D02*
X7990178Y-15776822D01*
X7954822Y-15776822D01*
X7954822Y-15812178D01*
X7990178Y-15812178D01*
D11*
X8293214Y-15684976D02*
X8312262Y-15684976D01*
X8331309Y-15694500D01*
X8340833Y-15704024D01*
X8350357Y-15723071D01*
X8359881Y-15761167D01*
X8359881Y-15808786D01*
X8350357Y-15846881D01*
X8340833Y-15865928D01*
X8331309Y-15875452D01*
X8312262Y-15884976D01*
X8293214Y-15884976D01*
X8274167Y-15875452D01*
X8264643Y-15865928D01*
X8255119Y-15846881D01*
X8245595Y-15808786D01*
X8245595Y-15761167D01*
X8255119Y-15723071D01*
X8264643Y-15704024D01*
X8274167Y-15694500D01*
X8293214Y-15684976D01*
X8445595Y-15865928D02*
X8455119Y-15875452D01*
X8445595Y-15884976D01*
X8436071Y-15875452D01*
X8445595Y-15865928D01*
X8445595Y-15884976D01*
X8636071Y-15684976D02*
X8540833Y-15684976D01*
X8531310Y-15780214D01*
X8540833Y-15770690D01*
X8559881Y-15761167D01*
X8607500Y-15761167D01*
X8626548Y-15770690D01*
X8636071Y-15780214D01*
X8645595Y-15799262D01*
X8645595Y-15846881D01*
X8636071Y-15865928D01*
X8626548Y-15875452D01*
X8607500Y-15884976D01*
X8559881Y-15884976D01*
X8540833Y-15875452D01*
X8531310Y-15865928D01*
X8769405Y-15684976D02*
X8788452Y-15684976D01*
X8807500Y-15694500D01*
X8817024Y-15704024D01*
X8826548Y-15723071D01*
X8836071Y-15761167D01*
X8836071Y-15808786D01*
X8826548Y-15846881D01*
X8817024Y-15865928D01*
X8807500Y-15875452D01*
X8788452Y-15884976D01*
X8769405Y-15884976D01*
X8750357Y-15875452D01*
X8740833Y-15865928D01*
X8731310Y-15846881D01*
X8721786Y-15808786D01*
X8721786Y-15761167D01*
X8731310Y-15723071D01*
X8740833Y-15704024D01*
X8750357Y-15694500D01*
X8769405Y-15684976D01*
X8959881Y-15684976D02*
X8978929Y-15684976D01*
X8997976Y-15694500D01*
X9007500Y-15704024D01*
X9017024Y-15723071D01*
X9026548Y-15761167D01*
X9026548Y-15808786D01*
X9017024Y-15846881D01*
X9007500Y-15865928D01*
X8997976Y-15875452D01*
X8978929Y-15884976D01*
X8959881Y-15884976D01*
X8940833Y-15875452D01*
X8931310Y-15865928D01*
X8921786Y-15846881D01*
X8912262Y-15808786D01*
X8912262Y-15761167D01*
X8921786Y-15723071D01*
X8931310Y-15704024D01*
X8940833Y-15694500D01*
X8959881Y-15684976D01*
X9112262Y-15884976D02*
X9112262Y-15751643D01*
X9112262Y-15770690D02*
X9121786Y-15761167D01*
X9140833Y-15751643D01*
X9169405Y-15751643D01*
X9188452Y-15761167D01*
X9197976Y-15780214D01*
X9197976Y-15884976D01*
X9197976Y-15780214D02*
X9207500Y-15761167D01*
X9226548Y-15751643D01*
X9255119Y-15751643D01*
X9274167Y-15761167D01*
X9283690Y-15780214D01*
X9283690Y-15884976D01*
X9378929Y-15884976D02*
X9378929Y-15751643D01*
X9378929Y-15770690D02*
X9388452Y-15761167D01*
X9407500Y-15751643D01*
X9436071Y-15751643D01*
X9455119Y-15761167D01*
X9464643Y-15780214D01*
X9464643Y-15884976D01*
X9464643Y-15780214D02*
X9474167Y-15761167D01*
X9493214Y-15751643D01*
X9521786Y-15751643D01*
X9540833Y-15761167D01*
X9550357Y-15780214D01*
X9550357Y-15884976D01*
X9940833Y-15675452D02*
X9769405Y-15932595D01*
X10197976Y-15684976D02*
X10217024Y-15684976D01*
X10236071Y-15694500D01*
X10245595Y-15704024D01*
X10255119Y-15723071D01*
X10264643Y-15761167D01*
X10264643Y-15808786D01*
X10255119Y-15846881D01*
X10245595Y-15865928D01*
X10236071Y-15875452D01*
X10217024Y-15884976D01*
X10197976Y-15884976D01*
X10178929Y-15875452D01*
X10169405Y-15865928D01*
X10159881Y-15846881D01*
X10150357Y-15808786D01*
X10150357Y-15761167D01*
X10159881Y-15723071D01*
X10169405Y-15704024D01*
X10178929Y-15694500D01*
X10197976Y-15684976D01*
X10350357Y-15865928D02*
X10359881Y-15875452D01*
X10350357Y-15884976D01*
X10340833Y-15875452D01*
X10350357Y-15865928D01*
X10350357Y-15884976D01*
X10483690Y-15684976D02*
X10502738Y-15684976D01*
X10521786Y-15694500D01*
X10531310Y-15704024D01*
X10540833Y-15723071D01*
X10550357Y-15761167D01*
X10550357Y-15808786D01*
X10540833Y-15846881D01*
X10531310Y-15865928D01*
X10521786Y-15875452D01*
X10502738Y-15884976D01*
X10483690Y-15884976D01*
X10464643Y-15875452D01*
X10455119Y-15865928D01*
X10445595Y-15846881D01*
X10436071Y-15808786D01*
X10436071Y-15761167D01*
X10445595Y-15723071D01*
X10455119Y-15704024D01*
X10464643Y-15694500D01*
X10483690Y-15684976D01*
X10740833Y-15884976D02*
X10626548Y-15884976D01*
X10683690Y-15884976D02*
X10683690Y-15684976D01*
X10664643Y-15713548D01*
X10645595Y-15732595D01*
X10626548Y-15742119D01*
X10836071Y-15884976D02*
X10874167Y-15884976D01*
X10893214Y-15875452D01*
X10902738Y-15865928D01*
X10921786Y-15837357D01*
X10931310Y-15799262D01*
X10931310Y-15723071D01*
X10921786Y-15704024D01*
X10912262Y-15694500D01*
X10893214Y-15684976D01*
X10855119Y-15684976D01*
X10836071Y-15694500D01*
X10826548Y-15704024D01*
X10817024Y-15723071D01*
X10817024Y-15770690D01*
X10826548Y-15789738D01*
X10836071Y-15799262D01*
X10855119Y-15808786D01*
X10893214Y-15808786D01*
X10912262Y-15799262D01*
X10921786Y-15789738D01*
X10931310Y-15770690D01*
X10997976Y-15684976D02*
X11131310Y-15684976D01*
X11045595Y-15884976D01*
X11197976Y-15684976D02*
X11197976Y-15723071D01*
X11274167Y-15684976D02*
X11274167Y-15723071D01*
X11569405Y-15961167D02*
X11559881Y-15951643D01*
X11540833Y-15923071D01*
X11531309Y-15904024D01*
X11521786Y-15875452D01*
X11512262Y-15827833D01*
X11512262Y-15789738D01*
X11521786Y-15742119D01*
X11531309Y-15713548D01*
X11540833Y-15694500D01*
X11559881Y-15665928D01*
X11569405Y-15656405D01*
X11750357Y-15884976D02*
X11636071Y-15884976D01*
X11693214Y-15884976D02*
X11693214Y-15684976D01*
X11674167Y-15713548D01*
X11655119Y-15732595D01*
X11636071Y-15742119D01*
X11826548Y-15704024D02*
X11836071Y-15694500D01*
X11855119Y-15684976D01*
X11902738Y-15684976D01*
X11921786Y-15694500D01*
X11931309Y-15704024D01*
X11940833Y-15723071D01*
X11940833Y-15742119D01*
X11931309Y-15770690D01*
X11817024Y-15884976D01*
X11940833Y-15884976D01*
X12178928Y-15884976D02*
X12178928Y-15684976D01*
X12264643Y-15884976D02*
X12264643Y-15780214D01*
X12255119Y-15761167D01*
X12236071Y-15751643D01*
X12207500Y-15751643D01*
X12188452Y-15761167D01*
X12178928Y-15770690D01*
X12388452Y-15884976D02*
X12369405Y-15875452D01*
X12359881Y-15865928D01*
X12350357Y-15846881D01*
X12350357Y-15789738D01*
X12359881Y-15770690D01*
X12369405Y-15761167D01*
X12388452Y-15751643D01*
X12417024Y-15751643D01*
X12436071Y-15761167D01*
X12445595Y-15770690D01*
X12455119Y-15789738D01*
X12455119Y-15846881D01*
X12445595Y-15865928D01*
X12436071Y-15875452D01*
X12417024Y-15884976D01*
X12388452Y-15884976D01*
X12569405Y-15884976D02*
X12550357Y-15875452D01*
X12540833Y-15856405D01*
X12540833Y-15684976D01*
X12721786Y-15875452D02*
X12702738Y-15884976D01*
X12664643Y-15884976D01*
X12645595Y-15875452D01*
X12636071Y-15856405D01*
X12636071Y-15780214D01*
X12645595Y-15761167D01*
X12664643Y-15751643D01*
X12702738Y-15751643D01*
X12721786Y-15761167D01*
X12731309Y-15780214D01*
X12731309Y-15799262D01*
X12636071Y-15818309D01*
X12807500Y-15875452D02*
X12826548Y-15884976D01*
X12864643Y-15884976D01*
X12883690Y-15875452D01*
X12893214Y-15856405D01*
X12893214Y-15846881D01*
X12883690Y-15827833D01*
X12864643Y-15818309D01*
X12836071Y-15818309D01*
X12817024Y-15808786D01*
X12807500Y-15789738D01*
X12807500Y-15780214D01*
X12817024Y-15761167D01*
X12836071Y-15751643D01*
X12864643Y-15751643D01*
X12883690Y-15761167D01*
X12959881Y-15961167D02*
X12969405Y-15951643D01*
X12988452Y-15923071D01*
X12997976Y-15904024D01*
X13007500Y-15875452D01*
X13017024Y-15827833D01*
X13017024Y-15789738D01*
X13007500Y-15742119D01*
X12997976Y-15713548D01*
X12988452Y-15694500D01*
X12969405Y-15665928D01*
X12959881Y-15656405D01*
D14*
X7947500Y-16108500D02*
X7997500Y-16058500D01*
X7947500Y-16008500D01*
X7897500Y-16058500D01*
X7947500Y-16108500D01*
D11*
X8359881Y-16148976D02*
X8245595Y-16148976D01*
X8302738Y-16148976D02*
X8302738Y-15948976D01*
X8283690Y-15977548D01*
X8264643Y-15996595D01*
X8245595Y-16006119D01*
X8445595Y-16129928D02*
X8455119Y-16139452D01*
X8445595Y-16148976D01*
X8436071Y-16139452D01*
X8445595Y-16129928D01*
X8445595Y-16148976D01*
X8578929Y-15948976D02*
X8597976Y-15948976D01*
X8617024Y-15958500D01*
X8626548Y-15968024D01*
X8636071Y-15987071D01*
X8645595Y-16025167D01*
X8645595Y-16072786D01*
X8636071Y-16110881D01*
X8626548Y-16129928D01*
X8617024Y-16139452D01*
X8597976Y-16148976D01*
X8578929Y-16148976D01*
X8559881Y-16139452D01*
X8550357Y-16129928D01*
X8540833Y-16110881D01*
X8531310Y-16072786D01*
X8531310Y-16025167D01*
X8540833Y-15987071D01*
X8550357Y-15968024D01*
X8559881Y-15958500D01*
X8578929Y-15948976D01*
X8769405Y-15948976D02*
X8788452Y-15948976D01*
X8807500Y-15958500D01*
X8817024Y-15968024D01*
X8826548Y-15987071D01*
X8836071Y-16025167D01*
X8836071Y-16072786D01*
X8826548Y-16110881D01*
X8817024Y-16129928D01*
X8807500Y-16139452D01*
X8788452Y-16148976D01*
X8769405Y-16148976D01*
X8750357Y-16139452D01*
X8740833Y-16129928D01*
X8731310Y-16110881D01*
X8721786Y-16072786D01*
X8721786Y-16025167D01*
X8731310Y-15987071D01*
X8740833Y-15968024D01*
X8750357Y-15958500D01*
X8769405Y-15948976D01*
X8959881Y-15948976D02*
X8978929Y-15948976D01*
X8997976Y-15958500D01*
X9007500Y-15968024D01*
X9017024Y-15987071D01*
X9026548Y-16025167D01*
X9026548Y-16072786D01*
X9017024Y-16110881D01*
X9007500Y-16129928D01*
X8997976Y-16139452D01*
X8978929Y-16148976D01*
X8959881Y-16148976D01*
X8940833Y-16139452D01*
X8931310Y-16129928D01*
X8921786Y-16110881D01*
X8912262Y-16072786D01*
X8912262Y-16025167D01*
X8921786Y-15987071D01*
X8931310Y-15968024D01*
X8940833Y-15958500D01*
X8959881Y-15948976D01*
X9112262Y-16148976D02*
X9112262Y-16015643D01*
X9112262Y-16034690D02*
X9121786Y-16025167D01*
X9140833Y-16015643D01*
X9169405Y-16015643D01*
X9188452Y-16025167D01*
X9197976Y-16044214D01*
X9197976Y-16148976D01*
X9197976Y-16044214D02*
X9207500Y-16025167D01*
X9226548Y-16015643D01*
X9255119Y-16015643D01*
X9274167Y-16025167D01*
X9283690Y-16044214D01*
X9283690Y-16148976D01*
X9378929Y-16148976D02*
X9378929Y-16015643D01*
X9378929Y-16034690D02*
X9388452Y-16025167D01*
X9407500Y-16015643D01*
X9436071Y-16015643D01*
X9455119Y-16025167D01*
X9464643Y-16044214D01*
X9464643Y-16148976D01*
X9464643Y-16044214D02*
X9474167Y-16025167D01*
X9493214Y-16015643D01*
X9521786Y-16015643D01*
X9540833Y-16025167D01*
X9550357Y-16044214D01*
X9550357Y-16148976D01*
X9940833Y-15939452D02*
X9769405Y-16196595D01*
X10197976Y-15948976D02*
X10217024Y-15948976D01*
X10236071Y-15958500D01*
X10245595Y-15968024D01*
X10255119Y-15987071D01*
X10264643Y-16025167D01*
X10264643Y-16072786D01*
X10255119Y-16110881D01*
X10245595Y-16129928D01*
X10236071Y-16139452D01*
X10217024Y-16148976D01*
X10197976Y-16148976D01*
X10178929Y-16139452D01*
X10169405Y-16129928D01*
X10159881Y-16110881D01*
X10150357Y-16072786D01*
X10150357Y-16025167D01*
X10159881Y-15987071D01*
X10169405Y-15968024D01*
X10178929Y-15958500D01*
X10197976Y-15948976D01*
X10350357Y-16129928D02*
X10359881Y-16139452D01*
X10350357Y-16148976D01*
X10340833Y-16139452D01*
X10350357Y-16129928D01*
X10350357Y-16148976D01*
X10483690Y-15948976D02*
X10502738Y-15948976D01*
X10521786Y-15958500D01*
X10531310Y-15968024D01*
X10540833Y-15987071D01*
X10550357Y-16025167D01*
X10550357Y-16072786D01*
X10540833Y-16110881D01*
X10531310Y-16129928D01*
X10521786Y-16139452D01*
X10502738Y-16148976D01*
X10483690Y-16148976D01*
X10464643Y-16139452D01*
X10455119Y-16129928D01*
X10445595Y-16110881D01*
X10436071Y-16072786D01*
X10436071Y-16025167D01*
X10445595Y-15987071D01*
X10455119Y-15968024D01*
X10464643Y-15958500D01*
X10483690Y-15948976D01*
X10617024Y-15948976D02*
X10740833Y-15948976D01*
X10674167Y-16025167D01*
X10702738Y-16025167D01*
X10721786Y-16034690D01*
X10731310Y-16044214D01*
X10740833Y-16063262D01*
X10740833Y-16110881D01*
X10731310Y-16129928D01*
X10721786Y-16139452D01*
X10702738Y-16148976D01*
X10645595Y-16148976D01*
X10626548Y-16139452D01*
X10617024Y-16129928D01*
X10836071Y-16148976D02*
X10874167Y-16148976D01*
X10893214Y-16139452D01*
X10902738Y-16129928D01*
X10921786Y-16101357D01*
X10931310Y-16063262D01*
X10931310Y-15987071D01*
X10921786Y-15968024D01*
X10912262Y-15958500D01*
X10893214Y-15948976D01*
X10855119Y-15948976D01*
X10836071Y-15958500D01*
X10826548Y-15968024D01*
X10817024Y-15987071D01*
X10817024Y-16034690D01*
X10826548Y-16053738D01*
X10836071Y-16063262D01*
X10855119Y-16072786D01*
X10893214Y-16072786D01*
X10912262Y-16063262D01*
X10921786Y-16053738D01*
X10931310Y-16034690D01*
X11102738Y-16015643D02*
X11102738Y-16148976D01*
X11055119Y-15939452D02*
X11007500Y-16082309D01*
X11131310Y-16082309D01*
X11197976Y-15948976D02*
X11197976Y-15987071D01*
X11274167Y-15948976D02*
X11274167Y-15987071D01*
X11569405Y-16225167D02*
X11559881Y-16215643D01*
X11540833Y-16187071D01*
X11531309Y-16168024D01*
X11521786Y-16139452D01*
X11512262Y-16091833D01*
X11512262Y-16053738D01*
X11521786Y-16006119D01*
X11531309Y-15977548D01*
X11540833Y-15958500D01*
X11559881Y-15929928D01*
X11569405Y-15920405D01*
X11750357Y-16148976D02*
X11636071Y-16148976D01*
X11693214Y-16148976D02*
X11693214Y-15948976D01*
X11674167Y-15977548D01*
X11655119Y-15996595D01*
X11636071Y-16006119D01*
X11845595Y-16148976D02*
X11883690Y-16148976D01*
X11902738Y-16139452D01*
X11912262Y-16129928D01*
X11931309Y-16101357D01*
X11940833Y-16063262D01*
X11940833Y-15987071D01*
X11931309Y-15968024D01*
X11921786Y-15958500D01*
X11902738Y-15948976D01*
X11864643Y-15948976D01*
X11845595Y-15958500D01*
X11836071Y-15968024D01*
X11826548Y-15987071D01*
X11826548Y-16034690D01*
X11836071Y-16053738D01*
X11845595Y-16063262D01*
X11864643Y-16072786D01*
X11902738Y-16072786D01*
X11921786Y-16063262D01*
X11931309Y-16053738D01*
X11940833Y-16034690D01*
X12178928Y-16148976D02*
X12178928Y-15948976D01*
X12264643Y-16148976D02*
X12264643Y-16044214D01*
X12255119Y-16025167D01*
X12236071Y-16015643D01*
X12207500Y-16015643D01*
X12188452Y-16025167D01*
X12178928Y-16034690D01*
X12388452Y-16148976D02*
X12369405Y-16139452D01*
X12359881Y-16129928D01*
X12350357Y-16110881D01*
X12350357Y-16053738D01*
X12359881Y-16034690D01*
X12369405Y-16025167D01*
X12388452Y-16015643D01*
X12417024Y-16015643D01*
X12436071Y-16025167D01*
X12445595Y-16034690D01*
X12455119Y-16053738D01*
X12455119Y-16110881D01*
X12445595Y-16129928D01*
X12436071Y-16139452D01*
X12417024Y-16148976D01*
X12388452Y-16148976D01*
X12569405Y-16148976D02*
X12550357Y-16139452D01*
X12540833Y-16120405D01*
X12540833Y-15948976D01*
X12721786Y-16139452D02*
X12702738Y-16148976D01*
X12664643Y-16148976D01*
X12645595Y-16139452D01*
X12636071Y-16120405D01*
X12636071Y-16044214D01*
X12645595Y-16025167D01*
X12664643Y-16015643D01*
X12702738Y-16015643D01*
X12721786Y-16025167D01*
X12731309Y-16044214D01*
X12731309Y-16063262D01*
X12636071Y-16082309D01*
X12807500Y-16139452D02*
X12826548Y-16148976D01*
X12864643Y-16148976D01*
X12883690Y-16139452D01*
X12893214Y-16120405D01*
X12893214Y-16110881D01*
X12883690Y-16091833D01*
X12864643Y-16082309D01*
X12836071Y-16082309D01*
X12817024Y-16072786D01*
X12807500Y-16053738D01*
X12807500Y-16044214D01*
X12817024Y-16025167D01*
X12836071Y-16015643D01*
X12864643Y-16015643D01*
X12883690Y-16025167D01*
X12959881Y-16225167D02*
X12969405Y-16215643D01*
X12988452Y-16187071D01*
X12997976Y-16168024D01*
X13007500Y-16139452D01*
X13017024Y-16091833D01*
X13017024Y-16053738D01*
X13007500Y-16006119D01*
X12997976Y-15977548D01*
X12988452Y-15958500D01*
X12969405Y-15929928D01*
X12959881Y-15920405D01*
D15*
X7887500Y-16267500D02*
X7997500Y-16377500D01*
X7997500Y-16267500D02*
X7887500Y-16377500D01*
X7997500Y-16322500D02*
G75*
G03*
X7997500Y-16322500I-55000J0D01*
G01*
D11*
X8359881Y-16412976D02*
X8245595Y-16412976D01*
X8302738Y-16412976D02*
X8302738Y-16212976D01*
X8283690Y-16241548D01*
X8264643Y-16260595D01*
X8245595Y-16270119D01*
X8445595Y-16393928D02*
X8455119Y-16403452D01*
X8445595Y-16412976D01*
X8436071Y-16403452D01*
X8445595Y-16393928D01*
X8445595Y-16412976D01*
X8645595Y-16412976D02*
X8531310Y-16412976D01*
X8588452Y-16412976D02*
X8588452Y-16212976D01*
X8569405Y-16241548D01*
X8550357Y-16260595D01*
X8531310Y-16270119D01*
X8769405Y-16212976D02*
X8788452Y-16212976D01*
X8807500Y-16222500D01*
X8817024Y-16232024D01*
X8826548Y-16251071D01*
X8836071Y-16289167D01*
X8836071Y-16336786D01*
X8826548Y-16374881D01*
X8817024Y-16393928D01*
X8807500Y-16403452D01*
X8788452Y-16412976D01*
X8769405Y-16412976D01*
X8750357Y-16403452D01*
X8740833Y-16393928D01*
X8731310Y-16374881D01*
X8721786Y-16336786D01*
X8721786Y-16289167D01*
X8731310Y-16251071D01*
X8740833Y-16232024D01*
X8750357Y-16222500D01*
X8769405Y-16212976D01*
X8959881Y-16212976D02*
X8978929Y-16212976D01*
X8997976Y-16222500D01*
X9007500Y-16232024D01*
X9017024Y-16251071D01*
X9026548Y-16289167D01*
X9026548Y-16336786D01*
X9017024Y-16374881D01*
X9007500Y-16393928D01*
X8997976Y-16403452D01*
X8978929Y-16412976D01*
X8959881Y-16412976D01*
X8940833Y-16403452D01*
X8931310Y-16393928D01*
X8921786Y-16374881D01*
X8912262Y-16336786D01*
X8912262Y-16289167D01*
X8921786Y-16251071D01*
X8931310Y-16232024D01*
X8940833Y-16222500D01*
X8959881Y-16212976D01*
X9112262Y-16412976D02*
X9112262Y-16279643D01*
X9112262Y-16298690D02*
X9121786Y-16289167D01*
X9140833Y-16279643D01*
X9169405Y-16279643D01*
X9188452Y-16289167D01*
X9197976Y-16308214D01*
X9197976Y-16412976D01*
X9197976Y-16308214D02*
X9207500Y-16289167D01*
X9226548Y-16279643D01*
X9255119Y-16279643D01*
X9274167Y-16289167D01*
X9283690Y-16308214D01*
X9283690Y-16412976D01*
X9378929Y-16412976D02*
X9378929Y-16279643D01*
X9378929Y-16298690D02*
X9388452Y-16289167D01*
X9407500Y-16279643D01*
X9436071Y-16279643D01*
X9455119Y-16289167D01*
X9464643Y-16308214D01*
X9464643Y-16412976D01*
X9464643Y-16308214D02*
X9474167Y-16289167D01*
X9493214Y-16279643D01*
X9521786Y-16279643D01*
X9540833Y-16289167D01*
X9550357Y-16308214D01*
X9550357Y-16412976D01*
X9940833Y-16203452D02*
X9769405Y-16460595D01*
X10197976Y-16212976D02*
X10217024Y-16212976D01*
X10236071Y-16222500D01*
X10245595Y-16232024D01*
X10255119Y-16251071D01*
X10264643Y-16289167D01*
X10264643Y-16336786D01*
X10255119Y-16374881D01*
X10245595Y-16393928D01*
X10236071Y-16403452D01*
X10217024Y-16412976D01*
X10197976Y-16412976D01*
X10178929Y-16403452D01*
X10169405Y-16393928D01*
X10159881Y-16374881D01*
X10150357Y-16336786D01*
X10150357Y-16289167D01*
X10159881Y-16251071D01*
X10169405Y-16232024D01*
X10178929Y-16222500D01*
X10197976Y-16212976D01*
X10350357Y-16393928D02*
X10359881Y-16403452D01*
X10350357Y-16412976D01*
X10340833Y-16403452D01*
X10350357Y-16393928D01*
X10350357Y-16412976D01*
X10483690Y-16212976D02*
X10502738Y-16212976D01*
X10521786Y-16222500D01*
X10531310Y-16232024D01*
X10540833Y-16251071D01*
X10550357Y-16289167D01*
X10550357Y-16336786D01*
X10540833Y-16374881D01*
X10531310Y-16393928D01*
X10521786Y-16403452D01*
X10502738Y-16412976D01*
X10483690Y-16412976D01*
X10464643Y-16403452D01*
X10455119Y-16393928D01*
X10445595Y-16374881D01*
X10436071Y-16336786D01*
X10436071Y-16289167D01*
X10445595Y-16251071D01*
X10455119Y-16232024D01*
X10464643Y-16222500D01*
X10483690Y-16212976D01*
X10721786Y-16279643D02*
X10721786Y-16412976D01*
X10674167Y-16203452D02*
X10626548Y-16346309D01*
X10750357Y-16346309D01*
X10807500Y-16212976D02*
X10931310Y-16212976D01*
X10864643Y-16289167D01*
X10893214Y-16289167D01*
X10912262Y-16298690D01*
X10921786Y-16308214D01*
X10931310Y-16327262D01*
X10931310Y-16374881D01*
X10921786Y-16393928D01*
X10912262Y-16403452D01*
X10893214Y-16412976D01*
X10836071Y-16412976D01*
X10817024Y-16403452D01*
X10807500Y-16393928D01*
X10997976Y-16212976D02*
X11121786Y-16212976D01*
X11055119Y-16289167D01*
X11083690Y-16289167D01*
X11102738Y-16298690D01*
X11112262Y-16308214D01*
X11121786Y-16327262D01*
X11121786Y-16374881D01*
X11112262Y-16393928D01*
X11102738Y-16403452D01*
X11083690Y-16412976D01*
X11026548Y-16412976D01*
X11007500Y-16403452D01*
X10997976Y-16393928D01*
X11197976Y-16212976D02*
X11197976Y-16251071D01*
X11274167Y-16212976D02*
X11274167Y-16251071D01*
X11569405Y-16489167D02*
X11559881Y-16479643D01*
X11540833Y-16451071D01*
X11531309Y-16432024D01*
X11521786Y-16403452D01*
X11512262Y-16355833D01*
X11512262Y-16317738D01*
X11521786Y-16270119D01*
X11531309Y-16241548D01*
X11540833Y-16222500D01*
X11559881Y-16193928D01*
X11569405Y-16184405D01*
X11626548Y-16212976D02*
X11750357Y-16212976D01*
X11683690Y-16289167D01*
X11712262Y-16289167D01*
X11731309Y-16298690D01*
X11740833Y-16308214D01*
X11750357Y-16327262D01*
X11750357Y-16374881D01*
X11740833Y-16393928D01*
X11731309Y-16403452D01*
X11712262Y-16412976D01*
X11655119Y-16412976D01*
X11636071Y-16403452D01*
X11626548Y-16393928D01*
X11817024Y-16212976D02*
X11950357Y-16212976D01*
X11864643Y-16412976D01*
X12178928Y-16412976D02*
X12178928Y-16212976D01*
X12264643Y-16412976D02*
X12264643Y-16308214D01*
X12255119Y-16289167D01*
X12236071Y-16279643D01*
X12207500Y-16279643D01*
X12188452Y-16289167D01*
X12178928Y-16298690D01*
X12388452Y-16412976D02*
X12369405Y-16403452D01*
X12359881Y-16393928D01*
X12350357Y-16374881D01*
X12350357Y-16317738D01*
X12359881Y-16298690D01*
X12369405Y-16289167D01*
X12388452Y-16279643D01*
X12417024Y-16279643D01*
X12436071Y-16289167D01*
X12445595Y-16298690D01*
X12455119Y-16317738D01*
X12455119Y-16374881D01*
X12445595Y-16393928D01*
X12436071Y-16403452D01*
X12417024Y-16412976D01*
X12388452Y-16412976D01*
X12569405Y-16412976D02*
X12550357Y-16403452D01*
X12540833Y-16384405D01*
X12540833Y-16212976D01*
X12721786Y-16403452D02*
X12702738Y-16412976D01*
X12664643Y-16412976D01*
X12645595Y-16403452D01*
X12636071Y-16384405D01*
X12636071Y-16308214D01*
X12645595Y-16289167D01*
X12664643Y-16279643D01*
X12702738Y-16279643D01*
X12721786Y-16289167D01*
X12731309Y-16308214D01*
X12731309Y-16327262D01*
X12636071Y-16346309D01*
X12807500Y-16403452D02*
X12826548Y-16412976D01*
X12864643Y-16412976D01*
X12883690Y-16403452D01*
X12893214Y-16384405D01*
X12893214Y-16374881D01*
X12883690Y-16355833D01*
X12864643Y-16346309D01*
X12836071Y-16346309D01*
X12817024Y-16336786D01*
X12807500Y-16317738D01*
X12807500Y-16308214D01*
X12817024Y-16289167D01*
X12836071Y-16279643D01*
X12864643Y-16279643D01*
X12883690Y-16289167D01*
X12959881Y-16489167D02*
X12969405Y-16479643D01*
X12988452Y-16451071D01*
X12997976Y-16432024D01*
X13007500Y-16403452D01*
X13017024Y-16355833D01*
X13017024Y-16317738D01*
X13007500Y-16270119D01*
X12997976Y-16241548D01*
X12988452Y-16222500D01*
X12969405Y-16193928D01*
X12959881Y-16184405D01*
D16*
X7847500Y-16511500D02*
X7997500Y-16661500D01*
X7997500Y-16511500D02*
X7847500Y-16661500D01*
X7922500Y-16511500D02*
X7922500Y-16661500D01*
X7847500Y-16586500D02*
X7997500Y-16586500D01*
D11*
X8359881Y-16676976D02*
X8245595Y-16676976D01*
X8302738Y-16676976D02*
X8302738Y-16476976D01*
X8283690Y-16505548D01*
X8264643Y-16524595D01*
X8245595Y-16534119D01*
X8445595Y-16657928D02*
X8455119Y-16667452D01*
X8445595Y-16676976D01*
X8436071Y-16667452D01*
X8445595Y-16657928D01*
X8445595Y-16676976D01*
X8636071Y-16476976D02*
X8540833Y-16476976D01*
X8531310Y-16572214D01*
X8540833Y-16562690D01*
X8559881Y-16553167D01*
X8607500Y-16553167D01*
X8626548Y-16562690D01*
X8636071Y-16572214D01*
X8645595Y-16591262D01*
X8645595Y-16638881D01*
X8636071Y-16657928D01*
X8626548Y-16667452D01*
X8607500Y-16676976D01*
X8559881Y-16676976D01*
X8540833Y-16667452D01*
X8531310Y-16657928D01*
X8769405Y-16476976D02*
X8788452Y-16476976D01*
X8807500Y-16486500D01*
X8817024Y-16496024D01*
X8826548Y-16515071D01*
X8836071Y-16553167D01*
X8836071Y-16600786D01*
X8826548Y-16638881D01*
X8817024Y-16657928D01*
X8807500Y-16667452D01*
X8788452Y-16676976D01*
X8769405Y-16676976D01*
X8750357Y-16667452D01*
X8740833Y-16657928D01*
X8731310Y-16638881D01*
X8721786Y-16600786D01*
X8721786Y-16553167D01*
X8731310Y-16515071D01*
X8740833Y-16496024D01*
X8750357Y-16486500D01*
X8769405Y-16476976D01*
X8959881Y-16476976D02*
X8978929Y-16476976D01*
X8997976Y-16486500D01*
X9007500Y-16496024D01*
X9017024Y-16515071D01*
X9026548Y-16553167D01*
X9026548Y-16600786D01*
X9017024Y-16638881D01*
X9007500Y-16657928D01*
X8997976Y-16667452D01*
X8978929Y-16676976D01*
X8959881Y-16676976D01*
X8940833Y-16667452D01*
X8931310Y-16657928D01*
X8921786Y-16638881D01*
X8912262Y-16600786D01*
X8912262Y-16553167D01*
X8921786Y-16515071D01*
X8931310Y-16496024D01*
X8940833Y-16486500D01*
X8959881Y-16476976D01*
X9112262Y-16676976D02*
X9112262Y-16543643D01*
X9112262Y-16562690D02*
X9121786Y-16553167D01*
X9140833Y-16543643D01*
X9169405Y-16543643D01*
X9188452Y-16553167D01*
X9197976Y-16572214D01*
X9197976Y-16676976D01*
X9197976Y-16572214D02*
X9207500Y-16553167D01*
X9226548Y-16543643D01*
X9255119Y-16543643D01*
X9274167Y-16553167D01*
X9283690Y-16572214D01*
X9283690Y-16676976D01*
X9378929Y-16676976D02*
X9378929Y-16543643D01*
X9378929Y-16562690D02*
X9388452Y-16553167D01*
X9407500Y-16543643D01*
X9436071Y-16543643D01*
X9455119Y-16553167D01*
X9464643Y-16572214D01*
X9464643Y-16676976D01*
X9464643Y-16572214D02*
X9474167Y-16553167D01*
X9493214Y-16543643D01*
X9521786Y-16543643D01*
X9540833Y-16553167D01*
X9550357Y-16572214D01*
X9550357Y-16676976D01*
X9940833Y-16467452D02*
X9769405Y-16724595D01*
X10197976Y-16476976D02*
X10217024Y-16476976D01*
X10236071Y-16486500D01*
X10245595Y-16496024D01*
X10255119Y-16515071D01*
X10264643Y-16553167D01*
X10264643Y-16600786D01*
X10255119Y-16638881D01*
X10245595Y-16657928D01*
X10236071Y-16667452D01*
X10217024Y-16676976D01*
X10197976Y-16676976D01*
X10178929Y-16667452D01*
X10169405Y-16657928D01*
X10159881Y-16638881D01*
X10150357Y-16600786D01*
X10150357Y-16553167D01*
X10159881Y-16515071D01*
X10169405Y-16496024D01*
X10178929Y-16486500D01*
X10197976Y-16476976D01*
X10350357Y-16657928D02*
X10359881Y-16667452D01*
X10350357Y-16676976D01*
X10340833Y-16667452D01*
X10350357Y-16657928D01*
X10350357Y-16676976D01*
X10483690Y-16476976D02*
X10502738Y-16476976D01*
X10521786Y-16486500D01*
X10531310Y-16496024D01*
X10540833Y-16515071D01*
X10550357Y-16553167D01*
X10550357Y-16600786D01*
X10540833Y-16638881D01*
X10531310Y-16657928D01*
X10521786Y-16667452D01*
X10502738Y-16676976D01*
X10483690Y-16676976D01*
X10464643Y-16667452D01*
X10455119Y-16657928D01*
X10445595Y-16638881D01*
X10436071Y-16600786D01*
X10436071Y-16553167D01*
X10445595Y-16515071D01*
X10455119Y-16496024D01*
X10464643Y-16486500D01*
X10483690Y-16476976D01*
X10731310Y-16476976D02*
X10636071Y-16476976D01*
X10626548Y-16572214D01*
X10636071Y-16562690D01*
X10655119Y-16553167D01*
X10702738Y-16553167D01*
X10721786Y-16562690D01*
X10731310Y-16572214D01*
X10740833Y-16591262D01*
X10740833Y-16638881D01*
X10731310Y-16657928D01*
X10721786Y-16667452D01*
X10702738Y-16676976D01*
X10655119Y-16676976D01*
X10636071Y-16667452D01*
X10626548Y-16657928D01*
X10836071Y-16676976D02*
X10874167Y-16676976D01*
X10893214Y-16667452D01*
X10902738Y-16657928D01*
X10921786Y-16629357D01*
X10931310Y-16591262D01*
X10931310Y-16515071D01*
X10921786Y-16496024D01*
X10912262Y-16486500D01*
X10893214Y-16476976D01*
X10855119Y-16476976D01*
X10836071Y-16486500D01*
X10826548Y-16496024D01*
X10817024Y-16515071D01*
X10817024Y-16562690D01*
X10826548Y-16581738D01*
X10836071Y-16591262D01*
X10855119Y-16600786D01*
X10893214Y-16600786D01*
X10912262Y-16591262D01*
X10921786Y-16581738D01*
X10931310Y-16562690D01*
X11121786Y-16676976D02*
X11007500Y-16676976D01*
X11064643Y-16676976D02*
X11064643Y-16476976D01*
X11045595Y-16505548D01*
X11026548Y-16524595D01*
X11007500Y-16534119D01*
X11197976Y-16476976D02*
X11197976Y-16515071D01*
X11274167Y-16476976D02*
X11274167Y-16515071D01*
X11569405Y-16753167D02*
X11559881Y-16743643D01*
X11540833Y-16715071D01*
X11531309Y-16696024D01*
X11521786Y-16667452D01*
X11512262Y-16619833D01*
X11512262Y-16581738D01*
X11521786Y-16534119D01*
X11531309Y-16505548D01*
X11540833Y-16486500D01*
X11559881Y-16457928D01*
X11569405Y-16448405D01*
X11740833Y-16476976D02*
X11645595Y-16476976D01*
X11636071Y-16572214D01*
X11645595Y-16562690D01*
X11664643Y-16553167D01*
X11712262Y-16553167D01*
X11731309Y-16562690D01*
X11740833Y-16572214D01*
X11750357Y-16591262D01*
X11750357Y-16638881D01*
X11740833Y-16657928D01*
X11731309Y-16667452D01*
X11712262Y-16676976D01*
X11664643Y-16676976D01*
X11645595Y-16667452D01*
X11636071Y-16657928D01*
X11988452Y-16676976D02*
X11988452Y-16476976D01*
X12074167Y-16676976D02*
X12074167Y-16572214D01*
X12064643Y-16553167D01*
X12045595Y-16543643D01*
X12017024Y-16543643D01*
X11997976Y-16553167D01*
X11988452Y-16562690D01*
X12197976Y-16676976D02*
X12178928Y-16667452D01*
X12169405Y-16657928D01*
X12159881Y-16638881D01*
X12159881Y-16581738D01*
X12169405Y-16562690D01*
X12178928Y-16553167D01*
X12197976Y-16543643D01*
X12226548Y-16543643D01*
X12245595Y-16553167D01*
X12255119Y-16562690D01*
X12264643Y-16581738D01*
X12264643Y-16638881D01*
X12255119Y-16657928D01*
X12245595Y-16667452D01*
X12226548Y-16676976D01*
X12197976Y-16676976D01*
X12378928Y-16676976D02*
X12359881Y-16667452D01*
X12350357Y-16648405D01*
X12350357Y-16476976D01*
X12531309Y-16667452D02*
X12512262Y-16676976D01*
X12474167Y-16676976D01*
X12455119Y-16667452D01*
X12445595Y-16648405D01*
X12445595Y-16572214D01*
X12455119Y-16553167D01*
X12474167Y-16543643D01*
X12512262Y-16543643D01*
X12531309Y-16553167D01*
X12540833Y-16572214D01*
X12540833Y-16591262D01*
X12445595Y-16610309D01*
X12617024Y-16667452D02*
X12636071Y-16676976D01*
X12674167Y-16676976D01*
X12693214Y-16667452D01*
X12702738Y-16648405D01*
X12702738Y-16638881D01*
X12693214Y-16619833D01*
X12674167Y-16610309D01*
X12645595Y-16610309D01*
X12626548Y-16600786D01*
X12617024Y-16581738D01*
X12617024Y-16572214D01*
X12626548Y-16553167D01*
X12645595Y-16543643D01*
X12674167Y-16543643D01*
X12693214Y-16553167D01*
X12769405Y-16753167D02*
X12778928Y-16743643D01*
X12797976Y-16715071D01*
X12807500Y-16696024D01*
X12817024Y-16667452D01*
X12826548Y-16619833D01*
X12826548Y-16581738D01*
X12817024Y-16534119D01*
X12807500Y-16505548D01*
X12797976Y-16486500D01*
X12778928Y-16457928D01*
X12769405Y-16448405D01*
X7797500Y-16756500D02*
X7997500Y-16956500D01*
X7997500Y-16756500D02*
X7797500Y-16956500D01*
X7968211Y-16927211D02*
X7968211Y-16785789D01*
X7826789Y-16785789D01*
X7826789Y-16927211D01*
X7968211Y-16927211D01*
X8236071Y-16746976D02*
X8359881Y-16746976D01*
X8293214Y-16823167D01*
X8321786Y-16823167D01*
X8340833Y-16832690D01*
X8350357Y-16842214D01*
X8359881Y-16861262D01*
X8359881Y-16908881D01*
X8350357Y-16927929D01*
X8340833Y-16937452D01*
X8321786Y-16946976D01*
X8264643Y-16946976D01*
X8245595Y-16937452D01*
X8236071Y-16927929D01*
X8445595Y-16927929D02*
X8455119Y-16937452D01*
X8445595Y-16946976D01*
X8436071Y-16937452D01*
X8445595Y-16927929D01*
X8445595Y-16946976D01*
X8531310Y-16766024D02*
X8540833Y-16756500D01*
X8559881Y-16746976D01*
X8607500Y-16746976D01*
X8626548Y-16756500D01*
X8636071Y-16766024D01*
X8645595Y-16785071D01*
X8645595Y-16804119D01*
X8636071Y-16832690D01*
X8521786Y-16946976D01*
X8645595Y-16946976D01*
X8769405Y-16746976D02*
X8788452Y-16746976D01*
X8807500Y-16756500D01*
X8817024Y-16766024D01*
X8826548Y-16785071D01*
X8836071Y-16823167D01*
X8836071Y-16870786D01*
X8826548Y-16908881D01*
X8817024Y-16927929D01*
X8807500Y-16937452D01*
X8788452Y-16946976D01*
X8769405Y-16946976D01*
X8750357Y-16937452D01*
X8740833Y-16927929D01*
X8731310Y-16908881D01*
X8721786Y-16870786D01*
X8721786Y-16823167D01*
X8731310Y-16785071D01*
X8740833Y-16766024D01*
X8750357Y-16756500D01*
X8769405Y-16746976D01*
X8959881Y-16746976D02*
X8978929Y-16746976D01*
X8997976Y-16756500D01*
X9007500Y-16766024D01*
X9017024Y-16785071D01*
X9026548Y-16823167D01*
X9026548Y-16870786D01*
X9017024Y-16908881D01*
X9007500Y-16927929D01*
X8997976Y-16937452D01*
X8978929Y-16946976D01*
X8959881Y-16946976D01*
X8940833Y-16937452D01*
X8931310Y-16927929D01*
X8921786Y-16908881D01*
X8912262Y-16870786D01*
X8912262Y-16823167D01*
X8921786Y-16785071D01*
X8931310Y-16766024D01*
X8940833Y-16756500D01*
X8959881Y-16746976D01*
X9112262Y-16946976D02*
X9112262Y-16813643D01*
X9112262Y-16832690D02*
X9121786Y-16823167D01*
X9140833Y-16813643D01*
X9169405Y-16813643D01*
X9188452Y-16823167D01*
X9197976Y-16842214D01*
X9197976Y-16946976D01*
X9197976Y-16842214D02*
X9207500Y-16823167D01*
X9226548Y-16813643D01*
X9255119Y-16813643D01*
X9274167Y-16823167D01*
X9283690Y-16842214D01*
X9283690Y-16946976D01*
X9378929Y-16946976D02*
X9378929Y-16813643D01*
X9378929Y-16832690D02*
X9388452Y-16823167D01*
X9407500Y-16813643D01*
X9436071Y-16813643D01*
X9455119Y-16823167D01*
X9464643Y-16842214D01*
X9464643Y-16946976D01*
X9464643Y-16842214D02*
X9474167Y-16823167D01*
X9493214Y-16813643D01*
X9521786Y-16813643D01*
X9540833Y-16823167D01*
X9550357Y-16842214D01*
X9550357Y-16946976D01*
X9940833Y-16737452D02*
X9769405Y-16994595D01*
X10197976Y-16746976D02*
X10217024Y-16746976D01*
X10236071Y-16756500D01*
X10245595Y-16766024D01*
X10255119Y-16785071D01*
X10264643Y-16823167D01*
X10264643Y-16870786D01*
X10255119Y-16908881D01*
X10245595Y-16927929D01*
X10236071Y-16937452D01*
X10217024Y-16946976D01*
X10197976Y-16946976D01*
X10178929Y-16937452D01*
X10169405Y-16927929D01*
X10159881Y-16908881D01*
X10150357Y-16870786D01*
X10150357Y-16823167D01*
X10159881Y-16785071D01*
X10169405Y-16766024D01*
X10178929Y-16756500D01*
X10197976Y-16746976D01*
X10350357Y-16927929D02*
X10359881Y-16937452D01*
X10350357Y-16946976D01*
X10340833Y-16937452D01*
X10350357Y-16927929D01*
X10350357Y-16946976D01*
X10550357Y-16946976D02*
X10436071Y-16946976D01*
X10493214Y-16946976D02*
X10493214Y-16746976D01*
X10474167Y-16775548D01*
X10455119Y-16794595D01*
X10436071Y-16804119D01*
X10626548Y-16766024D02*
X10636071Y-16756500D01*
X10655119Y-16746976D01*
X10702738Y-16746976D01*
X10721786Y-16756500D01*
X10731310Y-16766024D01*
X10740833Y-16785071D01*
X10740833Y-16804119D01*
X10731310Y-16832690D01*
X10617024Y-16946976D01*
X10740833Y-16946976D01*
X10912262Y-16746976D02*
X10874167Y-16746976D01*
X10855119Y-16756500D01*
X10845595Y-16766024D01*
X10826548Y-16794595D01*
X10817024Y-16832690D01*
X10817024Y-16908881D01*
X10826548Y-16927929D01*
X10836071Y-16937452D01*
X10855119Y-16946976D01*
X10893214Y-16946976D01*
X10912262Y-16937452D01*
X10921786Y-16927929D01*
X10931310Y-16908881D01*
X10931310Y-16861262D01*
X10921786Y-16842214D01*
X10912262Y-16832690D01*
X10893214Y-16823167D01*
X10855119Y-16823167D01*
X10836071Y-16832690D01*
X10826548Y-16842214D01*
X10817024Y-16861262D01*
X11055119Y-16746976D02*
X11074167Y-16746976D01*
X11093214Y-16756500D01*
X11102738Y-16766024D01*
X11112262Y-16785071D01*
X11121786Y-16823167D01*
X11121786Y-16870786D01*
X11112262Y-16908881D01*
X11102738Y-16927929D01*
X11093214Y-16937452D01*
X11074167Y-16946976D01*
X11055119Y-16946976D01*
X11036071Y-16937452D01*
X11026548Y-16927929D01*
X11017024Y-16908881D01*
X11007500Y-16870786D01*
X11007500Y-16823167D01*
X11017024Y-16785071D01*
X11026548Y-16766024D01*
X11036071Y-16756500D01*
X11055119Y-16746976D01*
X11197976Y-16746976D02*
X11197976Y-16785071D01*
X11274167Y-16746976D02*
X11274167Y-16785071D01*
X11569405Y-17023167D02*
X11559881Y-17013643D01*
X11540833Y-16985071D01*
X11531309Y-16966024D01*
X11521786Y-16937452D01*
X11512262Y-16889833D01*
X11512262Y-16851738D01*
X11521786Y-16804119D01*
X11531309Y-16775548D01*
X11540833Y-16756500D01*
X11559881Y-16727928D01*
X11569405Y-16718405D01*
X11636071Y-16766024D02*
X11645595Y-16756500D01*
X11664643Y-16746976D01*
X11712262Y-16746976D01*
X11731309Y-16756500D01*
X11740833Y-16766024D01*
X11750357Y-16785071D01*
X11750357Y-16804119D01*
X11740833Y-16832690D01*
X11626548Y-16946976D01*
X11750357Y-16946976D01*
X11988452Y-16946976D02*
X11988452Y-16746976D01*
X12074167Y-16946976D02*
X12074167Y-16842214D01*
X12064643Y-16823167D01*
X12045595Y-16813643D01*
X12017024Y-16813643D01*
X11997976Y-16823167D01*
X11988452Y-16832690D01*
X12197976Y-16946976D02*
X12178928Y-16937452D01*
X12169405Y-16927929D01*
X12159881Y-16908881D01*
X12159881Y-16851738D01*
X12169405Y-16832690D01*
X12178928Y-16823167D01*
X12197976Y-16813643D01*
X12226548Y-16813643D01*
X12245595Y-16823167D01*
X12255119Y-16832690D01*
X12264643Y-16851738D01*
X12264643Y-16908881D01*
X12255119Y-16927929D01*
X12245595Y-16937452D01*
X12226548Y-16946976D01*
X12197976Y-16946976D01*
X12378928Y-16946976D02*
X12359881Y-16937452D01*
X12350357Y-16918405D01*
X12350357Y-16746976D01*
X12531309Y-16937452D02*
X12512262Y-16946976D01*
X12474167Y-16946976D01*
X12455119Y-16937452D01*
X12445595Y-16918405D01*
X12445595Y-16842214D01*
X12455119Y-16823167D01*
X12474167Y-16813643D01*
X12512262Y-16813643D01*
X12531309Y-16823167D01*
X12540833Y-16842214D01*
X12540833Y-16861262D01*
X12445595Y-16880310D01*
X12617024Y-16937452D02*
X12636071Y-16946976D01*
X12674167Y-16946976D01*
X12693214Y-16937452D01*
X12702738Y-16918405D01*
X12702738Y-16908881D01*
X12693214Y-16889833D01*
X12674167Y-16880310D01*
X12645595Y-16880310D01*
X12626548Y-16870786D01*
X12617024Y-16851738D01*
X12617024Y-16842214D01*
X12626548Y-16823167D01*
X12645595Y-16813643D01*
X12674167Y-16813643D01*
X12693214Y-16823167D01*
X12769405Y-17023167D02*
X12778928Y-17013643D01*
X12797976Y-16985071D01*
X12807500Y-16966024D01*
X12817024Y-16937452D01*
X12826548Y-16889833D01*
X12826548Y-16851738D01*
X12817024Y-16804119D01*
X12807500Y-16775548D01*
X12797976Y-16756500D01*
X12778928Y-16727928D01*
X12769405Y-16718405D01*
M02*
